%TF.GenerationSoftware,KiCad,Pcbnew,10.0.0*%
%TF.CreationDate,2026-04-11T11:06:47+02:00*%
%TF.ProjectId,Easyduino_ESP32S3,45617379-6475-4696-9e6f-5f4553503332,rev?*%
%TF.SameCoordinates,Original*%
%TF.FileFunction,Legend,Top*%
%TF.FilePolarity,Positive*%
%FSLAX45Y45*%
G04 Gerber Fmt 4.5, Leading zero omitted, Abs format (unit mm)*
G04 Created by KiCad (PCBNEW 10.0.0) date 2026-04-11 11:06:47*
%MOMM*%
%LPD*%
G01*
G04 APERTURE LIST*
%ADD10C,0.375000*%
%ADD11C,0.150000*%
%ADD12C,0.125000*%
%ADD13C,0.100000*%
%ADD14C,0.120000*%
G04 APERTURE END LIST*
D10*
X13177750Y-10971000D02*
G75*
G02*
X13140250Y-10971000I-18750J0D01*
G01*
X13140250Y-10971000D02*
G75*
G02*
X13177750Y-10971000I18750J0D01*
G01*
D11*
X12860631Y-6855637D02*
X12860631Y-6902303D01*
X12843965Y-6828970D02*
X12827298Y-6878970D01*
X12827298Y-6878970D02*
X12870631Y-6878970D01*
X12876665Y-7086303D02*
X12843331Y-7086303D01*
X12843331Y-7086303D02*
X12839998Y-7119637D01*
X12839998Y-7119637D02*
X12843331Y-7116303D01*
X12843331Y-7116303D02*
X12849998Y-7112970D01*
X12849998Y-7112970D02*
X12866665Y-7112970D01*
X12866665Y-7112970D02*
X12873331Y-7116303D01*
X12873331Y-7116303D02*
X12876665Y-7119637D01*
X12876665Y-7119637D02*
X12879998Y-7126303D01*
X12879998Y-7126303D02*
X12879998Y-7142970D01*
X12879998Y-7142970D02*
X12876665Y-7149637D01*
X12876665Y-7149637D02*
X12873331Y-7152970D01*
X12873331Y-7152970D02*
X12866665Y-7156303D01*
X12866665Y-7156303D02*
X12849998Y-7156303D01*
X12849998Y-7156303D02*
X12843331Y-7152970D01*
X12843331Y-7152970D02*
X12839998Y-7149637D01*
X12873331Y-7340303D02*
X12859998Y-7340303D01*
X12859998Y-7340303D02*
X12853331Y-7343637D01*
X12853331Y-7343637D02*
X12849998Y-7346970D01*
X12849998Y-7346970D02*
X12843331Y-7356970D01*
X12843331Y-7356970D02*
X12839998Y-7370303D01*
X12839998Y-7370303D02*
X12839998Y-7396970D01*
X12839998Y-7396970D02*
X12843331Y-7403637D01*
X12843331Y-7403637D02*
X12846665Y-7406970D01*
X12846665Y-7406970D02*
X12853331Y-7410303D01*
X12853331Y-7410303D02*
X12866665Y-7410303D01*
X12866665Y-7410303D02*
X12873331Y-7406970D01*
X12873331Y-7406970D02*
X12876665Y-7403637D01*
X12876665Y-7403637D02*
X12879998Y-7396970D01*
X12879998Y-7396970D02*
X12879998Y-7380303D01*
X12879998Y-7380303D02*
X12876665Y-7373637D01*
X12876665Y-7373637D02*
X12873331Y-7370303D01*
X12873331Y-7370303D02*
X12866665Y-7366970D01*
X12866665Y-7366970D02*
X12853331Y-7366970D01*
X12853331Y-7366970D02*
X12846665Y-7370303D01*
X12846665Y-7370303D02*
X12843331Y-7373637D01*
X12843331Y-7373637D02*
X12839998Y-7380303D01*
X12836665Y-7594303D02*
X12883331Y-7594303D01*
X12883331Y-7594303D02*
X12853331Y-7664303D01*
X12853331Y-8894303D02*
X12846665Y-8890970D01*
X12846665Y-8890970D02*
X12843331Y-8887637D01*
X12843331Y-8887637D02*
X12839998Y-8880970D01*
X12839998Y-8880970D02*
X12839998Y-8877637D01*
X12839998Y-8877637D02*
X12843331Y-8870970D01*
X12843331Y-8870970D02*
X12846665Y-8867637D01*
X12846665Y-8867637D02*
X12853331Y-8864303D01*
X12853331Y-8864303D02*
X12866665Y-8864303D01*
X12866665Y-8864303D02*
X12873331Y-8867637D01*
X12873331Y-8867637D02*
X12876665Y-8870970D01*
X12876665Y-8870970D02*
X12879998Y-8877637D01*
X12879998Y-8877637D02*
X12879998Y-8880970D01*
X12879998Y-8880970D02*
X12876665Y-8887637D01*
X12876665Y-8887637D02*
X12873331Y-8890970D01*
X12873331Y-8890970D02*
X12866665Y-8894303D01*
X12866665Y-8894303D02*
X12853331Y-8894303D01*
X12853331Y-8894303D02*
X12846665Y-8897637D01*
X12846665Y-8897637D02*
X12843331Y-8900970D01*
X12843331Y-8900970D02*
X12839998Y-8907637D01*
X12839998Y-8907637D02*
X12839998Y-8920970D01*
X12839998Y-8920970D02*
X12843331Y-8927637D01*
X12843331Y-8927637D02*
X12846665Y-8930970D01*
X12846665Y-8930970D02*
X12853331Y-8934303D01*
X12853331Y-8934303D02*
X12866665Y-8934303D01*
X12866665Y-8934303D02*
X12873331Y-8930970D01*
X12873331Y-8930970D02*
X12876665Y-8927637D01*
X12876665Y-8927637D02*
X12879998Y-8920970D01*
X12879998Y-8920970D02*
X12879998Y-8907637D01*
X12879998Y-8907637D02*
X12876665Y-8900970D01*
X12876665Y-8900970D02*
X12873331Y-8897637D01*
X12873331Y-8897637D02*
X12866665Y-8894303D01*
X12836665Y-9118303D02*
X12879998Y-9118303D01*
X12879998Y-9118303D02*
X12856665Y-9144970D01*
X12856665Y-9144970D02*
X12866665Y-9144970D01*
X12866665Y-9144970D02*
X12873331Y-9148303D01*
X12873331Y-9148303D02*
X12876665Y-9151637D01*
X12876665Y-9151637D02*
X12879998Y-9158303D01*
X12879998Y-9158303D02*
X12879998Y-9174970D01*
X12879998Y-9174970D02*
X12876665Y-9181637D01*
X12876665Y-9181637D02*
X12873331Y-9184970D01*
X12873331Y-9184970D02*
X12866665Y-9188303D01*
X12866665Y-9188303D02*
X12846665Y-9188303D01*
X12846665Y-9188303D02*
X12839998Y-9184970D01*
X12839998Y-9184970D02*
X12836665Y-9181637D01*
X12846665Y-9696303D02*
X12859998Y-9696303D01*
X12859998Y-9696303D02*
X12866665Y-9692970D01*
X12866665Y-9692970D02*
X12869998Y-9689637D01*
X12869998Y-9689637D02*
X12876665Y-9679637D01*
X12876665Y-9679637D02*
X12879998Y-9666303D01*
X12879998Y-9666303D02*
X12879998Y-9639637D01*
X12879998Y-9639637D02*
X12876665Y-9632970D01*
X12876665Y-9632970D02*
X12873331Y-9629637D01*
X12873331Y-9629637D02*
X12866665Y-9626303D01*
X12866665Y-9626303D02*
X12853331Y-9626303D01*
X12853331Y-9626303D02*
X12846665Y-9629637D01*
X12846665Y-9629637D02*
X12843331Y-9632970D01*
X12843331Y-9632970D02*
X12839998Y-9639637D01*
X12839998Y-9639637D02*
X12839998Y-9656303D01*
X12839998Y-9656303D02*
X12843331Y-9662970D01*
X12843331Y-9662970D02*
X12846665Y-9666303D01*
X12846665Y-9666303D02*
X12853331Y-9669637D01*
X12853331Y-9669637D02*
X12866665Y-9669637D01*
X12866665Y-9669637D02*
X12873331Y-9666303D01*
X12873331Y-9666303D02*
X12876665Y-9662970D01*
X12876665Y-9662970D02*
X12879998Y-9656303D01*
X12838731Y-7918303D02*
X12798731Y-7918303D01*
X12818731Y-7918303D02*
X12818731Y-7848303D01*
X12818731Y-7848303D02*
X12812065Y-7858303D01*
X12812065Y-7858303D02*
X12805398Y-7864970D01*
X12805398Y-7864970D02*
X12798731Y-7868303D01*
X12902065Y-7848303D02*
X12868731Y-7848303D01*
X12868731Y-7848303D02*
X12865398Y-7881637D01*
X12865398Y-7881637D02*
X12868731Y-7878303D01*
X12868731Y-7878303D02*
X12875398Y-7874970D01*
X12875398Y-7874970D02*
X12892065Y-7874970D01*
X12892065Y-7874970D02*
X12898731Y-7878303D01*
X12898731Y-7878303D02*
X12902065Y-7881637D01*
X12902065Y-7881637D02*
X12905398Y-7888303D01*
X12905398Y-7888303D02*
X12905398Y-7904970D01*
X12905398Y-7904970D02*
X12902065Y-7911637D01*
X12902065Y-7911637D02*
X12898731Y-7914970D01*
X12898731Y-7914970D02*
X12892065Y-7918303D01*
X12892065Y-7918303D02*
X12875398Y-7918303D01*
X12875398Y-7918303D02*
X12868731Y-7914970D01*
X12868731Y-7914970D02*
X12865398Y-7911637D01*
X12838731Y-8172303D02*
X12798731Y-8172303D01*
X12818731Y-8172303D02*
X12818731Y-8102303D01*
X12818731Y-8102303D02*
X12812065Y-8112303D01*
X12812065Y-8112303D02*
X12805398Y-8118970D01*
X12805398Y-8118970D02*
X12798731Y-8122303D01*
X12898731Y-8102303D02*
X12885398Y-8102303D01*
X12885398Y-8102303D02*
X12878731Y-8105637D01*
X12878731Y-8105637D02*
X12875398Y-8108970D01*
X12875398Y-8108970D02*
X12868731Y-8118970D01*
X12868731Y-8118970D02*
X12865398Y-8132303D01*
X12865398Y-8132303D02*
X12865398Y-8158970D01*
X12865398Y-8158970D02*
X12868731Y-8165637D01*
X12868731Y-8165637D02*
X12872065Y-8168970D01*
X12872065Y-8168970D02*
X12878731Y-8172303D01*
X12878731Y-8172303D02*
X12892065Y-8172303D01*
X12892065Y-8172303D02*
X12898731Y-8168970D01*
X12898731Y-8168970D02*
X12902065Y-8165637D01*
X12902065Y-8165637D02*
X12905398Y-8158970D01*
X12905398Y-8158970D02*
X12905398Y-8142303D01*
X12905398Y-8142303D02*
X12902065Y-8135637D01*
X12902065Y-8135637D02*
X12898731Y-8132303D01*
X12898731Y-8132303D02*
X12892065Y-8128970D01*
X12892065Y-8128970D02*
X12878731Y-8128970D01*
X12878731Y-8128970D02*
X12872065Y-8132303D01*
X12872065Y-8132303D02*
X12868731Y-8135637D01*
X12868731Y-8135637D02*
X12865398Y-8142303D01*
X12838731Y-8426303D02*
X12798731Y-8426303D01*
X12818731Y-8426303D02*
X12818731Y-8356303D01*
X12818731Y-8356303D02*
X12812065Y-8366303D01*
X12812065Y-8366303D02*
X12805398Y-8372970D01*
X12805398Y-8372970D02*
X12798731Y-8376303D01*
X12862065Y-8356303D02*
X12908731Y-8356303D01*
X12908731Y-8356303D02*
X12878731Y-8426303D01*
X12832065Y-9395637D02*
X12832065Y-9442303D01*
X12815398Y-9368970D02*
X12798731Y-9418970D01*
X12798731Y-9418970D02*
X12842065Y-9418970D01*
X12898731Y-9372303D02*
X12885398Y-9372303D01*
X12885398Y-9372303D02*
X12878731Y-9375637D01*
X12878731Y-9375637D02*
X12875398Y-9378970D01*
X12875398Y-9378970D02*
X12868731Y-9388970D01*
X12868731Y-9388970D02*
X12865398Y-9402303D01*
X12865398Y-9402303D02*
X12865398Y-9428970D01*
X12865398Y-9428970D02*
X12868731Y-9435637D01*
X12868731Y-9435637D02*
X12872065Y-9438970D01*
X12872065Y-9438970D02*
X12878731Y-9442303D01*
X12878731Y-9442303D02*
X12892065Y-9442303D01*
X12892065Y-9442303D02*
X12898731Y-9438970D01*
X12898731Y-9438970D02*
X12902065Y-9435637D01*
X12902065Y-9435637D02*
X12905398Y-9428970D01*
X12905398Y-9428970D02*
X12905398Y-9412303D01*
X12905398Y-9412303D02*
X12902065Y-9405637D01*
X12902065Y-9405637D02*
X12898731Y-9402303D01*
X12898731Y-9402303D02*
X12892065Y-9398970D01*
X12892065Y-9398970D02*
X12878731Y-9398970D01*
X12878731Y-9398970D02*
X12872065Y-9402303D01*
X12872065Y-9402303D02*
X12868731Y-9405637D01*
X12868731Y-9405637D02*
X12865398Y-9412303D01*
X12838731Y-9950303D02*
X12798731Y-9950303D01*
X12818731Y-9950303D02*
X12818731Y-9880303D01*
X12818731Y-9880303D02*
X12812065Y-9890303D01*
X12812065Y-9890303D02*
X12805398Y-9896970D01*
X12805398Y-9896970D02*
X12798731Y-9900303D01*
X12882065Y-9880303D02*
X12888731Y-9880303D01*
X12888731Y-9880303D02*
X12895398Y-9883637D01*
X12895398Y-9883637D02*
X12898731Y-9886970D01*
X12898731Y-9886970D02*
X12902065Y-9893637D01*
X12902065Y-9893637D02*
X12905398Y-9906970D01*
X12905398Y-9906970D02*
X12905398Y-9923637D01*
X12905398Y-9923637D02*
X12902065Y-9936970D01*
X12902065Y-9936970D02*
X12898731Y-9943637D01*
X12898731Y-9943637D02*
X12895398Y-9946970D01*
X12895398Y-9946970D02*
X12888731Y-9950303D01*
X12888731Y-9950303D02*
X12882065Y-9950303D01*
X12882065Y-9950303D02*
X12875398Y-9946970D01*
X12875398Y-9946970D02*
X12872065Y-9943637D01*
X12872065Y-9943637D02*
X12868731Y-9936970D01*
X12868731Y-9936970D02*
X12865398Y-9923637D01*
X12865398Y-9923637D02*
X12865398Y-9906970D01*
X12865398Y-9906970D02*
X12868731Y-9893637D01*
X12868731Y-9893637D02*
X12872065Y-9886970D01*
X12872065Y-9886970D02*
X12875398Y-9883637D01*
X12875398Y-9883637D02*
X12882065Y-9880303D01*
X12838731Y-10204303D02*
X12798731Y-10204303D01*
X12818731Y-10204303D02*
X12818731Y-10134303D01*
X12818731Y-10134303D02*
X12812065Y-10144303D01*
X12812065Y-10144303D02*
X12805398Y-10150970D01*
X12805398Y-10150970D02*
X12798731Y-10154303D01*
X12905398Y-10204303D02*
X12865398Y-10204303D01*
X12885398Y-10204303D02*
X12885398Y-10134303D01*
X12885398Y-10134303D02*
X12878731Y-10144303D01*
X12878731Y-10144303D02*
X12872065Y-10150970D01*
X12872065Y-10150970D02*
X12865398Y-10154303D01*
X12838731Y-10458303D02*
X12798731Y-10458303D01*
X12818731Y-10458303D02*
X12818731Y-10388303D01*
X12818731Y-10388303D02*
X12812065Y-10398303D01*
X12812065Y-10398303D02*
X12805398Y-10404970D01*
X12805398Y-10404970D02*
X12798731Y-10408303D01*
X12865398Y-10394970D02*
X12868731Y-10391637D01*
X12868731Y-10391637D02*
X12875398Y-10388303D01*
X12875398Y-10388303D02*
X12892065Y-10388303D01*
X12892065Y-10388303D02*
X12898731Y-10391637D01*
X12898731Y-10391637D02*
X12902065Y-10394970D01*
X12902065Y-10394970D02*
X12905398Y-10401637D01*
X12905398Y-10401637D02*
X12905398Y-10408303D01*
X12905398Y-10408303D02*
X12902065Y-10418303D01*
X12902065Y-10418303D02*
X12862065Y-10458303D01*
X12862065Y-10458303D02*
X12905398Y-10458303D01*
X12838731Y-10712303D02*
X12798731Y-10712303D01*
X12818731Y-10712303D02*
X12818731Y-10642303D01*
X12818731Y-10642303D02*
X12812065Y-10652303D01*
X12812065Y-10652303D02*
X12805398Y-10658970D01*
X12805398Y-10658970D02*
X12798731Y-10662303D01*
X12862065Y-10642303D02*
X12905398Y-10642303D01*
X12905398Y-10642303D02*
X12882065Y-10668970D01*
X12882065Y-10668970D02*
X12892065Y-10668970D01*
X12892065Y-10668970D02*
X12898731Y-10672303D01*
X12898731Y-10672303D02*
X12902065Y-10675637D01*
X12902065Y-10675637D02*
X12905398Y-10682303D01*
X12905398Y-10682303D02*
X12905398Y-10698970D01*
X12905398Y-10698970D02*
X12902065Y-10705637D01*
X12902065Y-10705637D02*
X12898731Y-10708970D01*
X12898731Y-10708970D02*
X12892065Y-10712303D01*
X12892065Y-10712303D02*
X12872065Y-10712303D01*
X12872065Y-10712303D02*
X12865398Y-10708970D01*
X12865398Y-10708970D02*
X12862065Y-10705637D01*
X12838731Y-10966303D02*
X12798731Y-10966303D01*
X12818731Y-10966303D02*
X12818731Y-10896303D01*
X12818731Y-10896303D02*
X12812065Y-10906303D01*
X12812065Y-10906303D02*
X12805398Y-10912970D01*
X12805398Y-10912970D02*
X12798731Y-10916303D01*
X12898731Y-10919637D02*
X12898731Y-10966303D01*
X12882065Y-10892970D02*
X12865398Y-10942970D01*
X12865398Y-10942970D02*
X12908731Y-10942970D01*
X12842065Y-11150303D02*
X12808731Y-11150303D01*
X12808731Y-11150303D02*
X12805398Y-11183637D01*
X12805398Y-11183637D02*
X12808731Y-11180303D01*
X12808731Y-11180303D02*
X12815398Y-11176970D01*
X12815398Y-11176970D02*
X12832065Y-11176970D01*
X12832065Y-11176970D02*
X12838731Y-11180303D01*
X12838731Y-11180303D02*
X12842065Y-11183637D01*
X12842065Y-11183637D02*
X12845398Y-11190303D01*
X12845398Y-11190303D02*
X12845398Y-11206970D01*
X12845398Y-11206970D02*
X12842065Y-11213637D01*
X12842065Y-11213637D02*
X12838731Y-11216970D01*
X12838731Y-11216970D02*
X12832065Y-11220303D01*
X12832065Y-11220303D02*
X12815398Y-11220303D01*
X12815398Y-11220303D02*
X12808731Y-11216970D01*
X12808731Y-11216970D02*
X12805398Y-11213637D01*
X12865398Y-11150303D02*
X12888732Y-11220303D01*
X12888732Y-11220303D02*
X12912065Y-11150303D01*
X12811432Y-6611637D02*
X12834765Y-6611637D01*
X12844765Y-6648303D02*
X12811432Y-6648303D01*
X12811432Y-6648303D02*
X12811432Y-6578303D01*
X12811432Y-6578303D02*
X12844765Y-6578303D01*
X12874765Y-6648303D02*
X12874765Y-6578303D01*
X12874765Y-6578303D02*
X12914765Y-6648303D01*
X12914765Y-6648303D02*
X12914765Y-6578303D01*
X12851431Y-8680303D02*
X12811431Y-8680303D01*
X12831431Y-8680303D02*
X12831431Y-8610303D01*
X12831431Y-8610303D02*
X12824765Y-8620303D01*
X12824765Y-8620303D02*
X12818098Y-8626970D01*
X12818098Y-8626970D02*
X12811431Y-8630303D01*
X12891431Y-8640303D02*
X12884765Y-8636970D01*
X12884765Y-8636970D02*
X12881431Y-8633637D01*
X12881431Y-8633637D02*
X12878098Y-8626970D01*
X12878098Y-8626970D02*
X12878098Y-8623637D01*
X12878098Y-8623637D02*
X12881431Y-8616970D01*
X12881431Y-8616970D02*
X12884765Y-8613637D01*
X12884765Y-8613637D02*
X12891431Y-8610303D01*
X12891431Y-8610303D02*
X12904765Y-8610303D01*
X12904765Y-8610303D02*
X12911431Y-8613637D01*
X12911431Y-8613637D02*
X12914765Y-8616970D01*
X12914765Y-8616970D02*
X12918098Y-8623637D01*
X12918098Y-8623637D02*
X12918098Y-8626970D01*
X12918098Y-8626970D02*
X12914765Y-8633637D01*
X12914765Y-8633637D02*
X12911431Y-8636970D01*
X12911431Y-8636970D02*
X12904765Y-8640303D01*
X12904765Y-8640303D02*
X12891431Y-8640303D01*
X12891431Y-8640303D02*
X12884765Y-8643637D01*
X12884765Y-8643637D02*
X12881431Y-8646970D01*
X12881431Y-8646970D02*
X12878098Y-8653637D01*
X12878098Y-8653637D02*
X12878098Y-8666970D01*
X12878098Y-8666970D02*
X12881431Y-8673637D01*
X12881431Y-8673637D02*
X12884765Y-8676970D01*
X12884765Y-8676970D02*
X12891431Y-8680303D01*
X12891431Y-8680303D02*
X12904765Y-8680303D01*
X12904765Y-8680303D02*
X12911431Y-8676970D01*
X12911431Y-8676970D02*
X12914765Y-8673637D01*
X12914765Y-8673637D02*
X12918098Y-8666970D01*
X12918098Y-8666970D02*
X12918098Y-8653637D01*
X12918098Y-8653637D02*
X12914765Y-8646970D01*
X12914765Y-8646970D02*
X12911431Y-8643637D01*
X12911431Y-8643637D02*
X12904765Y-8640303D01*
X12796832Y-11407637D02*
X12790165Y-11404303D01*
X12790165Y-11404303D02*
X12780165Y-11404303D01*
X12780165Y-11404303D02*
X12770165Y-11407637D01*
X12770165Y-11407637D02*
X12763498Y-11414303D01*
X12763498Y-11414303D02*
X12760165Y-11420970D01*
X12760165Y-11420970D02*
X12756832Y-11434303D01*
X12756832Y-11434303D02*
X12756832Y-11444303D01*
X12756832Y-11444303D02*
X12760165Y-11457637D01*
X12760165Y-11457637D02*
X12763498Y-11464303D01*
X12763498Y-11464303D02*
X12770165Y-11470970D01*
X12770165Y-11470970D02*
X12780165Y-11474303D01*
X12780165Y-11474303D02*
X12786832Y-11474303D01*
X12786832Y-11474303D02*
X12796832Y-11470970D01*
X12796832Y-11470970D02*
X12800165Y-11467637D01*
X12800165Y-11467637D02*
X12800165Y-11444303D01*
X12800165Y-11444303D02*
X12786832Y-11444303D01*
X12830165Y-11474303D02*
X12830165Y-11404303D01*
X12830165Y-11404303D02*
X12870165Y-11474303D01*
X12870165Y-11474303D02*
X12870165Y-11404303D01*
X12903498Y-11474303D02*
X12903498Y-11404303D01*
X12903498Y-11404303D02*
X12920165Y-11404303D01*
X12920165Y-11404303D02*
X12930165Y-11407637D01*
X12930165Y-11407637D02*
X12936832Y-11414303D01*
X12936832Y-11414303D02*
X12940165Y-11420970D01*
X12940165Y-11420970D02*
X12943498Y-11434303D01*
X12943498Y-11434303D02*
X12943498Y-11444303D01*
X12943498Y-11444303D02*
X12940165Y-11457637D01*
X12940165Y-11457637D02*
X12936832Y-11464303D01*
X12936832Y-11464303D02*
X12930165Y-11470970D01*
X12930165Y-11470970D02*
X12920165Y-11474303D01*
X12920165Y-11474303D02*
X12903498Y-11474303D01*
X12765565Y-6070303D02*
X12808898Y-6070303D01*
X12808898Y-6070303D02*
X12785565Y-6096970D01*
X12785565Y-6096970D02*
X12795565Y-6096970D01*
X12795565Y-6096970D02*
X12802231Y-6100303D01*
X12802231Y-6100303D02*
X12805565Y-6103637D01*
X12805565Y-6103637D02*
X12808898Y-6110303D01*
X12808898Y-6110303D02*
X12808898Y-6126970D01*
X12808898Y-6126970D02*
X12805565Y-6133637D01*
X12805565Y-6133637D02*
X12802231Y-6136970D01*
X12802231Y-6136970D02*
X12795565Y-6140303D01*
X12795565Y-6140303D02*
X12775565Y-6140303D01*
X12775565Y-6140303D02*
X12768898Y-6136970D01*
X12768898Y-6136970D02*
X12765565Y-6133637D01*
X12838898Y-6133637D02*
X12842232Y-6136970D01*
X12842232Y-6136970D02*
X12838898Y-6140303D01*
X12838898Y-6140303D02*
X12835565Y-6136970D01*
X12835565Y-6136970D02*
X12838898Y-6133637D01*
X12838898Y-6133637D02*
X12838898Y-6140303D01*
X12865565Y-6070303D02*
X12908898Y-6070303D01*
X12908898Y-6070303D02*
X12885565Y-6096970D01*
X12885565Y-6096970D02*
X12895565Y-6096970D01*
X12895565Y-6096970D02*
X12902231Y-6100303D01*
X12902231Y-6100303D02*
X12905565Y-6103637D01*
X12905565Y-6103637D02*
X12908898Y-6110303D01*
X12908898Y-6110303D02*
X12908898Y-6126970D01*
X12908898Y-6126970D02*
X12905565Y-6133637D01*
X12905565Y-6133637D02*
X12902231Y-6136970D01*
X12902231Y-6136970D02*
X12895565Y-6140303D01*
X12895565Y-6140303D02*
X12875565Y-6140303D01*
X12875565Y-6140303D02*
X12868898Y-6136970D01*
X12868898Y-6136970D02*
X12865565Y-6133637D01*
X12928898Y-6070303D02*
X12952232Y-6140303D01*
X12952232Y-6140303D02*
X12975565Y-6070303D01*
X12778265Y-6324303D02*
X12821598Y-6324303D01*
X12821598Y-6324303D02*
X12798265Y-6350970D01*
X12798265Y-6350970D02*
X12808265Y-6350970D01*
X12808265Y-6350970D02*
X12814931Y-6354303D01*
X12814931Y-6354303D02*
X12818265Y-6357637D01*
X12818265Y-6357637D02*
X12821598Y-6364303D01*
X12821598Y-6364303D02*
X12821598Y-6380970D01*
X12821598Y-6380970D02*
X12818265Y-6387637D01*
X12818265Y-6387637D02*
X12814931Y-6390970D01*
X12814931Y-6390970D02*
X12808265Y-6394303D01*
X12808265Y-6394303D02*
X12788265Y-6394303D01*
X12788265Y-6394303D02*
X12781598Y-6390970D01*
X12781598Y-6390970D02*
X12778265Y-6387637D01*
X12851598Y-6387637D02*
X12854932Y-6390970D01*
X12854932Y-6390970D02*
X12851598Y-6394303D01*
X12851598Y-6394303D02*
X12848265Y-6390970D01*
X12848265Y-6390970D02*
X12851598Y-6387637D01*
X12851598Y-6387637D02*
X12851598Y-6394303D01*
X12878265Y-6324303D02*
X12921598Y-6324303D01*
X12921598Y-6324303D02*
X12898265Y-6350970D01*
X12898265Y-6350970D02*
X12908265Y-6350970D01*
X12908265Y-6350970D02*
X12914931Y-6354303D01*
X12914931Y-6354303D02*
X12918265Y-6357637D01*
X12918265Y-6357637D02*
X12921598Y-6364303D01*
X12921598Y-6364303D02*
X12921598Y-6380970D01*
X12921598Y-6380970D02*
X12918265Y-6387637D01*
X12918265Y-6387637D02*
X12914931Y-6390970D01*
X12914931Y-6390970D02*
X12908265Y-6394303D01*
X12908265Y-6394303D02*
X12888265Y-6394303D01*
X12888265Y-6394303D02*
X12881598Y-6390970D01*
X12881598Y-6390970D02*
X12878265Y-6387637D01*
X12941598Y-6324303D02*
X12964932Y-6394303D01*
X12964932Y-6394303D02*
X12988265Y-6324303D01*
X13236798Y-9194603D02*
X13213465Y-9161270D01*
X13196798Y-9194603D02*
X13196798Y-9124603D01*
X13196798Y-9124603D02*
X13223465Y-9124603D01*
X13223465Y-9124603D02*
X13230132Y-9127937D01*
X13230132Y-9127937D02*
X13233465Y-9131270D01*
X13233465Y-9131270D02*
X13236798Y-9137937D01*
X13236798Y-9137937D02*
X13236798Y-9147937D01*
X13236798Y-9147937D02*
X13233465Y-9154603D01*
X13233465Y-9154603D02*
X13230132Y-9157937D01*
X13230132Y-9157937D02*
X13223465Y-9161270D01*
X13223465Y-9161270D02*
X13196798Y-9161270D01*
X13263465Y-9191270D02*
X13273465Y-9194603D01*
X13273465Y-9194603D02*
X13290132Y-9194603D01*
X13290132Y-9194603D02*
X13296798Y-9191270D01*
X13296798Y-9191270D02*
X13300132Y-9187937D01*
X13300132Y-9187937D02*
X13303465Y-9181270D01*
X13303465Y-9181270D02*
X13303465Y-9174603D01*
X13303465Y-9174603D02*
X13300132Y-9167937D01*
X13300132Y-9167937D02*
X13296798Y-9164603D01*
X13296798Y-9164603D02*
X13290132Y-9161270D01*
X13290132Y-9161270D02*
X13276798Y-9157937D01*
X13276798Y-9157937D02*
X13270132Y-9154603D01*
X13270132Y-9154603D02*
X13266798Y-9151270D01*
X13266798Y-9151270D02*
X13263465Y-9144603D01*
X13263465Y-9144603D02*
X13263465Y-9137937D01*
X13263465Y-9137937D02*
X13266798Y-9131270D01*
X13266798Y-9131270D02*
X13270132Y-9127937D01*
X13270132Y-9127937D02*
X13276798Y-9124603D01*
X13276798Y-9124603D02*
X13293465Y-9124603D01*
X13293465Y-9124603D02*
X13303465Y-9127937D01*
X13323465Y-9124603D02*
X13363465Y-9124603D01*
X13343465Y-9194603D02*
X13343465Y-9124603D01*
X14433465Y-10724937D02*
X14426798Y-10721603D01*
X14426798Y-10721603D02*
X14416798Y-10721603D01*
X14416798Y-10721603D02*
X14406798Y-10724937D01*
X14406798Y-10724937D02*
X14400132Y-10731603D01*
X14400132Y-10731603D02*
X14396798Y-10738270D01*
X14396798Y-10738270D02*
X14393465Y-10751603D01*
X14393465Y-10751603D02*
X14393465Y-10761603D01*
X14393465Y-10761603D02*
X14396798Y-10774937D01*
X14396798Y-10774937D02*
X14400132Y-10781603D01*
X14400132Y-10781603D02*
X14406798Y-10788270D01*
X14406798Y-10788270D02*
X14416798Y-10791603D01*
X14416798Y-10791603D02*
X14423465Y-10791603D01*
X14423465Y-10791603D02*
X14433465Y-10788270D01*
X14433465Y-10788270D02*
X14436798Y-10784937D01*
X14436798Y-10784937D02*
X14436798Y-10761603D01*
X14436798Y-10761603D02*
X14423465Y-10761603D01*
X14466798Y-10791603D02*
X14466798Y-10721603D01*
X14466798Y-10721603D02*
X14493465Y-10721603D01*
X14493465Y-10721603D02*
X14500132Y-10724937D01*
X14500132Y-10724937D02*
X14503465Y-10728270D01*
X14503465Y-10728270D02*
X14506798Y-10734937D01*
X14506798Y-10734937D02*
X14506798Y-10744937D01*
X14506798Y-10744937D02*
X14503465Y-10751603D01*
X14503465Y-10751603D02*
X14500132Y-10754937D01*
X14500132Y-10754937D02*
X14493465Y-10758270D01*
X14493465Y-10758270D02*
X14466798Y-10758270D01*
X14536798Y-10791603D02*
X14536798Y-10721603D01*
X14583465Y-10721603D02*
X14596798Y-10721603D01*
X14596798Y-10721603D02*
X14603465Y-10724937D01*
X14603465Y-10724937D02*
X14610131Y-10731603D01*
X14610131Y-10731603D02*
X14613465Y-10744937D01*
X14613465Y-10744937D02*
X14613465Y-10768270D01*
X14613465Y-10768270D02*
X14610131Y-10781603D01*
X14610131Y-10781603D02*
X14603465Y-10788270D01*
X14603465Y-10788270D02*
X14596798Y-10791603D01*
X14596798Y-10791603D02*
X14583465Y-10791603D01*
X14583465Y-10791603D02*
X14576798Y-10788270D01*
X14576798Y-10788270D02*
X14570131Y-10781603D01*
X14570131Y-10781603D02*
X14566798Y-10768270D01*
X14566798Y-10768270D02*
X14566798Y-10744937D01*
X14566798Y-10744937D02*
X14570131Y-10731603D01*
X14570131Y-10731603D02*
X14576798Y-10724937D01*
X14576798Y-10724937D02*
X14583465Y-10721603D01*
X14636798Y-10721603D02*
X14680131Y-10721603D01*
X14680131Y-10721603D02*
X14656798Y-10748270D01*
X14656798Y-10748270D02*
X14666798Y-10748270D01*
X14666798Y-10748270D02*
X14673465Y-10751603D01*
X14673465Y-10751603D02*
X14676798Y-10754937D01*
X14676798Y-10754937D02*
X14680131Y-10761603D01*
X14680131Y-10761603D02*
X14680131Y-10778270D01*
X14680131Y-10778270D02*
X14676798Y-10784937D01*
X14676798Y-10784937D02*
X14673465Y-10788270D01*
X14673465Y-10788270D02*
X14666798Y-10791603D01*
X14666798Y-10791603D02*
X14646798Y-10791603D01*
X14646798Y-10791603D02*
X14640131Y-10788270D01*
X14640131Y-10788270D02*
X14636798Y-10784937D01*
X14720131Y-10751603D02*
X14713465Y-10748270D01*
X14713465Y-10748270D02*
X14710131Y-10744937D01*
X14710131Y-10744937D02*
X14706798Y-10738270D01*
X14706798Y-10738270D02*
X14706798Y-10734937D01*
X14706798Y-10734937D02*
X14710131Y-10728270D01*
X14710131Y-10728270D02*
X14713465Y-10724937D01*
X14713465Y-10724937D02*
X14720131Y-10721603D01*
X14720131Y-10721603D02*
X14733465Y-10721603D01*
X14733465Y-10721603D02*
X14740131Y-10724937D01*
X14740131Y-10724937D02*
X14743465Y-10728270D01*
X14743465Y-10728270D02*
X14746798Y-10734937D01*
X14746798Y-10734937D02*
X14746798Y-10738270D01*
X14746798Y-10738270D02*
X14743465Y-10744937D01*
X14743465Y-10744937D02*
X14740131Y-10748270D01*
X14740131Y-10748270D02*
X14733465Y-10751603D01*
X14733465Y-10751603D02*
X14720131Y-10751603D01*
X14720131Y-10751603D02*
X14713465Y-10754937D01*
X14713465Y-10754937D02*
X14710131Y-10758270D01*
X14710131Y-10758270D02*
X14706798Y-10764937D01*
X14706798Y-10764937D02*
X14706798Y-10778270D01*
X14706798Y-10778270D02*
X14710131Y-10784937D01*
X14710131Y-10784937D02*
X14713465Y-10788270D01*
X14713465Y-10788270D02*
X14720131Y-10791603D01*
X14720131Y-10791603D02*
X14733465Y-10791603D01*
X14733465Y-10791603D02*
X14740131Y-10788270D01*
X14740131Y-10788270D02*
X14743465Y-10784937D01*
X14743465Y-10784937D02*
X14746798Y-10778270D01*
X14746798Y-10778270D02*
X14746798Y-10764937D01*
X14746798Y-10764937D02*
X14743465Y-10758270D01*
X14743465Y-10758270D02*
X14740131Y-10754937D01*
X14740131Y-10754937D02*
X14733465Y-10751603D01*
X14700132Y-9154937D02*
X14710132Y-9158270D01*
X14710132Y-9158270D02*
X14713465Y-9161603D01*
X14713465Y-9161603D02*
X14716798Y-9168270D01*
X14716798Y-9168270D02*
X14716798Y-9178270D01*
X14716798Y-9178270D02*
X14713465Y-9184937D01*
X14713465Y-9184937D02*
X14710132Y-9188270D01*
X14710132Y-9188270D02*
X14703465Y-9191603D01*
X14703465Y-9191603D02*
X14676798Y-9191603D01*
X14676798Y-9191603D02*
X14676798Y-9121603D01*
X14676798Y-9121603D02*
X14700132Y-9121603D01*
X14700132Y-9121603D02*
X14706798Y-9124937D01*
X14706798Y-9124937D02*
X14710132Y-9128270D01*
X14710132Y-9128270D02*
X14713465Y-9134937D01*
X14713465Y-9134937D02*
X14713465Y-9141603D01*
X14713465Y-9141603D02*
X14710132Y-9148270D01*
X14710132Y-9148270D02*
X14706798Y-9151603D01*
X14706798Y-9151603D02*
X14700132Y-9154937D01*
X14700132Y-9154937D02*
X14676798Y-9154937D01*
X14760132Y-9121603D02*
X14773465Y-9121603D01*
X14773465Y-9121603D02*
X14780132Y-9124937D01*
X14780132Y-9124937D02*
X14786798Y-9131603D01*
X14786798Y-9131603D02*
X14790132Y-9144937D01*
X14790132Y-9144937D02*
X14790132Y-9168270D01*
X14790132Y-9168270D02*
X14786798Y-9181603D01*
X14786798Y-9181603D02*
X14780132Y-9188270D01*
X14780132Y-9188270D02*
X14773465Y-9191603D01*
X14773465Y-9191603D02*
X14760132Y-9191603D01*
X14760132Y-9191603D02*
X14753465Y-9188270D01*
X14753465Y-9188270D02*
X14746798Y-9181603D01*
X14746798Y-9181603D02*
X14743465Y-9168270D01*
X14743465Y-9168270D02*
X14743465Y-9144937D01*
X14743465Y-9144937D02*
X14746798Y-9131603D01*
X14746798Y-9131603D02*
X14753465Y-9124937D01*
X14753465Y-9124937D02*
X14760132Y-9121603D01*
X14833465Y-9121603D02*
X14846798Y-9121603D01*
X14846798Y-9121603D02*
X14853465Y-9124937D01*
X14853465Y-9124937D02*
X14860132Y-9131603D01*
X14860132Y-9131603D02*
X14863465Y-9144937D01*
X14863465Y-9144937D02*
X14863465Y-9168270D01*
X14863465Y-9168270D02*
X14860132Y-9181603D01*
X14860132Y-9181603D02*
X14853465Y-9188270D01*
X14853465Y-9188270D02*
X14846798Y-9191603D01*
X14846798Y-9191603D02*
X14833465Y-9191603D01*
X14833465Y-9191603D02*
X14826798Y-9188270D01*
X14826798Y-9188270D02*
X14820132Y-9181603D01*
X14820132Y-9181603D02*
X14816798Y-9168270D01*
X14816798Y-9168270D02*
X14816798Y-9144937D01*
X14816798Y-9144937D02*
X14820132Y-9131603D01*
X14820132Y-9131603D02*
X14826798Y-9124937D01*
X14826798Y-9124937D02*
X14833465Y-9121603D01*
X14883465Y-9121603D02*
X14923465Y-9121603D01*
X14903465Y-9191603D02*
X14903465Y-9121603D01*
X15113298Y-7092970D02*
X15116631Y-7089637D01*
X15116631Y-7089637D02*
X15123298Y-7086303D01*
X15123298Y-7086303D02*
X15139965Y-7086303D01*
X15139965Y-7086303D02*
X15146631Y-7089637D01*
X15146631Y-7089637D02*
X15149965Y-7092970D01*
X15149965Y-7092970D02*
X15153298Y-7099637D01*
X15153298Y-7099637D02*
X15153298Y-7106303D01*
X15153298Y-7106303D02*
X15149965Y-7116303D01*
X15149965Y-7116303D02*
X15109965Y-7156303D01*
X15109965Y-7156303D02*
X15153298Y-7156303D01*
X15129965Y-9372303D02*
X15136631Y-9372303D01*
X15136631Y-9372303D02*
X15143298Y-9375637D01*
X15143298Y-9375637D02*
X15146631Y-9378970D01*
X15146631Y-9378970D02*
X15149965Y-9385637D01*
X15149965Y-9385637D02*
X15153298Y-9398970D01*
X15153298Y-9398970D02*
X15153298Y-9415637D01*
X15153298Y-9415637D02*
X15149965Y-9428970D01*
X15149965Y-9428970D02*
X15146631Y-9435637D01*
X15146631Y-9435637D02*
X15143298Y-9438970D01*
X15143298Y-9438970D02*
X15136631Y-9442303D01*
X15136631Y-9442303D02*
X15129965Y-9442303D01*
X15129965Y-9442303D02*
X15123298Y-9438970D01*
X15123298Y-9438970D02*
X15119965Y-9435637D01*
X15119965Y-9435637D02*
X15116631Y-9428970D01*
X15116631Y-9428970D02*
X15113298Y-9415637D01*
X15113298Y-9415637D02*
X15113298Y-9398970D01*
X15113298Y-9398970D02*
X15116631Y-9385637D01*
X15116631Y-9385637D02*
X15119965Y-9378970D01*
X15119965Y-9378970D02*
X15123298Y-9375637D01*
X15123298Y-9375637D02*
X15129965Y-9372303D01*
X15165998Y-6902303D02*
X15125998Y-6902303D01*
X15145998Y-6902303D02*
X15145998Y-6832303D01*
X15145998Y-6832303D02*
X15139331Y-6842303D01*
X15139331Y-6842303D02*
X15132665Y-6848970D01*
X15132665Y-6848970D02*
X15125998Y-6852303D01*
X15118065Y-6347637D02*
X15118065Y-6394303D01*
X15101398Y-6320970D02*
X15084731Y-6370970D01*
X15084731Y-6370970D02*
X15128065Y-6370970D01*
X15148065Y-6324303D02*
X15191398Y-6324303D01*
X15191398Y-6324303D02*
X15168065Y-6350970D01*
X15168065Y-6350970D02*
X15178065Y-6350970D01*
X15178065Y-6350970D02*
X15184731Y-6354303D01*
X15184731Y-6354303D02*
X15188065Y-6357637D01*
X15188065Y-6357637D02*
X15191398Y-6364303D01*
X15191398Y-6364303D02*
X15191398Y-6380970D01*
X15191398Y-6380970D02*
X15188065Y-6387637D01*
X15188065Y-6387637D02*
X15184731Y-6390970D01*
X15184731Y-6390970D02*
X15178065Y-6394303D01*
X15178065Y-6394303D02*
X15158065Y-6394303D01*
X15158065Y-6394303D02*
X15151398Y-6390970D01*
X15151398Y-6390970D02*
X15148065Y-6387637D01*
X15118065Y-6601637D02*
X15118065Y-6648303D01*
X15101398Y-6574970D02*
X15084731Y-6624970D01*
X15084731Y-6624970D02*
X15128065Y-6624970D01*
X15184731Y-6601637D02*
X15184731Y-6648303D01*
X15168065Y-6574970D02*
X15151398Y-6624970D01*
X15151398Y-6624970D02*
X15194731Y-6624970D01*
X15118065Y-7363637D02*
X15118065Y-7410303D01*
X15101398Y-7336970D02*
X15084731Y-7386970D01*
X15084731Y-7386970D02*
X15128065Y-7386970D01*
X15151398Y-7346970D02*
X15154731Y-7343637D01*
X15154731Y-7343637D02*
X15161398Y-7340303D01*
X15161398Y-7340303D02*
X15178065Y-7340303D01*
X15178065Y-7340303D02*
X15184731Y-7343637D01*
X15184731Y-7343637D02*
X15188065Y-7346970D01*
X15188065Y-7346970D02*
X15191398Y-7353637D01*
X15191398Y-7353637D02*
X15191398Y-7360303D01*
X15191398Y-7360303D02*
X15188065Y-7370303D01*
X15188065Y-7370303D02*
X15148065Y-7410303D01*
X15148065Y-7410303D02*
X15191398Y-7410303D01*
X15118065Y-7617637D02*
X15118065Y-7664303D01*
X15101398Y-7590970D02*
X15084731Y-7640970D01*
X15084731Y-7640970D02*
X15128065Y-7640970D01*
X15191398Y-7664303D02*
X15151398Y-7664303D01*
X15171398Y-7664303D02*
X15171398Y-7594303D01*
X15171398Y-7594303D02*
X15164731Y-7604303D01*
X15164731Y-7604303D02*
X15158065Y-7610970D01*
X15158065Y-7610970D02*
X15151398Y-7614303D01*
X15118065Y-7871637D02*
X15118065Y-7918303D01*
X15101398Y-7844970D02*
X15084731Y-7894970D01*
X15084731Y-7894970D02*
X15128065Y-7894970D01*
X15168065Y-7848303D02*
X15174731Y-7848303D01*
X15174731Y-7848303D02*
X15181398Y-7851637D01*
X15181398Y-7851637D02*
X15184731Y-7854970D01*
X15184731Y-7854970D02*
X15188065Y-7861637D01*
X15188065Y-7861637D02*
X15191398Y-7874970D01*
X15191398Y-7874970D02*
X15191398Y-7891637D01*
X15191398Y-7891637D02*
X15188065Y-7904970D01*
X15188065Y-7904970D02*
X15184731Y-7911637D01*
X15184731Y-7911637D02*
X15181398Y-7914970D01*
X15181398Y-7914970D02*
X15174731Y-7918303D01*
X15174731Y-7918303D02*
X15168065Y-7918303D01*
X15168065Y-7918303D02*
X15161398Y-7914970D01*
X15161398Y-7914970D02*
X15158065Y-7911637D01*
X15158065Y-7911637D02*
X15154731Y-7904970D01*
X15154731Y-7904970D02*
X15151398Y-7891637D01*
X15151398Y-7891637D02*
X15151398Y-7874970D01*
X15151398Y-7874970D02*
X15154731Y-7861637D01*
X15154731Y-7861637D02*
X15158065Y-7854970D01*
X15158065Y-7854970D02*
X15161398Y-7851637D01*
X15161398Y-7851637D02*
X15168065Y-7848303D01*
X15081398Y-8102303D02*
X15124731Y-8102303D01*
X15124731Y-8102303D02*
X15101398Y-8128970D01*
X15101398Y-8128970D02*
X15111398Y-8128970D01*
X15111398Y-8128970D02*
X15118065Y-8132303D01*
X15118065Y-8132303D02*
X15121398Y-8135637D01*
X15121398Y-8135637D02*
X15124731Y-8142303D01*
X15124731Y-8142303D02*
X15124731Y-8158970D01*
X15124731Y-8158970D02*
X15121398Y-8165637D01*
X15121398Y-8165637D02*
X15118065Y-8168970D01*
X15118065Y-8168970D02*
X15111398Y-8172303D01*
X15111398Y-8172303D02*
X15091398Y-8172303D01*
X15091398Y-8172303D02*
X15084731Y-8168970D01*
X15084731Y-8168970D02*
X15081398Y-8165637D01*
X15158065Y-8172303D02*
X15171398Y-8172303D01*
X15171398Y-8172303D02*
X15178065Y-8168970D01*
X15178065Y-8168970D02*
X15181398Y-8165637D01*
X15181398Y-8165637D02*
X15188065Y-8155637D01*
X15188065Y-8155637D02*
X15191398Y-8142303D01*
X15191398Y-8142303D02*
X15191398Y-8115637D01*
X15191398Y-8115637D02*
X15188065Y-8108970D01*
X15188065Y-8108970D02*
X15184731Y-8105637D01*
X15184731Y-8105637D02*
X15178065Y-8102303D01*
X15178065Y-8102303D02*
X15164731Y-8102303D01*
X15164731Y-8102303D02*
X15158065Y-8105637D01*
X15158065Y-8105637D02*
X15154731Y-8108970D01*
X15154731Y-8108970D02*
X15151398Y-8115637D01*
X15151398Y-8115637D02*
X15151398Y-8132303D01*
X15151398Y-8132303D02*
X15154731Y-8138970D01*
X15154731Y-8138970D02*
X15158065Y-8142303D01*
X15158065Y-8142303D02*
X15164731Y-8145637D01*
X15164731Y-8145637D02*
X15178065Y-8145637D01*
X15178065Y-8145637D02*
X15184731Y-8142303D01*
X15184731Y-8142303D02*
X15188065Y-8138970D01*
X15188065Y-8138970D02*
X15191398Y-8132303D01*
X15081398Y-8356303D02*
X15124731Y-8356303D01*
X15124731Y-8356303D02*
X15101398Y-8382970D01*
X15101398Y-8382970D02*
X15111398Y-8382970D01*
X15111398Y-8382970D02*
X15118065Y-8386303D01*
X15118065Y-8386303D02*
X15121398Y-8389637D01*
X15121398Y-8389637D02*
X15124731Y-8396303D01*
X15124731Y-8396303D02*
X15124731Y-8412970D01*
X15124731Y-8412970D02*
X15121398Y-8419637D01*
X15121398Y-8419637D02*
X15118065Y-8422970D01*
X15118065Y-8422970D02*
X15111398Y-8426303D01*
X15111398Y-8426303D02*
X15091398Y-8426303D01*
X15091398Y-8426303D02*
X15084731Y-8422970D01*
X15084731Y-8422970D02*
X15081398Y-8419637D01*
X15164731Y-8386303D02*
X15158065Y-8382970D01*
X15158065Y-8382970D02*
X15154731Y-8379637D01*
X15154731Y-8379637D02*
X15151398Y-8372970D01*
X15151398Y-8372970D02*
X15151398Y-8369637D01*
X15151398Y-8369637D02*
X15154731Y-8362970D01*
X15154731Y-8362970D02*
X15158065Y-8359637D01*
X15158065Y-8359637D02*
X15164731Y-8356303D01*
X15164731Y-8356303D02*
X15178065Y-8356303D01*
X15178065Y-8356303D02*
X15184731Y-8359637D01*
X15184731Y-8359637D02*
X15188065Y-8362970D01*
X15188065Y-8362970D02*
X15191398Y-8369637D01*
X15191398Y-8369637D02*
X15191398Y-8372970D01*
X15191398Y-8372970D02*
X15188065Y-8379637D01*
X15188065Y-8379637D02*
X15184731Y-8382970D01*
X15184731Y-8382970D02*
X15178065Y-8386303D01*
X15178065Y-8386303D02*
X15164731Y-8386303D01*
X15164731Y-8386303D02*
X15158065Y-8389637D01*
X15158065Y-8389637D02*
X15154731Y-8392970D01*
X15154731Y-8392970D02*
X15151398Y-8399637D01*
X15151398Y-8399637D02*
X15151398Y-8412970D01*
X15151398Y-8412970D02*
X15154731Y-8419637D01*
X15154731Y-8419637D02*
X15158065Y-8422970D01*
X15158065Y-8422970D02*
X15164731Y-8426303D01*
X15164731Y-8426303D02*
X15178065Y-8426303D01*
X15178065Y-8426303D02*
X15184731Y-8422970D01*
X15184731Y-8422970D02*
X15188065Y-8419637D01*
X15188065Y-8419637D02*
X15191398Y-8412970D01*
X15191398Y-8412970D02*
X15191398Y-8399637D01*
X15191398Y-8399637D02*
X15188065Y-8392970D01*
X15188065Y-8392970D02*
X15184731Y-8389637D01*
X15184731Y-8389637D02*
X15178065Y-8386303D01*
X15081398Y-8610303D02*
X15124731Y-8610303D01*
X15124731Y-8610303D02*
X15101398Y-8636970D01*
X15101398Y-8636970D02*
X15111398Y-8636970D01*
X15111398Y-8636970D02*
X15118065Y-8640303D01*
X15118065Y-8640303D02*
X15121398Y-8643637D01*
X15121398Y-8643637D02*
X15124731Y-8650303D01*
X15124731Y-8650303D02*
X15124731Y-8666970D01*
X15124731Y-8666970D02*
X15121398Y-8673637D01*
X15121398Y-8673637D02*
X15118065Y-8676970D01*
X15118065Y-8676970D02*
X15111398Y-8680303D01*
X15111398Y-8680303D02*
X15091398Y-8680303D01*
X15091398Y-8680303D02*
X15084731Y-8676970D01*
X15084731Y-8676970D02*
X15081398Y-8673637D01*
X15148065Y-8610303D02*
X15194731Y-8610303D01*
X15194731Y-8610303D02*
X15164731Y-8680303D01*
X15081398Y-8864303D02*
X15124731Y-8864303D01*
X15124731Y-8864303D02*
X15101398Y-8890970D01*
X15101398Y-8890970D02*
X15111398Y-8890970D01*
X15111398Y-8890970D02*
X15118065Y-8894303D01*
X15118065Y-8894303D02*
X15121398Y-8897637D01*
X15121398Y-8897637D02*
X15124731Y-8904303D01*
X15124731Y-8904303D02*
X15124731Y-8920970D01*
X15124731Y-8920970D02*
X15121398Y-8927637D01*
X15121398Y-8927637D02*
X15118065Y-8930970D01*
X15118065Y-8930970D02*
X15111398Y-8934303D01*
X15111398Y-8934303D02*
X15091398Y-8934303D01*
X15091398Y-8934303D02*
X15084731Y-8930970D01*
X15084731Y-8930970D02*
X15081398Y-8927637D01*
X15184731Y-8864303D02*
X15171398Y-8864303D01*
X15171398Y-8864303D02*
X15164731Y-8867637D01*
X15164731Y-8867637D02*
X15161398Y-8870970D01*
X15161398Y-8870970D02*
X15154731Y-8880970D01*
X15154731Y-8880970D02*
X15151398Y-8894303D01*
X15151398Y-8894303D02*
X15151398Y-8920970D01*
X15151398Y-8920970D02*
X15154731Y-8927637D01*
X15154731Y-8927637D02*
X15158065Y-8930970D01*
X15158065Y-8930970D02*
X15164731Y-8934303D01*
X15164731Y-8934303D02*
X15178065Y-8934303D01*
X15178065Y-8934303D02*
X15184731Y-8930970D01*
X15184731Y-8930970D02*
X15188065Y-8927637D01*
X15188065Y-8927637D02*
X15191398Y-8920970D01*
X15191398Y-8920970D02*
X15191398Y-8904303D01*
X15191398Y-8904303D02*
X15188065Y-8897637D01*
X15188065Y-8897637D02*
X15184731Y-8894303D01*
X15184731Y-8894303D02*
X15178065Y-8890970D01*
X15178065Y-8890970D02*
X15164731Y-8890970D01*
X15164731Y-8890970D02*
X15158065Y-8894303D01*
X15158065Y-8894303D02*
X15154731Y-8897637D01*
X15154731Y-8897637D02*
X15151398Y-8904303D01*
X15081398Y-9118303D02*
X15124731Y-9118303D01*
X15124731Y-9118303D02*
X15101398Y-9144970D01*
X15101398Y-9144970D02*
X15111398Y-9144970D01*
X15111398Y-9144970D02*
X15118065Y-9148303D01*
X15118065Y-9148303D02*
X15121398Y-9151637D01*
X15121398Y-9151637D02*
X15124731Y-9158303D01*
X15124731Y-9158303D02*
X15124731Y-9174970D01*
X15124731Y-9174970D02*
X15121398Y-9181637D01*
X15121398Y-9181637D02*
X15118065Y-9184970D01*
X15118065Y-9184970D02*
X15111398Y-9188303D01*
X15111398Y-9188303D02*
X15091398Y-9188303D01*
X15091398Y-9188303D02*
X15084731Y-9184970D01*
X15084731Y-9184970D02*
X15081398Y-9181637D01*
X15188065Y-9118303D02*
X15154731Y-9118303D01*
X15154731Y-9118303D02*
X15151398Y-9151637D01*
X15151398Y-9151637D02*
X15154731Y-9148303D01*
X15154731Y-9148303D02*
X15161398Y-9144970D01*
X15161398Y-9144970D02*
X15178065Y-9144970D01*
X15178065Y-9144970D02*
X15184731Y-9148303D01*
X15184731Y-9148303D02*
X15188065Y-9151637D01*
X15188065Y-9151637D02*
X15191398Y-9158303D01*
X15191398Y-9158303D02*
X15191398Y-9174970D01*
X15191398Y-9174970D02*
X15188065Y-9181637D01*
X15188065Y-9181637D02*
X15184731Y-9184970D01*
X15184731Y-9184970D02*
X15178065Y-9188303D01*
X15178065Y-9188303D02*
X15161398Y-9188303D01*
X15161398Y-9188303D02*
X15154731Y-9184970D01*
X15154731Y-9184970D02*
X15151398Y-9181637D01*
X15118065Y-9649637D02*
X15118065Y-9696303D01*
X15101398Y-9622970D02*
X15084731Y-9672970D01*
X15084731Y-9672970D02*
X15128065Y-9672970D01*
X15188065Y-9626303D02*
X15154731Y-9626303D01*
X15154731Y-9626303D02*
X15151398Y-9659637D01*
X15151398Y-9659637D02*
X15154731Y-9656303D01*
X15154731Y-9656303D02*
X15161398Y-9652970D01*
X15161398Y-9652970D02*
X15178065Y-9652970D01*
X15178065Y-9652970D02*
X15184731Y-9656303D01*
X15184731Y-9656303D02*
X15188065Y-9659637D01*
X15188065Y-9659637D02*
X15191398Y-9666303D01*
X15191398Y-9666303D02*
X15191398Y-9682970D01*
X15191398Y-9682970D02*
X15188065Y-9689637D01*
X15188065Y-9689637D02*
X15184731Y-9692970D01*
X15184731Y-9692970D02*
X15178065Y-9696303D01*
X15178065Y-9696303D02*
X15161398Y-9696303D01*
X15161398Y-9696303D02*
X15154731Y-9692970D01*
X15154731Y-9692970D02*
X15151398Y-9689637D01*
X15118065Y-9903637D02*
X15118065Y-9950303D01*
X15101398Y-9876970D02*
X15084731Y-9926970D01*
X15084731Y-9926970D02*
X15128065Y-9926970D01*
X15164731Y-9910303D02*
X15158065Y-9906970D01*
X15158065Y-9906970D02*
X15154731Y-9903637D01*
X15154731Y-9903637D02*
X15151398Y-9896970D01*
X15151398Y-9896970D02*
X15151398Y-9893637D01*
X15151398Y-9893637D02*
X15154731Y-9886970D01*
X15154731Y-9886970D02*
X15158065Y-9883637D01*
X15158065Y-9883637D02*
X15164731Y-9880303D01*
X15164731Y-9880303D02*
X15178065Y-9880303D01*
X15178065Y-9880303D02*
X15184731Y-9883637D01*
X15184731Y-9883637D02*
X15188065Y-9886970D01*
X15188065Y-9886970D02*
X15191398Y-9893637D01*
X15191398Y-9893637D02*
X15191398Y-9896970D01*
X15191398Y-9896970D02*
X15188065Y-9903637D01*
X15188065Y-9903637D02*
X15184731Y-9906970D01*
X15184731Y-9906970D02*
X15178065Y-9910303D01*
X15178065Y-9910303D02*
X15164731Y-9910303D01*
X15164731Y-9910303D02*
X15158065Y-9913637D01*
X15158065Y-9913637D02*
X15154731Y-9916970D01*
X15154731Y-9916970D02*
X15151398Y-9923637D01*
X15151398Y-9923637D02*
X15151398Y-9936970D01*
X15151398Y-9936970D02*
X15154731Y-9943637D01*
X15154731Y-9943637D02*
X15158065Y-9946970D01*
X15158065Y-9946970D02*
X15164731Y-9950303D01*
X15164731Y-9950303D02*
X15178065Y-9950303D01*
X15178065Y-9950303D02*
X15184731Y-9946970D01*
X15184731Y-9946970D02*
X15188065Y-9943637D01*
X15188065Y-9943637D02*
X15191398Y-9936970D01*
X15191398Y-9936970D02*
X15191398Y-9923637D01*
X15191398Y-9923637D02*
X15188065Y-9916970D01*
X15188065Y-9916970D02*
X15184731Y-9913637D01*
X15184731Y-9913637D02*
X15178065Y-9910303D01*
X15118065Y-10157637D02*
X15118065Y-10204303D01*
X15101398Y-10130970D02*
X15084731Y-10180970D01*
X15084731Y-10180970D02*
X15128065Y-10180970D01*
X15148065Y-10134303D02*
X15194731Y-10134303D01*
X15194731Y-10134303D02*
X15164731Y-10204303D01*
X15084731Y-10394970D02*
X15088065Y-10391637D01*
X15088065Y-10391637D02*
X15094731Y-10388303D01*
X15094731Y-10388303D02*
X15111398Y-10388303D01*
X15111398Y-10388303D02*
X15118065Y-10391637D01*
X15118065Y-10391637D02*
X15121398Y-10394970D01*
X15121398Y-10394970D02*
X15124731Y-10401637D01*
X15124731Y-10401637D02*
X15124731Y-10408303D01*
X15124731Y-10408303D02*
X15121398Y-10418303D01*
X15121398Y-10418303D02*
X15081398Y-10458303D01*
X15081398Y-10458303D02*
X15124731Y-10458303D01*
X15191398Y-10458303D02*
X15151398Y-10458303D01*
X15171398Y-10458303D02*
X15171398Y-10388303D01*
X15171398Y-10388303D02*
X15164731Y-10398303D01*
X15164731Y-10398303D02*
X15158065Y-10404970D01*
X15158065Y-10404970D02*
X15151398Y-10408303D01*
X15084731Y-10648970D02*
X15088065Y-10645637D01*
X15088065Y-10645637D02*
X15094731Y-10642303D01*
X15094731Y-10642303D02*
X15111398Y-10642303D01*
X15111398Y-10642303D02*
X15118065Y-10645637D01*
X15118065Y-10645637D02*
X15121398Y-10648970D01*
X15121398Y-10648970D02*
X15124731Y-10655637D01*
X15124731Y-10655637D02*
X15124731Y-10662303D01*
X15124731Y-10662303D02*
X15121398Y-10672303D01*
X15121398Y-10672303D02*
X15081398Y-10712303D01*
X15081398Y-10712303D02*
X15124731Y-10712303D01*
X15168065Y-10642303D02*
X15174731Y-10642303D01*
X15174731Y-10642303D02*
X15181398Y-10645637D01*
X15181398Y-10645637D02*
X15184731Y-10648970D01*
X15184731Y-10648970D02*
X15188065Y-10655637D01*
X15188065Y-10655637D02*
X15191398Y-10668970D01*
X15191398Y-10668970D02*
X15191398Y-10685637D01*
X15191398Y-10685637D02*
X15188065Y-10698970D01*
X15188065Y-10698970D02*
X15184731Y-10705637D01*
X15184731Y-10705637D02*
X15181398Y-10708970D01*
X15181398Y-10708970D02*
X15174731Y-10712303D01*
X15174731Y-10712303D02*
X15168065Y-10712303D01*
X15168065Y-10712303D02*
X15161398Y-10708970D01*
X15161398Y-10708970D02*
X15158065Y-10705637D01*
X15158065Y-10705637D02*
X15154731Y-10698970D01*
X15154731Y-10698970D02*
X15151398Y-10685637D01*
X15151398Y-10685637D02*
X15151398Y-10668970D01*
X15151398Y-10668970D02*
X15154731Y-10655637D01*
X15154731Y-10655637D02*
X15158065Y-10648970D01*
X15158065Y-10648970D02*
X15161398Y-10645637D01*
X15161398Y-10645637D02*
X15168065Y-10642303D01*
X15124731Y-10966303D02*
X15084731Y-10966303D01*
X15104731Y-10966303D02*
X15104731Y-10896303D01*
X15104731Y-10896303D02*
X15098065Y-10906303D01*
X15098065Y-10906303D02*
X15091398Y-10912970D01*
X15091398Y-10912970D02*
X15084731Y-10916303D01*
X15158065Y-10966303D02*
X15171398Y-10966303D01*
X15171398Y-10966303D02*
X15178065Y-10962970D01*
X15178065Y-10962970D02*
X15181398Y-10959637D01*
X15181398Y-10959637D02*
X15188065Y-10949637D01*
X15188065Y-10949637D02*
X15191398Y-10936303D01*
X15191398Y-10936303D02*
X15191398Y-10909637D01*
X15191398Y-10909637D02*
X15188065Y-10902970D01*
X15188065Y-10902970D02*
X15184731Y-10899637D01*
X15184731Y-10899637D02*
X15178065Y-10896303D01*
X15178065Y-10896303D02*
X15164731Y-10896303D01*
X15164731Y-10896303D02*
X15158065Y-10899637D01*
X15158065Y-10899637D02*
X15154731Y-10902970D01*
X15154731Y-10902970D02*
X15151398Y-10909637D01*
X15151398Y-10909637D02*
X15151398Y-10926303D01*
X15151398Y-10926303D02*
X15154731Y-10932970D01*
X15154731Y-10932970D02*
X15158065Y-10936303D01*
X15158065Y-10936303D02*
X15164731Y-10939637D01*
X15164731Y-10939637D02*
X15178065Y-10939637D01*
X15178065Y-10939637D02*
X15184731Y-10936303D01*
X15184731Y-10936303D02*
X15188065Y-10932970D01*
X15188065Y-10932970D02*
X15191398Y-10926303D01*
X15082832Y-6073637D02*
X15076165Y-6070303D01*
X15076165Y-6070303D02*
X15066165Y-6070303D01*
X15066165Y-6070303D02*
X15056165Y-6073637D01*
X15056165Y-6073637D02*
X15049498Y-6080303D01*
X15049498Y-6080303D02*
X15046165Y-6086970D01*
X15046165Y-6086970D02*
X15042832Y-6100303D01*
X15042832Y-6100303D02*
X15042832Y-6110303D01*
X15042832Y-6110303D02*
X15046165Y-6123637D01*
X15046165Y-6123637D02*
X15049498Y-6130303D01*
X15049498Y-6130303D02*
X15056165Y-6136970D01*
X15056165Y-6136970D02*
X15066165Y-6140303D01*
X15066165Y-6140303D02*
X15072832Y-6140303D01*
X15072832Y-6140303D02*
X15082832Y-6136970D01*
X15082832Y-6136970D02*
X15086165Y-6133637D01*
X15086165Y-6133637D02*
X15086165Y-6110303D01*
X15086165Y-6110303D02*
X15072832Y-6110303D01*
X15116165Y-6140303D02*
X15116165Y-6070303D01*
X15116165Y-6070303D02*
X15156165Y-6140303D01*
X15156165Y-6140303D02*
X15156165Y-6070303D01*
X15189498Y-6140303D02*
X15189498Y-6070303D01*
X15189498Y-6070303D02*
X15206165Y-6070303D01*
X15206165Y-6070303D02*
X15216165Y-6073637D01*
X15216165Y-6073637D02*
X15222832Y-6080303D01*
X15222832Y-6080303D02*
X15226165Y-6086970D01*
X15226165Y-6086970D02*
X15229498Y-6100303D01*
X15229498Y-6100303D02*
X15229498Y-6110303D01*
X15229498Y-6110303D02*
X15226165Y-6123637D01*
X15226165Y-6123637D02*
X15222832Y-6130303D01*
X15222832Y-6130303D02*
X15216165Y-6136970D01*
X15216165Y-6136970D02*
X15206165Y-6140303D01*
X15206165Y-6140303D02*
X15189498Y-6140303D01*
X15082832Y-11153637D02*
X15076165Y-11150303D01*
X15076165Y-11150303D02*
X15066165Y-11150303D01*
X15066165Y-11150303D02*
X15056165Y-11153637D01*
X15056165Y-11153637D02*
X15049498Y-11160303D01*
X15049498Y-11160303D02*
X15046165Y-11166970D01*
X15046165Y-11166970D02*
X15042832Y-11180303D01*
X15042832Y-11180303D02*
X15042832Y-11190303D01*
X15042832Y-11190303D02*
X15046165Y-11203637D01*
X15046165Y-11203637D02*
X15049498Y-11210303D01*
X15049498Y-11210303D02*
X15056165Y-11216970D01*
X15056165Y-11216970D02*
X15066165Y-11220303D01*
X15066165Y-11220303D02*
X15072832Y-11220303D01*
X15072832Y-11220303D02*
X15082832Y-11216970D01*
X15082832Y-11216970D02*
X15086165Y-11213637D01*
X15086165Y-11213637D02*
X15086165Y-11190303D01*
X15086165Y-11190303D02*
X15072832Y-11190303D01*
X15116165Y-11220303D02*
X15116165Y-11150303D01*
X15116165Y-11150303D02*
X15156165Y-11220303D01*
X15156165Y-11220303D02*
X15156165Y-11150303D01*
X15189498Y-11220303D02*
X15189498Y-11150303D01*
X15189498Y-11150303D02*
X15206165Y-11150303D01*
X15206165Y-11150303D02*
X15216165Y-11153637D01*
X15216165Y-11153637D02*
X15222832Y-11160303D01*
X15222832Y-11160303D02*
X15226165Y-11166970D01*
X15226165Y-11166970D02*
X15229498Y-11180303D01*
X15229498Y-11180303D02*
X15229498Y-11190303D01*
X15229498Y-11190303D02*
X15226165Y-11203637D01*
X15226165Y-11203637D02*
X15222832Y-11210303D01*
X15222832Y-11210303D02*
X15216165Y-11216970D01*
X15216165Y-11216970D02*
X15206165Y-11220303D01*
X15206165Y-11220303D02*
X15189498Y-11220303D01*
D12*
X13227271Y-11369559D02*
X13227271Y-11434321D01*
X13227271Y-11434321D02*
X13231081Y-11441940D01*
X13231081Y-11441940D02*
X13234890Y-11445750D01*
X13234890Y-11445750D02*
X13242509Y-11449559D01*
X13242509Y-11449559D02*
X13257747Y-11449559D01*
X13257747Y-11449559D02*
X13265366Y-11445750D01*
X13265366Y-11445750D02*
X13269176Y-11441940D01*
X13269176Y-11441940D02*
X13272985Y-11434321D01*
X13272985Y-11434321D02*
X13272985Y-11369559D01*
X13307271Y-11426702D02*
X13345366Y-11426702D01*
X13299652Y-11449559D02*
X13326319Y-11369559D01*
X13326319Y-11369559D02*
X13352985Y-11449559D01*
X13425366Y-11449559D02*
X13398700Y-11411464D01*
X13379652Y-11449559D02*
X13379652Y-11369559D01*
X13379652Y-11369559D02*
X13410128Y-11369559D01*
X13410128Y-11369559D02*
X13417747Y-11373369D01*
X13417747Y-11373369D02*
X13421557Y-11377178D01*
X13421557Y-11377178D02*
X13425366Y-11384798D01*
X13425366Y-11384798D02*
X13425366Y-11396226D01*
X13425366Y-11396226D02*
X13421557Y-11403845D01*
X13421557Y-11403845D02*
X13417747Y-11407655D01*
X13417747Y-11407655D02*
X13410128Y-11411464D01*
X13410128Y-11411464D02*
X13379652Y-11411464D01*
X13448223Y-11369559D02*
X13493938Y-11369559D01*
X13471081Y-11449559D02*
X13471081Y-11369559D01*
X13897271Y-11259559D02*
X13897271Y-11179560D01*
X13897271Y-11179560D02*
X13927747Y-11179560D01*
X13927747Y-11179560D02*
X13935366Y-11183369D01*
X13935366Y-11183369D02*
X13939176Y-11187178D01*
X13939176Y-11187178D02*
X13942985Y-11194798D01*
X13942985Y-11194798D02*
X13942985Y-11206226D01*
X13942985Y-11206226D02*
X13939176Y-11213845D01*
X13939176Y-11213845D02*
X13935366Y-11217655D01*
X13935366Y-11217655D02*
X13927747Y-11221464D01*
X13927747Y-11221464D02*
X13897271Y-11221464D01*
X13969652Y-11179560D02*
X13988700Y-11259559D01*
X13988700Y-11259559D02*
X14003938Y-11202417D01*
X14003938Y-11202417D02*
X14019176Y-11259559D01*
X14019176Y-11259559D02*
X14038224Y-11179560D01*
X14114414Y-11259559D02*
X14087747Y-11221464D01*
X14068700Y-11259559D02*
X14068700Y-11179560D01*
X14068700Y-11179560D02*
X14099176Y-11179560D01*
X14099176Y-11179560D02*
X14106795Y-11183369D01*
X14106795Y-11183369D02*
X14110604Y-11187178D01*
X14110604Y-11187178D02*
X14114414Y-11194798D01*
X14114414Y-11194798D02*
X14114414Y-11206226D01*
X14114414Y-11206226D02*
X14110604Y-11213845D01*
X14110604Y-11213845D02*
X14106795Y-11217655D01*
X14106795Y-11217655D02*
X14099176Y-11221464D01*
X14099176Y-11221464D02*
X14068700Y-11221464D01*
X14612271Y-11377659D02*
X14612271Y-11442421D01*
X14612271Y-11442421D02*
X14616081Y-11450040D01*
X14616081Y-11450040D02*
X14619890Y-11453850D01*
X14619890Y-11453850D02*
X14627509Y-11457659D01*
X14627509Y-11457659D02*
X14642747Y-11457659D01*
X14642747Y-11457659D02*
X14650366Y-11453850D01*
X14650366Y-11453850D02*
X14654176Y-11450040D01*
X14654176Y-11450040D02*
X14657985Y-11442421D01*
X14657985Y-11442421D02*
X14657985Y-11377659D01*
X14692271Y-11453850D02*
X14703700Y-11457659D01*
X14703700Y-11457659D02*
X14722747Y-11457659D01*
X14722747Y-11457659D02*
X14730366Y-11453850D01*
X14730366Y-11453850D02*
X14734176Y-11450040D01*
X14734176Y-11450040D02*
X14737985Y-11442421D01*
X14737985Y-11442421D02*
X14737985Y-11434802D01*
X14737985Y-11434802D02*
X14734176Y-11427183D01*
X14734176Y-11427183D02*
X14730366Y-11423374D01*
X14730366Y-11423374D02*
X14722747Y-11419564D01*
X14722747Y-11419564D02*
X14707509Y-11415755D01*
X14707509Y-11415755D02*
X14699890Y-11411945D01*
X14699890Y-11411945D02*
X14696081Y-11408136D01*
X14696081Y-11408136D02*
X14692271Y-11400517D01*
X14692271Y-11400517D02*
X14692271Y-11392898D01*
X14692271Y-11392898D02*
X14696081Y-11385278D01*
X14696081Y-11385278D02*
X14699890Y-11381469D01*
X14699890Y-11381469D02*
X14707509Y-11377659D01*
X14707509Y-11377659D02*
X14726557Y-11377659D01*
X14726557Y-11377659D02*
X14737985Y-11381469D01*
X14798938Y-11415755D02*
X14810366Y-11419564D01*
X14810366Y-11419564D02*
X14814176Y-11423374D01*
X14814176Y-11423374D02*
X14817985Y-11430993D01*
X14817985Y-11430993D02*
X14817985Y-11442421D01*
X14817985Y-11442421D02*
X14814176Y-11450040D01*
X14814176Y-11450040D02*
X14810366Y-11453850D01*
X14810366Y-11453850D02*
X14802747Y-11457659D01*
X14802747Y-11457659D02*
X14772271Y-11457659D01*
X14772271Y-11457659D02*
X14772271Y-11377659D01*
X14772271Y-11377659D02*
X14798938Y-11377659D01*
X14798938Y-11377659D02*
X14806557Y-11381469D01*
X14806557Y-11381469D02*
X14810366Y-11385278D01*
X14810366Y-11385278D02*
X14814176Y-11392898D01*
X14814176Y-11392898D02*
X14814176Y-11400517D01*
X14814176Y-11400517D02*
X14810366Y-11408136D01*
X14810366Y-11408136D02*
X14806557Y-11411945D01*
X14806557Y-11411945D02*
X14798938Y-11415755D01*
X14798938Y-11415755D02*
X14772271Y-11415755D01*
D11*
X13804659Y-10606088D02*
X13829717Y-10596968D01*
X13854789Y-10632437D02*
X13818991Y-10645466D01*
X13818991Y-10645466D02*
X13791629Y-10570290D01*
X13791629Y-10570290D02*
X13827427Y-10557261D01*
X13919225Y-10608984D02*
X13904892Y-10569606D01*
X13904892Y-10569606D02*
X13898707Y-10563749D01*
X13898707Y-10563749D02*
X13890244Y-10562776D01*
X13890244Y-10562776D02*
X13875925Y-10567987D01*
X13875925Y-10567987D02*
X13870069Y-10574173D01*
X13917922Y-10605404D02*
X13912065Y-10611590D01*
X13912065Y-10611590D02*
X13894166Y-10618104D01*
X13894166Y-10618104D02*
X13885704Y-10617130D01*
X13885704Y-10617130D02*
X13879518Y-10611274D01*
X13879518Y-10611274D02*
X13876912Y-10604114D01*
X13876912Y-10604114D02*
X13877886Y-10595652D01*
X13877886Y-10595652D02*
X13883743Y-10589466D01*
X13883743Y-10589466D02*
X13901642Y-10582951D01*
X13901642Y-10582951D02*
X13907498Y-10576766D01*
X13950140Y-10593677D02*
X13958602Y-10594651D01*
X13958602Y-10594651D02*
X13972922Y-10589440D01*
X13972922Y-10589440D02*
X13978778Y-10583254D01*
X13978778Y-10583254D02*
X13979752Y-10574792D01*
X13979752Y-10574792D02*
X13978449Y-10571212D01*
X13978449Y-10571212D02*
X13972263Y-10565355D01*
X13972263Y-10565355D02*
X13963801Y-10564381D01*
X13963801Y-10564381D02*
X13953062Y-10568290D01*
X13953062Y-10568290D02*
X13944599Y-10567316D01*
X13944599Y-10567316D02*
X13938414Y-10561459D01*
X13938414Y-10561459D02*
X13937111Y-10557880D01*
X13937111Y-10557880D02*
X13938084Y-10549417D01*
X13938084Y-10549417D02*
X13943941Y-10543232D01*
X13943941Y-10543232D02*
X13954680Y-10539323D01*
X13954680Y-10539323D02*
X13963143Y-10540297D01*
X13990478Y-10526293D02*
X14026618Y-10569896D01*
X14026276Y-10513264D02*
X14026618Y-10569896D01*
X14026618Y-10569896D02*
X14025973Y-10590400D01*
X14025973Y-10590400D02*
X14023697Y-10595283D01*
X14023697Y-10595283D02*
X14017840Y-10601469D01*
X14105373Y-10541231D02*
X14078012Y-10466056D01*
X14104071Y-10537651D02*
X14098214Y-10543837D01*
X14098214Y-10543837D02*
X14083895Y-10549049D01*
X14083895Y-10549049D02*
X14075432Y-10548075D01*
X14075432Y-10548075D02*
X14070550Y-10545798D01*
X14070550Y-10545798D02*
X14064364Y-10539941D01*
X14064364Y-10539941D02*
X14056546Y-10518463D01*
X14056546Y-10518463D02*
X14057520Y-10510000D01*
X14057520Y-10510000D02*
X14059797Y-10505117D01*
X14059797Y-10505117D02*
X14065654Y-10498932D01*
X14065654Y-10498932D02*
X14079973Y-10493720D01*
X14079973Y-10493720D02*
X14088435Y-10494694D01*
X14155148Y-10466358D02*
X14173389Y-10516475D01*
X14122930Y-10478085D02*
X14137263Y-10517462D01*
X14137263Y-10517462D02*
X14143448Y-10523319D01*
X14143448Y-10523319D02*
X14151911Y-10524293D01*
X14151911Y-10524293D02*
X14162650Y-10520384D01*
X14162650Y-10520384D02*
X14168507Y-10514198D01*
X14168507Y-10514198D02*
X14170783Y-10509316D01*
X14209187Y-10503446D02*
X14190946Y-10453329D01*
X14181826Y-10428271D02*
X14179549Y-10433153D01*
X14179549Y-10433153D02*
X14184431Y-10435430D01*
X14184431Y-10435430D02*
X14186708Y-10430547D01*
X14186708Y-10430547D02*
X14181826Y-10428271D01*
X14181826Y-10428271D02*
X14184431Y-10435430D01*
X14226744Y-10440300D02*
X14244985Y-10490417D01*
X14229350Y-10447459D02*
X14231627Y-10442577D01*
X14231627Y-10442577D02*
X14237483Y-10436391D01*
X14237483Y-10436391D02*
X14248223Y-10432482D01*
X14248223Y-10432482D02*
X14256685Y-10433456D01*
X14256685Y-10433456D02*
X14262871Y-10439313D01*
X14262871Y-10439313D02*
X14277203Y-10478690D01*
X14323740Y-10461752D02*
X14315278Y-10460778D01*
X14315278Y-10460778D02*
X14310395Y-10458501D01*
X14310395Y-10458501D02*
X14304209Y-10452645D01*
X14304209Y-10452645D02*
X14296392Y-10431166D01*
X14296392Y-10431166D02*
X14297366Y-10422704D01*
X14297366Y-10422704D02*
X14299643Y-10417821D01*
X14299643Y-10417821D02*
X14305499Y-10411635D01*
X14305499Y-10411635D02*
X14316238Y-10407726D01*
X14316238Y-10407726D02*
X14324701Y-10408700D01*
X14324701Y-10408700D02*
X14329584Y-10410977D01*
X14329584Y-10410977D02*
X14335769Y-10416834D01*
X14335769Y-10416834D02*
X14343587Y-10438312D01*
X14343587Y-10438312D02*
X14342613Y-10446775D01*
X14342613Y-10446775D02*
X14340336Y-10451658D01*
X14340336Y-10451658D02*
X14334480Y-10457843D01*
X14334480Y-10457843D02*
X14323740Y-10461752D01*
X13875515Y-10723938D02*
X13900573Y-10714818D01*
X13925645Y-10750287D02*
X13889847Y-10763316D01*
X13889847Y-10763316D02*
X13862486Y-10688141D01*
X13862486Y-10688141D02*
X13898283Y-10675111D01*
X13952980Y-10736283D02*
X13965023Y-10735954D01*
X13965023Y-10735954D02*
X13982922Y-10729440D01*
X13982922Y-10729440D02*
X13988778Y-10723254D01*
X13988778Y-10723254D02*
X13991055Y-10718371D01*
X13991055Y-10718371D02*
X13992029Y-10709909D01*
X13992029Y-10709909D02*
X13989423Y-10702749D01*
X13989423Y-10702749D02*
X13983237Y-10696893D01*
X13983237Y-10696893D02*
X13978355Y-10694616D01*
X13978355Y-10694616D02*
X13969892Y-10693642D01*
X13969892Y-10693642D02*
X13954270Y-10695274D01*
X13954270Y-10695274D02*
X13945808Y-10694300D01*
X13945808Y-10694300D02*
X13940925Y-10692023D01*
X13940925Y-10692023D02*
X13934739Y-10686166D01*
X13934739Y-10686166D02*
X13932133Y-10679007D01*
X13932133Y-10679007D02*
X13933107Y-10670544D01*
X13933107Y-10670544D02*
X13935384Y-10665662D01*
X13935384Y-10665662D02*
X13941241Y-10659476D01*
X13941241Y-10659476D02*
X13959140Y-10652961D01*
X13959140Y-10652961D02*
X13971182Y-10652632D01*
X14029459Y-10712501D02*
X14002097Y-10637326D01*
X14002097Y-10637326D02*
X14030735Y-10626903D01*
X14030735Y-10626903D02*
X14039198Y-10627877D01*
X14039198Y-10627877D02*
X14044081Y-10630153D01*
X14044081Y-10630153D02*
X14050266Y-10636010D01*
X14050266Y-10636010D02*
X14054175Y-10646749D01*
X14054175Y-10646749D02*
X14053201Y-10655212D01*
X14053201Y-10655212D02*
X14050924Y-10660095D01*
X14050924Y-10660095D02*
X14045068Y-10666280D01*
X14045068Y-10666280D02*
X14016429Y-10676704D01*
X14070113Y-10612570D02*
X14116650Y-10595632D01*
X14116650Y-10595632D02*
X14102015Y-10633391D01*
X14102015Y-10633391D02*
X14112754Y-10629482D01*
X14112754Y-10629482D02*
X14121217Y-10630456D01*
X14121217Y-10630456D02*
X14126100Y-10632733D01*
X14126100Y-10632733D02*
X14132285Y-10638590D01*
X14132285Y-10638590D02*
X14138800Y-10656488D01*
X14138800Y-10656488D02*
X14137826Y-10664951D01*
X14137826Y-10664951D02*
X14135549Y-10669834D01*
X14135549Y-10669834D02*
X14129693Y-10676019D01*
X14129693Y-10676019D02*
X14108214Y-10683837D01*
X14108214Y-10683837D02*
X14099751Y-10682863D01*
X14099751Y-10682863D02*
X14094869Y-10680586D01*
X14147894Y-10592368D02*
X14150171Y-10587486D01*
X14150171Y-10587486D02*
X14156028Y-10581300D01*
X14156028Y-10581300D02*
X14173927Y-10574785D01*
X14173927Y-10574785D02*
X14182389Y-10575759D01*
X14182389Y-10575759D02*
X14187272Y-10578036D01*
X14187272Y-10578036D02*
X14193458Y-10583893D01*
X14193458Y-10583893D02*
X14196063Y-10591052D01*
X14196063Y-10591052D02*
X14196392Y-10603094D01*
X14196392Y-10603094D02*
X14169070Y-10661687D01*
X14169070Y-10661687D02*
X14215607Y-10644749D01*
X14242943Y-10630746D02*
X14254985Y-10630417D01*
X14254985Y-10630417D02*
X14272884Y-10623902D01*
X14272884Y-10623902D02*
X14278741Y-10617716D01*
X14278741Y-10617716D02*
X14281017Y-10612834D01*
X14281017Y-10612834D02*
X14281991Y-10604371D01*
X14281991Y-10604371D02*
X14279385Y-10597212D01*
X14279385Y-10597212D02*
X14273200Y-10591355D01*
X14273200Y-10591355D02*
X14268317Y-10589078D01*
X14268317Y-10589078D02*
X14259855Y-10588104D01*
X14259855Y-10588104D02*
X14244233Y-10589736D01*
X14244233Y-10589736D02*
X14235770Y-10588762D01*
X14235770Y-10588762D02*
X14230887Y-10586485D01*
X14230887Y-10586485D02*
X14224702Y-10580629D01*
X14224702Y-10580629D02*
X14222096Y-10573469D01*
X14222096Y-10573469D02*
X14223070Y-10565007D01*
X14223070Y-10565007D02*
X14225347Y-10560124D01*
X14225347Y-10560124D02*
X14231203Y-10553938D01*
X14231203Y-10553938D02*
X14249102Y-10547424D01*
X14249102Y-10547424D02*
X14261144Y-10547095D01*
X14284900Y-10534394D02*
X14331437Y-10517456D01*
X14331437Y-10517456D02*
X14316802Y-10555215D01*
X14316802Y-10555215D02*
X14327541Y-10551306D01*
X14327541Y-10551306D02*
X14336004Y-10552280D01*
X14336004Y-10552280D02*
X14340887Y-10554557D01*
X14340887Y-10554557D02*
X14347072Y-10560414D01*
X14347072Y-10560414D02*
X14353587Y-10578312D01*
X14353587Y-10578312D02*
X14352613Y-10586775D01*
X14352613Y-10586775D02*
X14350336Y-10591658D01*
X14350336Y-10591658D02*
X14344480Y-10597843D01*
X14344480Y-10597843D02*
X14323001Y-10605661D01*
X14323001Y-10605661D02*
X14314538Y-10604687D01*
X14314538Y-10604687D02*
X14309656Y-10602410D01*
X15082832Y-11403961D02*
X15076165Y-11400627D01*
X15076165Y-11400627D02*
X15066165Y-11400627D01*
X15066165Y-11400627D02*
X15056165Y-11403961D01*
X15056165Y-11403961D02*
X15049498Y-11410627D01*
X15049498Y-11410627D02*
X15046165Y-11417294D01*
X15046165Y-11417294D02*
X15042832Y-11430627D01*
X15042832Y-11430627D02*
X15042832Y-11440627D01*
X15042832Y-11440627D02*
X15046165Y-11453961D01*
X15046165Y-11453961D02*
X15049498Y-11460627D01*
X15049498Y-11460627D02*
X15056165Y-11467294D01*
X15056165Y-11467294D02*
X15066165Y-11470627D01*
X15066165Y-11470627D02*
X15072832Y-11470627D01*
X15072832Y-11470627D02*
X15082832Y-11467294D01*
X15082832Y-11467294D02*
X15086165Y-11463961D01*
X15086165Y-11463961D02*
X15086165Y-11440627D01*
X15086165Y-11440627D02*
X15072832Y-11440627D01*
X15116165Y-11470627D02*
X15116165Y-11400627D01*
X15116165Y-11400627D02*
X15156165Y-11470627D01*
X15156165Y-11470627D02*
X15156165Y-11400627D01*
X15189498Y-11470627D02*
X15189498Y-11400627D01*
X15189498Y-11400627D02*
X15206165Y-11400627D01*
X15206165Y-11400627D02*
X15216165Y-11403961D01*
X15216165Y-11403961D02*
X15222832Y-11410627D01*
X15222832Y-11410627D02*
X15226165Y-11417294D01*
X15226165Y-11417294D02*
X15229498Y-11430627D01*
X15229498Y-11430627D02*
X15229498Y-11440627D01*
X15229498Y-11440627D02*
X15226165Y-11453961D01*
X15226165Y-11453961D02*
X15222832Y-11460627D01*
X15222832Y-11460627D02*
X15216165Y-11467294D01*
X15216165Y-11467294D02*
X15206165Y-11470627D01*
X15206165Y-11470627D02*
X15189498Y-11470627D01*
%TO.C,D3*%
D13*
X14420000Y-11281000D02*
G75*
G02*
X14410000Y-11281000I-5000J0D01*
G01*
X14410000Y-11281000D02*
G75*
G02*
X14420000Y-11281000I5000J0D01*
G01*
%TO.C,D4*%
X14682500Y-10600000D02*
G75*
G02*
X14672500Y-10600000I-5000J0D01*
G01*
X14672500Y-10600000D02*
G75*
G02*
X14682500Y-10600000I5000J0D01*
G01*
%TO.C,R2*%
D14*
X13097000Y-11405364D02*
X13097000Y-11374636D01*
X13173000Y-11405364D02*
X13173000Y-11374636D01*
%TO.C,C4*%
X13724000Y-8542784D02*
X13724000Y-8521216D01*
X13796000Y-8542784D02*
X13796000Y-8521216D01*
%TO.C,R9*%
X14553136Y-10432000D02*
X14583864Y-10432000D01*
X14553136Y-10508000D02*
X14583864Y-10508000D01*
%TO.C,C2*%
X13649000Y-11159216D02*
X13649000Y-11180784D01*
X13721000Y-11159216D02*
X13721000Y-11180784D01*
%TO.C,R3*%
X13532000Y-11405364D02*
X13532000Y-11374636D01*
X13608000Y-11405364D02*
X13608000Y-11374636D01*
%TO.C,C3*%
X13534000Y-11159216D02*
X13534000Y-11180784D01*
X13606000Y-11159216D02*
X13606000Y-11180784D01*
%TO.C,D1*%
D13*
X14065000Y-11292000D02*
G75*
G02*
X14055000Y-11292000I-5000J0D01*
G01*
X14055000Y-11292000D02*
G75*
G02*
X14065000Y-11292000I5000J0D01*
G01*
%TO.C,D2*%
X13690000Y-11282750D02*
G75*
G02*
X13680000Y-11282750I-5000J0D01*
G01*
X13680000Y-11282750D02*
G75*
G02*
X13690000Y-11282750I5000J0D01*
G01*
%TO.C,R4*%
D14*
X14202000Y-8555364D02*
X14202000Y-8524636D01*
X14278000Y-8555364D02*
X14278000Y-8524636D01*
%TO.C,C6*%
X13349500Y-9760000D02*
X13349500Y-10152000D01*
X13349500Y-10152000D02*
X13540500Y-10152000D01*
X13540500Y-10152000D02*
X13540500Y-9760000D01*
%TO.C,U1*%
X13107000Y-7750000D02*
X13107000Y-7825000D01*
X13107000Y-7825000D02*
X13207000Y-7825000D01*
X14907000Y-7750000D02*
X14907000Y-7825000D01*
X14907000Y-7825000D02*
X14807000Y-7825000D01*
%TO.C,R1*%
X13482000Y-8513636D02*
X13482000Y-8544364D01*
X13558000Y-8513636D02*
X13558000Y-8544364D01*
%TO.C,U5*%
X13885000Y-9559000D02*
X14261000Y-9559000D01*
X13885000Y-10241000D02*
X14261000Y-10241000D01*
X14261000Y-9559000D02*
X14261000Y-9685000D01*
X14261000Y-10241000D02*
X14261000Y-10115000D01*
X13757000Y-9569000D02*
X13733000Y-9536000D01*
X13781000Y-9536000D01*
X13757000Y-9569000D01*
G36*
X13757000Y-9569000D02*
G01*
X13733000Y-9536000D01*
X13781000Y-9536000D01*
X13757000Y-9569000D01*
G37*
%TO.C,C5*%
X13844000Y-8521216D02*
X13844000Y-8542784D01*
X13916000Y-8521216D02*
X13916000Y-8542784D01*
%TO.C,R7*%
X14487000Y-11406364D02*
X14487000Y-11375636D01*
X14563000Y-11406364D02*
X14563000Y-11375636D01*
%TO.C,SW2*%
X14183000Y-9163000D02*
X14597000Y-9163000D01*
X14183000Y-9193000D02*
X14183000Y-9163000D01*
X14183000Y-9477000D02*
X14183000Y-9447000D01*
X14597000Y-9163000D02*
X14597000Y-9193000D01*
X14597000Y-9447000D02*
X14597000Y-9477000D01*
X14597000Y-9477000D02*
X14183000Y-9477000D01*
%TO.C,U3*%
X13159000Y-10449000D02*
X13231500Y-10449000D01*
X13159000Y-10521500D02*
X13159000Y-10449000D01*
X13608500Y-10449000D02*
X13681000Y-10449000D01*
X13680460Y-10896580D02*
X13680460Y-10969080D01*
X13680460Y-10969080D02*
X13607960Y-10969080D01*
X13681000Y-10449000D02*
X13681000Y-10521500D01*
%TO.C,C8*%
X13604000Y-8542784D02*
X13604000Y-8521216D01*
X13676000Y-8542784D02*
X13676000Y-8521216D01*
%TO.C,SW1*%
X13423000Y-9163000D02*
X13837000Y-9163000D01*
X13423000Y-9193000D02*
X13423000Y-9163000D01*
X13423000Y-9477000D02*
X13423000Y-9447000D01*
X13837000Y-9163000D02*
X13837000Y-9193000D01*
X13837000Y-9447000D02*
X13837000Y-9477000D01*
X13837000Y-9477000D02*
X13423000Y-9477000D01*
%TO.C,R5*%
X14322000Y-8524636D02*
X14322000Y-8555364D01*
X14398000Y-8524636D02*
X14398000Y-8555364D01*
%TO.C,C9*%
X14444000Y-8550784D02*
X14444000Y-8529216D01*
X14516000Y-8550784D02*
X14516000Y-8529216D01*
%TO.C,C1*%
X13769000Y-11159216D02*
X13769000Y-11180784D01*
X13841000Y-11159216D02*
X13841000Y-11180784D01*
%TO.C,Q1*%
X13512500Y-8810000D02*
X13512500Y-8719000D01*
X13512500Y-9041000D02*
X13512500Y-8950000D01*
X13672500Y-9041000D02*
X13512500Y-9041000D01*
X13727500Y-8719000D02*
X13512500Y-8719000D01*
X13746500Y-9069000D02*
X13698500Y-9069000D01*
X13722500Y-9036000D01*
X13746500Y-9069000D01*
G36*
X13746500Y-9069000D02*
G01*
X13698500Y-9069000D01*
X13722500Y-9036000D01*
X13746500Y-9069000D01*
G37*
%TO.C,C10*%
X13868000Y-8164500D02*
X13868000Y-8355500D01*
X13868000Y-8355500D02*
X14260000Y-8355500D01*
X14260000Y-8164500D02*
X13868000Y-8164500D01*
%TO.C,C7*%
X14599500Y-9780000D02*
X14599500Y-10172000D01*
X14599500Y-10172000D02*
X14790500Y-10172000D01*
X14790500Y-10172000D02*
X14790500Y-9780000D01*
%TO.C,R8*%
X14852000Y-11404364D02*
X14852000Y-11373636D01*
X14928000Y-11404364D02*
X14928000Y-11373636D01*
%TO.C,J2*%
X14237000Y-11807500D02*
X14237000Y-11999500D01*
X15153000Y-11999500D02*
X15153000Y-11807500D01*
%TO.C,R6*%
X13907000Y-11415364D02*
X13907000Y-11384636D01*
X13983000Y-11415364D02*
X13983000Y-11384636D01*
%TO.C,J1*%
X12850000Y-11807500D02*
X12850000Y-11999500D01*
X13766000Y-11999500D02*
X13766000Y-11807500D01*
%TO.C,Q2*%
X14292500Y-8810000D02*
X14292500Y-8719000D01*
X14292500Y-9041000D02*
X14292500Y-8950000D01*
X14452500Y-9041000D02*
X14292500Y-9041000D01*
X14507500Y-8719000D02*
X14292500Y-8719000D01*
X14526500Y-9069000D02*
X14478500Y-9069000D01*
X14502500Y-9036000D01*
X14526500Y-9069000D01*
G36*
X14526500Y-9069000D02*
G01*
X14478500Y-9069000D01*
X14502500Y-9036000D01*
X14526500Y-9069000D01*
G37*
%TD*%
M02*
