%TF.GenerationSoftware,KiCad,Pcbnew,10.0.0*%
%TF.CreationDate,2026-04-11T11:06:47+02:00*%
%TF.ProjectId,Easyduino_ESP32S3,45617379-6475-4696-9e6f-5f4553503332,rev?*%
%TF.SameCoordinates,Original*%
%TF.FileFunction,Copper,L4,Bot*%
%TF.FilePolarity,Positive*%
%FSLAX45Y45*%
G04 Gerber Fmt 4.5, Leading zero omitted, Abs format (unit mm)*
G04 Created by KiCad (PCBNEW 10.0.0) date 2026-04-11 11:06:47*
%MOMM*%
%LPD*%
G01*
G04 APERTURE LIST*
%TA.AperFunction,ComponentPad*%
%ADD10O,2.000000X1.200000*%
%TD*%
%TA.AperFunction,ComponentPad*%
%ADD11O,1.000000X2.100000*%
%TD*%
%TA.AperFunction,ComponentPad*%
%ADD12O,1.000000X1.800000*%
%TD*%
%TA.AperFunction,ViaPad*%
%ADD13C,0.500000*%
%TD*%
%TA.AperFunction,Conductor*%
%ADD14C,0.300000*%
%TD*%
%TA.AperFunction,Conductor*%
%ADD15C,0.150000*%
%TD*%
%TA.AperFunction,Conductor*%
%ADD16C,0.200000*%
%TD*%
G04 APERTURE END LIST*
D10*
%TO.P,U2,1,3V3_1*%
%TO.N,+3.3V*%
X12860500Y-5975136D03*
%TO.P,U2,2,3V3_2*%
X12860500Y-6229136D03*
%TO.P,U2,3,CHIP_PU_3*%
%TO.N,/EN*%
X12860500Y-6483136D03*
%TO.P,U2,4,GPIO4/ADC1_CH3_4*%
%TO.N,/GPIO4*%
X12860500Y-6737136D03*
%TO.P,U2,5,GPIO5/ADC1_CH4_5*%
%TO.N,/GPIO5*%
X12860500Y-6991136D03*
%TO.P,U2,6,GPIO6/ADC1_CH5_6*%
%TO.N,/GPIO6*%
X12860500Y-7245136D03*
%TO.P,U2,7,GPIO7/ADC1_CH6_7*%
%TO.N,/GPIO7*%
X12860500Y-7499136D03*
%TO.P,U2,8,GPIO15/ADC2_CH4/32K_P_8*%
%TO.N,/GPIO15*%
X12860500Y-7753136D03*
%TO.P,U2,9,GPIO16/ADC2_CH5/32K_N_9*%
%TO.N,/GPIO16*%
X12860500Y-8007136D03*
%TO.P,U2,10,GPIO17/ADC2_CH6_10*%
%TO.N,/GPIO17*%
X12860500Y-8261136D03*
%TO.P,U2,11,GPIO18/ADC2_CH7_11*%
%TO.N,/GPIO18*%
X12860500Y-8515136D03*
%TO.P,U2,12,GPIO8/ADC1_CH7_12*%
%TO.N,/GPIO8*%
X12860500Y-8769136D03*
%TO.P,U2,13,GPIO3/ADC1_CH2_13*%
%TO.N,/GPIO3*%
X12860500Y-9023136D03*
%TO.P,U2,14,GPIO46_14*%
%TO.N,/GPIO46*%
X12860500Y-9277136D03*
%TO.P,U2,15,GPIO9/ADC1_CH8_15*%
%TO.N,/GPIO9*%
X12860500Y-9531136D03*
%TO.P,U2,16,GPIO10/ADC1_CH9_16*%
%TO.N,/GPIO10*%
X12860500Y-9785136D03*
%TO.P,U2,17,GPIO11/ADC2_CH0_17*%
%TO.N,/GPIO11*%
X12860500Y-10039136D03*
%TO.P,U2,18,GPIO12/ADC2_CH1_18*%
%TO.N,/GPIO12*%
X12860500Y-10293136D03*
%TO.P,U2,19,GPIO13/ADC2_CH2_19*%
%TO.N,/GPIO13*%
X12860500Y-10547136D03*
%TO.P,U2,20,GPIO14/ADC2_CH3_20*%
%TO.N,/GPIO14*%
X12860132Y-10800864D03*
%TO.P,U2,21,5V_21*%
%TO.N,+5V*%
X12860132Y-11054864D03*
%TO.P,U2,22,GND_22*%
%TO.N,GND*%
X12860132Y-11308864D03*
%TO.P,U2,23,GND_23*%
X15146500Y-11309136D03*
%TO.P,U2,24,GND_24*%
X15146500Y-11055136D03*
%TO.P,U2,25,GPIO19/USB_D-_25*%
%TO.N,/USB2_D-*%
X15146500Y-10801136D03*
%TO.P,U2,26,GPIO20/USB_D+_26*%
%TO.N,/USB2_D+*%
X15146500Y-10547136D03*
%TO.P,U2,27,GPIO21_27*%
%TO.N,/GPIO21*%
X15146500Y-10293136D03*
%TO.P,U2,28,GPIO47_28*%
%TO.N,/GPIO47*%
X15146500Y-10039136D03*
%TO.P,U2,29,GPIO48_29*%
%TO.N,/GPIO48*%
X15146500Y-9785136D03*
%TO.P,U2,30,GPIO45_30*%
%TO.N,/GPIO45*%
X15146500Y-9531136D03*
%TO.P,U2,31,GPIO0_31*%
%TO.N,/GPIO0*%
X15146500Y-9277136D03*
%TO.P,U2,32,GPIO35_32*%
%TO.N,/GPIO35*%
X15146500Y-9023136D03*
%TO.P,U2,33,GPIO36_33*%
%TO.N,/GPIO36*%
X15146500Y-8769136D03*
%TO.P,U2,34,GPIO37_34*%
%TO.N,/GPIO37*%
X15146500Y-8515136D03*
%TO.P,U2,35,GPIO38_35*%
%TO.N,/GPIO38*%
X15146500Y-8261136D03*
%TO.P,U2,36,GPIO39/MTCK_36*%
%TO.N,/GPIO39*%
X15146500Y-8007136D03*
%TO.P,U2,37,GPIO40/MTDO_37*%
%TO.N,/GPIO40*%
X15146500Y-7753136D03*
%TO.P,U2,38,GPIO41/MTDI_38*%
%TO.N,/GPIO41*%
X15146500Y-7499136D03*
%TO.P,U2,39,GPIO42/MTMS_39*%
%TO.N,/GPIO42*%
X15146500Y-7245136D03*
%TO.P,U2,40,GPIO2/ADC1_CH1_40*%
%TO.N,/GPIO2*%
X15146500Y-6991136D03*
%TO.P,U2,41,GPIO1/ADC1_CH0_41*%
%TO.N,/GPIO1*%
X15146500Y-6737136D03*
%TO.P,U2,42,GPIO44/U0RXD_42*%
%TO.N,/GPIO44*%
X15146500Y-6483136D03*
%TO.P,U2,43,GPIO43/U0TXD_43*%
%TO.N,/GPIO43*%
X15146500Y-6229136D03*
%TO.P,U2,44,GND_44*%
%TO.N,GND*%
X15146500Y-5975136D03*
%TD*%
D11*
%TO.P,J2,S1,SHIELD_S1*%
%TO.N,GND*%
X14263000Y-11680000D03*
D12*
X14263000Y-12100000D03*
D11*
X15127000Y-11680000D03*
D12*
X15127000Y-12100000D03*
%TD*%
D11*
%TO.P,J1,S1,SHIELD_S1*%
%TO.N,GND*%
X12876000Y-11680000D03*
D12*
X12876000Y-12100000D03*
D11*
X13740000Y-11680000D03*
D12*
X13740000Y-12100000D03*
%TD*%
D13*
%TO.N,+5V*%
X13805000Y-11035000D03*
%TO.N,GND*%
X13660000Y-6300000D03*
X14180000Y-10840000D03*
X14525000Y-11275000D03*
X13440000Y-6820000D03*
X13640000Y-8400000D03*
X13710000Y-6730000D03*
X13850000Y-6870000D03*
X13320000Y-10820000D03*
X13710000Y-6870000D03*
X14480000Y-8420000D03*
X14000000Y-12100000D03*
X13700000Y-5950000D03*
X13490000Y-11220000D03*
X14160000Y-7560000D03*
X13460000Y-9640000D03*
X13350000Y-5950000D03*
X14540000Y-7540000D03*
X14295000Y-11520000D03*
X13440000Y-7180000D03*
X13790000Y-6790000D03*
X13910000Y-9080000D03*
X13930000Y-6790000D03*
X14920000Y-12100000D03*
X14170000Y-8720000D03*
X15065000Y-11520000D03*
X13500000Y-12120000D03*
X14000000Y-6870000D03*
X14380000Y-8180000D03*
X13930000Y-6940000D03*
X13300000Y-9280000D03*
X13495000Y-11305000D03*
X14720000Y-9420000D03*
X14540000Y-7120000D03*
X13930000Y-6650000D03*
X13320000Y-10620000D03*
X13790000Y-6650000D03*
X13520000Y-10820000D03*
X13850000Y-6730000D03*
X14080000Y-6300000D03*
X13760000Y-8400000D03*
X15000000Y-11500000D03*
X13420000Y-10720000D03*
X14500000Y-5950000D03*
X14840000Y-9800000D03*
X14620000Y-8580000D03*
X13805000Y-11285000D03*
X14000000Y-6730000D03*
X14520000Y-12100000D03*
X14620000Y-10680000D03*
X13420000Y-10820000D03*
X13140000Y-12120000D03*
X13135000Y-11275000D03*
X13320000Y-10720000D03*
X13320000Y-9800000D03*
X12930000Y-11520000D03*
X13520000Y-10720000D03*
X14870000Y-10470000D03*
X14000000Y-11760000D03*
X14700000Y-9640000D03*
X13520000Y-10620000D03*
X13690000Y-11535000D03*
X14380000Y-8260000D03*
X14380000Y-8340000D03*
X14640000Y-8340000D03*
X14135000Y-11350000D03*
X13580000Y-9600000D03*
X13720000Y-7560000D03*
X13330000Y-11050000D03*
X14890000Y-11270000D03*
X14420000Y-11020000D03*
X13880000Y-8660000D03*
X14100000Y-5950000D03*
X13900000Y-9660000D03*
X14270000Y-10340000D03*
X13420000Y-10620000D03*
X14720000Y-9280000D03*
X13790000Y-6940000D03*
%TO.N,/EN*%
X13500000Y-7920000D03*
X13620000Y-7180000D03*
%TO.N,/GPIO38*%
X14740000Y-7160000D03*
X14830000Y-9380000D03*
X14800000Y-9020000D03*
%TO.N,/~{DTR}*%
X13040000Y-10820000D03*
X13310000Y-9490000D03*
%TO.N,+3.3V*%
X13960000Y-9980000D03*
X13520000Y-8400000D03*
X13960000Y-9840000D03*
X14120000Y-9840000D03*
X14240000Y-9740000D03*
X14240000Y-9980000D03*
X13880000Y-8410000D03*
X14120000Y-9980000D03*
X13830000Y-8260000D03*
X14240000Y-9840000D03*
%TO.N,/GPIO6*%
X13270000Y-6660000D03*
%TO.N,/GPIO7*%
X13270000Y-6780000D03*
%TO.N,/GPIO15*%
X13270000Y-6920000D03*
%TO.N,/GPIO16*%
X13270000Y-7040000D03*
%TO.N,/GPIO17*%
X13270000Y-7170000D03*
%TO.N,/GPIO18*%
X13270000Y-7290000D03*
%TO.N,/GPIO8*%
X13270000Y-7420000D03*
%TO.N,/USB2_D-*%
X14722450Y-10910000D03*
X14615000Y-11480000D03*
X13292500Y-8860000D03*
X14735000Y-11480000D03*
%TO.N,/USB2_D+*%
X14615000Y-10855000D03*
X13367500Y-8860000D03*
%TO.N,/GPIO3*%
X13330000Y-7950000D03*
%TO.N,/GPIO46*%
X13440000Y-7970000D03*
%TO.N,/GPIO9*%
X13560000Y-7970000D03*
%TO.N,/GPIO10*%
X13690000Y-7970000D03*
%TO.N,/GPIO11*%
X13820000Y-7970000D03*
%TO.N,/GPIO12*%
X13940000Y-7970000D03*
%TO.N,/GPIO13*%
X14070000Y-7970000D03*
%TO.N,/GPIO14*%
X14200000Y-7970000D03*
%TO.N,/GPIO21*%
X14330000Y-7970000D03*
%TO.N,/GPIO47*%
X14450000Y-7980000D03*
%TO.N,/GPIO48*%
X14580000Y-7980000D03*
%TO.N,/GPIO45*%
X14710000Y-7980000D03*
%TO.N,/GPIO0*%
X14750000Y-7670000D03*
%TO.N,/GPIO35*%
X14750000Y-7550000D03*
%TO.N,/GPIO36*%
X14740000Y-7420000D03*
%TO.N,/GPIO37*%
X14740000Y-7290000D03*
%TO.N,/GPIO39*%
X14740000Y-7040000D03*
%TO.N,/GPIO40*%
X14740000Y-6910000D03*
%TO.N,/GPIO41*%
X14740000Y-6780000D03*
%TO.N,/GPIO44*%
X13140000Y-7940000D03*
X13420000Y-7520000D03*
%TO.N,/GPIO43*%
X13110000Y-8040000D03*
X13474501Y-7414501D03*
%TO.N,/GPIO2*%
X14740000Y-6270000D03*
%TO.N,/GPIO1*%
X14740000Y-6150000D03*
%TO.N,/USB1_D+*%
X13400000Y-11490000D03*
X13250000Y-11490000D03*
%TO.N,/~{RTS}*%
X13780000Y-8880000D03*
X13600000Y-8880000D03*
%TD*%
%TO.N,+5V*%
D14*
X13145000Y-11120000D02*
X13083540Y-11058540D01*
X13430000Y-11035000D02*
X13345000Y-11120000D01*
X13083540Y-11058540D02*
X12860132Y-11058540D01*
X13345000Y-11120000D02*
X13145000Y-11120000D01*
X13805000Y-11035000D02*
X13430000Y-11035000D01*
%TO.N,/EN*%
D15*
X13500000Y-7920000D02*
X13500000Y-7710000D01*
X13620000Y-7590000D02*
X13620000Y-7180000D01*
X13500000Y-7710000D02*
X13620000Y-7590000D01*
%TO.N,/GPIO38*%
X14940000Y-7444804D02*
X14940000Y-7649307D01*
X14905000Y-7325000D02*
X14905000Y-7409804D01*
X15010000Y-8128312D02*
X15146500Y-8264812D01*
X14940000Y-7649307D02*
X14984000Y-7693307D01*
X14984000Y-7693307D02*
X14984000Y-7897809D01*
X14740000Y-7160000D02*
X14905000Y-7325000D01*
X14830000Y-9050000D02*
X14830000Y-9380000D01*
X14905000Y-7409804D02*
X14940000Y-7444804D01*
X14800000Y-9020000D02*
X14830000Y-9050000D01*
X15010000Y-7923809D02*
X15010000Y-8128312D01*
X14984000Y-7897809D02*
X15010000Y-7923809D01*
%TO.N,/~{DTR}*%
X13090000Y-10208733D02*
X13055000Y-10243733D01*
X13135000Y-9959231D02*
X13090000Y-10004231D01*
X13020000Y-10800000D02*
X13040000Y-10820000D01*
X13195000Y-9694728D02*
X13135000Y-9754728D01*
X13055000Y-10243733D02*
X13055000Y-10448236D01*
X13310000Y-9490000D02*
X13195000Y-9605000D01*
X13090000Y-10004231D02*
X13090000Y-10208733D01*
X13135000Y-9754728D02*
X13135000Y-9959231D01*
X13020000Y-10483236D02*
X13020000Y-10800000D01*
X13195000Y-9605000D02*
X13195000Y-9694728D01*
X13055000Y-10448236D02*
X13020000Y-10483236D01*
%TO.N,/GPIO6*%
X13020000Y-6920000D02*
X13020000Y-7089312D01*
X13270000Y-6660000D02*
X13270000Y-6670000D01*
X13270000Y-6670000D02*
X13020000Y-6920000D01*
X13020000Y-7089312D02*
X12860500Y-7248812D01*
%TO.N,/GPIO7*%
X13055000Y-6995000D02*
X13055000Y-7103809D01*
X13270000Y-6780000D02*
X13055000Y-6995000D01*
X12990000Y-7168809D02*
X12990000Y-7373312D01*
X12990000Y-7373312D02*
X12860500Y-7502812D01*
X13055000Y-7103809D02*
X12990000Y-7168809D01*
%TO.N,/GPIO15*%
X12988000Y-7629312D02*
X12860500Y-7756812D01*
X13025000Y-7387809D02*
X12988000Y-7424809D01*
X13090000Y-7118307D02*
X13025000Y-7183307D01*
X13090000Y-7100000D02*
X13090000Y-7118307D01*
X12988000Y-7424809D02*
X12988000Y-7629312D01*
X13270000Y-6920000D02*
X13090000Y-7100000D01*
X13025000Y-7183307D02*
X13025000Y-7387809D01*
%TO.N,/GPIO16*%
X12988000Y-7678809D02*
X12988000Y-7883312D01*
X13270000Y-7040000D02*
X13060000Y-7250000D01*
X13060000Y-7402307D02*
X13023000Y-7439307D01*
X13060000Y-7250000D02*
X13060000Y-7402307D01*
X13023000Y-7643809D02*
X12988000Y-7678809D01*
X12988000Y-7883312D02*
X12860500Y-8010812D01*
X13023000Y-7439307D02*
X13023000Y-7643809D01*
%TO.N,/GPIO17*%
X13270000Y-7170000D02*
X13095000Y-7345000D01*
X13058000Y-7453804D02*
X13058000Y-7658307D01*
X13023000Y-7897809D02*
X12988000Y-7932809D01*
X12988000Y-8137312D02*
X12860500Y-8264812D01*
X13095000Y-7416804D02*
X13058000Y-7453804D01*
X13058000Y-7658307D02*
X13023000Y-7693307D01*
X13095000Y-7345000D02*
X13095000Y-7416804D01*
X12988000Y-7932809D02*
X12988000Y-8137312D01*
X13023000Y-7693307D02*
X13023000Y-7897809D01*
%TO.N,/GPIO18*%
X13000000Y-8379312D02*
X12860500Y-8518812D01*
X13058000Y-7707804D02*
X13058000Y-7912307D01*
X13058000Y-7912307D02*
X13023000Y-7947307D01*
X13023000Y-8151809D02*
X13000000Y-8174809D01*
X13023000Y-7947307D02*
X13023000Y-8151809D01*
X13093000Y-7672804D02*
X13058000Y-7707804D01*
X13093000Y-7468302D02*
X13093000Y-7672804D01*
X13270000Y-7290000D02*
X13130000Y-7430000D01*
X13000000Y-8174809D02*
X13000000Y-8379312D01*
X13130000Y-7430000D02*
X13130000Y-7431302D01*
X13130000Y-7431302D02*
X13093000Y-7468302D01*
%TO.N,/GPIO8*%
X13093000Y-7722302D02*
X13093000Y-7926804D01*
X13093000Y-7926804D02*
X13058000Y-7961804D01*
X13128000Y-7562000D02*
X13128000Y-7687302D01*
X13058000Y-8166307D02*
X13035000Y-8189307D01*
X13035000Y-8189307D02*
X13035000Y-8393809D01*
X13035000Y-8393809D02*
X13010000Y-8418809D01*
X13128000Y-7687302D02*
X13093000Y-7722302D01*
X13058000Y-7961804D02*
X13058000Y-8166307D01*
X13270000Y-7420000D02*
X13128000Y-7562000D01*
X13010000Y-8623312D02*
X12860500Y-8772812D01*
X13010000Y-8418809D02*
X13010000Y-8623312D01*
%TO.N,/USB2_D-*%
D16*
X13307500Y-9139320D02*
X13777500Y-9609320D01*
X13777500Y-9609320D02*
X13777500Y-10089320D01*
X13292500Y-8860000D02*
X13307500Y-8875000D01*
X14598180Y-10910000D02*
X14722450Y-10910000D01*
X14615000Y-11480000D02*
X14735000Y-11480000D01*
X13777500Y-10089320D02*
X14598180Y-10910000D01*
X13307500Y-8875000D02*
X13307500Y-9139320D01*
%TO.N,/USB2_D+*%
X13822500Y-9590680D02*
X13822500Y-10070680D01*
X13352500Y-8875000D02*
X13352500Y-9120680D01*
X13367500Y-8860000D02*
X13352500Y-8875000D01*
X13352500Y-9120680D02*
X13822500Y-9590680D01*
X13822500Y-10070680D02*
X14606820Y-10855000D01*
X14606820Y-10855000D02*
X14615000Y-10855000D01*
%TO.N,/GPIO3*%
D15*
X13070000Y-8408307D02*
X13045000Y-8433307D01*
X13330000Y-7950000D02*
X13070000Y-8210000D01*
X13070000Y-8210000D02*
X13070000Y-8408307D01*
X13045000Y-8637809D02*
X12988000Y-8694809D01*
X13045000Y-8433307D02*
X13045000Y-8637809D01*
X12988000Y-8899312D02*
X12860500Y-9026812D01*
X12988000Y-8694809D02*
X12988000Y-8899312D01*
%TO.N,/GPIO46*%
X13105000Y-8422804D02*
X13080000Y-8447804D01*
X13105000Y-8225000D02*
X13105000Y-8422804D01*
X13440000Y-7970000D02*
X13387500Y-8022500D01*
X13023000Y-8709307D02*
X13023000Y-9118312D01*
X13023000Y-9118312D02*
X12860500Y-9280812D01*
X13080000Y-8652307D02*
X13023000Y-8709307D01*
X13387500Y-8022500D02*
X13307500Y-8022500D01*
X13307500Y-8022500D02*
X13105000Y-8225000D01*
X13080000Y-8447804D02*
X13080000Y-8652307D01*
%TO.N,/GPIO9*%
X13472500Y-8057500D02*
X13321997Y-8057500D01*
X12990000Y-9200809D02*
X12990000Y-9405312D01*
X13058000Y-8723804D02*
X13058000Y-9132809D01*
X13560000Y-7970000D02*
X13472500Y-8057500D01*
X13115000Y-8666804D02*
X13058000Y-8723804D01*
X13058000Y-9132809D02*
X12990000Y-9200809D01*
X12990000Y-9405312D02*
X12860500Y-9534812D01*
X13140000Y-8239497D02*
X13140000Y-8437302D01*
X13140000Y-8437302D02*
X13115000Y-8462302D01*
X13115000Y-8462302D02*
X13115000Y-8666804D01*
X13321997Y-8057500D02*
X13140000Y-8239497D01*
%TO.N,/GPIO10*%
X13336495Y-8092500D02*
X13175000Y-8253995D01*
X13175000Y-8253995D02*
X13175000Y-8451799D01*
X13616746Y-7987500D02*
X13511746Y-8092500D01*
X13511746Y-8092500D02*
X13336495Y-8092500D01*
X13175000Y-8451799D02*
X13150000Y-8476799D01*
X13025000Y-9624312D02*
X12860500Y-9788812D01*
X13093000Y-9147307D02*
X13025000Y-9215307D01*
X13690000Y-7970000D02*
X13672500Y-7987500D01*
X13672500Y-7987500D02*
X13616746Y-7987500D01*
X13025000Y-9215307D02*
X13025000Y-9624312D01*
X13150000Y-8476799D02*
X13150000Y-8681302D01*
X13093000Y-8738302D02*
X13093000Y-9147307D01*
X13150000Y-8681302D02*
X13093000Y-8738302D01*
%TO.N,/GPIO11*%
X13210000Y-8466296D02*
X13185000Y-8491296D01*
X13210000Y-8268492D02*
X13210000Y-8466296D01*
X13350992Y-8127500D02*
X13210000Y-8268492D01*
X13128000Y-9161804D02*
X13060000Y-9229804D01*
X13820000Y-7970000D02*
X13820000Y-7990000D01*
X13060000Y-9229804D02*
X13060000Y-9638809D01*
X13631244Y-8022500D02*
X13526244Y-8127500D01*
X13185000Y-8695799D02*
X13128000Y-8752799D01*
X13526244Y-8127500D02*
X13350992Y-8127500D01*
X13820000Y-7990000D02*
X13787500Y-8022500D01*
X13787500Y-8022500D02*
X13631244Y-8022500D01*
X13000000Y-9903312D02*
X12860500Y-10042812D01*
X13000000Y-9698809D02*
X13000000Y-9903312D01*
X13060000Y-9638809D02*
X13000000Y-9698809D01*
X13185000Y-8491296D02*
X13185000Y-8695799D01*
X13128000Y-8752799D02*
X13128000Y-9161804D01*
%TO.N,/GPIO12*%
X13645741Y-8057500D02*
X13540741Y-8162500D01*
X13940000Y-7970000D02*
X13940000Y-8000000D01*
X13245000Y-8282990D02*
X13245000Y-8480794D01*
X13035000Y-9917809D02*
X12990000Y-9962809D01*
X13095000Y-9653307D02*
X13035000Y-9713307D01*
X12990000Y-9962809D02*
X12990000Y-10167312D01*
X13035000Y-9713307D02*
X13035000Y-9917809D01*
X13245000Y-8480794D02*
X13220000Y-8505794D01*
X13220000Y-8505794D02*
X13220000Y-8710297D01*
X13540741Y-8162500D02*
X13365490Y-8162500D01*
X13882500Y-8057500D02*
X13645741Y-8057500D01*
X13163000Y-9176302D02*
X13095000Y-9244302D01*
X12990000Y-10167312D02*
X12860500Y-10296812D01*
X13220000Y-8710297D02*
X13163000Y-8767297D01*
X13095000Y-9244302D02*
X13095000Y-9653307D01*
X13940000Y-8000000D02*
X13882500Y-8057500D01*
X13163000Y-8767297D02*
X13163000Y-9176302D01*
X13365490Y-8162500D02*
X13245000Y-8282990D01*
%TO.N,/GPIO13*%
X13379987Y-8197500D02*
X13280000Y-8297487D01*
X13280000Y-8495291D02*
X13255000Y-8520291D01*
X13967500Y-8092500D02*
X13660239Y-8092500D01*
X13025000Y-9977307D02*
X13025000Y-10181809D01*
X13025000Y-10181809D02*
X12990000Y-10216809D01*
X12990000Y-10216809D02*
X12990000Y-10421312D01*
X13130000Y-9667804D02*
X13070000Y-9727804D01*
X13555238Y-8197500D02*
X13379987Y-8197500D01*
X13070000Y-9727804D02*
X13070000Y-9932307D01*
X13198000Y-9190799D02*
X13130000Y-9258799D01*
X13130000Y-9258799D02*
X13130000Y-9667804D01*
X13660239Y-8092500D02*
X13555238Y-8197500D01*
X13198000Y-8781794D02*
X13198000Y-9190799D01*
X13280000Y-8297487D02*
X13280000Y-8495291D01*
X14070000Y-7970000D02*
X14070000Y-7990000D01*
X13255000Y-8724794D02*
X13198000Y-8781794D01*
X12990000Y-10421312D02*
X12860500Y-10550812D01*
X13255000Y-8520291D02*
X13255000Y-8724794D01*
X13070000Y-9932307D02*
X13025000Y-9977307D01*
X14070000Y-7990000D02*
X13967500Y-8092500D01*
%TO.N,/GPIO14*%
X13105000Y-9742302D02*
X13105000Y-9946804D01*
X14144246Y-7970000D02*
X13986746Y-8127500D01*
X13025000Y-10435809D02*
X12990000Y-10470809D01*
X13233000Y-9205296D02*
X13165000Y-9273296D01*
X13315000Y-8311984D02*
X13315000Y-8509789D01*
X13105000Y-9946804D02*
X13060000Y-9991804D01*
X12990000Y-10674672D02*
X12860132Y-10804540D01*
X13060000Y-10196307D02*
X13025000Y-10231307D01*
X13569736Y-8232500D02*
X13394484Y-8232500D01*
X13233000Y-8796291D02*
X13233000Y-9205296D01*
X13674736Y-8127500D02*
X13569736Y-8232500D01*
X14200000Y-7970000D02*
X14144246Y-7970000D01*
X12990000Y-10470809D02*
X12990000Y-10674672D01*
X13986746Y-8127500D02*
X13674736Y-8127500D01*
X13290000Y-8534789D02*
X13290000Y-8739291D01*
X13025000Y-10231307D02*
X13025000Y-10435809D01*
X13394484Y-8232500D02*
X13315000Y-8311984D01*
X13165000Y-9682302D02*
X13105000Y-9742302D01*
X13315000Y-8509789D02*
X13290000Y-8534789D01*
X13165000Y-9273296D02*
X13165000Y-9682302D01*
X13060000Y-9991804D02*
X13060000Y-10196307D01*
X13290000Y-8739291D02*
X13233000Y-8796291D01*
%TO.N,/GPIO21*%
X14879000Y-9211302D02*
X14895000Y-9227302D01*
X14330000Y-7970000D02*
X14365754Y-7970000D01*
X14985000Y-9726307D02*
X14985000Y-9737071D01*
X14800000Y-8518794D02*
X14800000Y-8723296D01*
X14984000Y-9738071D02*
X14984000Y-9929809D01*
X14879000Y-9006799D02*
X14879000Y-9211302D01*
X14844000Y-8767296D02*
X14844000Y-8971799D01*
X14844000Y-8971799D02*
X14879000Y-9006799D01*
X15010000Y-10160312D02*
X15146500Y-10296812D01*
X14895000Y-9227302D02*
X14895000Y-9431804D01*
X14770000Y-8310000D02*
X14770000Y-8488794D01*
X14770000Y-8488794D02*
X14800000Y-8518794D01*
X14985000Y-9737071D02*
X14984000Y-9738071D01*
X14428254Y-8032500D02*
X14492500Y-8032500D01*
X15010000Y-9955809D02*
X15010000Y-10160312D01*
X14492500Y-8032500D02*
X14770000Y-8310000D01*
X14949000Y-9485804D02*
X14949000Y-9690307D01*
X14800000Y-8723296D02*
X14844000Y-8767296D01*
X14949000Y-9690307D02*
X14985000Y-9726307D01*
X14365754Y-7970000D02*
X14428254Y-8032500D01*
X14984000Y-9929809D02*
X15010000Y-9955809D01*
X14895000Y-9431804D02*
X14949000Y-9485804D01*
%TO.N,/GPIO47*%
X14490000Y-7980000D02*
X14809000Y-8299000D01*
X14985000Y-9472307D02*
X14985000Y-9483071D01*
X14984000Y-9484071D02*
X14984000Y-9675809D01*
X14450000Y-7980000D02*
X14490000Y-7980000D01*
X14879000Y-8752799D02*
X14879000Y-8957302D01*
X15019000Y-9752568D02*
X15019000Y-9915312D01*
X14914000Y-9196804D02*
X14930000Y-9212804D01*
X14809000Y-8478297D02*
X14835000Y-8504296D01*
X15020000Y-9751568D02*
X15019000Y-9752568D01*
X14809000Y-8299000D02*
X14809000Y-8478297D01*
X14835000Y-8708799D02*
X14879000Y-8752799D01*
X14930000Y-9212804D02*
X14930000Y-9417307D01*
X15019000Y-9915312D02*
X15146500Y-10042812D01*
X14930000Y-9417307D02*
X14985000Y-9472307D01*
X14914000Y-8992302D02*
X14914000Y-9196804D01*
X14984000Y-9675809D02*
X15020000Y-9711809D01*
X14985000Y-9483071D02*
X14984000Y-9484071D01*
X15020000Y-9711809D02*
X15020000Y-9751568D01*
X14835000Y-8504296D02*
X14835000Y-8708799D01*
X14879000Y-8957302D02*
X14914000Y-8992302D01*
%TO.N,/GPIO48*%
X14800000Y-8215296D02*
X14844000Y-8259296D01*
X14949000Y-9182307D02*
X14965000Y-9198307D01*
X15019000Y-9498568D02*
X15019000Y-9661312D01*
X15020000Y-9497568D02*
X15019000Y-9498568D01*
X14914000Y-8942804D02*
X14949000Y-8977804D01*
X14870000Y-8489799D02*
X14870000Y-8694302D01*
X14580000Y-7980000D02*
X14600000Y-7980000D01*
X15020000Y-9457809D02*
X15020000Y-9497568D01*
X14600000Y-7980000D02*
X14800000Y-8180000D01*
X14800000Y-8180000D02*
X14800000Y-8215296D01*
X14870000Y-8694302D02*
X14914000Y-8738302D01*
X14965000Y-9402809D02*
X15020000Y-9457809D01*
X14914000Y-8738302D02*
X14914000Y-8942804D01*
X14965000Y-9198307D02*
X14965000Y-9402809D01*
X14844000Y-8463799D02*
X14870000Y-8489799D01*
X14949000Y-8977804D02*
X14949000Y-9182307D01*
X14844000Y-8259296D02*
X14844000Y-8463799D01*
X15019000Y-9661312D02*
X15146500Y-9788812D01*
%TO.N,/GPIO45*%
X14905000Y-8679804D02*
X14949000Y-8723804D01*
X14984000Y-8963307D02*
X14984000Y-9167810D01*
X15000000Y-9183810D02*
X15000000Y-9388312D01*
X14984000Y-9167810D02*
X15000000Y-9183810D01*
X14835000Y-8200799D02*
X14879000Y-8244799D01*
X14949000Y-8723804D02*
X14949000Y-8928307D01*
X15000000Y-9388312D02*
X15146500Y-9534812D01*
X14879000Y-8244799D02*
X14879000Y-8449302D01*
X14905000Y-8475302D02*
X14905000Y-8679804D01*
X14835000Y-8105000D02*
X14835000Y-8200799D01*
X14879000Y-8449302D02*
X14905000Y-8475302D01*
X14710000Y-7980000D02*
X14835000Y-8105000D01*
X14949000Y-8928307D02*
X14984000Y-8963307D01*
%TO.N,/GPIO0*%
X15019000Y-9153312D02*
X15146500Y-9280812D01*
X14984000Y-8709307D02*
X14984000Y-8913809D01*
X14940000Y-8665307D02*
X14984000Y-8709307D01*
X14914000Y-8230302D02*
X14914000Y-8434804D01*
X14870000Y-8186302D02*
X14914000Y-8230302D01*
X14844000Y-7764000D02*
X14844000Y-7955799D01*
X14940000Y-8460804D02*
X14940000Y-8665307D01*
X14984000Y-8913809D02*
X15019000Y-8948809D01*
X14844000Y-7955799D02*
X14870000Y-7981799D01*
X15019000Y-8948809D02*
X15019000Y-9153312D01*
X14870000Y-7981799D02*
X14870000Y-8186302D01*
X14914000Y-8434804D02*
X14940000Y-8460804D01*
X14750000Y-7670000D02*
X14844000Y-7764000D01*
%TO.N,/GPIO35*%
X14949000Y-8420307D02*
X14975000Y-8446307D01*
X15019000Y-8694809D02*
X15019000Y-8899312D01*
X14905000Y-7967302D02*
X14905000Y-8171804D01*
X14750000Y-7550000D02*
X14835000Y-7635000D01*
X14949000Y-8215804D02*
X14949000Y-8420307D01*
X14879000Y-7736799D02*
X14879000Y-7941302D01*
X14975000Y-8650809D02*
X15019000Y-8694809D01*
X14879000Y-7941302D02*
X14905000Y-7967302D01*
X14835000Y-7635000D02*
X14835000Y-7692799D01*
X15019000Y-8899312D02*
X15146500Y-9026812D01*
X14905000Y-8171804D02*
X14949000Y-8215804D01*
X14835000Y-7692799D02*
X14879000Y-7736799D01*
X14975000Y-8446307D02*
X14975000Y-8650809D01*
%TO.N,/GPIO36*%
X14940000Y-8157307D02*
X14984000Y-8201307D01*
X14740000Y-7420000D02*
X14870000Y-7550000D01*
X14870000Y-7678302D02*
X14914000Y-7722302D01*
X15010000Y-8636312D02*
X15146500Y-8772812D01*
X14940000Y-7952804D02*
X14940000Y-8157307D01*
X14914000Y-7926804D02*
X14940000Y-7952804D01*
X14870000Y-7550000D02*
X14870000Y-7678302D01*
X14914000Y-7722302D02*
X14914000Y-7926804D01*
X14984000Y-8405809D02*
X15010000Y-8431809D01*
X14984000Y-8201307D02*
X14984000Y-8405809D01*
X15010000Y-8431809D02*
X15010000Y-8636312D01*
%TO.N,/GPIO37*%
X14949000Y-7912307D02*
X14975000Y-7938307D01*
X14975000Y-8142809D02*
X15019000Y-8186809D01*
X14870000Y-7420000D02*
X14870000Y-7424302D01*
X14905000Y-7459302D02*
X14905000Y-7663804D01*
X14905000Y-7663804D02*
X14949000Y-7707804D01*
X15019000Y-8391312D02*
X15146500Y-8518812D01*
X14740000Y-7290000D02*
X14870000Y-7420000D01*
X14975000Y-7938307D02*
X14975000Y-8142809D01*
X15019000Y-8186809D02*
X15019000Y-8391312D01*
X14949000Y-7707804D02*
X14949000Y-7912307D01*
X14870000Y-7424302D02*
X14905000Y-7459302D01*
%TO.N,/GPIO39*%
X14940000Y-7240000D02*
X14940000Y-7395307D01*
X14975000Y-7430307D02*
X14975000Y-7634809D01*
X15019000Y-7883312D02*
X15146500Y-8010812D01*
X14975000Y-7634809D02*
X15019000Y-7678809D01*
X15019000Y-7678809D02*
X15019000Y-7883312D01*
X14740000Y-7040000D02*
X14940000Y-7240000D01*
X14940000Y-7395307D02*
X14975000Y-7430307D01*
%TO.N,/GPIO40*%
X14740000Y-6910000D02*
X14975000Y-7145000D01*
X14975000Y-7145000D02*
X14975000Y-7380809D01*
X15010000Y-7620312D02*
X15146500Y-7756812D01*
X14975000Y-7380809D02*
X15010000Y-7415809D01*
X15010000Y-7415809D02*
X15010000Y-7620312D01*
%TO.N,/GPIO41*%
X14740000Y-6780000D02*
X14750000Y-6780000D01*
X14750000Y-6780000D02*
X15010000Y-7040000D01*
X15010000Y-7366312D02*
X15146500Y-7502812D01*
X15010000Y-7040000D02*
X15010000Y-7366312D01*
%TO.N,/GPIO44*%
X13140000Y-7930000D02*
X13420000Y-7650000D01*
X13140000Y-7940000D02*
X13140000Y-7930000D01*
X13420000Y-7650000D02*
X13420000Y-7520000D01*
%TO.N,/GPIO43*%
X13110000Y-8040000D02*
X13474501Y-7675499D01*
X13474501Y-7675499D02*
X13474501Y-7414501D01*
%TO.N,/GPIO2*%
X14980000Y-6370000D02*
X14880000Y-6270000D01*
X14980000Y-6828312D02*
X14980000Y-6370000D01*
X14880000Y-6270000D02*
X14740000Y-6270000D01*
X15146500Y-6994812D02*
X14980000Y-6828312D01*
%TO.N,/GPIO1*%
X15019000Y-6269000D02*
X14900000Y-6150000D01*
X15019000Y-6613312D02*
X15019000Y-6269000D01*
X15146500Y-6740812D02*
X15019000Y-6613312D01*
X14900000Y-6150000D02*
X14740000Y-6150000D01*
%TO.N,/USB1_D+*%
X13400000Y-11490000D02*
X13250000Y-11490000D01*
%TO.N,/~{RTS}*%
X13780000Y-8880000D02*
X13600000Y-8880000D01*
%TD*%
%TA.AperFunction,Conductor*%
%TO.N,GND*%
G36*
X14269881Y-7976624D02*
G01*
X14275269Y-7981073D01*
X14276977Y-7984813D01*
X14278702Y-7991248D01*
X14278702Y-7991249D01*
X14285949Y-8003801D01*
X14285949Y-8003801D01*
X14285949Y-8003801D01*
X14296198Y-8014051D01*
X14296199Y-8014051D01*
X14296199Y-8014051D01*
X14308751Y-8021298D01*
X14308751Y-8021298D01*
X14308751Y-8021298D01*
X14322752Y-8025050D01*
X14322753Y-8025050D01*
X14337247Y-8025050D01*
X14337247Y-8025050D01*
X14351248Y-8021298D01*
X14351249Y-8021298D01*
X14351249Y-8021298D01*
X14352000Y-8020987D01*
X14352072Y-8021162D01*
X14357848Y-8019760D01*
X14364451Y-8022044D01*
X14366028Y-8023378D01*
X14398206Y-8055556D01*
X14405197Y-8062547D01*
X14413760Y-8067491D01*
X14418535Y-8068770D01*
X14418535Y-8068770D01*
X14419544Y-8069041D01*
X14423310Y-8070050D01*
X14423310Y-8070050D01*
X14471810Y-8070050D01*
X14478514Y-8072018D01*
X14480578Y-8073682D01*
X14728818Y-8321922D01*
X14732167Y-8328054D01*
X14732450Y-8330690D01*
X14732450Y-8493737D01*
X14732986Y-8495737D01*
X14732986Y-8495738D01*
X14735009Y-8503288D01*
X14735009Y-8503288D01*
X14739884Y-8511731D01*
X14739953Y-8511850D01*
X14758818Y-8530716D01*
X14762167Y-8536848D01*
X14762450Y-8539484D01*
X14762450Y-8728240D01*
X14763419Y-8731855D01*
X14765009Y-8737790D01*
X14765009Y-8737790D01*
X14765009Y-8737790D01*
X14769952Y-8746353D01*
X14769953Y-8746353D01*
X14769953Y-8746353D01*
X14802818Y-8779218D01*
X14806167Y-8785351D01*
X14806450Y-8787986D01*
X14806450Y-8952550D01*
X14804481Y-8959254D01*
X14799201Y-8963829D01*
X14794050Y-8964950D01*
X14792752Y-8964950D01*
X14780354Y-8968272D01*
X14778751Y-8968702D01*
X14766199Y-8975949D01*
X14766198Y-8975949D01*
X14755949Y-8986198D01*
X14755949Y-8986199D01*
X14748702Y-8998751D01*
X14748702Y-8998752D01*
X14744950Y-9012753D01*
X14744950Y-9027248D01*
X14748702Y-9041249D01*
X14748702Y-9041249D01*
X14755949Y-9053801D01*
X14755949Y-9053801D01*
X14755949Y-9053802D01*
X14766198Y-9064051D01*
X14766199Y-9064051D01*
X14766199Y-9064051D01*
X14778751Y-9071298D01*
X14778751Y-9071298D01*
X14778751Y-9071298D01*
X14783259Y-9072506D01*
X14789225Y-9076143D01*
X14792278Y-9082427D01*
X14792450Y-9084484D01*
X14792450Y-9334561D01*
X14790481Y-9341265D01*
X14788818Y-9343330D01*
X14785949Y-9346198D01*
X14785949Y-9346199D01*
X14778702Y-9358751D01*
X14778702Y-9358752D01*
X14774950Y-9372753D01*
X14774950Y-9387248D01*
X14776596Y-9393390D01*
X14778702Y-9401249D01*
X14785949Y-9413801D01*
X14785949Y-9413801D01*
X14785949Y-9413802D01*
X14796198Y-9424051D01*
X14796199Y-9424051D01*
X14796199Y-9424051D01*
X14808751Y-9431298D01*
X14808751Y-9431298D01*
X14808751Y-9431298D01*
X14822752Y-9435050D01*
X14822753Y-9435050D01*
X14837247Y-9435050D01*
X14837247Y-9435050D01*
X14843695Y-9433322D01*
X14850680Y-9433489D01*
X14856466Y-9437405D01*
X14858882Y-9442090D01*
X14860009Y-9446298D01*
X14862015Y-9449773D01*
X14864952Y-9454860D01*
X14864953Y-9454861D01*
X14864953Y-9454861D01*
X14907818Y-9497726D01*
X14911167Y-9503858D01*
X14911450Y-9506494D01*
X14911450Y-9695251D01*
X14912419Y-9698866D01*
X14914009Y-9704800D01*
X14914009Y-9704801D01*
X14915324Y-9707078D01*
X14918952Y-9713363D01*
X14918953Y-9713363D01*
X14918953Y-9713363D01*
X14942818Y-9737229D01*
X14946167Y-9743361D01*
X14946450Y-9745997D01*
X14946450Y-9924866D01*
X14946450Y-9934753D01*
X14946770Y-9935949D01*
X14947119Y-9937250D01*
X14947119Y-9937250D01*
X14949009Y-9944303D01*
X14949009Y-9944303D01*
X14950103Y-9946199D01*
X14953768Y-9952547D01*
X14953953Y-9952866D01*
X14968818Y-9967731D01*
X14972167Y-9973864D01*
X14972450Y-9976499D01*
X14972450Y-10155368D01*
X14972450Y-10165256D01*
X14973002Y-10167316D01*
X14973002Y-10167316D01*
X14973002Y-10167316D01*
X14975009Y-10174806D01*
X14975009Y-10174806D01*
X14975009Y-10174806D01*
X14979952Y-10183368D01*
X14979953Y-10183368D01*
X14979953Y-10183368D01*
X15027661Y-10231076D01*
X15031009Y-10237209D01*
X15030511Y-10244178D01*
X15029203Y-10246734D01*
X15026699Y-10250481D01*
X15026698Y-10250482D01*
X15019911Y-10266869D01*
X15019910Y-10266870D01*
X15016450Y-10284266D01*
X15016450Y-10302006D01*
X15019910Y-10319402D01*
X15019911Y-10319403D01*
X15026698Y-10335790D01*
X15026699Y-10335791D01*
X15036553Y-10350539D01*
X15036554Y-10350540D01*
X15049096Y-10363082D01*
X15049096Y-10363082D01*
X15063845Y-10372937D01*
X15063846Y-10372938D01*
X15071695Y-10376189D01*
X15080233Y-10379725D01*
X15080234Y-10379725D01*
X15080234Y-10379726D01*
X15097630Y-10383186D01*
X15097631Y-10383186D01*
X15097631Y-10383186D01*
X15195369Y-10383186D01*
X15195369Y-10383186D01*
X15201168Y-10382032D01*
X15212766Y-10379726D01*
X15212766Y-10379725D01*
X15212767Y-10379725D01*
X15229155Y-10372937D01*
X15236127Y-10368279D01*
X15237161Y-10367588D01*
X15243828Y-10365500D01*
X15250566Y-10367348D01*
X15255236Y-10372546D01*
X15256450Y-10377898D01*
X15256450Y-10462374D01*
X15254481Y-10469078D01*
X15249201Y-10473653D01*
X15242285Y-10474648D01*
X15237161Y-10472684D01*
X15229156Y-10467335D01*
X15229154Y-10467334D01*
X15212767Y-10460547D01*
X15212766Y-10460546D01*
X15195369Y-10457086D01*
X15195369Y-10457086D01*
X15097631Y-10457086D01*
X15097631Y-10457086D01*
X15080234Y-10460546D01*
X15080233Y-10460547D01*
X15063846Y-10467334D01*
X15063845Y-10467335D01*
X15049096Y-10477190D01*
X15049096Y-10477190D01*
X15036554Y-10489732D01*
X15036553Y-10489733D01*
X15026699Y-10504481D01*
X15026698Y-10504482D01*
X15019911Y-10520869D01*
X15019910Y-10520870D01*
X15016450Y-10538266D01*
X15016450Y-10556006D01*
X15019910Y-10573402D01*
X15019911Y-10573403D01*
X15026698Y-10589790D01*
X15026699Y-10589791D01*
X15036553Y-10604539D01*
X15036554Y-10604540D01*
X15049096Y-10617082D01*
X15049096Y-10617082D01*
X15063845Y-10626937D01*
X15063846Y-10626938D01*
X15071695Y-10630189D01*
X15080233Y-10633725D01*
X15080234Y-10633725D01*
X15080234Y-10633726D01*
X15097630Y-10637186D01*
X15097631Y-10637186D01*
X15097631Y-10637186D01*
X15195369Y-10637186D01*
X15195369Y-10637186D01*
X15201168Y-10636032D01*
X15212766Y-10633726D01*
X15212766Y-10633725D01*
X15212767Y-10633725D01*
X15229155Y-10626937D01*
X15234076Y-10623649D01*
X15237161Y-10621588D01*
X15243828Y-10619500D01*
X15250566Y-10621348D01*
X15255236Y-10626546D01*
X15256450Y-10631898D01*
X15256450Y-10716374D01*
X15254481Y-10723078D01*
X15249201Y-10727653D01*
X15242285Y-10728648D01*
X15237161Y-10726684D01*
X15229156Y-10721335D01*
X15229154Y-10721334D01*
X15212767Y-10714547D01*
X15212766Y-10714546D01*
X15195369Y-10711086D01*
X15195369Y-10711086D01*
X15097631Y-10711086D01*
X15097631Y-10711086D01*
X15080234Y-10714546D01*
X15080233Y-10714547D01*
X15063846Y-10721334D01*
X15063845Y-10721335D01*
X15049096Y-10731190D01*
X15049096Y-10731190D01*
X15036554Y-10743732D01*
X15036553Y-10743733D01*
X15026699Y-10758481D01*
X15026698Y-10758482D01*
X15019911Y-10774869D01*
X15019910Y-10774870D01*
X15016450Y-10792266D01*
X15016450Y-10810006D01*
X15019910Y-10827402D01*
X15019911Y-10827403D01*
X15026698Y-10843790D01*
X15026699Y-10843791D01*
X15036553Y-10858539D01*
X15036554Y-10858540D01*
X15049096Y-10871082D01*
X15049096Y-10871082D01*
X15063845Y-10880937D01*
X15063846Y-10880938D01*
X15075758Y-10885872D01*
X15080233Y-10887725D01*
X15080234Y-10887725D01*
X15080234Y-10887726D01*
X15097630Y-10891186D01*
X15097631Y-10891186D01*
X15097631Y-10891186D01*
X15195369Y-10891186D01*
X15195369Y-10891186D01*
X15201168Y-10890032D01*
X15212766Y-10887726D01*
X15212766Y-10887725D01*
X15212767Y-10887725D01*
X15229155Y-10880937D01*
X15234076Y-10877649D01*
X15237161Y-10875588D01*
X15243828Y-10873500D01*
X15250566Y-10875348D01*
X15255236Y-10880546D01*
X15256450Y-10885898D01*
X15256450Y-12202414D01*
X15254481Y-12209118D01*
X15249201Y-12213693D01*
X15244050Y-12214814D01*
X12762950Y-12214814D01*
X12756246Y-12212845D01*
X12751671Y-12207565D01*
X12750550Y-12202414D01*
X12750550Y-11724502D01*
X12962050Y-11724502D01*
X12962050Y-11739498D01*
X12965931Y-11753982D01*
X12965931Y-11753982D01*
X12973428Y-11766968D01*
X12973429Y-11766968D01*
X12973429Y-11766968D01*
X12984032Y-11777571D01*
X12984032Y-11777571D01*
X12984032Y-11777571D01*
X12997018Y-11785069D01*
X12997018Y-11785069D01*
X12997018Y-11785069D01*
X13011502Y-11788950D01*
X13011503Y-11788950D01*
X13026497Y-11788950D01*
X13026498Y-11788950D01*
X13040982Y-11785069D01*
X13053968Y-11777571D01*
X13064571Y-11766968D01*
X13072069Y-11753982D01*
X13075950Y-11739498D01*
X13075950Y-11724502D01*
X13540050Y-11724502D01*
X13540050Y-11739498D01*
X13543931Y-11753982D01*
X13543931Y-11753982D01*
X13551428Y-11766968D01*
X13551429Y-11766968D01*
X13551429Y-11766968D01*
X13562032Y-11777571D01*
X13562032Y-11777571D01*
X13562032Y-11777571D01*
X13575018Y-11785069D01*
X13575018Y-11785069D01*
X13575018Y-11785069D01*
X13589502Y-11788950D01*
X13589503Y-11788950D01*
X13604497Y-11788950D01*
X13604498Y-11788950D01*
X13618982Y-11785069D01*
X13631968Y-11777571D01*
X13642571Y-11766968D01*
X13650069Y-11753982D01*
X13653950Y-11739498D01*
X13653950Y-11724502D01*
X14349050Y-11724502D01*
X14349050Y-11739498D01*
X14352931Y-11753982D01*
X14352931Y-11753982D01*
X14360428Y-11766968D01*
X14360429Y-11766968D01*
X14360429Y-11766968D01*
X14371032Y-11777571D01*
X14371032Y-11777571D01*
X14371032Y-11777571D01*
X14384018Y-11785069D01*
X14384018Y-11785069D01*
X14384018Y-11785069D01*
X14398502Y-11788950D01*
X14398503Y-11788950D01*
X14413497Y-11788950D01*
X14413498Y-11788950D01*
X14427982Y-11785069D01*
X14440968Y-11777571D01*
X14451571Y-11766968D01*
X14459069Y-11753982D01*
X14462950Y-11739498D01*
X14462950Y-11724502D01*
X14927050Y-11724502D01*
X14927050Y-11739498D01*
X14930931Y-11753982D01*
X14930931Y-11753982D01*
X14938428Y-11766968D01*
X14938429Y-11766968D01*
X14938429Y-11766968D01*
X14949032Y-11777571D01*
X14949032Y-11777571D01*
X14949032Y-11777571D01*
X14962018Y-11785069D01*
X14962018Y-11785069D01*
X14962018Y-11785069D01*
X14976502Y-11788950D01*
X14976503Y-11788950D01*
X14991497Y-11788950D01*
X14991498Y-11788950D01*
X15005982Y-11785069D01*
X15018968Y-11777571D01*
X15029571Y-11766968D01*
X15037069Y-11753982D01*
X15040950Y-11739498D01*
X15040950Y-11724502D01*
X15037069Y-11710018D01*
X15029571Y-11697032D01*
X15018968Y-11686429D01*
X15018968Y-11686429D01*
X15018968Y-11686428D01*
X15005982Y-11678931D01*
X15005982Y-11678931D01*
X15004794Y-11678613D01*
X14991498Y-11675050D01*
X14976502Y-11675050D01*
X14963205Y-11678613D01*
X14962018Y-11678931D01*
X14949032Y-11686428D01*
X14949032Y-11686429D01*
X14938429Y-11697032D01*
X14938428Y-11697032D01*
X14930931Y-11710018D01*
X14930931Y-11710018D01*
X14927050Y-11724502D01*
X14462950Y-11724502D01*
X14459069Y-11710018D01*
X14451571Y-11697032D01*
X14440968Y-11686429D01*
X14440968Y-11686429D01*
X14440968Y-11686428D01*
X14427982Y-11678931D01*
X14427982Y-11678931D01*
X14426794Y-11678613D01*
X14413498Y-11675050D01*
X14398502Y-11675050D01*
X14385205Y-11678613D01*
X14384018Y-11678931D01*
X14371032Y-11686428D01*
X14371032Y-11686429D01*
X14360429Y-11697032D01*
X14360428Y-11697032D01*
X14352931Y-11710018D01*
X14352931Y-11710018D01*
X14349050Y-11724502D01*
X13653950Y-11724502D01*
X13650069Y-11710018D01*
X13642571Y-11697032D01*
X13631968Y-11686429D01*
X13631968Y-11686429D01*
X13631968Y-11686428D01*
X13618982Y-11678931D01*
X13618982Y-11678931D01*
X13617794Y-11678613D01*
X13604498Y-11675050D01*
X13589502Y-11675050D01*
X13576205Y-11678613D01*
X13575018Y-11678931D01*
X13562032Y-11686428D01*
X13562032Y-11686429D01*
X13551429Y-11697032D01*
X13551428Y-11697032D01*
X13543931Y-11710018D01*
X13543931Y-11710018D01*
X13540050Y-11724502D01*
X13075950Y-11724502D01*
X13072069Y-11710018D01*
X13064571Y-11697032D01*
X13053968Y-11686429D01*
X13053968Y-11686429D01*
X13053968Y-11686428D01*
X13040982Y-11678931D01*
X13040982Y-11678931D01*
X13039794Y-11678613D01*
X13026498Y-11675050D01*
X13011502Y-11675050D01*
X12998205Y-11678613D01*
X12997018Y-11678931D01*
X12984032Y-11686428D01*
X12984032Y-11686429D01*
X12973429Y-11697032D01*
X12973428Y-11697032D01*
X12965931Y-11710018D01*
X12965931Y-11710018D01*
X12962050Y-11724502D01*
X12750550Y-11724502D01*
X12750550Y-11482752D01*
X13194950Y-11482752D01*
X13194950Y-11497247D01*
X13196022Y-11501248D01*
X13198702Y-11511249D01*
X13205949Y-11523801D01*
X13205949Y-11523801D01*
X13205949Y-11523801D01*
X13216198Y-11534051D01*
X13216199Y-11534051D01*
X13216199Y-11534051D01*
X13228751Y-11541298D01*
X13228751Y-11541298D01*
X13228751Y-11541298D01*
X13242752Y-11545050D01*
X13242753Y-11545050D01*
X13257247Y-11545050D01*
X13257247Y-11545050D01*
X13271248Y-11541298D01*
X13283801Y-11534051D01*
X13286670Y-11531182D01*
X13292803Y-11527833D01*
X13295439Y-11527550D01*
X13354561Y-11527550D01*
X13361265Y-11529518D01*
X13363329Y-11531182D01*
X13366198Y-11534051D01*
X13366199Y-11534051D01*
X13366199Y-11534051D01*
X13378751Y-11541298D01*
X13378751Y-11541298D01*
X13378751Y-11541298D01*
X13392752Y-11545050D01*
X13392753Y-11545050D01*
X13407247Y-11545050D01*
X13407247Y-11545050D01*
X13421248Y-11541298D01*
X13433801Y-11534051D01*
X13444051Y-11523801D01*
X13451298Y-11511248D01*
X13455050Y-11497247D01*
X13455050Y-11482752D01*
X13452370Y-11472752D01*
X14559950Y-11472752D01*
X14559950Y-11487247D01*
X14563702Y-11501248D01*
X14563702Y-11501249D01*
X14570949Y-11513801D01*
X14570949Y-11513801D01*
X14570949Y-11513801D01*
X14581198Y-11524051D01*
X14581199Y-11524051D01*
X14581199Y-11524051D01*
X14593751Y-11531298D01*
X14593751Y-11531298D01*
X14593751Y-11531298D01*
X14607752Y-11535050D01*
X14607753Y-11535050D01*
X14622247Y-11535050D01*
X14622247Y-11535050D01*
X14636248Y-11531298D01*
X14648801Y-11524051D01*
X14649170Y-11523682D01*
X14655303Y-11520333D01*
X14657939Y-11520050D01*
X14692061Y-11520050D01*
X14698765Y-11522018D01*
X14700829Y-11523682D01*
X14701198Y-11524051D01*
X14701199Y-11524051D01*
X14701199Y-11524051D01*
X14713751Y-11531298D01*
X14713751Y-11531298D01*
X14713751Y-11531298D01*
X14727752Y-11535050D01*
X14727753Y-11535050D01*
X14742247Y-11535050D01*
X14742247Y-11535050D01*
X14756248Y-11531298D01*
X14768801Y-11524051D01*
X14779051Y-11513801D01*
X14786298Y-11501248D01*
X14790050Y-11487247D01*
X14790050Y-11472752D01*
X14786298Y-11458751D01*
X14784824Y-11456198D01*
X14779051Y-11446199D01*
X14779051Y-11446198D01*
X14768802Y-11435949D01*
X14768801Y-11435949D01*
X14756249Y-11428702D01*
X14756249Y-11428702D01*
X14755101Y-11428394D01*
X14742247Y-11424950D01*
X14727752Y-11424950D01*
X14714899Y-11428394D01*
X14713751Y-11428702D01*
X14701199Y-11435949D01*
X14701198Y-11435949D01*
X14700829Y-11436318D01*
X14694697Y-11439667D01*
X14692061Y-11439950D01*
X14657939Y-11439950D01*
X14651235Y-11437981D01*
X14649170Y-11436318D01*
X14648802Y-11435949D01*
X14648801Y-11435949D01*
X14636249Y-11428702D01*
X14636249Y-11428702D01*
X14635101Y-11428394D01*
X14622247Y-11424950D01*
X14607752Y-11424950D01*
X14594899Y-11428394D01*
X14593751Y-11428702D01*
X14581199Y-11435949D01*
X14581198Y-11435949D01*
X14570949Y-11446198D01*
X14570949Y-11446199D01*
X14563702Y-11458751D01*
X14563702Y-11458751D01*
X14559950Y-11472752D01*
X13452370Y-11472752D01*
X13451298Y-11468751D01*
X13445525Y-11458751D01*
X13444051Y-11456199D01*
X13444051Y-11456198D01*
X13433802Y-11445949D01*
X13433801Y-11445949D01*
X13421249Y-11438702D01*
X13421249Y-11438702D01*
X13420101Y-11438394D01*
X13407247Y-11434950D01*
X13392752Y-11434950D01*
X13379899Y-11438394D01*
X13378751Y-11438702D01*
X13366199Y-11445949D01*
X13366198Y-11445949D01*
X13363329Y-11448818D01*
X13357197Y-11452167D01*
X13354561Y-11452450D01*
X13295439Y-11452450D01*
X13288735Y-11450481D01*
X13286670Y-11448818D01*
X13283802Y-11445949D01*
X13283801Y-11445949D01*
X13271249Y-11438702D01*
X13271249Y-11438702D01*
X13270101Y-11438394D01*
X13257247Y-11434950D01*
X13242752Y-11434950D01*
X13229899Y-11438394D01*
X13228751Y-11438702D01*
X13216199Y-11445949D01*
X13216198Y-11445949D01*
X13205949Y-11456198D01*
X13205949Y-11456199D01*
X13198702Y-11468751D01*
X13198702Y-11468751D01*
X13194950Y-11482752D01*
X12750550Y-11482752D01*
X12750550Y-11139872D01*
X12752518Y-11133168D01*
X12757799Y-11128592D01*
X12764715Y-11127598D01*
X12769839Y-11129562D01*
X12777477Y-11134665D01*
X12777477Y-11134665D01*
X12777478Y-11134666D01*
X12789768Y-11139756D01*
X12793865Y-11141453D01*
X12793866Y-11141453D01*
X12793866Y-11141454D01*
X12811262Y-11144914D01*
X12811263Y-11144914D01*
X12811263Y-11144914D01*
X12909001Y-11144914D01*
X12909001Y-11144914D01*
X12914800Y-11143760D01*
X12926398Y-11141454D01*
X12926398Y-11141453D01*
X12926399Y-11141453D01*
X12942787Y-11134665D01*
X12957535Y-11124810D01*
X12957536Y-11124810D01*
X12970078Y-11112268D01*
X12970078Y-11112268D01*
X12970078Y-11112268D01*
X12972194Y-11109101D01*
X12977555Y-11104620D01*
X12982504Y-11103590D01*
X13059743Y-11103590D01*
X13066447Y-11105559D01*
X13068511Y-11107222D01*
X13117339Y-11156049D01*
X13127611Y-11161980D01*
X13130032Y-11162628D01*
X13130032Y-11162629D01*
X13130032Y-11162629D01*
X13133045Y-11163436D01*
X13139069Y-11165050D01*
X13139069Y-11165050D01*
X13350931Y-11165050D01*
X13350931Y-11165050D01*
X13359967Y-11162629D01*
X13362389Y-11161980D01*
X13372661Y-11156049D01*
X13445028Y-11083682D01*
X13451161Y-11080333D01*
X13453796Y-11080050D01*
X13769606Y-11080050D01*
X13775806Y-11081711D01*
X13783751Y-11086298D01*
X13797752Y-11090050D01*
X13797753Y-11090050D01*
X13812247Y-11090050D01*
X13812247Y-11090050D01*
X13826248Y-11086298D01*
X13838801Y-11079051D01*
X13849051Y-11068802D01*
X13856298Y-11056249D01*
X13860050Y-11042248D01*
X13860050Y-11027753D01*
X13856298Y-11013752D01*
X13856147Y-11013490D01*
X13849051Y-11001199D01*
X13849051Y-11001198D01*
X13838802Y-10990949D01*
X13838801Y-10990949D01*
X13826249Y-10983702D01*
X13826249Y-10983702D01*
X13825101Y-10983394D01*
X13812247Y-10979950D01*
X13797752Y-10979950D01*
X13783751Y-10983702D01*
X13775806Y-10988289D01*
X13769606Y-10989950D01*
X13424069Y-10989950D01*
X13413483Y-10992786D01*
X13413484Y-10992786D01*
X13412611Y-10993020D01*
X13412611Y-10993020D01*
X13402339Y-10998951D01*
X13402338Y-10998951D01*
X13329972Y-11071318D01*
X13323839Y-11074667D01*
X13321203Y-11074950D01*
X13168797Y-11074950D01*
X13162093Y-11072982D01*
X13160028Y-11071318D01*
X13111202Y-11022491D01*
X13111201Y-11022491D01*
X13106065Y-11019526D01*
X13100929Y-11016560D01*
X13099718Y-11016236D01*
X13098507Y-11015911D01*
X13098507Y-11015911D01*
X13094688Y-11014888D01*
X13089471Y-11013490D01*
X13089471Y-11013490D01*
X12987417Y-11013490D01*
X12980713Y-11011522D01*
X12977107Y-11007979D01*
X12970079Y-10997461D01*
X12970078Y-10997460D01*
X12957536Y-10984918D01*
X12957535Y-10984918D01*
X12942787Y-10975063D01*
X12942786Y-10975062D01*
X12926399Y-10968275D01*
X12926398Y-10968274D01*
X12909001Y-10964814D01*
X12909001Y-10964814D01*
X12811263Y-10964814D01*
X12811263Y-10964814D01*
X12793866Y-10968274D01*
X12793865Y-10968275D01*
X12777478Y-10975062D01*
X12777477Y-10975063D01*
X12769839Y-10980166D01*
X12763171Y-10982254D01*
X12756433Y-10980406D01*
X12751764Y-10975208D01*
X12750550Y-10969856D01*
X12750550Y-10885872D01*
X12752518Y-10879168D01*
X12757799Y-10874592D01*
X12764715Y-10873598D01*
X12769839Y-10875562D01*
X12775236Y-10879168D01*
X12777477Y-10880665D01*
X12777477Y-10880665D01*
X12777478Y-10880666D01*
X12789768Y-10885756D01*
X12793865Y-10887453D01*
X12793866Y-10887453D01*
X12793866Y-10887454D01*
X12811262Y-10890914D01*
X12811263Y-10890914D01*
X12811263Y-10890914D01*
X12909001Y-10890914D01*
X12909001Y-10890914D01*
X12919873Y-10888752D01*
X12926398Y-10887454D01*
X12926398Y-10887453D01*
X12926399Y-10887453D01*
X12942787Y-10880665D01*
X12957535Y-10870810D01*
X12970078Y-10858268D01*
X12974262Y-10852007D01*
X12979623Y-10847526D01*
X12986555Y-10846655D01*
X12992858Y-10849671D01*
X12995310Y-10852695D01*
X12995949Y-10853802D01*
X13006198Y-10864051D01*
X13006199Y-10864051D01*
X13006199Y-10864051D01*
X13018751Y-10871298D01*
X13018751Y-10871298D01*
X13018751Y-10871298D01*
X13032752Y-10875050D01*
X13032753Y-10875050D01*
X13047247Y-10875050D01*
X13047247Y-10875050D01*
X13061248Y-10871298D01*
X13073801Y-10864051D01*
X13084051Y-10853802D01*
X13091298Y-10841249D01*
X13095050Y-10827248D01*
X13095050Y-10812753D01*
X13091298Y-10798752D01*
X13090854Y-10797982D01*
X13084051Y-10786199D01*
X13084051Y-10786198D01*
X13073802Y-10775949D01*
X13073801Y-10775949D01*
X13063750Y-10770146D01*
X13058928Y-10765089D01*
X13057550Y-10759407D01*
X13057550Y-10503926D01*
X13059518Y-10497222D01*
X13061182Y-10495158D01*
X13066607Y-10489732D01*
X13085047Y-10471292D01*
X13089991Y-10462730D01*
X13092550Y-10453179D01*
X13092550Y-10443292D01*
X13092550Y-10264423D01*
X13094518Y-10257719D01*
X13096182Y-10255655D01*
X13105103Y-10246734D01*
X13120047Y-10231790D01*
X13124991Y-10223227D01*
X13127550Y-10213677D01*
X13127550Y-10203790D01*
X13127550Y-10024921D01*
X13129518Y-10018217D01*
X13131182Y-10016152D01*
X13165047Y-9982287D01*
X13165047Y-9982287D01*
X13165690Y-9981174D01*
X13169991Y-9973724D01*
X13172550Y-9964174D01*
X13172550Y-9775418D01*
X13174518Y-9768714D01*
X13176182Y-9766650D01*
X13199471Y-9743361D01*
X13225047Y-9717784D01*
X13225047Y-9717784D01*
X13229991Y-9709222D01*
X13231591Y-9703251D01*
X13232550Y-9699672D01*
X13232550Y-9689784D01*
X13232550Y-9625690D01*
X13234518Y-9618986D01*
X13236182Y-9616922D01*
X13304422Y-9548682D01*
X13310554Y-9545333D01*
X13313190Y-9545050D01*
X13317247Y-9545050D01*
X13317247Y-9545050D01*
X13331248Y-9541298D01*
X13343801Y-9534051D01*
X13354051Y-9523802D01*
X13361298Y-9511249D01*
X13365050Y-9497248D01*
X13365050Y-9482753D01*
X13361298Y-9468752D01*
X13356932Y-9461190D01*
X13354051Y-9456199D01*
X13354051Y-9456198D01*
X13343802Y-9445949D01*
X13343801Y-9445949D01*
X13331249Y-9438702D01*
X13331249Y-9438702D01*
X13330101Y-9438394D01*
X13317247Y-9434950D01*
X13302752Y-9434950D01*
X13289899Y-9438394D01*
X13288751Y-9438702D01*
X13276199Y-9445949D01*
X13276198Y-9445949D01*
X13265949Y-9456198D01*
X13265949Y-9456199D01*
X13258702Y-9468751D01*
X13258702Y-9468752D01*
X13254950Y-9482753D01*
X13254950Y-9482753D01*
X13254950Y-9486810D01*
X13252981Y-9493514D01*
X13251318Y-9495578D01*
X13223718Y-9523178D01*
X13217586Y-9526527D01*
X13210617Y-9526028D01*
X13205023Y-9521841D01*
X13202582Y-9515295D01*
X13202550Y-9514410D01*
X13202550Y-9293986D01*
X13204518Y-9287282D01*
X13206182Y-9285218D01*
X13263047Y-9228353D01*
X13263047Y-9228353D01*
X13267991Y-9219790D01*
X13268663Y-9217282D01*
X13269581Y-9213855D01*
X13270066Y-9212048D01*
X13270550Y-9210240D01*
X13270550Y-9200353D01*
X13270550Y-9188946D01*
X13272518Y-9182242D01*
X13277799Y-9177666D01*
X13284715Y-9176672D01*
X13291070Y-9179574D01*
X13291718Y-9180177D01*
X13733818Y-9622277D01*
X13737167Y-9628410D01*
X13737450Y-9631046D01*
X13737450Y-10094593D01*
X13740179Y-10104779D01*
X13741771Y-10107536D01*
X13745452Y-10113911D01*
X14573589Y-10942048D01*
X14582721Y-10947321D01*
X14592907Y-10950050D01*
X14603453Y-10950050D01*
X14679511Y-10950050D01*
X14686215Y-10952019D01*
X14688279Y-10953682D01*
X14688648Y-10954051D01*
X14688649Y-10954051D01*
X14688649Y-10954051D01*
X14701201Y-10961298D01*
X14701201Y-10961298D01*
X14701201Y-10961298D01*
X14715202Y-10965050D01*
X14715203Y-10965050D01*
X14729697Y-10965050D01*
X14729697Y-10965050D01*
X14743698Y-10961298D01*
X14756251Y-10954051D01*
X14766501Y-10943802D01*
X14773748Y-10931249D01*
X14777500Y-10917248D01*
X14777500Y-10902753D01*
X14773748Y-10888752D01*
X14773156Y-10887725D01*
X14766501Y-10876199D01*
X14766501Y-10876198D01*
X14756252Y-10865949D01*
X14756251Y-10865949D01*
X14743699Y-10858702D01*
X14743699Y-10858702D01*
X14742551Y-10858394D01*
X14729697Y-10854950D01*
X14715202Y-10854950D01*
X14702349Y-10858394D01*
X14701201Y-10858702D01*
X14688650Y-10865948D01*
X14681860Y-10867596D01*
X14675257Y-10865310D01*
X14670938Y-10859818D01*
X14670050Y-10855210D01*
X14670050Y-10847753D01*
X14670050Y-10847753D01*
X14666298Y-10833752D01*
X14664001Y-10829773D01*
X14659051Y-10821199D01*
X14659051Y-10821198D01*
X14648802Y-10810949D01*
X14648801Y-10810949D01*
X14636249Y-10803702D01*
X14636249Y-10803702D01*
X14635101Y-10803394D01*
X14622247Y-10799950D01*
X14622247Y-10799950D01*
X14613545Y-10799950D01*
X14606842Y-10797982D01*
X14604777Y-10796318D01*
X13866182Y-10057723D01*
X13862833Y-10051590D01*
X13862550Y-10048955D01*
X13862550Y-9972753D01*
X13904950Y-9972753D01*
X13904950Y-9987248D01*
X13908001Y-9998633D01*
X13908702Y-10001249D01*
X13915949Y-10013801D01*
X13915949Y-10013801D01*
X13915949Y-10013802D01*
X13926198Y-10024051D01*
X13926199Y-10024051D01*
X13926199Y-10024051D01*
X13938751Y-10031298D01*
X13938751Y-10031298D01*
X13938751Y-10031298D01*
X13952752Y-10035050D01*
X13952753Y-10035050D01*
X13967247Y-10035050D01*
X13967247Y-10035050D01*
X13981248Y-10031298D01*
X13993801Y-10024051D01*
X14004051Y-10013802D01*
X14011298Y-10001249D01*
X14015050Y-9987248D01*
X14015050Y-9972753D01*
X14064950Y-9972753D01*
X14064950Y-9987248D01*
X14068001Y-9998633D01*
X14068702Y-10001249D01*
X14075949Y-10013801D01*
X14075949Y-10013801D01*
X14075949Y-10013802D01*
X14086198Y-10024051D01*
X14086199Y-10024051D01*
X14086199Y-10024051D01*
X14098751Y-10031298D01*
X14098751Y-10031298D01*
X14098751Y-10031298D01*
X14112752Y-10035050D01*
X14112753Y-10035050D01*
X14127247Y-10035050D01*
X14127247Y-10035050D01*
X14141248Y-10031298D01*
X14153801Y-10024051D01*
X14164051Y-10013802D01*
X14169261Y-10004777D01*
X14174318Y-9999955D01*
X14181179Y-9998633D01*
X14187665Y-10001230D01*
X14190739Y-10004777D01*
X14195949Y-10013802D01*
X14206198Y-10024051D01*
X14206199Y-10024051D01*
X14206199Y-10024051D01*
X14218751Y-10031298D01*
X14218751Y-10031298D01*
X14218751Y-10031298D01*
X14232752Y-10035050D01*
X14232753Y-10035050D01*
X14247247Y-10035050D01*
X14247247Y-10035050D01*
X14261248Y-10031298D01*
X14273801Y-10024051D01*
X14284051Y-10013802D01*
X14291298Y-10001249D01*
X14295050Y-9987248D01*
X14295050Y-9972753D01*
X14291298Y-9958752D01*
X14288771Y-9954374D01*
X14284051Y-9946199D01*
X14284051Y-9946198D01*
X14273802Y-9935949D01*
X14273801Y-9935949D01*
X14261249Y-9928702D01*
X14261249Y-9928702D01*
X14260101Y-9928394D01*
X14247247Y-9924950D01*
X14232752Y-9924950D01*
X14219899Y-9928394D01*
X14218751Y-9928702D01*
X14206199Y-9935949D01*
X14206198Y-9935949D01*
X14195949Y-9946198D01*
X14195949Y-9946199D01*
X14190739Y-9955223D01*
X14185682Y-9960045D01*
X14178821Y-9961367D01*
X14172335Y-9958770D01*
X14169261Y-9955223D01*
X14167716Y-9952546D01*
X14164051Y-9946199D01*
X14153801Y-9935949D01*
X14153801Y-9935949D01*
X14153801Y-9935949D01*
X14141249Y-9928702D01*
X14141249Y-9928702D01*
X14140101Y-9928394D01*
X14127247Y-9924950D01*
X14112752Y-9924950D01*
X14099899Y-9928394D01*
X14098751Y-9928702D01*
X14086199Y-9935949D01*
X14086198Y-9935949D01*
X14075949Y-9946198D01*
X14075949Y-9946199D01*
X14068702Y-9958751D01*
X14068702Y-9958752D01*
X14064950Y-9972753D01*
X14015050Y-9972753D01*
X14011298Y-9958752D01*
X14008771Y-9954374D01*
X14004051Y-9946199D01*
X14004051Y-9946198D01*
X13993802Y-9935949D01*
X13993801Y-9935949D01*
X13981249Y-9928702D01*
X13981249Y-9928702D01*
X13980101Y-9928394D01*
X13967247Y-9924950D01*
X13952752Y-9924950D01*
X13939899Y-9928394D01*
X13938751Y-9928702D01*
X13926199Y-9935949D01*
X13926198Y-9935949D01*
X13915949Y-9946198D01*
X13915949Y-9946199D01*
X13908702Y-9958751D01*
X13908702Y-9958752D01*
X13904950Y-9972753D01*
X13862550Y-9972753D01*
X13862550Y-9832753D01*
X13904950Y-9832753D01*
X13904950Y-9847248D01*
X13907997Y-9858619D01*
X13908702Y-9861249D01*
X13915949Y-9873801D01*
X13915949Y-9873801D01*
X13915949Y-9873802D01*
X13926198Y-9884051D01*
X13926199Y-9884051D01*
X13926199Y-9884051D01*
X13938751Y-9891298D01*
X13938751Y-9891298D01*
X13938751Y-9891298D01*
X13952752Y-9895050D01*
X13952753Y-9895050D01*
X13967247Y-9895050D01*
X13967247Y-9895050D01*
X13981248Y-9891298D01*
X13993801Y-9884051D01*
X14004051Y-9873802D01*
X14011298Y-9861249D01*
X14015050Y-9847248D01*
X14015050Y-9832753D01*
X14064950Y-9832753D01*
X14064950Y-9847248D01*
X14067997Y-9858619D01*
X14068702Y-9861249D01*
X14075949Y-9873801D01*
X14075949Y-9873801D01*
X14075949Y-9873802D01*
X14086198Y-9884051D01*
X14086199Y-9884051D01*
X14086199Y-9884051D01*
X14098751Y-9891298D01*
X14098751Y-9891298D01*
X14098751Y-9891298D01*
X14112752Y-9895050D01*
X14112753Y-9895050D01*
X14127247Y-9895050D01*
X14127247Y-9895050D01*
X14141248Y-9891298D01*
X14153801Y-9884051D01*
X14164051Y-9873802D01*
X14169169Y-9864937D01*
X14169261Y-9864777D01*
X14174318Y-9859955D01*
X14181179Y-9858633D01*
X14187665Y-9861230D01*
X14190739Y-9864777D01*
X14190831Y-9864937D01*
X14195949Y-9873802D01*
X14206198Y-9884051D01*
X14206199Y-9884051D01*
X14206199Y-9884051D01*
X14218751Y-9891298D01*
X14218751Y-9891298D01*
X14218751Y-9891298D01*
X14232752Y-9895050D01*
X14232753Y-9895050D01*
X14247247Y-9895050D01*
X14247247Y-9895050D01*
X14261248Y-9891298D01*
X14273801Y-9884051D01*
X14284051Y-9873802D01*
X14291298Y-9861249D01*
X14295050Y-9847248D01*
X14295050Y-9832753D01*
X14291298Y-9818752D01*
X14284051Y-9806199D01*
X14276620Y-9798768D01*
X14273272Y-9792636D01*
X14273770Y-9785667D01*
X14276620Y-9781232D01*
X14284051Y-9773802D01*
X14291298Y-9761249D01*
X14295050Y-9747248D01*
X14295050Y-9732753D01*
X14291298Y-9718752D01*
X14290740Y-9717784D01*
X14284051Y-9706199D01*
X14284051Y-9706198D01*
X14273802Y-9695949D01*
X14273801Y-9695949D01*
X14261249Y-9688702D01*
X14261249Y-9688702D01*
X14260101Y-9688394D01*
X14247247Y-9684950D01*
X14232752Y-9684950D01*
X14219899Y-9688394D01*
X14218751Y-9688702D01*
X14206199Y-9695949D01*
X14206198Y-9695949D01*
X14195949Y-9706198D01*
X14195949Y-9706199D01*
X14188702Y-9718751D01*
X14188702Y-9718752D01*
X14184950Y-9732753D01*
X14184950Y-9747248D01*
X14188702Y-9761249D01*
X14188702Y-9761249D01*
X14195949Y-9773801D01*
X14195949Y-9773802D01*
X14203379Y-9781232D01*
X14206728Y-9787364D01*
X14206230Y-9794333D01*
X14204445Y-9797553D01*
X14203952Y-9798195D01*
X14195949Y-9806199D01*
X14190331Y-9815929D01*
X14189834Y-9816576D01*
X14187644Y-9818174D01*
X14185682Y-9820045D01*
X14184863Y-9820202D01*
X14184189Y-9820694D01*
X14181483Y-9820854D01*
X14178821Y-9821367D01*
X14178047Y-9821057D01*
X14177214Y-9821106D01*
X14174851Y-9819777D01*
X14172335Y-9818770D01*
X14171646Y-9817976D01*
X14171124Y-9817682D01*
X14170702Y-9816886D01*
X14169261Y-9815223D01*
X14168093Y-9813200D01*
X14164051Y-9806199D01*
X14153801Y-9795949D01*
X14153801Y-9795949D01*
X14153801Y-9795949D01*
X14141249Y-9788702D01*
X14141249Y-9788702D01*
X14140101Y-9788394D01*
X14127247Y-9784950D01*
X14112752Y-9784950D01*
X14099899Y-9788394D01*
X14098751Y-9788702D01*
X14086199Y-9795949D01*
X14086198Y-9795949D01*
X14075949Y-9806198D01*
X14075949Y-9806199D01*
X14068702Y-9818751D01*
X14068702Y-9818752D01*
X14064950Y-9832753D01*
X14015050Y-9832753D01*
X14011298Y-9818752D01*
X14004051Y-9806199D01*
X13993801Y-9795949D01*
X13993801Y-9795949D01*
X13993801Y-9795949D01*
X13981249Y-9788702D01*
X13981249Y-9788702D01*
X13980101Y-9788394D01*
X13967247Y-9784950D01*
X13952752Y-9784950D01*
X13939899Y-9788394D01*
X13938751Y-9788702D01*
X13926199Y-9795949D01*
X13926198Y-9795949D01*
X13915949Y-9806198D01*
X13915949Y-9806199D01*
X13908702Y-9818751D01*
X13908702Y-9818752D01*
X13904950Y-9832753D01*
X13862550Y-9832753D01*
X13862550Y-9585408D01*
X13862550Y-9585407D01*
X13859821Y-9575221D01*
X13854548Y-9566089D01*
X13847091Y-9558632D01*
X13396182Y-9107723D01*
X13392833Y-9101590D01*
X13392550Y-9098955D01*
X13392550Y-8916263D01*
X13394519Y-8909559D01*
X13398750Y-8905524D01*
X13401301Y-8904051D01*
X13411551Y-8893802D01*
X13418798Y-8881249D01*
X13421075Y-8872753D01*
X13544950Y-8872753D01*
X13544950Y-8887248D01*
X13548702Y-8901249D01*
X13548702Y-8901249D01*
X13555949Y-8913801D01*
X13555949Y-8913801D01*
X13555949Y-8913802D01*
X13566198Y-8924051D01*
X13566199Y-8924051D01*
X13566199Y-8924051D01*
X13578751Y-8931298D01*
X13578751Y-8931298D01*
X13578751Y-8931298D01*
X13592752Y-8935050D01*
X13592753Y-8935050D01*
X13607247Y-8935050D01*
X13607247Y-8935050D01*
X13621248Y-8931298D01*
X13633801Y-8924051D01*
X13636670Y-8921182D01*
X13642803Y-8917833D01*
X13645439Y-8917550D01*
X13734561Y-8917550D01*
X13741265Y-8919519D01*
X13743329Y-8921182D01*
X13746198Y-8924051D01*
X13746199Y-8924051D01*
X13746199Y-8924051D01*
X13758751Y-8931298D01*
X13758751Y-8931298D01*
X13758751Y-8931298D01*
X13772752Y-8935050D01*
X13772753Y-8935050D01*
X13787247Y-8935050D01*
X13787247Y-8935050D01*
X13801248Y-8931298D01*
X13813801Y-8924051D01*
X13824051Y-8913802D01*
X13831298Y-8901249D01*
X13835050Y-8887248D01*
X13835050Y-8872753D01*
X13831298Y-8858752D01*
X13829362Y-8855398D01*
X13824051Y-8846199D01*
X13824051Y-8846198D01*
X13813802Y-8835949D01*
X13813801Y-8835949D01*
X13801249Y-8828702D01*
X13801249Y-8828702D01*
X13800101Y-8828394D01*
X13787247Y-8824950D01*
X13772752Y-8824950D01*
X13759899Y-8828394D01*
X13758751Y-8828702D01*
X13746199Y-8835949D01*
X13746198Y-8835949D01*
X13743329Y-8838818D01*
X13737197Y-8842167D01*
X13734561Y-8842450D01*
X13645439Y-8842450D01*
X13638735Y-8840482D01*
X13636670Y-8838818D01*
X13633802Y-8835949D01*
X13633801Y-8835949D01*
X13621249Y-8828702D01*
X13621249Y-8828702D01*
X13620101Y-8828394D01*
X13607247Y-8824950D01*
X13592752Y-8824950D01*
X13579899Y-8828394D01*
X13578751Y-8828702D01*
X13566199Y-8835949D01*
X13566198Y-8835949D01*
X13555949Y-8846198D01*
X13555949Y-8846199D01*
X13548702Y-8858751D01*
X13548702Y-8858752D01*
X13544950Y-8872753D01*
X13421075Y-8872753D01*
X13422550Y-8867248D01*
X13422550Y-8852753D01*
X13418798Y-8838752D01*
X13417180Y-8835949D01*
X13411551Y-8826199D01*
X13411551Y-8826198D01*
X13401302Y-8815949D01*
X13401301Y-8815949D01*
X13388749Y-8808702D01*
X13388749Y-8808702D01*
X13387601Y-8808394D01*
X13374747Y-8804950D01*
X13360252Y-8804950D01*
X13347399Y-8808394D01*
X13346251Y-8808702D01*
X13336200Y-8814505D01*
X13329410Y-8816152D01*
X13323800Y-8814505D01*
X13313749Y-8808702D01*
X13313749Y-8808702D01*
X13310357Y-8807793D01*
X13302903Y-8805796D01*
X13296938Y-8802159D01*
X13293885Y-8795874D01*
X13294714Y-8788937D01*
X13297344Y-8785051D01*
X13320047Y-8762348D01*
X13324991Y-8753785D01*
X13327550Y-8744235D01*
X13327550Y-8734348D01*
X13327550Y-8555479D01*
X13329518Y-8548775D01*
X13331182Y-8546710D01*
X13345047Y-8532845D01*
X13345047Y-8532845D01*
X13349991Y-8524282D01*
X13350663Y-8521774D01*
X13351581Y-8518347D01*
X13352066Y-8516540D01*
X13352550Y-8514732D01*
X13352550Y-8504845D01*
X13352550Y-8392753D01*
X13464950Y-8392753D01*
X13464950Y-8407248D01*
X13468702Y-8421249D01*
X13468702Y-8421249D01*
X13475949Y-8433801D01*
X13475949Y-8433801D01*
X13475949Y-8433802D01*
X13486198Y-8444051D01*
X13486199Y-8444051D01*
X13486199Y-8444051D01*
X13498751Y-8451298D01*
X13498751Y-8451298D01*
X13498751Y-8451298D01*
X13512752Y-8455050D01*
X13512753Y-8455050D01*
X13527247Y-8455050D01*
X13527247Y-8455050D01*
X13541248Y-8451298D01*
X13553801Y-8444051D01*
X13564051Y-8433802D01*
X13571298Y-8421249D01*
X13575050Y-8407248D01*
X13575050Y-8402753D01*
X13824950Y-8402753D01*
X13824950Y-8417248D01*
X13828467Y-8430374D01*
X13828702Y-8431249D01*
X13835949Y-8443801D01*
X13835949Y-8443801D01*
X13835949Y-8443802D01*
X13846198Y-8454051D01*
X13846199Y-8454051D01*
X13846199Y-8454051D01*
X13858751Y-8461298D01*
X13858751Y-8461298D01*
X13858751Y-8461298D01*
X13872752Y-8465050D01*
X13872753Y-8465050D01*
X13887247Y-8465050D01*
X13887247Y-8465050D01*
X13901248Y-8461298D01*
X13913801Y-8454051D01*
X13924051Y-8443802D01*
X13931298Y-8431249D01*
X13935050Y-8417248D01*
X13935050Y-8402753D01*
X13931298Y-8388752D01*
X13925894Y-8379390D01*
X13924051Y-8376199D01*
X13924051Y-8376198D01*
X13913802Y-8365949D01*
X13913801Y-8365949D01*
X13901249Y-8358702D01*
X13901249Y-8358702D01*
X13900101Y-8358394D01*
X13887247Y-8354950D01*
X13872752Y-8354950D01*
X13859899Y-8358394D01*
X13858751Y-8358702D01*
X13846199Y-8365949D01*
X13846198Y-8365949D01*
X13835949Y-8376198D01*
X13835949Y-8376199D01*
X13828702Y-8388751D01*
X13828702Y-8388752D01*
X13824950Y-8402753D01*
X13575050Y-8402753D01*
X13575050Y-8392753D01*
X13571298Y-8378751D01*
X13569824Y-8376198D01*
X13564051Y-8366199D01*
X13564051Y-8366198D01*
X13553802Y-8355949D01*
X13553801Y-8355949D01*
X13541249Y-8348702D01*
X13541249Y-8348702D01*
X13540101Y-8348394D01*
X13527247Y-8344950D01*
X13512752Y-8344950D01*
X13499899Y-8348394D01*
X13498751Y-8348702D01*
X13486199Y-8355949D01*
X13486198Y-8355949D01*
X13475949Y-8366198D01*
X13475949Y-8366199D01*
X13468702Y-8378751D01*
X13468702Y-8378751D01*
X13464950Y-8392753D01*
X13352550Y-8392753D01*
X13352550Y-8332674D01*
X13354518Y-8325970D01*
X13356182Y-8323906D01*
X13406406Y-8273682D01*
X13412538Y-8270333D01*
X13415174Y-8270050D01*
X13574679Y-8270050D01*
X13574679Y-8270050D01*
X13579454Y-8268770D01*
X13584230Y-8267491D01*
X13591058Y-8263549D01*
X13592792Y-8262547D01*
X13592793Y-8262547D01*
X13602587Y-8252752D01*
X13774950Y-8252752D01*
X13774950Y-8267247D01*
X13778702Y-8281248D01*
X13778702Y-8281249D01*
X13785949Y-8293801D01*
X13785949Y-8293801D01*
X13785949Y-8293801D01*
X13796198Y-8304051D01*
X13796199Y-8304051D01*
X13796199Y-8304051D01*
X13808751Y-8311298D01*
X13808751Y-8311298D01*
X13808751Y-8311298D01*
X13822752Y-8315050D01*
X13822753Y-8315050D01*
X13837247Y-8315050D01*
X13837247Y-8315050D01*
X13851248Y-8311298D01*
X13863801Y-8304051D01*
X13874051Y-8293801D01*
X13881298Y-8281248D01*
X13885050Y-8267247D01*
X13885050Y-8252752D01*
X13881298Y-8238751D01*
X13874051Y-8226198D01*
X13863801Y-8215949D01*
X13863801Y-8215949D01*
X13863801Y-8215949D01*
X13851249Y-8208702D01*
X13851249Y-8208702D01*
X13850101Y-8208394D01*
X13837247Y-8204950D01*
X13822752Y-8204950D01*
X13809899Y-8208394D01*
X13808751Y-8208702D01*
X13796199Y-8215949D01*
X13796198Y-8215949D01*
X13785949Y-8226198D01*
X13785949Y-8226199D01*
X13778702Y-8238751D01*
X13778702Y-8238751D01*
X13774950Y-8252752D01*
X13602587Y-8252752D01*
X13612168Y-8243172D01*
X13686658Y-8168682D01*
X13692790Y-8165333D01*
X13695426Y-8165050D01*
X13991690Y-8165050D01*
X13991690Y-8165050D01*
X13995507Y-8164027D01*
X13996530Y-8163753D01*
X13998606Y-8163197D01*
X14001240Y-8162491D01*
X14009802Y-8157547D01*
X14016794Y-8150556D01*
X14151293Y-8016057D01*
X14157425Y-8012709D01*
X14164394Y-8013207D01*
X14166261Y-8014087D01*
X14178751Y-8021298D01*
X14178751Y-8021298D01*
X14178751Y-8021298D01*
X14192752Y-8025050D01*
X14192753Y-8025050D01*
X14207247Y-8025050D01*
X14207247Y-8025050D01*
X14221248Y-8021298D01*
X14233801Y-8014051D01*
X14244051Y-8003801D01*
X14251298Y-7991248D01*
X14253023Y-7984814D01*
X14256659Y-7978848D01*
X14262944Y-7975795D01*
X14269881Y-7976624D01*
G37*
%TD.AperFunction*%
%TA.AperFunction,Conductor*%
G36*
X15250754Y-5907154D02*
G01*
X15255329Y-5912435D01*
X15256450Y-5917586D01*
X15256450Y-6144374D01*
X15254481Y-6151078D01*
X15249201Y-6155653D01*
X15242285Y-6156648D01*
X15237161Y-6154684D01*
X15229156Y-6149335D01*
X15229154Y-6149334D01*
X15212767Y-6142547D01*
X15212766Y-6142546D01*
X15195369Y-6139086D01*
X15195369Y-6139086D01*
X15097631Y-6139086D01*
X15097631Y-6139086D01*
X15080234Y-6142546D01*
X15080233Y-6142547D01*
X15063846Y-6149334D01*
X15063845Y-6149335D01*
X15049096Y-6159189D01*
X15049096Y-6159190D01*
X15036554Y-6171732D01*
X15036553Y-6171732D01*
X15026699Y-6186481D01*
X15026698Y-6186482D01*
X15022930Y-6195579D01*
X15018546Y-6201020D01*
X15011917Y-6203226D01*
X15005147Y-6201498D01*
X15002706Y-6199602D01*
X14923056Y-6119953D01*
X14923056Y-6119952D01*
X14914494Y-6115009D01*
X14909719Y-6113729D01*
X14909718Y-6113729D01*
X14909718Y-6113729D01*
X14904944Y-6112450D01*
X14904943Y-6112450D01*
X14785439Y-6112450D01*
X14778735Y-6110481D01*
X14776670Y-6108818D01*
X14773802Y-6105949D01*
X14773801Y-6105949D01*
X14761249Y-6098702D01*
X14761249Y-6098702D01*
X14760101Y-6098394D01*
X14747247Y-6094950D01*
X14732752Y-6094950D01*
X14719899Y-6098394D01*
X14718751Y-6098702D01*
X14706199Y-6105949D01*
X14706198Y-6105949D01*
X14695949Y-6116198D01*
X14695949Y-6116199D01*
X14688702Y-6128751D01*
X14688702Y-6128751D01*
X14684950Y-6142752D01*
X14684950Y-6157247D01*
X14688702Y-6171248D01*
X14688702Y-6171249D01*
X14695949Y-6183801D01*
X14695949Y-6183801D01*
X14695949Y-6183801D01*
X14706198Y-6194051D01*
X14713200Y-6198093D01*
X14715223Y-6199261D01*
X14720045Y-6204318D01*
X14721367Y-6211179D01*
X14718770Y-6217665D01*
X14715223Y-6220739D01*
X14706198Y-6225949D01*
X14706198Y-6225949D01*
X14695949Y-6236198D01*
X14695949Y-6236199D01*
X14688702Y-6248751D01*
X14688702Y-6248751D01*
X14684950Y-6262752D01*
X14684950Y-6277247D01*
X14687440Y-6286540D01*
X14688702Y-6291249D01*
X14695949Y-6303801D01*
X14695949Y-6303801D01*
X14695949Y-6303801D01*
X14706198Y-6314051D01*
X14706199Y-6314051D01*
X14706199Y-6314051D01*
X14718751Y-6321298D01*
X14718751Y-6321298D01*
X14718751Y-6321298D01*
X14732752Y-6325050D01*
X14732753Y-6325050D01*
X14747247Y-6325050D01*
X14747247Y-6325050D01*
X14761248Y-6321298D01*
X14773801Y-6314051D01*
X14776670Y-6311182D01*
X14782803Y-6307833D01*
X14785439Y-6307550D01*
X14859310Y-6307550D01*
X14866014Y-6309518D01*
X14868078Y-6311182D01*
X14938818Y-6381922D01*
X14942167Y-6388054D01*
X14942450Y-6390690D01*
X14942450Y-6833255D01*
X14945009Y-6842806D01*
X14945009Y-6842806D01*
X14945009Y-6842806D01*
X14945947Y-6844430D01*
X14949094Y-6849881D01*
X14949953Y-6851368D01*
X15027661Y-6929076D01*
X15031009Y-6935209D01*
X15030511Y-6942178D01*
X15029203Y-6944733D01*
X15026699Y-6948481D01*
X15026698Y-6948482D01*
X15019911Y-6964869D01*
X15019910Y-6964870D01*
X15019138Y-6968755D01*
X15015899Y-6974946D01*
X15009827Y-6978404D01*
X15002850Y-6978030D01*
X14998208Y-6975104D01*
X14797104Y-6774001D01*
X14793895Y-6768442D01*
X14791298Y-6758751D01*
X14784051Y-6746198D01*
X14773801Y-6735949D01*
X14773801Y-6735949D01*
X14773801Y-6735949D01*
X14761249Y-6728702D01*
X14761249Y-6728702D01*
X14759624Y-6728266D01*
X14747247Y-6724950D01*
X14732752Y-6724950D01*
X14720376Y-6728266D01*
X14718751Y-6728702D01*
X14706199Y-6735949D01*
X14706198Y-6735949D01*
X14695949Y-6746198D01*
X14695949Y-6746199D01*
X14688702Y-6758751D01*
X14688702Y-6758751D01*
X14684950Y-6772752D01*
X14684950Y-6787247D01*
X14688702Y-6801248D01*
X14688702Y-6801249D01*
X14695949Y-6813801D01*
X14695949Y-6813801D01*
X14695949Y-6813801D01*
X14706198Y-6824051D01*
X14706199Y-6824051D01*
X14706199Y-6824051D01*
X14718751Y-6831298D01*
X14718751Y-6831298D01*
X14718751Y-6831298D01*
X14725186Y-6833022D01*
X14731152Y-6836659D01*
X14734205Y-6842944D01*
X14733375Y-6849881D01*
X14728927Y-6855269D01*
X14725186Y-6856977D01*
X14722485Y-6857701D01*
X14718751Y-6858702D01*
X14706199Y-6865949D01*
X14706198Y-6865949D01*
X14695949Y-6876198D01*
X14695949Y-6876199D01*
X14688702Y-6888751D01*
X14688702Y-6888751D01*
X14684950Y-6902752D01*
X14684950Y-6917247D01*
X14687851Y-6928074D01*
X14688702Y-6931249D01*
X14695949Y-6943801D01*
X14695949Y-6943801D01*
X14695949Y-6943801D01*
X14706198Y-6954051D01*
X14706199Y-6954051D01*
X14706199Y-6954051D01*
X14718751Y-6961298D01*
X14718751Y-6961298D01*
X14718751Y-6961298D01*
X14725186Y-6963022D01*
X14731152Y-6966659D01*
X14734205Y-6972944D01*
X14733375Y-6979881D01*
X14728927Y-6985269D01*
X14725186Y-6986977D01*
X14719752Y-6988434D01*
X14718751Y-6988702D01*
X14706199Y-6995949D01*
X14706198Y-6995949D01*
X14695949Y-7006198D01*
X14695949Y-7006199D01*
X14688702Y-7018751D01*
X14688702Y-7018751D01*
X14684950Y-7032752D01*
X14684950Y-7047247D01*
X14688243Y-7059536D01*
X14688702Y-7061249D01*
X14695949Y-7073801D01*
X14695949Y-7073801D01*
X14695949Y-7073801D01*
X14706198Y-7084051D01*
X14713200Y-7088093D01*
X14715223Y-7089261D01*
X14720045Y-7094318D01*
X14721367Y-7101179D01*
X14718770Y-7107665D01*
X14715223Y-7110739D01*
X14706198Y-7115949D01*
X14706198Y-7115949D01*
X14695949Y-7126198D01*
X14695949Y-7126199D01*
X14688702Y-7138751D01*
X14688702Y-7138751D01*
X14684950Y-7152752D01*
X14684950Y-7167247D01*
X14688702Y-7181248D01*
X14688702Y-7181249D01*
X14695949Y-7193801D01*
X14695949Y-7193801D01*
X14695949Y-7193801D01*
X14706198Y-7204051D01*
X14706199Y-7204051D01*
X14706199Y-7204051D01*
X14718751Y-7211298D01*
X14718751Y-7211298D01*
X14718751Y-7211298D01*
X14725186Y-7213022D01*
X14731152Y-7216659D01*
X14734205Y-7222944D01*
X14733375Y-7229881D01*
X14728927Y-7235269D01*
X14725186Y-7236977D01*
X14719752Y-7238434D01*
X14718751Y-7238702D01*
X14706199Y-7245949D01*
X14706198Y-7245949D01*
X14695949Y-7256198D01*
X14695949Y-7256199D01*
X14688702Y-7268751D01*
X14688702Y-7268751D01*
X14684950Y-7282752D01*
X14684950Y-7297247D01*
X14688702Y-7311248D01*
X14688702Y-7311249D01*
X14695949Y-7323801D01*
X14695949Y-7323801D01*
X14695949Y-7323801D01*
X14706198Y-7334051D01*
X14706199Y-7334051D01*
X14706199Y-7334051D01*
X14718751Y-7341298D01*
X14718751Y-7341298D01*
X14718751Y-7341298D01*
X14725186Y-7343022D01*
X14731152Y-7346659D01*
X14734205Y-7352944D01*
X14733375Y-7359881D01*
X14728927Y-7365269D01*
X14725186Y-7366977D01*
X14719752Y-7368434D01*
X14718751Y-7368702D01*
X14706199Y-7375949D01*
X14706198Y-7375949D01*
X14695949Y-7386198D01*
X14695949Y-7386199D01*
X14688702Y-7398751D01*
X14688702Y-7398751D01*
X14684950Y-7412752D01*
X14684950Y-7427247D01*
X14688044Y-7438795D01*
X14688702Y-7441249D01*
X14695949Y-7453801D01*
X14695949Y-7453801D01*
X14695949Y-7453801D01*
X14706198Y-7464051D01*
X14706199Y-7464051D01*
X14706199Y-7464051D01*
X14718751Y-7471298D01*
X14718751Y-7471298D01*
X14718751Y-7471298D01*
X14730186Y-7474362D01*
X14736152Y-7477999D01*
X14739205Y-7484283D01*
X14738375Y-7491221D01*
X14733927Y-7496609D01*
X14730186Y-7498317D01*
X14729558Y-7498485D01*
X14728751Y-7498702D01*
X14728751Y-7498702D01*
X14728751Y-7498702D01*
X14728751Y-7498702D01*
X14716199Y-7505949D01*
X14716198Y-7505949D01*
X14705949Y-7516198D01*
X14705949Y-7516199D01*
X14698702Y-7528751D01*
X14698702Y-7528751D01*
X14694950Y-7542752D01*
X14694950Y-7557247D01*
X14697176Y-7565554D01*
X14698702Y-7571249D01*
X14705949Y-7583801D01*
X14705949Y-7583801D01*
X14705949Y-7583801D01*
X14716198Y-7594051D01*
X14721756Y-7597259D01*
X14725223Y-7599261D01*
X14730045Y-7604318D01*
X14731367Y-7611179D01*
X14728770Y-7617665D01*
X14725223Y-7620739D01*
X14716198Y-7625949D01*
X14716198Y-7625949D01*
X14705949Y-7636198D01*
X14705949Y-7636199D01*
X14698702Y-7648751D01*
X14698702Y-7648751D01*
X14694950Y-7662752D01*
X14694950Y-7677247D01*
X14698702Y-7691248D01*
X14698702Y-7691249D01*
X14705949Y-7703801D01*
X14705949Y-7703801D01*
X14705949Y-7703801D01*
X14716198Y-7714051D01*
X14716199Y-7714051D01*
X14716199Y-7714051D01*
X14728751Y-7721298D01*
X14728751Y-7721298D01*
X14728751Y-7721298D01*
X14742752Y-7725050D01*
X14746810Y-7725050D01*
X14753514Y-7727018D01*
X14755578Y-7728682D01*
X14802818Y-7775922D01*
X14806167Y-7782054D01*
X14806450Y-7784690D01*
X14806450Y-7960743D01*
X14807419Y-7964358D01*
X14809009Y-7970293D01*
X14809009Y-7970293D01*
X14809964Y-7971946D01*
X14813952Y-7978855D01*
X14813953Y-7978855D01*
X14813953Y-7978855D01*
X14828818Y-7993721D01*
X14832167Y-7999853D01*
X14832450Y-8002489D01*
X14832450Y-8019410D01*
X14830481Y-8026114D01*
X14825201Y-8030689D01*
X14818285Y-8031684D01*
X14811930Y-8028781D01*
X14811282Y-8028178D01*
X14768682Y-7985578D01*
X14765333Y-7979446D01*
X14765050Y-7976810D01*
X14765050Y-7972753D01*
X14765050Y-7972752D01*
X14761298Y-7958751D01*
X14761204Y-7958588D01*
X14754051Y-7946199D01*
X14754051Y-7946198D01*
X14743802Y-7935949D01*
X14743801Y-7935949D01*
X14731249Y-7928702D01*
X14731249Y-7928702D01*
X14730101Y-7928394D01*
X14717247Y-7924950D01*
X14702752Y-7924950D01*
X14689899Y-7928394D01*
X14688751Y-7928702D01*
X14676199Y-7935949D01*
X14676198Y-7935949D01*
X14665949Y-7946198D01*
X14665949Y-7946199D01*
X14658702Y-7958751D01*
X14658701Y-7958752D01*
X14658587Y-7959180D01*
X14658391Y-7959500D01*
X14658391Y-7959502D01*
X14658390Y-7959502D01*
X14654950Y-7965146D01*
X14648665Y-7968198D01*
X14641727Y-7967368D01*
X14637841Y-7964738D01*
X14631692Y-7958588D01*
X14629721Y-7956020D01*
X14624051Y-7946199D01*
X14624051Y-7946198D01*
X14613802Y-7935949D01*
X14613801Y-7935949D01*
X14601249Y-7928702D01*
X14601249Y-7928702D01*
X14600101Y-7928394D01*
X14587247Y-7924950D01*
X14572752Y-7924950D01*
X14559899Y-7928394D01*
X14558751Y-7928702D01*
X14546199Y-7935949D01*
X14546198Y-7935949D01*
X14535949Y-7946198D01*
X14535949Y-7946199D01*
X14534275Y-7949097D01*
X14529219Y-7953919D01*
X14522358Y-7955241D01*
X14517638Y-7953804D01*
X14516048Y-7952944D01*
X14513056Y-7949953D01*
X14513056Y-7949952D01*
X14504494Y-7945009D01*
X14499719Y-7943729D01*
X14498311Y-7943352D01*
X14498311Y-7943352D01*
X14494944Y-7942450D01*
X14494138Y-7942344D01*
X14494173Y-7942078D01*
X14488735Y-7940481D01*
X14486670Y-7938818D01*
X14483802Y-7935949D01*
X14483801Y-7935949D01*
X14471249Y-7928702D01*
X14471249Y-7928702D01*
X14470101Y-7928394D01*
X14457247Y-7924950D01*
X14442752Y-7924950D01*
X14429899Y-7928394D01*
X14428751Y-7928702D01*
X14416199Y-7935949D01*
X14416198Y-7935949D01*
X14409271Y-7942877D01*
X14403138Y-7946225D01*
X14396169Y-7945727D01*
X14391734Y-7942877D01*
X14388810Y-7939953D01*
X14388810Y-7939952D01*
X14382307Y-7936198D01*
X14380248Y-7935009D01*
X14380248Y-7935009D01*
X14380247Y-7935009D01*
X14374105Y-7933363D01*
X14374104Y-7933363D01*
X14373366Y-7933165D01*
X14373362Y-7933162D01*
X14367808Y-7929956D01*
X14363802Y-7925949D01*
X14363801Y-7925949D01*
X14351249Y-7918702D01*
X14351249Y-7918702D01*
X14350101Y-7918394D01*
X14337247Y-7914950D01*
X14322752Y-7914950D01*
X14309899Y-7918394D01*
X14308751Y-7918702D01*
X14296199Y-7925949D01*
X14296198Y-7925949D01*
X14285949Y-7936198D01*
X14285949Y-7936199D01*
X14278702Y-7948751D01*
X14278702Y-7948751D01*
X14277846Y-7951946D01*
X14276977Y-7955186D01*
X14273341Y-7961152D01*
X14267056Y-7964205D01*
X14260119Y-7963375D01*
X14254731Y-7958927D01*
X14253022Y-7955186D01*
X14252683Y-7953919D01*
X14251298Y-7948751D01*
X14251194Y-7948572D01*
X14244051Y-7936199D01*
X14244051Y-7936198D01*
X14233802Y-7925949D01*
X14233801Y-7925949D01*
X14221249Y-7918702D01*
X14221249Y-7918702D01*
X14220101Y-7918394D01*
X14207247Y-7914950D01*
X14192752Y-7914950D01*
X14179899Y-7918394D01*
X14178751Y-7918702D01*
X14166199Y-7925949D01*
X14166198Y-7925949D01*
X14163329Y-7928818D01*
X14157197Y-7932167D01*
X14154561Y-7932450D01*
X14139303Y-7932450D01*
X14135894Y-7933363D01*
X14135894Y-7933363D01*
X14129753Y-7935009D01*
X14129752Y-7935009D01*
X14127284Y-7936434D01*
X14120494Y-7938081D01*
X14113891Y-7935796D01*
X14112316Y-7934463D01*
X14103802Y-7925949D01*
X14103801Y-7925949D01*
X14091249Y-7918702D01*
X14091249Y-7918702D01*
X14090101Y-7918394D01*
X14077247Y-7914950D01*
X14062752Y-7914950D01*
X14049899Y-7918394D01*
X14048751Y-7918702D01*
X14036199Y-7925949D01*
X14036198Y-7925949D01*
X14025949Y-7936198D01*
X14025949Y-7936199D01*
X14018702Y-7948751D01*
X14018702Y-7948751D01*
X14017846Y-7951946D01*
X14016977Y-7955186D01*
X14013341Y-7961152D01*
X14007056Y-7964205D01*
X14000119Y-7963375D01*
X13994731Y-7958927D01*
X13993022Y-7955186D01*
X13992683Y-7953919D01*
X13991298Y-7948751D01*
X13991194Y-7948572D01*
X13984051Y-7936199D01*
X13984051Y-7936198D01*
X13973802Y-7925949D01*
X13973801Y-7925949D01*
X13961249Y-7918702D01*
X13961249Y-7918702D01*
X13960101Y-7918394D01*
X13947247Y-7914950D01*
X13932752Y-7914950D01*
X13919899Y-7918394D01*
X13918751Y-7918702D01*
X13906199Y-7925949D01*
X13906198Y-7925949D01*
X13895949Y-7936198D01*
X13895949Y-7936198D01*
X13890739Y-7945223D01*
X13885682Y-7950045D01*
X13878821Y-7951367D01*
X13872335Y-7948770D01*
X13869261Y-7945223D01*
X13867660Y-7942450D01*
X13864051Y-7936198D01*
X13853801Y-7925949D01*
X13853801Y-7925949D01*
X13853801Y-7925949D01*
X13841249Y-7918702D01*
X13841249Y-7918702D01*
X13840101Y-7918394D01*
X13827247Y-7914950D01*
X13812752Y-7914950D01*
X13799899Y-7918394D01*
X13798751Y-7918702D01*
X13786199Y-7925949D01*
X13786198Y-7925949D01*
X13775949Y-7936198D01*
X13775949Y-7936199D01*
X13768702Y-7948751D01*
X13768702Y-7948751D01*
X13767846Y-7951946D01*
X13766977Y-7955186D01*
X13763341Y-7961152D01*
X13757056Y-7964205D01*
X13750119Y-7963375D01*
X13744731Y-7958927D01*
X13743022Y-7955186D01*
X13742683Y-7953919D01*
X13741298Y-7948751D01*
X13741194Y-7948572D01*
X13734051Y-7936199D01*
X13734051Y-7936198D01*
X13723802Y-7925949D01*
X13723801Y-7925949D01*
X13711249Y-7918702D01*
X13711249Y-7918702D01*
X13710101Y-7918394D01*
X13697247Y-7914950D01*
X13682752Y-7914950D01*
X13669899Y-7918394D01*
X13668751Y-7918702D01*
X13656199Y-7925949D01*
X13656198Y-7925949D01*
X13645949Y-7936198D01*
X13645949Y-7936199D01*
X13641589Y-7943750D01*
X13636532Y-7948572D01*
X13630850Y-7949950D01*
X13619149Y-7949950D01*
X13612446Y-7947981D01*
X13608411Y-7943750D01*
X13604623Y-7937190D01*
X13604051Y-7936198D01*
X13593801Y-7925949D01*
X13593801Y-7925949D01*
X13593801Y-7925949D01*
X13581249Y-7918702D01*
X13581249Y-7918702D01*
X13580101Y-7918394D01*
X13567247Y-7914950D01*
X13567247Y-7914950D01*
X13565154Y-7914950D01*
X13558450Y-7912981D01*
X13553874Y-7907701D01*
X13553176Y-7905760D01*
X13551298Y-7898751D01*
X13551270Y-7898702D01*
X13544051Y-7886199D01*
X13544051Y-7886198D01*
X13541182Y-7883329D01*
X13537833Y-7877197D01*
X13537550Y-7874561D01*
X13537550Y-7730690D01*
X13539518Y-7723986D01*
X13541182Y-7721922D01*
X13594730Y-7668374D01*
X13650047Y-7613056D01*
X13650047Y-7613056D01*
X13654991Y-7604494D01*
X13656929Y-7597259D01*
X13657550Y-7594944D01*
X13657550Y-7585056D01*
X13657550Y-7585056D01*
X13657550Y-7225439D01*
X13659518Y-7218735D01*
X13661182Y-7216670D01*
X13661193Y-7216659D01*
X13664051Y-7213801D01*
X13671298Y-7201248D01*
X13675050Y-7187247D01*
X13675050Y-7172752D01*
X13671298Y-7158751D01*
X13671180Y-7158546D01*
X13664051Y-7146199D01*
X13664051Y-7146198D01*
X13653802Y-7135949D01*
X13653801Y-7135949D01*
X13641249Y-7128702D01*
X13641249Y-7128702D01*
X13640101Y-7128394D01*
X13627247Y-7124950D01*
X13612752Y-7124950D01*
X13599899Y-7128394D01*
X13598751Y-7128702D01*
X13586199Y-7135949D01*
X13586198Y-7135949D01*
X13575949Y-7146198D01*
X13575949Y-7146199D01*
X13568702Y-7158751D01*
X13568702Y-7158751D01*
X13564950Y-7172752D01*
X13564950Y-7187247D01*
X13568702Y-7201248D01*
X13568702Y-7201249D01*
X13575949Y-7213801D01*
X13575949Y-7213802D01*
X13578818Y-7216670D01*
X13582167Y-7222803D01*
X13582450Y-7225439D01*
X13582450Y-7569310D01*
X13580481Y-7576014D01*
X13578818Y-7578078D01*
X13533219Y-7623677D01*
X13527087Y-7627025D01*
X13520118Y-7626527D01*
X13514525Y-7622340D01*
X13512083Y-7615793D01*
X13512051Y-7614909D01*
X13512051Y-7459940D01*
X13514020Y-7453236D01*
X13515683Y-7451172D01*
X13518552Y-7448303D01*
X13525800Y-7435750D01*
X13529551Y-7421749D01*
X13529551Y-7407254D01*
X13525800Y-7393253D01*
X13518552Y-7380700D01*
X13508303Y-7370450D01*
X13508303Y-7370450D01*
X13508302Y-7370450D01*
X13495750Y-7363203D01*
X13495750Y-7363203D01*
X13494602Y-7362895D01*
X13481749Y-7359451D01*
X13467254Y-7359451D01*
X13454401Y-7362895D01*
X13453252Y-7363203D01*
X13440700Y-7370450D01*
X13440699Y-7370451D01*
X13430451Y-7380699D01*
X13430450Y-7380700D01*
X13423203Y-7393252D01*
X13423203Y-7393253D01*
X13419451Y-7407254D01*
X13419451Y-7421749D01*
X13420925Y-7427247D01*
X13423203Y-7435750D01*
X13429323Y-7446350D01*
X13430970Y-7453140D01*
X13428685Y-7459743D01*
X13423193Y-7464062D01*
X13418584Y-7464950D01*
X13412752Y-7464950D01*
X13399899Y-7468394D01*
X13398751Y-7468702D01*
X13386199Y-7475949D01*
X13386198Y-7475949D01*
X13375949Y-7486198D01*
X13375949Y-7486199D01*
X13368702Y-7498751D01*
X13368702Y-7498751D01*
X13364950Y-7512752D01*
X13364950Y-7527247D01*
X13367421Y-7536470D01*
X13368702Y-7541249D01*
X13375949Y-7553801D01*
X13375949Y-7553802D01*
X13378818Y-7556670D01*
X13382167Y-7562803D01*
X13382450Y-7565439D01*
X13382450Y-7629310D01*
X13380481Y-7636014D01*
X13378818Y-7638078D01*
X13151718Y-7865178D01*
X13145586Y-7868527D01*
X13138617Y-7868028D01*
X13133023Y-7863841D01*
X13130582Y-7857295D01*
X13130550Y-7856410D01*
X13130550Y-7742991D01*
X13132518Y-7736288D01*
X13134182Y-7734223D01*
X13143355Y-7725050D01*
X13158047Y-7710358D01*
X13162991Y-7701795D01*
X13165550Y-7692245D01*
X13165550Y-7682358D01*
X13165550Y-7582690D01*
X13167518Y-7575986D01*
X13169182Y-7573922D01*
X13264422Y-7478682D01*
X13270554Y-7475333D01*
X13273190Y-7475050D01*
X13277247Y-7475050D01*
X13277247Y-7475050D01*
X13291248Y-7471298D01*
X13303801Y-7464051D01*
X13314051Y-7453801D01*
X13321298Y-7441248D01*
X13325050Y-7427247D01*
X13325050Y-7412752D01*
X13321298Y-7398751D01*
X13315357Y-7388461D01*
X13314051Y-7386199D01*
X13314051Y-7386198D01*
X13303802Y-7375949D01*
X13303801Y-7375949D01*
X13291249Y-7368702D01*
X13291249Y-7368702D01*
X13290616Y-7368532D01*
X13284814Y-7366977D01*
X13278848Y-7363341D01*
X13275795Y-7357056D01*
X13276624Y-7350119D01*
X13281073Y-7344731D01*
X13284813Y-7343023D01*
X13291248Y-7341298D01*
X13303801Y-7334051D01*
X13314051Y-7323801D01*
X13321298Y-7311248D01*
X13325050Y-7297247D01*
X13325050Y-7282752D01*
X13321298Y-7268751D01*
X13319452Y-7265554D01*
X13314051Y-7256199D01*
X13314051Y-7256198D01*
X13303802Y-7245949D01*
X13303801Y-7245949D01*
X13299135Y-7243255D01*
X13294777Y-7240739D01*
X13289955Y-7235682D01*
X13288633Y-7228821D01*
X13291230Y-7222335D01*
X13294777Y-7219261D01*
X13296408Y-7218319D01*
X13303801Y-7214051D01*
X13314051Y-7203801D01*
X13321298Y-7191248D01*
X13325050Y-7177247D01*
X13325050Y-7162752D01*
X13321298Y-7148751D01*
X13319981Y-7146470D01*
X13314051Y-7136199D01*
X13314051Y-7136198D01*
X13303802Y-7125949D01*
X13303801Y-7125949D01*
X13291249Y-7118702D01*
X13291249Y-7118702D01*
X13290616Y-7118532D01*
X13284814Y-7116977D01*
X13278848Y-7113341D01*
X13275795Y-7107056D01*
X13276624Y-7100119D01*
X13281073Y-7094731D01*
X13284813Y-7093023D01*
X13291248Y-7091298D01*
X13303801Y-7084051D01*
X13314051Y-7073801D01*
X13321298Y-7061248D01*
X13325050Y-7047247D01*
X13325050Y-7032752D01*
X13321298Y-7018751D01*
X13314051Y-7006198D01*
X13303801Y-6995949D01*
X13299135Y-6993255D01*
X13294777Y-6990739D01*
X13289955Y-6985682D01*
X13288633Y-6978821D01*
X13291230Y-6972335D01*
X13294777Y-6969261D01*
X13296408Y-6968319D01*
X13303801Y-6964051D01*
X13314051Y-6953801D01*
X13321298Y-6941248D01*
X13325050Y-6927247D01*
X13325050Y-6912752D01*
X13321298Y-6898751D01*
X13320549Y-6897454D01*
X13314051Y-6886199D01*
X13314051Y-6886198D01*
X13303802Y-6875949D01*
X13303801Y-6875949D01*
X13291249Y-6868702D01*
X13291249Y-6868702D01*
X13290101Y-6868394D01*
X13277247Y-6864950D01*
X13268090Y-6864950D01*
X13261386Y-6862981D01*
X13256810Y-6857701D01*
X13255816Y-6850785D01*
X13258719Y-6844430D01*
X13259322Y-6843782D01*
X13264422Y-6838682D01*
X13270554Y-6835333D01*
X13273190Y-6835050D01*
X13277247Y-6835050D01*
X13277247Y-6835050D01*
X13291248Y-6831298D01*
X13303801Y-6824051D01*
X13314051Y-6813801D01*
X13321298Y-6801248D01*
X13325050Y-6787247D01*
X13325050Y-6772752D01*
X13321298Y-6758751D01*
X13314051Y-6746198D01*
X13303801Y-6735949D01*
X13299135Y-6733255D01*
X13294777Y-6730739D01*
X13289955Y-6725682D01*
X13288633Y-6718821D01*
X13291230Y-6712335D01*
X13294777Y-6709261D01*
X13296408Y-6708319D01*
X13303801Y-6704051D01*
X13314051Y-6693801D01*
X13321298Y-6681248D01*
X13325050Y-6667247D01*
X13325050Y-6652752D01*
X13321298Y-6638751D01*
X13314051Y-6626198D01*
X13303801Y-6615949D01*
X13303801Y-6615949D01*
X13303801Y-6615949D01*
X13291249Y-6608702D01*
X13291249Y-6608702D01*
X13290101Y-6608394D01*
X13277247Y-6604950D01*
X13262752Y-6604950D01*
X13249899Y-6608394D01*
X13248751Y-6608702D01*
X13236199Y-6615949D01*
X13236198Y-6615949D01*
X13225949Y-6626198D01*
X13225949Y-6626199D01*
X13218702Y-6638751D01*
X13218702Y-6638751D01*
X13214950Y-6652752D01*
X13214950Y-6652753D01*
X13214950Y-6666810D01*
X13212981Y-6673514D01*
X13211318Y-6675578D01*
X12996944Y-6889952D01*
X12989953Y-6896943D01*
X12989952Y-6896944D01*
X12989952Y-6896944D01*
X12985009Y-6905506D01*
X12985009Y-6905506D01*
X12982482Y-6914939D01*
X12982480Y-6914944D01*
X12982450Y-6915056D01*
X12982450Y-6915800D01*
X12980481Y-6922504D01*
X12975201Y-6927079D01*
X12968285Y-6928074D01*
X12961930Y-6925171D01*
X12961282Y-6924568D01*
X12957904Y-6921190D01*
X12957903Y-6921189D01*
X12943155Y-6911335D01*
X12943154Y-6911334D01*
X12926767Y-6904547D01*
X12926766Y-6904546D01*
X12909369Y-6901086D01*
X12909369Y-6901086D01*
X12811631Y-6901086D01*
X12811631Y-6901086D01*
X12794234Y-6904546D01*
X12794233Y-6904547D01*
X12777846Y-6911334D01*
X12777845Y-6911335D01*
X12769839Y-6916684D01*
X12763171Y-6918772D01*
X12756433Y-6916923D01*
X12751764Y-6911726D01*
X12750550Y-6906374D01*
X12750550Y-6821898D01*
X12752518Y-6815194D01*
X12757799Y-6810618D01*
X12764715Y-6809624D01*
X12769839Y-6811588D01*
X12777845Y-6816937D01*
X12777845Y-6816937D01*
X12777846Y-6816938D01*
X12789821Y-6821898D01*
X12794233Y-6823725D01*
X12794234Y-6823725D01*
X12794234Y-6823726D01*
X12811630Y-6827186D01*
X12811631Y-6827186D01*
X12811631Y-6827186D01*
X12909369Y-6827186D01*
X12909369Y-6827186D01*
X12915168Y-6826032D01*
X12926766Y-6823726D01*
X12926766Y-6823725D01*
X12926767Y-6823725D01*
X12943155Y-6816937D01*
X12957903Y-6807082D01*
X12970446Y-6794539D01*
X12980301Y-6779791D01*
X12987089Y-6763403D01*
X12988015Y-6758751D01*
X12990550Y-6746005D01*
X12990550Y-6746005D01*
X12990550Y-6728267D01*
X12990550Y-6728266D01*
X12987090Y-6710870D01*
X12987089Y-6710869D01*
X12980302Y-6694482D01*
X12980301Y-6694481D01*
X12970446Y-6679732D01*
X12970446Y-6679732D01*
X12957904Y-6667190D01*
X12957903Y-6667189D01*
X12943155Y-6657335D01*
X12943154Y-6657334D01*
X12926767Y-6650547D01*
X12926766Y-6650546D01*
X12909369Y-6647086D01*
X12909369Y-6647086D01*
X12811631Y-6647086D01*
X12811631Y-6647086D01*
X12794234Y-6650546D01*
X12794233Y-6650547D01*
X12777846Y-6657334D01*
X12777845Y-6657335D01*
X12769839Y-6662684D01*
X12763171Y-6664772D01*
X12756433Y-6662923D01*
X12751764Y-6657726D01*
X12750550Y-6652374D01*
X12750550Y-6567898D01*
X12752518Y-6561194D01*
X12757799Y-6556618D01*
X12764715Y-6555624D01*
X12769839Y-6557588D01*
X12777845Y-6562937D01*
X12777845Y-6562937D01*
X12777846Y-6562938D01*
X12789821Y-6567898D01*
X12794233Y-6569725D01*
X12794234Y-6569725D01*
X12794234Y-6569726D01*
X12811630Y-6573186D01*
X12811631Y-6573186D01*
X12811631Y-6573186D01*
X12909369Y-6573186D01*
X12909369Y-6573186D01*
X12916491Y-6571769D01*
X12926766Y-6569726D01*
X12926766Y-6569725D01*
X12926767Y-6569725D01*
X12943155Y-6562937D01*
X12957903Y-6553082D01*
X12970446Y-6540539D01*
X12980301Y-6525791D01*
X12987089Y-6509403D01*
X12990550Y-6492005D01*
X12990550Y-6474267D01*
X12990550Y-6474267D01*
X12990550Y-6474266D01*
X12987090Y-6456870D01*
X12987089Y-6456869D01*
X12980302Y-6440482D01*
X12980301Y-6440481D01*
X12970446Y-6425732D01*
X12970446Y-6425732D01*
X12957904Y-6413190D01*
X12957903Y-6413189D01*
X12943155Y-6403335D01*
X12943154Y-6403334D01*
X12926767Y-6396547D01*
X12926766Y-6396546D01*
X12909369Y-6393086D01*
X12909369Y-6393086D01*
X12811631Y-6393086D01*
X12811631Y-6393086D01*
X12794234Y-6396546D01*
X12794233Y-6396547D01*
X12777846Y-6403334D01*
X12777845Y-6403335D01*
X12769839Y-6408684D01*
X12763171Y-6410772D01*
X12756433Y-6408923D01*
X12751764Y-6403726D01*
X12750550Y-6398374D01*
X12750550Y-6313898D01*
X12752518Y-6307194D01*
X12757799Y-6302618D01*
X12764715Y-6301624D01*
X12769839Y-6303588D01*
X12777845Y-6308937D01*
X12777845Y-6308937D01*
X12777846Y-6308938D01*
X12789821Y-6313898D01*
X12794233Y-6315725D01*
X12794234Y-6315725D01*
X12794234Y-6315726D01*
X12811630Y-6319186D01*
X12811631Y-6319186D01*
X12811631Y-6319186D01*
X12909369Y-6319186D01*
X12909369Y-6319186D01*
X12916491Y-6317769D01*
X12926766Y-6315726D01*
X12926766Y-6315725D01*
X12926767Y-6315725D01*
X12940753Y-6309932D01*
X12943154Y-6308938D01*
X12943154Y-6308937D01*
X12943155Y-6308937D01*
X12957903Y-6299082D01*
X12970446Y-6286539D01*
X12980301Y-6271791D01*
X12987089Y-6255403D01*
X12990550Y-6238005D01*
X12990550Y-6220267D01*
X12990550Y-6220267D01*
X12990550Y-6220266D01*
X12987090Y-6202870D01*
X12987089Y-6202869D01*
X12986868Y-6202335D01*
X12984070Y-6195579D01*
X12980302Y-6186482D01*
X12980301Y-6186481D01*
X12970446Y-6171732D01*
X12970446Y-6171732D01*
X12957904Y-6159190D01*
X12957903Y-6159189D01*
X12943155Y-6149335D01*
X12943154Y-6149334D01*
X12926767Y-6142547D01*
X12926766Y-6142546D01*
X12909369Y-6139086D01*
X12909369Y-6139086D01*
X12811631Y-6139086D01*
X12811631Y-6139086D01*
X12794234Y-6142546D01*
X12794233Y-6142547D01*
X12777846Y-6149334D01*
X12777845Y-6149335D01*
X12769839Y-6154684D01*
X12763171Y-6156772D01*
X12756433Y-6154923D01*
X12751764Y-6149726D01*
X12750550Y-6144374D01*
X12750550Y-6059898D01*
X12752518Y-6053194D01*
X12757799Y-6048618D01*
X12764715Y-6047624D01*
X12769839Y-6049588D01*
X12777845Y-6054937D01*
X12777845Y-6054937D01*
X12777846Y-6054938D01*
X12789821Y-6059898D01*
X12794233Y-6061725D01*
X12794234Y-6061725D01*
X12794234Y-6061726D01*
X12811630Y-6065186D01*
X12811631Y-6065186D01*
X12811631Y-6065186D01*
X12909369Y-6065186D01*
X12909369Y-6065186D01*
X12915168Y-6064032D01*
X12926766Y-6061726D01*
X12926766Y-6061725D01*
X12926767Y-6061725D01*
X12943155Y-6054937D01*
X12957903Y-6045082D01*
X12970446Y-6032539D01*
X12980301Y-6017791D01*
X12987089Y-6001403D01*
X12990550Y-5984005D01*
X12990550Y-5966267D01*
X12990550Y-5966267D01*
X12990550Y-5966266D01*
X12987090Y-5948870D01*
X12987089Y-5948869D01*
X12980302Y-5932482D01*
X12980301Y-5932481D01*
X12974952Y-5924475D01*
X12972864Y-5917807D01*
X12974712Y-5911069D01*
X12979910Y-5906400D01*
X12985262Y-5905186D01*
X15244050Y-5905186D01*
X15250754Y-5907154D01*
G37*
%TD.AperFunction*%
%TD*%
M02*
