%TF.GenerationSoftware,KiCad,Pcbnew,10.0.0*%
%TF.CreationDate,2026-04-11T11:06:47+02:00*%
%TF.ProjectId,Easyduino_ESP32S3,45617379-6475-4696-9e6f-5f4553503332,rev?*%
%TF.SameCoordinates,Original*%
%TF.FileFunction,Copper,L3,Inr*%
%TF.FilePolarity,Positive*%
%FSLAX45Y45*%
G04 Gerber Fmt 4.5, Leading zero omitted, Abs format (unit mm)*
G04 Created by KiCad (PCBNEW 10.0.0) date 2026-04-11 11:06:47*
%MOMM*%
%LPD*%
G01*
G04 APERTURE LIST*
%TA.AperFunction,ComponentPad*%
%ADD10O,2.000000X1.200000*%
%TD*%
%TA.AperFunction,ComponentPad*%
%ADD11O,1.000000X2.100000*%
%TD*%
%TA.AperFunction,ComponentPad*%
%ADD12O,1.000000X1.800000*%
%TD*%
%TA.AperFunction,ViaPad*%
%ADD13C,0.500000*%
%TD*%
G04 APERTURE END LIST*
D10*
%TO.N,+3.3V*%
%TO.C,U2*%
X12860500Y-5975136D03*
X12860500Y-6229136D03*
%TO.N,/EN*%
X12860500Y-6483136D03*
%TO.N,/GPIO4*%
X12860500Y-6737136D03*
%TO.N,/GPIO5*%
X12860500Y-6991136D03*
%TO.N,/GPIO6*%
X12860500Y-7245136D03*
%TO.N,/GPIO7*%
X12860500Y-7499136D03*
%TO.N,/GPIO15*%
X12860500Y-7753136D03*
%TO.N,/GPIO16*%
X12860500Y-8007136D03*
%TO.N,/GPIO17*%
X12860500Y-8261136D03*
%TO.N,/GPIO18*%
X12860500Y-8515136D03*
%TO.N,/GPIO8*%
X12860500Y-8769136D03*
%TO.N,/GPIO3*%
X12860500Y-9023136D03*
%TO.N,/GPIO46*%
X12860500Y-9277136D03*
%TO.N,/GPIO9*%
X12860500Y-9531136D03*
%TO.N,/GPIO10*%
X12860500Y-9785136D03*
%TO.N,/GPIO11*%
X12860500Y-10039136D03*
%TO.N,/GPIO12*%
X12860500Y-10293136D03*
%TO.N,/GPIO13*%
X12860500Y-10547136D03*
%TO.N,/GPIO14*%
X12860132Y-10800864D03*
%TO.N,+5V*%
X12860132Y-11054864D03*
%TO.N,GND*%
X12860132Y-11308864D03*
X15146500Y-11309136D03*
X15146500Y-11055136D03*
%TO.N,/USB2_D-*%
X15146500Y-10801136D03*
%TO.N,/USB2_D+*%
X15146500Y-10547136D03*
%TO.N,/GPIO21*%
X15146500Y-10293136D03*
%TO.N,/GPIO47*%
X15146500Y-10039136D03*
%TO.N,/GPIO48*%
X15146500Y-9785136D03*
%TO.N,/GPIO45*%
X15146500Y-9531136D03*
%TO.N,/GPIO0*%
X15146500Y-9277136D03*
%TO.N,/GPIO35*%
X15146500Y-9023136D03*
%TO.N,/GPIO36*%
X15146500Y-8769136D03*
%TO.N,/GPIO37*%
X15146500Y-8515136D03*
%TO.N,/GPIO38*%
X15146500Y-8261136D03*
%TO.N,/GPIO39*%
X15146500Y-8007136D03*
%TO.N,/GPIO40*%
X15146500Y-7753136D03*
%TO.N,/GPIO41*%
X15146500Y-7499136D03*
%TO.N,/GPIO42*%
X15146500Y-7245136D03*
%TO.N,/GPIO2*%
X15146500Y-6991136D03*
%TO.N,/GPIO1*%
X15146500Y-6737136D03*
%TO.N,/GPIO44*%
X15146500Y-6483136D03*
%TO.N,/GPIO43*%
X15146500Y-6229136D03*
%TO.N,GND*%
X15146500Y-5975136D03*
%TD*%
D11*
%TO.N,GND*%
%TO.C,J2*%
X14263000Y-11680000D03*
D12*
X14263000Y-12100000D03*
D11*
X15127000Y-11680000D03*
D12*
X15127000Y-12100000D03*
%TD*%
D11*
%TO.N,GND*%
%TO.C,J1*%
X12876000Y-11680000D03*
D12*
X12876000Y-12100000D03*
D11*
X13740000Y-11680000D03*
D12*
X13740000Y-12100000D03*
%TD*%
D13*
%TO.N,+5V*%
X13805000Y-11035000D03*
%TO.N,GND*%
X13660000Y-6300000D03*
X14180000Y-10840000D03*
X14525000Y-11275000D03*
X13440000Y-6820000D03*
X13640000Y-8400000D03*
X13710000Y-6730000D03*
X13850000Y-6870000D03*
X13320000Y-10820000D03*
X13710000Y-6870000D03*
X14480000Y-8420000D03*
X14000000Y-12100000D03*
X13700000Y-5950000D03*
X13490000Y-11220000D03*
X14160000Y-7560000D03*
X13460000Y-9640000D03*
X13350000Y-5950000D03*
X14540000Y-7540000D03*
X14295000Y-11520000D03*
X13440000Y-7180000D03*
X13790000Y-6790000D03*
X13910000Y-9080000D03*
X13930000Y-6790000D03*
X14920000Y-12100000D03*
X14170000Y-8720000D03*
X15065000Y-11520000D03*
X13500000Y-12120000D03*
X14000000Y-6870000D03*
X14380000Y-8180000D03*
X13930000Y-6940000D03*
X13300000Y-9280000D03*
X13495000Y-11305000D03*
X14720000Y-9420000D03*
X14540000Y-7120000D03*
X13930000Y-6650000D03*
X13320000Y-10620000D03*
X13790000Y-6650000D03*
X13520000Y-10820000D03*
X13850000Y-6730000D03*
X14080000Y-6300000D03*
X13760000Y-8400000D03*
X15000000Y-11500000D03*
X13420000Y-10720000D03*
X14500000Y-5950000D03*
X14840000Y-9800000D03*
X14620000Y-8580000D03*
X13805000Y-11285000D03*
X14000000Y-6730000D03*
X14520000Y-12100000D03*
X14620000Y-10680000D03*
X13420000Y-10820000D03*
X13140000Y-12120000D03*
X13135000Y-11275000D03*
X13320000Y-10720000D03*
X13320000Y-9800000D03*
X12930000Y-11520000D03*
X13520000Y-10720000D03*
X14870000Y-10470000D03*
X14000000Y-11760000D03*
X14700000Y-9640000D03*
X13520000Y-10620000D03*
X13690000Y-11535000D03*
X14380000Y-8260000D03*
X14380000Y-8340000D03*
X14640000Y-8340000D03*
X14135000Y-11350000D03*
X13580000Y-9600000D03*
X13720000Y-7560000D03*
X13330000Y-11050000D03*
X14890000Y-11270000D03*
X14420000Y-11020000D03*
X13880000Y-8660000D03*
X14100000Y-5950000D03*
X13900000Y-9660000D03*
X14270000Y-10340000D03*
X13420000Y-10620000D03*
X14720000Y-9280000D03*
X13790000Y-6940000D03*
%TO.N,/EN*%
X13500000Y-7920000D03*
X13620000Y-7180000D03*
%TO.N,/GPIO38*%
X14740000Y-7160000D03*
X14830000Y-9380000D03*
X14800000Y-9020000D03*
%TO.N,/~{DTR}*%
X13040000Y-10820000D03*
X13310000Y-9490000D03*
%TO.N,+3.3V*%
X13960000Y-9980000D03*
X13520000Y-8400000D03*
X13960000Y-9840000D03*
X14120000Y-9840000D03*
X14240000Y-9740000D03*
X14240000Y-9980000D03*
X13880000Y-8410000D03*
X14120000Y-9980000D03*
X13830000Y-8260000D03*
X14240000Y-9840000D03*
%TO.N,/GPIO6*%
X13270000Y-6660000D03*
%TO.N,/GPIO7*%
X13270000Y-6780000D03*
%TO.N,/GPIO15*%
X13270000Y-6920000D03*
%TO.N,/GPIO16*%
X13270000Y-7040000D03*
%TO.N,/GPIO17*%
X13270000Y-7170000D03*
%TO.N,/GPIO18*%
X13270000Y-7290000D03*
%TO.N,/GPIO8*%
X13270000Y-7420000D03*
%TO.N,/USB2_D-*%
X14722450Y-10910000D03*
X14615000Y-11480000D03*
X13292500Y-8860000D03*
X14735000Y-11480000D03*
%TO.N,/USB2_D+*%
X14615000Y-10855000D03*
X13367500Y-8860000D03*
%TO.N,/GPIO3*%
X13330000Y-7950000D03*
%TO.N,/GPIO46*%
X13440000Y-7970000D03*
%TO.N,/GPIO9*%
X13560000Y-7970000D03*
%TO.N,/GPIO10*%
X13690000Y-7970000D03*
%TO.N,/GPIO11*%
X13820000Y-7970000D03*
%TO.N,/GPIO12*%
X13940000Y-7970000D03*
%TO.N,/GPIO13*%
X14070000Y-7970000D03*
%TO.N,/GPIO14*%
X14200000Y-7970000D03*
%TO.N,/GPIO21*%
X14330000Y-7970000D03*
%TO.N,/GPIO47*%
X14450000Y-7980000D03*
%TO.N,/GPIO48*%
X14580000Y-7980000D03*
%TO.N,/GPIO45*%
X14710000Y-7980000D03*
%TO.N,/GPIO0*%
X14750000Y-7670000D03*
%TO.N,/GPIO35*%
X14750000Y-7550000D03*
%TO.N,/GPIO36*%
X14740000Y-7420000D03*
%TO.N,/GPIO37*%
X14740000Y-7290000D03*
%TO.N,/GPIO39*%
X14740000Y-7040000D03*
%TO.N,/GPIO40*%
X14740000Y-6910000D03*
%TO.N,/GPIO41*%
X14740000Y-6780000D03*
%TO.N,/GPIO44*%
X13140000Y-7940000D03*
X13420000Y-7520000D03*
%TO.N,/GPIO43*%
X13110000Y-8040000D03*
X13474501Y-7414501D03*
%TO.N,/GPIO2*%
X14740000Y-6270000D03*
%TO.N,/GPIO1*%
X14740000Y-6150000D03*
%TO.N,/USB1_D+*%
X13400000Y-11490000D03*
X13250000Y-11490000D03*
%TO.N,/~{RTS}*%
X13780000Y-8880000D03*
X13600000Y-8880000D03*
%TD*%
%TA.AperFunction,Conductor*%
%TO.N,+3.3V*%
G36*
X13297534Y-5907154D02*
G01*
X13302109Y-5912435D01*
X13303103Y-5919351D01*
X13301568Y-5923786D01*
X13298702Y-5928751D01*
X13298702Y-5928751D01*
X13294950Y-5942752D01*
X13294950Y-5957247D01*
X13297367Y-5966267D01*
X13298702Y-5971249D01*
X13305949Y-5983801D01*
X13305949Y-5983801D01*
X13305949Y-5983801D01*
X13316198Y-5994051D01*
X13316199Y-5994051D01*
X13316199Y-5994051D01*
X13328751Y-6001298D01*
X13328751Y-6001298D01*
X13328751Y-6001298D01*
X13342752Y-6005050D01*
X13342753Y-6005050D01*
X13357247Y-6005050D01*
X13357247Y-6005050D01*
X13371248Y-6001298D01*
X13383801Y-5994051D01*
X13394051Y-5983801D01*
X13401298Y-5971248D01*
X13405050Y-5957247D01*
X13405050Y-5942752D01*
X13401298Y-5928751D01*
X13398432Y-5923786D01*
X13396784Y-5916996D01*
X13399069Y-5910393D01*
X13404562Y-5906074D01*
X13409170Y-5905186D01*
X13640830Y-5905186D01*
X13647534Y-5907154D01*
X13652109Y-5912435D01*
X13653103Y-5919351D01*
X13651568Y-5923786D01*
X13648702Y-5928751D01*
X13648702Y-5928751D01*
X13644950Y-5942752D01*
X13644950Y-5957247D01*
X13647367Y-5966267D01*
X13648702Y-5971249D01*
X13655949Y-5983801D01*
X13655949Y-5983801D01*
X13655949Y-5983801D01*
X13666198Y-5994051D01*
X13666199Y-5994051D01*
X13666199Y-5994051D01*
X13678751Y-6001298D01*
X13678751Y-6001298D01*
X13678751Y-6001298D01*
X13692752Y-6005050D01*
X13692753Y-6005050D01*
X13707247Y-6005050D01*
X13707247Y-6005050D01*
X13721248Y-6001298D01*
X13733801Y-5994051D01*
X13744051Y-5983801D01*
X13751298Y-5971248D01*
X13755050Y-5957247D01*
X13755050Y-5942752D01*
X13751298Y-5928751D01*
X13748432Y-5923786D01*
X13746784Y-5916996D01*
X13749069Y-5910393D01*
X13754562Y-5906074D01*
X13759170Y-5905186D01*
X14040830Y-5905186D01*
X14047534Y-5907154D01*
X14052109Y-5912435D01*
X14053103Y-5919351D01*
X14051568Y-5923786D01*
X14048702Y-5928751D01*
X14048702Y-5928751D01*
X14044950Y-5942752D01*
X14044950Y-5957247D01*
X14047367Y-5966267D01*
X14048702Y-5971249D01*
X14055949Y-5983801D01*
X14055949Y-5983801D01*
X14055949Y-5983801D01*
X14066198Y-5994051D01*
X14066199Y-5994051D01*
X14066199Y-5994051D01*
X14078751Y-6001298D01*
X14078751Y-6001298D01*
X14078751Y-6001298D01*
X14092752Y-6005050D01*
X14092753Y-6005050D01*
X14107247Y-6005050D01*
X14107247Y-6005050D01*
X14121248Y-6001298D01*
X14133801Y-5994051D01*
X14144051Y-5983801D01*
X14151298Y-5971248D01*
X14155050Y-5957247D01*
X14155050Y-5942752D01*
X14151298Y-5928751D01*
X14148432Y-5923786D01*
X14146784Y-5916996D01*
X14149069Y-5910393D01*
X14154562Y-5906074D01*
X14159170Y-5905186D01*
X14440830Y-5905186D01*
X14447534Y-5907154D01*
X14452109Y-5912435D01*
X14453103Y-5919351D01*
X14451568Y-5923786D01*
X14448702Y-5928751D01*
X14448702Y-5928751D01*
X14444950Y-5942752D01*
X14444950Y-5957247D01*
X14447367Y-5966267D01*
X14448702Y-5971249D01*
X14455949Y-5983801D01*
X14455949Y-5983801D01*
X14455949Y-5983801D01*
X14466198Y-5994051D01*
X14466199Y-5994051D01*
X14466199Y-5994051D01*
X14478751Y-6001298D01*
X14478751Y-6001298D01*
X14478751Y-6001298D01*
X14492752Y-6005050D01*
X14492753Y-6005050D01*
X14507247Y-6005050D01*
X14507247Y-6005050D01*
X14521248Y-6001298D01*
X14533801Y-5994051D01*
X14544051Y-5983801D01*
X14551298Y-5971248D01*
X14555050Y-5957247D01*
X14555050Y-5942752D01*
X14551298Y-5928751D01*
X14548432Y-5923786D01*
X14546784Y-5916996D01*
X14549069Y-5910393D01*
X14554562Y-5906074D01*
X14559170Y-5905186D01*
X15021738Y-5905186D01*
X15028442Y-5907154D01*
X15033017Y-5912435D01*
X15034012Y-5919351D01*
X15032048Y-5924475D01*
X15029547Y-5928219D01*
X15026699Y-5932481D01*
X15026698Y-5932482D01*
X15019911Y-5948869D01*
X15019910Y-5948870D01*
X15016450Y-5966266D01*
X15016450Y-5984005D01*
X15019910Y-6001402D01*
X15019911Y-6001403D01*
X15026698Y-6017790D01*
X15026699Y-6017791D01*
X15036553Y-6032539D01*
X15036554Y-6032540D01*
X15049096Y-6045082D01*
X15049096Y-6045082D01*
X15063845Y-6054937D01*
X15063846Y-6054938D01*
X15075822Y-6059898D01*
X15080233Y-6061725D01*
X15080234Y-6061725D01*
X15080234Y-6061726D01*
X15097630Y-6065186D01*
X15097631Y-6065186D01*
X15097631Y-6065186D01*
X15195369Y-6065186D01*
X15195369Y-6065186D01*
X15201168Y-6064032D01*
X15212766Y-6061726D01*
X15212766Y-6061725D01*
X15212767Y-6061725D01*
X15229155Y-6054937D01*
X15234076Y-6051649D01*
X15237161Y-6049588D01*
X15243828Y-6047500D01*
X15250566Y-6049348D01*
X15255236Y-6054546D01*
X15256450Y-6059898D01*
X15256450Y-6144374D01*
X15254481Y-6151078D01*
X15249201Y-6155653D01*
X15242285Y-6156648D01*
X15237161Y-6154684D01*
X15229156Y-6149335D01*
X15229154Y-6149334D01*
X15212767Y-6142547D01*
X15212766Y-6142546D01*
X15195369Y-6139086D01*
X15195369Y-6139086D01*
X15097631Y-6139086D01*
X15097631Y-6139086D01*
X15080234Y-6142546D01*
X15080233Y-6142547D01*
X15063846Y-6149334D01*
X15063845Y-6149335D01*
X15049096Y-6159189D01*
X15049096Y-6159190D01*
X15036554Y-6171732D01*
X15036553Y-6171732D01*
X15026699Y-6186481D01*
X15026698Y-6186482D01*
X15019911Y-6202869D01*
X15019910Y-6202870D01*
X15016450Y-6220266D01*
X15016450Y-6238005D01*
X15019910Y-6255402D01*
X15019911Y-6255403D01*
X15026698Y-6271790D01*
X15026699Y-6271791D01*
X15036553Y-6286539D01*
X15036554Y-6286540D01*
X15049096Y-6299082D01*
X15049096Y-6299082D01*
X15063845Y-6308937D01*
X15063846Y-6308938D01*
X15075822Y-6313898D01*
X15080233Y-6315725D01*
X15080234Y-6315725D01*
X15080234Y-6315726D01*
X15097630Y-6319186D01*
X15097631Y-6319186D01*
X15097631Y-6319186D01*
X15195369Y-6319186D01*
X15195369Y-6319186D01*
X15201168Y-6318032D01*
X15212766Y-6315726D01*
X15212766Y-6315725D01*
X15212767Y-6315725D01*
X15229155Y-6308937D01*
X15234076Y-6305649D01*
X15237161Y-6303588D01*
X15243828Y-6301500D01*
X15250566Y-6303348D01*
X15255236Y-6308546D01*
X15256450Y-6313898D01*
X15256450Y-6398374D01*
X15254481Y-6405078D01*
X15249201Y-6409653D01*
X15242285Y-6410648D01*
X15237161Y-6408684D01*
X15229156Y-6403335D01*
X15229154Y-6403334D01*
X15212767Y-6396547D01*
X15212766Y-6396546D01*
X15195369Y-6393086D01*
X15195369Y-6393086D01*
X15097631Y-6393086D01*
X15097631Y-6393086D01*
X15080234Y-6396546D01*
X15080233Y-6396547D01*
X15063846Y-6403334D01*
X15063845Y-6403335D01*
X15049096Y-6413189D01*
X15049096Y-6413190D01*
X15036554Y-6425732D01*
X15036553Y-6425732D01*
X15026699Y-6440481D01*
X15026698Y-6440482D01*
X15019911Y-6456869D01*
X15019910Y-6456870D01*
X15016450Y-6474266D01*
X15016450Y-6492005D01*
X15019910Y-6509402D01*
X15019911Y-6509403D01*
X15026698Y-6525790D01*
X15026699Y-6525791D01*
X15036553Y-6540539D01*
X15036554Y-6540540D01*
X15049096Y-6553082D01*
X15049096Y-6553082D01*
X15063845Y-6562937D01*
X15063846Y-6562938D01*
X15075821Y-6567898D01*
X15080233Y-6569725D01*
X15080234Y-6569725D01*
X15080234Y-6569726D01*
X15097630Y-6573186D01*
X15097631Y-6573186D01*
X15097631Y-6573186D01*
X15195369Y-6573186D01*
X15195369Y-6573186D01*
X15201168Y-6572032D01*
X15212766Y-6569726D01*
X15212766Y-6569725D01*
X15212767Y-6569725D01*
X15229155Y-6562937D01*
X15234076Y-6559649D01*
X15237161Y-6557588D01*
X15243828Y-6555500D01*
X15250566Y-6557348D01*
X15255236Y-6562546D01*
X15256450Y-6567898D01*
X15256450Y-6652374D01*
X15254481Y-6659078D01*
X15249201Y-6663653D01*
X15242285Y-6664648D01*
X15237161Y-6662684D01*
X15229156Y-6657335D01*
X15229154Y-6657334D01*
X15212767Y-6650547D01*
X15212766Y-6650546D01*
X15195369Y-6647086D01*
X15195369Y-6647086D01*
X15097631Y-6647086D01*
X15097631Y-6647086D01*
X15080234Y-6650546D01*
X15080233Y-6650547D01*
X15063846Y-6657334D01*
X15063845Y-6657335D01*
X15049096Y-6667189D01*
X15049096Y-6667190D01*
X15036554Y-6679732D01*
X15036553Y-6679732D01*
X15026699Y-6694481D01*
X15026698Y-6694482D01*
X15019911Y-6710869D01*
X15019910Y-6710870D01*
X15016450Y-6728266D01*
X15016450Y-6746005D01*
X15019910Y-6763402D01*
X15019911Y-6763403D01*
X15026698Y-6779790D01*
X15026699Y-6779791D01*
X15036553Y-6794539D01*
X15036554Y-6794540D01*
X15049096Y-6807082D01*
X15049096Y-6807082D01*
X15063845Y-6816937D01*
X15063846Y-6816938D01*
X15071776Y-6820222D01*
X15080233Y-6823725D01*
X15080234Y-6823725D01*
X15080234Y-6823726D01*
X15097630Y-6827186D01*
X15097631Y-6827186D01*
X15097631Y-6827186D01*
X15195369Y-6827186D01*
X15195369Y-6827186D01*
X15201589Y-6825949D01*
X15212766Y-6823726D01*
X15212766Y-6823725D01*
X15212767Y-6823725D01*
X15229155Y-6816937D01*
X15234076Y-6813649D01*
X15237161Y-6811588D01*
X15243828Y-6809500D01*
X15250566Y-6811348D01*
X15255236Y-6816546D01*
X15256450Y-6821898D01*
X15256450Y-6906374D01*
X15254481Y-6913078D01*
X15249201Y-6917653D01*
X15242285Y-6918648D01*
X15237161Y-6916684D01*
X15229156Y-6911335D01*
X15229154Y-6911334D01*
X15212767Y-6904547D01*
X15212766Y-6904546D01*
X15195369Y-6901086D01*
X15195369Y-6901086D01*
X15097631Y-6901086D01*
X15097631Y-6901086D01*
X15080234Y-6904546D01*
X15080233Y-6904547D01*
X15063846Y-6911334D01*
X15063845Y-6911335D01*
X15049096Y-6921189D01*
X15049096Y-6921190D01*
X15036554Y-6933732D01*
X15036553Y-6933732D01*
X15026699Y-6948481D01*
X15026698Y-6948482D01*
X15019911Y-6964869D01*
X15019910Y-6964870D01*
X15016450Y-6982266D01*
X15016450Y-7000005D01*
X15019910Y-7017402D01*
X15019911Y-7017403D01*
X15026698Y-7033790D01*
X15026699Y-7033791D01*
X15036553Y-7048539D01*
X15036554Y-7048540D01*
X15049096Y-7061082D01*
X15049096Y-7061082D01*
X15063845Y-7070937D01*
X15063846Y-7070938D01*
X15070761Y-7073802D01*
X15080233Y-7077725D01*
X15080234Y-7077725D01*
X15080234Y-7077726D01*
X15097630Y-7081186D01*
X15097631Y-7081186D01*
X15097631Y-7081186D01*
X15195369Y-7081186D01*
X15195369Y-7081186D01*
X15201168Y-7080032D01*
X15212766Y-7077726D01*
X15212766Y-7077725D01*
X15212767Y-7077725D01*
X15229155Y-7070937D01*
X15234076Y-7067649D01*
X15237161Y-7065588D01*
X15243828Y-7063500D01*
X15250566Y-7065348D01*
X15255236Y-7070546D01*
X15256450Y-7075898D01*
X15256450Y-7160374D01*
X15254481Y-7167078D01*
X15249201Y-7171653D01*
X15242285Y-7172648D01*
X15237161Y-7170684D01*
X15229156Y-7165335D01*
X15229154Y-7165334D01*
X15212767Y-7158547D01*
X15212766Y-7158546D01*
X15195369Y-7155086D01*
X15195369Y-7155086D01*
X15097631Y-7155086D01*
X15097631Y-7155086D01*
X15080234Y-7158546D01*
X15080233Y-7158547D01*
X15063846Y-7165334D01*
X15063845Y-7165335D01*
X15049096Y-7175189D01*
X15049096Y-7175190D01*
X15036554Y-7187732D01*
X15036553Y-7187732D01*
X15026699Y-7202481D01*
X15026698Y-7202482D01*
X15019911Y-7218869D01*
X15019910Y-7218870D01*
X15016450Y-7236266D01*
X15016450Y-7254005D01*
X15019910Y-7271402D01*
X15019911Y-7271403D01*
X15026698Y-7287790D01*
X15026699Y-7287791D01*
X15036553Y-7302539D01*
X15036554Y-7302540D01*
X15049096Y-7315082D01*
X15049096Y-7315082D01*
X15063845Y-7324937D01*
X15063846Y-7324938D01*
X15075821Y-7329898D01*
X15080233Y-7331725D01*
X15080234Y-7331725D01*
X15080234Y-7331726D01*
X15097630Y-7335186D01*
X15097631Y-7335186D01*
X15097631Y-7335186D01*
X15195369Y-7335186D01*
X15195369Y-7335186D01*
X15201168Y-7334032D01*
X15212766Y-7331726D01*
X15212766Y-7331725D01*
X15212767Y-7331725D01*
X15229155Y-7324937D01*
X15234076Y-7321649D01*
X15237161Y-7319588D01*
X15243828Y-7317500D01*
X15250566Y-7319348D01*
X15255236Y-7324546D01*
X15256450Y-7329898D01*
X15256450Y-7414374D01*
X15254481Y-7421078D01*
X15249201Y-7425653D01*
X15242285Y-7426648D01*
X15237161Y-7424684D01*
X15229156Y-7419335D01*
X15229154Y-7419334D01*
X15212767Y-7412547D01*
X15212766Y-7412546D01*
X15195369Y-7409086D01*
X15195369Y-7409086D01*
X15097631Y-7409086D01*
X15097631Y-7409086D01*
X15080234Y-7412546D01*
X15080233Y-7412547D01*
X15063846Y-7419334D01*
X15063845Y-7419335D01*
X15049096Y-7429189D01*
X15049096Y-7429190D01*
X15036554Y-7441732D01*
X15036553Y-7441732D01*
X15026699Y-7456481D01*
X15026698Y-7456482D01*
X15019911Y-7472869D01*
X15019910Y-7472870D01*
X15016450Y-7490266D01*
X15016450Y-7508005D01*
X15019910Y-7525402D01*
X15019911Y-7525403D01*
X15026698Y-7541790D01*
X15026699Y-7541791D01*
X15036553Y-7556539D01*
X15036554Y-7556540D01*
X15049096Y-7569082D01*
X15049096Y-7569082D01*
X15063845Y-7578937D01*
X15063846Y-7578938D01*
X15075588Y-7583801D01*
X15080233Y-7585725D01*
X15080234Y-7585725D01*
X15080234Y-7585726D01*
X15097630Y-7589186D01*
X15097631Y-7589186D01*
X15097631Y-7589186D01*
X15195369Y-7589186D01*
X15195369Y-7589186D01*
X15201168Y-7588032D01*
X15212766Y-7585726D01*
X15212766Y-7585725D01*
X15212767Y-7585725D01*
X15229155Y-7578937D01*
X15234972Y-7575050D01*
X15237161Y-7573588D01*
X15243828Y-7571500D01*
X15250566Y-7573348D01*
X15255236Y-7578546D01*
X15256450Y-7583898D01*
X15256450Y-7668374D01*
X15254481Y-7675078D01*
X15249201Y-7679653D01*
X15242285Y-7680648D01*
X15237161Y-7678684D01*
X15229156Y-7673335D01*
X15229154Y-7673334D01*
X15212767Y-7666547D01*
X15212766Y-7666546D01*
X15195369Y-7663086D01*
X15195369Y-7663086D01*
X15097631Y-7663086D01*
X15097631Y-7663086D01*
X15080234Y-7666546D01*
X15080233Y-7666547D01*
X15063846Y-7673334D01*
X15063845Y-7673335D01*
X15049096Y-7683189D01*
X15049096Y-7683190D01*
X15036554Y-7695732D01*
X15036553Y-7695732D01*
X15026699Y-7710481D01*
X15026698Y-7710482D01*
X15019911Y-7726869D01*
X15019910Y-7726870D01*
X15016450Y-7744266D01*
X15016450Y-7762005D01*
X15019910Y-7779402D01*
X15019911Y-7779403D01*
X15026698Y-7795790D01*
X15026699Y-7795791D01*
X15036553Y-7810539D01*
X15036554Y-7810540D01*
X15049096Y-7823082D01*
X15049096Y-7823082D01*
X15063845Y-7832937D01*
X15063846Y-7832938D01*
X15075821Y-7837898D01*
X15080233Y-7839725D01*
X15080234Y-7839725D01*
X15080234Y-7839726D01*
X15097630Y-7843186D01*
X15097631Y-7843186D01*
X15097631Y-7843186D01*
X15195369Y-7843186D01*
X15195369Y-7843186D01*
X15201168Y-7842032D01*
X15212766Y-7839726D01*
X15212766Y-7839725D01*
X15212767Y-7839725D01*
X15229155Y-7832937D01*
X15234076Y-7829649D01*
X15237161Y-7827588D01*
X15243828Y-7825500D01*
X15250566Y-7827348D01*
X15255236Y-7832546D01*
X15256450Y-7837898D01*
X15256450Y-7922374D01*
X15254481Y-7929078D01*
X15249201Y-7933653D01*
X15242285Y-7934648D01*
X15237161Y-7932684D01*
X15229156Y-7927335D01*
X15229154Y-7927334D01*
X15212767Y-7920547D01*
X15212766Y-7920546D01*
X15195369Y-7917086D01*
X15195369Y-7917086D01*
X15097631Y-7917086D01*
X15097631Y-7917086D01*
X15080234Y-7920546D01*
X15080233Y-7920547D01*
X15063846Y-7927334D01*
X15063845Y-7927335D01*
X15049096Y-7937189D01*
X15049096Y-7937190D01*
X15036554Y-7949732D01*
X15036553Y-7949732D01*
X15026699Y-7964481D01*
X15026698Y-7964482D01*
X15019911Y-7980869D01*
X15019910Y-7980870D01*
X15016450Y-7998266D01*
X15016450Y-8016005D01*
X15019910Y-8033402D01*
X15019911Y-8033403D01*
X15026698Y-8049790D01*
X15026699Y-8049791D01*
X15036553Y-8064539D01*
X15036554Y-8064540D01*
X15049096Y-8077082D01*
X15049096Y-8077082D01*
X15063845Y-8086937D01*
X15063846Y-8086938D01*
X15074374Y-8091298D01*
X15080233Y-8093725D01*
X15080234Y-8093725D01*
X15080234Y-8093726D01*
X15097630Y-8097186D01*
X15097631Y-8097186D01*
X15097631Y-8097186D01*
X15195369Y-8097186D01*
X15195369Y-8097186D01*
X15201168Y-8096032D01*
X15212766Y-8093726D01*
X15212766Y-8093725D01*
X15212767Y-8093725D01*
X15229155Y-8086937D01*
X15234076Y-8083649D01*
X15237161Y-8081588D01*
X15243828Y-8079500D01*
X15250566Y-8081348D01*
X15255236Y-8086546D01*
X15256450Y-8091898D01*
X15256450Y-8176374D01*
X15254481Y-8183078D01*
X15249201Y-8187653D01*
X15242285Y-8188648D01*
X15237161Y-8186684D01*
X15229156Y-8181335D01*
X15229154Y-8181334D01*
X15212767Y-8174547D01*
X15212766Y-8174546D01*
X15195369Y-8171086D01*
X15195369Y-8171086D01*
X15097631Y-8171086D01*
X15097631Y-8171086D01*
X15080234Y-8174546D01*
X15080233Y-8174547D01*
X15063846Y-8181334D01*
X15063845Y-8181335D01*
X15049096Y-8191189D01*
X15049096Y-8191190D01*
X15036554Y-8203732D01*
X15036553Y-8203732D01*
X15026699Y-8218481D01*
X15026698Y-8218482D01*
X15019911Y-8234869D01*
X15019910Y-8234870D01*
X15016450Y-8252266D01*
X15016450Y-8270005D01*
X15019910Y-8287402D01*
X15019911Y-8287403D01*
X15026698Y-8303790D01*
X15026699Y-8303791D01*
X15036553Y-8318539D01*
X15036554Y-8318540D01*
X15049096Y-8331082D01*
X15049096Y-8331082D01*
X15063845Y-8340937D01*
X15063846Y-8340938D01*
X15073533Y-8344950D01*
X15080233Y-8347725D01*
X15080234Y-8347725D01*
X15080234Y-8347726D01*
X15097630Y-8351186D01*
X15097631Y-8351186D01*
X15097631Y-8351186D01*
X15195369Y-8351186D01*
X15195369Y-8351186D01*
X15201168Y-8350032D01*
X15212766Y-8347726D01*
X15212766Y-8347725D01*
X15212767Y-8347725D01*
X15229155Y-8340937D01*
X15234076Y-8337649D01*
X15237161Y-8335588D01*
X15243828Y-8333500D01*
X15250566Y-8335348D01*
X15255236Y-8340546D01*
X15256450Y-8345898D01*
X15256450Y-8430374D01*
X15254481Y-8437078D01*
X15249201Y-8441653D01*
X15242285Y-8442648D01*
X15237161Y-8440684D01*
X15229156Y-8435335D01*
X15229154Y-8435334D01*
X15212767Y-8428547D01*
X15212766Y-8428546D01*
X15195369Y-8425086D01*
X15195369Y-8425086D01*
X15097631Y-8425086D01*
X15097631Y-8425086D01*
X15080234Y-8428546D01*
X15080233Y-8428547D01*
X15063846Y-8435334D01*
X15063845Y-8435335D01*
X15049096Y-8445190D01*
X15049096Y-8445190D01*
X15036554Y-8457732D01*
X15036553Y-8457733D01*
X15026699Y-8472481D01*
X15026698Y-8472482D01*
X15019911Y-8488869D01*
X15019910Y-8488870D01*
X15016450Y-8506266D01*
X15016450Y-8524006D01*
X15019910Y-8541402D01*
X15019911Y-8541403D01*
X15026698Y-8557790D01*
X15026699Y-8557791D01*
X15036553Y-8572539D01*
X15036554Y-8572540D01*
X15049096Y-8585082D01*
X15049096Y-8585082D01*
X15063845Y-8594937D01*
X15063846Y-8594938D01*
X15075821Y-8599898D01*
X15080233Y-8601725D01*
X15080234Y-8601725D01*
X15080234Y-8601726D01*
X15097630Y-8605186D01*
X15097631Y-8605186D01*
X15097631Y-8605186D01*
X15195369Y-8605186D01*
X15195369Y-8605186D01*
X15201168Y-8604032D01*
X15212766Y-8601726D01*
X15212766Y-8601725D01*
X15212767Y-8601725D01*
X15229155Y-8594937D01*
X15234076Y-8591649D01*
X15237161Y-8589588D01*
X15243828Y-8587500D01*
X15250566Y-8589348D01*
X15255236Y-8594546D01*
X15256450Y-8599898D01*
X15256450Y-8684374D01*
X15254481Y-8691078D01*
X15249201Y-8695653D01*
X15242285Y-8696648D01*
X15237161Y-8694684D01*
X15229156Y-8689335D01*
X15229154Y-8689334D01*
X15212767Y-8682547D01*
X15212766Y-8682546D01*
X15195369Y-8679086D01*
X15195369Y-8679086D01*
X15097631Y-8679086D01*
X15097631Y-8679086D01*
X15080234Y-8682546D01*
X15080233Y-8682547D01*
X15063846Y-8689334D01*
X15063845Y-8689335D01*
X15049096Y-8699190D01*
X15049096Y-8699190D01*
X15036554Y-8711732D01*
X15036553Y-8711733D01*
X15026699Y-8726481D01*
X15026698Y-8726482D01*
X15019911Y-8742869D01*
X15019910Y-8742870D01*
X15016450Y-8760266D01*
X15016450Y-8778006D01*
X15019910Y-8795402D01*
X15019911Y-8795403D01*
X15026698Y-8811790D01*
X15026699Y-8811791D01*
X15036553Y-8826539D01*
X15036554Y-8826540D01*
X15049096Y-8839082D01*
X15049096Y-8839082D01*
X15063845Y-8848937D01*
X15063846Y-8848938D01*
X15073056Y-8852753D01*
X15080233Y-8855725D01*
X15080234Y-8855725D01*
X15080234Y-8855726D01*
X15097630Y-8859186D01*
X15097631Y-8859186D01*
X15097631Y-8859186D01*
X15195369Y-8859186D01*
X15195369Y-8859186D01*
X15201168Y-8858032D01*
X15212766Y-8855726D01*
X15212766Y-8855725D01*
X15212767Y-8855725D01*
X15229155Y-8848937D01*
X15234076Y-8845649D01*
X15237161Y-8843588D01*
X15243828Y-8841500D01*
X15250566Y-8843348D01*
X15255236Y-8848546D01*
X15256450Y-8853898D01*
X15256450Y-8938374D01*
X15254481Y-8945078D01*
X15249201Y-8949653D01*
X15242285Y-8950648D01*
X15237161Y-8948684D01*
X15229156Y-8943335D01*
X15229154Y-8943334D01*
X15212767Y-8936547D01*
X15212766Y-8936546D01*
X15195369Y-8933086D01*
X15195369Y-8933086D01*
X15097631Y-8933086D01*
X15097631Y-8933086D01*
X15080234Y-8936546D01*
X15080233Y-8936547D01*
X15063846Y-8943334D01*
X15063845Y-8943335D01*
X15049096Y-8953190D01*
X15049096Y-8953190D01*
X15036554Y-8965732D01*
X15036553Y-8965733D01*
X15026699Y-8980481D01*
X15026698Y-8980482D01*
X15019911Y-8996869D01*
X15019910Y-8996870D01*
X15016450Y-9014266D01*
X15016450Y-9032006D01*
X15019910Y-9049402D01*
X15019911Y-9049403D01*
X15026698Y-9065790D01*
X15026699Y-9065791D01*
X15036553Y-9080539D01*
X15036554Y-9080540D01*
X15049096Y-9093082D01*
X15049096Y-9093082D01*
X15063845Y-9102937D01*
X15063846Y-9102938D01*
X15075821Y-9107898D01*
X15080233Y-9109725D01*
X15080234Y-9109725D01*
X15080234Y-9109726D01*
X15097630Y-9113186D01*
X15097631Y-9113186D01*
X15097631Y-9113186D01*
X15195369Y-9113186D01*
X15195369Y-9113186D01*
X15201168Y-9112032D01*
X15212766Y-9109726D01*
X15212766Y-9109725D01*
X15212767Y-9109725D01*
X15229155Y-9102937D01*
X15234076Y-9099649D01*
X15237161Y-9097588D01*
X15243828Y-9095500D01*
X15250566Y-9097348D01*
X15255236Y-9102546D01*
X15256450Y-9107898D01*
X15256450Y-9192374D01*
X15254481Y-9199078D01*
X15249201Y-9203653D01*
X15242285Y-9204648D01*
X15237161Y-9202684D01*
X15229156Y-9197335D01*
X15229154Y-9197334D01*
X15212767Y-9190547D01*
X15212766Y-9190546D01*
X15195369Y-9187086D01*
X15195369Y-9187086D01*
X15097631Y-9187086D01*
X15097631Y-9187086D01*
X15080234Y-9190546D01*
X15080233Y-9190547D01*
X15063846Y-9197334D01*
X15063845Y-9197335D01*
X15049096Y-9207190D01*
X15049096Y-9207190D01*
X15036554Y-9219732D01*
X15036553Y-9219733D01*
X15026699Y-9234481D01*
X15026698Y-9234482D01*
X15019911Y-9250869D01*
X15019910Y-9250870D01*
X15016450Y-9268266D01*
X15016450Y-9286006D01*
X15019910Y-9303402D01*
X15019911Y-9303403D01*
X15026698Y-9319790D01*
X15026699Y-9319791D01*
X15036553Y-9334539D01*
X15036554Y-9334540D01*
X15049096Y-9347082D01*
X15049096Y-9347082D01*
X15063845Y-9356937D01*
X15063846Y-9356938D01*
X15075821Y-9361898D01*
X15080233Y-9363725D01*
X15080234Y-9363725D01*
X15080234Y-9363726D01*
X15097630Y-9367186D01*
X15097631Y-9367186D01*
X15097631Y-9367186D01*
X15195369Y-9367186D01*
X15195369Y-9367186D01*
X15201168Y-9366032D01*
X15212766Y-9363726D01*
X15212766Y-9363725D01*
X15212767Y-9363725D01*
X15229155Y-9356937D01*
X15234076Y-9353649D01*
X15237161Y-9351588D01*
X15243828Y-9349500D01*
X15250566Y-9351348D01*
X15255236Y-9356546D01*
X15256450Y-9361898D01*
X15256450Y-9446374D01*
X15254481Y-9453078D01*
X15249201Y-9457653D01*
X15242285Y-9458648D01*
X15237161Y-9456684D01*
X15229156Y-9451335D01*
X15229154Y-9451334D01*
X15212767Y-9444547D01*
X15212766Y-9444546D01*
X15195369Y-9441086D01*
X15195369Y-9441086D01*
X15097631Y-9441086D01*
X15097631Y-9441086D01*
X15080234Y-9444546D01*
X15080233Y-9444547D01*
X15063846Y-9451334D01*
X15063845Y-9451335D01*
X15049096Y-9461190D01*
X15049096Y-9461190D01*
X15036554Y-9473732D01*
X15036553Y-9473733D01*
X15026699Y-9488481D01*
X15026698Y-9488482D01*
X15019911Y-9504869D01*
X15019910Y-9504870D01*
X15016450Y-9522266D01*
X15016450Y-9540006D01*
X15019910Y-9557402D01*
X15019911Y-9557403D01*
X15026698Y-9573790D01*
X15026699Y-9573791D01*
X15036553Y-9588539D01*
X15036554Y-9588540D01*
X15049096Y-9601082D01*
X15049096Y-9601082D01*
X15063845Y-9610937D01*
X15063846Y-9610938D01*
X15075821Y-9615898D01*
X15080233Y-9617725D01*
X15080234Y-9617725D01*
X15080234Y-9617726D01*
X15097630Y-9621186D01*
X15097631Y-9621186D01*
X15097631Y-9621186D01*
X15195369Y-9621186D01*
X15195369Y-9621186D01*
X15201168Y-9620032D01*
X15212766Y-9617726D01*
X15212766Y-9617725D01*
X15212767Y-9617725D01*
X15229155Y-9610937D01*
X15234076Y-9607649D01*
X15237161Y-9605588D01*
X15243828Y-9603500D01*
X15250566Y-9605348D01*
X15255236Y-9610546D01*
X15256450Y-9615898D01*
X15256450Y-9700374D01*
X15254481Y-9707078D01*
X15249201Y-9711653D01*
X15242285Y-9712648D01*
X15237161Y-9710684D01*
X15229156Y-9705335D01*
X15229154Y-9705334D01*
X15212767Y-9698547D01*
X15212766Y-9698546D01*
X15195369Y-9695086D01*
X15195369Y-9695086D01*
X15097631Y-9695086D01*
X15097631Y-9695086D01*
X15080234Y-9698546D01*
X15080233Y-9698547D01*
X15063846Y-9705334D01*
X15063845Y-9705335D01*
X15049096Y-9715190D01*
X15049096Y-9715190D01*
X15036554Y-9727732D01*
X15036553Y-9727733D01*
X15026699Y-9742481D01*
X15026698Y-9742482D01*
X15019911Y-9758869D01*
X15019910Y-9758870D01*
X15016450Y-9776266D01*
X15016450Y-9794006D01*
X15019910Y-9811402D01*
X15019911Y-9811403D01*
X15026698Y-9827790D01*
X15026699Y-9827791D01*
X15036553Y-9842539D01*
X15036554Y-9842540D01*
X15049096Y-9855082D01*
X15049096Y-9855082D01*
X15063845Y-9864937D01*
X15063846Y-9864938D01*
X15075821Y-9869898D01*
X15080233Y-9871725D01*
X15080234Y-9871725D01*
X15080234Y-9871726D01*
X15097630Y-9875186D01*
X15097631Y-9875186D01*
X15097631Y-9875186D01*
X15195369Y-9875186D01*
X15195369Y-9875186D01*
X15201168Y-9874032D01*
X15212766Y-9871726D01*
X15212766Y-9871725D01*
X15212767Y-9871725D01*
X15229155Y-9864937D01*
X15234076Y-9861649D01*
X15237161Y-9859588D01*
X15243828Y-9857500D01*
X15250566Y-9859348D01*
X15255236Y-9864546D01*
X15256450Y-9869898D01*
X15256450Y-9954374D01*
X15254481Y-9961078D01*
X15249201Y-9965653D01*
X15242285Y-9966648D01*
X15237161Y-9964684D01*
X15229156Y-9959335D01*
X15229154Y-9959334D01*
X15212767Y-9952547D01*
X15212766Y-9952546D01*
X15195369Y-9949086D01*
X15195369Y-9949086D01*
X15097631Y-9949086D01*
X15097631Y-9949086D01*
X15080234Y-9952546D01*
X15080233Y-9952547D01*
X15063846Y-9959334D01*
X15063845Y-9959335D01*
X15049096Y-9969190D01*
X15049096Y-9969190D01*
X15036554Y-9981732D01*
X15036553Y-9981733D01*
X15026699Y-9996481D01*
X15026698Y-9996482D01*
X15019911Y-10012869D01*
X15019910Y-10012870D01*
X15016450Y-10030266D01*
X15016450Y-10048006D01*
X15019910Y-10065402D01*
X15019911Y-10065403D01*
X15026698Y-10081790D01*
X15026699Y-10081791D01*
X15036553Y-10096539D01*
X15036554Y-10096540D01*
X15049096Y-10109082D01*
X15049096Y-10109082D01*
X15063845Y-10118937D01*
X15063846Y-10118938D01*
X15075821Y-10123898D01*
X15080233Y-10125725D01*
X15080234Y-10125725D01*
X15080234Y-10125726D01*
X15097630Y-10129186D01*
X15097631Y-10129186D01*
X15097631Y-10129186D01*
X15195369Y-10129186D01*
X15195369Y-10129186D01*
X15201168Y-10128032D01*
X15212766Y-10125726D01*
X15212766Y-10125725D01*
X15212767Y-10125725D01*
X15229155Y-10118937D01*
X15234076Y-10115649D01*
X15237161Y-10113588D01*
X15243828Y-10111500D01*
X15250566Y-10113348D01*
X15255236Y-10118546D01*
X15256450Y-10123898D01*
X15256450Y-10208374D01*
X15254481Y-10215078D01*
X15249201Y-10219653D01*
X15242285Y-10220648D01*
X15237161Y-10218684D01*
X15229156Y-10213335D01*
X15229154Y-10213334D01*
X15212767Y-10206547D01*
X15212766Y-10206546D01*
X15195369Y-10203086D01*
X15195369Y-10203086D01*
X15097631Y-10203086D01*
X15097631Y-10203086D01*
X15080234Y-10206546D01*
X15080233Y-10206547D01*
X15063846Y-10213334D01*
X15063845Y-10213335D01*
X15049096Y-10223190D01*
X15049096Y-10223190D01*
X15036554Y-10235732D01*
X15036553Y-10235733D01*
X15026699Y-10250481D01*
X15026698Y-10250482D01*
X15019911Y-10266869D01*
X15019910Y-10266870D01*
X15016450Y-10284266D01*
X15016450Y-10302006D01*
X15019910Y-10319402D01*
X15019911Y-10319403D01*
X15026698Y-10335790D01*
X15026699Y-10335791D01*
X15036553Y-10350539D01*
X15036554Y-10350540D01*
X15049096Y-10363082D01*
X15049096Y-10363082D01*
X15063845Y-10372937D01*
X15063846Y-10372938D01*
X15075821Y-10377898D01*
X15080233Y-10379725D01*
X15080234Y-10379725D01*
X15080234Y-10379726D01*
X15097630Y-10383186D01*
X15097631Y-10383186D01*
X15097631Y-10383186D01*
X15195369Y-10383186D01*
X15195369Y-10383186D01*
X15201168Y-10382032D01*
X15212766Y-10379726D01*
X15212766Y-10379725D01*
X15212767Y-10379725D01*
X15229155Y-10372937D01*
X15234076Y-10369649D01*
X15237161Y-10367588D01*
X15243828Y-10365500D01*
X15250566Y-10367348D01*
X15255236Y-10372546D01*
X15256450Y-10377898D01*
X15256450Y-10462374D01*
X15254481Y-10469078D01*
X15249201Y-10473653D01*
X15242285Y-10474648D01*
X15237161Y-10472684D01*
X15229156Y-10467335D01*
X15229154Y-10467334D01*
X15212767Y-10460547D01*
X15212766Y-10460546D01*
X15195369Y-10457086D01*
X15195369Y-10457086D01*
X15097631Y-10457086D01*
X15097631Y-10457086D01*
X15080234Y-10460546D01*
X15080233Y-10460547D01*
X15063846Y-10467334D01*
X15063845Y-10467335D01*
X15049096Y-10477190D01*
X15049096Y-10477190D01*
X15036554Y-10489732D01*
X15036553Y-10489733D01*
X15026699Y-10504481D01*
X15026698Y-10504482D01*
X15019911Y-10520869D01*
X15019910Y-10520870D01*
X15016450Y-10538266D01*
X15016450Y-10556006D01*
X15019910Y-10573402D01*
X15019911Y-10573403D01*
X15026698Y-10589790D01*
X15026699Y-10589791D01*
X15036553Y-10604539D01*
X15036554Y-10604540D01*
X15049096Y-10617082D01*
X15049096Y-10617082D01*
X15063845Y-10626937D01*
X15063846Y-10626938D01*
X15075821Y-10631898D01*
X15080233Y-10633725D01*
X15080234Y-10633725D01*
X15080234Y-10633726D01*
X15097630Y-10637186D01*
X15097631Y-10637186D01*
X15097631Y-10637186D01*
X15195369Y-10637186D01*
X15195369Y-10637186D01*
X15201589Y-10635949D01*
X15212766Y-10633726D01*
X15212766Y-10633725D01*
X15212767Y-10633725D01*
X15229155Y-10626937D01*
X15234076Y-10623649D01*
X15237161Y-10621588D01*
X15243828Y-10619500D01*
X15250566Y-10621348D01*
X15255236Y-10626546D01*
X15256450Y-10631898D01*
X15256450Y-10716374D01*
X15254481Y-10723078D01*
X15249201Y-10727653D01*
X15242285Y-10728648D01*
X15237161Y-10726684D01*
X15229156Y-10721335D01*
X15229154Y-10721334D01*
X15212767Y-10714547D01*
X15212766Y-10714546D01*
X15195369Y-10711086D01*
X15195369Y-10711086D01*
X15097631Y-10711086D01*
X15097631Y-10711086D01*
X15080234Y-10714546D01*
X15080233Y-10714547D01*
X15063846Y-10721334D01*
X15063845Y-10721335D01*
X15049096Y-10731190D01*
X15049096Y-10731190D01*
X15036554Y-10743732D01*
X15036553Y-10743733D01*
X15026699Y-10758481D01*
X15026698Y-10758482D01*
X15019911Y-10774869D01*
X15019910Y-10774870D01*
X15016450Y-10792266D01*
X15016450Y-10810006D01*
X15019910Y-10827402D01*
X15019911Y-10827403D01*
X15026698Y-10843790D01*
X15026699Y-10843791D01*
X15036553Y-10858539D01*
X15036554Y-10858540D01*
X15049096Y-10871082D01*
X15049096Y-10871082D01*
X15063845Y-10880937D01*
X15063846Y-10880938D01*
X15075758Y-10885872D01*
X15080233Y-10887725D01*
X15080234Y-10887725D01*
X15080234Y-10887726D01*
X15097630Y-10891186D01*
X15097631Y-10891186D01*
X15097631Y-10891186D01*
X15195369Y-10891186D01*
X15195369Y-10891186D01*
X15201168Y-10890032D01*
X15212766Y-10887726D01*
X15212766Y-10887725D01*
X15212767Y-10887725D01*
X15229155Y-10880937D01*
X15236171Y-10876249D01*
X15237161Y-10875588D01*
X15243828Y-10873500D01*
X15250566Y-10875348D01*
X15255236Y-10880546D01*
X15256450Y-10885898D01*
X15256450Y-10970374D01*
X15254481Y-10977078D01*
X15249201Y-10981653D01*
X15242285Y-10982648D01*
X15237161Y-10980684D01*
X15229156Y-10975335D01*
X15229154Y-10975334D01*
X15212767Y-10968547D01*
X15212766Y-10968546D01*
X15195369Y-10965086D01*
X15195369Y-10965086D01*
X15097631Y-10965086D01*
X15097631Y-10965086D01*
X15080234Y-10968546D01*
X15080233Y-10968547D01*
X15063846Y-10975334D01*
X15063845Y-10975335D01*
X15049096Y-10985190D01*
X15049096Y-10985190D01*
X15036554Y-10997732D01*
X15036553Y-10997733D01*
X15026699Y-11012481D01*
X15026698Y-11012482D01*
X15019911Y-11028869D01*
X15019910Y-11028870D01*
X15016450Y-11046266D01*
X15016450Y-11064006D01*
X15019910Y-11081402D01*
X15019911Y-11081403D01*
X15026698Y-11097790D01*
X15026699Y-11097791D01*
X15036553Y-11112539D01*
X15036554Y-11112540D01*
X15049096Y-11125082D01*
X15049096Y-11125082D01*
X15063845Y-11134937D01*
X15063846Y-11134938D01*
X15075758Y-11139872D01*
X15080233Y-11141725D01*
X15080234Y-11141725D01*
X15080234Y-11141726D01*
X15097630Y-11145186D01*
X15097631Y-11145186D01*
X15097631Y-11145186D01*
X15195369Y-11145186D01*
X15195369Y-11145186D01*
X15201168Y-11144032D01*
X15212766Y-11141726D01*
X15212766Y-11141725D01*
X15212767Y-11141725D01*
X15229155Y-11134937D01*
X15234076Y-11131649D01*
X15237161Y-11129588D01*
X15243828Y-11127500D01*
X15250566Y-11129348D01*
X15255236Y-11134546D01*
X15256450Y-11139898D01*
X15256450Y-11224374D01*
X15254481Y-11231078D01*
X15249201Y-11235653D01*
X15242285Y-11236648D01*
X15237161Y-11234684D01*
X15229156Y-11229335D01*
X15229154Y-11229334D01*
X15212767Y-11222547D01*
X15212766Y-11222546D01*
X15195369Y-11219086D01*
X15195369Y-11219086D01*
X15097631Y-11219086D01*
X15097631Y-11219086D01*
X15080234Y-11222546D01*
X15080233Y-11222547D01*
X15063846Y-11229334D01*
X15063845Y-11229335D01*
X15049096Y-11239189D01*
X15049096Y-11239190D01*
X15036554Y-11251732D01*
X15036553Y-11251732D01*
X15026699Y-11266481D01*
X15026698Y-11266482D01*
X15019911Y-11282869D01*
X15019910Y-11282870D01*
X15016450Y-11300266D01*
X15016450Y-11318005D01*
X15019910Y-11335402D01*
X15019911Y-11335403D01*
X15026698Y-11351790D01*
X15026699Y-11351791D01*
X15036553Y-11366539D01*
X15036554Y-11366540D01*
X15049096Y-11379082D01*
X15049096Y-11379082D01*
X15063845Y-11388937D01*
X15063846Y-11388938D01*
X15075758Y-11393872D01*
X15080233Y-11395725D01*
X15080234Y-11395725D01*
X15080234Y-11395726D01*
X15097630Y-11399186D01*
X15097631Y-11399186D01*
X15097631Y-11399186D01*
X15195369Y-11399186D01*
X15195369Y-11399186D01*
X15201168Y-11398032D01*
X15212766Y-11395726D01*
X15212766Y-11395725D01*
X15212767Y-11395725D01*
X15229155Y-11388937D01*
X15234076Y-11385649D01*
X15237161Y-11383588D01*
X15243828Y-11381500D01*
X15250566Y-11383348D01*
X15255236Y-11388546D01*
X15256450Y-11393898D01*
X15256450Y-12202414D01*
X15254481Y-12209118D01*
X15249201Y-12213693D01*
X15244050Y-12214814D01*
X15195330Y-12214814D01*
X15188626Y-12212845D01*
X15184051Y-12207565D01*
X15183056Y-12200649D01*
X15185959Y-12194294D01*
X15186562Y-12193646D01*
X15189179Y-12191029D01*
X15189179Y-12191029D01*
X15197939Y-12177918D01*
X15203974Y-12163350D01*
X15207050Y-12147884D01*
X15207050Y-12052116D01*
X15207050Y-12052115D01*
X15207050Y-12052115D01*
X15203974Y-12036651D01*
X15203974Y-12036650D01*
X15203973Y-12036650D01*
X15197940Y-12022083D01*
X15197939Y-12022081D01*
X15189179Y-12008971D01*
X15189179Y-12008971D01*
X15178029Y-11997821D01*
X15178029Y-11997821D01*
X15164918Y-11989061D01*
X15164917Y-11989060D01*
X15150350Y-11983026D01*
X15150349Y-11983026D01*
X15134884Y-11979950D01*
X15134884Y-11979950D01*
X15119116Y-11979950D01*
X15119115Y-11979950D01*
X15103651Y-11983026D01*
X15103650Y-11983026D01*
X15089083Y-11989060D01*
X15089081Y-11989061D01*
X15075971Y-11997821D01*
X15075971Y-11997821D01*
X15064821Y-12008971D01*
X15064821Y-12008971D01*
X15056061Y-12022081D01*
X15056060Y-12022083D01*
X15050026Y-12036650D01*
X15050026Y-12036651D01*
X15046950Y-12052115D01*
X15046950Y-12147885D01*
X15050026Y-12163349D01*
X15050026Y-12163350D01*
X15056060Y-12177917D01*
X15056061Y-12177918D01*
X15064821Y-12191029D01*
X15064821Y-12191029D01*
X15067438Y-12193646D01*
X15070786Y-12199778D01*
X15070288Y-12206747D01*
X15066101Y-12212341D01*
X15059554Y-12214782D01*
X15058670Y-12214814D01*
X14331330Y-12214814D01*
X14324626Y-12212845D01*
X14320051Y-12207565D01*
X14319056Y-12200649D01*
X14321959Y-12194294D01*
X14322562Y-12193646D01*
X14325179Y-12191029D01*
X14325179Y-12191029D01*
X14333939Y-12177918D01*
X14339974Y-12163350D01*
X14343050Y-12147884D01*
X14343050Y-12092752D01*
X14464950Y-12092752D01*
X14464950Y-12107247D01*
X14468702Y-12121248D01*
X14468702Y-12121249D01*
X14475949Y-12133801D01*
X14475949Y-12133801D01*
X14475949Y-12133801D01*
X14486198Y-12144051D01*
X14486199Y-12144051D01*
X14486199Y-12144051D01*
X14498751Y-12151298D01*
X14498751Y-12151298D01*
X14498751Y-12151298D01*
X14512752Y-12155050D01*
X14512753Y-12155050D01*
X14527247Y-12155050D01*
X14527247Y-12155050D01*
X14541248Y-12151298D01*
X14553801Y-12144051D01*
X14564051Y-12133801D01*
X14571298Y-12121248D01*
X14575050Y-12107247D01*
X14575050Y-12092752D01*
X14864950Y-12092752D01*
X14864950Y-12107247D01*
X14868702Y-12121248D01*
X14868702Y-12121249D01*
X14875949Y-12133801D01*
X14875949Y-12133801D01*
X14875949Y-12133801D01*
X14886198Y-12144051D01*
X14886199Y-12144051D01*
X14886199Y-12144051D01*
X14898751Y-12151298D01*
X14898751Y-12151298D01*
X14898751Y-12151298D01*
X14912752Y-12155050D01*
X14912753Y-12155050D01*
X14927247Y-12155050D01*
X14927247Y-12155050D01*
X14941248Y-12151298D01*
X14953801Y-12144051D01*
X14964051Y-12133801D01*
X14971298Y-12121248D01*
X14975050Y-12107247D01*
X14975050Y-12092752D01*
X14971298Y-12078751D01*
X14969680Y-12075949D01*
X14964051Y-12066199D01*
X14964051Y-12066198D01*
X14953802Y-12055949D01*
X14953801Y-12055949D01*
X14941249Y-12048702D01*
X14941249Y-12048702D01*
X14940101Y-12048394D01*
X14927247Y-12044950D01*
X14912752Y-12044950D01*
X14899899Y-12048394D01*
X14898751Y-12048702D01*
X14886199Y-12055949D01*
X14886198Y-12055949D01*
X14875949Y-12066198D01*
X14875949Y-12066199D01*
X14868702Y-12078751D01*
X14868702Y-12078751D01*
X14864950Y-12092752D01*
X14575050Y-12092752D01*
X14571298Y-12078751D01*
X14569680Y-12075949D01*
X14564051Y-12066199D01*
X14564051Y-12066198D01*
X14553802Y-12055949D01*
X14553801Y-12055949D01*
X14541249Y-12048702D01*
X14541249Y-12048702D01*
X14540101Y-12048394D01*
X14527247Y-12044950D01*
X14512752Y-12044950D01*
X14499899Y-12048394D01*
X14498751Y-12048702D01*
X14486199Y-12055949D01*
X14486198Y-12055949D01*
X14475949Y-12066198D01*
X14475949Y-12066199D01*
X14468702Y-12078751D01*
X14468702Y-12078751D01*
X14464950Y-12092752D01*
X14343050Y-12092752D01*
X14343050Y-12052116D01*
X14343050Y-12052115D01*
X14343050Y-12052115D01*
X14339974Y-12036651D01*
X14339974Y-12036650D01*
X14339973Y-12036650D01*
X14333940Y-12022083D01*
X14333939Y-12022081D01*
X14325179Y-12008971D01*
X14325179Y-12008971D01*
X14314029Y-11997821D01*
X14314029Y-11997821D01*
X14300918Y-11989061D01*
X14300917Y-11989060D01*
X14286350Y-11983026D01*
X14286349Y-11983026D01*
X14270884Y-11979950D01*
X14270884Y-11979950D01*
X14255116Y-11979950D01*
X14255115Y-11979950D01*
X14239651Y-11983026D01*
X14239650Y-11983026D01*
X14225083Y-11989060D01*
X14225081Y-11989061D01*
X14211971Y-11997821D01*
X14211971Y-11997821D01*
X14200821Y-12008971D01*
X14200821Y-12008971D01*
X14192061Y-12022081D01*
X14192060Y-12022083D01*
X14186026Y-12036650D01*
X14186026Y-12036651D01*
X14182950Y-12052115D01*
X14182950Y-12147885D01*
X14186026Y-12163349D01*
X14186026Y-12163350D01*
X14192060Y-12177917D01*
X14192061Y-12177918D01*
X14200821Y-12191029D01*
X14200821Y-12191029D01*
X14203438Y-12193646D01*
X14206786Y-12199778D01*
X14206288Y-12206747D01*
X14202101Y-12212341D01*
X14195554Y-12214782D01*
X14194670Y-12214814D01*
X13808330Y-12214814D01*
X13801626Y-12212845D01*
X13797051Y-12207565D01*
X13796056Y-12200649D01*
X13798959Y-12194294D01*
X13799562Y-12193646D01*
X13802179Y-12191029D01*
X13802179Y-12191029D01*
X13810939Y-12177918D01*
X13816974Y-12163350D01*
X13820050Y-12147884D01*
X13820050Y-12092752D01*
X13944950Y-12092752D01*
X13944950Y-12107247D01*
X13948702Y-12121248D01*
X13948702Y-12121249D01*
X13955949Y-12133801D01*
X13955949Y-12133801D01*
X13955949Y-12133801D01*
X13966198Y-12144051D01*
X13966199Y-12144051D01*
X13966199Y-12144051D01*
X13978751Y-12151298D01*
X13978751Y-12151298D01*
X13978751Y-12151298D01*
X13992752Y-12155050D01*
X13992753Y-12155050D01*
X14007247Y-12155050D01*
X14007247Y-12155050D01*
X14021248Y-12151298D01*
X14033801Y-12144051D01*
X14044051Y-12133801D01*
X14051298Y-12121248D01*
X14055050Y-12107247D01*
X14055050Y-12092752D01*
X14051298Y-12078751D01*
X14049680Y-12075949D01*
X14044051Y-12066199D01*
X14044051Y-12066198D01*
X14033802Y-12055949D01*
X14033801Y-12055949D01*
X14021249Y-12048702D01*
X14021249Y-12048702D01*
X14020101Y-12048394D01*
X14007247Y-12044950D01*
X13992752Y-12044950D01*
X13979899Y-12048394D01*
X13978751Y-12048702D01*
X13966199Y-12055949D01*
X13966198Y-12055949D01*
X13955949Y-12066198D01*
X13955949Y-12066199D01*
X13948702Y-12078751D01*
X13948702Y-12078751D01*
X13944950Y-12092752D01*
X13820050Y-12092752D01*
X13820050Y-12052116D01*
X13820050Y-12052115D01*
X13820050Y-12052115D01*
X13816974Y-12036651D01*
X13816974Y-12036650D01*
X13816973Y-12036650D01*
X13810940Y-12022083D01*
X13810939Y-12022081D01*
X13802179Y-12008971D01*
X13802179Y-12008971D01*
X13791029Y-11997821D01*
X13791029Y-11997821D01*
X13777918Y-11989061D01*
X13777917Y-11989060D01*
X13763350Y-11983026D01*
X13763349Y-11983026D01*
X13747884Y-11979950D01*
X13747884Y-11979950D01*
X13732116Y-11979950D01*
X13732115Y-11979950D01*
X13716651Y-11983026D01*
X13716650Y-11983026D01*
X13702083Y-11989060D01*
X13702081Y-11989061D01*
X13688971Y-11997821D01*
X13688971Y-11997821D01*
X13677821Y-12008971D01*
X13677821Y-12008971D01*
X13669061Y-12022081D01*
X13669060Y-12022083D01*
X13663026Y-12036650D01*
X13663026Y-12036651D01*
X13659950Y-12052115D01*
X13659950Y-12147885D01*
X13663026Y-12163349D01*
X13663026Y-12163350D01*
X13669060Y-12177917D01*
X13669061Y-12177918D01*
X13677821Y-12191029D01*
X13677821Y-12191029D01*
X13680438Y-12193646D01*
X13683786Y-12199778D01*
X13683288Y-12206747D01*
X13679101Y-12212341D01*
X13672554Y-12214782D01*
X13671670Y-12214814D01*
X12944330Y-12214814D01*
X12937626Y-12212845D01*
X12933051Y-12207565D01*
X12932056Y-12200649D01*
X12934959Y-12194294D01*
X12935562Y-12193646D01*
X12938179Y-12191029D01*
X12938179Y-12191029D01*
X12946939Y-12177918D01*
X12952974Y-12163350D01*
X12956050Y-12147884D01*
X12956050Y-12112752D01*
X13084950Y-12112752D01*
X13084950Y-12127247D01*
X13088702Y-12141248D01*
X13088702Y-12141249D01*
X13095949Y-12153801D01*
X13095949Y-12153801D01*
X13095949Y-12153801D01*
X13106198Y-12164051D01*
X13106199Y-12164051D01*
X13106199Y-12164051D01*
X13118751Y-12171298D01*
X13118751Y-12171298D01*
X13118751Y-12171298D01*
X13132752Y-12175050D01*
X13132753Y-12175050D01*
X13147247Y-12175050D01*
X13147247Y-12175050D01*
X13161248Y-12171298D01*
X13173801Y-12164051D01*
X13184051Y-12153801D01*
X13191298Y-12141248D01*
X13195050Y-12127247D01*
X13195050Y-12112752D01*
X13444950Y-12112752D01*
X13444950Y-12127247D01*
X13448702Y-12141248D01*
X13448702Y-12141249D01*
X13455949Y-12153801D01*
X13455949Y-12153801D01*
X13455949Y-12153801D01*
X13466198Y-12164051D01*
X13466199Y-12164051D01*
X13466199Y-12164051D01*
X13478751Y-12171298D01*
X13478751Y-12171298D01*
X13478751Y-12171298D01*
X13492752Y-12175050D01*
X13492753Y-12175050D01*
X13507247Y-12175050D01*
X13507247Y-12175050D01*
X13521248Y-12171298D01*
X13533801Y-12164051D01*
X13544051Y-12153801D01*
X13551298Y-12141248D01*
X13555050Y-12127247D01*
X13555050Y-12112752D01*
X13551298Y-12098751D01*
X13544051Y-12086198D01*
X13533801Y-12075949D01*
X13533801Y-12075949D01*
X13533801Y-12075949D01*
X13521249Y-12068702D01*
X13521249Y-12068702D01*
X13520101Y-12068394D01*
X13507247Y-12064950D01*
X13492752Y-12064950D01*
X13479899Y-12068394D01*
X13478751Y-12068702D01*
X13466199Y-12075949D01*
X13466198Y-12075949D01*
X13455949Y-12086198D01*
X13455949Y-12086199D01*
X13448702Y-12098751D01*
X13448702Y-12098751D01*
X13444950Y-12112752D01*
X13195050Y-12112752D01*
X13191298Y-12098751D01*
X13184051Y-12086198D01*
X13173801Y-12075949D01*
X13173801Y-12075949D01*
X13173801Y-12075949D01*
X13161249Y-12068702D01*
X13161249Y-12068702D01*
X13160101Y-12068394D01*
X13147247Y-12064950D01*
X13132752Y-12064950D01*
X13119899Y-12068394D01*
X13118751Y-12068702D01*
X13106199Y-12075949D01*
X13106198Y-12075949D01*
X13095949Y-12086198D01*
X13095949Y-12086199D01*
X13088702Y-12098751D01*
X13088702Y-12098751D01*
X13084950Y-12112752D01*
X12956050Y-12112752D01*
X12956050Y-12052116D01*
X12956050Y-12052115D01*
X12956050Y-12052115D01*
X12952974Y-12036651D01*
X12952974Y-12036650D01*
X12952973Y-12036650D01*
X12946940Y-12022083D01*
X12946939Y-12022081D01*
X12938179Y-12008971D01*
X12938179Y-12008971D01*
X12927029Y-11997821D01*
X12927029Y-11997821D01*
X12913918Y-11989061D01*
X12913917Y-11989060D01*
X12899350Y-11983026D01*
X12899349Y-11983026D01*
X12883884Y-11979950D01*
X12883884Y-11979950D01*
X12868116Y-11979950D01*
X12868115Y-11979950D01*
X12852651Y-11983026D01*
X12852650Y-11983026D01*
X12838083Y-11989060D01*
X12838081Y-11989061D01*
X12824971Y-11997821D01*
X12824971Y-11997821D01*
X12813821Y-12008971D01*
X12813821Y-12008971D01*
X12805061Y-12022081D01*
X12805060Y-12022083D01*
X12799026Y-12036650D01*
X12799026Y-12036651D01*
X12795950Y-12052115D01*
X12795950Y-12147885D01*
X12799026Y-12163349D01*
X12799026Y-12163350D01*
X12805060Y-12177917D01*
X12805061Y-12177918D01*
X12813821Y-12191029D01*
X12813821Y-12191029D01*
X12816438Y-12193646D01*
X12819786Y-12199778D01*
X12819288Y-12206747D01*
X12815101Y-12212341D01*
X12808554Y-12214782D01*
X12807670Y-12214814D01*
X12762950Y-12214814D01*
X12756246Y-12212845D01*
X12751671Y-12207565D01*
X12750550Y-12202414D01*
X12750550Y-11617115D01*
X12795950Y-11617115D01*
X12795950Y-11742885D01*
X12799026Y-11758349D01*
X12799026Y-11758350D01*
X12805060Y-11772917D01*
X12805061Y-11772918D01*
X12813821Y-11786029D01*
X12813821Y-11786029D01*
X12824971Y-11797179D01*
X12824971Y-11797179D01*
X12838081Y-11805939D01*
X12838083Y-11805940D01*
X12852650Y-11811973D01*
X12852650Y-11811974D01*
X12868115Y-11815050D01*
X12868116Y-11815050D01*
X12868116Y-11815050D01*
X12883884Y-11815050D01*
X12883884Y-11815050D01*
X12899350Y-11811974D01*
X12913918Y-11805939D01*
X12927029Y-11797179D01*
X12938179Y-11786029D01*
X12946939Y-11772918D01*
X12949817Y-11765969D01*
X12954201Y-11760529D01*
X12960831Y-11758323D01*
X12967601Y-11760050D01*
X12972012Y-11764515D01*
X12973428Y-11766968D01*
X12973429Y-11766968D01*
X12973429Y-11766968D01*
X12984032Y-11777571D01*
X12984032Y-11777571D01*
X12984032Y-11777571D01*
X12997018Y-11785069D01*
X12997018Y-11785069D01*
X12997018Y-11785069D01*
X13011502Y-11788950D01*
X13011503Y-11788950D01*
X13026497Y-11788950D01*
X13026498Y-11788950D01*
X13040982Y-11785069D01*
X13053968Y-11777571D01*
X13064571Y-11766968D01*
X13072069Y-11753982D01*
X13075950Y-11739498D01*
X13075950Y-11724502D01*
X13540050Y-11724502D01*
X13540050Y-11739498D01*
X13543931Y-11753982D01*
X13543931Y-11753982D01*
X13551428Y-11766968D01*
X13551429Y-11766968D01*
X13551429Y-11766968D01*
X13562032Y-11777571D01*
X13562032Y-11777571D01*
X13562032Y-11777571D01*
X13575018Y-11785069D01*
X13575018Y-11785069D01*
X13575018Y-11785069D01*
X13589502Y-11788950D01*
X13589503Y-11788950D01*
X13604497Y-11788950D01*
X13604498Y-11788950D01*
X13618982Y-11785069D01*
X13631968Y-11777571D01*
X13642571Y-11766968D01*
X13643988Y-11764515D01*
X13649044Y-11759693D01*
X13655905Y-11758371D01*
X13662391Y-11760968D01*
X13666182Y-11765970D01*
X13669060Y-11772917D01*
X13669061Y-11772918D01*
X13677821Y-11786029D01*
X13677821Y-11786029D01*
X13688971Y-11797179D01*
X13688971Y-11797179D01*
X13702081Y-11805939D01*
X13702083Y-11805940D01*
X13716650Y-11811973D01*
X13716650Y-11811974D01*
X13732115Y-11815050D01*
X13732116Y-11815050D01*
X13732116Y-11815050D01*
X13747884Y-11815050D01*
X13747884Y-11815050D01*
X13763350Y-11811974D01*
X13777918Y-11805939D01*
X13791029Y-11797179D01*
X13802179Y-11786029D01*
X13810939Y-11772918D01*
X13816974Y-11758350D01*
X13817842Y-11753982D01*
X13818087Y-11752752D01*
X13944950Y-11752752D01*
X13944950Y-11767247D01*
X13948702Y-11781248D01*
X13948702Y-11781249D01*
X13955949Y-11793801D01*
X13955949Y-11793801D01*
X13955949Y-11793801D01*
X13966198Y-11804051D01*
X13966199Y-11804051D01*
X13966199Y-11804051D01*
X13978751Y-11811298D01*
X13978751Y-11811298D01*
X13978751Y-11811298D01*
X13992752Y-11815050D01*
X13992753Y-11815050D01*
X14007247Y-11815050D01*
X14007247Y-11815050D01*
X14021248Y-11811298D01*
X14033801Y-11804051D01*
X14044051Y-11793801D01*
X14051298Y-11781248D01*
X14055050Y-11767247D01*
X14055050Y-11752752D01*
X14051298Y-11738751D01*
X14044051Y-11726198D01*
X14033801Y-11715949D01*
X14033801Y-11715949D01*
X14033801Y-11715949D01*
X14021249Y-11708702D01*
X14021249Y-11708702D01*
X14020101Y-11708394D01*
X14007247Y-11704950D01*
X13992752Y-11704950D01*
X13979899Y-11708394D01*
X13978751Y-11708702D01*
X13966199Y-11715949D01*
X13966198Y-11715949D01*
X13955949Y-11726198D01*
X13955949Y-11726199D01*
X13948702Y-11738751D01*
X13948702Y-11738751D01*
X13944950Y-11752752D01*
X13818087Y-11752752D01*
X13818730Y-11749521D01*
X13818730Y-11749520D01*
X13820050Y-11742885D01*
X13820050Y-11742884D01*
X13820050Y-11617115D01*
X13820050Y-11617115D01*
X14182950Y-11617115D01*
X14182950Y-11742885D01*
X14186026Y-11758349D01*
X14186026Y-11758350D01*
X14192060Y-11772917D01*
X14192061Y-11772918D01*
X14200821Y-11786029D01*
X14200821Y-11786029D01*
X14211971Y-11797179D01*
X14211971Y-11797179D01*
X14225081Y-11805939D01*
X14225083Y-11805940D01*
X14239650Y-11811973D01*
X14239650Y-11811974D01*
X14255115Y-11815050D01*
X14255116Y-11815050D01*
X14255116Y-11815050D01*
X14270884Y-11815050D01*
X14270884Y-11815050D01*
X14286350Y-11811974D01*
X14300918Y-11805939D01*
X14314029Y-11797179D01*
X14325179Y-11786029D01*
X14333939Y-11772918D01*
X14336817Y-11765969D01*
X14341201Y-11760529D01*
X14347831Y-11758323D01*
X14354601Y-11760050D01*
X14359012Y-11764515D01*
X14360428Y-11766968D01*
X14360429Y-11766968D01*
X14360429Y-11766968D01*
X14371032Y-11777571D01*
X14371032Y-11777571D01*
X14371032Y-11777571D01*
X14384018Y-11785069D01*
X14384018Y-11785069D01*
X14384018Y-11785069D01*
X14398502Y-11788950D01*
X14398503Y-11788950D01*
X14413497Y-11788950D01*
X14413498Y-11788950D01*
X14427982Y-11785069D01*
X14440968Y-11777571D01*
X14451571Y-11766968D01*
X14459069Y-11753982D01*
X14462950Y-11739498D01*
X14462950Y-11724502D01*
X14927050Y-11724502D01*
X14927050Y-11739498D01*
X14930931Y-11753982D01*
X14930931Y-11753982D01*
X14938428Y-11766968D01*
X14938429Y-11766968D01*
X14938429Y-11766968D01*
X14949032Y-11777571D01*
X14949032Y-11777571D01*
X14949032Y-11777571D01*
X14962018Y-11785069D01*
X14962018Y-11785069D01*
X14962018Y-11785069D01*
X14976502Y-11788950D01*
X14976503Y-11788950D01*
X14991497Y-11788950D01*
X14991498Y-11788950D01*
X15005982Y-11785069D01*
X15018968Y-11777571D01*
X15029571Y-11766968D01*
X15030988Y-11764515D01*
X15036044Y-11759693D01*
X15042905Y-11758371D01*
X15049391Y-11760968D01*
X15053182Y-11765970D01*
X15056060Y-11772917D01*
X15056061Y-11772918D01*
X15064821Y-11786029D01*
X15064821Y-11786029D01*
X15075971Y-11797179D01*
X15075971Y-11797179D01*
X15089081Y-11805939D01*
X15089083Y-11805940D01*
X15103650Y-11811973D01*
X15103650Y-11811974D01*
X15119115Y-11815050D01*
X15119116Y-11815050D01*
X15119116Y-11815050D01*
X15134884Y-11815050D01*
X15134884Y-11815050D01*
X15150350Y-11811974D01*
X15164918Y-11805939D01*
X15178029Y-11797179D01*
X15189179Y-11786029D01*
X15197939Y-11772918D01*
X15203974Y-11758350D01*
X15207050Y-11742884D01*
X15207050Y-11617116D01*
X15207050Y-11617115D01*
X15207050Y-11617115D01*
X15203974Y-11601651D01*
X15203974Y-11601650D01*
X15201898Y-11596640D01*
X15197940Y-11587083D01*
X15197939Y-11587081D01*
X15189179Y-11573971D01*
X15189179Y-11573971D01*
X15178029Y-11562821D01*
X15178029Y-11562821D01*
X15164918Y-11554061D01*
X15164917Y-11554060D01*
X15150350Y-11548026D01*
X15150349Y-11548026D01*
X15134884Y-11544950D01*
X15134884Y-11544950D01*
X15131467Y-11544950D01*
X15124763Y-11542981D01*
X15120187Y-11537701D01*
X15119193Y-11530785D01*
X15119489Y-11529341D01*
X15120050Y-11527247D01*
X15120050Y-11512752D01*
X15116298Y-11498751D01*
X15116230Y-11498633D01*
X15109051Y-11486199D01*
X15109051Y-11486198D01*
X15098802Y-11475949D01*
X15098801Y-11475949D01*
X15086249Y-11468702D01*
X15086249Y-11468702D01*
X15084737Y-11468297D01*
X15072247Y-11464950D01*
X15057752Y-11464950D01*
X15057752Y-11464950D01*
X15052877Y-11466256D01*
X15045892Y-11466090D01*
X15040899Y-11463047D01*
X15033802Y-11455949D01*
X15033801Y-11455949D01*
X15021249Y-11448702D01*
X15021249Y-11448702D01*
X15020101Y-11448394D01*
X15007247Y-11444950D01*
X14992752Y-11444950D01*
X14979899Y-11448394D01*
X14978751Y-11448702D01*
X14966199Y-11455949D01*
X14966198Y-11455949D01*
X14955949Y-11466198D01*
X14955949Y-11466199D01*
X14948702Y-11478751D01*
X14948702Y-11478751D01*
X14944950Y-11492752D01*
X14944950Y-11507247D01*
X14948702Y-11521248D01*
X14948702Y-11521249D01*
X14955949Y-11533801D01*
X14955949Y-11533801D01*
X14955949Y-11533801D01*
X14966198Y-11544051D01*
X14966199Y-11544051D01*
X14966199Y-11544051D01*
X14978751Y-11551298D01*
X14978751Y-11551298D01*
X14978751Y-11551298D01*
X14992752Y-11555050D01*
X14992753Y-11555050D01*
X15007247Y-11555050D01*
X15007247Y-11555050D01*
X15012123Y-11553744D01*
X15019108Y-11553910D01*
X15024100Y-11556953D01*
X15031198Y-11564051D01*
X15031199Y-11564051D01*
X15031199Y-11564051D01*
X15043751Y-11571298D01*
X15043751Y-11571298D01*
X15043751Y-11571298D01*
X15047058Y-11572184D01*
X15053024Y-11575821D01*
X15056077Y-11582105D01*
X15055305Y-11588907D01*
X15050026Y-11601650D01*
X15050026Y-11601651D01*
X15046950Y-11617115D01*
X15046950Y-11684474D01*
X15044981Y-11691178D01*
X15039701Y-11695754D01*
X15032785Y-11696748D01*
X15026430Y-11693846D01*
X15025782Y-11693242D01*
X15018968Y-11686429D01*
X15018968Y-11686428D01*
X15005982Y-11678931D01*
X15005982Y-11678931D01*
X15004794Y-11678613D01*
X14991498Y-11675050D01*
X14976502Y-11675050D01*
X14963205Y-11678613D01*
X14962018Y-11678931D01*
X14949032Y-11686428D01*
X14949032Y-11686429D01*
X14938429Y-11697032D01*
X14938428Y-11697032D01*
X14930931Y-11710018D01*
X14930931Y-11710018D01*
X14927050Y-11724502D01*
X14462950Y-11724502D01*
X14459069Y-11710018D01*
X14456143Y-11704950D01*
X14451571Y-11697032D01*
X14451571Y-11697032D01*
X14440968Y-11686429D01*
X14440968Y-11686428D01*
X14427982Y-11678931D01*
X14427982Y-11678931D01*
X14426794Y-11678613D01*
X14413498Y-11675050D01*
X14398502Y-11675050D01*
X14385205Y-11678613D01*
X14384018Y-11678931D01*
X14371032Y-11686428D01*
X14371032Y-11686429D01*
X14364218Y-11693242D01*
X14358086Y-11696591D01*
X14351117Y-11696093D01*
X14345523Y-11691905D01*
X14343082Y-11685359D01*
X14343050Y-11684474D01*
X14343050Y-11617115D01*
X14343050Y-11617115D01*
X14339974Y-11601651D01*
X14339974Y-11601650D01*
X14337898Y-11596640D01*
X14333940Y-11587083D01*
X14333939Y-11587082D01*
X14333939Y-11587082D01*
X14328310Y-11578657D01*
X14326222Y-11571990D01*
X14328071Y-11565252D01*
X14329851Y-11563001D01*
X14339051Y-11553801D01*
X14346298Y-11541248D01*
X14350050Y-11527247D01*
X14350050Y-11512752D01*
X14346298Y-11498751D01*
X14346230Y-11498633D01*
X14339051Y-11486199D01*
X14339051Y-11486198D01*
X14328802Y-11475949D01*
X14328801Y-11475949D01*
X14323265Y-11472752D01*
X14559950Y-11472752D01*
X14559950Y-11487247D01*
X14563355Y-11499955D01*
X14563702Y-11501249D01*
X14570949Y-11513801D01*
X14570949Y-11513801D01*
X14570949Y-11513801D01*
X14581198Y-11524051D01*
X14581199Y-11524051D01*
X14581199Y-11524051D01*
X14593751Y-11531298D01*
X14593751Y-11531298D01*
X14593751Y-11531298D01*
X14607752Y-11535050D01*
X14607753Y-11535050D01*
X14622247Y-11535050D01*
X14622247Y-11535050D01*
X14636248Y-11531298D01*
X14648801Y-11524051D01*
X14659051Y-11513801D01*
X14664261Y-11504777D01*
X14669318Y-11499955D01*
X14676179Y-11498633D01*
X14682665Y-11501230D01*
X14685739Y-11504777D01*
X14687165Y-11507247D01*
X14690949Y-11513801D01*
X14701198Y-11524051D01*
X14701199Y-11524051D01*
X14701199Y-11524051D01*
X14713751Y-11531298D01*
X14713751Y-11531298D01*
X14713751Y-11531298D01*
X14727752Y-11535050D01*
X14727753Y-11535050D01*
X14742247Y-11535050D01*
X14742247Y-11535050D01*
X14756248Y-11531298D01*
X14768801Y-11524051D01*
X14779051Y-11513801D01*
X14786298Y-11501248D01*
X14790050Y-11487247D01*
X14790050Y-11472752D01*
X14786298Y-11458751D01*
X14784824Y-11456198D01*
X14779051Y-11446199D01*
X14779051Y-11446198D01*
X14768802Y-11435949D01*
X14768801Y-11435949D01*
X14756249Y-11428702D01*
X14756249Y-11428702D01*
X14755101Y-11428394D01*
X14742247Y-11424950D01*
X14727752Y-11424950D01*
X14714899Y-11428394D01*
X14713751Y-11428702D01*
X14701199Y-11435949D01*
X14701198Y-11435949D01*
X14690949Y-11446198D01*
X14690949Y-11446198D01*
X14685739Y-11455223D01*
X14680682Y-11460045D01*
X14673821Y-11461367D01*
X14667335Y-11458770D01*
X14664261Y-11455223D01*
X14660496Y-11448702D01*
X14659051Y-11446198D01*
X14648801Y-11435949D01*
X14648801Y-11435949D01*
X14648801Y-11435949D01*
X14636249Y-11428702D01*
X14636249Y-11428702D01*
X14635101Y-11428394D01*
X14622247Y-11424950D01*
X14607752Y-11424950D01*
X14594899Y-11428394D01*
X14593751Y-11428702D01*
X14581199Y-11435949D01*
X14581198Y-11435949D01*
X14570949Y-11446198D01*
X14570949Y-11446199D01*
X14563702Y-11458751D01*
X14563702Y-11458751D01*
X14559950Y-11472752D01*
X14323265Y-11472752D01*
X14316249Y-11468702D01*
X14316249Y-11468702D01*
X14314737Y-11468297D01*
X14302247Y-11464950D01*
X14287752Y-11464950D01*
X14275263Y-11468297D01*
X14273751Y-11468702D01*
X14261199Y-11475949D01*
X14261198Y-11475949D01*
X14250949Y-11486198D01*
X14250949Y-11486199D01*
X14243702Y-11498751D01*
X14243702Y-11498751D01*
X14239950Y-11512752D01*
X14239950Y-11527247D01*
X14241505Y-11533050D01*
X14242117Y-11535335D01*
X14241951Y-11542320D01*
X14238034Y-11548106D01*
X14234885Y-11550000D01*
X14225083Y-11554060D01*
X14225081Y-11554061D01*
X14211971Y-11562821D01*
X14211971Y-11562821D01*
X14200821Y-11573971D01*
X14200821Y-11573971D01*
X14192061Y-11587081D01*
X14192060Y-11587083D01*
X14186026Y-11601650D01*
X14186026Y-11601651D01*
X14182950Y-11617115D01*
X13820050Y-11617115D01*
X13816974Y-11601651D01*
X13816974Y-11601650D01*
X13814898Y-11596640D01*
X13810940Y-11587083D01*
X13810939Y-11587081D01*
X13802179Y-11573971D01*
X13802179Y-11573971D01*
X13791029Y-11562821D01*
X13791029Y-11562821D01*
X13777918Y-11554061D01*
X13777917Y-11554060D01*
X13763350Y-11548026D01*
X13763349Y-11548026D01*
X13755031Y-11546371D01*
X13748840Y-11543133D01*
X13745382Y-11537061D01*
X13745050Y-11534210D01*
X13745050Y-11527753D01*
X13745050Y-11527752D01*
X13741298Y-11513751D01*
X13740722Y-11512753D01*
X13734051Y-11501199D01*
X13734051Y-11501198D01*
X13723802Y-11490949D01*
X13723801Y-11490949D01*
X13711249Y-11483702D01*
X13711249Y-11483702D01*
X13710101Y-11483394D01*
X13697247Y-11479950D01*
X13682752Y-11479950D01*
X13669899Y-11483394D01*
X13668751Y-11483702D01*
X13656199Y-11490949D01*
X13656198Y-11490949D01*
X13645949Y-11501198D01*
X13645949Y-11501199D01*
X13638702Y-11513751D01*
X13638702Y-11513751D01*
X13634950Y-11527752D01*
X13634950Y-11542247D01*
X13638380Y-11555050D01*
X13638702Y-11556249D01*
X13645949Y-11568801D01*
X13645949Y-11568801D01*
X13645949Y-11568801D01*
X13656198Y-11579051D01*
X13659309Y-11580847D01*
X13659845Y-11581156D01*
X13664667Y-11586213D01*
X13665989Y-11593074D01*
X13665101Y-11596640D01*
X13663026Y-11601650D01*
X13663026Y-11601651D01*
X13659950Y-11617115D01*
X13659950Y-11684474D01*
X13657981Y-11691178D01*
X13652701Y-11695754D01*
X13645785Y-11696748D01*
X13639430Y-11693846D01*
X13638782Y-11693242D01*
X13631968Y-11686429D01*
X13631968Y-11686428D01*
X13618982Y-11678931D01*
X13618982Y-11678931D01*
X13617794Y-11678613D01*
X13604498Y-11675050D01*
X13589502Y-11675050D01*
X13576205Y-11678613D01*
X13575018Y-11678931D01*
X13562032Y-11686428D01*
X13562032Y-11686429D01*
X13551429Y-11697032D01*
X13551428Y-11697032D01*
X13543931Y-11710018D01*
X13543931Y-11710018D01*
X13540050Y-11724502D01*
X13075950Y-11724502D01*
X13072069Y-11710018D01*
X13069143Y-11704950D01*
X13064571Y-11697032D01*
X13064571Y-11697032D01*
X13053968Y-11686429D01*
X13053968Y-11686428D01*
X13040982Y-11678931D01*
X13040982Y-11678931D01*
X13039794Y-11678613D01*
X13026498Y-11675050D01*
X13011502Y-11675050D01*
X12998205Y-11678613D01*
X12997018Y-11678931D01*
X12984032Y-11686428D01*
X12984032Y-11686429D01*
X12977218Y-11693242D01*
X12971086Y-11696591D01*
X12964117Y-11696093D01*
X12958523Y-11691905D01*
X12956082Y-11685359D01*
X12956050Y-11684474D01*
X12956050Y-11617115D01*
X12956050Y-11617115D01*
X12952974Y-11601651D01*
X12952974Y-11601650D01*
X12950898Y-11596640D01*
X12946706Y-11586519D01*
X12946940Y-11586422D01*
X12945742Y-11580662D01*
X12948243Y-11574138D01*
X12951901Y-11570921D01*
X12963801Y-11564051D01*
X12974051Y-11553801D01*
X12981298Y-11541248D01*
X12985050Y-11527247D01*
X12985050Y-11512752D01*
X12981298Y-11498751D01*
X12974051Y-11486198D01*
X12970605Y-11482752D01*
X13194950Y-11482752D01*
X13194950Y-11497247D01*
X13198702Y-11511248D01*
X13198702Y-11511249D01*
X13205949Y-11523801D01*
X13205949Y-11523801D01*
X13205949Y-11523801D01*
X13216198Y-11534051D01*
X13216199Y-11534051D01*
X13216199Y-11534051D01*
X13228751Y-11541298D01*
X13228751Y-11541298D01*
X13228751Y-11541298D01*
X13242752Y-11545050D01*
X13242753Y-11545050D01*
X13257247Y-11545050D01*
X13257247Y-11545050D01*
X13271248Y-11541298D01*
X13283801Y-11534051D01*
X13294051Y-11523801D01*
X13301298Y-11511248D01*
X13305050Y-11497247D01*
X13305050Y-11482752D01*
X13344950Y-11482752D01*
X13344950Y-11497247D01*
X13348702Y-11511248D01*
X13348702Y-11511249D01*
X13355949Y-11523801D01*
X13355949Y-11523801D01*
X13355949Y-11523801D01*
X13366198Y-11534051D01*
X13366199Y-11534051D01*
X13366199Y-11534051D01*
X13378751Y-11541298D01*
X13378751Y-11541298D01*
X13378751Y-11541298D01*
X13392752Y-11545050D01*
X13392753Y-11545050D01*
X13407247Y-11545050D01*
X13407247Y-11545050D01*
X13421248Y-11541298D01*
X13433801Y-11534051D01*
X13444051Y-11523801D01*
X13451298Y-11511248D01*
X13455050Y-11497247D01*
X13455050Y-11482752D01*
X13451298Y-11468751D01*
X13451270Y-11468702D01*
X13444051Y-11456199D01*
X13444051Y-11456198D01*
X13433802Y-11445949D01*
X13433801Y-11445949D01*
X13421249Y-11438702D01*
X13421249Y-11438702D01*
X13420101Y-11438394D01*
X13407247Y-11434950D01*
X13392752Y-11434950D01*
X13379899Y-11438394D01*
X13378751Y-11438702D01*
X13366199Y-11445949D01*
X13366198Y-11445949D01*
X13355949Y-11456198D01*
X13355949Y-11456199D01*
X13348702Y-11468751D01*
X13348702Y-11468751D01*
X13344950Y-11482752D01*
X13305050Y-11482752D01*
X13301298Y-11468751D01*
X13301270Y-11468702D01*
X13294051Y-11456199D01*
X13294051Y-11456198D01*
X13283802Y-11445949D01*
X13283801Y-11445949D01*
X13271249Y-11438702D01*
X13271249Y-11438702D01*
X13270101Y-11438394D01*
X13257247Y-11434950D01*
X13242752Y-11434950D01*
X13229899Y-11438394D01*
X13228751Y-11438702D01*
X13216199Y-11445949D01*
X13216198Y-11445949D01*
X13205949Y-11456198D01*
X13205949Y-11456199D01*
X13198702Y-11468751D01*
X13198702Y-11468751D01*
X13194950Y-11482752D01*
X12970605Y-11482752D01*
X12963801Y-11475949D01*
X12963801Y-11475949D01*
X12963801Y-11475949D01*
X12951249Y-11468702D01*
X12951249Y-11468702D01*
X12949737Y-11468297D01*
X12937247Y-11464950D01*
X12922752Y-11464950D01*
X12910263Y-11468297D01*
X12908751Y-11468702D01*
X12896199Y-11475949D01*
X12896198Y-11475949D01*
X12885949Y-11486198D01*
X12885949Y-11486199D01*
X12878702Y-11498751D01*
X12878702Y-11498751D01*
X12874950Y-11512752D01*
X12874950Y-11512753D01*
X12874950Y-11527248D01*
X12875681Y-11529976D01*
X12875514Y-11536961D01*
X12871598Y-11542747D01*
X12866123Y-11545346D01*
X12852651Y-11548026D01*
X12852650Y-11548026D01*
X12838083Y-11554060D01*
X12838081Y-11554061D01*
X12824971Y-11562821D01*
X12824971Y-11562821D01*
X12813821Y-11573971D01*
X12813821Y-11573971D01*
X12805061Y-11587081D01*
X12805060Y-11587083D01*
X12799026Y-11601650D01*
X12799026Y-11601651D01*
X12795950Y-11617115D01*
X12750550Y-11617115D01*
X12750550Y-11393872D01*
X12752518Y-11387168D01*
X12757799Y-11382592D01*
X12764715Y-11381598D01*
X12769839Y-11383562D01*
X12775236Y-11387168D01*
X12777477Y-11388665D01*
X12777477Y-11388665D01*
X12777478Y-11388666D01*
X12789768Y-11393756D01*
X12793865Y-11395453D01*
X12793866Y-11395453D01*
X12793866Y-11395454D01*
X12811262Y-11398914D01*
X12811263Y-11398914D01*
X12811263Y-11398914D01*
X12909001Y-11398914D01*
X12909001Y-11398914D01*
X12914800Y-11397760D01*
X12926398Y-11395454D01*
X12926398Y-11395453D01*
X12926399Y-11395453D01*
X12942787Y-11388665D01*
X12957535Y-11378810D01*
X12970078Y-11366267D01*
X12979933Y-11351519D01*
X12986721Y-11335131D01*
X12987503Y-11331201D01*
X12989473Y-11321298D01*
X12990182Y-11317733D01*
X12990182Y-11299995D01*
X12990182Y-11299995D01*
X12990182Y-11299994D01*
X12986722Y-11282598D01*
X12986721Y-11282597D01*
X12982203Y-11271690D01*
X12982203Y-11271689D01*
X12980572Y-11267752D01*
X13079950Y-11267752D01*
X13079950Y-11282247D01*
X13083354Y-11294950D01*
X13083702Y-11296249D01*
X13090949Y-11308801D01*
X13090949Y-11308801D01*
X13090949Y-11308801D01*
X13101198Y-11319051D01*
X13101199Y-11319051D01*
X13101199Y-11319051D01*
X13113751Y-11326298D01*
X13113751Y-11326298D01*
X13113751Y-11326298D01*
X13127752Y-11330050D01*
X13127753Y-11330050D01*
X13142247Y-11330050D01*
X13142247Y-11330050D01*
X13156248Y-11326298D01*
X13168801Y-11319051D01*
X13179051Y-11308801D01*
X13186298Y-11296248D01*
X13190050Y-11282247D01*
X13190050Y-11267752D01*
X13186298Y-11253751D01*
X13185136Y-11251738D01*
X13179051Y-11241199D01*
X13179051Y-11241198D01*
X13168802Y-11230949D01*
X13168801Y-11230949D01*
X13156249Y-11223702D01*
X13156249Y-11223702D01*
X13156248Y-11223702D01*
X13142247Y-11219950D01*
X13127752Y-11219950D01*
X13118062Y-11222547D01*
X13113751Y-11223702D01*
X13101199Y-11230949D01*
X13101198Y-11230949D01*
X13090949Y-11241198D01*
X13090949Y-11241199D01*
X13083702Y-11253751D01*
X13083702Y-11253751D01*
X13079950Y-11267752D01*
X12980572Y-11267752D01*
X12979933Y-11266209D01*
X12979933Y-11266209D01*
X12979933Y-11266209D01*
X12970078Y-11251460D01*
X12970078Y-11251460D01*
X12957536Y-11238918D01*
X12957535Y-11238917D01*
X12942787Y-11229063D01*
X12942786Y-11229062D01*
X12926399Y-11222275D01*
X12926398Y-11222274D01*
X12909001Y-11218814D01*
X12909001Y-11218814D01*
X12811263Y-11218814D01*
X12811263Y-11218814D01*
X12793866Y-11222274D01*
X12793865Y-11222275D01*
X12777478Y-11229062D01*
X12777477Y-11229063D01*
X12769839Y-11234166D01*
X12763171Y-11236254D01*
X12756433Y-11234406D01*
X12751764Y-11229208D01*
X12750550Y-11223856D01*
X12750550Y-11212752D01*
X13434950Y-11212752D01*
X13434950Y-11227247D01*
X13438077Y-11238918D01*
X13438702Y-11241249D01*
X13445949Y-11253801D01*
X13445949Y-11253802D01*
X13448759Y-11256611D01*
X13452107Y-11262743D01*
X13451609Y-11269712D01*
X13450729Y-11271579D01*
X13443702Y-11283751D01*
X13443702Y-11283751D01*
X13439950Y-11297752D01*
X13439950Y-11312247D01*
X13443380Y-11325050D01*
X13443702Y-11326249D01*
X13450949Y-11338801D01*
X13450949Y-11338801D01*
X13450949Y-11338801D01*
X13461198Y-11349051D01*
X13461199Y-11349051D01*
X13461199Y-11349051D01*
X13473751Y-11356298D01*
X13473751Y-11356298D01*
X13473751Y-11356298D01*
X13487752Y-11360050D01*
X13487753Y-11360050D01*
X13502247Y-11360050D01*
X13502247Y-11360050D01*
X13516248Y-11356298D01*
X13528801Y-11349051D01*
X13535100Y-11342752D01*
X14079950Y-11342752D01*
X14079950Y-11357247D01*
X14082440Y-11366540D01*
X14083702Y-11371249D01*
X14090949Y-11383801D01*
X14090949Y-11383801D01*
X14090949Y-11383801D01*
X14101198Y-11394051D01*
X14101199Y-11394051D01*
X14101199Y-11394051D01*
X14113751Y-11401298D01*
X14113751Y-11401298D01*
X14113751Y-11401298D01*
X14127752Y-11405050D01*
X14127753Y-11405050D01*
X14142247Y-11405050D01*
X14142247Y-11405050D01*
X14156248Y-11401298D01*
X14168801Y-11394051D01*
X14179051Y-11383801D01*
X14186298Y-11371248D01*
X14190050Y-11357247D01*
X14190050Y-11342752D01*
X14186298Y-11328751D01*
X14184161Y-11325050D01*
X14179051Y-11316199D01*
X14179051Y-11316198D01*
X14168802Y-11305949D01*
X14168801Y-11305949D01*
X14156249Y-11298702D01*
X14156249Y-11298702D01*
X14155101Y-11298394D01*
X14142247Y-11294950D01*
X14127752Y-11294950D01*
X14114899Y-11298394D01*
X14113751Y-11298702D01*
X14101199Y-11305949D01*
X14101198Y-11305949D01*
X14090949Y-11316198D01*
X14090949Y-11316199D01*
X14083702Y-11328751D01*
X14083621Y-11329051D01*
X14079950Y-11342752D01*
X13535100Y-11342752D01*
X13539051Y-11338801D01*
X13546298Y-11326248D01*
X13550050Y-11312247D01*
X13550050Y-11297752D01*
X13546298Y-11283751D01*
X13542835Y-11277752D01*
X13749950Y-11277752D01*
X13749950Y-11292247D01*
X13753046Y-11303802D01*
X13753702Y-11306249D01*
X13760949Y-11318801D01*
X13760949Y-11318801D01*
X13760949Y-11318801D01*
X13771198Y-11329051D01*
X13771199Y-11329051D01*
X13771199Y-11329051D01*
X13783751Y-11336298D01*
X13783751Y-11336298D01*
X13783751Y-11336298D01*
X13797752Y-11340050D01*
X13797753Y-11340050D01*
X13812247Y-11340050D01*
X13812247Y-11340050D01*
X13826248Y-11336298D01*
X13838801Y-11329051D01*
X13849051Y-11318801D01*
X13856298Y-11306248D01*
X13860050Y-11292247D01*
X13860050Y-11277752D01*
X13857370Y-11267752D01*
X14469950Y-11267752D01*
X14469950Y-11282247D01*
X14473354Y-11294950D01*
X14473702Y-11296249D01*
X14480949Y-11308801D01*
X14480949Y-11308801D01*
X14480949Y-11308801D01*
X14491198Y-11319051D01*
X14491199Y-11319051D01*
X14491199Y-11319051D01*
X14503751Y-11326298D01*
X14503751Y-11326298D01*
X14503751Y-11326298D01*
X14517752Y-11330050D01*
X14517753Y-11330050D01*
X14532247Y-11330050D01*
X14532247Y-11330050D01*
X14546248Y-11326298D01*
X14558801Y-11319051D01*
X14569051Y-11308801D01*
X14576298Y-11296248D01*
X14580050Y-11282247D01*
X14580050Y-11267752D01*
X14578710Y-11262752D01*
X14834950Y-11262752D01*
X14834950Y-11277247D01*
X14836457Y-11282870D01*
X14838702Y-11291249D01*
X14845949Y-11303801D01*
X14845949Y-11303801D01*
X14845949Y-11303801D01*
X14856198Y-11314051D01*
X14856199Y-11314051D01*
X14856199Y-11314051D01*
X14868751Y-11321298D01*
X14868751Y-11321298D01*
X14868751Y-11321298D01*
X14882752Y-11325050D01*
X14882753Y-11325050D01*
X14897247Y-11325050D01*
X14897247Y-11325050D01*
X14911248Y-11321298D01*
X14923801Y-11314051D01*
X14934051Y-11303801D01*
X14941298Y-11291248D01*
X14945050Y-11277247D01*
X14945050Y-11262752D01*
X14941298Y-11248751D01*
X14936966Y-11241248D01*
X14934051Y-11236199D01*
X14934051Y-11236198D01*
X14923802Y-11225949D01*
X14923801Y-11225949D01*
X14911249Y-11218702D01*
X14911249Y-11218702D01*
X14910101Y-11218394D01*
X14897247Y-11214950D01*
X14882752Y-11214950D01*
X14869899Y-11218394D01*
X14868751Y-11218702D01*
X14856199Y-11225949D01*
X14856198Y-11225949D01*
X14845949Y-11236198D01*
X14845949Y-11236199D01*
X14838702Y-11248751D01*
X14838702Y-11248751D01*
X14834950Y-11262752D01*
X14578710Y-11262752D01*
X14576298Y-11253751D01*
X14575136Y-11251738D01*
X14569051Y-11241199D01*
X14569051Y-11241198D01*
X14558802Y-11230949D01*
X14558801Y-11230949D01*
X14546249Y-11223702D01*
X14546249Y-11223702D01*
X14541938Y-11222547D01*
X14532247Y-11219950D01*
X14517752Y-11219950D01*
X14508062Y-11222547D01*
X14503751Y-11223702D01*
X14491199Y-11230949D01*
X14491198Y-11230949D01*
X14480949Y-11241198D01*
X14480949Y-11241199D01*
X14473702Y-11253751D01*
X14473702Y-11253751D01*
X14469950Y-11267752D01*
X13857370Y-11267752D01*
X13856298Y-11263751D01*
X13855722Y-11262753D01*
X13849051Y-11251199D01*
X13849051Y-11251198D01*
X13838802Y-11240949D01*
X13838801Y-11240949D01*
X13826249Y-11233702D01*
X13826249Y-11233702D01*
X13825101Y-11233394D01*
X13812247Y-11229950D01*
X13797752Y-11229950D01*
X13784899Y-11233394D01*
X13783751Y-11233702D01*
X13771199Y-11240949D01*
X13771198Y-11240949D01*
X13760949Y-11251198D01*
X13760949Y-11251199D01*
X13753702Y-11263751D01*
X13753702Y-11263751D01*
X13749950Y-11277752D01*
X13542835Y-11277752D01*
X13539051Y-11271198D01*
X13535396Y-11267543D01*
X13534727Y-11266552D01*
X13534017Y-11264316D01*
X13532893Y-11262256D01*
X13532979Y-11261047D01*
X13532612Y-11259892D01*
X13533224Y-11257627D01*
X13533391Y-11255287D01*
X13534270Y-11253422D01*
X13541298Y-11241248D01*
X13545050Y-11227247D01*
X13545050Y-11212752D01*
X13541298Y-11198751D01*
X13534051Y-11186198D01*
X13523801Y-11175949D01*
X13523801Y-11175949D01*
X13523801Y-11175949D01*
X13511249Y-11168702D01*
X13511249Y-11168702D01*
X13510101Y-11168394D01*
X13497247Y-11164950D01*
X13482752Y-11164950D01*
X13469899Y-11168394D01*
X13468751Y-11168702D01*
X13456199Y-11175949D01*
X13456198Y-11175949D01*
X13445949Y-11186198D01*
X13445949Y-11186199D01*
X13438702Y-11198751D01*
X13438702Y-11198751D01*
X13434950Y-11212752D01*
X12750550Y-11212752D01*
X12750550Y-11139872D01*
X12752518Y-11133168D01*
X12757799Y-11128592D01*
X12764715Y-11127598D01*
X12769839Y-11129562D01*
X12777477Y-11134665D01*
X12777477Y-11134665D01*
X12777478Y-11134666D01*
X12789768Y-11139756D01*
X12793865Y-11141453D01*
X12793866Y-11141453D01*
X12793866Y-11141454D01*
X12811262Y-11144914D01*
X12811263Y-11144914D01*
X12811263Y-11144914D01*
X12909001Y-11144914D01*
X12909001Y-11144914D01*
X12914800Y-11143760D01*
X12926398Y-11141454D01*
X12926398Y-11141453D01*
X12926399Y-11141453D01*
X12942787Y-11134665D01*
X12957535Y-11124810D01*
X12970078Y-11112268D01*
X12979933Y-11097519D01*
X12986721Y-11081131D01*
X12987135Y-11079051D01*
X12990182Y-11063734D01*
X12990182Y-11063733D01*
X12990182Y-11045995D01*
X12989857Y-11044359D01*
X12989857Y-11044359D01*
X12989537Y-11042753D01*
X13274950Y-11042753D01*
X13274950Y-11057248D01*
X13278046Y-11068802D01*
X13278702Y-11071249D01*
X13285949Y-11083801D01*
X13285949Y-11083801D01*
X13285949Y-11083802D01*
X13296198Y-11094051D01*
X13296199Y-11094051D01*
X13296199Y-11094051D01*
X13308751Y-11101298D01*
X13308751Y-11101298D01*
X13308751Y-11101298D01*
X13322752Y-11105050D01*
X13322753Y-11105050D01*
X13337247Y-11105050D01*
X13337247Y-11105050D01*
X13351248Y-11101298D01*
X13363801Y-11094051D01*
X13374051Y-11083802D01*
X13381298Y-11071249D01*
X13385050Y-11057248D01*
X13385050Y-11042753D01*
X13381298Y-11028752D01*
X13381210Y-11028598D01*
X13380722Y-11027753D01*
X13749950Y-11027753D01*
X13749950Y-11042248D01*
X13753046Y-11053802D01*
X13753702Y-11056249D01*
X13760949Y-11068801D01*
X13760949Y-11068801D01*
X13760949Y-11068802D01*
X13771198Y-11079051D01*
X13771199Y-11079051D01*
X13771199Y-11079051D01*
X13783751Y-11086298D01*
X13783751Y-11086298D01*
X13783751Y-11086298D01*
X13797752Y-11090050D01*
X13797753Y-11090050D01*
X13812247Y-11090050D01*
X13812247Y-11090050D01*
X13826248Y-11086298D01*
X13838801Y-11079051D01*
X13849051Y-11068802D01*
X13856298Y-11056249D01*
X13860050Y-11042248D01*
X13860050Y-11027753D01*
X13856298Y-11013752D01*
X13855722Y-11012753D01*
X13855722Y-11012753D01*
X14364950Y-11012753D01*
X14364950Y-11027248D01*
X14368702Y-11041249D01*
X14368702Y-11041249D01*
X14375949Y-11053801D01*
X14375949Y-11053801D01*
X14375949Y-11053802D01*
X14386198Y-11064051D01*
X14386199Y-11064051D01*
X14386199Y-11064051D01*
X14398751Y-11071298D01*
X14398751Y-11071298D01*
X14398751Y-11071298D01*
X14412752Y-11075050D01*
X14412753Y-11075050D01*
X14427247Y-11075050D01*
X14427247Y-11075050D01*
X14441248Y-11071298D01*
X14453801Y-11064051D01*
X14464051Y-11053802D01*
X14471298Y-11041249D01*
X14475050Y-11027248D01*
X14475050Y-11012753D01*
X14471298Y-10998752D01*
X14471270Y-10998702D01*
X14464051Y-10986199D01*
X14464051Y-10986198D01*
X14453802Y-10975949D01*
X14453801Y-10975949D01*
X14441249Y-10968702D01*
X14441249Y-10968702D01*
X14439654Y-10968274D01*
X14427247Y-10964950D01*
X14412752Y-10964950D01*
X14400346Y-10968274D01*
X14398751Y-10968702D01*
X14386199Y-10975949D01*
X14386198Y-10975949D01*
X14375949Y-10986198D01*
X14375949Y-10986199D01*
X14368702Y-10998751D01*
X14368702Y-10998752D01*
X14364950Y-11012753D01*
X13855722Y-11012753D01*
X13849051Y-11001199D01*
X13849051Y-11001198D01*
X13838802Y-10990949D01*
X13838801Y-10990949D01*
X13826249Y-10983702D01*
X13826249Y-10983702D01*
X13822315Y-10982648D01*
X13812247Y-10979950D01*
X13797752Y-10979950D01*
X13787685Y-10982648D01*
X13783751Y-10983702D01*
X13771199Y-10990949D01*
X13771198Y-10990949D01*
X13760949Y-11001198D01*
X13760949Y-11001199D01*
X13753702Y-11013751D01*
X13753702Y-11013752D01*
X13749950Y-11027753D01*
X13380722Y-11027753D01*
X13374051Y-11016199D01*
X13374051Y-11016198D01*
X13363802Y-11005949D01*
X13363801Y-11005949D01*
X13351249Y-10998702D01*
X13351249Y-10998702D01*
X13347630Y-10997732D01*
X13337247Y-10994950D01*
X13322752Y-10994950D01*
X13312370Y-10997732D01*
X13308751Y-10998702D01*
X13296199Y-11005949D01*
X13296198Y-11005949D01*
X13285949Y-11016198D01*
X13285949Y-11016199D01*
X13278702Y-11028751D01*
X13278702Y-11028752D01*
X13274950Y-11042753D01*
X12989537Y-11042753D01*
X12986722Y-11028598D01*
X12986721Y-11028597D01*
X12986162Y-11027248D01*
X12981586Y-11016199D01*
X12979934Y-11012210D01*
X12979933Y-11012209D01*
X12970078Y-10997461D01*
X12970078Y-10997460D01*
X12957536Y-10984918D01*
X12957535Y-10984918D01*
X12942787Y-10975063D01*
X12942786Y-10975062D01*
X12926399Y-10968275D01*
X12926398Y-10968274D01*
X12909001Y-10964814D01*
X12909001Y-10964814D01*
X12811263Y-10964814D01*
X12811263Y-10964814D01*
X12793866Y-10968274D01*
X12793865Y-10968275D01*
X12777478Y-10975062D01*
X12777477Y-10975063D01*
X12769839Y-10980166D01*
X12763171Y-10982254D01*
X12756433Y-10980406D01*
X12751764Y-10975208D01*
X12750550Y-10969856D01*
X12750550Y-10885872D01*
X12752518Y-10879168D01*
X12757799Y-10874592D01*
X12764715Y-10873598D01*
X12769839Y-10875562D01*
X12770867Y-10876249D01*
X12777477Y-10880665D01*
X12777477Y-10880665D01*
X12777478Y-10880666D01*
X12785650Y-10884051D01*
X12793865Y-10887453D01*
X12793866Y-10887453D01*
X12793866Y-10887454D01*
X12811262Y-10890914D01*
X12811263Y-10890914D01*
X12811263Y-10890914D01*
X12909001Y-10890914D01*
X12909001Y-10890914D01*
X12914800Y-10889760D01*
X12926398Y-10887454D01*
X12926398Y-10887453D01*
X12926399Y-10887453D01*
X12942787Y-10880665D01*
X12957535Y-10870810D01*
X12970078Y-10858268D01*
X12974262Y-10852007D01*
X12979623Y-10847526D01*
X12986555Y-10846655D01*
X12992858Y-10849671D01*
X12995310Y-10852695D01*
X12995949Y-10853802D01*
X13006198Y-10864051D01*
X13006199Y-10864051D01*
X13006199Y-10864051D01*
X13018751Y-10871298D01*
X13018751Y-10871298D01*
X13018751Y-10871298D01*
X13032752Y-10875050D01*
X13032753Y-10875050D01*
X13047247Y-10875050D01*
X13047247Y-10875050D01*
X13061248Y-10871298D01*
X13073801Y-10864051D01*
X13084051Y-10853802D01*
X13091298Y-10841249D01*
X13095050Y-10827248D01*
X13095050Y-10812753D01*
X13091298Y-10798752D01*
X13089680Y-10795949D01*
X13084051Y-10786199D01*
X13084051Y-10786198D01*
X13073802Y-10775949D01*
X13073801Y-10775949D01*
X13061249Y-10768702D01*
X13061249Y-10768702D01*
X13060101Y-10768394D01*
X13047247Y-10764950D01*
X13032752Y-10764950D01*
X13019899Y-10768394D01*
X13018751Y-10768702D01*
X13006199Y-10775949D01*
X13006198Y-10775949D01*
X13005944Y-10776204D01*
X13005677Y-10776350D01*
X13005554Y-10776444D01*
X13005539Y-10776425D01*
X12999811Y-10779552D01*
X12992842Y-10779053D01*
X12987249Y-10774865D01*
X12985720Y-10772180D01*
X12979934Y-10758210D01*
X12979933Y-10758209D01*
X12970078Y-10743461D01*
X12970078Y-10743460D01*
X12957536Y-10730918D01*
X12957535Y-10730918D01*
X12942787Y-10721063D01*
X12942786Y-10721062D01*
X12926399Y-10714275D01*
X12926398Y-10714274D01*
X12909001Y-10710814D01*
X12909001Y-10710814D01*
X12811263Y-10710814D01*
X12811263Y-10710814D01*
X12793866Y-10714274D01*
X12793865Y-10714275D01*
X12777478Y-10721062D01*
X12777477Y-10721063D01*
X12769839Y-10726166D01*
X12763171Y-10728254D01*
X12756433Y-10726406D01*
X12751764Y-10721208D01*
X12750550Y-10715856D01*
X12750550Y-10631898D01*
X12752518Y-10625194D01*
X12757799Y-10620619D01*
X12764715Y-10619624D01*
X12769839Y-10621588D01*
X12777845Y-10626937D01*
X12777845Y-10626937D01*
X12777846Y-10626938D01*
X12789821Y-10631898D01*
X12794233Y-10633725D01*
X12794234Y-10633725D01*
X12794234Y-10633726D01*
X12811630Y-10637186D01*
X12811631Y-10637186D01*
X12811631Y-10637186D01*
X12909369Y-10637186D01*
X12909369Y-10637186D01*
X12915589Y-10635949D01*
X12926766Y-10633726D01*
X12926766Y-10633725D01*
X12926767Y-10633725D01*
X12943155Y-10626937D01*
X12957903Y-10617082D01*
X12962233Y-10612753D01*
X13264950Y-10612753D01*
X13264950Y-10627248D01*
X13268702Y-10641249D01*
X13268702Y-10641249D01*
X13275949Y-10653801D01*
X13275949Y-10653802D01*
X13283379Y-10661232D01*
X13286728Y-10667364D01*
X13286230Y-10674333D01*
X13283379Y-10678768D01*
X13275949Y-10686198D01*
X13275949Y-10686199D01*
X13268702Y-10698751D01*
X13268702Y-10698752D01*
X13264950Y-10712753D01*
X13264950Y-10727248D01*
X13267041Y-10735050D01*
X13268702Y-10741249D01*
X13275949Y-10753801D01*
X13275949Y-10753802D01*
X13283379Y-10761232D01*
X13286728Y-10767364D01*
X13286230Y-10774333D01*
X13283379Y-10778768D01*
X13275949Y-10786198D01*
X13275949Y-10786199D01*
X13268702Y-10798751D01*
X13268702Y-10798752D01*
X13264950Y-10812753D01*
X13264950Y-10827248D01*
X13266693Y-10833751D01*
X13268702Y-10841249D01*
X13275949Y-10853801D01*
X13275949Y-10853801D01*
X13275949Y-10853802D01*
X13286198Y-10864051D01*
X13286199Y-10864051D01*
X13286199Y-10864051D01*
X13298751Y-10871298D01*
X13298751Y-10871298D01*
X13298751Y-10871298D01*
X13312752Y-10875050D01*
X13312753Y-10875050D01*
X13327247Y-10875050D01*
X13327247Y-10875050D01*
X13341248Y-10871298D01*
X13353801Y-10864051D01*
X13361232Y-10856621D01*
X13367364Y-10853272D01*
X13374333Y-10853770D01*
X13378768Y-10856621D01*
X13386198Y-10864051D01*
X13386199Y-10864051D01*
X13386199Y-10864051D01*
X13398751Y-10871298D01*
X13398751Y-10871298D01*
X13398751Y-10871298D01*
X13412752Y-10875050D01*
X13412753Y-10875050D01*
X13427247Y-10875050D01*
X13427247Y-10875050D01*
X13441248Y-10871298D01*
X13453801Y-10864051D01*
X13461232Y-10856621D01*
X13467364Y-10853272D01*
X13474333Y-10853770D01*
X13478768Y-10856621D01*
X13486198Y-10864051D01*
X13486199Y-10864051D01*
X13486199Y-10864051D01*
X13498751Y-10871298D01*
X13498751Y-10871298D01*
X13498751Y-10871298D01*
X13512752Y-10875050D01*
X13512753Y-10875050D01*
X13527247Y-10875050D01*
X13527247Y-10875050D01*
X13541248Y-10871298D01*
X13553801Y-10864051D01*
X13564051Y-10853802D01*
X13571298Y-10841249D01*
X13573575Y-10832753D01*
X14124950Y-10832753D01*
X14124950Y-10847248D01*
X14127903Y-10858268D01*
X14128702Y-10861249D01*
X14135949Y-10873801D01*
X14135949Y-10873801D01*
X14135949Y-10873802D01*
X14146198Y-10884051D01*
X14146199Y-10884051D01*
X14146199Y-10884051D01*
X14158751Y-10891298D01*
X14158751Y-10891298D01*
X14158751Y-10891298D01*
X14172752Y-10895050D01*
X14172753Y-10895050D01*
X14187247Y-10895050D01*
X14187247Y-10895050D01*
X14201248Y-10891298D01*
X14213801Y-10884051D01*
X14224051Y-10873802D01*
X14231298Y-10861249D01*
X14234915Y-10847753D01*
X14559950Y-10847753D01*
X14559950Y-10862248D01*
X14563525Y-10875588D01*
X14563702Y-10876249D01*
X14570949Y-10888801D01*
X14570949Y-10888801D01*
X14570949Y-10888802D01*
X14581198Y-10899051D01*
X14581199Y-10899051D01*
X14581199Y-10899051D01*
X14593751Y-10906298D01*
X14593751Y-10906298D01*
X14593751Y-10906298D01*
X14607752Y-10910050D01*
X14607753Y-10910050D01*
X14622247Y-10910050D01*
X14622247Y-10910050D01*
X14636248Y-10906298D01*
X14648800Y-10899052D01*
X14655590Y-10897404D01*
X14662193Y-10899690D01*
X14666512Y-10905182D01*
X14667400Y-10909790D01*
X14667400Y-10917248D01*
X14671152Y-10931249D01*
X14671152Y-10931249D01*
X14678399Y-10943801D01*
X14678399Y-10943801D01*
X14678399Y-10943802D01*
X14688648Y-10954051D01*
X14688649Y-10954051D01*
X14688649Y-10954051D01*
X14701201Y-10961298D01*
X14701201Y-10961298D01*
X14701201Y-10961298D01*
X14715202Y-10965050D01*
X14715203Y-10965050D01*
X14729697Y-10965050D01*
X14729697Y-10965050D01*
X14743698Y-10961298D01*
X14756251Y-10954051D01*
X14766501Y-10943802D01*
X14773748Y-10931249D01*
X14777500Y-10917248D01*
X14777500Y-10902753D01*
X14773748Y-10888752D01*
X14773156Y-10887725D01*
X14766501Y-10876199D01*
X14766501Y-10876198D01*
X14756252Y-10865949D01*
X14756251Y-10865949D01*
X14743699Y-10858702D01*
X14743699Y-10858702D01*
X14742551Y-10858394D01*
X14729697Y-10854950D01*
X14715202Y-10854950D01*
X14702349Y-10858394D01*
X14701201Y-10858702D01*
X14688650Y-10865948D01*
X14681860Y-10867596D01*
X14675257Y-10865310D01*
X14670938Y-10859818D01*
X14670050Y-10855210D01*
X14670050Y-10847753D01*
X14670050Y-10847753D01*
X14666298Y-10833752D01*
X14665722Y-10832753D01*
X14659051Y-10821199D01*
X14659051Y-10821198D01*
X14648802Y-10810949D01*
X14648801Y-10810949D01*
X14636249Y-10803702D01*
X14636249Y-10803702D01*
X14635101Y-10803394D01*
X14622247Y-10799950D01*
X14607752Y-10799950D01*
X14594899Y-10803394D01*
X14593751Y-10803702D01*
X14581199Y-10810949D01*
X14581198Y-10810949D01*
X14570949Y-10821198D01*
X14570949Y-10821199D01*
X14563702Y-10833751D01*
X14563702Y-10833752D01*
X14559950Y-10847753D01*
X14234915Y-10847753D01*
X14235050Y-10847248D01*
X14235050Y-10832753D01*
X14231298Y-10818752D01*
X14226249Y-10810005D01*
X14224051Y-10806199D01*
X14224051Y-10806198D01*
X14213802Y-10795949D01*
X14213801Y-10795949D01*
X14201249Y-10788702D01*
X14201249Y-10788702D01*
X14200101Y-10788394D01*
X14187247Y-10784950D01*
X14172752Y-10784950D01*
X14159899Y-10788394D01*
X14158751Y-10788702D01*
X14146199Y-10795949D01*
X14146198Y-10795949D01*
X14135949Y-10806198D01*
X14135949Y-10806199D01*
X14128702Y-10818751D01*
X14128702Y-10818752D01*
X14124950Y-10832753D01*
X13573575Y-10832753D01*
X13575050Y-10827248D01*
X13575050Y-10812753D01*
X13571298Y-10798752D01*
X13569680Y-10795949D01*
X13564051Y-10786199D01*
X13564051Y-10786198D01*
X13556620Y-10778768D01*
X13553272Y-10772636D01*
X13553770Y-10765667D01*
X13556620Y-10761232D01*
X13559644Y-10758209D01*
X13564051Y-10753802D01*
X13571298Y-10741249D01*
X13575050Y-10727248D01*
X13575050Y-10712753D01*
X13571298Y-10698752D01*
X13564656Y-10687248D01*
X13564051Y-10686199D01*
X13564051Y-10686198D01*
X13556620Y-10678768D01*
X13553336Y-10672753D01*
X14564950Y-10672753D01*
X14564950Y-10687248D01*
X14568702Y-10701249D01*
X14568702Y-10701249D01*
X14575949Y-10713801D01*
X14575949Y-10713801D01*
X14575949Y-10713802D01*
X14586198Y-10724051D01*
X14586199Y-10724051D01*
X14586199Y-10724051D01*
X14598751Y-10731298D01*
X14598751Y-10731298D01*
X14598751Y-10731298D01*
X14612752Y-10735050D01*
X14612753Y-10735050D01*
X14627247Y-10735050D01*
X14627247Y-10735050D01*
X14641248Y-10731298D01*
X14653801Y-10724051D01*
X14664051Y-10713802D01*
X14671298Y-10701249D01*
X14675050Y-10687248D01*
X14675050Y-10672753D01*
X14671298Y-10658752D01*
X14668441Y-10653802D01*
X14664051Y-10646199D01*
X14664051Y-10646198D01*
X14653802Y-10635949D01*
X14653801Y-10635949D01*
X14641249Y-10628702D01*
X14641249Y-10628702D01*
X14640101Y-10628394D01*
X14627247Y-10624950D01*
X14612752Y-10624950D01*
X14599899Y-10628394D01*
X14598751Y-10628702D01*
X14586199Y-10635949D01*
X14586198Y-10635949D01*
X14575949Y-10646198D01*
X14575949Y-10646199D01*
X14568702Y-10658751D01*
X14568702Y-10658752D01*
X14564950Y-10672753D01*
X13553336Y-10672753D01*
X13553272Y-10672636D01*
X13553770Y-10665667D01*
X13556620Y-10661232D01*
X13559101Y-10658751D01*
X13564051Y-10653802D01*
X13571298Y-10641249D01*
X13575050Y-10627248D01*
X13575050Y-10612753D01*
X13571298Y-10598752D01*
X13564051Y-10586199D01*
X13553801Y-10575949D01*
X13553801Y-10575949D01*
X13553801Y-10575949D01*
X13541249Y-10568702D01*
X13541249Y-10568702D01*
X13540101Y-10568394D01*
X13527247Y-10564950D01*
X13512752Y-10564950D01*
X13499899Y-10568394D01*
X13498751Y-10568702D01*
X13486199Y-10575949D01*
X13486198Y-10575949D01*
X13478768Y-10583380D01*
X13472636Y-10586728D01*
X13465667Y-10586230D01*
X13461232Y-10583380D01*
X13453802Y-10575949D01*
X13453801Y-10575949D01*
X13441249Y-10568702D01*
X13441249Y-10568702D01*
X13440101Y-10568394D01*
X13427247Y-10564950D01*
X13412752Y-10564950D01*
X13399899Y-10568394D01*
X13398751Y-10568702D01*
X13386199Y-10575949D01*
X13386198Y-10575949D01*
X13378768Y-10583380D01*
X13372636Y-10586728D01*
X13365667Y-10586230D01*
X13361232Y-10583380D01*
X13353802Y-10575949D01*
X13353801Y-10575949D01*
X13341249Y-10568702D01*
X13341249Y-10568702D01*
X13340101Y-10568394D01*
X13327247Y-10564950D01*
X13312752Y-10564950D01*
X13299899Y-10568394D01*
X13298751Y-10568702D01*
X13286199Y-10575949D01*
X13286198Y-10575949D01*
X13275949Y-10586198D01*
X13275949Y-10586199D01*
X13268702Y-10598751D01*
X13268702Y-10598752D01*
X13264950Y-10612753D01*
X12962233Y-10612753D01*
X12970446Y-10604540D01*
X12980301Y-10589791D01*
X12987089Y-10573403D01*
X12990550Y-10556005D01*
X12990550Y-10538267D01*
X12990550Y-10538267D01*
X12990550Y-10538266D01*
X12987090Y-10520870D01*
X12987089Y-10520869D01*
X12980302Y-10504482D01*
X12980301Y-10504481D01*
X12970446Y-10489733D01*
X12970446Y-10489732D01*
X12957904Y-10477190D01*
X12957903Y-10477190D01*
X12950511Y-10472250D01*
X12943155Y-10467335D01*
X12943154Y-10467334D01*
X12932092Y-10462753D01*
X14814950Y-10462753D01*
X14814950Y-10477248D01*
X14818295Y-10489732D01*
X14818702Y-10491249D01*
X14825949Y-10503801D01*
X14825949Y-10503801D01*
X14825949Y-10503802D01*
X14836198Y-10514051D01*
X14836199Y-10514051D01*
X14836199Y-10514051D01*
X14848751Y-10521298D01*
X14848751Y-10521298D01*
X14848751Y-10521298D01*
X14862752Y-10525050D01*
X14862753Y-10525050D01*
X14877247Y-10525050D01*
X14877247Y-10525050D01*
X14891248Y-10521298D01*
X14903801Y-10514051D01*
X14914051Y-10503802D01*
X14921298Y-10491249D01*
X14925050Y-10477248D01*
X14925050Y-10462753D01*
X14921298Y-10448752D01*
X14914051Y-10436199D01*
X14903801Y-10425949D01*
X14903801Y-10425949D01*
X14903801Y-10425949D01*
X14891249Y-10418702D01*
X14891249Y-10418702D01*
X14890101Y-10418394D01*
X14877247Y-10414950D01*
X14862752Y-10414950D01*
X14849899Y-10418394D01*
X14848751Y-10418702D01*
X14836199Y-10425949D01*
X14836198Y-10425949D01*
X14825949Y-10436198D01*
X14825949Y-10436199D01*
X14818702Y-10448751D01*
X14818702Y-10448752D01*
X14814950Y-10462753D01*
X12932092Y-10462753D01*
X12926767Y-10460547D01*
X12926766Y-10460546D01*
X12909369Y-10457086D01*
X12909369Y-10457086D01*
X12811631Y-10457086D01*
X12811631Y-10457086D01*
X12794234Y-10460546D01*
X12794233Y-10460547D01*
X12777846Y-10467334D01*
X12777845Y-10467335D01*
X12769839Y-10472684D01*
X12763171Y-10474772D01*
X12756433Y-10472924D01*
X12751764Y-10467726D01*
X12750550Y-10462374D01*
X12750550Y-10377898D01*
X12752518Y-10371194D01*
X12757799Y-10366619D01*
X12764715Y-10365624D01*
X12769839Y-10367588D01*
X12777845Y-10372937D01*
X12777845Y-10372937D01*
X12777846Y-10372938D01*
X12789821Y-10377898D01*
X12794233Y-10379725D01*
X12794234Y-10379725D01*
X12794234Y-10379726D01*
X12811630Y-10383186D01*
X12811631Y-10383186D01*
X12811631Y-10383186D01*
X12909369Y-10383186D01*
X12909369Y-10383186D01*
X12915168Y-10382032D01*
X12926766Y-10379726D01*
X12926766Y-10379725D01*
X12926767Y-10379725D01*
X12943155Y-10372937D01*
X12957903Y-10363082D01*
X12970446Y-10350540D01*
X12980301Y-10335791D01*
X12980301Y-10335790D01*
X12980302Y-10335790D01*
X12981560Y-10332753D01*
X14214950Y-10332753D01*
X14214950Y-10347248D01*
X14215832Y-10350540D01*
X14218702Y-10361249D01*
X14225949Y-10373801D01*
X14225949Y-10373801D01*
X14225949Y-10373802D01*
X14236198Y-10384051D01*
X14236199Y-10384051D01*
X14236199Y-10384051D01*
X14248751Y-10391298D01*
X14248751Y-10391298D01*
X14248751Y-10391298D01*
X14262752Y-10395050D01*
X14262753Y-10395050D01*
X14277247Y-10395050D01*
X14277247Y-10395050D01*
X14291248Y-10391298D01*
X14303801Y-10384051D01*
X14314051Y-10373802D01*
X14321298Y-10361249D01*
X14325050Y-10347248D01*
X14325050Y-10332753D01*
X14321298Y-10318752D01*
X14314051Y-10306199D01*
X14303801Y-10295949D01*
X14303801Y-10295949D01*
X14303801Y-10295949D01*
X14291249Y-10288702D01*
X14291249Y-10288702D01*
X14290101Y-10288394D01*
X14277247Y-10284950D01*
X14262752Y-10284950D01*
X14249899Y-10288394D01*
X14248751Y-10288702D01*
X14236199Y-10295949D01*
X14236198Y-10295949D01*
X14225949Y-10306198D01*
X14225949Y-10306199D01*
X14218702Y-10318751D01*
X14218527Y-10319403D01*
X14214950Y-10332753D01*
X12981560Y-10332753D01*
X12983862Y-10327195D01*
X12984595Y-10325423D01*
X12987089Y-10319403D01*
X12987219Y-10318752D01*
X12990550Y-10302006D01*
X12990550Y-10302005D01*
X12990550Y-10284267D01*
X12990550Y-10284266D01*
X12987090Y-10266870D01*
X12987089Y-10266869D01*
X12980302Y-10250482D01*
X12980301Y-10250481D01*
X12970446Y-10235733D01*
X12970446Y-10235732D01*
X12957904Y-10223190D01*
X12957903Y-10223190D01*
X12943155Y-10213335D01*
X12943154Y-10213334D01*
X12926767Y-10206547D01*
X12926766Y-10206546D01*
X12909369Y-10203086D01*
X12909369Y-10203086D01*
X12811631Y-10203086D01*
X12811631Y-10203086D01*
X12794234Y-10206546D01*
X12794233Y-10206547D01*
X12777846Y-10213334D01*
X12777845Y-10213335D01*
X12769839Y-10218684D01*
X12763171Y-10220772D01*
X12756433Y-10218924D01*
X12751764Y-10213726D01*
X12750550Y-10208374D01*
X12750550Y-10123898D01*
X12752518Y-10117194D01*
X12757799Y-10112619D01*
X12764715Y-10111624D01*
X12769839Y-10113588D01*
X12777845Y-10118937D01*
X12777845Y-10118937D01*
X12777846Y-10118938D01*
X12789821Y-10123898D01*
X12794233Y-10125725D01*
X12794234Y-10125725D01*
X12794234Y-10125726D01*
X12811630Y-10129186D01*
X12811631Y-10129186D01*
X12811631Y-10129186D01*
X12909369Y-10129186D01*
X12909369Y-10129186D01*
X12915168Y-10128032D01*
X12926766Y-10125726D01*
X12926766Y-10125725D01*
X12926767Y-10125725D01*
X12943155Y-10118937D01*
X12957903Y-10109082D01*
X12970446Y-10096540D01*
X12980301Y-10081791D01*
X12987089Y-10065403D01*
X12990550Y-10048005D01*
X12990550Y-10030267D01*
X12990550Y-10030267D01*
X12990550Y-10030266D01*
X12987090Y-10012870D01*
X12987089Y-10012869D01*
X12980302Y-9996482D01*
X12980301Y-9996481D01*
X12970446Y-9981733D01*
X12970446Y-9981732D01*
X12957904Y-9969190D01*
X12957903Y-9969190D01*
X12943155Y-9959335D01*
X12943154Y-9959334D01*
X12926767Y-9952547D01*
X12926766Y-9952546D01*
X12909369Y-9949086D01*
X12909369Y-9949086D01*
X12811631Y-9949086D01*
X12811631Y-9949086D01*
X12794234Y-9952546D01*
X12794233Y-9952547D01*
X12777846Y-9959334D01*
X12777845Y-9959335D01*
X12769839Y-9964684D01*
X12763171Y-9966772D01*
X12756433Y-9964924D01*
X12751764Y-9959726D01*
X12750550Y-9954374D01*
X12750550Y-9869898D01*
X12752518Y-9863194D01*
X12757799Y-9858619D01*
X12764715Y-9857624D01*
X12769839Y-9859588D01*
X12777845Y-9864937D01*
X12777845Y-9864937D01*
X12777846Y-9864938D01*
X12789821Y-9869898D01*
X12794233Y-9871725D01*
X12794234Y-9871725D01*
X12794234Y-9871726D01*
X12811630Y-9875186D01*
X12811631Y-9875186D01*
X12811631Y-9875186D01*
X12909369Y-9875186D01*
X12909369Y-9875186D01*
X12915168Y-9874032D01*
X12926766Y-9871726D01*
X12926766Y-9871725D01*
X12926767Y-9871725D01*
X12943155Y-9864937D01*
X12957903Y-9855082D01*
X12970446Y-9842540D01*
X12980301Y-9827791D01*
X12987089Y-9811403D01*
X12990550Y-9794005D01*
X12990550Y-9792753D01*
X13264950Y-9792753D01*
X13264950Y-9807248D01*
X13268702Y-9821249D01*
X13268702Y-9821249D01*
X13275949Y-9833801D01*
X13275949Y-9833801D01*
X13275949Y-9833802D01*
X13286198Y-9844051D01*
X13286199Y-9844051D01*
X13286199Y-9844051D01*
X13298751Y-9851298D01*
X13298751Y-9851298D01*
X13298751Y-9851298D01*
X13312752Y-9855050D01*
X13312753Y-9855050D01*
X13327247Y-9855050D01*
X13327247Y-9855050D01*
X13341248Y-9851298D01*
X13353801Y-9844051D01*
X13364051Y-9833802D01*
X13371298Y-9821249D01*
X13375050Y-9807248D01*
X13375050Y-9792753D01*
X14784950Y-9792753D01*
X14784950Y-9807248D01*
X14788702Y-9821249D01*
X14788702Y-9821249D01*
X14795949Y-9833801D01*
X14795949Y-9833801D01*
X14795949Y-9833802D01*
X14806198Y-9844051D01*
X14806199Y-9844051D01*
X14806199Y-9844051D01*
X14818751Y-9851298D01*
X14818751Y-9851298D01*
X14818751Y-9851298D01*
X14832752Y-9855050D01*
X14832753Y-9855050D01*
X14847247Y-9855050D01*
X14847247Y-9855050D01*
X14861248Y-9851298D01*
X14873801Y-9844051D01*
X14884051Y-9833802D01*
X14891298Y-9821249D01*
X14895050Y-9807248D01*
X14895050Y-9792753D01*
X14891298Y-9778752D01*
X14889864Y-9776267D01*
X14884051Y-9766199D01*
X14884051Y-9766198D01*
X14873802Y-9755949D01*
X14873801Y-9755949D01*
X14861249Y-9748702D01*
X14861249Y-9748702D01*
X14860101Y-9748394D01*
X14847247Y-9744950D01*
X14832752Y-9744950D01*
X14819899Y-9748394D01*
X14818751Y-9748702D01*
X14806199Y-9755949D01*
X14806198Y-9755949D01*
X14795949Y-9766198D01*
X14795949Y-9766199D01*
X14788702Y-9778751D01*
X14788702Y-9778752D01*
X14784950Y-9792753D01*
X13375050Y-9792753D01*
X13371298Y-9778752D01*
X13369864Y-9776267D01*
X13364051Y-9766199D01*
X13364051Y-9766198D01*
X13353802Y-9755949D01*
X13353801Y-9755949D01*
X13341249Y-9748702D01*
X13341249Y-9748702D01*
X13340101Y-9748394D01*
X13327247Y-9744950D01*
X13312752Y-9744950D01*
X13299899Y-9748394D01*
X13298751Y-9748702D01*
X13286199Y-9755949D01*
X13286198Y-9755949D01*
X13275949Y-9766198D01*
X13275949Y-9766199D01*
X13268702Y-9778751D01*
X13268702Y-9778752D01*
X13264950Y-9792753D01*
X12990550Y-9792753D01*
X12990550Y-9776267D01*
X12990550Y-9776267D01*
X12990550Y-9776266D01*
X12987090Y-9758870D01*
X12987089Y-9758869D01*
X12980302Y-9742482D01*
X12980301Y-9742481D01*
X12970446Y-9727733D01*
X12970446Y-9727732D01*
X12957904Y-9715190D01*
X12957903Y-9715190D01*
X12943155Y-9705335D01*
X12943154Y-9705334D01*
X12926767Y-9698547D01*
X12926766Y-9698546D01*
X12909369Y-9695086D01*
X12909369Y-9695086D01*
X12811631Y-9695086D01*
X12811631Y-9695086D01*
X12794234Y-9698546D01*
X12794233Y-9698547D01*
X12777846Y-9705334D01*
X12777845Y-9705335D01*
X12769839Y-9710684D01*
X12763171Y-9712772D01*
X12756433Y-9710924D01*
X12751764Y-9705726D01*
X12750550Y-9700374D01*
X12750550Y-9632753D01*
X13404950Y-9632753D01*
X13404950Y-9647248D01*
X13407041Y-9655050D01*
X13408702Y-9661249D01*
X13415949Y-9673801D01*
X13415949Y-9673801D01*
X13415949Y-9673802D01*
X13426198Y-9684051D01*
X13426199Y-9684051D01*
X13426199Y-9684051D01*
X13438751Y-9691298D01*
X13438751Y-9691298D01*
X13438751Y-9691298D01*
X13452752Y-9695050D01*
X13452753Y-9695050D01*
X13467247Y-9695050D01*
X13467247Y-9695050D01*
X13481248Y-9691298D01*
X13493801Y-9684051D01*
X13504051Y-9673802D01*
X13511298Y-9661249D01*
X13515050Y-9647248D01*
X13515050Y-9642839D01*
X13517018Y-9636135D01*
X13522299Y-9631559D01*
X13529215Y-9630565D01*
X13535570Y-9633467D01*
X13536218Y-9634071D01*
X13546198Y-9644051D01*
X13546199Y-9644051D01*
X13546199Y-9644051D01*
X13558751Y-9651298D01*
X13558751Y-9651298D01*
X13558751Y-9651298D01*
X13572752Y-9655050D01*
X13572753Y-9655050D01*
X13587247Y-9655050D01*
X13587247Y-9655050D01*
X13595822Y-9652753D01*
X13844950Y-9652753D01*
X13844950Y-9667248D01*
X13848702Y-9681249D01*
X13848702Y-9681249D01*
X13855949Y-9693801D01*
X13855949Y-9693801D01*
X13855949Y-9693802D01*
X13866198Y-9704051D01*
X13866199Y-9704051D01*
X13866199Y-9704051D01*
X13878751Y-9711298D01*
X13878751Y-9711298D01*
X13878751Y-9711298D01*
X13892752Y-9715050D01*
X13892753Y-9715050D01*
X13907247Y-9715050D01*
X13907247Y-9715050D01*
X13921248Y-9711298D01*
X13933801Y-9704051D01*
X13944051Y-9693802D01*
X13951298Y-9681249D01*
X13955050Y-9667248D01*
X13955050Y-9652753D01*
X13951298Y-9638752D01*
X13951298Y-9638751D01*
X13950945Y-9638140D01*
X13950945Y-9638140D01*
X13948440Y-9633802D01*
X13947835Y-9632753D01*
X14644950Y-9632753D01*
X14644950Y-9647248D01*
X14647041Y-9655050D01*
X14648702Y-9661249D01*
X14655949Y-9673801D01*
X14655949Y-9673801D01*
X14655949Y-9673802D01*
X14666198Y-9684051D01*
X14666199Y-9684051D01*
X14666199Y-9684051D01*
X14678751Y-9691298D01*
X14678751Y-9691298D01*
X14678751Y-9691298D01*
X14692752Y-9695050D01*
X14692753Y-9695050D01*
X14707247Y-9695050D01*
X14707247Y-9695050D01*
X14721248Y-9691298D01*
X14733801Y-9684051D01*
X14744051Y-9673802D01*
X14751298Y-9661249D01*
X14755050Y-9647248D01*
X14755050Y-9632753D01*
X14751298Y-9618752D01*
X14750706Y-9617726D01*
X14744051Y-9606199D01*
X14744051Y-9606198D01*
X14733802Y-9595949D01*
X14733801Y-9595949D01*
X14721249Y-9588702D01*
X14721249Y-9588702D01*
X14720101Y-9588394D01*
X14707247Y-9584950D01*
X14692752Y-9584950D01*
X14679899Y-9588394D01*
X14678751Y-9588702D01*
X14666199Y-9595949D01*
X14666198Y-9595949D01*
X14655949Y-9606198D01*
X14655949Y-9606199D01*
X14648702Y-9618751D01*
X14648702Y-9618752D01*
X14644950Y-9632753D01*
X13947835Y-9632753D01*
X13944051Y-9626199D01*
X13933801Y-9615949D01*
X13933801Y-9615949D01*
X13933801Y-9615949D01*
X13921249Y-9608702D01*
X13921249Y-9608702D01*
X13920101Y-9608394D01*
X13907247Y-9604950D01*
X13892752Y-9604950D01*
X13879899Y-9608394D01*
X13878751Y-9608702D01*
X13866199Y-9615949D01*
X13866198Y-9615949D01*
X13855949Y-9626198D01*
X13855949Y-9626199D01*
X13848702Y-9638751D01*
X13848702Y-9638752D01*
X13844950Y-9652753D01*
X13595822Y-9652753D01*
X13601248Y-9651298D01*
X13613801Y-9644051D01*
X13624051Y-9633802D01*
X13631298Y-9621249D01*
X13635050Y-9607248D01*
X13635050Y-9592753D01*
X13631298Y-9578752D01*
X13624051Y-9566199D01*
X13613801Y-9555949D01*
X13613801Y-9555949D01*
X13613801Y-9555949D01*
X13601249Y-9548702D01*
X13601249Y-9548702D01*
X13600101Y-9548394D01*
X13587247Y-9544950D01*
X13572752Y-9544950D01*
X13559899Y-9548394D01*
X13558751Y-9548702D01*
X13546199Y-9555949D01*
X13546198Y-9555949D01*
X13535949Y-9566198D01*
X13535949Y-9566199D01*
X13528702Y-9578751D01*
X13528702Y-9578752D01*
X13524950Y-9592753D01*
X13524950Y-9592753D01*
X13524950Y-9597161D01*
X13522981Y-9603865D01*
X13517701Y-9608441D01*
X13510785Y-9609435D01*
X13504430Y-9606533D01*
X13503782Y-9605930D01*
X13493802Y-9595949D01*
X13493801Y-9595949D01*
X13481249Y-9588702D01*
X13481249Y-9588702D01*
X13480101Y-9588394D01*
X13467247Y-9584950D01*
X13452752Y-9584950D01*
X13439899Y-9588394D01*
X13438751Y-9588702D01*
X13426199Y-9595949D01*
X13426198Y-9595949D01*
X13415949Y-9606198D01*
X13415949Y-9606199D01*
X13408702Y-9618751D01*
X13408702Y-9618752D01*
X13404950Y-9632753D01*
X12750550Y-9632753D01*
X12750550Y-9615898D01*
X12752518Y-9609194D01*
X12757799Y-9604619D01*
X12764715Y-9603624D01*
X12769839Y-9605588D01*
X12777845Y-9610937D01*
X12777845Y-9610937D01*
X12777846Y-9610938D01*
X12789821Y-9615898D01*
X12794233Y-9617725D01*
X12794234Y-9617725D01*
X12794234Y-9617726D01*
X12811630Y-9621186D01*
X12811631Y-9621186D01*
X12811631Y-9621186D01*
X12909369Y-9621186D01*
X12909369Y-9621186D01*
X12911393Y-9620783D01*
X12916447Y-9619778D01*
X12916447Y-9619778D01*
X12922254Y-9618623D01*
X12926767Y-9617725D01*
X12943155Y-9610937D01*
X12957903Y-9601082D01*
X12970446Y-9588540D01*
X12980301Y-9573791D01*
X12987089Y-9557403D01*
X12987379Y-9555949D01*
X12990550Y-9540006D01*
X12990550Y-9540005D01*
X12990550Y-9522267D01*
X12990550Y-9522266D01*
X12987090Y-9504870D01*
X12987089Y-9504869D01*
X12980302Y-9488482D01*
X12980301Y-9488481D01*
X12976473Y-9482753D01*
X13254950Y-9482753D01*
X13254950Y-9497248D01*
X13256992Y-9504870D01*
X13258702Y-9511249D01*
X13265949Y-9523801D01*
X13265949Y-9523801D01*
X13265949Y-9523802D01*
X13276198Y-9534051D01*
X13276199Y-9534051D01*
X13276199Y-9534051D01*
X13288751Y-9541298D01*
X13288751Y-9541298D01*
X13288751Y-9541298D01*
X13302752Y-9545050D01*
X13302753Y-9545050D01*
X13317247Y-9545050D01*
X13317247Y-9545050D01*
X13331248Y-9541298D01*
X13343801Y-9534051D01*
X13354051Y-9523802D01*
X13361298Y-9511249D01*
X13365050Y-9497248D01*
X13365050Y-9482753D01*
X13361298Y-9468752D01*
X13358584Y-9464051D01*
X13354051Y-9456199D01*
X13354051Y-9456198D01*
X13343802Y-9445949D01*
X13343801Y-9445949D01*
X13331249Y-9438702D01*
X13331249Y-9438702D01*
X13330101Y-9438394D01*
X13317247Y-9434950D01*
X13302752Y-9434950D01*
X13289899Y-9438394D01*
X13288751Y-9438702D01*
X13276199Y-9445949D01*
X13276198Y-9445949D01*
X13265949Y-9456198D01*
X13265949Y-9456199D01*
X13258702Y-9468751D01*
X13258702Y-9468752D01*
X13254950Y-9482753D01*
X12976473Y-9482753D01*
X12970446Y-9473733D01*
X12970446Y-9473732D01*
X12957904Y-9461190D01*
X12957903Y-9461190D01*
X12943155Y-9451335D01*
X12943154Y-9451334D01*
X12926767Y-9444547D01*
X12926766Y-9444546D01*
X12909369Y-9441086D01*
X12909369Y-9441086D01*
X12811631Y-9441086D01*
X12811631Y-9441086D01*
X12794234Y-9444546D01*
X12794233Y-9444547D01*
X12777846Y-9451334D01*
X12777845Y-9451335D01*
X12769839Y-9456684D01*
X12763171Y-9458772D01*
X12756433Y-9456924D01*
X12751764Y-9451726D01*
X12750550Y-9446374D01*
X12750550Y-9412753D01*
X14664950Y-9412753D01*
X14664950Y-9427248D01*
X14667014Y-9434950D01*
X14668702Y-9441249D01*
X14675949Y-9453801D01*
X14675949Y-9453801D01*
X14675949Y-9453802D01*
X14686198Y-9464051D01*
X14686199Y-9464051D01*
X14686199Y-9464051D01*
X14698751Y-9471298D01*
X14698751Y-9471298D01*
X14698751Y-9471298D01*
X14712752Y-9475050D01*
X14712753Y-9475050D01*
X14727247Y-9475050D01*
X14727247Y-9475050D01*
X14741248Y-9471298D01*
X14753801Y-9464051D01*
X14764051Y-9453802D01*
X14771298Y-9441249D01*
X14774636Y-9428792D01*
X14778272Y-9422827D01*
X14784557Y-9419774D01*
X14791495Y-9420603D01*
X14795381Y-9423234D01*
X14796198Y-9424051D01*
X14796199Y-9424051D01*
X14796199Y-9424051D01*
X14808751Y-9431298D01*
X14808751Y-9431298D01*
X14808751Y-9431298D01*
X14822752Y-9435050D01*
X14822753Y-9435050D01*
X14837247Y-9435050D01*
X14837247Y-9435050D01*
X14851248Y-9431298D01*
X14863801Y-9424051D01*
X14874051Y-9413802D01*
X14881298Y-9401249D01*
X14885050Y-9387248D01*
X14885050Y-9372753D01*
X14881298Y-9358752D01*
X14880251Y-9356938D01*
X14874051Y-9346199D01*
X14874051Y-9346198D01*
X14863802Y-9335949D01*
X14863801Y-9335949D01*
X14851249Y-9328702D01*
X14851249Y-9328702D01*
X14850101Y-9328394D01*
X14837247Y-9324950D01*
X14822752Y-9324950D01*
X14809899Y-9328394D01*
X14808751Y-9328702D01*
X14796199Y-9335949D01*
X14796198Y-9335949D01*
X14785949Y-9346198D01*
X14785949Y-9346199D01*
X14778702Y-9358751D01*
X14778701Y-9358752D01*
X14775364Y-9371207D01*
X14771727Y-9377173D01*
X14765443Y-9380226D01*
X14758505Y-9379397D01*
X14754618Y-9376766D01*
X14753802Y-9375949D01*
X14753801Y-9375949D01*
X14741249Y-9368702D01*
X14741249Y-9368702D01*
X14740101Y-9368394D01*
X14727247Y-9364950D01*
X14712752Y-9364950D01*
X14699899Y-9368394D01*
X14698751Y-9368702D01*
X14686199Y-9375949D01*
X14686198Y-9375949D01*
X14675949Y-9386198D01*
X14675949Y-9386199D01*
X14668702Y-9398751D01*
X14668702Y-9398752D01*
X14664950Y-9412753D01*
X12750550Y-9412753D01*
X12750550Y-9361898D01*
X12752518Y-9355194D01*
X12757799Y-9350619D01*
X12764715Y-9349624D01*
X12769839Y-9351588D01*
X12777845Y-9356937D01*
X12777845Y-9356937D01*
X12777846Y-9356938D01*
X12789821Y-9361898D01*
X12794233Y-9363725D01*
X12794234Y-9363725D01*
X12794234Y-9363726D01*
X12811630Y-9367186D01*
X12811631Y-9367186D01*
X12811631Y-9367186D01*
X12909369Y-9367186D01*
X12909369Y-9367186D01*
X12915168Y-9366032D01*
X12926766Y-9363726D01*
X12926766Y-9363725D01*
X12926767Y-9363725D01*
X12943155Y-9356937D01*
X12957903Y-9347082D01*
X12970446Y-9334540D01*
X12980301Y-9319791D01*
X12987089Y-9303403D01*
X12987518Y-9301249D01*
X12990550Y-9286006D01*
X12990550Y-9286005D01*
X12990550Y-9272753D01*
X13244950Y-9272753D01*
X13244950Y-9287248D01*
X13248702Y-9301249D01*
X13248702Y-9301249D01*
X13255949Y-9313801D01*
X13255949Y-9313801D01*
X13255949Y-9313802D01*
X13266198Y-9324051D01*
X13266199Y-9324051D01*
X13266199Y-9324051D01*
X13278751Y-9331298D01*
X13278751Y-9331298D01*
X13278751Y-9331298D01*
X13292752Y-9335050D01*
X13292753Y-9335050D01*
X13307247Y-9335050D01*
X13307247Y-9335050D01*
X13321248Y-9331298D01*
X13333801Y-9324051D01*
X13344051Y-9313802D01*
X13351298Y-9301249D01*
X13355050Y-9287248D01*
X13355050Y-9272753D01*
X14664950Y-9272753D01*
X14664950Y-9287248D01*
X14668702Y-9301249D01*
X14668702Y-9301249D01*
X14675949Y-9313801D01*
X14675949Y-9313801D01*
X14675949Y-9313802D01*
X14686198Y-9324051D01*
X14686199Y-9324051D01*
X14686199Y-9324051D01*
X14698751Y-9331298D01*
X14698751Y-9331298D01*
X14698751Y-9331298D01*
X14712752Y-9335050D01*
X14712753Y-9335050D01*
X14727247Y-9335050D01*
X14727247Y-9335050D01*
X14741248Y-9331298D01*
X14753801Y-9324051D01*
X14764051Y-9313802D01*
X14771298Y-9301249D01*
X14775050Y-9287248D01*
X14775050Y-9272753D01*
X14771298Y-9258752D01*
X14766747Y-9250869D01*
X14764051Y-9246199D01*
X14764051Y-9246198D01*
X14753802Y-9235949D01*
X14753801Y-9235949D01*
X14741249Y-9228702D01*
X14741249Y-9228702D01*
X14740101Y-9228394D01*
X14727247Y-9224950D01*
X14712752Y-9224950D01*
X14699899Y-9228394D01*
X14698751Y-9228702D01*
X14686199Y-9235949D01*
X14686198Y-9235949D01*
X14675949Y-9246198D01*
X14675949Y-9246199D01*
X14668702Y-9258751D01*
X14668702Y-9258752D01*
X14664950Y-9272753D01*
X13355050Y-9272753D01*
X13351298Y-9258752D01*
X13346747Y-9250869D01*
X13344051Y-9246199D01*
X13344051Y-9246198D01*
X13333802Y-9235949D01*
X13333801Y-9235949D01*
X13321249Y-9228702D01*
X13321249Y-9228702D01*
X13320101Y-9228394D01*
X13307247Y-9224950D01*
X13292752Y-9224950D01*
X13279899Y-9228394D01*
X13278751Y-9228702D01*
X13266199Y-9235949D01*
X13266198Y-9235949D01*
X13255949Y-9246198D01*
X13255949Y-9246199D01*
X13248702Y-9258751D01*
X13248702Y-9258752D01*
X13244950Y-9272753D01*
X12990550Y-9272753D01*
X12990550Y-9268267D01*
X12990550Y-9268266D01*
X12987090Y-9250870D01*
X12987089Y-9250869D01*
X12980302Y-9234482D01*
X12980301Y-9234481D01*
X12970446Y-9219733D01*
X12970446Y-9219732D01*
X12957904Y-9207190D01*
X12957903Y-9207190D01*
X12943155Y-9197335D01*
X12943154Y-9197334D01*
X12926767Y-9190547D01*
X12926766Y-9190546D01*
X12909369Y-9187086D01*
X12909369Y-9187086D01*
X12811631Y-9187086D01*
X12811631Y-9187086D01*
X12794234Y-9190546D01*
X12794233Y-9190547D01*
X12777846Y-9197334D01*
X12777845Y-9197335D01*
X12769839Y-9202684D01*
X12763171Y-9204772D01*
X12756433Y-9202924D01*
X12751764Y-9197726D01*
X12750550Y-9192374D01*
X12750550Y-9107898D01*
X12752518Y-9101194D01*
X12757799Y-9096619D01*
X12764715Y-9095624D01*
X12769839Y-9097588D01*
X12777845Y-9102937D01*
X12777845Y-9102937D01*
X12777846Y-9102938D01*
X12789821Y-9107898D01*
X12794233Y-9109725D01*
X12794234Y-9109725D01*
X12794234Y-9109726D01*
X12811630Y-9113186D01*
X12811631Y-9113186D01*
X12811631Y-9113186D01*
X12909369Y-9113186D01*
X12909369Y-9113186D01*
X12915168Y-9112032D01*
X12926766Y-9109726D01*
X12926766Y-9109725D01*
X12926767Y-9109725D01*
X12943155Y-9102937D01*
X12957903Y-9093082D01*
X12970446Y-9080540D01*
X12975649Y-9072753D01*
X13854950Y-9072753D01*
X13854950Y-9087248D01*
X13857461Y-9096619D01*
X13858702Y-9101249D01*
X13865949Y-9113801D01*
X13865949Y-9113801D01*
X13865949Y-9113802D01*
X13876198Y-9124051D01*
X13876199Y-9124051D01*
X13876199Y-9124051D01*
X13888751Y-9131298D01*
X13888751Y-9131298D01*
X13888751Y-9131298D01*
X13902752Y-9135050D01*
X13902753Y-9135050D01*
X13917247Y-9135050D01*
X13917247Y-9135050D01*
X13931248Y-9131298D01*
X13943801Y-9124051D01*
X13954051Y-9113802D01*
X13961298Y-9101249D01*
X13965050Y-9087248D01*
X13965050Y-9072753D01*
X13961298Y-9058752D01*
X13958441Y-9053802D01*
X13954051Y-9046199D01*
X13954051Y-9046198D01*
X13943802Y-9035949D01*
X13943801Y-9035949D01*
X13931249Y-9028702D01*
X13931249Y-9028702D01*
X13930101Y-9028394D01*
X13917247Y-9024950D01*
X13902752Y-9024950D01*
X13889899Y-9028394D01*
X13888751Y-9028702D01*
X13876199Y-9035949D01*
X13876198Y-9035949D01*
X13865949Y-9046198D01*
X13865949Y-9046199D01*
X13858702Y-9058751D01*
X13858702Y-9058752D01*
X13854950Y-9072753D01*
X12975649Y-9072753D01*
X12980301Y-9065791D01*
X12987089Y-9049403D01*
X12987727Y-9046199D01*
X12990550Y-9032006D01*
X12990550Y-9032005D01*
X12990550Y-9014267D01*
X12990550Y-9014266D01*
X12990249Y-9012753D01*
X14744950Y-9012753D01*
X14744950Y-9027248D01*
X14747282Y-9035949D01*
X14748702Y-9041249D01*
X14755949Y-9053801D01*
X14755949Y-9053801D01*
X14755949Y-9053802D01*
X14766198Y-9064051D01*
X14766199Y-9064051D01*
X14766199Y-9064051D01*
X14778751Y-9071298D01*
X14778751Y-9071298D01*
X14778751Y-9071298D01*
X14792752Y-9075050D01*
X14792753Y-9075050D01*
X14807247Y-9075050D01*
X14807247Y-9075050D01*
X14821248Y-9071298D01*
X14833801Y-9064051D01*
X14844051Y-9053802D01*
X14851298Y-9041249D01*
X14855050Y-9027248D01*
X14855050Y-9012753D01*
X14851298Y-8998752D01*
X14844051Y-8986199D01*
X14833801Y-8975949D01*
X14833801Y-8975949D01*
X14833801Y-8975949D01*
X14821249Y-8968702D01*
X14821249Y-8968702D01*
X14820101Y-8968394D01*
X14807247Y-8964950D01*
X14792752Y-8964950D01*
X14779899Y-8968394D01*
X14778751Y-8968702D01*
X14766199Y-8975949D01*
X14766198Y-8975949D01*
X14755949Y-8986198D01*
X14755949Y-8986199D01*
X14748702Y-8998751D01*
X14748702Y-8998752D01*
X14744950Y-9012753D01*
X12990249Y-9012753D01*
X12987089Y-8996870D01*
X12987089Y-8996869D01*
X12985392Y-8992772D01*
X12980302Y-8980482D01*
X12980301Y-8980481D01*
X12970446Y-8965733D01*
X12970446Y-8965732D01*
X12957904Y-8953190D01*
X12957903Y-8953190D01*
X12943155Y-8943335D01*
X12943154Y-8943334D01*
X12926767Y-8936547D01*
X12926766Y-8936546D01*
X12909369Y-8933086D01*
X12909369Y-8933086D01*
X12811631Y-8933086D01*
X12811631Y-8933086D01*
X12794234Y-8936546D01*
X12794233Y-8936547D01*
X12777846Y-8943334D01*
X12777845Y-8943335D01*
X12769839Y-8948684D01*
X12763171Y-8950772D01*
X12756433Y-8948924D01*
X12751764Y-8943726D01*
X12750550Y-8938374D01*
X12750550Y-8853898D01*
X12752518Y-8847194D01*
X12757799Y-8842619D01*
X12764715Y-8841624D01*
X12769839Y-8843588D01*
X12777845Y-8848937D01*
X12777845Y-8848937D01*
X12777846Y-8848938D01*
X12787056Y-8852753D01*
X12794233Y-8855725D01*
X12794234Y-8855725D01*
X12794234Y-8855726D01*
X12811630Y-8859186D01*
X12811631Y-8859186D01*
X12811631Y-8859186D01*
X12909369Y-8859186D01*
X12909369Y-8859186D01*
X12915168Y-8858032D01*
X12926766Y-8855726D01*
X12926766Y-8855725D01*
X12926767Y-8855725D01*
X12933944Y-8852753D01*
X13237450Y-8852753D01*
X13237450Y-8867248D01*
X13241202Y-8881249D01*
X13241202Y-8881249D01*
X13248449Y-8893801D01*
X13248449Y-8893801D01*
X13248449Y-8893802D01*
X13258698Y-8904051D01*
X13258699Y-8904051D01*
X13258699Y-8904051D01*
X13271251Y-8911298D01*
X13271251Y-8911298D01*
X13271251Y-8911298D01*
X13285252Y-8915050D01*
X13285253Y-8915050D01*
X13299747Y-8915050D01*
X13299747Y-8915050D01*
X13313748Y-8911298D01*
X13323800Y-8905495D01*
X13330590Y-8903848D01*
X13336200Y-8905495D01*
X13346251Y-8911298D01*
X13360252Y-8915050D01*
X13360253Y-8915050D01*
X13374747Y-8915050D01*
X13374747Y-8915050D01*
X13388748Y-8911298D01*
X13401301Y-8904051D01*
X13411551Y-8893802D01*
X13418798Y-8881249D01*
X13421075Y-8872753D01*
X13544950Y-8872753D01*
X13544950Y-8887248D01*
X13548461Y-8900352D01*
X13548702Y-8901249D01*
X13555949Y-8913801D01*
X13555949Y-8913801D01*
X13555949Y-8913802D01*
X13566198Y-8924051D01*
X13566199Y-8924051D01*
X13566199Y-8924051D01*
X13578751Y-8931298D01*
X13578751Y-8931298D01*
X13578751Y-8931298D01*
X13592752Y-8935050D01*
X13592753Y-8935050D01*
X13607247Y-8935050D01*
X13607247Y-8935050D01*
X13621248Y-8931298D01*
X13633801Y-8924051D01*
X13644051Y-8913802D01*
X13651298Y-8901249D01*
X13655050Y-8887248D01*
X13655050Y-8872753D01*
X13724950Y-8872753D01*
X13724950Y-8887248D01*
X13728461Y-8900352D01*
X13728702Y-8901249D01*
X13735949Y-8913801D01*
X13735949Y-8913801D01*
X13735949Y-8913802D01*
X13746198Y-8924051D01*
X13746199Y-8924051D01*
X13746199Y-8924051D01*
X13758751Y-8931298D01*
X13758751Y-8931298D01*
X13758751Y-8931298D01*
X13772752Y-8935050D01*
X13772753Y-8935050D01*
X13787247Y-8935050D01*
X13787247Y-8935050D01*
X13801248Y-8931298D01*
X13813801Y-8924051D01*
X13824051Y-8913802D01*
X13831298Y-8901249D01*
X13835050Y-8887248D01*
X13835050Y-8872753D01*
X13831298Y-8858752D01*
X13828496Y-8853898D01*
X13824051Y-8846199D01*
X13824051Y-8846198D01*
X13813802Y-8835949D01*
X13813801Y-8835949D01*
X13801249Y-8828702D01*
X13801249Y-8828702D01*
X13800101Y-8828394D01*
X13787247Y-8824950D01*
X13772752Y-8824950D01*
X13759899Y-8828394D01*
X13758751Y-8828702D01*
X13746199Y-8835949D01*
X13746198Y-8835949D01*
X13735949Y-8846198D01*
X13735949Y-8846199D01*
X13728702Y-8858751D01*
X13728702Y-8858752D01*
X13724950Y-8872753D01*
X13655050Y-8872753D01*
X13651298Y-8858752D01*
X13648496Y-8853898D01*
X13644051Y-8846199D01*
X13644051Y-8846198D01*
X13633802Y-8835949D01*
X13633801Y-8835949D01*
X13621249Y-8828702D01*
X13621249Y-8828702D01*
X13620101Y-8828394D01*
X13607247Y-8824950D01*
X13592752Y-8824950D01*
X13579899Y-8828394D01*
X13578751Y-8828702D01*
X13566199Y-8835949D01*
X13566198Y-8835949D01*
X13555949Y-8846198D01*
X13555949Y-8846199D01*
X13548702Y-8858751D01*
X13548702Y-8858752D01*
X13544950Y-8872753D01*
X13421075Y-8872753D01*
X13422550Y-8867248D01*
X13422550Y-8852753D01*
X13418798Y-8838752D01*
X13417180Y-8835949D01*
X13411551Y-8826199D01*
X13411551Y-8826198D01*
X13401302Y-8815949D01*
X13401301Y-8815949D01*
X13388749Y-8808702D01*
X13388749Y-8808702D01*
X13387601Y-8808394D01*
X13374747Y-8804950D01*
X13360252Y-8804950D01*
X13347399Y-8808394D01*
X13346251Y-8808702D01*
X13336200Y-8814505D01*
X13329410Y-8816152D01*
X13323800Y-8814505D01*
X13313749Y-8808702D01*
X13313749Y-8808702D01*
X13312601Y-8808394D01*
X13299747Y-8804950D01*
X13285252Y-8804950D01*
X13272399Y-8808394D01*
X13271251Y-8808702D01*
X13258699Y-8815949D01*
X13258698Y-8815949D01*
X13248449Y-8826198D01*
X13248449Y-8826199D01*
X13241202Y-8838751D01*
X13241202Y-8838752D01*
X13237450Y-8852753D01*
X12933944Y-8852753D01*
X12943155Y-8848937D01*
X12954285Y-8841500D01*
X12954933Y-8841067D01*
X12957903Y-8839082D01*
X12970446Y-8826540D01*
X12980301Y-8811791D01*
X12987089Y-8795403D01*
X12990550Y-8778005D01*
X12990550Y-8760267D01*
X12990550Y-8760267D01*
X12990550Y-8760266D01*
X12987090Y-8742870D01*
X12987089Y-8742869D01*
X12980302Y-8726482D01*
X12980301Y-8726481D01*
X12970446Y-8711733D01*
X12970446Y-8711732D01*
X12957904Y-8699190D01*
X12957903Y-8699190D01*
X12943155Y-8689335D01*
X12943154Y-8689334D01*
X12926767Y-8682547D01*
X12926766Y-8682546D01*
X12909369Y-8679086D01*
X12909369Y-8679086D01*
X12811631Y-8679086D01*
X12811631Y-8679086D01*
X12794234Y-8682546D01*
X12794233Y-8682547D01*
X12777846Y-8689334D01*
X12777845Y-8689335D01*
X12769839Y-8694684D01*
X12763171Y-8696772D01*
X12756433Y-8694924D01*
X12751764Y-8689726D01*
X12750550Y-8684374D01*
X12750550Y-8652753D01*
X13824950Y-8652753D01*
X13824950Y-8667248D01*
X13827282Y-8675949D01*
X13828702Y-8681249D01*
X13835949Y-8693801D01*
X13835949Y-8693801D01*
X13835949Y-8693802D01*
X13846198Y-8704051D01*
X13846199Y-8704051D01*
X13846199Y-8704051D01*
X13858751Y-8711298D01*
X13858751Y-8711298D01*
X13858751Y-8711298D01*
X13872752Y-8715050D01*
X13872753Y-8715050D01*
X13887247Y-8715050D01*
X13887247Y-8715050D01*
X13895822Y-8712753D01*
X14114950Y-8712753D01*
X14114950Y-8727248D01*
X14118702Y-8741249D01*
X14118702Y-8741249D01*
X14125949Y-8753801D01*
X14125949Y-8753801D01*
X14125949Y-8753802D01*
X14136198Y-8764051D01*
X14136199Y-8764051D01*
X14136199Y-8764051D01*
X14148751Y-8771298D01*
X14148751Y-8771298D01*
X14148751Y-8771298D01*
X14162752Y-8775050D01*
X14162753Y-8775050D01*
X14177247Y-8775050D01*
X14177247Y-8775050D01*
X14191248Y-8771298D01*
X14203801Y-8764051D01*
X14214051Y-8753802D01*
X14221298Y-8741249D01*
X14225050Y-8727248D01*
X14225050Y-8712753D01*
X14221298Y-8698752D01*
X14220155Y-8696772D01*
X14214051Y-8686199D01*
X14214051Y-8686198D01*
X14203802Y-8675949D01*
X14203801Y-8675949D01*
X14191249Y-8668702D01*
X14191249Y-8668702D01*
X14190101Y-8668394D01*
X14177247Y-8664950D01*
X14162752Y-8664950D01*
X14149899Y-8668394D01*
X14148751Y-8668702D01*
X14136199Y-8675949D01*
X14136198Y-8675949D01*
X14125949Y-8686198D01*
X14125949Y-8686199D01*
X14118702Y-8698751D01*
X14118702Y-8698752D01*
X14114950Y-8712753D01*
X13895822Y-8712753D01*
X13901248Y-8711298D01*
X13913801Y-8704051D01*
X13924051Y-8693802D01*
X13931298Y-8681249D01*
X13935050Y-8667248D01*
X13935050Y-8652753D01*
X13931298Y-8638752D01*
X13929161Y-8635050D01*
X13924051Y-8626199D01*
X13924051Y-8626198D01*
X13913802Y-8615949D01*
X13913801Y-8615949D01*
X13901249Y-8608702D01*
X13901249Y-8608702D01*
X13900101Y-8608394D01*
X13887247Y-8604950D01*
X13872752Y-8604950D01*
X13859899Y-8608394D01*
X13858751Y-8608702D01*
X13846199Y-8615949D01*
X13846198Y-8615949D01*
X13835949Y-8626198D01*
X13835949Y-8626199D01*
X13828702Y-8638751D01*
X13828702Y-8638752D01*
X13824950Y-8652753D01*
X12750550Y-8652753D01*
X12750550Y-8599898D01*
X12752518Y-8593194D01*
X12757799Y-8588619D01*
X12764715Y-8587624D01*
X12769839Y-8589588D01*
X12777845Y-8594937D01*
X12777845Y-8594937D01*
X12777846Y-8594938D01*
X12789821Y-8599898D01*
X12794233Y-8601725D01*
X12794234Y-8601725D01*
X12794234Y-8601726D01*
X12811630Y-8605186D01*
X12811631Y-8605186D01*
X12811631Y-8605186D01*
X12909369Y-8605186D01*
X12909369Y-8605186D01*
X12915168Y-8604032D01*
X12926766Y-8601726D01*
X12926766Y-8601725D01*
X12926767Y-8601725D01*
X12943155Y-8594937D01*
X12957903Y-8585082D01*
X12970233Y-8572753D01*
X14564950Y-8572753D01*
X14564950Y-8587248D01*
X14568702Y-8601249D01*
X14568702Y-8601249D01*
X14575949Y-8613801D01*
X14575949Y-8613801D01*
X14575949Y-8613802D01*
X14586198Y-8624051D01*
X14586199Y-8624051D01*
X14586199Y-8624051D01*
X14598751Y-8631298D01*
X14598751Y-8631298D01*
X14598751Y-8631298D01*
X14612752Y-8635050D01*
X14612753Y-8635050D01*
X14627247Y-8635050D01*
X14627247Y-8635050D01*
X14641248Y-8631298D01*
X14653801Y-8624051D01*
X14664051Y-8613802D01*
X14671298Y-8601249D01*
X14675050Y-8587248D01*
X14675050Y-8572753D01*
X14671298Y-8558752D01*
X14670744Y-8557791D01*
X14664051Y-8546199D01*
X14664051Y-8546198D01*
X14653802Y-8535949D01*
X14653801Y-8535949D01*
X14641249Y-8528702D01*
X14641249Y-8528702D01*
X14640101Y-8528394D01*
X14627247Y-8524950D01*
X14612752Y-8524950D01*
X14599899Y-8528394D01*
X14598751Y-8528702D01*
X14586199Y-8535949D01*
X14586198Y-8535949D01*
X14575949Y-8546198D01*
X14575949Y-8546199D01*
X14568702Y-8558751D01*
X14568702Y-8558752D01*
X14564950Y-8572753D01*
X12970233Y-8572753D01*
X12970446Y-8572540D01*
X12980301Y-8557791D01*
X12987089Y-8541403D01*
X12988174Y-8535949D01*
X12990550Y-8524006D01*
X12990550Y-8524005D01*
X12990550Y-8506267D01*
X12990550Y-8506266D01*
X12987090Y-8488870D01*
X12987089Y-8488869D01*
X12980302Y-8472482D01*
X12980301Y-8472481D01*
X12970446Y-8457733D01*
X12970446Y-8457732D01*
X12957904Y-8445190D01*
X12957903Y-8445190D01*
X12943155Y-8435335D01*
X12943154Y-8435334D01*
X12926767Y-8428547D01*
X12926766Y-8428546D01*
X12909369Y-8425086D01*
X12909369Y-8425086D01*
X12811631Y-8425086D01*
X12811631Y-8425086D01*
X12794234Y-8428546D01*
X12794233Y-8428547D01*
X12777846Y-8435334D01*
X12777845Y-8435335D01*
X12769839Y-8440684D01*
X12763171Y-8442772D01*
X12756433Y-8440924D01*
X12751764Y-8435726D01*
X12750550Y-8430374D01*
X12750550Y-8392753D01*
X13584950Y-8392753D01*
X13584950Y-8407248D01*
X13588001Y-8418633D01*
X13588702Y-8421249D01*
X13595949Y-8433801D01*
X13595949Y-8433801D01*
X13595949Y-8433802D01*
X13606198Y-8444051D01*
X13606199Y-8444051D01*
X13606199Y-8444051D01*
X13618751Y-8451298D01*
X13618751Y-8451298D01*
X13618751Y-8451298D01*
X13632752Y-8455050D01*
X13632753Y-8455050D01*
X13647247Y-8455050D01*
X13647247Y-8455050D01*
X13661248Y-8451298D01*
X13673801Y-8444051D01*
X13684051Y-8433802D01*
X13689261Y-8424777D01*
X13694318Y-8419955D01*
X13701179Y-8418633D01*
X13707665Y-8421230D01*
X13710739Y-8424777D01*
X13712165Y-8427248D01*
X13715949Y-8433802D01*
X13726198Y-8444051D01*
X13726199Y-8444051D01*
X13726199Y-8444051D01*
X13738751Y-8451298D01*
X13738751Y-8451298D01*
X13738751Y-8451298D01*
X13752752Y-8455050D01*
X13752753Y-8455050D01*
X13767247Y-8455050D01*
X13767247Y-8455050D01*
X13781248Y-8451298D01*
X13793801Y-8444051D01*
X13804051Y-8433802D01*
X13811298Y-8421249D01*
X13815050Y-8407248D01*
X13815050Y-8392753D01*
X13811298Y-8378751D01*
X13809680Y-8375949D01*
X13804051Y-8366199D01*
X13804051Y-8366198D01*
X13793802Y-8355949D01*
X13793801Y-8355949D01*
X13781249Y-8348702D01*
X13781249Y-8348702D01*
X13780101Y-8348394D01*
X13767247Y-8344950D01*
X13752752Y-8344950D01*
X13739899Y-8348394D01*
X13738751Y-8348702D01*
X13726199Y-8355949D01*
X13726198Y-8355949D01*
X13715949Y-8366198D01*
X13715949Y-8366198D01*
X13710739Y-8375223D01*
X13705682Y-8380045D01*
X13698821Y-8381367D01*
X13692335Y-8378770D01*
X13689261Y-8375223D01*
X13685496Y-8368702D01*
X13684051Y-8366198D01*
X13673801Y-8355949D01*
X13673801Y-8355949D01*
X13673801Y-8355949D01*
X13661249Y-8348702D01*
X13661249Y-8348702D01*
X13660101Y-8348394D01*
X13647247Y-8344950D01*
X13632752Y-8344950D01*
X13619899Y-8348394D01*
X13618751Y-8348702D01*
X13606199Y-8355949D01*
X13606198Y-8355949D01*
X13595949Y-8366198D01*
X13595949Y-8366199D01*
X13588702Y-8378751D01*
X13588702Y-8378751D01*
X13584950Y-8392753D01*
X12750550Y-8392753D01*
X12750550Y-8345898D01*
X12752518Y-8339194D01*
X12757799Y-8334618D01*
X12764715Y-8333624D01*
X12769839Y-8335588D01*
X12777845Y-8340937D01*
X12777845Y-8340937D01*
X12777846Y-8340938D01*
X12787533Y-8344950D01*
X12794233Y-8347725D01*
X12794234Y-8347725D01*
X12794234Y-8347726D01*
X12811630Y-8351186D01*
X12811631Y-8351186D01*
X12811631Y-8351186D01*
X12909369Y-8351186D01*
X12909369Y-8351186D01*
X12915168Y-8350032D01*
X12926766Y-8347726D01*
X12926766Y-8347725D01*
X12926767Y-8347725D01*
X12943155Y-8340937D01*
X12957903Y-8331082D01*
X12970446Y-8318539D01*
X12980301Y-8303791D01*
X12987089Y-8287403D01*
X12988314Y-8281248D01*
X12990550Y-8270005D01*
X12990550Y-8270005D01*
X12990550Y-8252267D01*
X12990550Y-8252266D01*
X12987090Y-8234870D01*
X12987089Y-8234869D01*
X12980302Y-8218482D01*
X12980301Y-8218481D01*
X12970446Y-8203732D01*
X12970446Y-8203732D01*
X12957904Y-8191190D01*
X12957903Y-8191189D01*
X12944525Y-8182250D01*
X12944524Y-8182250D01*
X12943155Y-8181335D01*
X12943154Y-8181334D01*
X12926767Y-8174547D01*
X12926766Y-8174546D01*
X12917748Y-8172752D01*
X14324950Y-8172752D01*
X14324950Y-8187247D01*
X14328702Y-8201248D01*
X14328702Y-8201249D01*
X14335948Y-8213800D01*
X14337595Y-8220590D01*
X14335948Y-8226200D01*
X14328702Y-8238751D01*
X14328702Y-8238751D01*
X14324950Y-8252752D01*
X14324950Y-8267247D01*
X14328702Y-8281248D01*
X14328702Y-8281249D01*
X14335948Y-8293800D01*
X14337595Y-8300590D01*
X14335948Y-8306200D01*
X14328702Y-8318751D01*
X14328702Y-8318751D01*
X14324950Y-8332752D01*
X14324950Y-8347247D01*
X14327282Y-8355949D01*
X14328702Y-8361249D01*
X14335949Y-8373801D01*
X14335949Y-8373801D01*
X14335949Y-8373801D01*
X14346198Y-8384051D01*
X14346199Y-8384051D01*
X14346199Y-8384051D01*
X14358751Y-8391298D01*
X14358751Y-8391298D01*
X14358751Y-8391298D01*
X14372752Y-8395050D01*
X14372753Y-8395050D01*
X14387247Y-8395050D01*
X14387247Y-8395050D01*
X14401248Y-8391298D01*
X14410163Y-8386152D01*
X14416953Y-8384504D01*
X14423555Y-8386789D01*
X14427874Y-8392282D01*
X14428539Y-8399237D01*
X14428340Y-8400100D01*
X14424950Y-8412753D01*
X14424950Y-8427248D01*
X14427584Y-8437078D01*
X14428702Y-8441249D01*
X14435949Y-8453801D01*
X14435949Y-8453801D01*
X14435949Y-8453802D01*
X14446198Y-8464051D01*
X14446199Y-8464051D01*
X14446199Y-8464051D01*
X14458751Y-8471298D01*
X14458751Y-8471298D01*
X14458751Y-8471298D01*
X14472752Y-8475050D01*
X14472753Y-8475050D01*
X14487247Y-8475050D01*
X14487247Y-8475050D01*
X14501248Y-8471298D01*
X14513801Y-8464051D01*
X14524051Y-8453802D01*
X14531298Y-8441249D01*
X14535050Y-8427248D01*
X14535050Y-8412753D01*
X14531298Y-8398752D01*
X14529161Y-8395050D01*
X14524051Y-8386199D01*
X14524051Y-8386198D01*
X14513802Y-8375949D01*
X14513801Y-8375949D01*
X14501249Y-8368702D01*
X14501249Y-8368702D01*
X14497578Y-8367718D01*
X14487247Y-8364950D01*
X14472752Y-8364950D01*
X14462422Y-8367718D01*
X14458751Y-8368702D01*
X14449837Y-8373848D01*
X14443047Y-8375496D01*
X14436444Y-8373210D01*
X14432125Y-8367718D01*
X14431461Y-8360763D01*
X14431659Y-8359902D01*
X14435050Y-8347247D01*
X14435050Y-8332752D01*
X14584950Y-8332752D01*
X14584950Y-8347247D01*
X14587282Y-8355949D01*
X14588702Y-8361249D01*
X14595949Y-8373801D01*
X14595949Y-8373801D01*
X14595949Y-8373801D01*
X14606198Y-8384051D01*
X14606199Y-8384051D01*
X14606199Y-8384051D01*
X14618751Y-8391298D01*
X14618751Y-8391298D01*
X14618751Y-8391298D01*
X14632752Y-8395050D01*
X14632753Y-8395050D01*
X14647247Y-8395050D01*
X14647247Y-8395050D01*
X14661248Y-8391298D01*
X14673801Y-8384051D01*
X14684051Y-8373801D01*
X14691298Y-8361248D01*
X14695050Y-8347247D01*
X14695050Y-8332752D01*
X14691298Y-8318751D01*
X14691176Y-8318539D01*
X14684051Y-8306199D01*
X14684051Y-8306198D01*
X14673802Y-8295949D01*
X14673801Y-8295949D01*
X14661249Y-8288702D01*
X14661249Y-8288702D01*
X14660101Y-8288394D01*
X14647247Y-8284950D01*
X14632752Y-8284950D01*
X14619899Y-8288394D01*
X14618751Y-8288702D01*
X14606199Y-8295949D01*
X14606198Y-8295949D01*
X14595949Y-8306198D01*
X14595949Y-8306199D01*
X14588702Y-8318751D01*
X14588702Y-8318751D01*
X14584950Y-8332752D01*
X14435050Y-8332752D01*
X14431298Y-8318751D01*
X14424052Y-8306200D01*
X14422404Y-8299410D01*
X14424051Y-8293800D01*
X14431298Y-8281248D01*
X14435050Y-8267247D01*
X14435050Y-8252752D01*
X14431298Y-8238751D01*
X14424052Y-8226200D01*
X14422404Y-8219410D01*
X14424051Y-8213800D01*
X14431298Y-8201248D01*
X14435050Y-8187247D01*
X14435050Y-8172752D01*
X14431298Y-8158751D01*
X14424051Y-8146198D01*
X14413801Y-8135949D01*
X14413801Y-8135949D01*
X14413801Y-8135949D01*
X14401249Y-8128702D01*
X14401249Y-8128702D01*
X14400101Y-8128394D01*
X14387247Y-8124950D01*
X14372752Y-8124950D01*
X14359899Y-8128394D01*
X14358751Y-8128702D01*
X14346199Y-8135949D01*
X14346198Y-8135949D01*
X14335949Y-8146198D01*
X14335949Y-8146199D01*
X14328702Y-8158751D01*
X14328702Y-8158751D01*
X14324950Y-8172752D01*
X12917748Y-8172752D01*
X12909369Y-8171086D01*
X12909369Y-8171086D01*
X12811631Y-8171086D01*
X12811631Y-8171086D01*
X12794234Y-8174546D01*
X12794233Y-8174547D01*
X12777846Y-8181334D01*
X12777845Y-8181335D01*
X12769839Y-8186684D01*
X12763171Y-8188772D01*
X12756433Y-8186923D01*
X12751764Y-8181726D01*
X12750550Y-8176374D01*
X12750550Y-8091898D01*
X12752518Y-8085194D01*
X12757799Y-8080618D01*
X12764715Y-8079624D01*
X12769839Y-8081588D01*
X12777845Y-8086937D01*
X12777845Y-8086937D01*
X12777846Y-8086938D01*
X12788374Y-8091298D01*
X12794233Y-8093725D01*
X12794234Y-8093725D01*
X12794234Y-8093726D01*
X12811630Y-8097186D01*
X12811631Y-8097186D01*
X12811631Y-8097186D01*
X12909369Y-8097186D01*
X12909369Y-8097186D01*
X12915168Y-8096032D01*
X12926766Y-8093726D01*
X12926766Y-8093725D01*
X12926767Y-8093725D01*
X12943155Y-8086937D01*
X12957903Y-8077082D01*
X12970446Y-8064539D01*
X12980301Y-8049791D01*
X12987089Y-8033403D01*
X12987219Y-8032752D01*
X13054950Y-8032752D01*
X13054950Y-8047247D01*
X13058702Y-8061248D01*
X13058702Y-8061249D01*
X13065949Y-8073801D01*
X13065949Y-8073801D01*
X13065949Y-8073801D01*
X13076198Y-8084051D01*
X13076199Y-8084051D01*
X13076199Y-8084051D01*
X13088751Y-8091298D01*
X13088751Y-8091298D01*
X13088751Y-8091298D01*
X13102752Y-8095050D01*
X13102753Y-8095050D01*
X13117247Y-8095050D01*
X13117247Y-8095050D01*
X13131248Y-8091298D01*
X13143801Y-8084051D01*
X13154051Y-8073801D01*
X13161298Y-8061248D01*
X13165050Y-8047247D01*
X13165050Y-8032752D01*
X13161298Y-8018751D01*
X13158584Y-8014051D01*
X13155567Y-8008825D01*
X13153920Y-8002035D01*
X13156205Y-7995432D01*
X13160653Y-7991892D01*
X13160545Y-7991705D01*
X13170781Y-7985795D01*
X13173801Y-7984051D01*
X13184051Y-7973801D01*
X13191298Y-7961248D01*
X13195050Y-7947247D01*
X13195050Y-7942752D01*
X13274950Y-7942752D01*
X13274950Y-7957247D01*
X13278682Y-7971175D01*
X13278702Y-7971249D01*
X13285949Y-7983801D01*
X13285949Y-7983801D01*
X13285949Y-7983801D01*
X13296198Y-7994051D01*
X13296199Y-7994051D01*
X13296199Y-7994051D01*
X13308751Y-8001298D01*
X13308751Y-8001298D01*
X13308751Y-8001298D01*
X13322752Y-8005050D01*
X13322753Y-8005050D01*
X13337247Y-8005050D01*
X13337247Y-8005050D01*
X13351248Y-8001298D01*
X13363801Y-7994051D01*
X13369187Y-7988666D01*
X13375319Y-7985317D01*
X13382288Y-7985816D01*
X13387881Y-7990003D01*
X13388693Y-7991234D01*
X13388730Y-7991298D01*
X13395949Y-8003801D01*
X13406198Y-8014051D01*
X13406199Y-8014051D01*
X13406199Y-8014051D01*
X13418751Y-8021298D01*
X13418751Y-8021298D01*
X13418751Y-8021298D01*
X13432752Y-8025050D01*
X13432753Y-8025050D01*
X13447247Y-8025050D01*
X13447247Y-8025050D01*
X13461248Y-8021298D01*
X13473801Y-8014051D01*
X13484051Y-8003801D01*
X13489261Y-7994777D01*
X13494318Y-7989955D01*
X13501179Y-7988633D01*
X13507665Y-7991230D01*
X13510739Y-7994777D01*
X13515949Y-8003801D01*
X13526198Y-8014051D01*
X13526199Y-8014051D01*
X13526199Y-8014051D01*
X13538751Y-8021298D01*
X13538751Y-8021298D01*
X13538751Y-8021298D01*
X13552752Y-8025050D01*
X13552753Y-8025050D01*
X13567247Y-8025050D01*
X13567247Y-8025050D01*
X13581248Y-8021298D01*
X13593801Y-8014051D01*
X13604051Y-8003801D01*
X13611298Y-7991248D01*
X13613023Y-7984814D01*
X13616659Y-7978848D01*
X13622944Y-7975795D01*
X13629881Y-7976624D01*
X13635269Y-7981073D01*
X13636977Y-7984813D01*
X13638655Y-7991073D01*
X13638702Y-7991249D01*
X13645949Y-8003801D01*
X13645949Y-8003801D01*
X13645949Y-8003801D01*
X13656198Y-8014051D01*
X13656199Y-8014051D01*
X13656199Y-8014051D01*
X13668751Y-8021298D01*
X13668751Y-8021298D01*
X13668751Y-8021298D01*
X13682752Y-8025050D01*
X13682753Y-8025050D01*
X13697247Y-8025050D01*
X13697247Y-8025050D01*
X13711248Y-8021298D01*
X13723801Y-8014051D01*
X13734051Y-8003801D01*
X13741298Y-7991248D01*
X13743023Y-7984814D01*
X13746659Y-7978848D01*
X13752944Y-7975795D01*
X13759881Y-7976624D01*
X13765269Y-7981073D01*
X13766977Y-7984813D01*
X13768655Y-7991073D01*
X13768702Y-7991249D01*
X13775949Y-8003801D01*
X13775949Y-8003801D01*
X13775949Y-8003801D01*
X13786198Y-8014051D01*
X13786199Y-8014051D01*
X13786199Y-8014051D01*
X13798751Y-8021298D01*
X13798751Y-8021298D01*
X13798751Y-8021298D01*
X13812752Y-8025050D01*
X13812753Y-8025050D01*
X13827247Y-8025050D01*
X13827247Y-8025050D01*
X13841248Y-8021298D01*
X13853801Y-8014051D01*
X13864051Y-8003801D01*
X13869261Y-7994777D01*
X13874318Y-7989955D01*
X13881179Y-7988633D01*
X13887665Y-7991230D01*
X13890739Y-7994777D01*
X13895949Y-8003801D01*
X13906198Y-8014051D01*
X13906199Y-8014051D01*
X13906199Y-8014051D01*
X13918751Y-8021298D01*
X13918751Y-8021298D01*
X13918751Y-8021298D01*
X13932752Y-8025050D01*
X13932753Y-8025050D01*
X13947247Y-8025050D01*
X13947247Y-8025050D01*
X13961248Y-8021298D01*
X13973801Y-8014051D01*
X13984051Y-8003801D01*
X13991298Y-7991248D01*
X13993023Y-7984814D01*
X13996659Y-7978848D01*
X14002944Y-7975795D01*
X14009881Y-7976624D01*
X14015269Y-7981073D01*
X14016977Y-7984813D01*
X14018655Y-7991073D01*
X14018702Y-7991249D01*
X14025949Y-8003801D01*
X14025949Y-8003801D01*
X14025949Y-8003801D01*
X14036198Y-8014051D01*
X14036199Y-8014051D01*
X14036199Y-8014051D01*
X14048751Y-8021298D01*
X14048751Y-8021298D01*
X14048751Y-8021298D01*
X14062752Y-8025050D01*
X14062753Y-8025050D01*
X14077247Y-8025050D01*
X14077247Y-8025050D01*
X14091248Y-8021298D01*
X14103801Y-8014051D01*
X14114051Y-8003801D01*
X14121298Y-7991248D01*
X14123023Y-7984814D01*
X14126659Y-7978848D01*
X14132944Y-7975795D01*
X14139881Y-7976624D01*
X14145269Y-7981073D01*
X14146977Y-7984813D01*
X14148655Y-7991073D01*
X14148702Y-7991249D01*
X14155949Y-8003801D01*
X14155949Y-8003801D01*
X14155949Y-8003801D01*
X14166198Y-8014051D01*
X14166199Y-8014051D01*
X14166199Y-8014051D01*
X14178751Y-8021298D01*
X14178751Y-8021298D01*
X14178751Y-8021298D01*
X14192752Y-8025050D01*
X14192753Y-8025050D01*
X14207247Y-8025050D01*
X14207247Y-8025050D01*
X14221248Y-8021298D01*
X14233801Y-8014051D01*
X14244051Y-8003801D01*
X14251298Y-7991248D01*
X14253023Y-7984814D01*
X14256659Y-7978848D01*
X14262944Y-7975795D01*
X14269881Y-7976624D01*
X14275269Y-7981073D01*
X14276977Y-7984813D01*
X14278655Y-7991073D01*
X14278702Y-7991249D01*
X14285949Y-8003801D01*
X14285949Y-8003801D01*
X14285949Y-8003801D01*
X14296198Y-8014051D01*
X14296199Y-8014051D01*
X14296199Y-8014051D01*
X14308751Y-8021298D01*
X14308751Y-8021298D01*
X14308751Y-8021298D01*
X14322752Y-8025050D01*
X14322753Y-8025050D01*
X14337247Y-8025050D01*
X14337247Y-8025050D01*
X14351248Y-8021298D01*
X14363801Y-8014051D01*
X14374051Y-8003801D01*
X14376447Y-7999650D01*
X14381504Y-7994829D01*
X14388365Y-7993507D01*
X14394851Y-7996103D01*
X14398241Y-8000576D01*
X14398295Y-8000545D01*
X14398544Y-8000975D01*
X14398642Y-8001105D01*
X14398702Y-8001249D01*
X14405949Y-8013801D01*
X14405949Y-8013801D01*
X14405949Y-8013801D01*
X14416198Y-8024051D01*
X14416199Y-8024051D01*
X14416199Y-8024051D01*
X14428751Y-8031298D01*
X14428751Y-8031298D01*
X14428751Y-8031298D01*
X14442752Y-8035050D01*
X14442753Y-8035050D01*
X14457247Y-8035050D01*
X14457247Y-8035050D01*
X14471248Y-8031298D01*
X14483801Y-8024051D01*
X14494051Y-8013801D01*
X14501298Y-8001248D01*
X14503023Y-7994814D01*
X14506659Y-7988848D01*
X14512944Y-7985795D01*
X14519881Y-7986624D01*
X14525269Y-7991073D01*
X14526977Y-7994813D01*
X14528513Y-8000545D01*
X14528702Y-8001249D01*
X14535949Y-8013801D01*
X14535949Y-8013801D01*
X14535949Y-8013801D01*
X14546198Y-8024051D01*
X14546199Y-8024051D01*
X14546199Y-8024051D01*
X14558751Y-8031298D01*
X14558751Y-8031298D01*
X14558751Y-8031298D01*
X14572752Y-8035050D01*
X14572753Y-8035050D01*
X14587247Y-8035050D01*
X14587247Y-8035050D01*
X14601248Y-8031298D01*
X14613801Y-8024051D01*
X14624051Y-8013801D01*
X14631298Y-8001248D01*
X14633023Y-7994814D01*
X14636659Y-7988848D01*
X14642944Y-7985795D01*
X14649881Y-7986624D01*
X14655269Y-7991073D01*
X14656977Y-7994813D01*
X14658513Y-8000545D01*
X14658702Y-8001249D01*
X14665949Y-8013801D01*
X14665949Y-8013801D01*
X14665949Y-8013801D01*
X14676198Y-8024051D01*
X14676199Y-8024051D01*
X14676199Y-8024051D01*
X14688751Y-8031298D01*
X14688751Y-8031298D01*
X14688751Y-8031298D01*
X14702752Y-8035050D01*
X14702753Y-8035050D01*
X14717247Y-8035050D01*
X14717247Y-8035050D01*
X14731248Y-8031298D01*
X14743801Y-8024051D01*
X14754051Y-8013801D01*
X14761298Y-8001248D01*
X14765050Y-7987247D01*
X14765050Y-7972752D01*
X14761298Y-7958751D01*
X14757035Y-7951367D01*
X14754051Y-7946199D01*
X14754051Y-7946198D01*
X14743802Y-7935949D01*
X14743801Y-7935949D01*
X14731249Y-7928702D01*
X14731249Y-7928702D01*
X14730101Y-7928394D01*
X14717247Y-7924950D01*
X14702752Y-7924950D01*
X14689899Y-7928394D01*
X14688751Y-7928702D01*
X14676199Y-7935949D01*
X14676198Y-7935949D01*
X14665949Y-7946198D01*
X14665949Y-7946199D01*
X14658702Y-7958751D01*
X14658702Y-7958751D01*
X14657166Y-7964482D01*
X14656977Y-7965186D01*
X14653341Y-7971152D01*
X14647056Y-7974205D01*
X14640119Y-7973375D01*
X14634731Y-7968927D01*
X14633022Y-7965186D01*
X14631298Y-7958751D01*
X14627035Y-7951367D01*
X14624051Y-7946199D01*
X14624051Y-7946198D01*
X14613802Y-7935949D01*
X14613801Y-7935949D01*
X14601249Y-7928702D01*
X14601249Y-7928702D01*
X14600101Y-7928394D01*
X14587247Y-7924950D01*
X14572752Y-7924950D01*
X14559899Y-7928394D01*
X14558751Y-7928702D01*
X14546199Y-7935949D01*
X14546198Y-7935949D01*
X14535949Y-7946198D01*
X14535949Y-7946199D01*
X14528702Y-7958751D01*
X14528702Y-7958751D01*
X14527166Y-7964482D01*
X14526977Y-7965186D01*
X14523341Y-7971152D01*
X14517056Y-7974205D01*
X14510119Y-7973375D01*
X14504731Y-7968927D01*
X14503022Y-7965186D01*
X14501298Y-7958751D01*
X14497035Y-7951367D01*
X14494051Y-7946199D01*
X14494051Y-7946198D01*
X14483802Y-7935949D01*
X14483801Y-7935949D01*
X14471249Y-7928702D01*
X14471249Y-7928702D01*
X14470101Y-7928394D01*
X14457247Y-7924950D01*
X14442752Y-7924950D01*
X14429899Y-7928394D01*
X14428751Y-7928702D01*
X14416199Y-7935949D01*
X14416198Y-7935949D01*
X14405949Y-7946198D01*
X14405949Y-7946199D01*
X14403552Y-7950349D01*
X14398496Y-7955171D01*
X14391635Y-7956493D01*
X14385148Y-7953896D01*
X14381759Y-7949424D01*
X14381705Y-7949455D01*
X14381455Y-7949023D01*
X14381357Y-7948894D01*
X14381298Y-7948751D01*
X14374051Y-7936199D01*
X14374051Y-7936198D01*
X14363802Y-7925949D01*
X14363801Y-7925949D01*
X14351249Y-7918702D01*
X14351249Y-7918702D01*
X14350101Y-7918394D01*
X14337247Y-7914950D01*
X14322752Y-7914950D01*
X14309899Y-7918394D01*
X14308751Y-7918702D01*
X14296199Y-7925949D01*
X14296198Y-7925949D01*
X14285949Y-7936198D01*
X14285949Y-7936199D01*
X14278702Y-7948751D01*
X14276977Y-7955186D01*
X14273341Y-7961152D01*
X14267056Y-7964205D01*
X14260119Y-7963375D01*
X14254731Y-7958927D01*
X14253022Y-7955186D01*
X14253018Y-7955171D01*
X14251298Y-7948751D01*
X14249824Y-7946198D01*
X14244051Y-7936199D01*
X14244051Y-7936198D01*
X14233802Y-7925949D01*
X14233801Y-7925949D01*
X14221249Y-7918702D01*
X14221249Y-7918702D01*
X14220101Y-7918394D01*
X14207247Y-7914950D01*
X14192752Y-7914950D01*
X14179899Y-7918394D01*
X14178751Y-7918702D01*
X14166199Y-7925949D01*
X14166198Y-7925949D01*
X14155949Y-7936198D01*
X14155949Y-7936199D01*
X14148702Y-7948751D01*
X14146977Y-7955186D01*
X14143341Y-7961152D01*
X14137056Y-7964205D01*
X14130119Y-7963375D01*
X14124731Y-7958927D01*
X14123022Y-7955186D01*
X14123018Y-7955171D01*
X14121298Y-7948751D01*
X14119824Y-7946198D01*
X14114051Y-7936199D01*
X14114051Y-7936198D01*
X14103802Y-7925949D01*
X14103801Y-7925949D01*
X14091249Y-7918702D01*
X14091249Y-7918702D01*
X14090101Y-7918394D01*
X14077247Y-7914950D01*
X14062752Y-7914950D01*
X14049899Y-7918394D01*
X14048751Y-7918702D01*
X14036199Y-7925949D01*
X14036198Y-7925949D01*
X14025949Y-7936198D01*
X14025949Y-7936199D01*
X14018702Y-7948751D01*
X14016977Y-7955186D01*
X14013341Y-7961152D01*
X14007056Y-7964205D01*
X14000119Y-7963375D01*
X13994731Y-7958927D01*
X13993022Y-7955186D01*
X13993018Y-7955171D01*
X13991298Y-7948751D01*
X13989824Y-7946198D01*
X13984051Y-7936199D01*
X13984051Y-7936198D01*
X13973802Y-7925949D01*
X13973801Y-7925949D01*
X13961249Y-7918702D01*
X13961249Y-7918702D01*
X13960101Y-7918394D01*
X13947247Y-7914950D01*
X13932752Y-7914950D01*
X13919899Y-7918394D01*
X13918751Y-7918702D01*
X13906199Y-7925949D01*
X13906198Y-7925949D01*
X13895949Y-7936198D01*
X13895949Y-7936198D01*
X13890739Y-7945223D01*
X13885682Y-7950045D01*
X13878821Y-7951367D01*
X13872335Y-7948770D01*
X13869261Y-7945223D01*
X13867835Y-7942752D01*
X13864051Y-7936198D01*
X13853801Y-7925949D01*
X13853801Y-7925949D01*
X13853801Y-7925949D01*
X13841249Y-7918702D01*
X13841249Y-7918702D01*
X13840101Y-7918394D01*
X13827247Y-7914950D01*
X13812752Y-7914950D01*
X13799899Y-7918394D01*
X13798751Y-7918702D01*
X13786199Y-7925949D01*
X13786198Y-7925949D01*
X13775949Y-7936198D01*
X13775949Y-7936199D01*
X13768702Y-7948751D01*
X13766977Y-7955186D01*
X13763341Y-7961152D01*
X13757056Y-7964205D01*
X13750119Y-7963375D01*
X13744731Y-7958927D01*
X13743022Y-7955186D01*
X13743018Y-7955171D01*
X13741298Y-7948751D01*
X13739824Y-7946198D01*
X13734051Y-7936199D01*
X13734051Y-7936198D01*
X13723802Y-7925949D01*
X13723801Y-7925949D01*
X13711249Y-7918702D01*
X13711249Y-7918702D01*
X13710101Y-7918394D01*
X13697247Y-7914950D01*
X13682752Y-7914950D01*
X13669899Y-7918394D01*
X13668751Y-7918702D01*
X13656199Y-7925949D01*
X13656198Y-7925949D01*
X13645949Y-7936198D01*
X13645949Y-7936199D01*
X13638702Y-7948751D01*
X13636977Y-7955186D01*
X13633341Y-7961152D01*
X13627056Y-7964205D01*
X13620119Y-7963375D01*
X13614731Y-7958927D01*
X13613022Y-7955186D01*
X13613018Y-7955171D01*
X13611298Y-7948751D01*
X13609824Y-7946198D01*
X13604051Y-7936199D01*
X13604051Y-7936198D01*
X13593802Y-7925949D01*
X13593801Y-7925949D01*
X13581249Y-7918702D01*
X13581249Y-7918702D01*
X13580101Y-7918394D01*
X13567247Y-7914950D01*
X13567247Y-7914950D01*
X13565154Y-7914950D01*
X13558450Y-7912981D01*
X13553874Y-7907701D01*
X13553176Y-7905760D01*
X13551298Y-7898751D01*
X13551270Y-7898702D01*
X13544051Y-7886199D01*
X13544051Y-7886198D01*
X13533802Y-7875949D01*
X13533801Y-7875949D01*
X13521249Y-7868702D01*
X13521249Y-7868702D01*
X13520101Y-7868394D01*
X13507247Y-7864950D01*
X13492752Y-7864950D01*
X13479899Y-7868394D01*
X13478751Y-7868702D01*
X13466199Y-7875949D01*
X13466198Y-7875949D01*
X13455949Y-7886198D01*
X13455949Y-7886199D01*
X13448702Y-7898751D01*
X13448702Y-7898751D01*
X13446824Y-7905760D01*
X13443187Y-7911725D01*
X13436903Y-7914778D01*
X13434846Y-7914950D01*
X13432752Y-7914950D01*
X13419899Y-7918394D01*
X13418751Y-7918702D01*
X13406199Y-7925949D01*
X13400813Y-7931334D01*
X13394681Y-7934682D01*
X13387712Y-7934184D01*
X13382119Y-7929997D01*
X13381307Y-7928766D01*
X13380706Y-7927726D01*
X13374051Y-7916198D01*
X13363801Y-7905949D01*
X13363801Y-7905949D01*
X13363801Y-7905949D01*
X13351249Y-7898702D01*
X13351249Y-7898702D01*
X13350101Y-7898394D01*
X13337247Y-7894950D01*
X13322752Y-7894950D01*
X13309899Y-7898394D01*
X13308751Y-7898702D01*
X13296199Y-7905949D01*
X13296198Y-7905949D01*
X13285949Y-7916198D01*
X13285949Y-7916199D01*
X13278702Y-7928751D01*
X13278702Y-7928751D01*
X13274950Y-7942752D01*
X13195050Y-7942752D01*
X13195050Y-7932752D01*
X13191298Y-7918751D01*
X13191270Y-7918702D01*
X13184051Y-7906199D01*
X13184051Y-7906198D01*
X13173802Y-7895949D01*
X13173801Y-7895949D01*
X13161249Y-7888702D01*
X13161249Y-7888702D01*
X13160101Y-7888394D01*
X13147247Y-7884950D01*
X13132752Y-7884950D01*
X13119899Y-7888394D01*
X13118751Y-7888702D01*
X13106199Y-7895949D01*
X13106198Y-7895949D01*
X13095949Y-7906198D01*
X13095949Y-7906199D01*
X13088702Y-7918751D01*
X13088702Y-7918751D01*
X13084950Y-7932752D01*
X13084950Y-7947247D01*
X13088702Y-7961248D01*
X13088702Y-7961249D01*
X13094432Y-7971175D01*
X13096080Y-7977965D01*
X13093794Y-7984567D01*
X13089347Y-7988108D01*
X13089455Y-7988295D01*
X13076199Y-7995949D01*
X13076198Y-7995949D01*
X13065949Y-8006198D01*
X13065949Y-8006199D01*
X13058702Y-8018751D01*
X13058702Y-8018751D01*
X13054950Y-8032752D01*
X12987219Y-8032752D01*
X12987862Y-8029521D01*
X12987862Y-8029521D01*
X12990550Y-8016005D01*
X12990550Y-7998267D01*
X12990550Y-7998266D01*
X12987090Y-7980870D01*
X12987089Y-7980869D01*
X12980302Y-7964482D01*
X12980301Y-7964481D01*
X12970446Y-7949732D01*
X12970446Y-7949732D01*
X12957904Y-7937190D01*
X12957903Y-7937189D01*
X12943155Y-7927335D01*
X12943154Y-7927334D01*
X12926767Y-7920547D01*
X12926766Y-7920546D01*
X12909369Y-7917086D01*
X12909369Y-7917086D01*
X12811631Y-7917086D01*
X12811631Y-7917086D01*
X12794234Y-7920546D01*
X12794233Y-7920547D01*
X12777846Y-7927334D01*
X12777845Y-7927335D01*
X12769839Y-7932684D01*
X12763171Y-7934772D01*
X12756433Y-7932923D01*
X12751764Y-7927726D01*
X12750550Y-7922374D01*
X12750550Y-7837898D01*
X12752518Y-7831194D01*
X12757799Y-7826618D01*
X12764715Y-7825624D01*
X12769839Y-7827588D01*
X12777845Y-7832937D01*
X12777845Y-7832937D01*
X12777846Y-7832938D01*
X12789821Y-7837898D01*
X12794233Y-7839725D01*
X12794234Y-7839725D01*
X12794234Y-7839726D01*
X12811630Y-7843186D01*
X12811631Y-7843186D01*
X12811631Y-7843186D01*
X12909369Y-7843186D01*
X12909369Y-7843186D01*
X12915168Y-7842032D01*
X12926766Y-7839726D01*
X12926766Y-7839725D01*
X12926767Y-7839725D01*
X12943155Y-7832937D01*
X12957903Y-7823082D01*
X12970446Y-7810539D01*
X12980301Y-7795791D01*
X12987089Y-7779403D01*
X12990550Y-7762005D01*
X12990550Y-7744267D01*
X12990550Y-7744267D01*
X12990550Y-7744266D01*
X12987090Y-7726870D01*
X12987089Y-7726869D01*
X12980302Y-7710482D01*
X12980301Y-7710481D01*
X12970446Y-7695732D01*
X12970446Y-7695732D01*
X12957904Y-7683190D01*
X12957903Y-7683189D01*
X12943155Y-7673335D01*
X12943154Y-7673334D01*
X12926767Y-7666547D01*
X12926766Y-7666546D01*
X12909369Y-7663086D01*
X12909369Y-7663086D01*
X12811631Y-7663086D01*
X12811631Y-7663086D01*
X12794234Y-7666546D01*
X12794233Y-7666547D01*
X12777846Y-7673334D01*
X12777845Y-7673335D01*
X12769839Y-7678684D01*
X12763171Y-7680772D01*
X12756433Y-7678923D01*
X12751764Y-7673726D01*
X12750550Y-7668374D01*
X12750550Y-7583898D01*
X12752518Y-7577194D01*
X12757799Y-7572618D01*
X12764715Y-7571624D01*
X12769839Y-7573588D01*
X12777845Y-7578937D01*
X12777845Y-7578937D01*
X12777846Y-7578938D01*
X12789588Y-7583801D01*
X12794233Y-7585725D01*
X12794234Y-7585725D01*
X12794234Y-7585726D01*
X12811630Y-7589186D01*
X12811631Y-7589186D01*
X12811631Y-7589186D01*
X12909369Y-7589186D01*
X12909369Y-7589186D01*
X12915168Y-7588032D01*
X12926766Y-7585726D01*
X12926766Y-7585725D01*
X12926767Y-7585725D01*
X12943155Y-7578937D01*
X12957903Y-7569082D01*
X12970446Y-7556539D01*
X12980301Y-7541791D01*
X12987089Y-7525403D01*
X12988970Y-7515949D01*
X12989606Y-7512752D01*
X13364950Y-7512752D01*
X13364950Y-7527247D01*
X13368702Y-7541248D01*
X13368702Y-7541249D01*
X13375949Y-7553801D01*
X13375949Y-7553801D01*
X13375949Y-7553801D01*
X13386198Y-7564051D01*
X13386199Y-7564051D01*
X13386199Y-7564051D01*
X13398751Y-7571298D01*
X13398751Y-7571298D01*
X13398751Y-7571298D01*
X13412752Y-7575050D01*
X13412753Y-7575050D01*
X13427247Y-7575050D01*
X13427247Y-7575050D01*
X13441248Y-7571298D01*
X13453801Y-7564051D01*
X13464051Y-7553801D01*
X13464656Y-7552752D01*
X13664950Y-7552752D01*
X13664950Y-7567247D01*
X13668082Y-7578937D01*
X13668702Y-7581249D01*
X13675949Y-7593801D01*
X13675949Y-7593801D01*
X13675949Y-7593801D01*
X13686198Y-7604051D01*
X13686199Y-7604051D01*
X13686199Y-7604051D01*
X13698751Y-7611298D01*
X13698751Y-7611298D01*
X13698751Y-7611298D01*
X13712752Y-7615050D01*
X13712753Y-7615050D01*
X13727247Y-7615050D01*
X13727247Y-7615050D01*
X13741248Y-7611298D01*
X13753801Y-7604051D01*
X13764051Y-7593801D01*
X13771298Y-7581248D01*
X13775050Y-7567247D01*
X13775050Y-7552752D01*
X14104950Y-7552752D01*
X14104950Y-7567247D01*
X14108082Y-7578937D01*
X14108702Y-7581249D01*
X14115949Y-7593801D01*
X14115949Y-7593801D01*
X14115949Y-7593801D01*
X14126198Y-7604051D01*
X14126199Y-7604051D01*
X14126199Y-7604051D01*
X14138751Y-7611298D01*
X14138751Y-7611298D01*
X14138751Y-7611298D01*
X14152752Y-7615050D01*
X14152753Y-7615050D01*
X14167247Y-7615050D01*
X14167247Y-7615050D01*
X14181248Y-7611298D01*
X14193801Y-7604051D01*
X14204051Y-7593801D01*
X14211298Y-7581248D01*
X14215050Y-7567247D01*
X14215050Y-7552752D01*
X14211298Y-7538751D01*
X14211298Y-7538751D01*
X14210945Y-7538140D01*
X14210945Y-7538140D01*
X14210405Y-7537204D01*
X14207835Y-7532752D01*
X14484950Y-7532752D01*
X14484950Y-7547247D01*
X14488702Y-7561248D01*
X14488702Y-7561249D01*
X14495949Y-7573801D01*
X14495949Y-7573801D01*
X14495949Y-7573801D01*
X14506198Y-7584051D01*
X14506199Y-7584051D01*
X14506199Y-7584051D01*
X14518751Y-7591298D01*
X14518751Y-7591298D01*
X14518751Y-7591298D01*
X14532752Y-7595050D01*
X14532753Y-7595050D01*
X14547247Y-7595050D01*
X14547247Y-7595050D01*
X14561248Y-7591298D01*
X14573801Y-7584051D01*
X14584051Y-7573801D01*
X14591298Y-7561248D01*
X14595050Y-7547247D01*
X14595050Y-7532752D01*
X14591298Y-7518751D01*
X14589824Y-7516198D01*
X14584051Y-7506199D01*
X14584051Y-7506198D01*
X14573802Y-7495949D01*
X14573801Y-7495949D01*
X14561249Y-7488702D01*
X14561249Y-7488702D01*
X14559195Y-7488151D01*
X14547247Y-7484950D01*
X14532752Y-7484950D01*
X14520805Y-7488151D01*
X14518751Y-7488702D01*
X14506199Y-7495949D01*
X14506198Y-7495949D01*
X14495949Y-7506198D01*
X14495949Y-7506199D01*
X14488702Y-7518751D01*
X14488702Y-7518751D01*
X14484950Y-7532752D01*
X14207835Y-7532752D01*
X14204051Y-7526198D01*
X14193801Y-7515949D01*
X14193801Y-7515949D01*
X14193801Y-7515949D01*
X14181249Y-7508702D01*
X14181249Y-7508702D01*
X14178651Y-7508005D01*
X14167247Y-7504950D01*
X14152752Y-7504950D01*
X14141349Y-7508005D01*
X14138751Y-7508702D01*
X14126199Y-7515949D01*
X14126198Y-7515949D01*
X14115949Y-7526198D01*
X14115949Y-7526199D01*
X14108702Y-7538751D01*
X14108702Y-7538751D01*
X14104950Y-7552752D01*
X13775050Y-7552752D01*
X13771298Y-7538751D01*
X13770945Y-7538140D01*
X13764051Y-7526199D01*
X13764051Y-7526198D01*
X13753802Y-7515949D01*
X13753801Y-7515949D01*
X13741249Y-7508702D01*
X13741249Y-7508702D01*
X13738651Y-7508005D01*
X13727247Y-7504950D01*
X13712752Y-7504950D01*
X13701349Y-7508005D01*
X13698751Y-7508702D01*
X13686199Y-7515949D01*
X13686198Y-7515949D01*
X13675949Y-7526198D01*
X13675949Y-7526199D01*
X13668702Y-7538751D01*
X13668702Y-7538751D01*
X13664950Y-7552752D01*
X13464656Y-7552752D01*
X13471298Y-7541248D01*
X13475050Y-7527247D01*
X13475050Y-7512752D01*
X13471298Y-7498751D01*
X13471298Y-7498751D01*
X13465178Y-7488151D01*
X13463531Y-7481361D01*
X13465816Y-7474759D01*
X13471308Y-7470439D01*
X13475917Y-7469551D01*
X13481748Y-7469551D01*
X13481749Y-7469551D01*
X13495750Y-7465800D01*
X13508303Y-7458552D01*
X13518552Y-7448303D01*
X13525800Y-7435750D01*
X13529551Y-7421749D01*
X13529551Y-7407254D01*
X13525800Y-7393253D01*
X13518552Y-7380700D01*
X13508303Y-7370450D01*
X13508303Y-7370450D01*
X13508302Y-7370450D01*
X13495750Y-7363203D01*
X13495750Y-7363203D01*
X13494602Y-7362895D01*
X13481749Y-7359451D01*
X13467254Y-7359451D01*
X13454401Y-7362895D01*
X13453252Y-7363203D01*
X13440700Y-7370450D01*
X13440699Y-7370451D01*
X13430451Y-7380699D01*
X13430450Y-7380700D01*
X13423203Y-7393252D01*
X13423203Y-7393253D01*
X13419451Y-7407254D01*
X13419451Y-7421749D01*
X13423203Y-7435750D01*
X13423203Y-7435750D01*
X13429323Y-7446350D01*
X13430970Y-7453140D01*
X13428685Y-7459743D01*
X13423193Y-7464062D01*
X13418584Y-7464950D01*
X13412752Y-7464950D01*
X13399899Y-7468394D01*
X13398751Y-7468702D01*
X13386199Y-7475949D01*
X13386198Y-7475949D01*
X13375949Y-7486198D01*
X13375949Y-7486199D01*
X13368702Y-7498751D01*
X13368702Y-7498751D01*
X13364950Y-7512752D01*
X12989606Y-7512752D01*
X12990249Y-7509521D01*
X12990249Y-7509520D01*
X12990550Y-7508005D01*
X12990550Y-7508005D01*
X12990550Y-7490267D01*
X12990550Y-7490266D01*
X12987090Y-7472870D01*
X12987089Y-7472869D01*
X12986598Y-7471683D01*
X12981159Y-7458552D01*
X12980302Y-7456482D01*
X12980301Y-7456481D01*
X12970446Y-7441732D01*
X12970446Y-7441732D01*
X12957904Y-7429190D01*
X12957903Y-7429189D01*
X12943155Y-7419335D01*
X12943154Y-7419334D01*
X12926767Y-7412547D01*
X12926766Y-7412546D01*
X12909369Y-7409086D01*
X12909369Y-7409086D01*
X12811631Y-7409086D01*
X12811631Y-7409086D01*
X12794234Y-7412546D01*
X12794233Y-7412547D01*
X12777846Y-7419334D01*
X12777845Y-7419335D01*
X12769839Y-7424684D01*
X12763171Y-7426772D01*
X12756433Y-7424923D01*
X12751764Y-7419726D01*
X12750550Y-7414374D01*
X12750550Y-7329898D01*
X12752518Y-7323194D01*
X12757799Y-7318618D01*
X12764715Y-7317624D01*
X12769839Y-7319588D01*
X12777845Y-7324937D01*
X12777845Y-7324937D01*
X12777846Y-7324938D01*
X12789821Y-7329898D01*
X12794233Y-7331725D01*
X12794234Y-7331725D01*
X12794234Y-7331726D01*
X12811630Y-7335186D01*
X12811631Y-7335186D01*
X12811631Y-7335186D01*
X12909369Y-7335186D01*
X12909369Y-7335186D01*
X12915168Y-7334032D01*
X12926766Y-7331726D01*
X12926766Y-7331725D01*
X12926767Y-7331725D01*
X12943155Y-7324937D01*
X12957903Y-7315082D01*
X12970446Y-7302539D01*
X12980301Y-7287791D01*
X12987089Y-7271403D01*
X12987617Y-7268751D01*
X12990114Y-7256198D01*
X12990550Y-7254005D01*
X12990550Y-7236267D01*
X12990550Y-7236267D01*
X12990550Y-7236266D01*
X12987090Y-7218870D01*
X12987089Y-7218869D01*
X12980302Y-7202482D01*
X12980301Y-7202481D01*
X12970446Y-7187732D01*
X12970446Y-7187732D01*
X12957904Y-7175190D01*
X12957903Y-7175189D01*
X12943155Y-7165335D01*
X12943154Y-7165334D01*
X12926767Y-7158547D01*
X12926766Y-7158546D01*
X12909369Y-7155086D01*
X12909369Y-7155086D01*
X12811631Y-7155086D01*
X12811631Y-7155086D01*
X12794234Y-7158546D01*
X12794233Y-7158547D01*
X12777846Y-7165334D01*
X12777845Y-7165335D01*
X12769839Y-7170684D01*
X12763171Y-7172772D01*
X12756433Y-7170923D01*
X12751764Y-7165726D01*
X12750550Y-7160374D01*
X12750550Y-7075898D01*
X12752518Y-7069194D01*
X12757799Y-7064618D01*
X12764715Y-7063624D01*
X12769839Y-7065588D01*
X12777845Y-7070937D01*
X12777845Y-7070937D01*
X12777846Y-7070938D01*
X12784761Y-7073802D01*
X12794233Y-7077725D01*
X12794234Y-7077725D01*
X12794234Y-7077726D01*
X12811630Y-7081186D01*
X12811631Y-7081186D01*
X12811631Y-7081186D01*
X12909369Y-7081186D01*
X12909369Y-7081186D01*
X12915168Y-7080032D01*
X12926766Y-7077726D01*
X12926766Y-7077725D01*
X12926767Y-7077725D01*
X12943155Y-7070937D01*
X12957903Y-7061082D01*
X12970446Y-7048539D01*
X12980301Y-7033791D01*
X12980731Y-7032753D01*
X12981296Y-7031389D01*
X12987089Y-7017403D01*
X12990550Y-7000005D01*
X12990550Y-6982267D01*
X12990550Y-6982267D01*
X12990550Y-6982266D01*
X12987090Y-6964870D01*
X12987089Y-6964869D01*
X12980302Y-6948482D01*
X12980301Y-6948481D01*
X12970446Y-6933732D01*
X12970446Y-6933732D01*
X12957904Y-6921190D01*
X12957903Y-6921189D01*
X12945277Y-6912752D01*
X13214950Y-6912752D01*
X13214950Y-6927247D01*
X13217420Y-6936466D01*
X13218702Y-6941249D01*
X13225949Y-6953801D01*
X13225949Y-6953801D01*
X13225949Y-6953801D01*
X13236198Y-6964051D01*
X13243200Y-6968093D01*
X13245223Y-6969261D01*
X13250045Y-6974318D01*
X13251367Y-6981179D01*
X13248770Y-6987665D01*
X13245223Y-6990739D01*
X13236198Y-6995949D01*
X13236198Y-6995949D01*
X13225949Y-7006198D01*
X13225949Y-7006199D01*
X13218702Y-7018751D01*
X13218702Y-7018751D01*
X13214950Y-7032752D01*
X13214950Y-7047247D01*
X13215296Y-7048540D01*
X13218702Y-7061249D01*
X13225949Y-7073801D01*
X13225949Y-7073801D01*
X13225949Y-7073801D01*
X13236198Y-7084051D01*
X13236199Y-7084051D01*
X13236199Y-7084051D01*
X13248751Y-7091298D01*
X13248751Y-7091298D01*
X13248751Y-7091298D01*
X13255186Y-7093022D01*
X13261152Y-7096659D01*
X13264205Y-7102944D01*
X13263375Y-7109881D01*
X13258927Y-7115269D01*
X13255186Y-7116977D01*
X13249752Y-7118434D01*
X13248751Y-7118702D01*
X13236199Y-7125949D01*
X13236198Y-7125949D01*
X13225949Y-7136198D01*
X13225949Y-7136199D01*
X13218702Y-7148751D01*
X13218702Y-7148751D01*
X13214950Y-7162752D01*
X13214950Y-7177247D01*
X13217759Y-7187732D01*
X13218702Y-7191249D01*
X13225949Y-7203801D01*
X13225949Y-7203801D01*
X13225949Y-7203801D01*
X13236198Y-7214051D01*
X13243200Y-7218093D01*
X13245223Y-7219261D01*
X13250045Y-7224318D01*
X13251367Y-7231179D01*
X13248770Y-7237665D01*
X13245223Y-7240739D01*
X13236198Y-7245949D01*
X13236198Y-7245949D01*
X13225949Y-7256198D01*
X13225949Y-7256199D01*
X13218702Y-7268751D01*
X13218702Y-7268751D01*
X13214950Y-7282752D01*
X13214950Y-7297247D01*
X13216368Y-7302540D01*
X13218702Y-7311249D01*
X13225949Y-7323801D01*
X13225949Y-7323801D01*
X13225949Y-7323801D01*
X13236198Y-7334051D01*
X13236199Y-7334051D01*
X13236199Y-7334051D01*
X13248751Y-7341298D01*
X13248751Y-7341298D01*
X13248751Y-7341298D01*
X13255186Y-7343022D01*
X13261152Y-7346659D01*
X13264205Y-7352944D01*
X13263375Y-7359881D01*
X13258927Y-7365269D01*
X13255186Y-7366977D01*
X13249752Y-7368434D01*
X13248751Y-7368702D01*
X13236199Y-7375949D01*
X13236198Y-7375949D01*
X13225949Y-7386198D01*
X13225949Y-7386199D01*
X13218702Y-7398751D01*
X13218702Y-7398751D01*
X13214950Y-7412752D01*
X13214950Y-7427247D01*
X13217228Y-7435750D01*
X13218702Y-7441249D01*
X13225949Y-7453801D01*
X13225949Y-7453801D01*
X13225949Y-7453801D01*
X13236198Y-7464051D01*
X13236199Y-7464051D01*
X13236199Y-7464051D01*
X13248751Y-7471298D01*
X13248751Y-7471298D01*
X13248751Y-7471298D01*
X13262752Y-7475050D01*
X13262753Y-7475050D01*
X13277247Y-7475050D01*
X13277247Y-7475050D01*
X13291248Y-7471298D01*
X13303801Y-7464051D01*
X13314051Y-7453801D01*
X13321298Y-7441248D01*
X13325050Y-7427247D01*
X13325050Y-7412752D01*
X13321298Y-7398751D01*
X13314051Y-7386198D01*
X13303801Y-7375949D01*
X13303801Y-7375949D01*
X13303801Y-7375949D01*
X13291249Y-7368702D01*
X13291249Y-7368702D01*
X13290616Y-7368532D01*
X13284814Y-7366977D01*
X13278848Y-7363341D01*
X13275795Y-7357056D01*
X13276624Y-7350119D01*
X13281073Y-7344731D01*
X13284813Y-7343023D01*
X13291248Y-7341298D01*
X13303801Y-7334051D01*
X13314051Y-7323801D01*
X13321298Y-7311248D01*
X13325050Y-7297247D01*
X13325050Y-7282752D01*
X13321298Y-7268751D01*
X13314051Y-7256198D01*
X13303801Y-7245949D01*
X13299135Y-7243255D01*
X13294777Y-7240739D01*
X13289955Y-7235682D01*
X13288633Y-7228821D01*
X13291230Y-7222335D01*
X13294777Y-7219261D01*
X13296408Y-7218319D01*
X13303801Y-7214051D01*
X13314051Y-7203801D01*
X13321298Y-7191248D01*
X13325050Y-7177247D01*
X13325050Y-7172752D01*
X13384950Y-7172752D01*
X13384950Y-7187247D01*
X13388702Y-7201248D01*
X13388702Y-7201249D01*
X13395949Y-7213801D01*
X13395949Y-7213801D01*
X13395949Y-7213801D01*
X13406198Y-7224051D01*
X13406199Y-7224051D01*
X13406199Y-7224051D01*
X13418751Y-7231298D01*
X13418751Y-7231298D01*
X13418751Y-7231298D01*
X13432752Y-7235050D01*
X13432753Y-7235050D01*
X13447247Y-7235050D01*
X13447247Y-7235050D01*
X13461248Y-7231298D01*
X13473801Y-7224051D01*
X13484051Y-7213801D01*
X13491298Y-7201248D01*
X13495050Y-7187247D01*
X13495050Y-7172752D01*
X13564950Y-7172752D01*
X13564950Y-7187247D01*
X13568702Y-7201248D01*
X13568702Y-7201249D01*
X13575949Y-7213801D01*
X13575949Y-7213801D01*
X13575949Y-7213801D01*
X13586198Y-7224051D01*
X13586199Y-7224051D01*
X13586199Y-7224051D01*
X13598751Y-7231298D01*
X13598751Y-7231298D01*
X13598751Y-7231298D01*
X13612752Y-7235050D01*
X13612753Y-7235050D01*
X13627247Y-7235050D01*
X13627247Y-7235050D01*
X13641248Y-7231298D01*
X13653801Y-7224051D01*
X13664051Y-7213801D01*
X13671298Y-7201248D01*
X13675050Y-7187247D01*
X13675050Y-7172752D01*
X13671298Y-7158751D01*
X13671180Y-7158546D01*
X13664051Y-7146199D01*
X13664051Y-7146198D01*
X13653802Y-7135949D01*
X13653801Y-7135949D01*
X13641249Y-7128702D01*
X13641249Y-7128702D01*
X13640101Y-7128394D01*
X13627247Y-7124950D01*
X13612752Y-7124950D01*
X13599899Y-7128394D01*
X13598751Y-7128702D01*
X13586199Y-7135949D01*
X13586198Y-7135949D01*
X13575949Y-7146198D01*
X13575949Y-7146199D01*
X13568702Y-7158751D01*
X13568702Y-7158751D01*
X13564950Y-7172752D01*
X13495050Y-7172752D01*
X13491298Y-7158751D01*
X13491180Y-7158546D01*
X13484051Y-7146199D01*
X13484051Y-7146198D01*
X13473802Y-7135949D01*
X13473801Y-7135949D01*
X13461249Y-7128702D01*
X13461249Y-7128702D01*
X13460101Y-7128394D01*
X13447247Y-7124950D01*
X13432752Y-7124950D01*
X13419899Y-7128394D01*
X13418751Y-7128702D01*
X13406199Y-7135949D01*
X13406198Y-7135949D01*
X13395949Y-7146198D01*
X13395949Y-7146199D01*
X13388702Y-7158751D01*
X13388702Y-7158751D01*
X13384950Y-7172752D01*
X13325050Y-7172752D01*
X13325050Y-7162752D01*
X13321298Y-7148751D01*
X13319824Y-7146198D01*
X13314051Y-7136199D01*
X13314051Y-7136198D01*
X13303802Y-7125949D01*
X13303801Y-7125949D01*
X13301566Y-7124658D01*
X13298789Y-7123055D01*
X13298789Y-7123055D01*
X13291248Y-7118702D01*
X13283971Y-7116752D01*
X13283169Y-7116410D01*
X13281117Y-7114724D01*
X13278848Y-7113341D01*
X13278562Y-7112752D01*
X14484950Y-7112752D01*
X14484950Y-7127247D01*
X14488702Y-7141248D01*
X14488702Y-7141249D01*
X14495949Y-7153801D01*
X14495949Y-7153801D01*
X14495949Y-7153801D01*
X14506198Y-7164051D01*
X14506199Y-7164051D01*
X14506199Y-7164051D01*
X14518751Y-7171298D01*
X14518751Y-7171298D01*
X14518751Y-7171298D01*
X14532752Y-7175050D01*
X14532753Y-7175050D01*
X14547247Y-7175050D01*
X14547247Y-7175050D01*
X14561248Y-7171298D01*
X14573801Y-7164051D01*
X14584051Y-7153801D01*
X14591298Y-7141248D01*
X14595050Y-7127247D01*
X14595050Y-7112752D01*
X14591298Y-7098751D01*
X14590160Y-7096780D01*
X14584051Y-7086199D01*
X14584051Y-7086198D01*
X14573802Y-7075949D01*
X14573801Y-7075949D01*
X14561249Y-7068702D01*
X14561249Y-7068702D01*
X14560101Y-7068394D01*
X14547247Y-7064950D01*
X14532752Y-7064950D01*
X14519899Y-7068394D01*
X14518751Y-7068702D01*
X14506199Y-7075949D01*
X14506198Y-7075949D01*
X14495949Y-7086198D01*
X14495949Y-7086199D01*
X14488702Y-7098751D01*
X14488702Y-7098751D01*
X14484950Y-7112752D01*
X13278562Y-7112752D01*
X13278459Y-7112540D01*
X13277771Y-7111975D01*
X13276956Y-7109446D01*
X13275795Y-7107056D01*
X13275901Y-7106172D01*
X13275628Y-7105325D01*
X13276309Y-7102757D01*
X13276624Y-7100119D01*
X13277191Y-7099432D01*
X13277420Y-7098571D01*
X13279381Y-7096780D01*
X13281073Y-7094731D01*
X13282176Y-7094227D01*
X13282579Y-7093859D01*
X13283222Y-7093749D01*
X13284813Y-7093023D01*
X13291248Y-7091298D01*
X13303801Y-7084051D01*
X13314051Y-7073801D01*
X13321298Y-7061248D01*
X13325050Y-7047247D01*
X13325050Y-7032752D01*
X13321298Y-7018751D01*
X13320519Y-7017402D01*
X13314051Y-7006199D01*
X13314051Y-7006198D01*
X13303802Y-6995949D01*
X13303801Y-6995949D01*
X13295746Y-6991298D01*
X13294777Y-6990739D01*
X13289955Y-6985682D01*
X13288633Y-6978821D01*
X13291230Y-6972335D01*
X13294777Y-6969261D01*
X13296408Y-6968319D01*
X13303801Y-6964051D01*
X13314051Y-6953801D01*
X13321298Y-6941248D01*
X13325050Y-6927247D01*
X13325050Y-6912752D01*
X13321298Y-6898751D01*
X13316966Y-6891248D01*
X13314051Y-6886199D01*
X13314051Y-6886198D01*
X13303802Y-6875949D01*
X13303801Y-6875949D01*
X13291249Y-6868702D01*
X13291249Y-6868702D01*
X13290101Y-6868394D01*
X13277247Y-6864950D01*
X13262752Y-6864950D01*
X13249899Y-6868394D01*
X13248751Y-6868702D01*
X13236199Y-6875949D01*
X13236198Y-6875949D01*
X13225949Y-6886198D01*
X13225949Y-6886199D01*
X13218702Y-6898751D01*
X13218702Y-6898751D01*
X13214950Y-6912752D01*
X12945277Y-6912752D01*
X12943155Y-6911335D01*
X12943154Y-6911334D01*
X12926767Y-6904547D01*
X12926766Y-6904546D01*
X12909369Y-6901086D01*
X12909369Y-6901086D01*
X12811631Y-6901086D01*
X12811631Y-6901086D01*
X12794234Y-6904546D01*
X12794233Y-6904547D01*
X12777846Y-6911334D01*
X12777845Y-6911335D01*
X12769839Y-6916684D01*
X12763171Y-6918772D01*
X12756433Y-6916923D01*
X12751764Y-6911726D01*
X12750550Y-6906374D01*
X12750550Y-6821898D01*
X12752518Y-6815194D01*
X12757799Y-6810618D01*
X12764715Y-6809624D01*
X12769839Y-6811588D01*
X12777845Y-6816937D01*
X12777845Y-6816937D01*
X12777846Y-6816938D01*
X12785776Y-6820222D01*
X12794233Y-6823725D01*
X12794234Y-6823725D01*
X12794234Y-6823726D01*
X12811630Y-6827186D01*
X12811631Y-6827186D01*
X12811631Y-6827186D01*
X12909369Y-6827186D01*
X12909369Y-6827186D01*
X12915589Y-6825949D01*
X12926766Y-6823726D01*
X12926766Y-6823725D01*
X12926767Y-6823725D01*
X12943155Y-6816937D01*
X12957903Y-6807082D01*
X12970446Y-6794539D01*
X12980301Y-6779791D01*
X12987089Y-6763403D01*
X12988015Y-6758751D01*
X12990550Y-6746005D01*
X12990550Y-6746005D01*
X12990550Y-6728267D01*
X12990550Y-6728266D01*
X12987090Y-6710870D01*
X12987089Y-6710869D01*
X12980302Y-6694482D01*
X12980301Y-6694481D01*
X12970446Y-6679732D01*
X12970446Y-6679732D01*
X12957904Y-6667190D01*
X12957903Y-6667189D01*
X12950511Y-6662250D01*
X12943155Y-6657335D01*
X12943154Y-6657334D01*
X12932092Y-6652752D01*
X13214950Y-6652752D01*
X13214950Y-6667247D01*
X13218019Y-6678702D01*
X13218702Y-6681249D01*
X13225949Y-6693801D01*
X13225949Y-6693801D01*
X13225949Y-6693801D01*
X13236198Y-6704051D01*
X13243200Y-6708093D01*
X13245223Y-6709261D01*
X13250045Y-6714318D01*
X13251367Y-6721179D01*
X13248770Y-6727665D01*
X13245223Y-6730739D01*
X13236198Y-6735949D01*
X13236198Y-6735949D01*
X13225949Y-6746198D01*
X13225949Y-6746199D01*
X13218702Y-6758751D01*
X13218702Y-6758751D01*
X13214950Y-6772752D01*
X13214950Y-6787247D01*
X13218577Y-6800785D01*
X13218702Y-6801249D01*
X13225949Y-6813801D01*
X13225949Y-6813801D01*
X13225949Y-6813801D01*
X13236198Y-6824051D01*
X13236199Y-6824051D01*
X13236199Y-6824051D01*
X13248751Y-6831298D01*
X13248751Y-6831298D01*
X13248751Y-6831298D01*
X13262752Y-6835050D01*
X13262753Y-6835050D01*
X13277247Y-6835050D01*
X13277247Y-6835050D01*
X13291248Y-6831298D01*
X13303801Y-6824051D01*
X13314051Y-6813801D01*
X13314656Y-6812752D01*
X13384950Y-6812752D01*
X13384950Y-6827247D01*
X13388399Y-6840119D01*
X13388702Y-6841249D01*
X13395949Y-6853801D01*
X13395949Y-6853801D01*
X13395949Y-6853801D01*
X13406198Y-6864051D01*
X13406199Y-6864051D01*
X13406199Y-6864051D01*
X13418751Y-6871298D01*
X13418751Y-6871298D01*
X13418751Y-6871298D01*
X13432752Y-6875050D01*
X13432753Y-6875050D01*
X13447247Y-6875050D01*
X13447247Y-6875050D01*
X13461248Y-6871298D01*
X13473801Y-6864051D01*
X13484051Y-6853801D01*
X13491298Y-6841248D01*
X13495050Y-6827247D01*
X13495050Y-6812752D01*
X13491298Y-6798751D01*
X13488866Y-6794539D01*
X13484051Y-6786199D01*
X13484051Y-6786198D01*
X13473802Y-6775949D01*
X13473801Y-6775949D01*
X13461249Y-6768702D01*
X13461249Y-6768702D01*
X13460101Y-6768394D01*
X13447247Y-6764950D01*
X13432752Y-6764950D01*
X13419899Y-6768394D01*
X13418751Y-6768702D01*
X13406199Y-6775949D01*
X13406198Y-6775949D01*
X13395949Y-6786198D01*
X13395949Y-6786199D01*
X13388702Y-6798751D01*
X13388702Y-6798751D01*
X13384950Y-6812752D01*
X13314656Y-6812752D01*
X13321298Y-6801248D01*
X13325050Y-6787247D01*
X13325050Y-6772752D01*
X13321298Y-6758751D01*
X13316966Y-6751248D01*
X13314051Y-6746199D01*
X13314051Y-6746198D01*
X13303802Y-6735949D01*
X13303801Y-6735949D01*
X13298137Y-6732678D01*
X13294777Y-6730739D01*
X13289955Y-6725682D01*
X13289391Y-6722752D01*
X13654950Y-6722752D01*
X13654950Y-6737247D01*
X13658702Y-6751248D01*
X13658702Y-6751249D01*
X13665949Y-6763801D01*
X13665949Y-6763801D01*
X13665949Y-6763801D01*
X13676198Y-6774051D01*
X13676199Y-6774051D01*
X13676199Y-6774051D01*
X13688751Y-6781298D01*
X13688751Y-6781298D01*
X13688751Y-6781298D01*
X13702752Y-6785050D01*
X13702753Y-6785050D01*
X13717247Y-6785050D01*
X13717247Y-6785050D01*
X13719341Y-6784489D01*
X13726325Y-6784655D01*
X13732112Y-6788571D01*
X13734752Y-6794259D01*
X13734950Y-6795354D01*
X13734950Y-6797247D01*
X13736004Y-6801180D01*
X13736095Y-6801686D01*
X13735776Y-6804669D01*
X13735704Y-6807669D01*
X13735408Y-6808107D01*
X13735351Y-6808634D01*
X13733470Y-6810970D01*
X13731788Y-6813455D01*
X13731302Y-6813664D01*
X13730970Y-6814076D01*
X13728123Y-6815024D01*
X13725365Y-6816206D01*
X13724719Y-6816159D01*
X13724341Y-6816285D01*
X13723507Y-6816073D01*
X13720684Y-6815871D01*
X13717248Y-6814950D01*
X13717247Y-6814950D01*
X13702752Y-6814950D01*
X13689899Y-6818394D01*
X13688751Y-6818702D01*
X13676199Y-6825949D01*
X13676198Y-6825949D01*
X13665949Y-6836198D01*
X13665949Y-6836199D01*
X13658702Y-6848751D01*
X13658702Y-6848751D01*
X13654950Y-6862752D01*
X13654950Y-6877247D01*
X13658702Y-6891248D01*
X13658702Y-6891249D01*
X13665949Y-6903801D01*
X13665949Y-6903801D01*
X13665949Y-6903801D01*
X13676198Y-6914051D01*
X13676199Y-6914051D01*
X13676199Y-6914051D01*
X13688751Y-6921298D01*
X13688751Y-6921298D01*
X13688751Y-6921298D01*
X13702752Y-6925050D01*
X13702753Y-6925050D01*
X13717247Y-6925050D01*
X13717247Y-6925050D01*
X13719341Y-6924489D01*
X13726325Y-6924655D01*
X13732112Y-6928571D01*
X13734862Y-6934994D01*
X13734950Y-6936466D01*
X13734950Y-6947247D01*
X13738702Y-6961248D01*
X13738702Y-6961249D01*
X13745949Y-6973801D01*
X13745949Y-6973801D01*
X13745949Y-6973801D01*
X13756198Y-6984051D01*
X13756199Y-6984051D01*
X13756199Y-6984051D01*
X13768751Y-6991298D01*
X13768751Y-6991298D01*
X13768751Y-6991298D01*
X13782752Y-6995050D01*
X13782753Y-6995050D01*
X13797247Y-6995050D01*
X13797247Y-6995050D01*
X13811248Y-6991298D01*
X13823801Y-6984051D01*
X13834051Y-6973801D01*
X13841298Y-6961248D01*
X13845050Y-6947247D01*
X13845050Y-6937450D01*
X13847018Y-6930746D01*
X13852299Y-6926171D01*
X13855102Y-6925274D01*
X13856265Y-6925050D01*
X13857247Y-6925050D01*
X13859770Y-6924374D01*
X13860202Y-6924291D01*
X13863257Y-6924582D01*
X13866325Y-6924655D01*
X13866703Y-6924911D01*
X13867157Y-6924954D01*
X13869570Y-6926851D01*
X13872112Y-6928571D01*
X13872291Y-6928991D01*
X13872650Y-6929273D01*
X13873654Y-6932172D01*
X13874862Y-6934994D01*
X13874910Y-6935801D01*
X13874936Y-6935875D01*
X13874919Y-6935945D01*
X13874950Y-6936466D01*
X13874950Y-6947247D01*
X13878702Y-6961248D01*
X13878702Y-6961249D01*
X13885949Y-6973801D01*
X13885949Y-6973801D01*
X13885949Y-6973801D01*
X13896198Y-6984051D01*
X13896199Y-6984051D01*
X13896199Y-6984051D01*
X13908751Y-6991298D01*
X13908751Y-6991298D01*
X13908751Y-6991298D01*
X13922752Y-6995050D01*
X13922753Y-6995050D01*
X13937247Y-6995050D01*
X13937247Y-6995050D01*
X13951248Y-6991298D01*
X13963801Y-6984051D01*
X13974051Y-6973801D01*
X13981298Y-6961248D01*
X13985050Y-6947247D01*
X13985050Y-6937450D01*
X13987018Y-6930746D01*
X13992299Y-6926171D01*
X13997450Y-6925050D01*
X14007247Y-6925050D01*
X14007247Y-6925050D01*
X14021248Y-6921298D01*
X14033801Y-6914051D01*
X14044051Y-6903801D01*
X14051298Y-6891248D01*
X14055050Y-6877247D01*
X14055050Y-6862752D01*
X14051298Y-6848751D01*
X14049161Y-6845050D01*
X14044051Y-6836199D01*
X14044051Y-6836198D01*
X14033802Y-6825949D01*
X14033801Y-6825949D01*
X14021249Y-6818702D01*
X14021249Y-6818702D01*
X14020101Y-6818394D01*
X14007247Y-6814950D01*
X13996467Y-6814950D01*
X13989763Y-6812981D01*
X13985187Y-6807701D01*
X13984193Y-6800785D01*
X13984291Y-6800202D01*
X13984375Y-6799768D01*
X13985050Y-6797247D01*
X13985050Y-6796265D01*
X13985274Y-6795102D01*
X13986354Y-6793007D01*
X13987018Y-6790746D01*
X13987926Y-6789960D01*
X13988476Y-6788892D01*
X13990518Y-6787714D01*
X13992299Y-6786171D01*
X13993731Y-6785859D01*
X13994528Y-6785399D01*
X13995607Y-6785451D01*
X13997450Y-6785050D01*
X14007247Y-6785050D01*
X14007247Y-6785050D01*
X14021248Y-6781298D01*
X14033801Y-6774051D01*
X14035100Y-6772752D01*
X14684950Y-6772752D01*
X14684950Y-6787247D01*
X14688577Y-6800785D01*
X14688702Y-6801249D01*
X14695949Y-6813801D01*
X14695949Y-6813801D01*
X14695949Y-6813801D01*
X14706198Y-6824051D01*
X14706199Y-6824051D01*
X14706199Y-6824051D01*
X14718751Y-6831298D01*
X14718751Y-6831298D01*
X14718751Y-6831298D01*
X14725186Y-6833022D01*
X14731152Y-6836659D01*
X14734205Y-6842944D01*
X14733375Y-6849881D01*
X14728927Y-6855269D01*
X14725186Y-6856977D01*
X14719752Y-6858434D01*
X14718751Y-6858702D01*
X14706199Y-6865949D01*
X14706198Y-6865949D01*
X14695949Y-6876198D01*
X14695949Y-6876199D01*
X14688702Y-6888751D01*
X14688702Y-6888751D01*
X14684950Y-6902752D01*
X14684950Y-6917247D01*
X14688097Y-6928991D01*
X14688702Y-6931249D01*
X14695949Y-6943801D01*
X14695949Y-6943801D01*
X14695949Y-6943801D01*
X14706198Y-6954051D01*
X14706199Y-6954051D01*
X14706199Y-6954051D01*
X14718751Y-6961298D01*
X14718751Y-6961298D01*
X14718751Y-6961298D01*
X14725186Y-6963022D01*
X14731152Y-6966659D01*
X14734205Y-6972944D01*
X14733375Y-6979881D01*
X14728927Y-6985269D01*
X14725186Y-6986977D01*
X14719752Y-6988434D01*
X14718751Y-6988702D01*
X14706199Y-6995949D01*
X14706198Y-6995949D01*
X14695949Y-7006198D01*
X14695949Y-7006199D01*
X14688702Y-7018751D01*
X14688702Y-7018751D01*
X14684950Y-7032752D01*
X14684950Y-7047247D01*
X14685296Y-7048540D01*
X14688702Y-7061249D01*
X14695949Y-7073801D01*
X14695949Y-7073801D01*
X14695949Y-7073801D01*
X14706198Y-7084051D01*
X14709919Y-7086199D01*
X14715223Y-7089261D01*
X14720045Y-7094318D01*
X14721367Y-7101179D01*
X14718770Y-7107665D01*
X14715223Y-7110739D01*
X14706198Y-7115949D01*
X14706198Y-7115949D01*
X14695949Y-7126198D01*
X14695949Y-7126199D01*
X14688702Y-7138751D01*
X14688702Y-7138751D01*
X14684950Y-7152752D01*
X14684950Y-7167247D01*
X14688702Y-7181248D01*
X14688702Y-7181249D01*
X14695949Y-7193801D01*
X14695949Y-7193801D01*
X14695949Y-7193801D01*
X14706198Y-7204051D01*
X14706199Y-7204051D01*
X14706199Y-7204051D01*
X14718751Y-7211298D01*
X14718751Y-7211298D01*
X14718751Y-7211298D01*
X14725186Y-7213022D01*
X14731152Y-7216659D01*
X14734205Y-7222944D01*
X14733375Y-7229881D01*
X14728927Y-7235269D01*
X14725186Y-7236977D01*
X14719752Y-7238434D01*
X14718751Y-7238702D01*
X14706199Y-7245949D01*
X14706198Y-7245949D01*
X14695949Y-7256198D01*
X14695949Y-7256199D01*
X14688702Y-7268751D01*
X14688702Y-7268751D01*
X14684950Y-7282752D01*
X14684950Y-7297247D01*
X14686368Y-7302540D01*
X14688702Y-7311249D01*
X14695949Y-7323801D01*
X14695949Y-7323801D01*
X14695949Y-7323801D01*
X14706198Y-7334051D01*
X14706199Y-7334051D01*
X14706199Y-7334051D01*
X14718751Y-7341298D01*
X14718751Y-7341298D01*
X14718751Y-7341298D01*
X14725186Y-7343022D01*
X14731152Y-7346659D01*
X14734205Y-7352944D01*
X14733375Y-7359881D01*
X14728927Y-7365269D01*
X14725186Y-7366977D01*
X14719752Y-7368434D01*
X14718751Y-7368702D01*
X14706199Y-7375949D01*
X14706198Y-7375949D01*
X14695949Y-7386198D01*
X14695949Y-7386199D01*
X14688702Y-7398751D01*
X14688702Y-7398751D01*
X14684950Y-7412752D01*
X14684950Y-7427247D01*
X14687228Y-7435750D01*
X14688702Y-7441249D01*
X14695949Y-7453801D01*
X14695949Y-7453801D01*
X14695949Y-7453801D01*
X14706198Y-7464051D01*
X14706199Y-7464051D01*
X14706199Y-7464051D01*
X14718751Y-7471298D01*
X14718751Y-7471298D01*
X14718751Y-7471298D01*
X14730186Y-7474362D01*
X14736152Y-7477999D01*
X14739205Y-7484283D01*
X14738375Y-7491221D01*
X14733927Y-7496609D01*
X14730186Y-7498317D01*
X14729558Y-7498485D01*
X14728751Y-7498702D01*
X14728751Y-7498702D01*
X14728751Y-7498702D01*
X14728751Y-7498702D01*
X14716199Y-7505949D01*
X14716198Y-7505949D01*
X14705949Y-7516198D01*
X14705949Y-7516199D01*
X14698702Y-7528751D01*
X14698702Y-7528751D01*
X14694950Y-7542752D01*
X14694950Y-7557247D01*
X14698121Y-7569082D01*
X14698702Y-7571249D01*
X14705949Y-7583801D01*
X14705949Y-7583801D01*
X14705949Y-7583801D01*
X14716198Y-7594051D01*
X14723200Y-7598093D01*
X14725223Y-7599261D01*
X14730045Y-7604318D01*
X14731367Y-7611179D01*
X14728770Y-7617665D01*
X14725223Y-7620739D01*
X14716198Y-7625949D01*
X14716198Y-7625949D01*
X14705949Y-7636198D01*
X14705949Y-7636199D01*
X14698702Y-7648751D01*
X14698702Y-7648751D01*
X14694950Y-7662752D01*
X14694950Y-7677247D01*
X14696542Y-7683190D01*
X14698702Y-7691249D01*
X14705949Y-7703801D01*
X14705949Y-7703801D01*
X14705949Y-7703801D01*
X14716198Y-7714051D01*
X14716199Y-7714051D01*
X14716199Y-7714051D01*
X14728751Y-7721298D01*
X14728751Y-7721298D01*
X14728751Y-7721298D01*
X14742752Y-7725050D01*
X14742753Y-7725050D01*
X14757247Y-7725050D01*
X14757247Y-7725050D01*
X14771248Y-7721298D01*
X14783801Y-7714051D01*
X14794051Y-7703801D01*
X14801298Y-7691248D01*
X14805050Y-7677247D01*
X14805050Y-7662752D01*
X14801298Y-7648751D01*
X14794051Y-7636198D01*
X14783801Y-7625949D01*
X14779135Y-7623255D01*
X14774777Y-7620739D01*
X14769955Y-7615682D01*
X14768633Y-7608821D01*
X14771230Y-7602335D01*
X14774777Y-7599261D01*
X14776408Y-7598319D01*
X14783801Y-7594051D01*
X14794051Y-7583801D01*
X14801298Y-7571248D01*
X14805050Y-7557247D01*
X14805050Y-7542752D01*
X14801298Y-7528751D01*
X14799824Y-7526198D01*
X14794051Y-7516199D01*
X14794051Y-7516198D01*
X14783802Y-7505949D01*
X14783801Y-7505949D01*
X14771249Y-7498702D01*
X14771249Y-7498702D01*
X14768864Y-7498062D01*
X14759814Y-7495638D01*
X14753848Y-7492001D01*
X14750795Y-7485716D01*
X14751624Y-7478779D01*
X14756073Y-7473391D01*
X14759814Y-7471683D01*
X14761248Y-7471298D01*
X14773801Y-7464051D01*
X14784051Y-7453801D01*
X14791298Y-7441248D01*
X14795050Y-7427247D01*
X14795050Y-7412752D01*
X14791298Y-7398751D01*
X14784051Y-7386198D01*
X14773801Y-7375949D01*
X14773801Y-7375949D01*
X14773801Y-7375949D01*
X14761249Y-7368702D01*
X14761249Y-7368702D01*
X14760616Y-7368532D01*
X14754814Y-7366977D01*
X14748848Y-7363341D01*
X14745795Y-7357056D01*
X14746624Y-7350119D01*
X14751073Y-7344731D01*
X14754813Y-7343023D01*
X14761248Y-7341298D01*
X14773801Y-7334051D01*
X14784051Y-7323801D01*
X14791298Y-7311248D01*
X14795050Y-7297247D01*
X14795050Y-7282752D01*
X14791298Y-7268751D01*
X14784051Y-7256198D01*
X14773801Y-7245949D01*
X14773801Y-7245949D01*
X14773801Y-7245949D01*
X14761249Y-7238702D01*
X14761249Y-7238702D01*
X14760616Y-7238532D01*
X14754814Y-7236977D01*
X14748848Y-7233341D01*
X14745795Y-7227056D01*
X14746624Y-7220119D01*
X14751073Y-7214731D01*
X14754813Y-7213023D01*
X14761248Y-7211298D01*
X14773801Y-7204051D01*
X14784051Y-7193801D01*
X14791298Y-7181248D01*
X14795050Y-7167247D01*
X14795050Y-7152752D01*
X14791298Y-7138751D01*
X14789824Y-7136198D01*
X14784051Y-7126199D01*
X14784051Y-7126198D01*
X14773802Y-7115949D01*
X14773801Y-7115949D01*
X14768265Y-7112753D01*
X14764777Y-7110739D01*
X14759955Y-7105682D01*
X14758633Y-7098821D01*
X14761230Y-7092335D01*
X14764777Y-7089261D01*
X14766408Y-7088319D01*
X14773801Y-7084051D01*
X14784051Y-7073801D01*
X14791298Y-7061248D01*
X14795050Y-7047247D01*
X14795050Y-7032752D01*
X14791298Y-7018751D01*
X14790519Y-7017402D01*
X14784051Y-7006199D01*
X14784051Y-7006198D01*
X14773802Y-6995949D01*
X14773801Y-6995949D01*
X14761249Y-6988702D01*
X14761249Y-6988702D01*
X14760616Y-6988532D01*
X14754814Y-6986977D01*
X14748848Y-6983341D01*
X14745795Y-6977056D01*
X14746624Y-6970119D01*
X14751073Y-6964731D01*
X14754813Y-6963023D01*
X14761248Y-6961298D01*
X14773801Y-6954051D01*
X14784051Y-6943801D01*
X14791298Y-6931248D01*
X14795050Y-6917247D01*
X14795050Y-6902752D01*
X14791298Y-6888751D01*
X14790731Y-6887769D01*
X14784051Y-6876199D01*
X14784051Y-6876198D01*
X14773802Y-6865949D01*
X14773801Y-6865949D01*
X14761249Y-6858702D01*
X14761249Y-6858702D01*
X14760616Y-6858532D01*
X14754814Y-6856977D01*
X14748848Y-6853341D01*
X14745795Y-6847056D01*
X14746624Y-6840119D01*
X14751073Y-6834731D01*
X14754813Y-6833023D01*
X14761248Y-6831298D01*
X14773801Y-6824051D01*
X14784051Y-6813801D01*
X14791298Y-6801248D01*
X14795050Y-6787247D01*
X14795050Y-6772752D01*
X14791298Y-6758751D01*
X14786966Y-6751248D01*
X14784051Y-6746199D01*
X14784051Y-6746198D01*
X14773802Y-6735949D01*
X14773801Y-6735949D01*
X14761249Y-6728702D01*
X14761249Y-6728702D01*
X14757381Y-6727665D01*
X14747247Y-6724950D01*
X14732752Y-6724950D01*
X14722619Y-6727665D01*
X14718751Y-6728702D01*
X14706199Y-6735949D01*
X14706198Y-6735949D01*
X14695949Y-6746198D01*
X14695949Y-6746199D01*
X14688702Y-6758751D01*
X14688702Y-6758751D01*
X14684950Y-6772752D01*
X14035100Y-6772752D01*
X14044051Y-6763801D01*
X14051298Y-6751248D01*
X14055050Y-6737247D01*
X14055050Y-6722752D01*
X14051298Y-6708751D01*
X14049161Y-6705050D01*
X14044051Y-6696199D01*
X14044051Y-6696198D01*
X14033802Y-6685949D01*
X14033801Y-6685949D01*
X14021249Y-6678702D01*
X14021249Y-6678702D01*
X14020101Y-6678394D01*
X14007247Y-6674950D01*
X13996467Y-6674950D01*
X13989763Y-6672981D01*
X13985187Y-6667701D01*
X13984193Y-6660785D01*
X13984489Y-6659341D01*
X13985050Y-6657247D01*
X13985050Y-6642752D01*
X13981298Y-6628751D01*
X13979824Y-6626198D01*
X13974051Y-6616199D01*
X13974051Y-6616198D01*
X13963802Y-6605949D01*
X13963801Y-6605949D01*
X13951249Y-6598702D01*
X13951249Y-6598702D01*
X13950101Y-6598394D01*
X13937247Y-6594950D01*
X13922752Y-6594950D01*
X13909899Y-6598394D01*
X13908751Y-6598702D01*
X13896199Y-6605949D01*
X13896198Y-6605949D01*
X13885949Y-6616198D01*
X13885949Y-6616199D01*
X13878702Y-6628751D01*
X13878702Y-6628751D01*
X13874950Y-6642752D01*
X13874950Y-6642753D01*
X13874950Y-6657248D01*
X13875871Y-6660684D01*
X13875704Y-6667669D01*
X13871788Y-6673455D01*
X13865365Y-6676206D01*
X13861686Y-6676095D01*
X13861180Y-6676004D01*
X13857247Y-6674950D01*
X13855354Y-6674950D01*
X13854260Y-6674752D01*
X13852090Y-6673665D01*
X13849763Y-6672981D01*
X13849023Y-6672128D01*
X13848013Y-6671622D01*
X13846776Y-6669534D01*
X13845187Y-6667701D01*
X13845026Y-6666583D01*
X13844450Y-6665611D01*
X13844538Y-6663187D01*
X13844193Y-6660785D01*
X13844489Y-6659341D01*
X13845050Y-6657247D01*
X13845050Y-6642752D01*
X13841298Y-6628751D01*
X13839824Y-6626198D01*
X13834051Y-6616199D01*
X13834051Y-6616198D01*
X13823802Y-6605949D01*
X13823801Y-6605949D01*
X13811249Y-6598702D01*
X13811249Y-6598702D01*
X13810101Y-6598394D01*
X13797247Y-6594950D01*
X13782752Y-6594950D01*
X13769899Y-6598394D01*
X13768751Y-6598702D01*
X13756199Y-6605949D01*
X13756198Y-6605949D01*
X13745949Y-6616198D01*
X13745949Y-6616199D01*
X13738702Y-6628751D01*
X13738702Y-6628751D01*
X13734950Y-6642752D01*
X13734950Y-6642753D01*
X13734950Y-6657248D01*
X13735871Y-6660684D01*
X13735704Y-6667669D01*
X13731788Y-6673455D01*
X13725365Y-6676206D01*
X13720684Y-6675871D01*
X13717248Y-6674950D01*
X13717247Y-6674950D01*
X13702752Y-6674950D01*
X13689899Y-6678394D01*
X13688751Y-6678702D01*
X13676199Y-6685949D01*
X13676198Y-6685949D01*
X13665949Y-6696198D01*
X13665949Y-6696199D01*
X13658702Y-6708751D01*
X13658702Y-6708751D01*
X13654950Y-6722752D01*
X13289391Y-6722752D01*
X13288633Y-6718821D01*
X13291230Y-6712335D01*
X13294777Y-6709261D01*
X13296408Y-6708319D01*
X13303801Y-6704051D01*
X13314051Y-6693801D01*
X13321298Y-6681248D01*
X13325050Y-6667247D01*
X13325050Y-6652752D01*
X13321298Y-6638751D01*
X13315525Y-6628751D01*
X13314051Y-6626199D01*
X13314051Y-6626198D01*
X13303802Y-6615949D01*
X13303801Y-6615949D01*
X13291249Y-6608702D01*
X13291249Y-6608702D01*
X13290101Y-6608394D01*
X13277247Y-6604950D01*
X13262752Y-6604950D01*
X13249899Y-6608394D01*
X13248751Y-6608702D01*
X13236199Y-6615949D01*
X13236198Y-6615949D01*
X13225949Y-6626198D01*
X13225949Y-6626199D01*
X13218702Y-6638751D01*
X13218702Y-6638751D01*
X13214950Y-6652752D01*
X12932092Y-6652752D01*
X12926767Y-6650547D01*
X12926766Y-6650546D01*
X12909369Y-6647086D01*
X12909369Y-6647086D01*
X12811631Y-6647086D01*
X12811631Y-6647086D01*
X12794234Y-6650546D01*
X12794233Y-6650547D01*
X12777846Y-6657334D01*
X12777845Y-6657335D01*
X12769839Y-6662684D01*
X12763171Y-6664772D01*
X12756433Y-6662923D01*
X12751764Y-6657726D01*
X12750550Y-6652374D01*
X12750550Y-6567898D01*
X12752518Y-6561194D01*
X12757799Y-6556618D01*
X12764715Y-6555624D01*
X12769839Y-6557588D01*
X12777845Y-6562937D01*
X12777845Y-6562937D01*
X12777846Y-6562938D01*
X12789821Y-6567898D01*
X12794233Y-6569725D01*
X12794234Y-6569725D01*
X12794234Y-6569726D01*
X12811630Y-6573186D01*
X12811631Y-6573186D01*
X12811631Y-6573186D01*
X12909369Y-6573186D01*
X12909369Y-6573186D01*
X12915168Y-6572032D01*
X12926766Y-6569726D01*
X12926766Y-6569725D01*
X12926767Y-6569725D01*
X12943155Y-6562937D01*
X12957903Y-6553082D01*
X12970446Y-6540539D01*
X12980301Y-6525791D01*
X12987089Y-6509403D01*
X12990550Y-6492005D01*
X12990550Y-6474267D01*
X12990550Y-6474267D01*
X12990550Y-6474266D01*
X12987090Y-6456870D01*
X12987089Y-6456869D01*
X12980302Y-6440482D01*
X12980301Y-6440481D01*
X12970446Y-6425732D01*
X12970446Y-6425732D01*
X12957904Y-6413190D01*
X12957903Y-6413189D01*
X12943155Y-6403335D01*
X12943154Y-6403334D01*
X12926767Y-6396547D01*
X12926766Y-6396546D01*
X12909369Y-6393086D01*
X12909369Y-6393086D01*
X12811631Y-6393086D01*
X12811631Y-6393086D01*
X12794234Y-6396546D01*
X12794233Y-6396547D01*
X12777846Y-6403334D01*
X12777845Y-6403335D01*
X12769839Y-6408684D01*
X12763171Y-6410772D01*
X12756433Y-6408923D01*
X12751764Y-6403726D01*
X12750550Y-6398374D01*
X12750550Y-6292752D01*
X13604950Y-6292752D01*
X13604950Y-6307247D01*
X13608702Y-6321248D01*
X13608702Y-6321249D01*
X13615949Y-6333801D01*
X13615949Y-6333801D01*
X13615949Y-6333801D01*
X13626198Y-6344051D01*
X13626199Y-6344051D01*
X13626199Y-6344051D01*
X13638751Y-6351298D01*
X13638751Y-6351298D01*
X13638751Y-6351298D01*
X13652752Y-6355050D01*
X13652753Y-6355050D01*
X13667247Y-6355050D01*
X13667247Y-6355050D01*
X13681248Y-6351298D01*
X13693801Y-6344051D01*
X13704051Y-6333801D01*
X13711298Y-6321248D01*
X13715050Y-6307247D01*
X13715050Y-6292752D01*
X14024950Y-6292752D01*
X14024950Y-6307247D01*
X14028702Y-6321248D01*
X14028702Y-6321249D01*
X14035949Y-6333801D01*
X14035949Y-6333801D01*
X14035949Y-6333801D01*
X14046198Y-6344051D01*
X14046199Y-6344051D01*
X14046199Y-6344051D01*
X14058751Y-6351298D01*
X14058751Y-6351298D01*
X14058751Y-6351298D01*
X14072752Y-6355050D01*
X14072753Y-6355050D01*
X14087247Y-6355050D01*
X14087247Y-6355050D01*
X14101248Y-6351298D01*
X14113801Y-6344051D01*
X14124051Y-6333801D01*
X14131298Y-6321248D01*
X14135050Y-6307247D01*
X14135050Y-6292752D01*
X14131298Y-6278751D01*
X14124051Y-6266198D01*
X14113801Y-6255949D01*
X14113801Y-6255949D01*
X14113801Y-6255949D01*
X14101249Y-6248702D01*
X14101249Y-6248702D01*
X14100101Y-6248394D01*
X14087247Y-6244950D01*
X14072752Y-6244950D01*
X14059899Y-6248394D01*
X14058751Y-6248702D01*
X14046199Y-6255949D01*
X14046198Y-6255949D01*
X14035949Y-6266198D01*
X14035949Y-6266199D01*
X14028702Y-6278751D01*
X14028702Y-6278751D01*
X14024950Y-6292752D01*
X13715050Y-6292752D01*
X13711298Y-6278751D01*
X13704051Y-6266198D01*
X13693801Y-6255949D01*
X13693801Y-6255949D01*
X13693801Y-6255949D01*
X13681249Y-6248702D01*
X13681249Y-6248702D01*
X13680101Y-6248394D01*
X13667247Y-6244950D01*
X13652752Y-6244950D01*
X13639899Y-6248394D01*
X13638751Y-6248702D01*
X13626199Y-6255949D01*
X13626198Y-6255949D01*
X13615949Y-6266198D01*
X13615949Y-6266199D01*
X13608702Y-6278751D01*
X13608702Y-6278751D01*
X13604950Y-6292752D01*
X12750550Y-6292752D01*
X12750550Y-6171248D01*
X12750550Y-6142752D01*
X14684950Y-6142752D01*
X14684950Y-6157247D01*
X14688702Y-6171248D01*
X14688702Y-6171249D01*
X14695949Y-6183801D01*
X14695949Y-6183801D01*
X14695949Y-6183801D01*
X14706198Y-6194051D01*
X14713200Y-6198093D01*
X14715223Y-6199261D01*
X14720045Y-6204318D01*
X14721367Y-6211179D01*
X14718770Y-6217665D01*
X14715223Y-6220739D01*
X14706198Y-6225949D01*
X14706198Y-6225949D01*
X14695949Y-6236198D01*
X14695949Y-6236199D01*
X14688702Y-6248751D01*
X14688702Y-6248751D01*
X14684950Y-6262752D01*
X14684950Y-6277247D01*
X14687440Y-6286540D01*
X14688702Y-6291249D01*
X14695949Y-6303801D01*
X14695949Y-6303801D01*
X14695949Y-6303801D01*
X14706198Y-6314051D01*
X14706199Y-6314051D01*
X14706199Y-6314051D01*
X14718751Y-6321298D01*
X14718751Y-6321298D01*
X14718751Y-6321298D01*
X14732752Y-6325050D01*
X14732753Y-6325050D01*
X14747247Y-6325050D01*
X14747247Y-6325050D01*
X14761248Y-6321298D01*
X14773801Y-6314051D01*
X14784051Y-6303801D01*
X14791298Y-6291248D01*
X14795050Y-6277247D01*
X14795050Y-6262752D01*
X14791298Y-6248751D01*
X14791270Y-6248702D01*
X14784051Y-6236199D01*
X14784051Y-6236198D01*
X14773802Y-6225949D01*
X14773801Y-6225949D01*
X14769135Y-6223255D01*
X14764777Y-6220739D01*
X14759955Y-6215682D01*
X14758633Y-6208821D01*
X14761230Y-6202335D01*
X14764777Y-6199261D01*
X14766408Y-6198319D01*
X14773801Y-6194051D01*
X14784051Y-6183801D01*
X14791298Y-6171248D01*
X14795050Y-6157247D01*
X14795050Y-6142752D01*
X14791298Y-6128751D01*
X14784051Y-6116198D01*
X14773801Y-6105949D01*
X14773801Y-6105949D01*
X14773801Y-6105949D01*
X14761249Y-6098702D01*
X14761249Y-6098702D01*
X14760101Y-6098394D01*
X14747247Y-6094950D01*
X14732752Y-6094950D01*
X14719899Y-6098394D01*
X14718751Y-6098702D01*
X14706199Y-6105949D01*
X14706198Y-6105949D01*
X14695949Y-6116198D01*
X14695949Y-6116199D01*
X14688702Y-6128751D01*
X14688702Y-6128751D01*
X14684950Y-6142752D01*
X12750550Y-6142752D01*
X12750550Y-5917586D01*
X12752519Y-5910882D01*
X12757799Y-5906307D01*
X12762950Y-5905186D01*
X13290830Y-5905186D01*
X13297534Y-5907154D01*
G37*
%TD.AperFunction*%
%TD*%
M02*
