%TF.GenerationSoftware,KiCad,Pcbnew,10.0.0*%
%TF.CreationDate,2026-04-11T10:05:01+02:00*%
%TF.ProjectId,Easyduino_Atmega_Nano,45617379-6475-4696-9e6f-5f41746d6567,rev?*%
%TF.SameCoordinates,Original*%
%TF.FileFunction,Copper,L4,Bot*%
%TF.FilePolarity,Positive*%
%FSLAX45Y45*%
G04 Gerber Fmt 4.5, Leading zero omitted, Abs format (unit mm)*
G04 Created by KiCad (PCBNEW 10.0.0) date 2026-04-11 10:05:01*
%MOMM*%
%LPD*%
G01*
G04 APERTURE LIST*
%TA.AperFunction,ComponentPad*%
%ADD10C,1.600000*%
%TD*%
%TA.AperFunction,ComponentPad*%
%ADD11O,1.600000X1.600000*%
%TD*%
%TA.AperFunction,ComponentPad*%
%ADD12O,2.100000X1.000000*%
%TD*%
%TA.AperFunction,ComponentPad*%
%ADD13O,1.800000X1.000000*%
%TD*%
%TA.AperFunction,ConnectorPad*%
%ADD14C,1.700000*%
%TD*%
%TA.AperFunction,ConnectorPad*%
%ADD15O,1.700000X1.700000*%
%TD*%
%TA.AperFunction,ViaPad*%
%ADD16C,0.500000*%
%TD*%
%TA.AperFunction,Conductor*%
%ADD17C,0.200000*%
%TD*%
%TA.AperFunction,Conductor*%
%ADD18C,0.300000*%
%TD*%
G04 APERTURE END LIST*
D10*
%TO.P,A1,1,D1/TX_1*%
%TO.N,/PD1*%
X17907000Y-9088250D03*
D11*
%TO.P,A1,2,D0/RX_2*%
%TO.N,/PD0*%
X17653000Y-9088250D03*
%TO.P,A1,3,~{RESET}_3*%
%TO.N,/PC6*%
X17399000Y-9088250D03*
%TO.P,A1,4,GND_4*%
%TO.N,GND*%
X17145000Y-9088250D03*
%TO.P,A1,5,D2_5*%
%TO.N,/PD2*%
X16891000Y-9088250D03*
%TO.P,A1,6,D3_6*%
%TO.N,/PD3*%
X16637000Y-9088250D03*
%TO.P,A1,7,D4_7*%
%TO.N,/PD4*%
X16383000Y-9088250D03*
%TO.P,A1,8,D5_8*%
%TO.N,/PD5*%
X16129000Y-9088250D03*
%TO.P,A1,9,D6_9*%
%TO.N,/PD6*%
X15875000Y-9088250D03*
%TO.P,A1,10,D7_10*%
%TO.N,/PD7*%
X15621000Y-9088250D03*
%TO.P,A1,11,D8_11*%
%TO.N,/PB0*%
X15367000Y-9088250D03*
%TO.P,A1,12,D9_12*%
%TO.N,/PB1*%
X15113000Y-9088250D03*
%TO.P,A1,13,D10_13*%
%TO.N,/PB2*%
X14859000Y-9088250D03*
%TO.P,A1,14,D11_14*%
%TO.N,/PB3*%
X14605000Y-9088250D03*
%TO.P,A1,15,D12_15*%
%TO.N,/PB4*%
X14351000Y-9088250D03*
%TO.P,A1,16,D13_16*%
%TO.N,/PB5*%
X14351000Y-10612250D03*
%TO.P,A1,17,3V3_17*%
%TO.N,+3.3V*%
X14605000Y-10612250D03*
%TO.P,A1,18,AREF_18*%
%TO.N,/AREF*%
X14859000Y-10612250D03*
%TO.P,A1,19,A0_19*%
%TO.N,/PC0*%
X15113000Y-10612250D03*
%TO.P,A1,20,A1_20*%
%TO.N,/PC1*%
X15367000Y-10612250D03*
%TO.P,A1,21,A2_21*%
%TO.N,/PC2*%
X15621000Y-10612250D03*
%TO.P,A1,22,A3_22*%
%TO.N,/PC3*%
X15875000Y-10612250D03*
%TO.P,A1,23,A4_23*%
%TO.N,/PC4*%
X16129000Y-10612250D03*
%TO.P,A1,24,A5_24*%
%TO.N,/PC5*%
X16383000Y-10612250D03*
%TO.P,A1,25,A6_25*%
%TO.N,/ADC6*%
X16637000Y-10612250D03*
%TO.P,A1,26,A7_26*%
%TO.N,/ADC7*%
X16891000Y-10612250D03*
%TO.P,A1,27,+5V_27*%
%TO.N,+5V*%
X17145000Y-10612250D03*
%TO.P,A1,28,~{RESET}_28*%
%TO.N,/PC6*%
X17399000Y-10612250D03*
%TO.P,A1,29,GND_29*%
%TO.N,GND*%
X17653000Y-10612250D03*
%TO.P,A1,30,VIN_30*%
%TO.N,VCC*%
X17907000Y-10612250D03*
%TD*%
D12*
%TO.P,J1,SH,SHIELD_SH*%
%TO.N,GND*%
X14600000Y-9416000D03*
D13*
X14180000Y-9416000D03*
D12*
X14600000Y-10280000D03*
D13*
X14180000Y-10280000D03*
%TD*%
D14*
%TO.P,J2,1,Pin_1_1*%
%TO.N,/PB4*%
X18180000Y-9596000D03*
D15*
%TO.P,J2,2,Pin_2_2*%
%TO.N,+5V*%
X17926000Y-9596000D03*
%TO.P,J2,3,Pin_3_3*%
%TO.N,/PB5*%
X18180000Y-9850000D03*
%TO.P,J2,4,Pin_4_4*%
%TO.N,/PB3*%
X17926000Y-9850000D03*
%TO.P,J2,5,Pin_5_5*%
%TO.N,/PC6*%
X18180000Y-10104000D03*
%TO.P,J2,6,Pin_6_6*%
%TO.N,GND*%
X17926000Y-10104000D03*
%TD*%
D16*
%TO.N,GND*%
X17930000Y-10110000D03*
X17487236Y-9352764D03*
X16090000Y-10250000D03*
X18060000Y-9370000D03*
X17850000Y-9430000D03*
X14960000Y-10050000D03*
X15210000Y-10430000D03*
X14810000Y-9350000D03*
X16570000Y-10000000D03*
X17340000Y-9470000D03*
X16840000Y-9760000D03*
X14840000Y-9410000D03*
X14840000Y-10290000D03*
X17140000Y-9323030D03*
X15900000Y-10050000D03*
X14840000Y-10220000D03*
X15910000Y-9730000D03*
X17330000Y-9620000D03*
%TO.N,VCC*%
X15380000Y-10370000D03*
X15493389Y-10553389D03*
%TO.N,+5V*%
X16020000Y-10170000D03*
X15580000Y-10040000D03*
X17320000Y-9550000D03*
X17930000Y-9600000D03*
X17300000Y-9280000D03*
X15460000Y-9280000D03*
X16730000Y-9640000D03*
%TO.N,/PB5*%
X15590000Y-9710000D03*
X18180000Y-9860000D03*
X16050000Y-9870000D03*
%TO.N,/PC6*%
X18180000Y-10104000D03*
X17147000Y-10207000D03*
X17399000Y-9955000D03*
%TO.N,/PD1*%
X15020000Y-9240000D03*
X15170000Y-9390000D03*
X17380000Y-10210000D03*
%TO.N,/PD0*%
X15070000Y-9410000D03*
X17259000Y-10208000D03*
%TO.N,/PD2*%
X17288000Y-9855000D03*
%TO.N,/PD3*%
X17102000Y-9841000D03*
%TO.N,/PD4*%
X16980000Y-9840000D03*
%TO.N,/PB1*%
X16210000Y-9402000D03*
%TO.N,/PB2*%
X16210000Y-9500000D03*
%TO.N,/PB3*%
X17930000Y-9860000D03*
X16110000Y-9529750D03*
%TO.N,/PB4*%
X16102000Y-9626000D03*
X18180000Y-9600000D03*
%TO.N,/AREF*%
X16187000Y-10319000D03*
%TO.N,/PC3*%
X16969442Y-10378559D03*
%TO.N,/PC4*%
X17090000Y-10380000D03*
%TO.N,/PC5*%
X17200000Y-10380000D03*
%TO.N,/ADC6*%
X16413000Y-9963000D03*
%TO.N,/ADC7*%
X16610000Y-10100000D03*
%TO.N,/Vbus*%
X15383000Y-10122000D03*
X14518000Y-9850000D03*
%TO.N,/USB_D+*%
X14793236Y-9819236D03*
X14796000Y-9923000D03*
%TD*%
%TO.N,VCC*%
D17*
X15380000Y-10378250D02*
X15380000Y-10440000D01*
X15380000Y-10440000D02*
X15493389Y-10553389D01*
%TO.N,/PC6*%
X17399000Y-9955000D02*
X17399000Y-9088250D01*
X17147000Y-10207000D02*
X17399000Y-9955000D01*
%TO.N,/PD1*%
X17685800Y-9893200D02*
X17685800Y-9309450D01*
X17380000Y-10210000D02*
X17380000Y-10199000D01*
X17685800Y-9309450D02*
X17907000Y-9088250D01*
X15020000Y-9260000D02*
X15020000Y-9240000D01*
X15160000Y-9400000D02*
X15020000Y-9260000D01*
X17380000Y-10199000D02*
X17685800Y-9893200D01*
%TO.N,/PD0*%
X15070000Y-9410000D02*
X14970000Y-9310000D01*
X14970000Y-9040000D02*
X15030000Y-8980000D01*
X17580000Y-9161250D02*
X17653000Y-9088250D01*
X17259000Y-10208000D02*
X17259000Y-10205000D01*
X15030000Y-8980000D02*
X17544750Y-8980000D01*
X17259000Y-10205000D02*
X17580000Y-9884000D01*
X17544750Y-8980000D02*
X17653000Y-9088250D01*
X17580000Y-9884000D02*
X17580000Y-9161250D01*
X14970000Y-9310000D02*
X14970000Y-9040000D01*
%TO.N,/PD2*%
X17288000Y-9855000D02*
X16891000Y-9458000D01*
X16891000Y-9458000D02*
X16891000Y-9088250D01*
%TO.N,/PD3*%
X16637000Y-9376000D02*
X16637000Y-9088250D01*
X17102000Y-9841000D02*
X16637000Y-9376000D01*
%TO.N,/PD4*%
X16980000Y-9840000D02*
X16980000Y-9816000D01*
X16383000Y-9219000D02*
X16383000Y-9088250D01*
X16980000Y-9816000D02*
X16383000Y-9219000D01*
%TO.N,/PB1*%
X15113000Y-9223000D02*
X15113000Y-9088250D01*
X15292000Y-9402000D02*
X15113000Y-9223000D01*
X16210000Y-9402000D02*
X15292000Y-9402000D01*
%TO.N,/PB2*%
X16177000Y-9467000D02*
X15042000Y-9467000D01*
X16210000Y-9500000D02*
X16177000Y-9467000D01*
X15042000Y-9467000D02*
X14859000Y-9284000D01*
X14859000Y-9284000D02*
X14859000Y-9088250D01*
%TO.N,/PB3*%
X14871955Y-9530000D02*
X14605000Y-9263045D01*
X14605000Y-9263045D02*
X14605000Y-9088250D01*
X16109750Y-9530000D02*
X14871955Y-9530000D01*
X16110000Y-9529750D02*
X16109750Y-9530000D01*
%TO.N,/PB4*%
X16102000Y-9626000D02*
X16101500Y-9626500D01*
X14351000Y-9461000D02*
X14351000Y-9088250D01*
X14516500Y-9626500D02*
X14351000Y-9461000D01*
X16101500Y-9626500D02*
X14516500Y-9626500D01*
%TO.N,/AREF*%
X16168000Y-10300000D02*
X15171250Y-10300000D01*
X16187000Y-10319000D02*
X16168000Y-10300000D01*
X15171250Y-10300000D02*
X14859000Y-10612250D01*
%TO.N,/PC3*%
X16960000Y-10388000D02*
X16099250Y-10388000D01*
X16099250Y-10388000D02*
X15875000Y-10612250D01*
X16969442Y-10378559D02*
X16960000Y-10388000D01*
%TO.N,/PC4*%
X16299250Y-10442000D02*
X16129000Y-10612250D01*
X17038000Y-10442000D02*
X16299250Y-10442000D01*
X17090000Y-10390000D02*
X17038000Y-10442000D01*
X17090000Y-10380000D02*
X17090000Y-10390000D01*
%TO.N,/PC5*%
X17089000Y-10491000D02*
X16504250Y-10491000D01*
X16504250Y-10491000D02*
X16383000Y-10612250D01*
X17200000Y-10380000D02*
X17089000Y-10491000D01*
%TO.N,/Vbus*%
D18*
X14645000Y-9850000D02*
X14917000Y-10122000D01*
X14917000Y-10122000D02*
X15383000Y-10122000D01*
X14518000Y-9850000D02*
X14645000Y-9850000D01*
%TO.N,/USB_D+*%
D17*
X14796000Y-9822000D02*
X14793236Y-9819236D01*
X14796000Y-9923000D02*
X14796000Y-9822000D01*
%TD*%
M02*
