%TF.GenerationSoftware,KiCad,Pcbnew,10.0.0*%
%TF.CreationDate,2026-04-11T10:05:01+02:00*%
%TF.ProjectId,Easyduino_Atmega_Nano,45617379-6475-4696-9e6f-5f41746d6567,rev?*%
%TF.SameCoordinates,Original*%
%TF.FileFunction,Copper,L3,Inr*%
%TF.FilePolarity,Positive*%
%FSLAX45Y45*%
G04 Gerber Fmt 4.5, Leading zero omitted, Abs format (unit mm)*
G04 Created by KiCad (PCBNEW 10.0.0) date 2026-04-11 10:05:01*
%MOMM*%
%LPD*%
G01*
G04 APERTURE LIST*
%TA.AperFunction,ComponentPad*%
%ADD10C,1.600000*%
%TD*%
%TA.AperFunction,ComponentPad*%
%ADD11O,1.600000X1.600000*%
%TD*%
%TA.AperFunction,ComponentPad*%
%ADD12O,2.100000X1.000000*%
%TD*%
%TA.AperFunction,ComponentPad*%
%ADD13O,1.800000X1.000000*%
%TD*%
%TA.AperFunction,ViaPad*%
%ADD14C,0.500000*%
%TD*%
%TA.AperFunction,Conductor*%
%ADD15C,0.200000*%
%TD*%
%TA.AperFunction,Conductor*%
%ADD16C,0.250000*%
%TD*%
G04 APERTURE END LIST*
D10*
%TO.N,/PD1*%
%TO.C,A1*%
X17907000Y-9088250D03*
D11*
%TO.N,/PD0*%
X17653000Y-9088250D03*
%TO.N,/PC6*%
X17399000Y-9088250D03*
%TO.N,GND*%
X17145000Y-9088250D03*
%TO.N,/PD2*%
X16891000Y-9088250D03*
%TO.N,/PD3*%
X16637000Y-9088250D03*
%TO.N,/PD4*%
X16383000Y-9088250D03*
%TO.N,/PD5*%
X16129000Y-9088250D03*
%TO.N,/PD6*%
X15875000Y-9088250D03*
%TO.N,/PD7*%
X15621000Y-9088250D03*
%TO.N,/PB0*%
X15367000Y-9088250D03*
%TO.N,/PB1*%
X15113000Y-9088250D03*
%TO.N,/PB2*%
X14859000Y-9088250D03*
%TO.N,/PB3*%
X14605000Y-9088250D03*
%TO.N,/PB4*%
X14351000Y-9088250D03*
%TO.N,/PB5*%
X14351000Y-10612250D03*
%TO.N,+3.3V*%
X14605000Y-10612250D03*
%TO.N,/AREF*%
X14859000Y-10612250D03*
%TO.N,/PC0*%
X15113000Y-10612250D03*
%TO.N,/PC1*%
X15367000Y-10612250D03*
%TO.N,/PC2*%
X15621000Y-10612250D03*
%TO.N,/PC3*%
X15875000Y-10612250D03*
%TO.N,/PC4*%
X16129000Y-10612250D03*
%TO.N,/PC5*%
X16383000Y-10612250D03*
%TO.N,/ADC6*%
X16637000Y-10612250D03*
%TO.N,/ADC7*%
X16891000Y-10612250D03*
%TO.N,+5V*%
X17145000Y-10612250D03*
%TO.N,/PC6*%
X17399000Y-10612250D03*
%TO.N,GND*%
X17653000Y-10612250D03*
%TO.N,VCC*%
X17907000Y-10612250D03*
%TD*%
D12*
%TO.N,GND*%
%TO.C,J1*%
X14600000Y-9416000D03*
D13*
X14180000Y-9416000D03*
D12*
X14600000Y-10280000D03*
D13*
X14180000Y-10280000D03*
%TD*%
D14*
%TO.N,GND*%
X17930000Y-10110000D03*
X17487236Y-9352764D03*
X16090000Y-10250000D03*
X18060000Y-9370000D03*
X17850000Y-9430000D03*
X14960000Y-10050000D03*
X15210000Y-10430000D03*
X14810000Y-9350000D03*
X16570000Y-10000000D03*
X17340000Y-9470000D03*
X16840000Y-9760000D03*
X14840000Y-9410000D03*
X14840000Y-10290000D03*
X17140000Y-9323030D03*
X15900000Y-10050000D03*
X14840000Y-10220000D03*
X15910000Y-9730000D03*
X17330000Y-9620000D03*
%TO.N,VCC*%
X15380000Y-10370000D03*
X15493389Y-10553389D03*
%TO.N,+5V*%
X16020000Y-10170000D03*
X15580000Y-10040000D03*
X17320000Y-9550000D03*
X17930000Y-9600000D03*
X17300000Y-9280000D03*
X15460000Y-9280000D03*
X16730000Y-9640000D03*
%TO.N,/PB5*%
X15590000Y-9710000D03*
X18180000Y-9860000D03*
X16050000Y-9870000D03*
%TO.N,/PC6*%
X18180000Y-10104000D03*
X17147000Y-10207000D03*
X17399000Y-9955000D03*
%TO.N,/PD1*%
X15020000Y-9240000D03*
X15170000Y-9390000D03*
X17380000Y-10210000D03*
%TO.N,/PD0*%
X15070000Y-9410000D03*
X17259000Y-10208000D03*
%TO.N,/PD2*%
X17288000Y-9855000D03*
%TO.N,/PD3*%
X17102000Y-9841000D03*
%TO.N,/PD4*%
X16980000Y-9840000D03*
%TO.N,/PB1*%
X16210000Y-9402000D03*
%TO.N,/PB2*%
X16210000Y-9500000D03*
%TO.N,/PB3*%
X17930000Y-9860000D03*
X16110000Y-9529750D03*
%TO.N,/PB4*%
X16102000Y-9626000D03*
X18180000Y-9600000D03*
%TO.N,/AREF*%
X16187000Y-10319000D03*
%TO.N,/PC3*%
X16969442Y-10378559D03*
%TO.N,/PC4*%
X17090000Y-10380000D03*
%TO.N,/PC5*%
X17200000Y-10380000D03*
%TO.N,/ADC6*%
X16413000Y-9963000D03*
%TO.N,/ADC7*%
X16610000Y-10100000D03*
%TO.N,/Vbus*%
X15383000Y-10122000D03*
X14518000Y-9850000D03*
%TO.N,/USB_D+*%
X14793236Y-9819236D03*
X14796000Y-9923000D03*
%TD*%
%TO.N,/PB5*%
D15*
X15500000Y-9710000D02*
X14790000Y-10420000D01*
X14543250Y-10420000D02*
X14351000Y-10612250D01*
X14790000Y-10420000D02*
X14543250Y-10420000D01*
X15590000Y-9710000D02*
X15500000Y-9710000D01*
%TO.N,/PB3*%
X16710000Y-9810000D02*
X16910000Y-10010000D01*
X17593614Y-10010000D02*
X17743614Y-9860000D01*
X17743614Y-9860000D02*
X17930000Y-9860000D01*
X16110000Y-9529750D02*
X16390250Y-9810000D01*
X16910000Y-10010000D02*
X17593614Y-10010000D01*
X16390250Y-9810000D02*
X16710000Y-9810000D01*
%TO.N,/PB4*%
X16336000Y-9860000D02*
X16102000Y-9626000D01*
X16900000Y-10070000D02*
X16690000Y-9860000D01*
D16*
X17980000Y-9980000D02*
X17690000Y-9980000D01*
X17980000Y-9980000D02*
X18050000Y-9910000D01*
D15*
X17690000Y-9980000D02*
X17600000Y-10070000D01*
D16*
X18050000Y-9910000D02*
X18050000Y-9730000D01*
D15*
X16690000Y-9860000D02*
X16336000Y-9860000D01*
X17600000Y-10070000D02*
X16900000Y-10070000D01*
D16*
X18050000Y-9730000D02*
X18180000Y-9600000D01*
%TO.N,/ADC7*%
D15*
X16610000Y-10100000D02*
X16891000Y-10381000D01*
X16891000Y-10381000D02*
X16891000Y-10612250D01*
%TD*%
%TA.AperFunction,Conductor*%
%TO.N,+5V*%
G36*
X14323229Y-8960269D02*
G01*
X14327805Y-8965549D01*
X14328799Y-8972465D01*
X14325897Y-8978820D01*
X14320357Y-8982493D01*
X14313732Y-8984646D01*
X14308755Y-8986263D01*
X14293321Y-8994127D01*
X14288909Y-8997332D01*
X14279307Y-9004309D01*
X14279307Y-9004309D01*
X14279307Y-9004309D01*
X14267059Y-9016557D01*
X14267059Y-9016557D01*
X14267059Y-9016557D01*
X14264806Y-9019658D01*
X14256877Y-9030571D01*
X14249013Y-9046005D01*
X14243660Y-9062480D01*
X14241000Y-9079274D01*
X14240950Y-9079589D01*
X14240950Y-9096911D01*
X14243660Y-9114020D01*
X14249013Y-9130495D01*
X14256877Y-9145929D01*
X14267059Y-9159943D01*
X14279307Y-9172191D01*
X14293321Y-9182373D01*
X14308755Y-9190237D01*
X14325230Y-9195590D01*
X14342339Y-9198300D01*
X14342339Y-9198300D01*
X14359661Y-9198300D01*
X14359661Y-9198300D01*
X14376770Y-9195590D01*
X14393244Y-9190237D01*
X14408679Y-9182373D01*
X14422693Y-9172191D01*
X14434941Y-9159943D01*
X14445123Y-9145929D01*
X14452987Y-9130495D01*
X14458340Y-9114020D01*
X14461050Y-9096911D01*
X14461050Y-9079589D01*
X14458340Y-9062480D01*
X14452987Y-9046006D01*
X14445123Y-9030571D01*
X14434941Y-9016557D01*
X14422693Y-9004309D01*
X14408679Y-8994127D01*
X14393244Y-8986263D01*
X14381643Y-8982493D01*
X14375875Y-8978549D01*
X14373155Y-8972114D01*
X14374347Y-8965229D01*
X14379071Y-8960081D01*
X14385475Y-8958300D01*
X14570525Y-8958300D01*
X14577229Y-8960269D01*
X14581805Y-8965549D01*
X14582799Y-8972465D01*
X14579897Y-8978820D01*
X14574357Y-8982493D01*
X14567732Y-8984646D01*
X14562755Y-8986263D01*
X14547321Y-8994127D01*
X14542909Y-8997332D01*
X14533307Y-9004309D01*
X14533307Y-9004309D01*
X14533307Y-9004309D01*
X14521059Y-9016557D01*
X14521059Y-9016557D01*
X14521059Y-9016557D01*
X14518806Y-9019658D01*
X14510877Y-9030571D01*
X14503013Y-9046005D01*
X14497660Y-9062480D01*
X14495000Y-9079274D01*
X14494950Y-9079589D01*
X14494950Y-9096911D01*
X14497660Y-9114020D01*
X14503013Y-9130495D01*
X14510877Y-9145929D01*
X14521059Y-9159943D01*
X14533307Y-9172191D01*
X14547321Y-9182373D01*
X14562755Y-9190237D01*
X14579230Y-9195590D01*
X14596339Y-9198300D01*
X14596339Y-9198300D01*
X14613661Y-9198300D01*
X14613661Y-9198300D01*
X14630770Y-9195590D01*
X14647244Y-9190237D01*
X14662679Y-9182373D01*
X14676693Y-9172191D01*
X14688941Y-9159943D01*
X14699123Y-9145929D01*
X14706987Y-9130495D01*
X14712340Y-9114020D01*
X14715050Y-9096911D01*
X14715050Y-9079589D01*
X14712340Y-9062480D01*
X14706987Y-9046006D01*
X14699123Y-9030571D01*
X14688941Y-9016557D01*
X14676693Y-9004309D01*
X14662679Y-8994127D01*
X14647244Y-8986263D01*
X14635643Y-8982493D01*
X14629875Y-8978549D01*
X14627155Y-8972114D01*
X14628347Y-8965229D01*
X14633071Y-8960081D01*
X14639475Y-8958300D01*
X14824525Y-8958300D01*
X14831229Y-8960269D01*
X14835805Y-8965549D01*
X14836799Y-8972465D01*
X14833897Y-8978820D01*
X14828357Y-8982493D01*
X14821732Y-8984646D01*
X14816755Y-8986263D01*
X14801321Y-8994127D01*
X14796909Y-8997332D01*
X14787307Y-9004309D01*
X14787307Y-9004309D01*
X14787307Y-9004309D01*
X14775059Y-9016557D01*
X14775059Y-9016557D01*
X14775059Y-9016557D01*
X14772806Y-9019658D01*
X14764877Y-9030571D01*
X14757013Y-9046005D01*
X14751660Y-9062480D01*
X14749000Y-9079274D01*
X14748950Y-9079589D01*
X14748950Y-9096911D01*
X14751660Y-9114020D01*
X14757013Y-9130495D01*
X14764877Y-9145929D01*
X14775059Y-9159943D01*
X14787307Y-9172191D01*
X14801321Y-9182373D01*
X14816755Y-9190237D01*
X14833230Y-9195590D01*
X14850339Y-9198300D01*
X14850339Y-9198300D01*
X14867661Y-9198300D01*
X14867661Y-9198300D01*
X14884770Y-9195590D01*
X14901244Y-9190237D01*
X14916679Y-9182373D01*
X14930693Y-9172191D01*
X14942941Y-9159943D01*
X14953123Y-9145929D01*
X14960987Y-9130495D01*
X14966340Y-9114020D01*
X14969050Y-9096911D01*
X14969050Y-9079589D01*
X14966340Y-9062480D01*
X14960987Y-9046006D01*
X14953123Y-9030571D01*
X14942941Y-9016557D01*
X14930693Y-9004309D01*
X14916679Y-8994127D01*
X14901244Y-8986263D01*
X14889643Y-8982493D01*
X14883875Y-8978549D01*
X14881155Y-8972114D01*
X14882347Y-8965229D01*
X14887071Y-8960081D01*
X14893475Y-8958300D01*
X15078525Y-8958300D01*
X15085229Y-8960269D01*
X15089805Y-8965549D01*
X15090799Y-8972465D01*
X15087897Y-8978820D01*
X15082357Y-8982493D01*
X15075732Y-8984646D01*
X15070755Y-8986263D01*
X15055321Y-8994127D01*
X15050909Y-8997332D01*
X15041307Y-9004309D01*
X15041307Y-9004309D01*
X15041307Y-9004309D01*
X15029059Y-9016557D01*
X15029059Y-9016557D01*
X15029059Y-9016557D01*
X15026806Y-9019658D01*
X15018877Y-9030571D01*
X15011013Y-9046005D01*
X15005660Y-9062480D01*
X15003000Y-9079274D01*
X15002950Y-9079589D01*
X15002950Y-9096911D01*
X15005660Y-9114020D01*
X15011013Y-9130495D01*
X15018877Y-9145929D01*
X15029059Y-9159943D01*
X15029059Y-9159943D01*
X15032898Y-9163782D01*
X15036246Y-9169914D01*
X15035748Y-9176883D01*
X15031561Y-9182477D01*
X15025014Y-9184918D01*
X15024130Y-9184950D01*
X15012752Y-9184950D01*
X14999899Y-9188394D01*
X14998751Y-9188702D01*
X14986199Y-9195949D01*
X14986198Y-9195949D01*
X14975949Y-9206198D01*
X14975949Y-9206199D01*
X14968702Y-9218751D01*
X14968702Y-9218752D01*
X14964950Y-9232753D01*
X14964950Y-9247248D01*
X14968702Y-9261249D01*
X14968702Y-9261249D01*
X14975949Y-9273801D01*
X14975949Y-9273801D01*
X14975949Y-9273802D01*
X14986198Y-9284051D01*
X14986199Y-9284051D01*
X14986199Y-9284051D01*
X14998751Y-9291298D01*
X14998751Y-9291298D01*
X14998751Y-9291298D01*
X15012752Y-9295050D01*
X15012753Y-9295050D01*
X15027247Y-9295050D01*
X15027247Y-9295050D01*
X15041248Y-9291298D01*
X15053801Y-9284051D01*
X15064051Y-9273802D01*
X15071298Y-9261249D01*
X15075050Y-9247248D01*
X15075050Y-9232753D01*
X15071298Y-9218752D01*
X15067311Y-9211845D01*
X15065664Y-9205056D01*
X15067949Y-9198453D01*
X15073441Y-9194134D01*
X15080396Y-9193470D01*
X15081880Y-9193852D01*
X15087230Y-9195590D01*
X15104339Y-9198300D01*
X15104339Y-9198300D01*
X15121661Y-9198300D01*
X15121661Y-9198300D01*
X15138770Y-9195590D01*
X15155244Y-9190237D01*
X15170679Y-9182373D01*
X15184693Y-9172191D01*
X15196941Y-9159943D01*
X15207123Y-9145929D01*
X15214987Y-9130495D01*
X15220340Y-9114020D01*
X15223050Y-9096911D01*
X15223050Y-9079589D01*
X15220340Y-9062480D01*
X15214987Y-9046006D01*
X15207123Y-9030571D01*
X15196941Y-9016557D01*
X15184693Y-9004309D01*
X15170679Y-8994127D01*
X15155244Y-8986263D01*
X15143643Y-8982493D01*
X15137875Y-8978549D01*
X15135155Y-8972114D01*
X15136347Y-8965229D01*
X15141071Y-8960081D01*
X15147475Y-8958300D01*
X15332525Y-8958300D01*
X15339229Y-8960269D01*
X15343805Y-8965549D01*
X15344799Y-8972465D01*
X15341897Y-8978820D01*
X15336357Y-8982493D01*
X15329732Y-8984646D01*
X15324755Y-8986263D01*
X15309321Y-8994127D01*
X15304909Y-8997332D01*
X15295307Y-9004309D01*
X15295307Y-9004309D01*
X15295307Y-9004309D01*
X15283059Y-9016557D01*
X15283059Y-9016557D01*
X15283059Y-9016557D01*
X15280806Y-9019658D01*
X15272877Y-9030571D01*
X15265013Y-9046005D01*
X15259660Y-9062480D01*
X15257000Y-9079274D01*
X15256950Y-9079589D01*
X15256950Y-9096911D01*
X15259660Y-9114020D01*
X15265013Y-9130495D01*
X15272877Y-9145929D01*
X15283059Y-9159943D01*
X15295307Y-9172191D01*
X15309321Y-9182373D01*
X15324755Y-9190237D01*
X15341230Y-9195590D01*
X15358339Y-9198300D01*
X15358339Y-9198300D01*
X15375661Y-9198300D01*
X15375661Y-9198300D01*
X15392770Y-9195590D01*
X15409244Y-9190237D01*
X15424679Y-9182373D01*
X15438693Y-9172191D01*
X15450941Y-9159943D01*
X15461123Y-9145929D01*
X15468987Y-9130495D01*
X15474340Y-9114020D01*
X15477050Y-9096911D01*
X15477050Y-9079589D01*
X15474340Y-9062480D01*
X15468987Y-9046006D01*
X15461123Y-9030571D01*
X15450941Y-9016557D01*
X15438693Y-9004309D01*
X15424679Y-8994127D01*
X15409244Y-8986263D01*
X15397643Y-8982493D01*
X15391875Y-8978549D01*
X15389155Y-8972114D01*
X15390347Y-8965229D01*
X15395071Y-8960081D01*
X15401475Y-8958300D01*
X15586525Y-8958300D01*
X15593229Y-8960269D01*
X15597805Y-8965549D01*
X15598799Y-8972465D01*
X15595897Y-8978820D01*
X15590357Y-8982493D01*
X15583732Y-8984646D01*
X15578755Y-8986263D01*
X15563321Y-8994127D01*
X15558909Y-8997332D01*
X15549307Y-9004309D01*
X15549307Y-9004309D01*
X15549307Y-9004309D01*
X15537059Y-9016557D01*
X15537059Y-9016557D01*
X15537059Y-9016557D01*
X15534806Y-9019658D01*
X15526877Y-9030571D01*
X15519013Y-9046005D01*
X15513660Y-9062480D01*
X15511000Y-9079274D01*
X15510950Y-9079589D01*
X15510950Y-9096911D01*
X15513660Y-9114020D01*
X15519013Y-9130495D01*
X15526877Y-9145929D01*
X15537059Y-9159943D01*
X15549307Y-9172191D01*
X15563321Y-9182373D01*
X15578755Y-9190237D01*
X15595230Y-9195590D01*
X15612339Y-9198300D01*
X15612339Y-9198300D01*
X15629661Y-9198300D01*
X15629661Y-9198300D01*
X15646770Y-9195590D01*
X15663244Y-9190237D01*
X15678679Y-9182373D01*
X15692693Y-9172191D01*
X15704941Y-9159943D01*
X15715123Y-9145929D01*
X15722987Y-9130495D01*
X15728340Y-9114020D01*
X15731050Y-9096911D01*
X15731050Y-9079589D01*
X15728340Y-9062480D01*
X15722987Y-9046006D01*
X15715123Y-9030571D01*
X15704941Y-9016557D01*
X15692693Y-9004309D01*
X15678679Y-8994127D01*
X15663244Y-8986263D01*
X15651643Y-8982493D01*
X15645875Y-8978549D01*
X15643155Y-8972114D01*
X15644347Y-8965229D01*
X15649071Y-8960081D01*
X15655475Y-8958300D01*
X15840525Y-8958300D01*
X15847229Y-8960269D01*
X15851805Y-8965549D01*
X15852799Y-8972465D01*
X15849897Y-8978820D01*
X15844357Y-8982493D01*
X15837732Y-8984646D01*
X15832755Y-8986263D01*
X15817321Y-8994127D01*
X15812909Y-8997332D01*
X15803307Y-9004309D01*
X15803307Y-9004309D01*
X15803307Y-9004309D01*
X15791059Y-9016557D01*
X15791059Y-9016557D01*
X15791059Y-9016557D01*
X15788806Y-9019658D01*
X15780877Y-9030571D01*
X15773013Y-9046005D01*
X15767660Y-9062480D01*
X15765000Y-9079274D01*
X15764950Y-9079589D01*
X15764950Y-9096911D01*
X15767660Y-9114020D01*
X15773013Y-9130495D01*
X15780877Y-9145929D01*
X15791059Y-9159943D01*
X15803307Y-9172191D01*
X15817321Y-9182373D01*
X15832755Y-9190237D01*
X15849230Y-9195590D01*
X15866339Y-9198300D01*
X15866339Y-9198300D01*
X15883661Y-9198300D01*
X15883661Y-9198300D01*
X15900770Y-9195590D01*
X15917244Y-9190237D01*
X15932679Y-9182373D01*
X15946693Y-9172191D01*
X15958941Y-9159943D01*
X15969123Y-9145929D01*
X15976987Y-9130495D01*
X15982340Y-9114020D01*
X15985050Y-9096911D01*
X15985050Y-9079589D01*
X15982340Y-9062480D01*
X15976987Y-9046006D01*
X15969123Y-9030571D01*
X15958941Y-9016557D01*
X15946693Y-9004309D01*
X15932679Y-8994127D01*
X15917244Y-8986263D01*
X15905643Y-8982493D01*
X15899875Y-8978549D01*
X15897155Y-8972114D01*
X15898347Y-8965229D01*
X15903071Y-8960081D01*
X15909475Y-8958300D01*
X16094525Y-8958300D01*
X16101229Y-8960269D01*
X16105805Y-8965549D01*
X16106799Y-8972465D01*
X16103897Y-8978820D01*
X16098357Y-8982493D01*
X16091732Y-8984646D01*
X16086755Y-8986263D01*
X16071321Y-8994127D01*
X16066909Y-8997332D01*
X16057307Y-9004309D01*
X16057307Y-9004309D01*
X16057307Y-9004309D01*
X16045059Y-9016557D01*
X16045059Y-9016557D01*
X16045059Y-9016557D01*
X16042806Y-9019658D01*
X16034877Y-9030571D01*
X16027013Y-9046005D01*
X16021660Y-9062480D01*
X16019000Y-9079274D01*
X16018950Y-9079589D01*
X16018950Y-9096911D01*
X16021660Y-9114020D01*
X16027013Y-9130495D01*
X16034877Y-9145929D01*
X16045059Y-9159943D01*
X16057307Y-9172191D01*
X16071321Y-9182373D01*
X16086755Y-9190237D01*
X16103230Y-9195590D01*
X16120339Y-9198300D01*
X16120339Y-9198300D01*
X16137661Y-9198300D01*
X16137661Y-9198300D01*
X16154770Y-9195590D01*
X16171244Y-9190237D01*
X16186679Y-9182373D01*
X16200693Y-9172191D01*
X16212941Y-9159943D01*
X16223123Y-9145929D01*
X16230987Y-9130495D01*
X16236340Y-9114020D01*
X16239050Y-9096911D01*
X16239050Y-9079589D01*
X16236340Y-9062480D01*
X16230987Y-9046006D01*
X16223123Y-9030571D01*
X16212941Y-9016557D01*
X16200693Y-9004309D01*
X16186679Y-8994127D01*
X16171244Y-8986263D01*
X16159643Y-8982493D01*
X16153875Y-8978549D01*
X16151155Y-8972114D01*
X16152347Y-8965229D01*
X16157071Y-8960081D01*
X16163475Y-8958300D01*
X16348525Y-8958300D01*
X16355229Y-8960269D01*
X16359805Y-8965549D01*
X16360799Y-8972465D01*
X16357897Y-8978820D01*
X16352357Y-8982493D01*
X16345732Y-8984646D01*
X16340755Y-8986263D01*
X16325321Y-8994127D01*
X16320909Y-8997332D01*
X16311307Y-9004309D01*
X16311307Y-9004309D01*
X16311307Y-9004309D01*
X16299059Y-9016557D01*
X16299059Y-9016557D01*
X16299059Y-9016557D01*
X16296806Y-9019658D01*
X16288877Y-9030571D01*
X16281013Y-9046005D01*
X16275660Y-9062480D01*
X16273000Y-9079274D01*
X16272950Y-9079589D01*
X16272950Y-9096911D01*
X16275660Y-9114020D01*
X16281013Y-9130495D01*
X16288877Y-9145929D01*
X16299059Y-9159943D01*
X16311307Y-9172191D01*
X16325321Y-9182373D01*
X16340755Y-9190237D01*
X16357230Y-9195590D01*
X16374339Y-9198300D01*
X16374339Y-9198300D01*
X16391661Y-9198300D01*
X16391661Y-9198300D01*
X16408770Y-9195590D01*
X16425244Y-9190237D01*
X16440679Y-9182373D01*
X16454693Y-9172191D01*
X16466941Y-9159943D01*
X16477123Y-9145929D01*
X16484987Y-9130495D01*
X16490340Y-9114020D01*
X16493050Y-9096911D01*
X16493050Y-9079589D01*
X16490340Y-9062480D01*
X16484987Y-9046006D01*
X16477123Y-9030571D01*
X16466941Y-9016557D01*
X16454693Y-9004309D01*
X16440679Y-8994127D01*
X16425244Y-8986263D01*
X16413643Y-8982493D01*
X16407875Y-8978549D01*
X16405155Y-8972114D01*
X16406347Y-8965229D01*
X16411071Y-8960081D01*
X16417475Y-8958300D01*
X16602525Y-8958300D01*
X16609229Y-8960269D01*
X16613805Y-8965549D01*
X16614799Y-8972465D01*
X16611897Y-8978820D01*
X16606357Y-8982493D01*
X16599732Y-8984646D01*
X16594755Y-8986263D01*
X16579321Y-8994127D01*
X16574909Y-8997332D01*
X16565307Y-9004309D01*
X16565307Y-9004309D01*
X16565307Y-9004309D01*
X16553059Y-9016557D01*
X16553059Y-9016557D01*
X16553059Y-9016557D01*
X16550806Y-9019658D01*
X16542877Y-9030571D01*
X16535013Y-9046005D01*
X16529660Y-9062480D01*
X16527000Y-9079274D01*
X16526950Y-9079589D01*
X16526950Y-9096911D01*
X16529660Y-9114020D01*
X16535013Y-9130495D01*
X16542877Y-9145929D01*
X16553059Y-9159943D01*
X16565307Y-9172191D01*
X16579321Y-9182373D01*
X16594755Y-9190237D01*
X16611230Y-9195590D01*
X16628339Y-9198300D01*
X16628339Y-9198300D01*
X16645661Y-9198300D01*
X16645661Y-9198300D01*
X16662770Y-9195590D01*
X16679244Y-9190237D01*
X16694679Y-9182373D01*
X16708693Y-9172191D01*
X16720941Y-9159943D01*
X16731123Y-9145929D01*
X16738987Y-9130495D01*
X16744340Y-9114020D01*
X16747050Y-9096911D01*
X16747050Y-9079589D01*
X16744340Y-9062480D01*
X16738987Y-9046006D01*
X16731123Y-9030571D01*
X16720941Y-9016557D01*
X16708693Y-9004309D01*
X16694679Y-8994127D01*
X16679244Y-8986263D01*
X16667643Y-8982493D01*
X16661875Y-8978549D01*
X16659155Y-8972114D01*
X16660347Y-8965229D01*
X16665071Y-8960081D01*
X16671475Y-8958300D01*
X16856525Y-8958300D01*
X16863229Y-8960269D01*
X16867805Y-8965549D01*
X16868799Y-8972465D01*
X16865897Y-8978820D01*
X16860357Y-8982493D01*
X16853732Y-8984646D01*
X16848755Y-8986263D01*
X16833321Y-8994127D01*
X16828909Y-8997332D01*
X16819307Y-9004309D01*
X16819307Y-9004309D01*
X16819307Y-9004309D01*
X16807059Y-9016557D01*
X16807059Y-9016557D01*
X16807059Y-9016557D01*
X16804806Y-9019658D01*
X16796877Y-9030571D01*
X16789013Y-9046005D01*
X16783660Y-9062480D01*
X16781000Y-9079274D01*
X16780950Y-9079589D01*
X16780950Y-9096911D01*
X16783660Y-9114020D01*
X16789013Y-9130495D01*
X16796877Y-9145929D01*
X16807059Y-9159943D01*
X16819307Y-9172191D01*
X16833321Y-9182373D01*
X16848756Y-9190237D01*
X16865230Y-9195590D01*
X16882339Y-9198300D01*
X16882339Y-9198300D01*
X16899661Y-9198300D01*
X16899661Y-9198300D01*
X16916770Y-9195590D01*
X16933245Y-9190237D01*
X16948679Y-9182373D01*
X16962693Y-9172191D01*
X16974941Y-9159943D01*
X16985123Y-9145929D01*
X16992987Y-9130495D01*
X16998340Y-9114020D01*
X17001050Y-9096911D01*
X17001050Y-9079589D01*
X16998340Y-9062480D01*
X16992987Y-9046006D01*
X16985123Y-9030571D01*
X16974941Y-9016557D01*
X16962693Y-9004309D01*
X16948679Y-8994127D01*
X16933245Y-8986263D01*
X16921643Y-8982493D01*
X16915875Y-8978549D01*
X16913156Y-8972114D01*
X16914347Y-8965229D01*
X16919071Y-8960081D01*
X16925475Y-8958300D01*
X17110525Y-8958300D01*
X17117229Y-8960269D01*
X17121805Y-8965549D01*
X17122799Y-8972465D01*
X17119897Y-8978820D01*
X17114357Y-8982493D01*
X17107732Y-8984646D01*
X17102755Y-8986263D01*
X17087321Y-8994127D01*
X17082909Y-8997332D01*
X17073307Y-9004309D01*
X17073307Y-9004309D01*
X17073307Y-9004309D01*
X17061059Y-9016557D01*
X17061059Y-9016557D01*
X17061059Y-9016557D01*
X17058806Y-9019658D01*
X17050877Y-9030571D01*
X17043013Y-9046005D01*
X17037660Y-9062480D01*
X17035000Y-9079274D01*
X17034950Y-9079589D01*
X17034950Y-9096911D01*
X17037660Y-9114020D01*
X17043013Y-9130495D01*
X17050877Y-9145929D01*
X17061059Y-9159943D01*
X17073307Y-9172191D01*
X17087321Y-9182373D01*
X17102756Y-9190237D01*
X17119230Y-9195590D01*
X17136339Y-9198300D01*
X17136339Y-9198300D01*
X17153661Y-9198300D01*
X17153661Y-9198300D01*
X17170770Y-9195590D01*
X17187245Y-9190237D01*
X17202679Y-9182373D01*
X17216693Y-9172191D01*
X17228941Y-9159943D01*
X17239123Y-9145929D01*
X17246987Y-9130495D01*
X17252340Y-9114020D01*
X17255050Y-9096911D01*
X17255050Y-9079589D01*
X17252340Y-9062480D01*
X17246987Y-9046006D01*
X17239123Y-9030571D01*
X17228941Y-9016557D01*
X17216693Y-9004309D01*
X17202679Y-8994127D01*
X17187245Y-8986263D01*
X17175643Y-8982493D01*
X17169875Y-8978549D01*
X17167156Y-8972114D01*
X17168347Y-8965229D01*
X17173071Y-8960081D01*
X17179475Y-8958300D01*
X17364525Y-8958300D01*
X17371229Y-8960269D01*
X17375805Y-8965549D01*
X17376799Y-8972465D01*
X17373897Y-8978820D01*
X17368357Y-8982493D01*
X17361732Y-8984646D01*
X17356755Y-8986263D01*
X17341321Y-8994127D01*
X17336909Y-8997332D01*
X17327307Y-9004309D01*
X17327307Y-9004309D01*
X17327307Y-9004309D01*
X17315059Y-9016557D01*
X17315059Y-9016557D01*
X17315059Y-9016557D01*
X17312806Y-9019658D01*
X17304877Y-9030571D01*
X17297013Y-9046005D01*
X17291660Y-9062480D01*
X17289000Y-9079274D01*
X17288950Y-9079589D01*
X17288950Y-9096911D01*
X17291660Y-9114020D01*
X17297013Y-9130495D01*
X17304877Y-9145929D01*
X17315059Y-9159943D01*
X17327307Y-9172191D01*
X17341321Y-9182373D01*
X17356756Y-9190237D01*
X17373230Y-9195590D01*
X17390339Y-9198300D01*
X17390339Y-9198300D01*
X17407661Y-9198300D01*
X17407661Y-9198300D01*
X17424770Y-9195590D01*
X17441245Y-9190237D01*
X17456679Y-9182373D01*
X17470693Y-9172191D01*
X17482941Y-9159943D01*
X17493123Y-9145929D01*
X17500987Y-9130495D01*
X17506340Y-9114020D01*
X17509050Y-9096911D01*
X17509050Y-9079589D01*
X17506340Y-9062480D01*
X17500987Y-9046006D01*
X17493123Y-9030571D01*
X17482941Y-9016557D01*
X17470693Y-9004309D01*
X17456679Y-8994127D01*
X17441245Y-8986263D01*
X17429643Y-8982493D01*
X17423875Y-8978549D01*
X17421156Y-8972114D01*
X17422347Y-8965229D01*
X17427071Y-8960081D01*
X17433475Y-8958300D01*
X17618525Y-8958300D01*
X17625229Y-8960269D01*
X17629805Y-8965549D01*
X17630799Y-8972465D01*
X17627897Y-8978820D01*
X17622357Y-8982493D01*
X17615732Y-8984646D01*
X17610755Y-8986263D01*
X17595321Y-8994127D01*
X17590909Y-8997332D01*
X17581307Y-9004309D01*
X17581307Y-9004309D01*
X17581307Y-9004309D01*
X17569059Y-9016557D01*
X17569059Y-9016557D01*
X17569059Y-9016557D01*
X17566806Y-9019658D01*
X17558877Y-9030571D01*
X17551013Y-9046005D01*
X17545660Y-9062480D01*
X17543000Y-9079274D01*
X17542950Y-9079589D01*
X17542950Y-9096911D01*
X17545660Y-9114020D01*
X17551013Y-9130495D01*
X17558877Y-9145929D01*
X17569059Y-9159943D01*
X17581307Y-9172191D01*
X17595321Y-9182373D01*
X17610756Y-9190237D01*
X17627230Y-9195590D01*
X17644339Y-9198300D01*
X17644339Y-9198300D01*
X17661661Y-9198300D01*
X17661661Y-9198300D01*
X17678770Y-9195590D01*
X17695245Y-9190237D01*
X17710679Y-9182373D01*
X17724693Y-9172191D01*
X17736941Y-9159943D01*
X17747123Y-9145929D01*
X17754987Y-9130495D01*
X17760340Y-9114020D01*
X17763050Y-9096911D01*
X17763050Y-9079589D01*
X17760340Y-9062480D01*
X17754987Y-9046006D01*
X17747123Y-9030571D01*
X17736941Y-9016557D01*
X17724693Y-9004309D01*
X17710679Y-8994127D01*
X17695245Y-8986263D01*
X17683643Y-8982493D01*
X17677875Y-8978549D01*
X17675156Y-8972114D01*
X17676347Y-8965229D01*
X17681071Y-8960081D01*
X17687475Y-8958300D01*
X17872525Y-8958300D01*
X17879229Y-8960269D01*
X17883805Y-8965549D01*
X17884799Y-8972465D01*
X17881897Y-8978820D01*
X17876357Y-8982493D01*
X17869732Y-8984646D01*
X17864755Y-8986263D01*
X17849321Y-8994127D01*
X17844909Y-8997332D01*
X17835307Y-9004309D01*
X17835307Y-9004309D01*
X17835307Y-9004309D01*
X17823059Y-9016557D01*
X17823059Y-9016557D01*
X17823059Y-9016557D01*
X17820806Y-9019658D01*
X17812877Y-9030571D01*
X17805013Y-9046005D01*
X17799660Y-9062480D01*
X17797000Y-9079274D01*
X17796950Y-9079589D01*
X17796950Y-9096911D01*
X17799660Y-9114020D01*
X17805013Y-9130495D01*
X17812877Y-9145929D01*
X17823059Y-9159943D01*
X17835307Y-9172191D01*
X17849321Y-9182373D01*
X17864756Y-9190237D01*
X17881230Y-9195590D01*
X17898339Y-9198300D01*
X17898339Y-9198300D01*
X17915661Y-9198300D01*
X17915661Y-9198300D01*
X17932770Y-9195590D01*
X17949245Y-9190237D01*
X17964679Y-9182373D01*
X17978693Y-9172191D01*
X17990941Y-9159943D01*
X18001123Y-9145929D01*
X18008987Y-9130495D01*
X18014340Y-9114020D01*
X18017050Y-9096911D01*
X18017050Y-9079589D01*
X18014340Y-9062480D01*
X18008987Y-9046006D01*
X18001123Y-9030571D01*
X17990941Y-9016557D01*
X17978693Y-9004309D01*
X17964679Y-8994127D01*
X17949245Y-8986263D01*
X17937643Y-8982493D01*
X17931875Y-8978549D01*
X17929156Y-8972114D01*
X17930347Y-8965229D01*
X17935071Y-8960081D01*
X17941475Y-8958300D01*
X18113581Y-8958300D01*
X18120285Y-8960269D01*
X18124860Y-8965549D01*
X18125855Y-8972465D01*
X18122952Y-8978820D01*
X18117655Y-8982332D01*
X18117670Y-8982369D01*
X18117482Y-8982447D01*
X18117412Y-8982493D01*
X18117220Y-8982556D01*
X18101224Y-8990706D01*
X18086702Y-9001257D01*
X18074007Y-9013952D01*
X18063456Y-9028474D01*
X18055306Y-9044470D01*
X18049758Y-9061543D01*
X18046950Y-9079274D01*
X18046950Y-9097226D01*
X18049758Y-9114957D01*
X18055306Y-9132030D01*
X18055306Y-9132030D01*
X18062388Y-9145929D01*
X18063456Y-9148026D01*
X18074007Y-9162548D01*
X18086702Y-9175243D01*
X18100019Y-9184918D01*
X18101225Y-9185794D01*
X18116288Y-9193470D01*
X18117220Y-9193944D01*
X18125757Y-9196718D01*
X18134293Y-9199492D01*
X18152024Y-9202300D01*
X18152024Y-9202300D01*
X18169976Y-9202300D01*
X18169976Y-9202300D01*
X18187707Y-9199492D01*
X18204780Y-9193944D01*
X18220775Y-9185794D01*
X18233040Y-9176883D01*
X18235298Y-9175243D01*
X18235298Y-9175243D01*
X18235299Y-9175243D01*
X18247993Y-9162549D01*
X18247993Y-9162548D01*
X18247993Y-9162548D01*
X18252620Y-9156179D01*
X18258544Y-9148025D01*
X18266694Y-9132030D01*
X18266757Y-9131838D01*
X18266801Y-9131774D01*
X18266881Y-9131580D01*
X18266922Y-9131597D01*
X18270700Y-9126070D01*
X18277136Y-9123350D01*
X18284021Y-9124541D01*
X18289169Y-9129266D01*
X18290950Y-9135669D01*
X18290950Y-10564831D01*
X18288982Y-10571535D01*
X18283701Y-10576110D01*
X18276785Y-10577104D01*
X18270430Y-10574202D01*
X18266918Y-10568905D01*
X18266881Y-10568920D01*
X18266803Y-10568732D01*
X18266757Y-10568663D01*
X18266695Y-10568470D01*
X18263545Y-10562290D01*
X18258544Y-10552475D01*
X18257866Y-10551542D01*
X18247993Y-10537952D01*
X18235298Y-10525257D01*
X18220776Y-10514706D01*
X18220775Y-10514706D01*
X18220775Y-10514706D01*
X18212055Y-10510263D01*
X18204780Y-10506556D01*
X18187707Y-10501008D01*
X18178841Y-10499604D01*
X18169976Y-10498200D01*
X18152024Y-10498200D01*
X18151144Y-10498339D01*
X18134293Y-10501008D01*
X18117220Y-10506556D01*
X18101224Y-10514706D01*
X18086702Y-10525257D01*
X18074007Y-10537952D01*
X18063456Y-10552474D01*
X18055306Y-10568470D01*
X18049758Y-10585543D01*
X18046950Y-10603274D01*
X18046950Y-10621226D01*
X18049758Y-10638957D01*
X18055306Y-10656030D01*
X18058286Y-10661878D01*
X18062388Y-10669929D01*
X18063456Y-10672026D01*
X18074007Y-10686548D01*
X18086702Y-10699243D01*
X18096516Y-10706373D01*
X18101225Y-10709794D01*
X18111265Y-10714910D01*
X18117220Y-10717944D01*
X18117412Y-10718007D01*
X18117476Y-10718051D01*
X18117670Y-10718131D01*
X18117653Y-10718172D01*
X18123180Y-10721950D01*
X18125900Y-10728386D01*
X18124709Y-10735271D01*
X18119984Y-10740419D01*
X18113581Y-10742200D01*
X17941475Y-10742200D01*
X17934771Y-10740232D01*
X17930195Y-10734951D01*
X17929201Y-10728035D01*
X17932103Y-10721680D01*
X17937643Y-10718007D01*
X17949245Y-10714237D01*
X17964679Y-10706373D01*
X17978693Y-10696191D01*
X17990941Y-10683943D01*
X18001123Y-10669929D01*
X18008987Y-10654495D01*
X18014340Y-10638020D01*
X18017050Y-10620911D01*
X18017050Y-10603589D01*
X18014340Y-10586480D01*
X18008987Y-10570006D01*
X18001123Y-10554571D01*
X17990941Y-10540557D01*
X17978693Y-10528309D01*
X17964679Y-10518127D01*
X17949245Y-10510263D01*
X17932770Y-10504910D01*
X17932770Y-10504910D01*
X17932770Y-10504910D01*
X17919627Y-10502828D01*
X17915661Y-10502200D01*
X17898339Y-10502200D01*
X17894373Y-10502828D01*
X17881230Y-10504910D01*
X17864755Y-10510263D01*
X17849321Y-10518127D01*
X17846423Y-10520233D01*
X17835307Y-10528309D01*
X17835307Y-10528309D01*
X17835307Y-10528309D01*
X17823059Y-10540557D01*
X17823059Y-10540557D01*
X17823059Y-10540557D01*
X17818686Y-10546576D01*
X17812877Y-10554571D01*
X17805013Y-10570005D01*
X17805013Y-10570005D01*
X17805013Y-10570006D01*
X17803079Y-10575958D01*
X17799660Y-10586480D01*
X17799660Y-10586480D01*
X17796950Y-10603589D01*
X17796950Y-10620911D01*
X17799660Y-10638020D01*
X17805013Y-10654495D01*
X17812877Y-10669929D01*
X17823059Y-10683943D01*
X17835307Y-10696191D01*
X17849321Y-10706373D01*
X17864756Y-10714237D01*
X17876357Y-10718007D01*
X17882125Y-10721951D01*
X17884845Y-10728387D01*
X17883653Y-10735271D01*
X17878929Y-10740419D01*
X17872525Y-10742200D01*
X17687475Y-10742200D01*
X17680771Y-10740232D01*
X17676195Y-10734951D01*
X17675201Y-10728035D01*
X17678103Y-10721680D01*
X17683643Y-10718007D01*
X17695245Y-10714237D01*
X17710679Y-10706373D01*
X17724693Y-10696191D01*
X17736941Y-10683943D01*
X17747123Y-10669929D01*
X17754987Y-10654495D01*
X17760340Y-10638020D01*
X17763050Y-10620911D01*
X17763050Y-10603589D01*
X17760340Y-10586480D01*
X17754987Y-10570006D01*
X17747123Y-10554571D01*
X17736941Y-10540557D01*
X17724693Y-10528309D01*
X17710679Y-10518127D01*
X17695245Y-10510263D01*
X17678770Y-10504910D01*
X17678770Y-10504910D01*
X17678770Y-10504910D01*
X17665627Y-10502828D01*
X17661661Y-10502200D01*
X17644339Y-10502200D01*
X17640373Y-10502828D01*
X17627230Y-10504910D01*
X17610755Y-10510263D01*
X17595321Y-10518127D01*
X17592423Y-10520233D01*
X17581307Y-10528309D01*
X17581307Y-10528309D01*
X17581307Y-10528309D01*
X17569059Y-10540557D01*
X17569059Y-10540557D01*
X17569059Y-10540557D01*
X17564686Y-10546576D01*
X17558877Y-10554571D01*
X17551013Y-10570005D01*
X17551013Y-10570005D01*
X17551013Y-10570006D01*
X17549079Y-10575958D01*
X17545660Y-10586480D01*
X17545660Y-10586480D01*
X17542950Y-10603589D01*
X17542950Y-10620911D01*
X17545660Y-10638020D01*
X17551013Y-10654495D01*
X17558877Y-10669929D01*
X17569059Y-10683943D01*
X17581307Y-10696191D01*
X17595321Y-10706373D01*
X17610756Y-10714237D01*
X17622357Y-10718007D01*
X17628125Y-10721951D01*
X17630845Y-10728387D01*
X17629653Y-10735271D01*
X17624929Y-10740419D01*
X17618525Y-10742200D01*
X17433475Y-10742200D01*
X17426771Y-10740232D01*
X17422195Y-10734951D01*
X17421201Y-10728035D01*
X17424103Y-10721680D01*
X17429643Y-10718007D01*
X17441245Y-10714237D01*
X17456679Y-10706373D01*
X17470693Y-10696191D01*
X17482941Y-10683943D01*
X17493123Y-10669929D01*
X17500987Y-10654495D01*
X17506340Y-10638020D01*
X17509050Y-10620911D01*
X17509050Y-10603589D01*
X17506340Y-10586480D01*
X17500987Y-10570006D01*
X17493123Y-10554571D01*
X17482941Y-10540557D01*
X17470693Y-10528309D01*
X17456679Y-10518127D01*
X17441245Y-10510263D01*
X17424770Y-10504910D01*
X17424770Y-10504910D01*
X17424770Y-10504910D01*
X17411627Y-10502828D01*
X17407661Y-10502200D01*
X17390339Y-10502200D01*
X17386373Y-10502828D01*
X17373230Y-10504910D01*
X17356755Y-10510263D01*
X17341321Y-10518127D01*
X17338423Y-10520233D01*
X17327307Y-10528309D01*
X17327307Y-10528309D01*
X17327307Y-10528309D01*
X17315059Y-10540557D01*
X17315059Y-10540557D01*
X17315059Y-10540557D01*
X17310686Y-10546576D01*
X17304877Y-10554571D01*
X17297013Y-10570005D01*
X17297013Y-10570005D01*
X17297013Y-10570006D01*
X17295079Y-10575958D01*
X17291660Y-10586480D01*
X17291660Y-10586480D01*
X17288950Y-10603589D01*
X17288950Y-10620911D01*
X17291660Y-10638020D01*
X17297013Y-10654495D01*
X17304877Y-10669929D01*
X17315059Y-10683943D01*
X17327307Y-10696191D01*
X17341321Y-10706373D01*
X17356756Y-10714237D01*
X17368357Y-10718007D01*
X17374125Y-10721951D01*
X17376845Y-10728387D01*
X17375653Y-10735271D01*
X17370929Y-10740419D01*
X17364525Y-10742200D01*
X16925475Y-10742200D01*
X16918771Y-10740232D01*
X16914195Y-10734951D01*
X16913201Y-10728035D01*
X16916103Y-10721680D01*
X16921643Y-10718007D01*
X16933245Y-10714237D01*
X16948679Y-10706373D01*
X16962693Y-10696191D01*
X16974941Y-10683943D01*
X16985123Y-10669929D01*
X16992987Y-10654495D01*
X16998340Y-10638020D01*
X17001050Y-10620911D01*
X17001050Y-10603589D01*
X16998340Y-10586480D01*
X16992987Y-10570006D01*
X16985123Y-10554571D01*
X16974941Y-10540557D01*
X16962693Y-10528309D01*
X16951404Y-10520107D01*
X16948679Y-10518127D01*
X16937821Y-10512594D01*
X16932741Y-10507797D01*
X16931050Y-10501546D01*
X16931050Y-10441314D01*
X16933019Y-10434610D01*
X16938299Y-10430035D01*
X16945215Y-10429040D01*
X16948135Y-10429841D01*
X16948193Y-10429857D01*
X16948193Y-10429857D01*
X16962194Y-10433609D01*
X16962194Y-10433609D01*
X16976689Y-10433609D01*
X16976689Y-10433609D01*
X16990690Y-10429857D01*
X17003243Y-10422609D01*
X17013492Y-10412360D01*
X17018566Y-10403573D01*
X17023623Y-10398751D01*
X17030483Y-10397429D01*
X17036970Y-10400026D01*
X17040043Y-10403572D01*
X17045949Y-10413802D01*
X17056199Y-10424051D01*
X17056199Y-10424051D01*
X17056199Y-10424051D01*
X17068751Y-10431298D01*
X17068751Y-10431298D01*
X17068752Y-10431298D01*
X17082753Y-10435050D01*
X17082753Y-10435050D01*
X17097247Y-10435050D01*
X17097248Y-10435050D01*
X17111249Y-10431298D01*
X17123802Y-10424051D01*
X17134051Y-10413802D01*
X17134261Y-10413437D01*
X17134519Y-10413191D01*
X17134546Y-10413157D01*
X17134551Y-10413161D01*
X17139318Y-10408616D01*
X17146178Y-10407293D01*
X17152665Y-10409890D01*
X17155739Y-10413437D01*
X17155949Y-10413802D01*
X17166199Y-10424051D01*
X17166199Y-10424051D01*
X17166199Y-10424051D01*
X17178751Y-10431298D01*
X17178751Y-10431298D01*
X17178752Y-10431298D01*
X17192753Y-10435050D01*
X17192753Y-10435050D01*
X17207247Y-10435050D01*
X17207248Y-10435050D01*
X17221249Y-10431298D01*
X17233802Y-10424051D01*
X17244051Y-10413802D01*
X17251298Y-10401249D01*
X17255050Y-10387248D01*
X17255050Y-10372753D01*
X17251298Y-10358752D01*
X17251172Y-10358533D01*
X17244051Y-10346199D01*
X17244051Y-10346198D01*
X17233802Y-10335949D01*
X17233801Y-10335949D01*
X17221249Y-10328702D01*
X17221249Y-10328702D01*
X17220101Y-10328394D01*
X17207248Y-10324950D01*
X17192753Y-10324950D01*
X17179899Y-10328394D01*
X17178751Y-10328702D01*
X17166199Y-10335949D01*
X17166198Y-10335949D01*
X17155949Y-10346198D01*
X17155949Y-10346199D01*
X17155739Y-10346563D01*
X17155481Y-10346809D01*
X17155454Y-10346843D01*
X17155449Y-10346839D01*
X17150682Y-10351385D01*
X17143821Y-10352707D01*
X17137335Y-10350110D01*
X17134261Y-10346563D01*
X17134051Y-10346199D01*
X17134051Y-10346199D01*
X17134051Y-10346199D01*
X17123802Y-10335949D01*
X17123801Y-10335949D01*
X17123801Y-10335949D01*
X17111249Y-10328702D01*
X17111249Y-10328702D01*
X17110101Y-10328394D01*
X17097248Y-10324950D01*
X17082753Y-10324950D01*
X17069899Y-10328394D01*
X17068751Y-10328702D01*
X17056199Y-10335949D01*
X17056198Y-10335949D01*
X17045949Y-10346198D01*
X17045949Y-10346199D01*
X17040875Y-10354986D01*
X17035819Y-10359808D01*
X17028958Y-10361130D01*
X17022472Y-10358533D01*
X17019398Y-10354986D01*
X17015798Y-10348751D01*
X17013492Y-10344757D01*
X17003243Y-10334508D01*
X17003243Y-10334508D01*
X17003243Y-10334507D01*
X16990690Y-10327260D01*
X16990690Y-10327260D01*
X16989542Y-10326953D01*
X16976689Y-10323509D01*
X16962194Y-10323509D01*
X16949341Y-10326953D01*
X16948193Y-10327260D01*
X16935640Y-10334507D01*
X16927162Y-10342986D01*
X16921029Y-10346335D01*
X16914060Y-10345836D01*
X16909625Y-10342986D01*
X16766392Y-10199753D01*
X17091950Y-10199753D01*
X17091950Y-10214248D01*
X17095702Y-10228249D01*
X17095702Y-10228249D01*
X17102949Y-10240801D01*
X17102949Y-10240801D01*
X17102949Y-10240802D01*
X17113199Y-10251051D01*
X17113199Y-10251051D01*
X17113199Y-10251051D01*
X17125751Y-10258298D01*
X17125751Y-10258298D01*
X17125752Y-10258298D01*
X17139753Y-10262050D01*
X17139753Y-10262050D01*
X17154247Y-10262050D01*
X17154248Y-10262050D01*
X17168249Y-10258298D01*
X17180802Y-10251051D01*
X17191051Y-10240802D01*
X17191973Y-10239205D01*
X17197029Y-10234384D01*
X17203890Y-10233061D01*
X17210376Y-10235658D01*
X17213450Y-10239205D01*
X17214949Y-10241802D01*
X17225199Y-10252051D01*
X17225199Y-10252051D01*
X17225199Y-10252051D01*
X17237751Y-10259298D01*
X17237751Y-10259298D01*
X17237752Y-10259298D01*
X17251753Y-10263050D01*
X17251753Y-10263050D01*
X17266247Y-10263050D01*
X17266248Y-10263050D01*
X17280249Y-10259298D01*
X17292802Y-10252051D01*
X17303051Y-10241802D01*
X17308184Y-10232911D01*
X17313241Y-10228089D01*
X17320101Y-10226767D01*
X17326588Y-10229364D01*
X17329661Y-10232911D01*
X17335949Y-10243802D01*
X17346199Y-10254051D01*
X17346199Y-10254051D01*
X17346199Y-10254051D01*
X17358751Y-10261298D01*
X17358751Y-10261298D01*
X17358752Y-10261298D01*
X17372753Y-10265050D01*
X17372753Y-10265050D01*
X17387247Y-10265050D01*
X17387248Y-10265050D01*
X17401249Y-10261298D01*
X17413802Y-10254051D01*
X17424051Y-10243802D01*
X17431298Y-10231249D01*
X17435050Y-10217248D01*
X17435050Y-10202753D01*
X17431298Y-10188752D01*
X17429824Y-10186199D01*
X17424051Y-10176199D01*
X17424051Y-10176198D01*
X17413802Y-10165949D01*
X17413801Y-10165949D01*
X17401249Y-10158702D01*
X17401249Y-10158702D01*
X17400101Y-10158394D01*
X17387248Y-10154950D01*
X17372753Y-10154950D01*
X17359899Y-10158394D01*
X17358751Y-10158702D01*
X17346199Y-10165949D01*
X17346198Y-10165949D01*
X17335949Y-10176198D01*
X17335949Y-10176199D01*
X17330816Y-10185089D01*
X17325759Y-10189911D01*
X17318898Y-10191233D01*
X17312412Y-10188636D01*
X17309339Y-10185089D01*
X17303051Y-10174199D01*
X17303051Y-10174198D01*
X17292802Y-10163949D01*
X17292801Y-10163949D01*
X17280249Y-10156702D01*
X17280249Y-10156702D01*
X17279101Y-10156394D01*
X17266248Y-10152950D01*
X17251753Y-10152950D01*
X17238899Y-10156394D01*
X17237751Y-10156702D01*
X17225199Y-10163949D01*
X17225198Y-10163949D01*
X17214949Y-10174198D01*
X17214949Y-10174199D01*
X17214027Y-10175795D01*
X17208970Y-10180617D01*
X17202109Y-10181939D01*
X17195623Y-10179342D01*
X17192550Y-10175795D01*
X17191051Y-10173199D01*
X17180802Y-10162949D01*
X17180801Y-10162949D01*
X17180801Y-10162949D01*
X17168249Y-10155702D01*
X17168249Y-10155702D01*
X17167101Y-10155394D01*
X17154248Y-10151950D01*
X17139753Y-10151950D01*
X17126899Y-10155394D01*
X17125751Y-10155702D01*
X17113199Y-10162949D01*
X17113198Y-10162949D01*
X17102949Y-10173198D01*
X17102949Y-10173199D01*
X17095702Y-10185751D01*
X17095702Y-10185752D01*
X17091950Y-10199753D01*
X16766392Y-10199753D01*
X16668682Y-10102043D01*
X16665333Y-10095910D01*
X16665050Y-10093275D01*
X16665050Y-10092753D01*
X16665050Y-10092753D01*
X16661298Y-10078752D01*
X16660835Y-10077949D01*
X16654051Y-10066199D01*
X16654051Y-10066198D01*
X16643802Y-10055949D01*
X16643801Y-10055949D01*
X16631249Y-10048702D01*
X16631248Y-10048702D01*
X16624514Y-10046897D01*
X16618548Y-10043261D01*
X16615495Y-10036976D01*
X16616325Y-10030038D01*
X16616985Y-10028720D01*
X16618450Y-10026182D01*
X16621298Y-10021249D01*
X16625050Y-10007248D01*
X16625050Y-9992753D01*
X16621298Y-9978752D01*
X16616388Y-9970247D01*
X16614051Y-9966199D01*
X16614051Y-9966198D01*
X16603802Y-9955949D01*
X16603801Y-9955949D01*
X16591249Y-9948702D01*
X16591249Y-9948702D01*
X16590101Y-9948394D01*
X16577247Y-9944950D01*
X16562752Y-9944950D01*
X16549899Y-9948394D01*
X16548751Y-9948702D01*
X16536199Y-9955949D01*
X16536198Y-9955949D01*
X16525949Y-9966198D01*
X16525949Y-9966199D01*
X16518702Y-9978751D01*
X16518702Y-9978752D01*
X16514950Y-9992753D01*
X16514950Y-10007248D01*
X16518273Y-10019650D01*
X16518702Y-10021249D01*
X16525949Y-10033801D01*
X16525949Y-10033801D01*
X16525949Y-10033802D01*
X16536198Y-10044051D01*
X16536199Y-10044051D01*
X16536199Y-10044051D01*
X16548751Y-10051298D01*
X16548751Y-10051298D01*
X16548751Y-10051298D01*
X16555486Y-10053103D01*
X16561452Y-10056739D01*
X16564505Y-10063024D01*
X16563675Y-10069962D01*
X16563015Y-10071280D01*
X16558702Y-10078751D01*
X16558702Y-10078752D01*
X16554950Y-10092753D01*
X16554950Y-10107248D01*
X16558702Y-10121249D01*
X16558702Y-10121249D01*
X16565949Y-10133801D01*
X16565949Y-10133801D01*
X16565949Y-10133802D01*
X16576198Y-10144051D01*
X16576199Y-10144051D01*
X16576199Y-10144051D01*
X16588751Y-10151298D01*
X16588751Y-10151298D01*
X16588751Y-10151298D01*
X16602752Y-10155050D01*
X16603274Y-10155050D01*
X16609978Y-10157019D01*
X16612043Y-10158682D01*
X16847318Y-10393957D01*
X16850667Y-10400090D01*
X16850950Y-10402726D01*
X16850950Y-10501546D01*
X16848982Y-10508250D01*
X16844179Y-10512594D01*
X16833321Y-10518127D01*
X16823517Y-10525250D01*
X16819307Y-10528309D01*
X16819307Y-10528309D01*
X16819307Y-10528309D01*
X16807059Y-10540557D01*
X16807059Y-10540557D01*
X16807059Y-10540557D01*
X16802686Y-10546576D01*
X16796877Y-10554571D01*
X16789013Y-10570005D01*
X16789013Y-10570005D01*
X16789013Y-10570006D01*
X16787079Y-10575958D01*
X16783660Y-10586480D01*
X16783660Y-10586480D01*
X16780950Y-10603589D01*
X16780950Y-10620911D01*
X16783660Y-10638020D01*
X16789013Y-10654495D01*
X16796877Y-10669929D01*
X16807059Y-10683943D01*
X16819307Y-10696191D01*
X16833321Y-10706373D01*
X16848756Y-10714237D01*
X16860357Y-10718007D01*
X16866125Y-10721951D01*
X16868845Y-10728387D01*
X16867653Y-10735271D01*
X16862929Y-10740419D01*
X16856525Y-10742200D01*
X16671475Y-10742200D01*
X16664771Y-10740232D01*
X16660195Y-10734951D01*
X16659201Y-10728035D01*
X16662103Y-10721680D01*
X16667643Y-10718007D01*
X16679244Y-10714237D01*
X16694679Y-10706373D01*
X16708693Y-10696191D01*
X16720941Y-10683943D01*
X16731123Y-10669929D01*
X16738987Y-10654495D01*
X16744340Y-10638020D01*
X16747050Y-10620911D01*
X16747050Y-10603589D01*
X16744340Y-10586480D01*
X16738987Y-10570006D01*
X16731123Y-10554571D01*
X16720941Y-10540557D01*
X16708693Y-10528309D01*
X16694679Y-10518127D01*
X16679244Y-10510263D01*
X16662770Y-10504910D01*
X16662770Y-10504910D01*
X16662770Y-10504910D01*
X16649627Y-10502828D01*
X16645661Y-10502200D01*
X16628339Y-10502200D01*
X16624373Y-10502828D01*
X16611230Y-10504910D01*
X16594755Y-10510263D01*
X16579321Y-10518127D01*
X16576422Y-10520233D01*
X16565307Y-10528309D01*
X16565307Y-10528309D01*
X16565307Y-10528309D01*
X16553059Y-10540557D01*
X16553059Y-10540557D01*
X16553059Y-10540557D01*
X16548686Y-10546576D01*
X16542877Y-10554571D01*
X16535013Y-10570005D01*
X16535013Y-10570005D01*
X16535013Y-10570006D01*
X16533078Y-10575958D01*
X16529660Y-10586480D01*
X16529660Y-10586480D01*
X16526950Y-10603589D01*
X16526950Y-10620911D01*
X16529660Y-10638020D01*
X16535013Y-10654495D01*
X16542877Y-10669929D01*
X16553059Y-10683943D01*
X16565307Y-10696191D01*
X16579321Y-10706373D01*
X16594755Y-10714237D01*
X16606357Y-10718007D01*
X16612125Y-10721951D01*
X16614844Y-10728387D01*
X16613653Y-10735271D01*
X16608929Y-10740419D01*
X16602525Y-10742200D01*
X16417475Y-10742200D01*
X16410771Y-10740232D01*
X16406195Y-10734951D01*
X16405201Y-10728035D01*
X16408103Y-10721680D01*
X16413643Y-10718007D01*
X16425244Y-10714237D01*
X16440679Y-10706373D01*
X16454693Y-10696191D01*
X16466941Y-10683943D01*
X16477123Y-10669929D01*
X16484987Y-10654495D01*
X16490340Y-10638020D01*
X16493050Y-10620911D01*
X16493050Y-10603589D01*
X16490340Y-10586480D01*
X16484987Y-10570006D01*
X16477123Y-10554571D01*
X16466941Y-10540557D01*
X16454693Y-10528309D01*
X16440679Y-10518127D01*
X16425244Y-10510263D01*
X16408770Y-10504910D01*
X16408770Y-10504910D01*
X16408770Y-10504910D01*
X16395627Y-10502828D01*
X16391661Y-10502200D01*
X16374339Y-10502200D01*
X16370373Y-10502828D01*
X16357230Y-10504910D01*
X16340755Y-10510263D01*
X16325321Y-10518127D01*
X16322422Y-10520233D01*
X16311307Y-10528309D01*
X16311307Y-10528309D01*
X16311307Y-10528309D01*
X16299059Y-10540557D01*
X16299059Y-10540557D01*
X16299059Y-10540557D01*
X16294686Y-10546576D01*
X16288877Y-10554571D01*
X16281013Y-10570005D01*
X16281013Y-10570005D01*
X16281013Y-10570006D01*
X16279078Y-10575958D01*
X16275660Y-10586480D01*
X16275660Y-10586480D01*
X16272950Y-10603589D01*
X16272950Y-10620911D01*
X16275660Y-10638020D01*
X16281013Y-10654495D01*
X16288877Y-10669929D01*
X16299059Y-10683943D01*
X16311307Y-10696191D01*
X16325321Y-10706373D01*
X16340755Y-10714237D01*
X16352357Y-10718007D01*
X16358125Y-10721951D01*
X16360844Y-10728387D01*
X16359653Y-10735271D01*
X16354929Y-10740419D01*
X16348525Y-10742200D01*
X16163475Y-10742200D01*
X16156771Y-10740232D01*
X16152195Y-10734951D01*
X16151201Y-10728035D01*
X16154103Y-10721680D01*
X16159643Y-10718007D01*
X16171244Y-10714237D01*
X16186679Y-10706373D01*
X16200693Y-10696191D01*
X16212941Y-10683943D01*
X16223123Y-10669929D01*
X16230987Y-10654495D01*
X16236340Y-10638020D01*
X16239050Y-10620911D01*
X16239050Y-10603589D01*
X16236340Y-10586480D01*
X16230987Y-10570006D01*
X16223123Y-10554571D01*
X16212941Y-10540557D01*
X16200693Y-10528309D01*
X16186679Y-10518127D01*
X16171244Y-10510263D01*
X16154770Y-10504910D01*
X16154770Y-10504910D01*
X16154770Y-10504910D01*
X16141627Y-10502828D01*
X16137661Y-10502200D01*
X16120339Y-10502200D01*
X16116373Y-10502828D01*
X16103230Y-10504910D01*
X16086755Y-10510263D01*
X16071321Y-10518127D01*
X16068422Y-10520233D01*
X16057307Y-10528309D01*
X16057307Y-10528309D01*
X16057307Y-10528309D01*
X16045059Y-10540557D01*
X16045059Y-10540557D01*
X16045059Y-10540557D01*
X16040686Y-10546576D01*
X16034877Y-10554571D01*
X16027013Y-10570005D01*
X16027013Y-10570005D01*
X16027013Y-10570006D01*
X16025078Y-10575958D01*
X16021660Y-10586480D01*
X16021660Y-10586480D01*
X16018950Y-10603589D01*
X16018950Y-10620911D01*
X16021660Y-10638020D01*
X16027013Y-10654495D01*
X16034877Y-10669929D01*
X16045059Y-10683943D01*
X16057307Y-10696191D01*
X16071321Y-10706373D01*
X16086755Y-10714237D01*
X16098357Y-10718007D01*
X16104125Y-10721951D01*
X16106844Y-10728387D01*
X16105653Y-10735271D01*
X16100929Y-10740419D01*
X16094525Y-10742200D01*
X15909475Y-10742200D01*
X15902771Y-10740232D01*
X15898195Y-10734951D01*
X15897201Y-10728035D01*
X15900103Y-10721680D01*
X15905643Y-10718007D01*
X15917244Y-10714237D01*
X15932679Y-10706373D01*
X15946693Y-10696191D01*
X15958941Y-10683943D01*
X15969123Y-10669929D01*
X15976987Y-10654495D01*
X15982340Y-10638020D01*
X15985050Y-10620911D01*
X15985050Y-10603589D01*
X15982340Y-10586480D01*
X15976987Y-10570006D01*
X15969123Y-10554571D01*
X15958941Y-10540557D01*
X15946693Y-10528309D01*
X15932679Y-10518127D01*
X15917244Y-10510263D01*
X15900770Y-10504910D01*
X15900770Y-10504910D01*
X15900770Y-10504910D01*
X15887627Y-10502828D01*
X15883661Y-10502200D01*
X15866339Y-10502200D01*
X15862373Y-10502828D01*
X15849230Y-10504910D01*
X15832755Y-10510263D01*
X15817321Y-10518127D01*
X15814422Y-10520233D01*
X15803307Y-10528309D01*
X15803307Y-10528309D01*
X15803307Y-10528309D01*
X15791059Y-10540557D01*
X15791059Y-10540557D01*
X15791059Y-10540557D01*
X15786686Y-10546576D01*
X15780877Y-10554571D01*
X15773013Y-10570005D01*
X15773013Y-10570005D01*
X15773013Y-10570006D01*
X15771078Y-10575958D01*
X15767660Y-10586480D01*
X15767660Y-10586480D01*
X15764950Y-10603589D01*
X15764950Y-10620911D01*
X15767660Y-10638020D01*
X15773013Y-10654495D01*
X15780877Y-10669929D01*
X15791059Y-10683943D01*
X15803307Y-10696191D01*
X15817321Y-10706373D01*
X15832755Y-10714237D01*
X15844357Y-10718007D01*
X15850125Y-10721951D01*
X15852844Y-10728387D01*
X15851653Y-10735271D01*
X15846929Y-10740419D01*
X15840525Y-10742200D01*
X15655475Y-10742200D01*
X15648771Y-10740232D01*
X15644195Y-10734951D01*
X15643201Y-10728035D01*
X15646103Y-10721680D01*
X15651643Y-10718007D01*
X15663244Y-10714237D01*
X15678679Y-10706373D01*
X15692693Y-10696191D01*
X15704941Y-10683943D01*
X15715123Y-10669929D01*
X15722987Y-10654495D01*
X15728340Y-10638020D01*
X15731050Y-10620911D01*
X15731050Y-10603589D01*
X15728340Y-10586480D01*
X15722987Y-10570006D01*
X15715123Y-10554571D01*
X15704941Y-10540557D01*
X15692693Y-10528309D01*
X15678679Y-10518127D01*
X15663244Y-10510263D01*
X15646770Y-10504910D01*
X15646770Y-10504910D01*
X15646770Y-10504910D01*
X15633627Y-10502828D01*
X15629661Y-10502200D01*
X15612339Y-10502200D01*
X15608373Y-10502828D01*
X15595230Y-10504910D01*
X15578755Y-10510263D01*
X15563321Y-10518127D01*
X15555635Y-10523711D01*
X15549055Y-10526059D01*
X15542249Y-10524476D01*
X15537952Y-10520220D01*
X15537935Y-10520233D01*
X15537838Y-10520107D01*
X15537608Y-10519879D01*
X15537440Y-10519588D01*
X15527191Y-10509339D01*
X15527191Y-10509338D01*
X15527190Y-10509338D01*
X15514638Y-10502091D01*
X15514638Y-10502091D01*
X15512603Y-10501546D01*
X15500637Y-10498339D01*
X15486142Y-10498339D01*
X15474176Y-10501546D01*
X15472140Y-10502091D01*
X15459588Y-10509338D01*
X15459588Y-10509338D01*
X15449338Y-10519588D01*
X15448844Y-10520232D01*
X15448656Y-10520089D01*
X15444472Y-10524077D01*
X15437611Y-10525397D01*
X15431504Y-10523086D01*
X15424679Y-10518127D01*
X15424679Y-10518127D01*
X15424679Y-10518127D01*
X15409244Y-10510263D01*
X15392770Y-10504910D01*
X15392770Y-10504910D01*
X15392770Y-10504910D01*
X15379627Y-10502828D01*
X15375661Y-10502200D01*
X15358339Y-10502200D01*
X15354373Y-10502828D01*
X15341230Y-10504910D01*
X15324755Y-10510263D01*
X15309321Y-10518127D01*
X15306422Y-10520233D01*
X15295307Y-10528309D01*
X15295307Y-10528309D01*
X15295307Y-10528309D01*
X15283059Y-10540557D01*
X15283059Y-10540557D01*
X15283059Y-10540557D01*
X15278686Y-10546576D01*
X15272877Y-10554571D01*
X15265013Y-10570005D01*
X15265013Y-10570005D01*
X15265013Y-10570006D01*
X15263078Y-10575958D01*
X15259660Y-10586480D01*
X15259660Y-10586480D01*
X15256950Y-10603589D01*
X15256950Y-10620911D01*
X15259660Y-10638020D01*
X15265013Y-10654495D01*
X15272877Y-10669929D01*
X15283059Y-10683943D01*
X15295307Y-10696191D01*
X15309321Y-10706373D01*
X15324755Y-10714237D01*
X15336357Y-10718007D01*
X15342125Y-10721951D01*
X15344844Y-10728387D01*
X15343653Y-10735271D01*
X15338929Y-10740419D01*
X15332525Y-10742200D01*
X15147475Y-10742200D01*
X15140771Y-10740232D01*
X15136195Y-10734951D01*
X15135201Y-10728035D01*
X15138103Y-10721680D01*
X15143643Y-10718007D01*
X15155244Y-10714237D01*
X15170679Y-10706373D01*
X15184693Y-10696191D01*
X15196941Y-10683943D01*
X15207123Y-10669929D01*
X15214987Y-10654495D01*
X15220340Y-10638020D01*
X15223050Y-10620911D01*
X15223050Y-10603589D01*
X15220340Y-10586480D01*
X15214987Y-10570006D01*
X15207123Y-10554571D01*
X15196941Y-10540557D01*
X15184693Y-10528309D01*
X15170679Y-10518127D01*
X15155244Y-10510263D01*
X15138770Y-10504910D01*
X15138770Y-10504910D01*
X15138770Y-10504910D01*
X15125627Y-10502828D01*
X15121661Y-10502200D01*
X15104339Y-10502200D01*
X15100373Y-10502828D01*
X15087230Y-10504910D01*
X15070755Y-10510263D01*
X15055321Y-10518127D01*
X15052422Y-10520233D01*
X15041307Y-10528309D01*
X15041307Y-10528309D01*
X15041307Y-10528309D01*
X15029059Y-10540557D01*
X15029059Y-10540557D01*
X15029059Y-10540557D01*
X15024686Y-10546576D01*
X15018877Y-10554571D01*
X15011013Y-10570005D01*
X15011013Y-10570005D01*
X15011013Y-10570006D01*
X15009078Y-10575958D01*
X15005660Y-10586480D01*
X15005660Y-10586480D01*
X15002950Y-10603589D01*
X15002950Y-10620911D01*
X15005660Y-10638020D01*
X15011013Y-10654495D01*
X15018877Y-10669929D01*
X15029059Y-10683943D01*
X15041307Y-10696191D01*
X15055321Y-10706373D01*
X15070755Y-10714237D01*
X15082357Y-10718007D01*
X15088125Y-10721951D01*
X15090844Y-10728387D01*
X15089653Y-10735271D01*
X15084929Y-10740419D01*
X15078525Y-10742200D01*
X14893475Y-10742200D01*
X14886771Y-10740232D01*
X14882195Y-10734951D01*
X14881201Y-10728035D01*
X14884103Y-10721680D01*
X14889643Y-10718007D01*
X14901244Y-10714237D01*
X14916679Y-10706373D01*
X14930693Y-10696191D01*
X14942941Y-10683943D01*
X14953123Y-10669929D01*
X14960987Y-10654495D01*
X14966340Y-10638020D01*
X14969050Y-10620911D01*
X14969050Y-10603589D01*
X14966340Y-10586480D01*
X14960987Y-10570006D01*
X14953123Y-10554571D01*
X14942941Y-10540557D01*
X14930693Y-10528309D01*
X14916679Y-10518127D01*
X14901244Y-10510263D01*
X14884770Y-10504910D01*
X14884770Y-10504910D01*
X14884770Y-10504910D01*
X14871627Y-10502828D01*
X14867661Y-10502200D01*
X14850339Y-10502200D01*
X14846373Y-10502828D01*
X14833230Y-10504910D01*
X14816755Y-10510263D01*
X14801321Y-10518127D01*
X14798422Y-10520233D01*
X14787307Y-10528309D01*
X14787307Y-10528309D01*
X14787307Y-10528309D01*
X14775059Y-10540557D01*
X14775059Y-10540557D01*
X14775059Y-10540557D01*
X14770686Y-10546576D01*
X14764877Y-10554571D01*
X14757013Y-10570005D01*
X14757013Y-10570005D01*
X14757013Y-10570006D01*
X14755078Y-10575958D01*
X14751660Y-10586480D01*
X14751660Y-10586480D01*
X14748950Y-10603589D01*
X14748950Y-10620911D01*
X14751660Y-10638020D01*
X14757013Y-10654495D01*
X14764877Y-10669929D01*
X14775059Y-10683943D01*
X14787307Y-10696191D01*
X14801321Y-10706373D01*
X14816755Y-10714237D01*
X14828357Y-10718007D01*
X14834125Y-10721951D01*
X14836844Y-10728387D01*
X14835653Y-10735271D01*
X14830929Y-10740419D01*
X14824525Y-10742200D01*
X14639475Y-10742200D01*
X14632771Y-10740232D01*
X14628195Y-10734951D01*
X14627201Y-10728035D01*
X14630103Y-10721680D01*
X14635643Y-10718007D01*
X14647244Y-10714237D01*
X14662679Y-10706373D01*
X14676693Y-10696191D01*
X14688941Y-10683943D01*
X14699123Y-10669929D01*
X14706987Y-10654495D01*
X14712340Y-10638020D01*
X14715050Y-10620911D01*
X14715050Y-10603589D01*
X14712340Y-10586480D01*
X14706987Y-10570006D01*
X14699123Y-10554571D01*
X14688941Y-10540557D01*
X14676693Y-10528309D01*
X14662679Y-10518127D01*
X14647244Y-10510263D01*
X14630770Y-10504910D01*
X14630770Y-10504910D01*
X14630770Y-10504910D01*
X14617627Y-10502828D01*
X14613661Y-10502200D01*
X14596339Y-10502200D01*
X14592373Y-10502828D01*
X14579230Y-10504910D01*
X14562755Y-10510263D01*
X14547321Y-10518127D01*
X14544422Y-10520233D01*
X14533307Y-10528309D01*
X14533307Y-10528309D01*
X14533307Y-10528309D01*
X14521059Y-10540557D01*
X14521059Y-10540557D01*
X14521059Y-10540557D01*
X14516686Y-10546576D01*
X14510877Y-10554571D01*
X14503013Y-10570005D01*
X14503013Y-10570005D01*
X14503013Y-10570006D01*
X14501078Y-10575958D01*
X14497660Y-10586480D01*
X14497660Y-10586480D01*
X14494950Y-10603589D01*
X14494950Y-10620911D01*
X14497660Y-10638020D01*
X14503013Y-10654495D01*
X14510877Y-10669929D01*
X14521059Y-10683943D01*
X14533307Y-10696191D01*
X14547321Y-10706373D01*
X14562755Y-10714237D01*
X14574357Y-10718007D01*
X14580125Y-10721951D01*
X14582844Y-10728387D01*
X14581653Y-10735271D01*
X14576929Y-10740419D01*
X14570525Y-10742200D01*
X14385475Y-10742200D01*
X14378771Y-10740232D01*
X14374195Y-10734951D01*
X14373201Y-10728035D01*
X14376103Y-10721680D01*
X14381643Y-10718007D01*
X14393244Y-10714237D01*
X14408679Y-10706373D01*
X14422693Y-10696191D01*
X14434941Y-10683943D01*
X14445123Y-10669929D01*
X14452987Y-10654495D01*
X14458340Y-10638020D01*
X14461050Y-10620911D01*
X14461050Y-10603589D01*
X14458340Y-10586480D01*
X14454574Y-10574889D01*
X14454375Y-10567906D01*
X14457599Y-10562290D01*
X14556207Y-10463682D01*
X14562340Y-10460333D01*
X14564975Y-10460050D01*
X14795272Y-10460050D01*
X14795273Y-10460050D01*
X14805459Y-10457321D01*
X14814591Y-10452048D01*
X14843887Y-10422753D01*
X15154950Y-10422753D01*
X15154950Y-10437248D01*
X15158702Y-10451249D01*
X15158702Y-10451249D01*
X15165949Y-10463801D01*
X15165949Y-10463801D01*
X15165949Y-10463802D01*
X15176198Y-10474051D01*
X15176199Y-10474051D01*
X15176199Y-10474051D01*
X15188751Y-10481298D01*
X15188751Y-10481298D01*
X15188751Y-10481298D01*
X15202752Y-10485050D01*
X15202753Y-10485050D01*
X15217247Y-10485050D01*
X15217247Y-10485050D01*
X15231248Y-10481298D01*
X15243801Y-10474051D01*
X15254051Y-10463802D01*
X15261298Y-10451249D01*
X15265050Y-10437248D01*
X15265050Y-10422753D01*
X15261298Y-10408752D01*
X15261220Y-10408616D01*
X15254051Y-10396199D01*
X15254051Y-10396198D01*
X15243802Y-10385949D01*
X15243801Y-10385949D01*
X15231249Y-10378702D01*
X15231249Y-10378702D01*
X15230101Y-10378394D01*
X15217247Y-10374950D01*
X15202752Y-10374950D01*
X15189899Y-10378394D01*
X15188751Y-10378702D01*
X15176199Y-10385949D01*
X15176198Y-10385949D01*
X15165949Y-10396198D01*
X15165949Y-10396199D01*
X15158702Y-10408751D01*
X15158702Y-10408752D01*
X15154950Y-10422753D01*
X14843887Y-10422753D01*
X14903887Y-10362753D01*
X15324950Y-10362753D01*
X15324950Y-10377248D01*
X15328702Y-10391249D01*
X15328702Y-10391249D01*
X15335949Y-10403801D01*
X15335949Y-10403801D01*
X15335949Y-10403802D01*
X15346198Y-10414051D01*
X15346199Y-10414051D01*
X15346199Y-10414051D01*
X15358751Y-10421298D01*
X15358751Y-10421298D01*
X15358751Y-10421298D01*
X15372752Y-10425050D01*
X15372753Y-10425050D01*
X15387247Y-10425050D01*
X15387247Y-10425050D01*
X15401248Y-10421298D01*
X15413801Y-10414051D01*
X15424051Y-10403802D01*
X15431298Y-10391249D01*
X15435050Y-10377248D01*
X15435050Y-10362753D01*
X15431298Y-10348752D01*
X15430194Y-10346839D01*
X15424051Y-10336199D01*
X15424051Y-10336198D01*
X15413802Y-10325949D01*
X15413801Y-10325949D01*
X15401249Y-10318702D01*
X15401249Y-10318702D01*
X15400101Y-10318394D01*
X15387247Y-10314950D01*
X15372752Y-10314950D01*
X15359899Y-10318394D01*
X15358751Y-10318702D01*
X15346199Y-10325949D01*
X15346198Y-10325949D01*
X15335949Y-10336198D01*
X15335949Y-10336199D01*
X15328702Y-10348751D01*
X15328702Y-10348752D01*
X15324950Y-10362753D01*
X14903887Y-10362753D01*
X15023887Y-10242753D01*
X16034950Y-10242753D01*
X16034950Y-10257248D01*
X16038079Y-10268925D01*
X16038702Y-10271249D01*
X16045949Y-10283801D01*
X16045949Y-10283801D01*
X16045949Y-10283802D01*
X16056198Y-10294051D01*
X16056199Y-10294051D01*
X16056199Y-10294051D01*
X16068751Y-10301298D01*
X16068751Y-10301298D01*
X16068751Y-10301298D01*
X16082752Y-10305050D01*
X16082753Y-10305050D01*
X16097247Y-10305050D01*
X16097247Y-10305050D01*
X16111248Y-10301298D01*
X16113366Y-10300076D01*
X16120156Y-10298428D01*
X16126759Y-10300714D01*
X16131078Y-10306206D01*
X16131673Y-10310940D01*
X16131950Y-10310940D01*
X16131950Y-10311753D01*
X16131950Y-10326248D01*
X16135702Y-10340249D01*
X16135702Y-10340249D01*
X16142949Y-10352801D01*
X16142949Y-10352801D01*
X16142949Y-10352802D01*
X16153198Y-10363051D01*
X16153199Y-10363051D01*
X16153199Y-10363051D01*
X16165751Y-10370298D01*
X16165751Y-10370298D01*
X16165751Y-10370298D01*
X16179752Y-10374050D01*
X16179753Y-10374050D01*
X16194247Y-10374050D01*
X16194247Y-10374050D01*
X16208248Y-10370298D01*
X16220801Y-10363051D01*
X16231051Y-10352802D01*
X16238298Y-10340249D01*
X16242050Y-10326248D01*
X16242050Y-10311753D01*
X16238298Y-10297752D01*
X16238007Y-10297247D01*
X16231051Y-10285199D01*
X16231051Y-10285198D01*
X16220802Y-10274949D01*
X16220801Y-10274949D01*
X16208249Y-10267702D01*
X16208249Y-10267702D01*
X16207101Y-10267394D01*
X16194247Y-10263950D01*
X16179752Y-10263950D01*
X16169911Y-10266587D01*
X16165751Y-10267702D01*
X16165751Y-10267702D01*
X16163633Y-10268925D01*
X16156843Y-10270572D01*
X16150240Y-10268286D01*
X16145921Y-10262794D01*
X16145329Y-10258060D01*
X16145050Y-10258060D01*
X16145050Y-10242753D01*
X16145050Y-10242753D01*
X16141298Y-10228752D01*
X16140153Y-10226767D01*
X16134051Y-10216199D01*
X16134051Y-10216198D01*
X16123802Y-10205949D01*
X16123801Y-10205949D01*
X16111249Y-10198702D01*
X16111249Y-10198702D01*
X16110101Y-10198394D01*
X16097247Y-10194950D01*
X16082752Y-10194950D01*
X16069899Y-10198394D01*
X16068751Y-10198702D01*
X16056199Y-10205949D01*
X16056198Y-10205949D01*
X16045949Y-10216198D01*
X16045949Y-10216199D01*
X16038702Y-10228751D01*
X16038702Y-10228752D01*
X16034950Y-10242753D01*
X15023887Y-10242753D01*
X15151887Y-10114753D01*
X15327950Y-10114753D01*
X15327950Y-10129248D01*
X15331702Y-10143249D01*
X15331702Y-10143249D01*
X15338949Y-10155801D01*
X15338949Y-10155801D01*
X15338949Y-10155802D01*
X15349198Y-10166051D01*
X15349199Y-10166051D01*
X15349199Y-10166051D01*
X15361751Y-10173298D01*
X15361751Y-10173298D01*
X15361751Y-10173298D01*
X15375752Y-10177050D01*
X15375753Y-10177050D01*
X15390247Y-10177050D01*
X15390247Y-10177050D01*
X15404248Y-10173298D01*
X15416801Y-10166051D01*
X15427051Y-10155802D01*
X15434298Y-10143249D01*
X15438050Y-10129248D01*
X15438050Y-10114753D01*
X15434298Y-10100752D01*
X15432947Y-10098411D01*
X15427051Y-10088199D01*
X15427051Y-10088198D01*
X15416802Y-10077949D01*
X15416801Y-10077949D01*
X15404249Y-10070702D01*
X15404249Y-10070702D01*
X15401487Y-10069962D01*
X15390247Y-10066950D01*
X15375752Y-10066950D01*
X15364513Y-10069962D01*
X15361751Y-10070702D01*
X15349199Y-10077949D01*
X15349198Y-10077949D01*
X15338949Y-10088198D01*
X15338949Y-10088199D01*
X15331702Y-10100751D01*
X15331702Y-10100752D01*
X15327950Y-10114753D01*
X15151887Y-10114753D01*
X15223887Y-10042753D01*
X15844950Y-10042753D01*
X15844950Y-10057248D01*
X15848555Y-10070702D01*
X15848702Y-10071249D01*
X15855949Y-10083801D01*
X15855949Y-10083801D01*
X15855949Y-10083802D01*
X15866198Y-10094051D01*
X15866199Y-10094051D01*
X15866199Y-10094051D01*
X15878751Y-10101298D01*
X15878751Y-10101298D01*
X15878751Y-10101298D01*
X15892752Y-10105050D01*
X15892753Y-10105050D01*
X15907247Y-10105050D01*
X15907247Y-10105050D01*
X15921248Y-10101298D01*
X15933801Y-10094051D01*
X15944051Y-10083802D01*
X15951298Y-10071249D01*
X15955050Y-10057248D01*
X15955050Y-10042753D01*
X15951298Y-10028752D01*
X15951280Y-10028720D01*
X15944051Y-10016199D01*
X15944051Y-10016198D01*
X15933802Y-10005949D01*
X15933801Y-10005949D01*
X15921249Y-9998702D01*
X15921249Y-9998702D01*
X15920101Y-9998394D01*
X15907247Y-9994950D01*
X15892752Y-9994950D01*
X15879899Y-9998394D01*
X15878751Y-9998702D01*
X15866199Y-10005949D01*
X15866198Y-10005949D01*
X15855949Y-10016198D01*
X15855949Y-10016199D01*
X15848702Y-10028751D01*
X15848702Y-10028752D01*
X15844950Y-10042753D01*
X15223887Y-10042753D01*
X15403887Y-9862753D01*
X15994950Y-9862753D01*
X15994950Y-9877248D01*
X15998046Y-9888802D01*
X15998702Y-9891249D01*
X16005949Y-9903801D01*
X16005949Y-9903801D01*
X16005949Y-9903802D01*
X16016198Y-9914051D01*
X16016199Y-9914051D01*
X16016199Y-9914051D01*
X16028751Y-9921298D01*
X16028751Y-9921298D01*
X16028751Y-9921298D01*
X16042752Y-9925050D01*
X16042753Y-9925050D01*
X16057247Y-9925050D01*
X16057247Y-9925050D01*
X16071248Y-9921298D01*
X16083801Y-9914051D01*
X16094051Y-9903802D01*
X16101298Y-9891249D01*
X16105050Y-9877248D01*
X16105050Y-9862753D01*
X16101298Y-9848752D01*
X16101007Y-9848247D01*
X16094051Y-9836199D01*
X16094051Y-9836198D01*
X16083802Y-9825949D01*
X16083801Y-9825949D01*
X16071249Y-9818702D01*
X16071249Y-9818702D01*
X16070101Y-9818394D01*
X16057247Y-9814950D01*
X16042752Y-9814950D01*
X16029899Y-9818394D01*
X16028751Y-9818702D01*
X16016199Y-9825949D01*
X16016198Y-9825949D01*
X16005949Y-9836198D01*
X16005949Y-9836199D01*
X15998702Y-9848751D01*
X15998702Y-9848752D01*
X15994950Y-9862753D01*
X15403887Y-9862753D01*
X15512957Y-9753682D01*
X15519090Y-9750333D01*
X15521725Y-9750050D01*
X15547061Y-9750050D01*
X15553765Y-9752019D01*
X15555829Y-9753682D01*
X15556198Y-9754051D01*
X15556199Y-9754051D01*
X15556199Y-9754051D01*
X15568751Y-9761298D01*
X15568751Y-9761298D01*
X15568751Y-9761298D01*
X15582752Y-9765050D01*
X15582753Y-9765050D01*
X15597247Y-9765050D01*
X15597247Y-9765050D01*
X15611248Y-9761298D01*
X15623801Y-9754051D01*
X15634051Y-9743802D01*
X15641298Y-9731249D01*
X15643575Y-9722753D01*
X15854950Y-9722753D01*
X15854950Y-9737248D01*
X15858380Y-9750050D01*
X15858702Y-9751249D01*
X15865949Y-9763801D01*
X15865949Y-9763801D01*
X15865949Y-9763802D01*
X15876198Y-9774051D01*
X15876199Y-9774051D01*
X15876199Y-9774051D01*
X15888751Y-9781298D01*
X15888751Y-9781298D01*
X15888751Y-9781298D01*
X15902752Y-9785050D01*
X15902753Y-9785050D01*
X15917247Y-9785050D01*
X15917247Y-9785050D01*
X15931248Y-9781298D01*
X15943801Y-9774051D01*
X15954051Y-9763802D01*
X15961298Y-9751249D01*
X15965050Y-9737248D01*
X15965050Y-9722753D01*
X15961298Y-9708752D01*
X15961270Y-9708702D01*
X15954051Y-9696199D01*
X15954051Y-9696198D01*
X15943802Y-9685949D01*
X15943801Y-9685949D01*
X15931249Y-9678702D01*
X15931249Y-9678702D01*
X15928452Y-9677952D01*
X15917247Y-9674950D01*
X15902752Y-9674950D01*
X15891548Y-9677952D01*
X15888751Y-9678702D01*
X15876199Y-9685949D01*
X15876198Y-9685949D01*
X15865949Y-9696198D01*
X15865949Y-9696199D01*
X15858702Y-9708751D01*
X15858702Y-9708752D01*
X15854950Y-9722753D01*
X15643575Y-9722753D01*
X15645050Y-9717248D01*
X15645050Y-9702753D01*
X15641298Y-9688752D01*
X15639680Y-9685949D01*
X15634051Y-9676199D01*
X15634051Y-9676198D01*
X15623802Y-9665949D01*
X15623801Y-9665949D01*
X15611249Y-9658702D01*
X15611249Y-9658702D01*
X15609288Y-9658176D01*
X15597247Y-9654950D01*
X15582752Y-9654950D01*
X15570712Y-9658176D01*
X15568751Y-9658702D01*
X15556199Y-9665949D01*
X15556198Y-9665949D01*
X15555829Y-9666318D01*
X15549697Y-9669667D01*
X15547061Y-9669950D01*
X15494727Y-9669950D01*
X15484541Y-9672679D01*
X15475409Y-9677952D01*
X15475408Y-9677952D01*
X14916170Y-10237190D01*
X14910038Y-10240539D01*
X14903069Y-10240040D01*
X14897476Y-10235853D01*
X14895034Y-10229307D01*
X14895071Y-10228060D01*
X14895050Y-10228060D01*
X14895050Y-10212753D01*
X14895050Y-10212753D01*
X14891298Y-10198752D01*
X14891270Y-10198702D01*
X14884051Y-10186199D01*
X14884051Y-10186198D01*
X14873802Y-10175949D01*
X14873801Y-10175949D01*
X14861249Y-10168702D01*
X14861249Y-10168702D01*
X14860101Y-10168394D01*
X14847247Y-10164950D01*
X14832752Y-10164950D01*
X14819899Y-10168394D01*
X14818751Y-10168702D01*
X14806199Y-10175949D01*
X14806198Y-10175949D01*
X14795949Y-10186198D01*
X14795949Y-10186199D01*
X14788702Y-10198751D01*
X14788702Y-10198752D01*
X14784950Y-10212753D01*
X14784950Y-10227248D01*
X14788511Y-10240539D01*
X14788702Y-10241249D01*
X14793061Y-10248800D01*
X14794709Y-10255590D01*
X14793061Y-10261200D01*
X14788702Y-10268751D01*
X14788702Y-10268752D01*
X14784950Y-10282753D01*
X14784950Y-10297248D01*
X14788619Y-10310940D01*
X14788702Y-10311249D01*
X14795949Y-10323801D01*
X14795949Y-10323802D01*
X14803986Y-10331838D01*
X14807334Y-10337971D01*
X14806836Y-10344940D01*
X14803986Y-10349375D01*
X14777043Y-10376318D01*
X14770910Y-10379667D01*
X14768274Y-10379950D01*
X14685219Y-10379950D01*
X14678515Y-10377982D01*
X14673940Y-10372701D01*
X14672945Y-10365785D01*
X14675848Y-10359430D01*
X14680474Y-10356094D01*
X14692917Y-10350940D01*
X14692917Y-10350940D01*
X14692918Y-10350939D01*
X14706029Y-10342179D01*
X14717179Y-10331029D01*
X14725939Y-10317918D01*
X14731974Y-10303350D01*
X14735050Y-10287884D01*
X14735050Y-10272116D01*
X14735050Y-10272116D01*
X14735050Y-10272115D01*
X14734172Y-10267702D01*
X14731974Y-10256650D01*
X14729654Y-10251051D01*
X14725940Y-10242083D01*
X14725939Y-10242081D01*
X14717179Y-10228971D01*
X14717179Y-10228971D01*
X14706029Y-10217821D01*
X14706029Y-10217821D01*
X14692918Y-10209061D01*
X14692917Y-10209060D01*
X14678350Y-10203026D01*
X14678349Y-10203026D01*
X14662884Y-10199950D01*
X14662884Y-10199950D01*
X14596374Y-10199950D01*
X14589670Y-10197982D01*
X14585095Y-10192701D01*
X14584100Y-10185785D01*
X14587003Y-10179430D01*
X14587606Y-10178782D01*
X14590593Y-10175795D01*
X14594051Y-10172337D01*
X14601628Y-10159214D01*
X14605550Y-10144577D01*
X14605550Y-10129423D01*
X14601628Y-10114787D01*
X14594051Y-10101664D01*
X14583336Y-10090949D01*
X14576775Y-10087160D01*
X14570214Y-10083372D01*
X14562895Y-10081411D01*
X14555577Y-10079450D01*
X14540423Y-10079450D01*
X14525786Y-10083372D01*
X14512663Y-10090949D01*
X14512663Y-10090949D01*
X14501949Y-10101663D01*
X14501948Y-10101664D01*
X14494372Y-10114786D01*
X14491569Y-10125249D01*
X14490450Y-10129423D01*
X14490450Y-10144577D01*
X14491381Y-10148051D01*
X14494372Y-10159214D01*
X14497106Y-10163949D01*
X14501948Y-10172337D01*
X14512663Y-10183052D01*
X14514786Y-10184277D01*
X14519608Y-10189334D01*
X14520930Y-10196195D01*
X14518333Y-10202681D01*
X14513332Y-10206472D01*
X14507082Y-10209061D01*
X14507081Y-10209061D01*
X14493971Y-10217821D01*
X14493971Y-10217821D01*
X14482821Y-10228971D01*
X14482821Y-10228971D01*
X14474061Y-10242081D01*
X14474060Y-10242083D01*
X14468026Y-10256650D01*
X14468026Y-10256651D01*
X14464950Y-10272115D01*
X14464950Y-10287885D01*
X14468026Y-10303349D01*
X14468026Y-10303350D01*
X14474060Y-10317917D01*
X14474061Y-10317919D01*
X14482821Y-10331029D01*
X14482821Y-10331029D01*
X14493971Y-10342179D01*
X14493971Y-10342179D01*
X14507081Y-10350939D01*
X14507083Y-10350940D01*
X14521650Y-10356974D01*
X14521650Y-10356974D01*
X14528076Y-10358252D01*
X14534267Y-10361490D01*
X14537725Y-10367562D01*
X14537351Y-10374539D01*
X14533264Y-10380206D01*
X14528867Y-10382391D01*
X14527792Y-10382679D01*
X14527791Y-10382679D01*
X14520588Y-10386838D01*
X14519556Y-10387434D01*
X14518658Y-10387952D01*
X14511202Y-10395409D01*
X14400960Y-10505651D01*
X14394828Y-10508999D01*
X14388360Y-10508676D01*
X14376770Y-10504910D01*
X14363627Y-10502828D01*
X14359661Y-10502200D01*
X14342339Y-10502200D01*
X14338373Y-10502828D01*
X14325230Y-10504910D01*
X14308755Y-10510263D01*
X14293321Y-10518127D01*
X14290422Y-10520233D01*
X14279307Y-10528309D01*
X14279307Y-10528309D01*
X14279307Y-10528309D01*
X14267059Y-10540557D01*
X14267059Y-10540557D01*
X14267059Y-10540557D01*
X14262686Y-10546576D01*
X14256877Y-10554571D01*
X14249013Y-10570005D01*
X14249013Y-10570005D01*
X14249013Y-10570006D01*
X14247078Y-10575958D01*
X14243660Y-10586480D01*
X14243660Y-10586480D01*
X14240950Y-10603589D01*
X14240950Y-10620911D01*
X14243660Y-10638020D01*
X14249013Y-10654495D01*
X14256877Y-10669929D01*
X14267059Y-10683943D01*
X14279307Y-10696191D01*
X14293321Y-10706373D01*
X14308755Y-10714237D01*
X14320357Y-10718007D01*
X14326125Y-10721951D01*
X14328844Y-10728387D01*
X14327653Y-10735271D01*
X14322929Y-10740419D01*
X14316525Y-10742200D01*
X14144419Y-10742200D01*
X14137715Y-10740232D01*
X14133140Y-10734951D01*
X14132145Y-10728035D01*
X14135048Y-10721680D01*
X14140345Y-10718168D01*
X14140330Y-10718131D01*
X14140518Y-10718053D01*
X14140588Y-10718007D01*
X14140656Y-10717984D01*
X14140780Y-10717944D01*
X14156775Y-10709794D01*
X14165896Y-10703168D01*
X14171298Y-10699243D01*
X14171298Y-10699243D01*
X14171299Y-10699243D01*
X14183992Y-10686549D01*
X14183993Y-10686548D01*
X14183993Y-10686548D01*
X14188620Y-10680179D01*
X14194544Y-10672025D01*
X14202694Y-10656030D01*
X14208242Y-10638957D01*
X14211050Y-10621226D01*
X14211050Y-10603274D01*
X14208242Y-10585543D01*
X14205127Y-10575958D01*
X14202694Y-10568470D01*
X14200840Y-10564831D01*
X14194544Y-10552475D01*
X14193866Y-10551542D01*
X14183993Y-10537952D01*
X14171298Y-10525257D01*
X14156775Y-10514706D01*
X14156775Y-10514706D01*
X14156775Y-10514706D01*
X14148055Y-10510263D01*
X14140780Y-10506556D01*
X14123707Y-10501008D01*
X14114841Y-10499604D01*
X14105976Y-10498200D01*
X14088024Y-10498200D01*
X14087144Y-10498339D01*
X14070293Y-10501008D01*
X14053220Y-10506556D01*
X14037224Y-10514706D01*
X14022702Y-10525257D01*
X14010007Y-10537952D01*
X13999456Y-10552474D01*
X13991305Y-10568470D01*
X13991243Y-10568663D01*
X13991199Y-10568726D01*
X13991119Y-10568920D01*
X13991078Y-10568903D01*
X13987299Y-10574430D01*
X13980863Y-10577150D01*
X13973979Y-10575958D01*
X13968831Y-10571234D01*
X13967050Y-10564831D01*
X13967050Y-10272115D01*
X14059950Y-10272115D01*
X14059950Y-10287885D01*
X14063026Y-10303349D01*
X14063026Y-10303350D01*
X14069060Y-10317917D01*
X14069061Y-10317919D01*
X14077821Y-10331029D01*
X14077821Y-10331029D01*
X14088971Y-10342179D01*
X14088971Y-10342179D01*
X14102081Y-10350939D01*
X14102083Y-10350940D01*
X14116650Y-10356974D01*
X14116650Y-10356974D01*
X14128997Y-10359430D01*
X14132115Y-10360050D01*
X14132116Y-10360050D01*
X14132116Y-10360050D01*
X14227884Y-10360050D01*
X14227884Y-10360050D01*
X14243350Y-10356974D01*
X14257918Y-10350939D01*
X14271029Y-10342179D01*
X14282179Y-10331029D01*
X14290939Y-10317918D01*
X14296974Y-10303350D01*
X14300050Y-10287884D01*
X14300050Y-10272116D01*
X14300050Y-10272116D01*
X14300050Y-10272115D01*
X14299172Y-10267702D01*
X14296974Y-10256650D01*
X14294654Y-10251051D01*
X14290940Y-10242083D01*
X14290939Y-10242081D01*
X14282179Y-10228971D01*
X14282179Y-10228971D01*
X14271029Y-10217821D01*
X14271029Y-10217821D01*
X14257918Y-10209061D01*
X14257917Y-10209060D01*
X14243350Y-10203026D01*
X14243349Y-10203026D01*
X14227884Y-10199950D01*
X14227884Y-10199950D01*
X14132116Y-10199950D01*
X14132115Y-10199950D01*
X14116651Y-10203026D01*
X14116650Y-10203026D01*
X14102083Y-10209060D01*
X14102081Y-10209061D01*
X14088971Y-10217821D01*
X14088971Y-10217821D01*
X14077821Y-10228971D01*
X14077821Y-10228971D01*
X14069061Y-10242081D01*
X14069060Y-10242083D01*
X14063026Y-10256650D01*
X14063026Y-10256651D01*
X14059950Y-10272115D01*
X13967050Y-10272115D01*
X13967050Y-10042753D01*
X14904950Y-10042753D01*
X14904950Y-10057248D01*
X14908555Y-10070702D01*
X14908702Y-10071249D01*
X14915949Y-10083801D01*
X14915949Y-10083801D01*
X14915949Y-10083802D01*
X14926198Y-10094051D01*
X14926199Y-10094051D01*
X14926199Y-10094051D01*
X14938751Y-10101298D01*
X14938751Y-10101298D01*
X14938751Y-10101298D01*
X14952752Y-10105050D01*
X14952753Y-10105050D01*
X14967247Y-10105050D01*
X14967247Y-10105050D01*
X14981248Y-10101298D01*
X14993801Y-10094051D01*
X15004051Y-10083802D01*
X15011298Y-10071249D01*
X15015050Y-10057248D01*
X15015050Y-10042753D01*
X15011298Y-10028752D01*
X15011280Y-10028720D01*
X15004051Y-10016199D01*
X15004051Y-10016198D01*
X14993802Y-10005949D01*
X14993801Y-10005949D01*
X14981249Y-9998702D01*
X14981249Y-9998702D01*
X14980101Y-9998394D01*
X14967247Y-9994950D01*
X14952752Y-9994950D01*
X14939899Y-9998394D01*
X14938751Y-9998702D01*
X14926199Y-10005949D01*
X14926198Y-10005949D01*
X14915949Y-10016198D01*
X14915949Y-10016199D01*
X14908702Y-10028751D01*
X14908702Y-10028752D01*
X14904950Y-10042753D01*
X13967050Y-10042753D01*
X13967050Y-9842753D01*
X14462950Y-9842753D01*
X14462950Y-9857248D01*
X14466702Y-9871249D01*
X14466702Y-9871249D01*
X14473949Y-9883801D01*
X14473949Y-9883801D01*
X14473949Y-9883802D01*
X14484198Y-9894051D01*
X14484199Y-9894051D01*
X14484199Y-9894051D01*
X14496751Y-9901298D01*
X14496751Y-9901298D01*
X14496751Y-9901298D01*
X14510752Y-9905050D01*
X14510753Y-9905050D01*
X14525247Y-9905050D01*
X14525247Y-9905050D01*
X14539248Y-9901298D01*
X14551801Y-9894051D01*
X14562051Y-9883802D01*
X14569298Y-9871249D01*
X14573050Y-9857248D01*
X14573050Y-9842753D01*
X14569298Y-9828752D01*
X14567989Y-9826483D01*
X14562730Y-9817376D01*
X14562730Y-9817376D01*
X14562051Y-9816199D01*
X14557840Y-9811988D01*
X14738186Y-9811988D01*
X14738186Y-9826483D01*
X14741937Y-9840484D01*
X14741937Y-9840484D01*
X14749184Y-9853037D01*
X14749185Y-9853037D01*
X14759879Y-9863732D01*
X14763228Y-9869864D01*
X14762730Y-9876833D01*
X14759879Y-9881268D01*
X14751949Y-9889198D01*
X14751949Y-9889199D01*
X14744702Y-9901751D01*
X14744702Y-9901752D01*
X14740950Y-9915753D01*
X14740950Y-9930248D01*
X14744702Y-9944249D01*
X14744702Y-9944249D01*
X14751949Y-9956801D01*
X14751949Y-9956801D01*
X14751949Y-9956802D01*
X14762198Y-9967051D01*
X14762199Y-9967051D01*
X14762199Y-9967051D01*
X14774751Y-9974298D01*
X14774751Y-9974298D01*
X14774751Y-9974298D01*
X14788752Y-9978050D01*
X14788753Y-9978050D01*
X14803247Y-9978050D01*
X14803247Y-9978050D01*
X14817248Y-9974298D01*
X14829801Y-9967051D01*
X14840051Y-9956802D01*
X14847298Y-9944249D01*
X14851050Y-9930248D01*
X14851050Y-9915753D01*
X14847298Y-9901752D01*
X14846316Y-9900050D01*
X14840051Y-9889199D01*
X14840051Y-9889198D01*
X14829356Y-9878504D01*
X14826008Y-9872371D01*
X14826506Y-9865402D01*
X14829356Y-9860968D01*
X14833076Y-9857247D01*
X14837286Y-9853037D01*
X14844534Y-9840484D01*
X14848286Y-9826483D01*
X14848286Y-9811988D01*
X14844534Y-9797987D01*
X14843935Y-9796949D01*
X14837287Y-9785434D01*
X14837286Y-9785434D01*
X14827037Y-9775185D01*
X14827037Y-9775184D01*
X14814484Y-9767937D01*
X14814484Y-9767937D01*
X14811909Y-9767247D01*
X14800483Y-9764186D01*
X14785988Y-9764186D01*
X14774562Y-9767247D01*
X14771987Y-9767937D01*
X14759434Y-9775184D01*
X14759434Y-9775185D01*
X14749185Y-9785434D01*
X14749184Y-9785434D01*
X14741937Y-9797987D01*
X14741937Y-9797987D01*
X14738186Y-9811988D01*
X14557840Y-9811988D01*
X14551801Y-9805949D01*
X14551801Y-9805949D01*
X14551801Y-9805949D01*
X14539249Y-9798702D01*
X14539249Y-9798702D01*
X14538101Y-9798394D01*
X14525247Y-9794950D01*
X14510752Y-9794950D01*
X14497899Y-9798394D01*
X14496751Y-9798702D01*
X14484199Y-9805949D01*
X14484198Y-9805949D01*
X14473949Y-9816198D01*
X14473949Y-9816199D01*
X14466702Y-9828751D01*
X14466702Y-9828752D01*
X14462950Y-9842753D01*
X13967050Y-9842753D01*
X13967050Y-9618753D01*
X16046950Y-9618753D01*
X16046950Y-9633248D01*
X16050702Y-9647249D01*
X16050702Y-9647249D01*
X16057949Y-9659801D01*
X16057949Y-9659801D01*
X16057949Y-9659802D01*
X16068198Y-9670051D01*
X16068199Y-9670051D01*
X16068199Y-9670051D01*
X16080751Y-9677298D01*
X16080751Y-9677298D01*
X16080751Y-9677298D01*
X16094752Y-9681050D01*
X16095274Y-9681050D01*
X16101978Y-9683019D01*
X16104043Y-9684682D01*
X16303952Y-9884591D01*
X16303952Y-9884591D01*
X16311409Y-9892048D01*
X16317108Y-9895339D01*
X16317967Y-9895835D01*
X16317967Y-9895835D01*
X16320541Y-9897320D01*
X16320541Y-9897321D01*
X16320541Y-9897321D01*
X16320541Y-9897321D01*
X16330727Y-9900050D01*
X16330727Y-9900050D01*
X16342032Y-9900050D01*
X16342034Y-9900050D01*
X16368161Y-9900050D01*
X16374865Y-9902019D01*
X16379441Y-9907299D01*
X16380435Y-9914215D01*
X16377533Y-9920570D01*
X16376929Y-9921218D01*
X16368949Y-9929198D01*
X16368949Y-9929199D01*
X16361702Y-9941751D01*
X16361702Y-9941752D01*
X16357950Y-9955753D01*
X16357950Y-9970248D01*
X16360041Y-9978050D01*
X16361702Y-9984249D01*
X16368949Y-9996801D01*
X16368949Y-9996801D01*
X16368949Y-9996802D01*
X16379198Y-10007051D01*
X16379199Y-10007051D01*
X16379199Y-10007051D01*
X16391751Y-10014298D01*
X16391751Y-10014298D01*
X16391751Y-10014298D01*
X16405752Y-10018050D01*
X16405753Y-10018050D01*
X16420247Y-10018050D01*
X16420247Y-10018050D01*
X16434248Y-10014298D01*
X16446801Y-10007051D01*
X16457051Y-9996802D01*
X16464298Y-9984249D01*
X16468050Y-9970248D01*
X16468050Y-9955753D01*
X16464298Y-9941752D01*
X16461051Y-9936126D01*
X16457051Y-9929199D01*
X16457051Y-9929198D01*
X16449070Y-9921218D01*
X16445722Y-9915086D01*
X16446220Y-9908117D01*
X16450408Y-9902523D01*
X16456954Y-9900082D01*
X16457839Y-9900050D01*
X16668274Y-9900050D01*
X16674978Y-9902019D01*
X16677043Y-9903682D01*
X16867952Y-10094591D01*
X16867952Y-10094591D01*
X16875409Y-10102048D01*
X16884541Y-10107321D01*
X16894727Y-10110050D01*
X16894728Y-10110050D01*
X17605273Y-10110050D01*
X17605273Y-10110050D01*
X17615459Y-10107321D01*
X17623371Y-10102753D01*
X17874950Y-10102753D01*
X17874950Y-10117248D01*
X17878213Y-10129423D01*
X17878702Y-10131249D01*
X17885949Y-10143801D01*
X17885949Y-10143801D01*
X17885949Y-10143802D01*
X17896199Y-10154051D01*
X17896199Y-10154051D01*
X17896199Y-10154051D01*
X17908751Y-10161298D01*
X17908751Y-10161298D01*
X17908752Y-10161298D01*
X17922753Y-10165050D01*
X17922753Y-10165050D01*
X17937247Y-10165050D01*
X17937248Y-10165050D01*
X17951249Y-10161298D01*
X17963802Y-10154051D01*
X17974051Y-10143802D01*
X17981298Y-10131249D01*
X17985050Y-10117248D01*
X17985050Y-10102753D01*
X17983442Y-10096753D01*
X18124950Y-10096753D01*
X18124950Y-10111248D01*
X18127630Y-10121249D01*
X18128702Y-10125249D01*
X18135949Y-10137801D01*
X18135949Y-10137801D01*
X18135949Y-10137802D01*
X18146199Y-10148051D01*
X18146199Y-10148051D01*
X18146199Y-10148051D01*
X18158751Y-10155298D01*
X18158751Y-10155298D01*
X18158752Y-10155298D01*
X18172753Y-10159050D01*
X18172753Y-10159050D01*
X18187247Y-10159050D01*
X18187248Y-10159050D01*
X18201249Y-10155298D01*
X18213802Y-10148051D01*
X18224051Y-10137802D01*
X18231298Y-10125249D01*
X18235050Y-10111248D01*
X18235050Y-10096753D01*
X18231298Y-10082752D01*
X18228526Y-10077949D01*
X18224051Y-10070199D01*
X18224051Y-10070198D01*
X18213802Y-10059949D01*
X18213801Y-10059949D01*
X18201249Y-10052702D01*
X18201249Y-10052702D01*
X18196012Y-10051298D01*
X18187248Y-10048950D01*
X18172753Y-10048950D01*
X18163988Y-10051298D01*
X18158751Y-10052702D01*
X18146199Y-10059949D01*
X18146198Y-10059949D01*
X18135949Y-10070198D01*
X18135949Y-10070199D01*
X18128702Y-10082751D01*
X18128420Y-10083802D01*
X18124950Y-10096753D01*
X17983442Y-10096753D01*
X17981298Y-10088752D01*
X17980979Y-10088199D01*
X17974051Y-10076199D01*
X17974051Y-10076198D01*
X17963802Y-10065949D01*
X17963801Y-10065949D01*
X17951249Y-10058702D01*
X17951249Y-10058702D01*
X17950101Y-10058394D01*
X17937248Y-10054950D01*
X17922753Y-10054950D01*
X17909899Y-10058394D01*
X17908751Y-10058702D01*
X17896199Y-10065949D01*
X17896198Y-10065949D01*
X17885949Y-10076198D01*
X17885949Y-10076199D01*
X17878702Y-10088751D01*
X17878702Y-10088752D01*
X17874950Y-10102753D01*
X17623371Y-10102753D01*
X17624591Y-10102048D01*
X17700457Y-10026182D01*
X17706590Y-10022833D01*
X17709226Y-10022550D01*
X17985602Y-10022550D01*
X17985602Y-10022550D01*
X17996424Y-10019650D01*
X18006126Y-10014049D01*
X18084048Y-9936126D01*
X18089650Y-9926424D01*
X18092550Y-9915602D01*
X18092550Y-9904398D01*
X18092550Y-9852753D01*
X18124950Y-9852753D01*
X18124950Y-9867248D01*
X18128086Y-9878949D01*
X18128702Y-9881249D01*
X18135949Y-9893801D01*
X18135949Y-9893801D01*
X18135949Y-9893802D01*
X18146199Y-9904051D01*
X18146199Y-9904051D01*
X18146199Y-9904051D01*
X18158751Y-9911298D01*
X18158751Y-9911298D01*
X18158752Y-9911298D01*
X18172753Y-9915050D01*
X18172753Y-9915050D01*
X18187247Y-9915050D01*
X18187248Y-9915050D01*
X18201249Y-9911298D01*
X18213802Y-9904051D01*
X18224051Y-9893802D01*
X18231298Y-9881249D01*
X18235050Y-9867248D01*
X18235050Y-9852753D01*
X18231298Y-9838752D01*
X18229824Y-9836198D01*
X18224051Y-9826198D01*
X18213802Y-9815949D01*
X18213801Y-9815949D01*
X18201249Y-9808702D01*
X18201249Y-9808702D01*
X18200101Y-9808394D01*
X18187248Y-9804950D01*
X18172753Y-9804950D01*
X18159899Y-9808394D01*
X18158751Y-9808702D01*
X18146199Y-9815949D01*
X18146198Y-9815949D01*
X18135949Y-9826198D01*
X18135949Y-9826198D01*
X18128702Y-9838751D01*
X18128702Y-9838752D01*
X18124950Y-9852753D01*
X18092550Y-9852753D01*
X18092550Y-9752761D01*
X18094519Y-9746057D01*
X18096182Y-9743993D01*
X18137422Y-9702753D01*
X18181999Y-9658176D01*
X18187557Y-9654967D01*
X18201249Y-9651298D01*
X18213802Y-9644051D01*
X18224051Y-9633802D01*
X18231298Y-9621249D01*
X18235050Y-9607248D01*
X18235050Y-9592753D01*
X18231298Y-9578752D01*
X18229681Y-9575949D01*
X18224051Y-9566199D01*
X18224051Y-9566198D01*
X18213802Y-9555949D01*
X18213801Y-9555949D01*
X18201249Y-9548702D01*
X18201249Y-9548702D01*
X18200101Y-9548394D01*
X18187248Y-9544950D01*
X18172753Y-9544950D01*
X18159899Y-9548394D01*
X18158751Y-9548702D01*
X18146199Y-9555949D01*
X18146198Y-9555949D01*
X18135949Y-9566198D01*
X18135949Y-9566199D01*
X18128702Y-9578751D01*
X18128702Y-9578752D01*
X18125099Y-9592199D01*
X18125033Y-9592443D01*
X18121824Y-9598002D01*
X18023874Y-9695952D01*
X18015952Y-9703873D01*
X18015951Y-9703874D01*
X18010350Y-9713576D01*
X18010350Y-9713576D01*
X18007450Y-9724398D01*
X18007450Y-9842163D01*
X18005482Y-9848867D01*
X18000201Y-9853443D01*
X17993285Y-9854437D01*
X17986930Y-9851535D01*
X17983152Y-9845657D01*
X17983073Y-9845373D01*
X17982371Y-9842753D01*
X17981298Y-9838752D01*
X17979824Y-9836198D01*
X17974051Y-9826198D01*
X17963802Y-9815949D01*
X17963801Y-9815949D01*
X17951249Y-9808702D01*
X17951249Y-9808702D01*
X17950101Y-9808394D01*
X17937248Y-9804950D01*
X17922753Y-9804950D01*
X17909899Y-9808394D01*
X17908751Y-9808702D01*
X17896199Y-9815949D01*
X17896198Y-9815949D01*
X17895830Y-9816318D01*
X17889697Y-9819667D01*
X17887061Y-9819950D01*
X17738341Y-9819950D01*
X17728155Y-9822679D01*
X17728155Y-9822679D01*
X17728155Y-9822679D01*
X17728155Y-9822679D01*
X17722060Y-9826198D01*
X17722060Y-9826198D01*
X17719023Y-9827952D01*
X17719022Y-9827952D01*
X17580656Y-9966318D01*
X17574524Y-9969667D01*
X17571888Y-9969950D01*
X17466450Y-9969950D01*
X17459746Y-9967982D01*
X17455171Y-9962701D01*
X17454050Y-9957550D01*
X17454050Y-9947753D01*
X17454050Y-9947753D01*
X17450298Y-9933752D01*
X17447670Y-9929198D01*
X17443051Y-9921199D01*
X17443051Y-9921198D01*
X17432802Y-9910949D01*
X17432801Y-9910949D01*
X17420249Y-9903702D01*
X17420249Y-9903702D01*
X17419101Y-9903394D01*
X17406248Y-9899950D01*
X17391753Y-9899950D01*
X17378899Y-9903394D01*
X17377751Y-9903702D01*
X17365199Y-9910949D01*
X17365198Y-9910949D01*
X17354949Y-9921198D01*
X17354949Y-9921199D01*
X17347702Y-9933751D01*
X17347702Y-9933752D01*
X17343950Y-9947753D01*
X17343950Y-9947753D01*
X17343950Y-9957550D01*
X17341982Y-9964254D01*
X17336701Y-9968829D01*
X17331550Y-9969950D01*
X16931726Y-9969950D01*
X16925022Y-9967982D01*
X16922957Y-9966318D01*
X16789392Y-9832753D01*
X16924950Y-9832753D01*
X16924950Y-9847248D01*
X16928626Y-9860968D01*
X16928702Y-9861249D01*
X16935949Y-9873801D01*
X16935949Y-9873801D01*
X16935949Y-9873802D01*
X16946199Y-9884051D01*
X16946199Y-9884051D01*
X16946199Y-9884051D01*
X16958751Y-9891298D01*
X16958751Y-9891298D01*
X16958752Y-9891298D01*
X16972753Y-9895050D01*
X16972753Y-9895050D01*
X16987247Y-9895050D01*
X16987248Y-9895050D01*
X17001249Y-9891298D01*
X17013802Y-9884051D01*
X17024051Y-9873802D01*
X17029973Y-9863545D01*
X17035029Y-9858723D01*
X17041890Y-9857401D01*
X17048377Y-9859998D01*
X17051450Y-9863545D01*
X17057949Y-9874802D01*
X17068199Y-9885051D01*
X17068199Y-9885051D01*
X17068199Y-9885051D01*
X17080751Y-9892298D01*
X17080751Y-9892298D01*
X17080752Y-9892298D01*
X17094753Y-9896050D01*
X17094753Y-9896050D01*
X17109247Y-9896050D01*
X17109248Y-9896050D01*
X17123249Y-9892298D01*
X17135802Y-9885051D01*
X17146051Y-9874802D01*
X17153298Y-9862249D01*
X17157050Y-9848248D01*
X17157050Y-9847753D01*
X17232950Y-9847753D01*
X17232950Y-9862248D01*
X17236702Y-9876249D01*
X17236702Y-9876249D01*
X17243949Y-9888801D01*
X17243949Y-9888801D01*
X17243949Y-9888802D01*
X17254199Y-9899051D01*
X17254199Y-9899051D01*
X17254199Y-9899051D01*
X17266751Y-9906298D01*
X17266751Y-9906298D01*
X17266752Y-9906298D01*
X17280753Y-9910050D01*
X17280753Y-9910050D01*
X17295247Y-9910050D01*
X17295248Y-9910050D01*
X17309249Y-9906298D01*
X17321802Y-9899051D01*
X17332051Y-9888802D01*
X17339298Y-9876249D01*
X17343050Y-9862248D01*
X17343050Y-9847753D01*
X17339298Y-9833752D01*
X17338722Y-9832753D01*
X17332051Y-9821199D01*
X17332051Y-9821198D01*
X17321802Y-9810949D01*
X17321801Y-9810949D01*
X17309249Y-9803702D01*
X17309249Y-9803702D01*
X17308101Y-9803394D01*
X17295248Y-9799950D01*
X17280753Y-9799950D01*
X17267899Y-9803394D01*
X17266751Y-9803702D01*
X17254199Y-9810949D01*
X17254198Y-9810949D01*
X17243949Y-9821198D01*
X17243949Y-9821199D01*
X17236702Y-9833751D01*
X17236702Y-9833752D01*
X17232950Y-9847753D01*
X17157050Y-9847753D01*
X17157050Y-9833753D01*
X17153298Y-9819752D01*
X17152721Y-9818752D01*
X17146051Y-9807199D01*
X17146051Y-9807198D01*
X17135802Y-9796949D01*
X17135801Y-9796949D01*
X17123249Y-9789702D01*
X17123249Y-9789702D01*
X17122101Y-9789394D01*
X17109248Y-9785950D01*
X17094753Y-9785950D01*
X17081899Y-9789394D01*
X17080751Y-9789702D01*
X17068199Y-9796949D01*
X17068198Y-9796949D01*
X17057949Y-9807198D01*
X17057949Y-9807199D01*
X17052027Y-9817455D01*
X17046971Y-9822277D01*
X17040110Y-9823599D01*
X17033623Y-9821002D01*
X17030550Y-9817455D01*
X17030504Y-9817376D01*
X17024051Y-9806199D01*
X17013802Y-9795949D01*
X17013801Y-9795949D01*
X17013801Y-9795949D01*
X17001249Y-9788702D01*
X17001249Y-9788702D01*
X17000101Y-9788394D01*
X16987248Y-9784950D01*
X16972753Y-9784950D01*
X16959899Y-9788394D01*
X16958751Y-9788702D01*
X16946199Y-9795949D01*
X16946198Y-9795949D01*
X16935949Y-9806198D01*
X16935949Y-9806199D01*
X16928702Y-9818751D01*
X16928702Y-9818752D01*
X16924950Y-9832753D01*
X16789392Y-9832753D01*
X16734591Y-9777952D01*
X16734591Y-9777952D01*
X16729798Y-9775184D01*
X16725459Y-9772679D01*
X16720366Y-9771315D01*
X16715273Y-9769950D01*
X16715273Y-9769950D01*
X16411975Y-9769950D01*
X16405271Y-9767982D01*
X16403207Y-9766318D01*
X16389642Y-9752753D01*
X16784950Y-9752753D01*
X16784950Y-9767248D01*
X16788702Y-9781249D01*
X16788702Y-9781249D01*
X16795949Y-9793801D01*
X16795949Y-9793801D01*
X16795949Y-9793802D01*
X16806199Y-9804051D01*
X16806199Y-9804051D01*
X16806199Y-9804051D01*
X16818751Y-9811298D01*
X16818751Y-9811298D01*
X16818752Y-9811298D01*
X16832753Y-9815050D01*
X16832753Y-9815050D01*
X16847247Y-9815050D01*
X16847248Y-9815050D01*
X16861249Y-9811298D01*
X16873802Y-9804051D01*
X16884051Y-9793802D01*
X16891298Y-9781249D01*
X16895050Y-9767248D01*
X16895050Y-9752753D01*
X16891298Y-9738752D01*
X16886967Y-9731249D01*
X16884051Y-9726199D01*
X16884051Y-9726198D01*
X16873802Y-9715949D01*
X16873801Y-9715949D01*
X16861249Y-9708702D01*
X16861249Y-9708702D01*
X16860101Y-9708394D01*
X16847248Y-9704950D01*
X16832753Y-9704950D01*
X16819899Y-9708394D01*
X16818751Y-9708702D01*
X16806199Y-9715949D01*
X16806198Y-9715949D01*
X16795949Y-9726198D01*
X16795949Y-9726199D01*
X16788702Y-9738751D01*
X16788702Y-9738752D01*
X16784950Y-9752753D01*
X16389642Y-9752753D01*
X16249642Y-9612753D01*
X17274950Y-9612753D01*
X17274950Y-9627248D01*
X17278702Y-9641249D01*
X17278702Y-9641249D01*
X17285949Y-9653801D01*
X17285949Y-9653801D01*
X17285949Y-9653802D01*
X17296199Y-9664051D01*
X17296199Y-9664051D01*
X17296199Y-9664051D01*
X17308751Y-9671298D01*
X17308751Y-9671298D01*
X17308752Y-9671298D01*
X17322753Y-9675050D01*
X17322753Y-9675050D01*
X17337247Y-9675050D01*
X17337248Y-9675050D01*
X17351249Y-9671298D01*
X17363802Y-9664051D01*
X17374051Y-9653802D01*
X17381298Y-9641249D01*
X17385050Y-9627248D01*
X17385050Y-9612753D01*
X17381298Y-9598752D01*
X17378749Y-9594336D01*
X17374051Y-9586199D01*
X17374051Y-9586198D01*
X17363802Y-9575949D01*
X17363801Y-9575949D01*
X17351249Y-9568702D01*
X17351249Y-9568702D01*
X17350101Y-9568394D01*
X17337248Y-9564950D01*
X17322753Y-9564950D01*
X17309899Y-9568394D01*
X17308751Y-9568702D01*
X17296199Y-9575949D01*
X17296198Y-9575949D01*
X17285949Y-9586198D01*
X17285949Y-9586199D01*
X17278702Y-9598751D01*
X17278702Y-9598752D01*
X17274950Y-9612753D01*
X16249642Y-9612753D01*
X16212474Y-9575585D01*
X16209126Y-9569453D01*
X16209624Y-9562484D01*
X16213811Y-9556890D01*
X16218032Y-9554840D01*
X16231248Y-9551298D01*
X16243801Y-9544051D01*
X16254051Y-9533802D01*
X16261298Y-9521249D01*
X16265050Y-9507248D01*
X16265050Y-9492753D01*
X16261298Y-9478752D01*
X16254051Y-9466199D01*
X16250605Y-9462753D01*
X17284950Y-9462753D01*
X17284950Y-9477248D01*
X17288241Y-9489528D01*
X17288702Y-9491249D01*
X17295949Y-9503801D01*
X17295949Y-9503801D01*
X17295949Y-9503802D01*
X17306199Y-9514051D01*
X17306199Y-9514051D01*
X17306199Y-9514051D01*
X17318751Y-9521298D01*
X17318751Y-9521298D01*
X17318752Y-9521298D01*
X17332753Y-9525050D01*
X17332753Y-9525050D01*
X17347247Y-9525050D01*
X17347248Y-9525050D01*
X17361249Y-9521298D01*
X17373802Y-9514051D01*
X17384051Y-9503802D01*
X17391298Y-9491249D01*
X17395050Y-9477248D01*
X17395050Y-9462753D01*
X17391298Y-9448752D01*
X17389161Y-9445050D01*
X17384051Y-9436199D01*
X17384051Y-9436198D01*
X17373802Y-9425949D01*
X17373801Y-9425949D01*
X17368265Y-9422753D01*
X17794950Y-9422753D01*
X17794950Y-9437248D01*
X17798297Y-9449740D01*
X17798702Y-9451249D01*
X17805949Y-9463801D01*
X17805949Y-9463801D01*
X17805949Y-9463802D01*
X17816199Y-9474051D01*
X17816199Y-9474051D01*
X17816199Y-9474051D01*
X17828751Y-9481298D01*
X17828751Y-9481298D01*
X17828752Y-9481298D01*
X17842753Y-9485050D01*
X17842753Y-9485050D01*
X17857247Y-9485050D01*
X17857248Y-9485050D01*
X17871249Y-9481298D01*
X17883802Y-9474051D01*
X17894051Y-9463802D01*
X17901298Y-9451249D01*
X17905050Y-9437248D01*
X17905050Y-9422753D01*
X17901298Y-9408752D01*
X17898441Y-9403802D01*
X17894051Y-9396199D01*
X17894051Y-9396198D01*
X17883802Y-9385949D01*
X17883801Y-9385949D01*
X17871249Y-9378702D01*
X17871249Y-9378702D01*
X17870101Y-9378394D01*
X17857248Y-9374950D01*
X17842753Y-9374950D01*
X17829899Y-9378394D01*
X17828751Y-9378702D01*
X17816199Y-9385949D01*
X17816198Y-9385949D01*
X17805949Y-9396198D01*
X17805949Y-9396199D01*
X17798702Y-9408751D01*
X17798702Y-9408752D01*
X17794950Y-9422753D01*
X17368265Y-9422753D01*
X17361249Y-9418702D01*
X17361249Y-9418702D01*
X17360101Y-9418394D01*
X17347248Y-9414950D01*
X17332753Y-9414950D01*
X17319899Y-9418394D01*
X17318751Y-9418702D01*
X17306199Y-9425949D01*
X17306198Y-9425949D01*
X17295949Y-9436198D01*
X17295949Y-9436199D01*
X17288702Y-9448751D01*
X17288702Y-9448752D01*
X17284950Y-9462753D01*
X16250605Y-9462753D01*
X16247317Y-9459464D01*
X16247035Y-9459141D01*
X16245749Y-9456340D01*
X16244272Y-9453636D01*
X16244303Y-9453194D01*
X16244119Y-9452792D01*
X16244550Y-9449740D01*
X16244770Y-9446667D01*
X16245046Y-9446237D01*
X16245098Y-9445874D01*
X16245812Y-9445046D01*
X16247620Y-9442232D01*
X16250503Y-9439349D01*
X16254051Y-9435802D01*
X16261298Y-9423249D01*
X16265050Y-9409248D01*
X16265050Y-9394753D01*
X16261298Y-9380752D01*
X16260483Y-9379340D01*
X16254051Y-9368199D01*
X16254051Y-9368198D01*
X16243802Y-9357949D01*
X16243801Y-9357949D01*
X16231249Y-9350702D01*
X16231249Y-9350702D01*
X16230101Y-9350394D01*
X16217247Y-9346950D01*
X16202752Y-9346950D01*
X16189899Y-9350394D01*
X16188751Y-9350702D01*
X16176199Y-9357949D01*
X16176198Y-9357949D01*
X16165949Y-9368198D01*
X16165949Y-9368199D01*
X16158702Y-9380751D01*
X16158702Y-9380752D01*
X16154950Y-9394753D01*
X16154950Y-9409248D01*
X16158702Y-9423249D01*
X16158702Y-9423249D01*
X16165949Y-9435801D01*
X16165949Y-9435802D01*
X16172379Y-9442232D01*
X16175728Y-9448364D01*
X16175230Y-9455333D01*
X16172379Y-9459768D01*
X16165949Y-9466198D01*
X16165949Y-9466199D01*
X16158295Y-9479455D01*
X16158048Y-9479313D01*
X16154530Y-9483678D01*
X16147900Y-9485884D01*
X16141258Y-9484231D01*
X16131249Y-9478452D01*
X16131249Y-9478452D01*
X16130101Y-9478144D01*
X16117247Y-9474700D01*
X16102752Y-9474700D01*
X16089899Y-9478144D01*
X16088751Y-9478452D01*
X16076199Y-9485699D01*
X16076198Y-9485699D01*
X16065949Y-9495948D01*
X16065949Y-9495949D01*
X16058702Y-9508501D01*
X16058702Y-9508502D01*
X16054950Y-9522503D01*
X16054950Y-9536998D01*
X16058086Y-9548702D01*
X16058702Y-9550999D01*
X16065949Y-9563551D01*
X16065949Y-9563552D01*
X16067505Y-9565107D01*
X16070853Y-9571240D01*
X16070354Y-9578209D01*
X16067504Y-9582643D01*
X16057949Y-9592199D01*
X16050702Y-9604751D01*
X16050702Y-9604752D01*
X16046950Y-9618753D01*
X13967050Y-9618753D01*
X13967050Y-9408115D01*
X14059950Y-9408115D01*
X14059950Y-9423885D01*
X14063026Y-9439349D01*
X14063026Y-9439350D01*
X14069060Y-9453917D01*
X14069061Y-9453919D01*
X14077821Y-9467029D01*
X14077821Y-9467029D01*
X14088971Y-9478179D01*
X14088971Y-9478179D01*
X14102081Y-9486939D01*
X14102083Y-9486940D01*
X14116650Y-9492974D01*
X14116650Y-9492974D01*
X14131604Y-9495948D01*
X14132115Y-9496050D01*
X14132116Y-9496050D01*
X14132116Y-9496050D01*
X14227884Y-9496050D01*
X14227884Y-9496050D01*
X14243350Y-9492974D01*
X14257918Y-9486939D01*
X14271029Y-9478179D01*
X14282179Y-9467029D01*
X14290939Y-9453918D01*
X14291056Y-9453636D01*
X14295130Y-9443802D01*
X14296974Y-9439350D01*
X14300050Y-9423884D01*
X14300050Y-9408116D01*
X14300050Y-9408116D01*
X14300050Y-9408115D01*
X14464950Y-9408115D01*
X14464950Y-9423885D01*
X14468026Y-9439349D01*
X14468026Y-9439350D01*
X14474060Y-9453917D01*
X14474061Y-9453919D01*
X14482821Y-9467029D01*
X14482821Y-9467029D01*
X14493971Y-9478179D01*
X14493971Y-9478179D01*
X14507081Y-9486939D01*
X14507083Y-9486940D01*
X14513331Y-9489528D01*
X14518772Y-9493912D01*
X14520978Y-9500541D01*
X14519250Y-9507311D01*
X14514787Y-9511723D01*
X14512664Y-9512948D01*
X14512663Y-9512949D01*
X14501949Y-9523663D01*
X14501948Y-9523664D01*
X14494372Y-9536786D01*
X14490564Y-9550999D01*
X14490450Y-9551423D01*
X14490450Y-9566577D01*
X14491699Y-9571240D01*
X14494372Y-9581214D01*
X14497250Y-9586198D01*
X14501948Y-9594337D01*
X14512663Y-9605052D01*
X14525786Y-9612628D01*
X14540423Y-9616550D01*
X14540424Y-9616550D01*
X14555576Y-9616550D01*
X14555577Y-9616550D01*
X14570213Y-9612628D01*
X14583336Y-9605052D01*
X14594051Y-9594337D01*
X14601628Y-9581214D01*
X14605550Y-9566577D01*
X14605550Y-9551423D01*
X14601628Y-9536787D01*
X14594051Y-9523664D01*
X14587606Y-9517218D01*
X14584258Y-9511086D01*
X14584756Y-9504117D01*
X14588943Y-9498523D01*
X14595490Y-9496082D01*
X14596374Y-9496050D01*
X14662884Y-9496050D01*
X14662884Y-9496050D01*
X14678350Y-9492974D01*
X14692918Y-9486939D01*
X14706029Y-9478179D01*
X14717179Y-9467029D01*
X14725939Y-9453918D01*
X14726056Y-9453636D01*
X14730130Y-9443802D01*
X14731974Y-9439350D01*
X14735050Y-9423884D01*
X14735050Y-9408116D01*
X14735050Y-9408116D01*
X14735050Y-9408115D01*
X14732802Y-9396816D01*
X14731974Y-9392650D01*
X14729198Y-9385949D01*
X14725940Y-9378083D01*
X14725939Y-9378081D01*
X14717179Y-9364971D01*
X14717179Y-9364971D01*
X14706029Y-9353821D01*
X14703678Y-9352250D01*
X14703678Y-9352250D01*
X14692918Y-9345061D01*
X14692917Y-9345060D01*
X14687346Y-9342753D01*
X14754950Y-9342753D01*
X14754950Y-9357248D01*
X14758702Y-9371249D01*
X14758702Y-9371249D01*
X14765949Y-9383801D01*
X14765949Y-9383801D01*
X14765949Y-9383802D01*
X14776198Y-9394051D01*
X14778750Y-9395524D01*
X14783571Y-9400581D01*
X14784950Y-9406263D01*
X14784950Y-9417248D01*
X14787282Y-9425949D01*
X14788702Y-9431249D01*
X14795949Y-9443801D01*
X14795949Y-9443801D01*
X14795949Y-9443802D01*
X14806198Y-9454051D01*
X14806199Y-9454051D01*
X14806199Y-9454051D01*
X14818751Y-9461298D01*
X14818751Y-9461298D01*
X14818751Y-9461298D01*
X14832752Y-9465050D01*
X14832753Y-9465050D01*
X14847247Y-9465050D01*
X14847247Y-9465050D01*
X14861248Y-9461298D01*
X14873801Y-9454051D01*
X14884051Y-9443802D01*
X14891298Y-9431249D01*
X14895050Y-9417248D01*
X14895050Y-9402753D01*
X15014950Y-9402753D01*
X15014950Y-9417248D01*
X15017282Y-9425949D01*
X15018702Y-9431249D01*
X15025949Y-9443801D01*
X15025949Y-9443801D01*
X15025949Y-9443802D01*
X15036198Y-9454051D01*
X15036199Y-9454051D01*
X15036199Y-9454051D01*
X15048751Y-9461298D01*
X15048751Y-9461298D01*
X15048751Y-9461298D01*
X15062752Y-9465050D01*
X15062753Y-9465050D01*
X15077247Y-9465050D01*
X15077247Y-9465050D01*
X15091248Y-9461298D01*
X15103801Y-9454051D01*
X15114051Y-9443802D01*
X15117682Y-9437512D01*
X15122738Y-9432691D01*
X15129599Y-9431369D01*
X15135474Y-9433680D01*
X15135495Y-9433645D01*
X15135732Y-9433782D01*
X15135969Y-9433875D01*
X15136198Y-9434051D01*
X15148751Y-9441298D01*
X15148751Y-9441298D01*
X15148751Y-9441298D01*
X15162752Y-9445050D01*
X15162753Y-9445050D01*
X15177247Y-9445050D01*
X15177247Y-9445050D01*
X15191248Y-9441298D01*
X15203801Y-9434051D01*
X15214051Y-9423802D01*
X15221298Y-9411249D01*
X15225050Y-9397248D01*
X15225050Y-9382753D01*
X15221298Y-9368752D01*
X15221229Y-9368631D01*
X15214051Y-9356199D01*
X15214051Y-9356198D01*
X15203802Y-9345949D01*
X15203801Y-9345949D01*
X15191249Y-9338702D01*
X15191249Y-9338702D01*
X15190101Y-9338394D01*
X15177247Y-9334950D01*
X15162752Y-9334950D01*
X15149899Y-9338394D01*
X15148751Y-9338702D01*
X15136199Y-9345949D01*
X15136198Y-9345949D01*
X15125949Y-9356198D01*
X15125949Y-9356199D01*
X15122318Y-9362488D01*
X15117261Y-9367309D01*
X15110401Y-9368631D01*
X15104526Y-9366320D01*
X15104505Y-9366356D01*
X15104268Y-9366218D01*
X15104031Y-9366125D01*
X15103802Y-9365949D01*
X15091249Y-9358702D01*
X15091249Y-9358702D01*
X15088441Y-9357949D01*
X15077247Y-9354950D01*
X15062752Y-9354950D01*
X15051559Y-9357949D01*
X15048751Y-9358702D01*
X15036199Y-9365949D01*
X15036198Y-9365949D01*
X15025949Y-9376198D01*
X15025949Y-9376199D01*
X15018702Y-9388751D01*
X15018702Y-9388752D01*
X15014950Y-9402753D01*
X14895050Y-9402753D01*
X14891298Y-9388752D01*
X14890036Y-9386566D01*
X14884051Y-9376199D01*
X14884051Y-9376198D01*
X14873802Y-9365949D01*
X14873801Y-9365949D01*
X14871250Y-9364476D01*
X14866428Y-9359419D01*
X14865050Y-9353737D01*
X14865050Y-9342753D01*
X14865050Y-9342753D01*
X14861298Y-9328752D01*
X14854051Y-9316199D01*
X14853635Y-9315782D01*
X17084950Y-9315782D01*
X17084950Y-9330277D01*
X17088702Y-9344278D01*
X17088702Y-9344279D01*
X17095949Y-9356831D01*
X17095949Y-9356831D01*
X17095949Y-9356831D01*
X17106199Y-9367081D01*
X17106199Y-9367081D01*
X17106199Y-9367081D01*
X17118751Y-9374328D01*
X17118751Y-9374328D01*
X17118752Y-9374328D01*
X17132753Y-9378080D01*
X17132753Y-9378080D01*
X17147247Y-9378080D01*
X17147248Y-9378080D01*
X17161249Y-9374328D01*
X17173802Y-9367081D01*
X17184051Y-9356831D01*
X17190583Y-9345517D01*
X17432186Y-9345517D01*
X17432186Y-9360012D01*
X17434379Y-9368199D01*
X17435937Y-9374013D01*
X17443184Y-9386566D01*
X17443185Y-9386566D01*
X17443185Y-9386566D01*
X17453434Y-9396815D01*
X17453434Y-9396815D01*
X17453434Y-9396816D01*
X17465987Y-9404063D01*
X17465987Y-9404063D01*
X17465987Y-9404063D01*
X17479988Y-9407814D01*
X17479988Y-9407814D01*
X17494483Y-9407814D01*
X17494483Y-9407814D01*
X17508484Y-9404063D01*
X17521037Y-9396815D01*
X17531287Y-9386566D01*
X17538534Y-9374013D01*
X17541551Y-9362753D01*
X18004950Y-9362753D01*
X18004950Y-9377248D01*
X18008702Y-9391249D01*
X18008702Y-9391249D01*
X18015949Y-9403801D01*
X18015949Y-9403801D01*
X18015949Y-9403802D01*
X18026199Y-9414051D01*
X18026199Y-9414051D01*
X18026199Y-9414051D01*
X18038751Y-9421298D01*
X18038751Y-9421298D01*
X18038752Y-9421298D01*
X18052753Y-9425050D01*
X18052753Y-9425050D01*
X18067247Y-9425050D01*
X18067248Y-9425050D01*
X18081249Y-9421298D01*
X18093802Y-9414051D01*
X18104051Y-9403802D01*
X18111298Y-9391249D01*
X18115050Y-9377248D01*
X18115050Y-9362753D01*
X18111298Y-9348752D01*
X18109681Y-9345949D01*
X18104051Y-9336199D01*
X18104051Y-9336198D01*
X18093802Y-9325949D01*
X18093801Y-9325949D01*
X18081249Y-9318702D01*
X18081249Y-9318702D01*
X18080101Y-9318394D01*
X18067248Y-9314950D01*
X18052753Y-9314950D01*
X18039899Y-9318394D01*
X18038751Y-9318702D01*
X18026199Y-9325949D01*
X18026198Y-9325949D01*
X18015949Y-9336198D01*
X18015949Y-9336199D01*
X18008702Y-9348751D01*
X18008702Y-9348752D01*
X18004950Y-9362753D01*
X17541551Y-9362753D01*
X17542286Y-9360012D01*
X17542286Y-9345517D01*
X17538534Y-9331516D01*
X17537819Y-9330277D01*
X17531287Y-9318963D01*
X17531286Y-9318963D01*
X17521037Y-9308714D01*
X17521037Y-9308713D01*
X17508484Y-9301466D01*
X17508485Y-9301466D01*
X17507336Y-9301158D01*
X17494483Y-9297714D01*
X17479988Y-9297714D01*
X17467135Y-9301158D01*
X17465987Y-9301466D01*
X17453434Y-9308713D01*
X17453434Y-9308714D01*
X17443185Y-9318963D01*
X17443184Y-9318963D01*
X17435937Y-9331516D01*
X17435937Y-9331516D01*
X17432186Y-9345517D01*
X17190583Y-9345517D01*
X17191298Y-9344278D01*
X17191707Y-9342753D01*
X17192044Y-9341495D01*
X17193463Y-9336199D01*
X17195050Y-9330277D01*
X17195050Y-9315782D01*
X17191298Y-9301781D01*
X17189520Y-9298702D01*
X17184051Y-9289229D01*
X17184051Y-9289228D01*
X17173802Y-9278979D01*
X17173801Y-9278979D01*
X17161249Y-9271731D01*
X17161249Y-9271731D01*
X17160101Y-9271424D01*
X17147248Y-9267980D01*
X17132753Y-9267980D01*
X17119899Y-9271424D01*
X17118751Y-9271731D01*
X17106199Y-9278979D01*
X17106198Y-9278979D01*
X17095949Y-9289228D01*
X17095949Y-9289229D01*
X17088702Y-9301781D01*
X17088702Y-9301781D01*
X17084950Y-9315782D01*
X14853635Y-9315782D01*
X14843801Y-9305949D01*
X14843801Y-9305949D01*
X14843801Y-9305949D01*
X14831249Y-9298702D01*
X14831249Y-9298702D01*
X14830101Y-9298394D01*
X14817247Y-9294950D01*
X14802752Y-9294950D01*
X14789899Y-9298394D01*
X14788751Y-9298702D01*
X14776199Y-9305949D01*
X14776198Y-9305949D01*
X14765949Y-9316198D01*
X14765949Y-9316199D01*
X14758702Y-9328751D01*
X14758702Y-9328752D01*
X14754950Y-9342753D01*
X14687346Y-9342753D01*
X14678350Y-9339026D01*
X14678349Y-9339026D01*
X14662884Y-9335950D01*
X14662884Y-9335950D01*
X14537116Y-9335950D01*
X14537115Y-9335950D01*
X14521651Y-9339026D01*
X14521650Y-9339026D01*
X14507083Y-9345060D01*
X14507081Y-9345061D01*
X14493971Y-9353821D01*
X14493971Y-9353821D01*
X14482821Y-9364971D01*
X14482821Y-9364971D01*
X14474061Y-9378081D01*
X14474060Y-9378083D01*
X14468026Y-9392650D01*
X14468026Y-9392651D01*
X14464950Y-9408115D01*
X14300050Y-9408115D01*
X14297802Y-9396816D01*
X14296974Y-9392650D01*
X14294198Y-9385949D01*
X14290940Y-9378083D01*
X14290939Y-9378081D01*
X14282179Y-9364971D01*
X14282179Y-9364971D01*
X14271029Y-9353821D01*
X14271029Y-9353821D01*
X14257918Y-9345061D01*
X14257917Y-9345060D01*
X14243350Y-9339026D01*
X14243349Y-9339026D01*
X14227884Y-9335950D01*
X14227884Y-9335950D01*
X14132116Y-9335950D01*
X14132115Y-9335950D01*
X14116651Y-9339026D01*
X14116650Y-9339026D01*
X14102083Y-9345060D01*
X14102081Y-9345061D01*
X14088971Y-9353821D01*
X14088971Y-9353821D01*
X14077821Y-9364971D01*
X14077821Y-9364971D01*
X14069061Y-9378081D01*
X14069060Y-9378083D01*
X14063026Y-9392650D01*
X14063026Y-9392651D01*
X14059950Y-9408115D01*
X13967050Y-9408115D01*
X13967050Y-9135669D01*
X13969018Y-9128965D01*
X13974299Y-9124390D01*
X13981215Y-9123396D01*
X13987570Y-9126298D01*
X13991082Y-9131595D01*
X13991119Y-9131580D01*
X13991197Y-9131768D01*
X13991243Y-9131838D01*
X13991306Y-9132030D01*
X13991306Y-9132030D01*
X13998387Y-9145929D01*
X13999456Y-9148026D01*
X14010007Y-9162548D01*
X14022702Y-9175243D01*
X14036019Y-9184918D01*
X14037225Y-9185794D01*
X14052288Y-9193470D01*
X14053220Y-9193944D01*
X14061757Y-9196718D01*
X14070293Y-9199492D01*
X14088024Y-9202300D01*
X14088024Y-9202300D01*
X14105976Y-9202300D01*
X14105976Y-9202300D01*
X14123707Y-9199492D01*
X14140780Y-9193944D01*
X14156775Y-9185794D01*
X14169040Y-9176883D01*
X14171298Y-9175243D01*
X14171298Y-9175243D01*
X14171299Y-9175243D01*
X14183992Y-9162549D01*
X14183993Y-9162548D01*
X14183993Y-9162548D01*
X14188620Y-9156179D01*
X14194544Y-9148025D01*
X14202694Y-9132030D01*
X14208242Y-9114957D01*
X14211050Y-9097226D01*
X14211050Y-9079274D01*
X14208242Y-9061543D01*
X14203922Y-9048250D01*
X14202694Y-9044470D01*
X14198984Y-9037188D01*
X14194544Y-9028475D01*
X14193866Y-9027542D01*
X14183993Y-9013952D01*
X14171298Y-9001257D01*
X14156775Y-8990706D01*
X14156775Y-8990706D01*
X14156775Y-8990706D01*
X14148055Y-8986263D01*
X14140780Y-8982556D01*
X14140588Y-8982493D01*
X14140524Y-8982449D01*
X14140330Y-8982369D01*
X14140346Y-8982328D01*
X14134820Y-8978550D01*
X14132100Y-8972114D01*
X14133291Y-8965229D01*
X14138016Y-8960081D01*
X14144419Y-8958300D01*
X14316525Y-8958300D01*
X14323229Y-8960269D01*
G37*
%TD.AperFunction*%
%TD*%
M02*
