%TF.GenerationSoftware,KiCad,Pcbnew,10.0.0*%
%TF.CreationDate,2026-04-11T10:05:01+02:00*%
%TF.ProjectId,Easyduino_Atmega_Nano,45617379-6475-4696-9e6f-5f41746d6567,rev?*%
%TF.SameCoordinates,Original*%
%TF.FileFunction,Legend,Bot*%
%TF.FilePolarity,Positive*%
%FSLAX45Y45*%
G04 Gerber Fmt 4.5, Leading zero omitted, Abs format (unit mm)*
G04 Created by KiCad (PCBNEW 10.0.0) date 2026-04-11 10:05:01*
%MOMM*%
%LPD*%
G01*
G04 APERTURE LIST*
%ADD10C,0.093750*%
%ADD11C,0.150000*%
G04 APERTURE END LIST*
D10*
X16425975Y-9619588D02*
X16425975Y-9544588D01*
X16425975Y-9544588D02*
X16408118Y-9544588D01*
X16408118Y-9544588D02*
X16397404Y-9548160D01*
X16397404Y-9548160D02*
X16390261Y-9555302D01*
X16390261Y-9555302D02*
X16386689Y-9562445D01*
X16386689Y-9562445D02*
X16383118Y-9576731D01*
X16383118Y-9576731D02*
X16383118Y-9587445D01*
X16383118Y-9587445D02*
X16386689Y-9601731D01*
X16386689Y-9601731D02*
X16390261Y-9608874D01*
X16390261Y-9608874D02*
X16397404Y-9616017D01*
X16397404Y-9616017D02*
X16408118Y-9619588D01*
X16408118Y-9619588D02*
X16425975Y-9619588D01*
X16322404Y-9616017D02*
X16329546Y-9619588D01*
X16329546Y-9619588D02*
X16343832Y-9619588D01*
X16343832Y-9619588D02*
X16350975Y-9616017D01*
X16350975Y-9616017D02*
X16354546Y-9608874D01*
X16354546Y-9608874D02*
X16354546Y-9580302D01*
X16354546Y-9580302D02*
X16350975Y-9573160D01*
X16350975Y-9573160D02*
X16343832Y-9569588D01*
X16343832Y-9569588D02*
X16329546Y-9569588D01*
X16329546Y-9569588D02*
X16322404Y-9573160D01*
X16322404Y-9573160D02*
X16318832Y-9580302D01*
X16318832Y-9580302D02*
X16318832Y-9587445D01*
X16318832Y-9587445D02*
X16354546Y-9594588D01*
X16290261Y-9616017D02*
X16283118Y-9619588D01*
X16283118Y-9619588D02*
X16268832Y-9619588D01*
X16268832Y-9619588D02*
X16261689Y-9616017D01*
X16261689Y-9616017D02*
X16258118Y-9608874D01*
X16258118Y-9608874D02*
X16258118Y-9605302D01*
X16258118Y-9605302D02*
X16261689Y-9598160D01*
X16261689Y-9598160D02*
X16268832Y-9594588D01*
X16268832Y-9594588D02*
X16279547Y-9594588D01*
X16279547Y-9594588D02*
X16286689Y-9591017D01*
X16286689Y-9591017D02*
X16290261Y-9583874D01*
X16290261Y-9583874D02*
X16290261Y-9580302D01*
X16290261Y-9580302D02*
X16286689Y-9573160D01*
X16286689Y-9573160D02*
X16279547Y-9569588D01*
X16279547Y-9569588D02*
X16268832Y-9569588D01*
X16268832Y-9569588D02*
X16261689Y-9573160D01*
X16225975Y-9619588D02*
X16225975Y-9569588D01*
X16225975Y-9544588D02*
X16229546Y-9548160D01*
X16229546Y-9548160D02*
X16225975Y-9551731D01*
X16225975Y-9551731D02*
X16222404Y-9548160D01*
X16222404Y-9548160D02*
X16225975Y-9544588D01*
X16225975Y-9544588D02*
X16225975Y-9551731D01*
X16158118Y-9569588D02*
X16158118Y-9630302D01*
X16158118Y-9630302D02*
X16161689Y-9637445D01*
X16161689Y-9637445D02*
X16165261Y-9641017D01*
X16165261Y-9641017D02*
X16172404Y-9644588D01*
X16172404Y-9644588D02*
X16183118Y-9644588D01*
X16183118Y-9644588D02*
X16190261Y-9641017D01*
X16158118Y-9616017D02*
X16165261Y-9619588D01*
X16165261Y-9619588D02*
X16179546Y-9619588D01*
X16179546Y-9619588D02*
X16186689Y-9616017D01*
X16186689Y-9616017D02*
X16190261Y-9612445D01*
X16190261Y-9612445D02*
X16193832Y-9605302D01*
X16193832Y-9605302D02*
X16193832Y-9583874D01*
X16193832Y-9583874D02*
X16190261Y-9576731D01*
X16190261Y-9576731D02*
X16186689Y-9573160D01*
X16186689Y-9573160D02*
X16179546Y-9569588D01*
X16179546Y-9569588D02*
X16165261Y-9569588D01*
X16165261Y-9569588D02*
X16158118Y-9573160D01*
X16122404Y-9569588D02*
X16122404Y-9619588D01*
X16122404Y-9576731D02*
X16118832Y-9573160D01*
X16118832Y-9573160D02*
X16111689Y-9569588D01*
X16111689Y-9569588D02*
X16100975Y-9569588D01*
X16100975Y-9569588D02*
X16093832Y-9573160D01*
X16093832Y-9573160D02*
X16090261Y-9580302D01*
X16090261Y-9580302D02*
X16090261Y-9619588D01*
X16025975Y-9616017D02*
X16033118Y-9619588D01*
X16033118Y-9619588D02*
X16047404Y-9619588D01*
X16047404Y-9619588D02*
X16054547Y-9616017D01*
X16054547Y-9616017D02*
X16058118Y-9608874D01*
X16058118Y-9608874D02*
X16058118Y-9580302D01*
X16058118Y-9580302D02*
X16054547Y-9573160D01*
X16054547Y-9573160D02*
X16047404Y-9569588D01*
X16047404Y-9569588D02*
X16033118Y-9569588D01*
X16033118Y-9569588D02*
X16025975Y-9573160D01*
X16025975Y-9573160D02*
X16022404Y-9580302D01*
X16022404Y-9580302D02*
X16022404Y-9587445D01*
X16022404Y-9587445D02*
X16058118Y-9594588D01*
X15958118Y-9619588D02*
X15958118Y-9544588D01*
X15958118Y-9616017D02*
X15965261Y-9619588D01*
X15965261Y-9619588D02*
X15979547Y-9619588D01*
X15979547Y-9619588D02*
X15986689Y-9616017D01*
X15986689Y-9616017D02*
X15990261Y-9612445D01*
X15990261Y-9612445D02*
X15993832Y-9605302D01*
X15993832Y-9605302D02*
X15993832Y-9583874D01*
X15993832Y-9583874D02*
X15990261Y-9576731D01*
X15990261Y-9576731D02*
X15986689Y-9573160D01*
X15986689Y-9573160D02*
X15979547Y-9569588D01*
X15979547Y-9569588D02*
X15965261Y-9569588D01*
X15965261Y-9569588D02*
X15958118Y-9573160D01*
X15872404Y-9569588D02*
X15858118Y-9619588D01*
X15858118Y-9619588D02*
X15843832Y-9583874D01*
X15843832Y-9583874D02*
X15829547Y-9619588D01*
X15829547Y-9619588D02*
X15815261Y-9569588D01*
X15786689Y-9619588D02*
X15786689Y-9569588D01*
X15786689Y-9544588D02*
X15790261Y-9548160D01*
X15790261Y-9548160D02*
X15786689Y-9551731D01*
X15786689Y-9551731D02*
X15783118Y-9548160D01*
X15783118Y-9548160D02*
X15786689Y-9544588D01*
X15786689Y-9544588D02*
X15786689Y-9551731D01*
X15761689Y-9569588D02*
X15733118Y-9569588D01*
X15750975Y-9544588D02*
X15750975Y-9608874D01*
X15750975Y-9608874D02*
X15747404Y-9616017D01*
X15747404Y-9616017D02*
X15740261Y-9619588D01*
X15740261Y-9619588D02*
X15733118Y-9619588D01*
X15708118Y-9619588D02*
X15708118Y-9544588D01*
X15675975Y-9619588D02*
X15675975Y-9580302D01*
X15675975Y-9580302D02*
X15679547Y-9573160D01*
X15679547Y-9573160D02*
X15686689Y-9569588D01*
X15686689Y-9569588D02*
X15697404Y-9569588D01*
X15697404Y-9569588D02*
X15704547Y-9573160D01*
X15704547Y-9573160D02*
X15708118Y-9576731D01*
X15583118Y-9619588D02*
X15583118Y-9544588D01*
X15540261Y-9619588D02*
X15572404Y-9576731D01*
X15540261Y-9544588D02*
X15583118Y-9587445D01*
X15508118Y-9619588D02*
X15508118Y-9569588D01*
X15508118Y-9544588D02*
X15511689Y-9548160D01*
X15511689Y-9548160D02*
X15508118Y-9551731D01*
X15508118Y-9551731D02*
X15504547Y-9548160D01*
X15504547Y-9548160D02*
X15508118Y-9544588D01*
X15508118Y-9544588D02*
X15508118Y-9551731D01*
X15429547Y-9612445D02*
X15433118Y-9616017D01*
X15433118Y-9616017D02*
X15443832Y-9619588D01*
X15443832Y-9619588D02*
X15450975Y-9619588D01*
X15450975Y-9619588D02*
X15461689Y-9616017D01*
X15461689Y-9616017D02*
X15468832Y-9608874D01*
X15468832Y-9608874D02*
X15472404Y-9601731D01*
X15472404Y-9601731D02*
X15475975Y-9587445D01*
X15475975Y-9587445D02*
X15475975Y-9576731D01*
X15475975Y-9576731D02*
X15472404Y-9562445D01*
X15472404Y-9562445D02*
X15468832Y-9555302D01*
X15468832Y-9555302D02*
X15461689Y-9548160D01*
X15461689Y-9548160D02*
X15450975Y-9544588D01*
X15450975Y-9544588D02*
X15443832Y-9544588D01*
X15443832Y-9544588D02*
X15433118Y-9548160D01*
X15433118Y-9548160D02*
X15429547Y-9551731D01*
X15365261Y-9619588D02*
X15365261Y-9580302D01*
X15365261Y-9580302D02*
X15368832Y-9573160D01*
X15368832Y-9573160D02*
X15375975Y-9569588D01*
X15375975Y-9569588D02*
X15390261Y-9569588D01*
X15390261Y-9569588D02*
X15397404Y-9573160D01*
X15365261Y-9616017D02*
X15372404Y-9619588D01*
X15372404Y-9619588D02*
X15390261Y-9619588D01*
X15390261Y-9619588D02*
X15397404Y-9616017D01*
X15397404Y-9616017D02*
X15400975Y-9608874D01*
X15400975Y-9608874D02*
X15400975Y-9601731D01*
X15400975Y-9601731D02*
X15397404Y-9594588D01*
X15397404Y-9594588D02*
X15390261Y-9591017D01*
X15390261Y-9591017D02*
X15372404Y-9591017D01*
X15372404Y-9591017D02*
X15365261Y-9587445D01*
X15297404Y-9619588D02*
X15297404Y-9544588D01*
X15297404Y-9616017D02*
X15304547Y-9619588D01*
X15304547Y-9619588D02*
X15318832Y-9619588D01*
X15318832Y-9619588D02*
X15325975Y-9616017D01*
X15325975Y-9616017D02*
X15329547Y-9612445D01*
X15329547Y-9612445D02*
X15333118Y-9605302D01*
X15333118Y-9605302D02*
X15333118Y-9583874D01*
X15333118Y-9583874D02*
X15329547Y-9576731D01*
X15329547Y-9576731D02*
X15325975Y-9573160D01*
X15325975Y-9573160D02*
X15318832Y-9569588D01*
X15318832Y-9569588D02*
X15304547Y-9569588D01*
X15304547Y-9569588D02*
X15297404Y-9573160D01*
X15211690Y-9569588D02*
X15193832Y-9619588D01*
X15193832Y-9619588D02*
X15175975Y-9569588D01*
X15108118Y-9619588D02*
X15150975Y-9619588D01*
X15129547Y-9619588D02*
X15129547Y-9544588D01*
X15129547Y-9544588D02*
X15136689Y-9555302D01*
X15136689Y-9555302D02*
X15143832Y-9562445D01*
X15143832Y-9562445D02*
X15150975Y-9566017D01*
X15061689Y-9544588D02*
X15054547Y-9544588D01*
X15054547Y-9544588D02*
X15047404Y-9548160D01*
X15047404Y-9548160D02*
X15043832Y-9551731D01*
X15043832Y-9551731D02*
X15040261Y-9558874D01*
X15040261Y-9558874D02*
X15036689Y-9573160D01*
X15036689Y-9573160D02*
X15036689Y-9591017D01*
X15036689Y-9591017D02*
X15040261Y-9605302D01*
X15040261Y-9605302D02*
X15043832Y-9612445D01*
X15043832Y-9612445D02*
X15047404Y-9616017D01*
X15047404Y-9616017D02*
X15054547Y-9619588D01*
X15054547Y-9619588D02*
X15061689Y-9619588D01*
X15061689Y-9619588D02*
X15068832Y-9616017D01*
X15068832Y-9616017D02*
X15072404Y-9612445D01*
X15072404Y-9612445D02*
X15075975Y-9605302D01*
X15075975Y-9605302D02*
X15079547Y-9591017D01*
X15079547Y-9591017D02*
X15079547Y-9573160D01*
X15079547Y-9573160D02*
X15075975Y-9558874D01*
X15075975Y-9558874D02*
X15072404Y-9551731D01*
X15072404Y-9551731D02*
X15068832Y-9548160D01*
X15068832Y-9548160D02*
X15061689Y-9544588D01*
X16425975Y-9740334D02*
X16425975Y-9665334D01*
X16393832Y-9740334D02*
X16393832Y-9701048D01*
X16393832Y-9701048D02*
X16397404Y-9693905D01*
X16397404Y-9693905D02*
X16404546Y-9690334D01*
X16404546Y-9690334D02*
X16415261Y-9690334D01*
X16415261Y-9690334D02*
X16422404Y-9693905D01*
X16422404Y-9693905D02*
X16425975Y-9697477D01*
X16368832Y-9690334D02*
X16340261Y-9690334D01*
X16358118Y-9665334D02*
X16358118Y-9729620D01*
X16358118Y-9729620D02*
X16354547Y-9736763D01*
X16354547Y-9736763D02*
X16347404Y-9740334D01*
X16347404Y-9740334D02*
X16340261Y-9740334D01*
X16325975Y-9690334D02*
X16297404Y-9690334D01*
X16315261Y-9665334D02*
X16315261Y-9729620D01*
X16315261Y-9729620D02*
X16311689Y-9736763D01*
X16311689Y-9736763D02*
X16304547Y-9740334D01*
X16304547Y-9740334D02*
X16297404Y-9740334D01*
X16272404Y-9690334D02*
X16272404Y-9765334D01*
X16272404Y-9693905D02*
X16265261Y-9690334D01*
X16265261Y-9690334D02*
X16250975Y-9690334D01*
X16250975Y-9690334D02*
X16243832Y-9693905D01*
X16243832Y-9693905D02*
X16240261Y-9697477D01*
X16240261Y-9697477D02*
X16236689Y-9704620D01*
X16236689Y-9704620D02*
X16236689Y-9726048D01*
X16236689Y-9726048D02*
X16240261Y-9733191D01*
X16240261Y-9733191D02*
X16243832Y-9736763D01*
X16243832Y-9736763D02*
X16250975Y-9740334D01*
X16250975Y-9740334D02*
X16265261Y-9740334D01*
X16265261Y-9740334D02*
X16272404Y-9736763D01*
X16208118Y-9736763D02*
X16200975Y-9740334D01*
X16200975Y-9740334D02*
X16186690Y-9740334D01*
X16186690Y-9740334D02*
X16179547Y-9736763D01*
X16179547Y-9736763D02*
X16175975Y-9729620D01*
X16175975Y-9729620D02*
X16175975Y-9726048D01*
X16175975Y-9726048D02*
X16179547Y-9718905D01*
X16179547Y-9718905D02*
X16186690Y-9715334D01*
X16186690Y-9715334D02*
X16197404Y-9715334D01*
X16197404Y-9715334D02*
X16204547Y-9711763D01*
X16204547Y-9711763D02*
X16208118Y-9704620D01*
X16208118Y-9704620D02*
X16208118Y-9701048D01*
X16208118Y-9701048D02*
X16204547Y-9693905D01*
X16204547Y-9693905D02*
X16197404Y-9690334D01*
X16197404Y-9690334D02*
X16186690Y-9690334D01*
X16186690Y-9690334D02*
X16179547Y-9693905D01*
X16143832Y-9733191D02*
X16140261Y-9736763D01*
X16140261Y-9736763D02*
X16143832Y-9740334D01*
X16143832Y-9740334D02*
X16147404Y-9736763D01*
X16147404Y-9736763D02*
X16143832Y-9733191D01*
X16143832Y-9733191D02*
X16143832Y-9740334D01*
X16143832Y-9693905D02*
X16140261Y-9697477D01*
X16140261Y-9697477D02*
X16143832Y-9701048D01*
X16143832Y-9701048D02*
X16147404Y-9697477D01*
X16147404Y-9697477D02*
X16143832Y-9693905D01*
X16143832Y-9693905D02*
X16143832Y-9701048D01*
X16054547Y-9661763D02*
X16118832Y-9758191D01*
X15975975Y-9661763D02*
X16040261Y-9758191D01*
X15918832Y-9690334D02*
X15918832Y-9751048D01*
X15918832Y-9751048D02*
X15922404Y-9758191D01*
X15922404Y-9758191D02*
X15925975Y-9761763D01*
X15925975Y-9761763D02*
X15933118Y-9765334D01*
X15933118Y-9765334D02*
X15943832Y-9765334D01*
X15943832Y-9765334D02*
X15950975Y-9761763D01*
X15918832Y-9736763D02*
X15925975Y-9740334D01*
X15925975Y-9740334D02*
X15940261Y-9740334D01*
X15940261Y-9740334D02*
X15947404Y-9736763D01*
X15947404Y-9736763D02*
X15950975Y-9733191D01*
X15950975Y-9733191D02*
X15954547Y-9726048D01*
X15954547Y-9726048D02*
X15954547Y-9704620D01*
X15954547Y-9704620D02*
X15950975Y-9697477D01*
X15950975Y-9697477D02*
X15947404Y-9693905D01*
X15947404Y-9693905D02*
X15940261Y-9690334D01*
X15940261Y-9690334D02*
X15925975Y-9690334D01*
X15925975Y-9690334D02*
X15918832Y-9693905D01*
X15883118Y-9740334D02*
X15883118Y-9690334D01*
X15883118Y-9665334D02*
X15886690Y-9668905D01*
X15886690Y-9668905D02*
X15883118Y-9672477D01*
X15883118Y-9672477D02*
X15879547Y-9668905D01*
X15879547Y-9668905D02*
X15883118Y-9665334D01*
X15883118Y-9665334D02*
X15883118Y-9672477D01*
X15858118Y-9690334D02*
X15829547Y-9690334D01*
X15847404Y-9665334D02*
X15847404Y-9729620D01*
X15847404Y-9729620D02*
X15843832Y-9736763D01*
X15843832Y-9736763D02*
X15836690Y-9740334D01*
X15836690Y-9740334D02*
X15829547Y-9740334D01*
X15804547Y-9740334D02*
X15804547Y-9665334D01*
X15772404Y-9740334D02*
X15772404Y-9701048D01*
X15772404Y-9701048D02*
X15775975Y-9693905D01*
X15775975Y-9693905D02*
X15783118Y-9690334D01*
X15783118Y-9690334D02*
X15793832Y-9690334D01*
X15793832Y-9690334D02*
X15800975Y-9693905D01*
X15800975Y-9693905D02*
X15804547Y-9697477D01*
X15704547Y-9690334D02*
X15704547Y-9740334D01*
X15736690Y-9690334D02*
X15736690Y-9729620D01*
X15736690Y-9729620D02*
X15733118Y-9736763D01*
X15733118Y-9736763D02*
X15725975Y-9740334D01*
X15725975Y-9740334D02*
X15715261Y-9740334D01*
X15715261Y-9740334D02*
X15708118Y-9736763D01*
X15708118Y-9736763D02*
X15704547Y-9733191D01*
X15668833Y-9740334D02*
X15668833Y-9665334D01*
X15668833Y-9693905D02*
X15661690Y-9690334D01*
X15661690Y-9690334D02*
X15647404Y-9690334D01*
X15647404Y-9690334D02*
X15640261Y-9693905D01*
X15640261Y-9693905D02*
X15636690Y-9697477D01*
X15636690Y-9697477D02*
X15633118Y-9704620D01*
X15633118Y-9704620D02*
X15633118Y-9726048D01*
X15633118Y-9726048D02*
X15636690Y-9733191D01*
X15636690Y-9733191D02*
X15640261Y-9736763D01*
X15640261Y-9736763D02*
X15647404Y-9740334D01*
X15647404Y-9740334D02*
X15661690Y-9740334D01*
X15661690Y-9740334D02*
X15668833Y-9736763D01*
X15600975Y-9733191D02*
X15597404Y-9736763D01*
X15597404Y-9736763D02*
X15600975Y-9740334D01*
X15600975Y-9740334D02*
X15604547Y-9736763D01*
X15604547Y-9736763D02*
X15600975Y-9733191D01*
X15600975Y-9733191D02*
X15600975Y-9740334D01*
X15533118Y-9736763D02*
X15540261Y-9740334D01*
X15540261Y-9740334D02*
X15554547Y-9740334D01*
X15554547Y-9740334D02*
X15561690Y-9736763D01*
X15561690Y-9736763D02*
X15565261Y-9733191D01*
X15565261Y-9733191D02*
X15568833Y-9726048D01*
X15568833Y-9726048D02*
X15568833Y-9704620D01*
X15568833Y-9704620D02*
X15565261Y-9697477D01*
X15565261Y-9697477D02*
X15561690Y-9693905D01*
X15561690Y-9693905D02*
X15554547Y-9690334D01*
X15554547Y-9690334D02*
X15540261Y-9690334D01*
X15540261Y-9690334D02*
X15533118Y-9693905D01*
X15490261Y-9740334D02*
X15497404Y-9736763D01*
X15497404Y-9736763D02*
X15500975Y-9733191D01*
X15500975Y-9733191D02*
X15504547Y-9726048D01*
X15504547Y-9726048D02*
X15504547Y-9704620D01*
X15504547Y-9704620D02*
X15500975Y-9697477D01*
X15500975Y-9697477D02*
X15497404Y-9693905D01*
X15497404Y-9693905D02*
X15490261Y-9690334D01*
X15490261Y-9690334D02*
X15479547Y-9690334D01*
X15479547Y-9690334D02*
X15472404Y-9693905D01*
X15472404Y-9693905D02*
X15468833Y-9697477D01*
X15468833Y-9697477D02*
X15465261Y-9704620D01*
X15465261Y-9704620D02*
X15465261Y-9726048D01*
X15465261Y-9726048D02*
X15468833Y-9733191D01*
X15468833Y-9733191D02*
X15472404Y-9736763D01*
X15472404Y-9736763D02*
X15479547Y-9740334D01*
X15479547Y-9740334D02*
X15490261Y-9740334D01*
X15433118Y-9740334D02*
X15433118Y-9690334D01*
X15433118Y-9697477D02*
X15429547Y-9693905D01*
X15429547Y-9693905D02*
X15422404Y-9690334D01*
X15422404Y-9690334D02*
X15411690Y-9690334D01*
X15411690Y-9690334D02*
X15404547Y-9693905D01*
X15404547Y-9693905D02*
X15400976Y-9701048D01*
X15400976Y-9701048D02*
X15400976Y-9740334D01*
X15400976Y-9701048D02*
X15397404Y-9693905D01*
X15397404Y-9693905D02*
X15390261Y-9690334D01*
X15390261Y-9690334D02*
X15379547Y-9690334D01*
X15379547Y-9690334D02*
X15372404Y-9693905D01*
X15372404Y-9693905D02*
X15368833Y-9701048D01*
X15368833Y-9701048D02*
X15368833Y-9740334D01*
X15279547Y-9661763D02*
X15343833Y-9758191D01*
X15254547Y-9740334D02*
X15254547Y-9665334D01*
X15254547Y-9701048D02*
X15211690Y-9701048D01*
X15211690Y-9740334D02*
X15211690Y-9665334D01*
X15143833Y-9740334D02*
X15143833Y-9701048D01*
X15143833Y-9701048D02*
X15147404Y-9693905D01*
X15147404Y-9693905D02*
X15154547Y-9690334D01*
X15154547Y-9690334D02*
X15168833Y-9690334D01*
X15168833Y-9690334D02*
X15175976Y-9693905D01*
X15143833Y-9736763D02*
X15150976Y-9740334D01*
X15150976Y-9740334D02*
X15168833Y-9740334D01*
X15168833Y-9740334D02*
X15175976Y-9736763D01*
X15175976Y-9736763D02*
X15179547Y-9729620D01*
X15179547Y-9729620D02*
X15179547Y-9722477D01*
X15179547Y-9722477D02*
X15175976Y-9715334D01*
X15175976Y-9715334D02*
X15168833Y-9711763D01*
X15168833Y-9711763D02*
X15150976Y-9711763D01*
X15150976Y-9711763D02*
X15143833Y-9708191D01*
X15108118Y-9690334D02*
X15108118Y-9740334D01*
X15108118Y-9697477D02*
X15104547Y-9693905D01*
X15104547Y-9693905D02*
X15097404Y-9690334D01*
X15097404Y-9690334D02*
X15086690Y-9690334D01*
X15086690Y-9690334D02*
X15079547Y-9693905D01*
X15079547Y-9693905D02*
X15075976Y-9701048D01*
X15075976Y-9701048D02*
X15075976Y-9740334D01*
X15008119Y-9690334D02*
X15008119Y-9765334D01*
X15008119Y-9736763D02*
X15015261Y-9740334D01*
X15015261Y-9740334D02*
X15029547Y-9740334D01*
X15029547Y-9740334D02*
X15036690Y-9736763D01*
X15036690Y-9736763D02*
X15040261Y-9733191D01*
X15040261Y-9733191D02*
X15043833Y-9726048D01*
X15043833Y-9726048D02*
X15043833Y-9704620D01*
X15043833Y-9704620D02*
X15040261Y-9697477D01*
X15040261Y-9697477D02*
X15036690Y-9693905D01*
X15036690Y-9693905D02*
X15029547Y-9690334D01*
X15029547Y-9690334D02*
X15015261Y-9690334D01*
X15015261Y-9690334D02*
X15008119Y-9693905D01*
X14940261Y-9740334D02*
X14940261Y-9701048D01*
X14940261Y-9701048D02*
X14943833Y-9693905D01*
X14943833Y-9693905D02*
X14950976Y-9690334D01*
X14950976Y-9690334D02*
X14965261Y-9690334D01*
X14965261Y-9690334D02*
X14972404Y-9693905D01*
X14940261Y-9736763D02*
X14947404Y-9740334D01*
X14947404Y-9740334D02*
X14965261Y-9740334D01*
X14965261Y-9740334D02*
X14972404Y-9736763D01*
X14972404Y-9736763D02*
X14975976Y-9729620D01*
X14975976Y-9729620D02*
X14975976Y-9722477D01*
X14975976Y-9722477D02*
X14972404Y-9715334D01*
X14972404Y-9715334D02*
X14965261Y-9711763D01*
X14965261Y-9711763D02*
X14947404Y-9711763D01*
X14947404Y-9711763D02*
X14940261Y-9708191D01*
X14872404Y-9690334D02*
X14872404Y-9765334D01*
X14872404Y-9736763D02*
X14879547Y-9740334D01*
X14879547Y-9740334D02*
X14893833Y-9740334D01*
X14893833Y-9740334D02*
X14900976Y-9736763D01*
X14900976Y-9736763D02*
X14904547Y-9733191D01*
X14904547Y-9733191D02*
X14908119Y-9726048D01*
X14908119Y-9726048D02*
X14908119Y-9704620D01*
X14908119Y-9704620D02*
X14904547Y-9697477D01*
X14904547Y-9697477D02*
X14900976Y-9693905D01*
X14900976Y-9693905D02*
X14893833Y-9690334D01*
X14893833Y-9690334D02*
X14879547Y-9690334D01*
X14879547Y-9690334D02*
X14872404Y-9693905D01*
X14804547Y-9740334D02*
X14804547Y-9701048D01*
X14804547Y-9701048D02*
X14808119Y-9693905D01*
X14808119Y-9693905D02*
X14815261Y-9690334D01*
X14815261Y-9690334D02*
X14829547Y-9690334D01*
X14829547Y-9690334D02*
X14836690Y-9693905D01*
X14804547Y-9736763D02*
X14811690Y-9740334D01*
X14811690Y-9740334D02*
X14829547Y-9740334D01*
X14829547Y-9740334D02*
X14836690Y-9736763D01*
X14836690Y-9736763D02*
X14840261Y-9729620D01*
X14840261Y-9729620D02*
X14840261Y-9722477D01*
X14840261Y-9722477D02*
X14836690Y-9715334D01*
X14836690Y-9715334D02*
X14829547Y-9711763D01*
X14829547Y-9711763D02*
X14811690Y-9711763D01*
X14811690Y-9711763D02*
X14804547Y-9708191D01*
X14715262Y-9661763D02*
X14779547Y-9758191D01*
X14690262Y-9701048D02*
X14665262Y-9701048D01*
X14654547Y-9740334D02*
X14690262Y-9740334D01*
X14690262Y-9740334D02*
X14690262Y-9665334D01*
X14690262Y-9665334D02*
X14654547Y-9665334D01*
X14590262Y-9740334D02*
X14590262Y-9701048D01*
X14590262Y-9701048D02*
X14593833Y-9693905D01*
X14593833Y-9693905D02*
X14600976Y-9690334D01*
X14600976Y-9690334D02*
X14615262Y-9690334D01*
X14615262Y-9690334D02*
X14622404Y-9693905D01*
X14590262Y-9736763D02*
X14597404Y-9740334D01*
X14597404Y-9740334D02*
X14615262Y-9740334D01*
X14615262Y-9740334D02*
X14622404Y-9736763D01*
X14622404Y-9736763D02*
X14625976Y-9729620D01*
X14625976Y-9729620D02*
X14625976Y-9722477D01*
X14625976Y-9722477D02*
X14622404Y-9715334D01*
X14622404Y-9715334D02*
X14615262Y-9711763D01*
X14615262Y-9711763D02*
X14597404Y-9711763D01*
X14597404Y-9711763D02*
X14590262Y-9708191D01*
X14558119Y-9736763D02*
X14550976Y-9740334D01*
X14550976Y-9740334D02*
X14536690Y-9740334D01*
X14536690Y-9740334D02*
X14529547Y-9736763D01*
X14529547Y-9736763D02*
X14525976Y-9729620D01*
X14525976Y-9729620D02*
X14525976Y-9726048D01*
X14525976Y-9726048D02*
X14529547Y-9718905D01*
X14529547Y-9718905D02*
X14536690Y-9715334D01*
X14536690Y-9715334D02*
X14547405Y-9715334D01*
X14547405Y-9715334D02*
X14554547Y-9711763D01*
X14554547Y-9711763D02*
X14558119Y-9704620D01*
X14558119Y-9704620D02*
X14558119Y-9701048D01*
X14558119Y-9701048D02*
X14554547Y-9693905D01*
X14554547Y-9693905D02*
X14547405Y-9690334D01*
X14547405Y-9690334D02*
X14536690Y-9690334D01*
X14536690Y-9690334D02*
X14529547Y-9693905D01*
X14500976Y-9690334D02*
X14483119Y-9740334D01*
X14465262Y-9690334D02*
X14483119Y-9740334D01*
X14483119Y-9740334D02*
X14490262Y-9758191D01*
X14490262Y-9758191D02*
X14493833Y-9761763D01*
X14493833Y-9761763D02*
X14500976Y-9765334D01*
X14404547Y-9740334D02*
X14404547Y-9665334D01*
X14404547Y-9736763D02*
X14411690Y-9740334D01*
X14411690Y-9740334D02*
X14425976Y-9740334D01*
X14425976Y-9740334D02*
X14433119Y-9736763D01*
X14433119Y-9736763D02*
X14436690Y-9733191D01*
X14436690Y-9733191D02*
X14440262Y-9726048D01*
X14440262Y-9726048D02*
X14440262Y-9704620D01*
X14440262Y-9704620D02*
X14436690Y-9697477D01*
X14436690Y-9697477D02*
X14433119Y-9693905D01*
X14433119Y-9693905D02*
X14425976Y-9690334D01*
X14425976Y-9690334D02*
X14411690Y-9690334D01*
X14411690Y-9690334D02*
X14404547Y-9693905D01*
X14336690Y-9690334D02*
X14336690Y-9740334D01*
X14368833Y-9690334D02*
X14368833Y-9729620D01*
X14368833Y-9729620D02*
X14365262Y-9736763D01*
X14365262Y-9736763D02*
X14358119Y-9740334D01*
X14358119Y-9740334D02*
X14347404Y-9740334D01*
X14347404Y-9740334D02*
X14340262Y-9736763D01*
X14340262Y-9736763D02*
X14336690Y-9733191D01*
X14300976Y-9740334D02*
X14300976Y-9690334D01*
X14300976Y-9665334D02*
X14304547Y-9668905D01*
X14304547Y-9668905D02*
X14300976Y-9672477D01*
X14300976Y-9672477D02*
X14297405Y-9668905D01*
X14297405Y-9668905D02*
X14300976Y-9665334D01*
X14300976Y-9665334D02*
X14300976Y-9672477D01*
X14265262Y-9690334D02*
X14265262Y-9740334D01*
X14265262Y-9697477D02*
X14261690Y-9693905D01*
X14261690Y-9693905D02*
X14254547Y-9690334D01*
X14254547Y-9690334D02*
X14243833Y-9690334D01*
X14243833Y-9690334D02*
X14236690Y-9693905D01*
X14236690Y-9693905D02*
X14233119Y-9701048D01*
X14233119Y-9701048D02*
X14233119Y-9740334D01*
X14186690Y-9740334D02*
X14193833Y-9736763D01*
X14193833Y-9736763D02*
X14197405Y-9733191D01*
X14197405Y-9733191D02*
X14200976Y-9726048D01*
X14200976Y-9726048D02*
X14200976Y-9704620D01*
X14200976Y-9704620D02*
X14197405Y-9697477D01*
X14197405Y-9697477D02*
X14193833Y-9693905D01*
X14193833Y-9693905D02*
X14186690Y-9690334D01*
X14186690Y-9690334D02*
X14175976Y-9690334D01*
X14175976Y-9690334D02*
X14168833Y-9693905D01*
X14168833Y-9693905D02*
X14165262Y-9697477D01*
X14165262Y-9697477D02*
X14161690Y-9704620D01*
X14161690Y-9704620D02*
X14161690Y-9726048D01*
X14161690Y-9726048D02*
X14165262Y-9733191D01*
X14165262Y-9733191D02*
X14168833Y-9736763D01*
X14168833Y-9736763D02*
X14175976Y-9740334D01*
X14175976Y-9740334D02*
X14186690Y-9740334D01*
D11*
X17723465Y-9886653D02*
X17723465Y-9816653D01*
X17723465Y-9816653D02*
X17700132Y-9866653D01*
X17700132Y-9866653D02*
X17676798Y-9816653D01*
X17676798Y-9816653D02*
X17676798Y-9886653D01*
X17630132Y-9816653D02*
X17616798Y-9816653D01*
X17616798Y-9816653D02*
X17610132Y-9819987D01*
X17610132Y-9819987D02*
X17603465Y-9826653D01*
X17603465Y-9826653D02*
X17600132Y-9839987D01*
X17600132Y-9839987D02*
X17600132Y-9863320D01*
X17600132Y-9863320D02*
X17603465Y-9876653D01*
X17603465Y-9876653D02*
X17610132Y-9883320D01*
X17610132Y-9883320D02*
X17616798Y-9886653D01*
X17616798Y-9886653D02*
X17630132Y-9886653D01*
X17630132Y-9886653D02*
X17636798Y-9883320D01*
X17636798Y-9883320D02*
X17643465Y-9876653D01*
X17643465Y-9876653D02*
X17646798Y-9863320D01*
X17646798Y-9863320D02*
X17646798Y-9839987D01*
X17646798Y-9839987D02*
X17643465Y-9826653D01*
X17643465Y-9826653D02*
X17636798Y-9819987D01*
X17636798Y-9819987D02*
X17630132Y-9816653D01*
X17573465Y-9883320D02*
X17563465Y-9886653D01*
X17563465Y-9886653D02*
X17546798Y-9886653D01*
X17546798Y-9886653D02*
X17540132Y-9883320D01*
X17540132Y-9883320D02*
X17536798Y-9879987D01*
X17536798Y-9879987D02*
X17533465Y-9873320D01*
X17533465Y-9873320D02*
X17533465Y-9866653D01*
X17533465Y-9866653D02*
X17536798Y-9859987D01*
X17536798Y-9859987D02*
X17540132Y-9856653D01*
X17540132Y-9856653D02*
X17546798Y-9853320D01*
X17546798Y-9853320D02*
X17560132Y-9849987D01*
X17560132Y-9849987D02*
X17566798Y-9846653D01*
X17566798Y-9846653D02*
X17570132Y-9843320D01*
X17570132Y-9843320D02*
X17573465Y-9836653D01*
X17573465Y-9836653D02*
X17573465Y-9829987D01*
X17573465Y-9829987D02*
X17570132Y-9823320D01*
X17570132Y-9823320D02*
X17566798Y-9819987D01*
X17566798Y-9819987D02*
X17560132Y-9816653D01*
X17560132Y-9816653D02*
X17543465Y-9816653D01*
X17543465Y-9816653D02*
X17533465Y-9819987D01*
X17503465Y-9886653D02*
X17503465Y-9816653D01*
X17743465Y-9566653D02*
X17720132Y-9636653D01*
X17720132Y-9636653D02*
X17696798Y-9566653D01*
X17633465Y-9629987D02*
X17636798Y-9633320D01*
X17636798Y-9633320D02*
X17646798Y-9636653D01*
X17646798Y-9636653D02*
X17653465Y-9636653D01*
X17653465Y-9636653D02*
X17663465Y-9633320D01*
X17663465Y-9633320D02*
X17670132Y-9626653D01*
X17670132Y-9626653D02*
X17673465Y-9619987D01*
X17673465Y-9619987D02*
X17676798Y-9606653D01*
X17676798Y-9606653D02*
X17676798Y-9596653D01*
X17676798Y-9596653D02*
X17673465Y-9583320D01*
X17673465Y-9583320D02*
X17670132Y-9576653D01*
X17670132Y-9576653D02*
X17663465Y-9569987D01*
X17663465Y-9569987D02*
X17653465Y-9566653D01*
X17653465Y-9566653D02*
X17646798Y-9566653D01*
X17646798Y-9566653D02*
X17636798Y-9569987D01*
X17636798Y-9569987D02*
X17633465Y-9573320D01*
X17563465Y-9629987D02*
X17566798Y-9633320D01*
X17566798Y-9633320D02*
X17576798Y-9636653D01*
X17576798Y-9636653D02*
X17583465Y-9636653D01*
X17583465Y-9636653D02*
X17593465Y-9633320D01*
X17593465Y-9633320D02*
X17600132Y-9626653D01*
X17600132Y-9626653D02*
X17603465Y-9619987D01*
X17603465Y-9619987D02*
X17606798Y-9606653D01*
X17606798Y-9606653D02*
X17606798Y-9596653D01*
X17606798Y-9596653D02*
X17603465Y-9583320D01*
X17603465Y-9583320D02*
X17600132Y-9576653D01*
X17600132Y-9576653D02*
X17593465Y-9569987D01*
X17593465Y-9569987D02*
X17583465Y-9566653D01*
X17583465Y-9566653D02*
X17576798Y-9566653D01*
X17576798Y-9566653D02*
X17566798Y-9569987D01*
X17566798Y-9569987D02*
X17563465Y-9573320D01*
X17696798Y-10089987D02*
X17703465Y-10086653D01*
X17703465Y-10086653D02*
X17713465Y-10086653D01*
X17713465Y-10086653D02*
X17723465Y-10089987D01*
X17723465Y-10089987D02*
X17730132Y-10096653D01*
X17730132Y-10096653D02*
X17733465Y-10103320D01*
X17733465Y-10103320D02*
X17736798Y-10116653D01*
X17736798Y-10116653D02*
X17736798Y-10126653D01*
X17736798Y-10126653D02*
X17733465Y-10139987D01*
X17733465Y-10139987D02*
X17730132Y-10146653D01*
X17730132Y-10146653D02*
X17723465Y-10153320D01*
X17723465Y-10153320D02*
X17713465Y-10156653D01*
X17713465Y-10156653D02*
X17706798Y-10156653D01*
X17706798Y-10156653D02*
X17696798Y-10153320D01*
X17696798Y-10153320D02*
X17693465Y-10149987D01*
X17693465Y-10149987D02*
X17693465Y-10126653D01*
X17693465Y-10126653D02*
X17706798Y-10126653D01*
X17663465Y-10156653D02*
X17663465Y-10086653D01*
X17663465Y-10086653D02*
X17623465Y-10156653D01*
X17623465Y-10156653D02*
X17623465Y-10086653D01*
X17590132Y-10156653D02*
X17590132Y-10086653D01*
X17590132Y-10086653D02*
X17573465Y-10086653D01*
X17573465Y-10086653D02*
X17563465Y-10089987D01*
X17563465Y-10089987D02*
X17556798Y-10096653D01*
X17556798Y-10096653D02*
X17553465Y-10103320D01*
X17553465Y-10103320D02*
X17550132Y-10116653D01*
X17550132Y-10116653D02*
X17550132Y-10126653D01*
X17550132Y-10126653D02*
X17553465Y-10139987D01*
X17553465Y-10139987D02*
X17556798Y-10146653D01*
X17556798Y-10146653D02*
X17563465Y-10153320D01*
X17563465Y-10153320D02*
X17573465Y-10156653D01*
X17573465Y-10156653D02*
X17590132Y-10156653D01*
X18176322Y-9402982D02*
X18176322Y-9302982D01*
X18071560Y-9393458D02*
X18076322Y-9398220D01*
X18076322Y-9398220D02*
X18090608Y-9402982D01*
X18090608Y-9402982D02*
X18100132Y-9402982D01*
X18100132Y-9402982D02*
X18114417Y-9398220D01*
X18114417Y-9398220D02*
X18123941Y-9388696D01*
X18123941Y-9388696D02*
X18128703Y-9379172D01*
X18128703Y-9379172D02*
X18133465Y-9360125D01*
X18133465Y-9360125D02*
X18133465Y-9345839D01*
X18133465Y-9345839D02*
X18128703Y-9326791D01*
X18128703Y-9326791D02*
X18123941Y-9317268D01*
X18123941Y-9317268D02*
X18114417Y-9307744D01*
X18114417Y-9307744D02*
X18100132Y-9302982D01*
X18100132Y-9302982D02*
X18090608Y-9302982D01*
X18090608Y-9302982D02*
X18076322Y-9307744D01*
X18076322Y-9307744D02*
X18071560Y-9312506D01*
X18033465Y-9398220D02*
X18019179Y-9402982D01*
X18019179Y-9402982D02*
X17995370Y-9402982D01*
X17995370Y-9402982D02*
X17985846Y-9398220D01*
X17985846Y-9398220D02*
X17981084Y-9393458D01*
X17981084Y-9393458D02*
X17976322Y-9383934D01*
X17976322Y-9383934D02*
X17976322Y-9374410D01*
X17976322Y-9374410D02*
X17981084Y-9364887D01*
X17981084Y-9364887D02*
X17985846Y-9360125D01*
X17985846Y-9360125D02*
X17995370Y-9355363D01*
X17995370Y-9355363D02*
X18014417Y-9350601D01*
X18014417Y-9350601D02*
X18023941Y-9345839D01*
X18023941Y-9345839D02*
X18028703Y-9341077D01*
X18028703Y-9341077D02*
X18033465Y-9331553D01*
X18033465Y-9331553D02*
X18033465Y-9322030D01*
X18033465Y-9322030D02*
X18028703Y-9312506D01*
X18028703Y-9312506D02*
X18023941Y-9307744D01*
X18023941Y-9307744D02*
X18014417Y-9302982D01*
X18014417Y-9302982D02*
X17990608Y-9302982D01*
X17990608Y-9302982D02*
X17976322Y-9307744D01*
X17933465Y-9402982D02*
X17933465Y-9302982D01*
X17933465Y-9302982D02*
X17895370Y-9302982D01*
X17895370Y-9302982D02*
X17885846Y-9307744D01*
X17885846Y-9307744D02*
X17881084Y-9312506D01*
X17881084Y-9312506D02*
X17876322Y-9322030D01*
X17876322Y-9322030D02*
X17876322Y-9336315D01*
X17876322Y-9336315D02*
X17881084Y-9345839D01*
X17881084Y-9345839D02*
X17885846Y-9350601D01*
X17885846Y-9350601D02*
X17895370Y-9355363D01*
X17895370Y-9355363D02*
X17933465Y-9355363D01*
M02*
