%TF.GenerationSoftware,KiCad,Pcbnew,10.0.0*%
%TF.CreationDate,2026-04-11T10:05:01+02:00*%
%TF.ProjectId,Easyduino_Atmega_Nano,45617379-6475-4696-9e6f-5f41746d6567,rev?*%
%TF.SameCoordinates,Original*%
%TF.FileFunction,Soldermask,Top*%
%TF.FilePolarity,Negative*%
%FSLAX45Y45*%
G04 Gerber Fmt 4.5, Leading zero omitted, Abs format (unit mm)*
G04 Created by KiCad (PCBNEW 10.0.0) date 2026-04-11 10:05:01*
%MOMM*%
%LPD*%
G01*
G04 APERTURE LIST*
G04 Aperture macros list*
%AMRoundRect*
0 Rectangle with rounded corners*
0 $1 Rounding radius*
0 $2 $3 $4 $5 $6 $7 $8 $9 X,Y pos of 4 corners*
0 Add a 4 corners polygon primitive as box body*
4,1,4,$2,$3,$4,$5,$6,$7,$8,$9,$2,$3,0*
0 Add four circle primitives for the rounded corners*
1,1,$1+$1,$2,$3*
1,1,$1+$1,$4,$5*
1,1,$1+$1,$6,$7*
1,1,$1+$1,$8,$9*
0 Add four rect primitives between the rounded corners*
20,1,$1+$1,$2,$3,$4,$5,0*
20,1,$1+$1,$4,$5,$6,$7,0*
20,1,$1+$1,$6,$7,$8,$9,0*
20,1,$1+$1,$8,$9,$2,$3,0*%
G04 Aperture macros list end*
%ADD10RoundRect,0.140000X-0.219203X-0.021213X-0.021213X-0.219203X0.219203X0.021213X0.021213X0.219203X0*%
%ADD11RoundRect,0.140000X0.140000X0.170000X-0.140000X0.170000X-0.140000X-0.170000X0.140000X-0.170000X0*%
%ADD12RoundRect,0.140000X0.219203X0.021213X0.021213X0.219203X-0.219203X-0.021213X-0.021213X-0.219203X0*%
%ADD13RoundRect,0.135000X0.135000X0.185000X-0.135000X0.185000X-0.135000X-0.185000X0.135000X-0.185000X0*%
%ADD14RoundRect,0.140000X-0.140000X-0.170000X0.140000X-0.170000X0.140000X0.170000X-0.140000X0.170000X0*%
%ADD15C,1.780000*%
%ADD16C,1.600000*%
%ADD17O,1.600000X1.600000*%
%ADD18C,0.650000*%
%ADD19RoundRect,0.150000X-0.470000X0.150000X-0.470000X-0.150000X0.470000X-0.150000X0.470000X0.150000X0*%
%ADD20RoundRect,0.075000X-0.545000X0.075000X-0.545000X-0.075000X0.545000X-0.075000X0.545000X0.075000X0*%
%ADD21O,2.100000X1.000000*%
%ADD22O,1.800000X1.000000*%
%ADD23RoundRect,0.062500X-0.337500X-0.062500X0.337500X-0.062500X0.337500X0.062500X-0.337500X0.062500X0*%
%ADD24RoundRect,0.062500X-0.062500X-0.337500X0.062500X-0.337500X0.062500X0.337500X-0.062500X0.337500X0*%
%ADD25R,3.350000X3.350000*%
%ADD26RoundRect,0.135000X-0.185000X0.135000X-0.185000X-0.135000X0.185000X-0.135000X0.185000X0.135000X0*%
%ADD27RoundRect,0.135000X-0.135000X-0.185000X0.135000X-0.185000X0.135000X0.185000X-0.135000X0.185000X0*%
%ADD28RoundRect,0.147500X0.147500X0.172500X-0.147500X0.172500X-0.147500X-0.172500X0.147500X-0.172500X0*%
%ADD29R,1.000000X1.250000*%
%ADD30RoundRect,0.150000X0.512500X0.150000X-0.512500X0.150000X-0.512500X-0.150000X0.512500X-0.150000X0*%
%ADD31RoundRect,0.250000X0.070711X0.565685X-0.565685X-0.070711X-0.070711X-0.565685X0.565685X0.070711X0*%
%ADD32RoundRect,0.137500X0.327037X0.521491X-0.521491X-0.327037X-0.327037X-0.521491X0.521491X0.327037X0*%
%ADD33RoundRect,0.137500X-0.327037X0.521491X-0.521491X0.327037X0.327037X-0.521491X0.521491X-0.327037X0*%
%ADD34RoundRect,0.135000X0.185000X-0.135000X0.185000X0.135000X-0.185000X0.135000X-0.185000X-0.135000X0*%
%ADD35RoundRect,0.140000X-0.170000X0.140000X-0.170000X-0.140000X0.170000X-0.140000X0.170000X0.140000X0*%
G04 APERTURE END LIST*
D10*
%TO.C,C10*%
X17215000Y-9334000D03*
X17282882Y-9401882D03*
%TD*%
D11*
%TO.C,C11*%
X15274000Y-10343000D03*
X15178000Y-10343000D03*
%TD*%
D10*
%TO.C,C6*%
X17368000Y-9332000D03*
X17435882Y-9399882D03*
%TD*%
D12*
%TO.C,C5*%
X17247882Y-9531882D03*
X17180000Y-9464000D03*
%TD*%
D13*
%TO.C,R6*%
X15694000Y-9807000D03*
X15592000Y-9807000D03*
%TD*%
D11*
%TO.C,C3*%
X15049000Y-10341000D03*
X14953000Y-10341000D03*
%TD*%
D13*
%TO.C,R3*%
X15580000Y-9370000D03*
X15478000Y-9370000D03*
%TD*%
D14*
%TO.C,C4*%
X14904000Y-9340000D03*
X15000000Y-9340000D03*
%TD*%
D11*
%TO.C,C2*%
X15052000Y-10226000D03*
X14956000Y-10226000D03*
%TD*%
D15*
%TO.C,A1*%
X18161000Y-9088250D03*
X14097000Y-9088250D03*
X18161000Y-10612250D03*
X14097000Y-10612250D03*
D16*
X17907000Y-9088250D03*
D17*
X17653000Y-9088250D03*
X17399000Y-9088250D03*
X17145000Y-9088250D03*
X16891000Y-9088250D03*
X16637000Y-9088250D03*
X16383000Y-9088250D03*
X16129000Y-9088250D03*
X15875000Y-9088250D03*
X15621000Y-9088250D03*
X15367000Y-9088250D03*
X15113000Y-9088250D03*
X14859000Y-9088250D03*
X14605000Y-9088250D03*
X14351000Y-9088250D03*
X14351000Y-10612250D03*
X14605000Y-10612250D03*
X14859000Y-10612250D03*
X15113000Y-10612250D03*
X15367000Y-10612250D03*
X15621000Y-10612250D03*
X15875000Y-10612250D03*
X16129000Y-10612250D03*
X16383000Y-10612250D03*
X16637000Y-10612250D03*
X16891000Y-10612250D03*
X17145000Y-10612250D03*
X17399000Y-10612250D03*
X17653000Y-10612250D03*
X17907000Y-10612250D03*
%TD*%
D18*
%TO.C,J1*%
X14548000Y-9559000D03*
X14548000Y-10137000D03*
D19*
X14660000Y-9528000D03*
X14660000Y-9608000D03*
D20*
X14660000Y-9723000D03*
X14660000Y-9823000D03*
X14660000Y-9873000D03*
X14660000Y-9973000D03*
D19*
X14660000Y-10088000D03*
X14660000Y-10168000D03*
X14660000Y-10168000D03*
X14660000Y-10088000D03*
D20*
X14660000Y-10023000D03*
X14660000Y-9923000D03*
X14660000Y-9773000D03*
X14660000Y-9673000D03*
D19*
X14660000Y-9608000D03*
X14660000Y-9528000D03*
D21*
X14600000Y-9416000D03*
D22*
X14180000Y-9416000D03*
D21*
X14600000Y-10280000D03*
D22*
X14180000Y-10280000D03*
%TD*%
D23*
%TO.C,U3*%
X14960000Y-9590000D03*
X14960000Y-9640000D03*
X14960000Y-9690000D03*
X14960000Y-9740000D03*
X14960000Y-9790000D03*
X14960000Y-9840000D03*
X14960000Y-9890000D03*
D24*
X15055000Y-9985000D03*
X15105000Y-9985000D03*
X15155000Y-9985000D03*
X15205000Y-9985000D03*
X15255000Y-9985000D03*
X15305000Y-9985000D03*
X15355000Y-9985000D03*
D23*
X15450000Y-9890000D03*
X15450000Y-9840000D03*
X15450000Y-9790000D03*
X15450000Y-9740000D03*
X15450000Y-9690000D03*
X15450000Y-9640000D03*
X15450000Y-9590000D03*
D24*
X15355000Y-9495000D03*
X15305000Y-9495000D03*
X15255000Y-9495000D03*
X15205000Y-9495000D03*
X15155000Y-9495000D03*
X15105000Y-9495000D03*
X15055000Y-9495000D03*
D25*
X15205000Y-9740000D03*
%TD*%
D26*
%TO.C,R2*%
X14833000Y-10023000D03*
X14833000Y-10125000D03*
%TD*%
D12*
%TO.C,C7*%
X16198882Y-10182882D03*
X16131000Y-10115000D03*
%TD*%
D27*
%TO.C,R5*%
X17590000Y-10278000D03*
X17692000Y-10278000D03*
%TD*%
D12*
%TO.C,C9*%
X17106000Y-9391000D03*
X17038118Y-9323118D03*
%TD*%
D28*
%TO.C,F1*%
X15275000Y-10119000D03*
X15178000Y-10119000D03*
%TD*%
D11*
%TO.C,C1*%
X15052000Y-10119000D03*
X14956000Y-10119000D03*
%TD*%
D29*
%TO.C,SW1*%
X18058000Y-9503500D03*
X18058000Y-10278500D03*
%TD*%
D28*
%TO.C,D2*%
X15274000Y-10228000D03*
X15177000Y-10228000D03*
%TD*%
%TO.C,D3*%
X15902000Y-9965000D03*
X15805000Y-9965000D03*
%TD*%
D10*
%TO.C,C8*%
X16273000Y-10251000D03*
X16340882Y-10318882D03*
%TD*%
D28*
%TO.C,D1*%
X15905000Y-9806000D03*
X15808000Y-9806000D03*
%TD*%
D27*
%TO.C,R4*%
X15238000Y-9340000D03*
X15340000Y-9340000D03*
%TD*%
D30*
%TO.C,U2*%
X15759000Y-10327000D03*
X15759000Y-10137000D03*
X15531500Y-10232000D03*
%TD*%
D13*
%TO.C,R7*%
X15691000Y-9964000D03*
X15589000Y-9964000D03*
%TD*%
D31*
%TO.C,Y1*%
X17618000Y-9416000D03*
X17462437Y-9571564D03*
X17582645Y-9691772D03*
X17738208Y-9536208D03*
%TD*%
D32*
%TO.C,U1*%
X17201422Y-9739030D03*
X17144854Y-9682461D03*
X17088285Y-9625893D03*
X17031717Y-9569324D03*
X16975148Y-9512756D03*
X16918579Y-9456187D03*
X16862011Y-9399619D03*
X16805442Y-9343050D03*
D33*
X16612756Y-9343050D03*
X16556187Y-9399619D03*
X16499619Y-9456187D03*
X16443050Y-9512756D03*
X16386481Y-9569324D03*
X16329913Y-9625893D03*
X16273344Y-9682461D03*
X16216776Y-9739030D03*
D32*
X16216776Y-9931717D03*
X16273344Y-9988285D03*
X16329913Y-10044854D03*
X16386481Y-10101422D03*
X16443050Y-10157991D03*
X16499619Y-10214559D03*
X16556187Y-10271128D03*
X16612756Y-10327696D03*
D33*
X16805442Y-10327696D03*
X16862011Y-10271128D03*
X16918579Y-10214559D03*
X16975148Y-10157991D03*
X17031717Y-10101422D03*
X17088285Y-10044854D03*
X17144854Y-9988285D03*
X17201422Y-9931717D03*
%TD*%
D34*
%TO.C,R1*%
X14833000Y-9693000D03*
X14833000Y-9591000D03*
%TD*%
D35*
%TO.C,C12*%
X15930000Y-10189000D03*
X15930000Y-10285000D03*
%TD*%
M02*
