%TF.GenerationSoftware,KiCad,Pcbnew,10.0.0*%
%TF.CreationDate,2026-04-11T10:05:01+02:00*%
%TF.ProjectId,Easyduino_Atmega_Nano,45617379-6475-4696-9e6f-5f41746d6567,rev?*%
%TF.SameCoordinates,Original*%
%TF.FileFunction,Soldermask,Bot*%
%TF.FilePolarity,Negative*%
%FSLAX45Y45*%
G04 Gerber Fmt 4.5, Leading zero omitted, Abs format (unit mm)*
G04 Created by KiCad (PCBNEW 10.0.0) date 2026-04-11 10:05:01*
%MOMM*%
%LPD*%
G01*
G04 APERTURE LIST*
%ADD10C,1.780000*%
%ADD11C,1.600000*%
%ADD12O,1.600000X1.600000*%
%ADD13C,0.650000*%
%ADD14O,2.100000X1.000000*%
%ADD15O,1.800000X1.000000*%
%ADD16C,1.700000*%
%ADD17O,1.700000X1.700000*%
G04 APERTURE END LIST*
D10*
%TO.C,A1*%
X18161000Y-9088250D03*
X14097000Y-9088250D03*
X18161000Y-10612250D03*
X14097000Y-10612250D03*
D11*
X17907000Y-9088250D03*
D12*
X17653000Y-9088250D03*
X17399000Y-9088250D03*
X17145000Y-9088250D03*
X16891000Y-9088250D03*
X16637000Y-9088250D03*
X16383000Y-9088250D03*
X16129000Y-9088250D03*
X15875000Y-9088250D03*
X15621000Y-9088250D03*
X15367000Y-9088250D03*
X15113000Y-9088250D03*
X14859000Y-9088250D03*
X14605000Y-9088250D03*
X14351000Y-9088250D03*
X14351000Y-10612250D03*
X14605000Y-10612250D03*
X14859000Y-10612250D03*
X15113000Y-10612250D03*
X15367000Y-10612250D03*
X15621000Y-10612250D03*
X15875000Y-10612250D03*
X16129000Y-10612250D03*
X16383000Y-10612250D03*
X16637000Y-10612250D03*
X16891000Y-10612250D03*
X17145000Y-10612250D03*
X17399000Y-10612250D03*
X17653000Y-10612250D03*
X17907000Y-10612250D03*
%TD*%
D13*
%TO.C,J1*%
X14548000Y-9559000D03*
X14548000Y-10137000D03*
D14*
X14600000Y-9416000D03*
D15*
X14180000Y-9416000D03*
D14*
X14600000Y-10280000D03*
D15*
X14180000Y-10280000D03*
%TD*%
D16*
%TO.C,J2*%
X18180000Y-9596000D03*
D17*
X17926000Y-9596000D03*
X18180000Y-9850000D03*
X17926000Y-9850000D03*
X18180000Y-10104000D03*
X17926000Y-10104000D03*
%TD*%
M02*
