%TF.GenerationSoftware,KiCad,Pcbnew,10.0.0*%
%TF.CreationDate,2026-04-11T10:05:01+02:00*%
%TF.ProjectId,Easyduino_Atmega_Nano,45617379-6475-4696-9e6f-5f41746d6567,rev?*%
%TF.SameCoordinates,Original*%
%TF.FileFunction,Legend,Top*%
%TF.FilePolarity,Positive*%
%FSLAX45Y45*%
G04 Gerber Fmt 4.5, Leading zero omitted, Abs format (unit mm)*
G04 Created by KiCad (PCBNEW 10.0.0) date 2026-04-11 10:05:01*
%MOMM*%
%LPD*%
G01*
G04 APERTURE LIST*
%ADD10C,0.375000*%
%ADD11C,0.175000*%
%ADD12C,0.150000*%
%ADD13C,0.187500*%
%ADD14C,0.200000*%
%ADD15C,0.120000*%
%ADD16C,0.100000*%
G04 APERTURE END LIST*
D10*
X14888750Y-9460000D02*
G75*
G02*
X14851250Y-9460000I-18750J0D01*
G01*
X14851250Y-9460000D02*
G75*
G02*
X14888750Y-9460000I18750J0D01*
G01*
X17368750Y-9850000D02*
G75*
G02*
X17331250Y-9850000I-18750J0D01*
G01*
X17331250Y-9850000D02*
G75*
G02*
X17368750Y-9850000I18750J0D01*
G01*
D11*
X15958180Y-9750523D02*
X15958180Y-9680523D01*
X15958180Y-9680523D02*
X15974846Y-9680523D01*
X15974846Y-9680523D02*
X15984846Y-9683857D01*
X15984846Y-9683857D02*
X15991513Y-9690523D01*
X15991513Y-9690523D02*
X15994846Y-9697190D01*
X15994846Y-9697190D02*
X15998180Y-9710523D01*
X15998180Y-9710523D02*
X15998180Y-9720523D01*
X15998180Y-9720523D02*
X15994846Y-9733857D01*
X15994846Y-9733857D02*
X15991513Y-9740523D01*
X15991513Y-9740523D02*
X15984846Y-9747190D01*
X15984846Y-9747190D02*
X15974846Y-9750523D01*
X15974846Y-9750523D02*
X15958180Y-9750523D01*
X16064846Y-9750523D02*
X16024846Y-9750523D01*
X16044846Y-9750523D02*
X16044846Y-9680523D01*
X16044846Y-9680523D02*
X16038180Y-9690523D01*
X16038180Y-9690523D02*
X16031513Y-9697190D01*
X16031513Y-9697190D02*
X16024846Y-9700523D01*
X16088180Y-9680523D02*
X16131513Y-9680523D01*
X16131513Y-9680523D02*
X16108180Y-9707190D01*
X16108180Y-9707190D02*
X16118180Y-9707190D01*
X16118180Y-9707190D02*
X16124846Y-9710523D01*
X16124846Y-9710523D02*
X16128180Y-9713857D01*
X16128180Y-9713857D02*
X16131513Y-9720523D01*
X16131513Y-9720523D02*
X16131513Y-9737190D01*
X16131513Y-9737190D02*
X16128180Y-9743857D01*
X16128180Y-9743857D02*
X16124846Y-9747190D01*
X16124846Y-9747190D02*
X16118180Y-9750523D01*
X16118180Y-9750523D02*
X16098180Y-9750523D01*
X16098180Y-9750523D02*
X16091513Y-9747190D01*
X16091513Y-9747190D02*
X16088180Y-9743857D01*
D12*
X14267725Y-9290041D02*
X14267725Y-9215041D01*
X14267725Y-9215041D02*
X14285583Y-9215041D01*
X14285583Y-9215041D02*
X14296297Y-9218613D01*
X14296297Y-9218613D02*
X14303440Y-9225756D01*
X14303440Y-9225756D02*
X14307011Y-9232899D01*
X14307011Y-9232899D02*
X14310583Y-9247184D01*
X14310583Y-9247184D02*
X14310583Y-9257899D01*
X14310583Y-9257899D02*
X14307011Y-9272184D01*
X14307011Y-9272184D02*
X14303440Y-9279327D01*
X14303440Y-9279327D02*
X14296297Y-9286470D01*
X14296297Y-9286470D02*
X14285583Y-9290041D01*
X14285583Y-9290041D02*
X14267725Y-9290041D01*
X14382011Y-9290041D02*
X14339154Y-9290041D01*
X14360583Y-9290041D02*
X14360583Y-9215041D01*
X14360583Y-9215041D02*
X14353440Y-9225756D01*
X14353440Y-9225756D02*
X14346297Y-9232899D01*
X14346297Y-9232899D02*
X14339154Y-9236470D01*
X14410583Y-9222184D02*
X14414154Y-9218613D01*
X14414154Y-9218613D02*
X14421297Y-9215041D01*
X14421297Y-9215041D02*
X14439154Y-9215041D01*
X14439154Y-9215041D02*
X14446297Y-9218613D01*
X14446297Y-9218613D02*
X14449868Y-9222184D01*
X14449868Y-9222184D02*
X14453440Y-9229327D01*
X14453440Y-9229327D02*
X14453440Y-9236470D01*
X14453440Y-9236470D02*
X14449868Y-9247184D01*
X14449868Y-9247184D02*
X14407011Y-9290041D01*
X14407011Y-9290041D02*
X14453440Y-9290041D01*
X14277725Y-10500041D02*
X14277725Y-10425041D01*
X14277725Y-10425041D02*
X14295583Y-10425041D01*
X14295583Y-10425041D02*
X14306297Y-10428613D01*
X14306297Y-10428613D02*
X14313440Y-10435756D01*
X14313440Y-10435756D02*
X14317011Y-10442899D01*
X14317011Y-10442899D02*
X14320583Y-10457184D01*
X14320583Y-10457184D02*
X14320583Y-10467899D01*
X14320583Y-10467899D02*
X14317011Y-10482184D01*
X14317011Y-10482184D02*
X14313440Y-10489327D01*
X14313440Y-10489327D02*
X14306297Y-10496470D01*
X14306297Y-10496470D02*
X14295583Y-10500041D01*
X14295583Y-10500041D02*
X14277725Y-10500041D01*
X14392011Y-10500041D02*
X14349154Y-10500041D01*
X14370583Y-10500041D02*
X14370583Y-10425041D01*
X14370583Y-10425041D02*
X14363440Y-10435756D01*
X14363440Y-10435756D02*
X14356297Y-10442899D01*
X14356297Y-10442899D02*
X14349154Y-10446470D01*
X14417011Y-10425041D02*
X14463440Y-10425041D01*
X14463440Y-10425041D02*
X14438440Y-10453613D01*
X14438440Y-10453613D02*
X14449154Y-10453613D01*
X14449154Y-10453613D02*
X14456297Y-10457184D01*
X14456297Y-10457184D02*
X14459868Y-10460756D01*
X14459868Y-10460756D02*
X14463440Y-10467899D01*
X14463440Y-10467899D02*
X14463440Y-10485756D01*
X14463440Y-10485756D02*
X14459868Y-10492899D01*
X14459868Y-10492899D02*
X14456297Y-10496470D01*
X14456297Y-10496470D02*
X14449154Y-10500041D01*
X14449154Y-10500041D02*
X14427725Y-10500041D01*
X14427725Y-10500041D02*
X14420583Y-10496470D01*
X14420583Y-10496470D02*
X14417011Y-10492899D01*
X14527725Y-9290041D02*
X14527725Y-9215041D01*
X14527725Y-9215041D02*
X14545583Y-9215041D01*
X14545583Y-9215041D02*
X14556297Y-9218613D01*
X14556297Y-9218613D02*
X14563440Y-9225756D01*
X14563440Y-9225756D02*
X14567011Y-9232899D01*
X14567011Y-9232899D02*
X14570583Y-9247184D01*
X14570583Y-9247184D02*
X14570583Y-9257899D01*
X14570583Y-9257899D02*
X14567011Y-9272184D01*
X14567011Y-9272184D02*
X14563440Y-9279327D01*
X14563440Y-9279327D02*
X14556297Y-9286470D01*
X14556297Y-9286470D02*
X14545583Y-9290041D01*
X14545583Y-9290041D02*
X14527725Y-9290041D01*
X14642011Y-9290041D02*
X14599154Y-9290041D01*
X14620583Y-9290041D02*
X14620583Y-9215041D01*
X14620583Y-9215041D02*
X14613440Y-9225756D01*
X14613440Y-9225756D02*
X14606297Y-9232899D01*
X14606297Y-9232899D02*
X14599154Y-9236470D01*
X14713440Y-9290041D02*
X14670583Y-9290041D01*
X14692011Y-9290041D02*
X14692011Y-9215041D01*
X14692011Y-9215041D02*
X14684868Y-9225756D01*
X14684868Y-9225756D02*
X14677725Y-9232899D01*
X14677725Y-9232899D02*
X14670583Y-9236470D01*
X14520583Y-10425041D02*
X14567011Y-10425041D01*
X14567011Y-10425041D02*
X14542011Y-10453613D01*
X14542011Y-10453613D02*
X14552725Y-10453613D01*
X14552725Y-10453613D02*
X14559868Y-10457184D01*
X14559868Y-10457184D02*
X14563440Y-10460756D01*
X14563440Y-10460756D02*
X14567011Y-10467899D01*
X14567011Y-10467899D02*
X14567011Y-10485756D01*
X14567011Y-10485756D02*
X14563440Y-10492899D01*
X14563440Y-10492899D02*
X14559868Y-10496470D01*
X14559868Y-10496470D02*
X14552725Y-10500041D01*
X14552725Y-10500041D02*
X14531297Y-10500041D01*
X14531297Y-10500041D02*
X14524154Y-10496470D01*
X14524154Y-10496470D02*
X14520583Y-10492899D01*
X14588440Y-10425041D02*
X14613440Y-10500041D01*
X14613440Y-10500041D02*
X14638440Y-10425041D01*
X14656297Y-10425041D02*
X14702725Y-10425041D01*
X14702725Y-10425041D02*
X14677725Y-10453613D01*
X14677725Y-10453613D02*
X14688440Y-10453613D01*
X14688440Y-10453613D02*
X14695583Y-10457184D01*
X14695583Y-10457184D02*
X14699154Y-10460756D01*
X14699154Y-10460756D02*
X14702725Y-10467899D01*
X14702725Y-10467899D02*
X14702725Y-10485756D01*
X14702725Y-10485756D02*
X14699154Y-10492899D01*
X14699154Y-10492899D02*
X14695583Y-10496470D01*
X14695583Y-10496470D02*
X14688440Y-10500041D01*
X14688440Y-10500041D02*
X14667011Y-10500041D01*
X14667011Y-10500041D02*
X14659868Y-10496470D01*
X14659868Y-10496470D02*
X14656297Y-10492899D01*
X14774154Y-10478613D02*
X14809868Y-10478613D01*
X14767011Y-10500041D02*
X14792011Y-10425041D01*
X14792011Y-10425041D02*
X14817011Y-10500041D01*
X14884868Y-10500041D02*
X14859868Y-10464327D01*
X14842011Y-10500041D02*
X14842011Y-10425041D01*
X14842011Y-10425041D02*
X14870583Y-10425041D01*
X14870583Y-10425041D02*
X14877725Y-10428613D01*
X14877725Y-10428613D02*
X14881297Y-10432184D01*
X14881297Y-10432184D02*
X14884868Y-10439327D01*
X14884868Y-10439327D02*
X14884868Y-10450041D01*
X14884868Y-10450041D02*
X14881297Y-10457184D01*
X14881297Y-10457184D02*
X14877725Y-10460756D01*
X14877725Y-10460756D02*
X14870583Y-10464327D01*
X14870583Y-10464327D02*
X14842011Y-10464327D01*
X14917011Y-10460756D02*
X14942011Y-10460756D01*
X14952725Y-10500041D02*
X14917011Y-10500041D01*
X14917011Y-10500041D02*
X14917011Y-10425041D01*
X14917011Y-10425041D02*
X14952725Y-10425041D01*
X15009868Y-10460756D02*
X14984868Y-10460756D01*
X14984868Y-10500041D02*
X14984868Y-10425041D01*
X14984868Y-10425041D02*
X15020583Y-10425041D01*
X14787725Y-9290041D02*
X14787725Y-9215041D01*
X14787725Y-9215041D02*
X14805583Y-9215041D01*
X14805583Y-9215041D02*
X14816297Y-9218613D01*
X14816297Y-9218613D02*
X14823440Y-9225756D01*
X14823440Y-9225756D02*
X14827011Y-9232899D01*
X14827011Y-9232899D02*
X14830583Y-9247184D01*
X14830583Y-9247184D02*
X14830583Y-9257899D01*
X14830583Y-9257899D02*
X14827011Y-9272184D01*
X14827011Y-9272184D02*
X14823440Y-9279327D01*
X14823440Y-9279327D02*
X14816297Y-9286470D01*
X14816297Y-9286470D02*
X14805583Y-9290041D01*
X14805583Y-9290041D02*
X14787725Y-9290041D01*
X14902011Y-9290041D02*
X14859154Y-9290041D01*
X14880583Y-9290041D02*
X14880583Y-9215041D01*
X14880583Y-9215041D02*
X14873440Y-9225756D01*
X14873440Y-9225756D02*
X14866297Y-9232899D01*
X14866297Y-9232899D02*
X14859154Y-9236470D01*
X14948440Y-9215041D02*
X14955583Y-9215041D01*
X14955583Y-9215041D02*
X14962725Y-9218613D01*
X14962725Y-9218613D02*
X14966297Y-9222184D01*
X14966297Y-9222184D02*
X14969868Y-9229327D01*
X14969868Y-9229327D02*
X14973440Y-9243613D01*
X14973440Y-9243613D02*
X14973440Y-9261470D01*
X14973440Y-9261470D02*
X14969868Y-9275756D01*
X14969868Y-9275756D02*
X14966297Y-9282899D01*
X14966297Y-9282899D02*
X14962725Y-9286470D01*
X14962725Y-9286470D02*
X14955583Y-9290041D01*
X14955583Y-9290041D02*
X14948440Y-9290041D01*
X14948440Y-9290041D02*
X14941297Y-9286470D01*
X14941297Y-9286470D02*
X14937725Y-9282899D01*
X14937725Y-9282899D02*
X14934154Y-9275756D01*
X14934154Y-9275756D02*
X14930583Y-9261470D01*
X14930583Y-9261470D02*
X14930583Y-9243613D01*
X14930583Y-9243613D02*
X14934154Y-9229327D01*
X14934154Y-9229327D02*
X14937725Y-9222184D01*
X14937725Y-9222184D02*
X14941297Y-9218613D01*
X14941297Y-9218613D02*
X14948440Y-9215041D01*
X15067725Y-9290041D02*
X15067725Y-9215041D01*
X15067725Y-9215041D02*
X15085583Y-9215041D01*
X15085583Y-9215041D02*
X15096297Y-9218613D01*
X15096297Y-9218613D02*
X15103440Y-9225756D01*
X15103440Y-9225756D02*
X15107011Y-9232899D01*
X15107011Y-9232899D02*
X15110583Y-9247184D01*
X15110583Y-9247184D02*
X15110583Y-9257899D01*
X15110583Y-9257899D02*
X15107011Y-9272184D01*
X15107011Y-9272184D02*
X15103440Y-9279327D01*
X15103440Y-9279327D02*
X15096297Y-9286470D01*
X15096297Y-9286470D02*
X15085583Y-9290041D01*
X15085583Y-9290041D02*
X15067725Y-9290041D01*
X15146297Y-9290041D02*
X15160583Y-9290041D01*
X15160583Y-9290041D02*
X15167725Y-9286470D01*
X15167725Y-9286470D02*
X15171297Y-9282899D01*
X15171297Y-9282899D02*
X15178440Y-9272184D01*
X15178440Y-9272184D02*
X15182011Y-9257899D01*
X15182011Y-9257899D02*
X15182011Y-9229327D01*
X15182011Y-9229327D02*
X15178440Y-9222184D01*
X15178440Y-9222184D02*
X15174868Y-9218613D01*
X15174868Y-9218613D02*
X15167725Y-9215041D01*
X15167725Y-9215041D02*
X15153440Y-9215041D01*
X15153440Y-9215041D02*
X15146297Y-9218613D01*
X15146297Y-9218613D02*
X15142725Y-9222184D01*
X15142725Y-9222184D02*
X15139154Y-9229327D01*
X15139154Y-9229327D02*
X15139154Y-9247184D01*
X15139154Y-9247184D02*
X15142725Y-9254327D01*
X15142725Y-9254327D02*
X15146297Y-9257899D01*
X15146297Y-9257899D02*
X15153440Y-9261470D01*
X15153440Y-9261470D02*
X15167725Y-9261470D01*
X15167725Y-9261470D02*
X15174868Y-9257899D01*
X15174868Y-9257899D02*
X15178440Y-9254327D01*
X15178440Y-9254327D02*
X15182011Y-9247184D01*
X15084154Y-10478613D02*
X15119868Y-10478613D01*
X15077011Y-10500041D02*
X15102011Y-10425041D01*
X15102011Y-10425041D02*
X15127011Y-10500041D01*
X15166297Y-10425041D02*
X15173440Y-10425041D01*
X15173440Y-10425041D02*
X15180583Y-10428613D01*
X15180583Y-10428613D02*
X15184154Y-10432184D01*
X15184154Y-10432184D02*
X15187725Y-10439327D01*
X15187725Y-10439327D02*
X15191297Y-10453613D01*
X15191297Y-10453613D02*
X15191297Y-10471470D01*
X15191297Y-10471470D02*
X15187725Y-10485756D01*
X15187725Y-10485756D02*
X15184154Y-10492899D01*
X15184154Y-10492899D02*
X15180583Y-10496470D01*
X15180583Y-10496470D02*
X15173440Y-10500041D01*
X15173440Y-10500041D02*
X15166297Y-10500041D01*
X15166297Y-10500041D02*
X15159154Y-10496470D01*
X15159154Y-10496470D02*
X15155583Y-10492899D01*
X15155583Y-10492899D02*
X15152011Y-10485756D01*
X15152011Y-10485756D02*
X15148440Y-10471470D01*
X15148440Y-10471470D02*
X15148440Y-10453613D01*
X15148440Y-10453613D02*
X15152011Y-10439327D01*
X15152011Y-10439327D02*
X15155583Y-10432184D01*
X15155583Y-10432184D02*
X15159154Y-10428613D01*
X15159154Y-10428613D02*
X15166297Y-10425041D01*
X15317725Y-9290041D02*
X15317725Y-9215041D01*
X15317725Y-9215041D02*
X15335583Y-9215041D01*
X15335583Y-9215041D02*
X15346297Y-9218613D01*
X15346297Y-9218613D02*
X15353440Y-9225756D01*
X15353440Y-9225756D02*
X15357011Y-9232899D01*
X15357011Y-9232899D02*
X15360583Y-9247184D01*
X15360583Y-9247184D02*
X15360583Y-9257899D01*
X15360583Y-9257899D02*
X15357011Y-9272184D01*
X15357011Y-9272184D02*
X15353440Y-9279327D01*
X15353440Y-9279327D02*
X15346297Y-9286470D01*
X15346297Y-9286470D02*
X15335583Y-9290041D01*
X15335583Y-9290041D02*
X15317725Y-9290041D01*
X15403440Y-9247184D02*
X15396297Y-9243613D01*
X15396297Y-9243613D02*
X15392725Y-9240041D01*
X15392725Y-9240041D02*
X15389154Y-9232899D01*
X15389154Y-9232899D02*
X15389154Y-9229327D01*
X15389154Y-9229327D02*
X15392725Y-9222184D01*
X15392725Y-9222184D02*
X15396297Y-9218613D01*
X15396297Y-9218613D02*
X15403440Y-9215041D01*
X15403440Y-9215041D02*
X15417725Y-9215041D01*
X15417725Y-9215041D02*
X15424868Y-9218613D01*
X15424868Y-9218613D02*
X15428440Y-9222184D01*
X15428440Y-9222184D02*
X15432011Y-9229327D01*
X15432011Y-9229327D02*
X15432011Y-9232899D01*
X15432011Y-9232899D02*
X15428440Y-9240041D01*
X15428440Y-9240041D02*
X15424868Y-9243613D01*
X15424868Y-9243613D02*
X15417725Y-9247184D01*
X15417725Y-9247184D02*
X15403440Y-9247184D01*
X15403440Y-9247184D02*
X15396297Y-9250756D01*
X15396297Y-9250756D02*
X15392725Y-9254327D01*
X15392725Y-9254327D02*
X15389154Y-9261470D01*
X15389154Y-9261470D02*
X15389154Y-9275756D01*
X15389154Y-9275756D02*
X15392725Y-9282899D01*
X15392725Y-9282899D02*
X15396297Y-9286470D01*
X15396297Y-9286470D02*
X15403440Y-9290041D01*
X15403440Y-9290041D02*
X15417725Y-9290041D01*
X15417725Y-9290041D02*
X15424868Y-9286470D01*
X15424868Y-9286470D02*
X15428440Y-9282899D01*
X15428440Y-9282899D02*
X15432011Y-9275756D01*
X15432011Y-9275756D02*
X15432011Y-9261470D01*
X15432011Y-9261470D02*
X15428440Y-9254327D01*
X15428440Y-9254327D02*
X15424868Y-9250756D01*
X15424868Y-9250756D02*
X15417725Y-9247184D01*
X15334154Y-10478613D02*
X15369868Y-10478613D01*
X15327011Y-10500041D02*
X15352011Y-10425041D01*
X15352011Y-10425041D02*
X15377011Y-10500041D01*
X15441297Y-10500041D02*
X15398440Y-10500041D01*
X15419868Y-10500041D02*
X15419868Y-10425041D01*
X15419868Y-10425041D02*
X15412725Y-10435756D01*
X15412725Y-10435756D02*
X15405583Y-10442899D01*
X15405583Y-10442899D02*
X15398440Y-10446470D01*
X15577725Y-9290041D02*
X15577725Y-9215041D01*
X15577725Y-9215041D02*
X15595583Y-9215041D01*
X15595583Y-9215041D02*
X15606297Y-9218613D01*
X15606297Y-9218613D02*
X15613440Y-9225756D01*
X15613440Y-9225756D02*
X15617011Y-9232899D01*
X15617011Y-9232899D02*
X15620583Y-9247184D01*
X15620583Y-9247184D02*
X15620583Y-9257899D01*
X15620583Y-9257899D02*
X15617011Y-9272184D01*
X15617011Y-9272184D02*
X15613440Y-9279327D01*
X15613440Y-9279327D02*
X15606297Y-9286470D01*
X15606297Y-9286470D02*
X15595583Y-9290041D01*
X15595583Y-9290041D02*
X15577725Y-9290041D01*
X15645583Y-9215041D02*
X15695583Y-9215041D01*
X15695583Y-9215041D02*
X15663440Y-9290041D01*
X15584154Y-10478613D02*
X15619868Y-10478613D01*
X15577011Y-10500041D02*
X15602011Y-10425041D01*
X15602011Y-10425041D02*
X15627011Y-10500041D01*
X15648440Y-10432184D02*
X15652011Y-10428613D01*
X15652011Y-10428613D02*
X15659154Y-10425041D01*
X15659154Y-10425041D02*
X15677011Y-10425041D01*
X15677011Y-10425041D02*
X15684154Y-10428613D01*
X15684154Y-10428613D02*
X15687725Y-10432184D01*
X15687725Y-10432184D02*
X15691297Y-10439327D01*
X15691297Y-10439327D02*
X15691297Y-10446470D01*
X15691297Y-10446470D02*
X15687725Y-10457184D01*
X15687725Y-10457184D02*
X15644868Y-10500041D01*
X15644868Y-10500041D02*
X15691297Y-10500041D01*
X15827725Y-9290041D02*
X15827725Y-9215041D01*
X15827725Y-9215041D02*
X15845583Y-9215041D01*
X15845583Y-9215041D02*
X15856297Y-9218613D01*
X15856297Y-9218613D02*
X15863440Y-9225756D01*
X15863440Y-9225756D02*
X15867011Y-9232899D01*
X15867011Y-9232899D02*
X15870583Y-9247184D01*
X15870583Y-9247184D02*
X15870583Y-9257899D01*
X15870583Y-9257899D02*
X15867011Y-9272184D01*
X15867011Y-9272184D02*
X15863440Y-9279327D01*
X15863440Y-9279327D02*
X15856297Y-9286470D01*
X15856297Y-9286470D02*
X15845583Y-9290041D01*
X15845583Y-9290041D02*
X15827725Y-9290041D01*
X15934868Y-9215041D02*
X15920583Y-9215041D01*
X15920583Y-9215041D02*
X15913440Y-9218613D01*
X15913440Y-9218613D02*
X15909868Y-9222184D01*
X15909868Y-9222184D02*
X15902725Y-9232899D01*
X15902725Y-9232899D02*
X15899154Y-9247184D01*
X15899154Y-9247184D02*
X15899154Y-9275756D01*
X15899154Y-9275756D02*
X15902725Y-9282899D01*
X15902725Y-9282899D02*
X15906297Y-9286470D01*
X15906297Y-9286470D02*
X15913440Y-9290041D01*
X15913440Y-9290041D02*
X15927725Y-9290041D01*
X15927725Y-9290041D02*
X15934868Y-9286470D01*
X15934868Y-9286470D02*
X15938440Y-9282899D01*
X15938440Y-9282899D02*
X15942011Y-9275756D01*
X15942011Y-9275756D02*
X15942011Y-9257899D01*
X15942011Y-9257899D02*
X15938440Y-9250756D01*
X15938440Y-9250756D02*
X15934868Y-9247184D01*
X15934868Y-9247184D02*
X15927725Y-9243613D01*
X15927725Y-9243613D02*
X15913440Y-9243613D01*
X15913440Y-9243613D02*
X15906297Y-9247184D01*
X15906297Y-9247184D02*
X15902725Y-9250756D01*
X15902725Y-9250756D02*
X15899154Y-9257899D01*
X15834154Y-10478613D02*
X15869868Y-10478613D01*
X15827011Y-10500041D02*
X15852011Y-10425041D01*
X15852011Y-10425041D02*
X15877011Y-10500041D01*
X15894868Y-10425041D02*
X15941297Y-10425041D01*
X15941297Y-10425041D02*
X15916297Y-10453613D01*
X15916297Y-10453613D02*
X15927011Y-10453613D01*
X15927011Y-10453613D02*
X15934154Y-10457184D01*
X15934154Y-10457184D02*
X15937725Y-10460756D01*
X15937725Y-10460756D02*
X15941297Y-10467899D01*
X15941297Y-10467899D02*
X15941297Y-10485756D01*
X15941297Y-10485756D02*
X15937725Y-10492899D01*
X15937725Y-10492899D02*
X15934154Y-10496470D01*
X15934154Y-10496470D02*
X15927011Y-10500041D01*
X15927011Y-10500041D02*
X15905583Y-10500041D01*
X15905583Y-10500041D02*
X15898440Y-10496470D01*
X15898440Y-10496470D02*
X15894868Y-10492899D01*
X16087725Y-9290041D02*
X16087725Y-9215041D01*
X16087725Y-9215041D02*
X16105583Y-9215041D01*
X16105583Y-9215041D02*
X16116297Y-9218613D01*
X16116297Y-9218613D02*
X16123440Y-9225756D01*
X16123440Y-9225756D02*
X16127011Y-9232899D01*
X16127011Y-9232899D02*
X16130583Y-9247184D01*
X16130583Y-9247184D02*
X16130583Y-9257899D01*
X16130583Y-9257899D02*
X16127011Y-9272184D01*
X16127011Y-9272184D02*
X16123440Y-9279327D01*
X16123440Y-9279327D02*
X16116297Y-9286470D01*
X16116297Y-9286470D02*
X16105583Y-9290041D01*
X16105583Y-9290041D02*
X16087725Y-9290041D01*
X16198440Y-9215041D02*
X16162725Y-9215041D01*
X16162725Y-9215041D02*
X16159154Y-9250756D01*
X16159154Y-9250756D02*
X16162725Y-9247184D01*
X16162725Y-9247184D02*
X16169868Y-9243613D01*
X16169868Y-9243613D02*
X16187725Y-9243613D01*
X16187725Y-9243613D02*
X16194868Y-9247184D01*
X16194868Y-9247184D02*
X16198440Y-9250756D01*
X16198440Y-9250756D02*
X16202011Y-9257899D01*
X16202011Y-9257899D02*
X16202011Y-9275756D01*
X16202011Y-9275756D02*
X16198440Y-9282899D01*
X16198440Y-9282899D02*
X16194868Y-9286470D01*
X16194868Y-9286470D02*
X16187725Y-9290041D01*
X16187725Y-9290041D02*
X16169868Y-9290041D01*
X16169868Y-9290041D02*
X16162725Y-9286470D01*
X16162725Y-9286470D02*
X16159154Y-9282899D01*
X16084154Y-10478613D02*
X16119868Y-10478613D01*
X16077011Y-10500041D02*
X16102011Y-10425041D01*
X16102011Y-10425041D02*
X16127011Y-10500041D01*
X16184154Y-10450041D02*
X16184154Y-10500041D01*
X16166297Y-10421470D02*
X16148440Y-10475041D01*
X16148440Y-10475041D02*
X16194868Y-10475041D01*
X16337725Y-9290041D02*
X16337725Y-9215041D01*
X16337725Y-9215041D02*
X16355583Y-9215041D01*
X16355583Y-9215041D02*
X16366297Y-9218613D01*
X16366297Y-9218613D02*
X16373440Y-9225756D01*
X16373440Y-9225756D02*
X16377011Y-9232899D01*
X16377011Y-9232899D02*
X16380583Y-9247184D01*
X16380583Y-9247184D02*
X16380583Y-9257899D01*
X16380583Y-9257899D02*
X16377011Y-9272184D01*
X16377011Y-9272184D02*
X16373440Y-9279327D01*
X16373440Y-9279327D02*
X16366297Y-9286470D01*
X16366297Y-9286470D02*
X16355583Y-9290041D01*
X16355583Y-9290041D02*
X16337725Y-9290041D01*
X16444868Y-9240041D02*
X16444868Y-9290041D01*
X16427011Y-9211470D02*
X16409154Y-9265041D01*
X16409154Y-9265041D02*
X16455583Y-9265041D01*
X16344154Y-10478613D02*
X16379868Y-10478613D01*
X16337011Y-10500041D02*
X16362011Y-10425041D01*
X16362011Y-10425041D02*
X16387011Y-10500041D01*
X16447725Y-10425041D02*
X16412011Y-10425041D01*
X16412011Y-10425041D02*
X16408440Y-10460756D01*
X16408440Y-10460756D02*
X16412011Y-10457184D01*
X16412011Y-10457184D02*
X16419154Y-10453613D01*
X16419154Y-10453613D02*
X16437011Y-10453613D01*
X16437011Y-10453613D02*
X16444154Y-10457184D01*
X16444154Y-10457184D02*
X16447725Y-10460756D01*
X16447725Y-10460756D02*
X16451297Y-10467899D01*
X16451297Y-10467899D02*
X16451297Y-10485756D01*
X16451297Y-10485756D02*
X16447725Y-10492899D01*
X16447725Y-10492899D02*
X16444154Y-10496470D01*
X16444154Y-10496470D02*
X16437011Y-10500041D01*
X16437011Y-10500041D02*
X16419154Y-10500041D01*
X16419154Y-10500041D02*
X16412011Y-10496470D01*
X16412011Y-10496470D02*
X16408440Y-10492899D01*
X16594154Y-10478613D02*
X16629868Y-10478613D01*
X16587011Y-10500041D02*
X16612011Y-10425041D01*
X16612011Y-10425041D02*
X16637011Y-10500041D01*
X16694154Y-10425041D02*
X16679868Y-10425041D01*
X16679868Y-10425041D02*
X16672725Y-10428613D01*
X16672725Y-10428613D02*
X16669154Y-10432184D01*
X16669154Y-10432184D02*
X16662011Y-10442899D01*
X16662011Y-10442899D02*
X16658440Y-10457184D01*
X16658440Y-10457184D02*
X16658440Y-10485756D01*
X16658440Y-10485756D02*
X16662011Y-10492899D01*
X16662011Y-10492899D02*
X16665583Y-10496470D01*
X16665583Y-10496470D02*
X16672725Y-10500041D01*
X16672725Y-10500041D02*
X16687011Y-10500041D01*
X16687011Y-10500041D02*
X16694154Y-10496470D01*
X16694154Y-10496470D02*
X16697725Y-10492899D01*
X16697725Y-10492899D02*
X16701297Y-10485756D01*
X16701297Y-10485756D02*
X16701297Y-10467899D01*
X16701297Y-10467899D02*
X16697725Y-10460756D01*
X16697725Y-10460756D02*
X16694154Y-10457184D01*
X16694154Y-10457184D02*
X16687011Y-10453613D01*
X16687011Y-10453613D02*
X16672725Y-10453613D01*
X16672725Y-10453613D02*
X16665583Y-10457184D01*
X16665583Y-10457184D02*
X16662011Y-10460756D01*
X16662011Y-10460756D02*
X16658440Y-10467899D01*
X16619725Y-9287041D02*
X16619725Y-9212041D01*
X16619725Y-9212041D02*
X16637583Y-9212041D01*
X16637583Y-9212041D02*
X16648297Y-9215613D01*
X16648297Y-9215613D02*
X16655440Y-9222756D01*
X16655440Y-9222756D02*
X16659011Y-9229899D01*
X16659011Y-9229899D02*
X16662583Y-9244184D01*
X16662583Y-9244184D02*
X16662583Y-9254899D01*
X16662583Y-9254899D02*
X16659011Y-9269184D01*
X16659011Y-9269184D02*
X16655440Y-9276327D01*
X16655440Y-9276327D02*
X16648297Y-9283470D01*
X16648297Y-9283470D02*
X16637583Y-9287041D01*
X16637583Y-9287041D02*
X16619725Y-9287041D01*
X16687583Y-9212041D02*
X16734011Y-9212041D01*
X16734011Y-9212041D02*
X16709011Y-9240613D01*
X16709011Y-9240613D02*
X16719725Y-9240613D01*
X16719725Y-9240613D02*
X16726868Y-9244184D01*
X16726868Y-9244184D02*
X16730440Y-9247756D01*
X16730440Y-9247756D02*
X16734011Y-9254899D01*
X16734011Y-9254899D02*
X16734011Y-9272756D01*
X16734011Y-9272756D02*
X16730440Y-9279899D01*
X16730440Y-9279899D02*
X16726868Y-9283470D01*
X16726868Y-9283470D02*
X16719725Y-9287041D01*
X16719725Y-9287041D02*
X16698297Y-9287041D01*
X16698297Y-9287041D02*
X16691154Y-9283470D01*
X16691154Y-9283470D02*
X16687583Y-9279899D01*
X16844154Y-10478613D02*
X16879868Y-10478613D01*
X16837011Y-10500041D02*
X16862011Y-10425041D01*
X16862011Y-10425041D02*
X16887011Y-10500041D01*
X16904868Y-10425041D02*
X16954868Y-10425041D01*
X16954868Y-10425041D02*
X16922726Y-10500041D01*
X16893726Y-9289041D02*
X16893726Y-9214041D01*
X16893726Y-9214041D02*
X16911583Y-9214041D01*
X16911583Y-9214041D02*
X16922297Y-9217613D01*
X16922297Y-9217613D02*
X16929440Y-9224756D01*
X16929440Y-9224756D02*
X16933011Y-9231899D01*
X16933011Y-9231899D02*
X16936583Y-9246184D01*
X16936583Y-9246184D02*
X16936583Y-9256899D01*
X16936583Y-9256899D02*
X16933011Y-9271184D01*
X16933011Y-9271184D02*
X16929440Y-9278327D01*
X16929440Y-9278327D02*
X16922297Y-9285470D01*
X16922297Y-9285470D02*
X16911583Y-9289041D01*
X16911583Y-9289041D02*
X16893726Y-9289041D01*
X16965154Y-9221184D02*
X16968726Y-9217613D01*
X16968726Y-9217613D02*
X16975868Y-9214041D01*
X16975868Y-9214041D02*
X16993726Y-9214041D01*
X16993726Y-9214041D02*
X17000868Y-9217613D01*
X17000868Y-9217613D02*
X17004440Y-9221184D01*
X17004440Y-9221184D02*
X17008011Y-9228327D01*
X17008011Y-9228327D02*
X17008011Y-9235470D01*
X17008011Y-9235470D02*
X17004440Y-9246184D01*
X17004440Y-9246184D02*
X16961583Y-9289041D01*
X16961583Y-9289041D02*
X17008011Y-9289041D01*
X17057726Y-10471470D02*
X17114868Y-10471470D01*
X17086297Y-10500041D02*
X17086297Y-10442899D01*
X17186297Y-10425041D02*
X17150583Y-10425041D01*
X17150583Y-10425041D02*
X17147011Y-10460756D01*
X17147011Y-10460756D02*
X17150583Y-10457184D01*
X17150583Y-10457184D02*
X17157726Y-10453613D01*
X17157726Y-10453613D02*
X17175583Y-10453613D01*
X17175583Y-10453613D02*
X17182726Y-10457184D01*
X17182726Y-10457184D02*
X17186297Y-10460756D01*
X17186297Y-10460756D02*
X17189868Y-10467899D01*
X17189868Y-10467899D02*
X17189868Y-10485756D01*
X17189868Y-10485756D02*
X17186297Y-10492899D01*
X17186297Y-10492899D02*
X17182726Y-10496470D01*
X17182726Y-10496470D02*
X17175583Y-10500041D01*
X17175583Y-10500041D02*
X17157726Y-10500041D01*
X17157726Y-10500041D02*
X17150583Y-10496470D01*
X17150583Y-10496470D02*
X17147011Y-10492899D01*
X17211297Y-10425041D02*
X17236297Y-10500041D01*
X17236297Y-10500041D02*
X17261297Y-10425041D01*
X17107011Y-9218613D02*
X17099868Y-9215041D01*
X17099868Y-9215041D02*
X17089154Y-9215041D01*
X17089154Y-9215041D02*
X17078440Y-9218613D01*
X17078440Y-9218613D02*
X17071297Y-9225756D01*
X17071297Y-9225756D02*
X17067726Y-9232899D01*
X17067726Y-9232899D02*
X17064154Y-9247184D01*
X17064154Y-9247184D02*
X17064154Y-9257899D01*
X17064154Y-9257899D02*
X17067726Y-9272184D01*
X17067726Y-9272184D02*
X17071297Y-9279327D01*
X17071297Y-9279327D02*
X17078440Y-9286470D01*
X17078440Y-9286470D02*
X17089154Y-9290041D01*
X17089154Y-9290041D02*
X17096297Y-9290041D01*
X17096297Y-9290041D02*
X17107011Y-9286470D01*
X17107011Y-9286470D02*
X17110583Y-9282899D01*
X17110583Y-9282899D02*
X17110583Y-9257899D01*
X17110583Y-9257899D02*
X17096297Y-9257899D01*
X17142726Y-9290041D02*
X17142726Y-9215041D01*
X17142726Y-9215041D02*
X17185583Y-9290041D01*
X17185583Y-9290041D02*
X17185583Y-9215041D01*
X17221297Y-9290041D02*
X17221297Y-9215041D01*
X17221297Y-9215041D02*
X17239154Y-9215041D01*
X17239154Y-9215041D02*
X17249868Y-9218613D01*
X17249868Y-9218613D02*
X17257011Y-9225756D01*
X17257011Y-9225756D02*
X17260583Y-9232899D01*
X17260583Y-9232899D02*
X17264154Y-9247184D01*
X17264154Y-9247184D02*
X17264154Y-9257899D01*
X17264154Y-9257899D02*
X17260583Y-9272184D01*
X17260583Y-9272184D02*
X17257011Y-9279327D01*
X17257011Y-9279327D02*
X17249868Y-9286470D01*
X17249868Y-9286470D02*
X17239154Y-9290041D01*
X17239154Y-9290041D02*
X17221297Y-9290041D01*
X17370583Y-9290041D02*
X17345583Y-9254327D01*
X17327726Y-9290041D02*
X17327726Y-9215041D01*
X17327726Y-9215041D02*
X17356297Y-9215041D01*
X17356297Y-9215041D02*
X17363440Y-9218613D01*
X17363440Y-9218613D02*
X17367011Y-9222184D01*
X17367011Y-9222184D02*
X17370583Y-9229327D01*
X17370583Y-9229327D02*
X17370583Y-9240041D01*
X17370583Y-9240041D02*
X17367011Y-9247184D01*
X17367011Y-9247184D02*
X17363440Y-9250756D01*
X17363440Y-9250756D02*
X17356297Y-9254327D01*
X17356297Y-9254327D02*
X17327726Y-9254327D01*
X17399154Y-9286470D02*
X17409868Y-9290041D01*
X17409868Y-9290041D02*
X17427726Y-9290041D01*
X17427726Y-9290041D02*
X17434868Y-9286470D01*
X17434868Y-9286470D02*
X17438440Y-9282899D01*
X17438440Y-9282899D02*
X17442011Y-9275756D01*
X17442011Y-9275756D02*
X17442011Y-9268613D01*
X17442011Y-9268613D02*
X17438440Y-9261470D01*
X17438440Y-9261470D02*
X17434868Y-9257899D01*
X17434868Y-9257899D02*
X17427726Y-9254327D01*
X17427726Y-9254327D02*
X17413440Y-9250756D01*
X17413440Y-9250756D02*
X17406297Y-9247184D01*
X17406297Y-9247184D02*
X17402726Y-9243613D01*
X17402726Y-9243613D02*
X17399154Y-9236470D01*
X17399154Y-9236470D02*
X17399154Y-9229327D01*
X17399154Y-9229327D02*
X17402726Y-9222184D01*
X17402726Y-9222184D02*
X17406297Y-9218613D01*
X17406297Y-9218613D02*
X17413440Y-9215041D01*
X17413440Y-9215041D02*
X17431297Y-9215041D01*
X17431297Y-9215041D02*
X17442011Y-9218613D01*
X17463440Y-9215041D02*
X17506297Y-9215041D01*
X17484868Y-9290041D02*
X17484868Y-9215041D01*
X17370583Y-10500041D02*
X17345583Y-10464327D01*
X17327726Y-10500041D02*
X17327726Y-10425041D01*
X17327726Y-10425041D02*
X17356297Y-10425041D01*
X17356297Y-10425041D02*
X17363440Y-10428613D01*
X17363440Y-10428613D02*
X17367011Y-10432184D01*
X17367011Y-10432184D02*
X17370583Y-10439327D01*
X17370583Y-10439327D02*
X17370583Y-10450041D01*
X17370583Y-10450041D02*
X17367011Y-10457184D01*
X17367011Y-10457184D02*
X17363440Y-10460756D01*
X17363440Y-10460756D02*
X17356297Y-10464327D01*
X17356297Y-10464327D02*
X17327726Y-10464327D01*
X17399154Y-10496470D02*
X17409868Y-10500041D01*
X17409868Y-10500041D02*
X17427726Y-10500041D01*
X17427726Y-10500041D02*
X17434868Y-10496470D01*
X17434868Y-10496470D02*
X17438440Y-10492899D01*
X17438440Y-10492899D02*
X17442011Y-10485756D01*
X17442011Y-10485756D02*
X17442011Y-10478613D01*
X17442011Y-10478613D02*
X17438440Y-10471470D01*
X17438440Y-10471470D02*
X17434868Y-10467899D01*
X17434868Y-10467899D02*
X17427726Y-10464327D01*
X17427726Y-10464327D02*
X17413440Y-10460756D01*
X17413440Y-10460756D02*
X17406297Y-10457184D01*
X17406297Y-10457184D02*
X17402726Y-10453613D01*
X17402726Y-10453613D02*
X17399154Y-10446470D01*
X17399154Y-10446470D02*
X17399154Y-10439327D01*
X17399154Y-10439327D02*
X17402726Y-10432184D01*
X17402726Y-10432184D02*
X17406297Y-10428613D01*
X17406297Y-10428613D02*
X17413440Y-10425041D01*
X17413440Y-10425041D02*
X17431297Y-10425041D01*
X17431297Y-10425041D02*
X17442011Y-10428613D01*
X17463440Y-10425041D02*
X17506297Y-10425041D01*
X17484868Y-10500041D02*
X17484868Y-10425041D01*
X17620583Y-9290041D02*
X17595583Y-9254327D01*
X17577726Y-9290041D02*
X17577726Y-9215041D01*
X17577726Y-9215041D02*
X17606297Y-9215041D01*
X17606297Y-9215041D02*
X17613440Y-9218613D01*
X17613440Y-9218613D02*
X17617011Y-9222184D01*
X17617011Y-9222184D02*
X17620583Y-9229327D01*
X17620583Y-9229327D02*
X17620583Y-9240041D01*
X17620583Y-9240041D02*
X17617011Y-9247184D01*
X17617011Y-9247184D02*
X17613440Y-9250756D01*
X17613440Y-9250756D02*
X17606297Y-9254327D01*
X17606297Y-9254327D02*
X17577726Y-9254327D01*
X17645583Y-9215041D02*
X17695583Y-9290041D01*
X17695583Y-9215041D02*
X17645583Y-9290041D01*
X17738440Y-9215041D02*
X17745583Y-9215041D01*
X17745583Y-9215041D02*
X17752726Y-9218613D01*
X17752726Y-9218613D02*
X17756297Y-9222184D01*
X17756297Y-9222184D02*
X17759868Y-9229327D01*
X17759868Y-9229327D02*
X17763440Y-9243613D01*
X17763440Y-9243613D02*
X17763440Y-9261470D01*
X17763440Y-9261470D02*
X17759868Y-9275756D01*
X17759868Y-9275756D02*
X17756297Y-9282899D01*
X17756297Y-9282899D02*
X17752726Y-9286470D01*
X17752726Y-9286470D02*
X17745583Y-9290041D01*
X17745583Y-9290041D02*
X17738440Y-9290041D01*
X17738440Y-9290041D02*
X17731297Y-9286470D01*
X17731297Y-9286470D02*
X17727726Y-9282899D01*
X17727726Y-9282899D02*
X17724154Y-9275756D01*
X17724154Y-9275756D02*
X17720583Y-9261470D01*
X17720583Y-9261470D02*
X17720583Y-9243613D01*
X17720583Y-9243613D02*
X17724154Y-9229327D01*
X17724154Y-9229327D02*
X17727726Y-9222184D01*
X17727726Y-9222184D02*
X17731297Y-9218613D01*
X17731297Y-9218613D02*
X17738440Y-9215041D01*
X17617011Y-10428613D02*
X17609868Y-10425041D01*
X17609868Y-10425041D02*
X17599154Y-10425041D01*
X17599154Y-10425041D02*
X17588440Y-10428613D01*
X17588440Y-10428613D02*
X17581297Y-10435756D01*
X17581297Y-10435756D02*
X17577726Y-10442899D01*
X17577726Y-10442899D02*
X17574154Y-10457184D01*
X17574154Y-10457184D02*
X17574154Y-10467899D01*
X17574154Y-10467899D02*
X17577726Y-10482184D01*
X17577726Y-10482184D02*
X17581297Y-10489327D01*
X17581297Y-10489327D02*
X17588440Y-10496470D01*
X17588440Y-10496470D02*
X17599154Y-10500041D01*
X17599154Y-10500041D02*
X17606297Y-10500041D01*
X17606297Y-10500041D02*
X17617011Y-10496470D01*
X17617011Y-10496470D02*
X17620583Y-10492899D01*
X17620583Y-10492899D02*
X17620583Y-10467899D01*
X17620583Y-10467899D02*
X17606297Y-10467899D01*
X17652726Y-10500041D02*
X17652726Y-10425041D01*
X17652726Y-10425041D02*
X17695583Y-10500041D01*
X17695583Y-10500041D02*
X17695583Y-10425041D01*
X17731297Y-10500041D02*
X17731297Y-10425041D01*
X17731297Y-10425041D02*
X17749154Y-10425041D01*
X17749154Y-10425041D02*
X17759868Y-10428613D01*
X17759868Y-10428613D02*
X17767011Y-10435756D01*
X17767011Y-10435756D02*
X17770583Y-10442899D01*
X17770583Y-10442899D02*
X17774154Y-10457184D01*
X17774154Y-10457184D02*
X17774154Y-10467899D01*
X17774154Y-10467899D02*
X17770583Y-10482184D01*
X17770583Y-10482184D02*
X17767011Y-10489327D01*
X17767011Y-10489327D02*
X17759868Y-10496470D01*
X17759868Y-10496470D02*
X17749154Y-10500041D01*
X17749154Y-10500041D02*
X17731297Y-10500041D01*
X17817011Y-9215041D02*
X17859868Y-9215041D01*
X17838440Y-9290041D02*
X17838440Y-9215041D01*
X17877726Y-9215041D02*
X17927726Y-9290041D01*
X17927726Y-9215041D02*
X17877726Y-9290041D01*
X17995583Y-9290041D02*
X17952726Y-9290041D01*
X17974154Y-9290041D02*
X17974154Y-9215041D01*
X17974154Y-9215041D02*
X17967011Y-9225756D01*
X17967011Y-9225756D02*
X17959868Y-9232899D01*
X17959868Y-9232899D02*
X17952726Y-9236470D01*
X17827011Y-10425041D02*
X17852011Y-10500041D01*
X17852011Y-10500041D02*
X17877011Y-10425041D01*
X17902011Y-10500041D02*
X17902011Y-10425041D01*
X17937726Y-10500041D02*
X17937726Y-10425041D01*
X17937726Y-10425041D02*
X17980583Y-10500041D01*
X17980583Y-10500041D02*
X17980583Y-10425041D01*
D13*
X16004478Y-9994846D02*
X16018764Y-9994846D01*
X16018764Y-9994846D02*
X16025907Y-9998418D01*
X16025907Y-9998418D02*
X16033050Y-10005561D01*
X16033050Y-10005561D02*
X16036621Y-10019846D01*
X16036621Y-10019846D02*
X16036621Y-10044846D01*
X16036621Y-10044846D02*
X16033050Y-10059132D01*
X16033050Y-10059132D02*
X16025907Y-10066275D01*
X16025907Y-10066275D02*
X16018764Y-10069846D01*
X16018764Y-10069846D02*
X16004478Y-10069846D01*
X16004478Y-10069846D02*
X15997335Y-10066275D01*
X15997335Y-10066275D02*
X15990193Y-10059132D01*
X15990193Y-10059132D02*
X15986621Y-10044846D01*
X15986621Y-10044846D02*
X15986621Y-10019846D01*
X15986621Y-10019846D02*
X15990193Y-10005561D01*
X15990193Y-10005561D02*
X15997335Y-9998418D01*
X15997335Y-9998418D02*
X16004478Y-9994846D01*
X16068764Y-10069846D02*
X16068764Y-9994846D01*
X16068764Y-9994846D02*
X16111621Y-10069846D01*
X16111621Y-10069846D02*
X16111621Y-9994846D01*
X17563050Y-9899846D02*
X17538050Y-9864132D01*
X17520193Y-9899846D02*
X17520193Y-9824846D01*
X17520193Y-9824846D02*
X17548764Y-9824846D01*
X17548764Y-9824846D02*
X17555907Y-9828418D01*
X17555907Y-9828418D02*
X17559478Y-9831989D01*
X17559478Y-9831989D02*
X17563050Y-9839132D01*
X17563050Y-9839132D02*
X17563050Y-9849846D01*
X17563050Y-9849846D02*
X17559478Y-9856989D01*
X17559478Y-9856989D02*
X17555907Y-9860561D01*
X17555907Y-9860561D02*
X17548764Y-9864132D01*
X17548764Y-9864132D02*
X17520193Y-9864132D01*
X17595193Y-9860561D02*
X17620193Y-9860561D01*
X17630907Y-9899846D02*
X17595193Y-9899846D01*
X17595193Y-9899846D02*
X17595193Y-9824846D01*
X17595193Y-9824846D02*
X17630907Y-9824846D01*
X17659478Y-9896275D02*
X17670193Y-9899846D01*
X17670193Y-9899846D02*
X17688050Y-9899846D01*
X17688050Y-9899846D02*
X17695193Y-9896275D01*
X17695193Y-9896275D02*
X17698764Y-9892704D01*
X17698764Y-9892704D02*
X17702335Y-9885561D01*
X17702335Y-9885561D02*
X17702335Y-9878418D01*
X17702335Y-9878418D02*
X17698764Y-9871275D01*
X17698764Y-9871275D02*
X17695193Y-9867704D01*
X17695193Y-9867704D02*
X17688050Y-9864132D01*
X17688050Y-9864132D02*
X17673764Y-9860561D01*
X17673764Y-9860561D02*
X17666621Y-9856989D01*
X17666621Y-9856989D02*
X17663050Y-9853418D01*
X17663050Y-9853418D02*
X17659478Y-9846275D01*
X17659478Y-9846275D02*
X17659478Y-9839132D01*
X17659478Y-9839132D02*
X17663050Y-9831989D01*
X17663050Y-9831989D02*
X17666621Y-9828418D01*
X17666621Y-9828418D02*
X17673764Y-9824846D01*
X17673764Y-9824846D02*
X17691621Y-9824846D01*
X17691621Y-9824846D02*
X17702335Y-9828418D01*
X17734478Y-9860561D02*
X17759478Y-9860561D01*
X17770193Y-9899846D02*
X17734478Y-9899846D01*
X17734478Y-9899846D02*
X17734478Y-9824846D01*
X17734478Y-9824846D02*
X17770193Y-9824846D01*
X17791621Y-9824846D02*
X17834478Y-9824846D01*
X17813050Y-9899846D02*
X17813050Y-9824846D01*
D14*
X15766559Y-9688808D02*
X15739197Y-9613632D01*
X15739197Y-9613632D02*
X15809516Y-9673173D01*
X15809516Y-9673173D02*
X15782155Y-9597997D01*
X15877532Y-9648417D02*
X15863200Y-9609039D01*
X15863200Y-9609039D02*
X15857014Y-9603183D01*
X15857014Y-9603183D02*
X15848552Y-9602209D01*
X15848552Y-9602209D02*
X15834233Y-9607420D01*
X15834233Y-9607420D02*
X15828376Y-9613606D01*
X15876229Y-9644837D02*
X15870372Y-9651023D01*
X15870372Y-9651023D02*
X15852474Y-9657537D01*
X15852474Y-9657537D02*
X15844011Y-9656563D01*
X15844011Y-9656563D02*
X15837825Y-9650707D01*
X15837825Y-9650707D02*
X15835220Y-9643547D01*
X15835220Y-9643547D02*
X15836193Y-9635085D01*
X15836193Y-9635085D02*
X15842050Y-9628899D01*
X15842050Y-9628899D02*
X15859949Y-9622384D01*
X15859949Y-9622384D02*
X15865806Y-9616199D01*
X15895089Y-9585271D02*
X15913330Y-9635387D01*
X15897695Y-9592430D02*
X15899972Y-9587547D01*
X15899972Y-9587547D02*
X15905828Y-9581362D01*
X15905828Y-9581362D02*
X15916568Y-9577453D01*
X15916568Y-9577453D02*
X15925030Y-9578427D01*
X15925030Y-9578427D02*
X15931216Y-9584283D01*
X15931216Y-9584283D02*
X15945548Y-9623661D01*
X15992085Y-9606723D02*
X15983623Y-9605749D01*
X15983623Y-9605749D02*
X15978740Y-9603472D01*
X15978740Y-9603472D02*
X15972554Y-9597616D01*
X15972554Y-9597616D02*
X15964737Y-9576137D01*
X15964737Y-9576137D02*
X15965711Y-9567674D01*
X15965711Y-9567674D02*
X15967987Y-9562792D01*
X15967987Y-9562792D02*
X15973844Y-9556606D01*
X15973844Y-9556606D02*
X15984583Y-9552697D01*
X15984583Y-9552697D02*
X15993046Y-9553671D01*
X15993046Y-9553671D02*
X15997929Y-9555948D01*
X15997929Y-9555948D02*
X16004114Y-9561805D01*
X16004114Y-9561805D02*
X16011932Y-9583283D01*
X16011932Y-9583283D02*
X16010958Y-9591746D01*
X16010958Y-9591746D02*
X16008681Y-9596628D01*
X16008681Y-9596628D02*
X16002824Y-9602814D01*
X16002824Y-9602814D02*
X15992085Y-9606723D01*
X15562281Y-9575657D02*
X15593604Y-9564256D01*
X15624944Y-9608592D02*
X15580196Y-9624879D01*
X15580196Y-9624879D02*
X15545994Y-9530910D01*
X15545994Y-9530910D02*
X15590742Y-9514623D01*
X15705489Y-9579276D02*
X15687573Y-9530054D01*
X15687573Y-9530054D02*
X15679841Y-9522734D01*
X15679841Y-9522734D02*
X15669263Y-9521516D01*
X15669263Y-9521516D02*
X15651364Y-9528031D01*
X15651364Y-9528031D02*
X15644044Y-9535763D01*
X15703860Y-9574802D02*
X15696539Y-9582534D01*
X15696539Y-9582534D02*
X15674166Y-9590677D01*
X15674166Y-9590677D02*
X15663588Y-9589460D01*
X15663588Y-9589460D02*
X15655856Y-9582139D01*
X15655856Y-9582139D02*
X15652598Y-9573189D01*
X15652598Y-9573189D02*
X15653816Y-9562611D01*
X15653816Y-9562611D02*
X15661136Y-9554879D01*
X15661136Y-9554879D02*
X15683510Y-9546736D01*
X15683510Y-9546736D02*
X15690831Y-9539004D01*
X15744133Y-9560144D02*
X15754711Y-9561361D01*
X15754711Y-9561361D02*
X15772610Y-9554846D01*
X15772610Y-9554846D02*
X15779931Y-9547114D01*
X15779931Y-9547114D02*
X15781148Y-9536536D01*
X15781148Y-9536536D02*
X15779519Y-9532061D01*
X15779519Y-9532061D02*
X15771787Y-9524741D01*
X15771787Y-9524741D02*
X15761209Y-9523523D01*
X15761209Y-9523523D02*
X15747785Y-9528409D01*
X15747785Y-9528409D02*
X15737207Y-9527192D01*
X15737207Y-9527192D02*
X15729475Y-9519871D01*
X15729475Y-9519871D02*
X15727846Y-9515396D01*
X15727846Y-9515396D02*
X15729063Y-9504818D01*
X15729063Y-9504818D02*
X15736384Y-9497086D01*
X15736384Y-9497086D02*
X15749808Y-9492200D01*
X15749808Y-9492200D02*
X15760386Y-9493418D01*
X15794556Y-9475914D02*
X15839731Y-9530416D01*
X15839303Y-9459627D02*
X15839731Y-9530416D01*
X15839731Y-9530416D02*
X15838925Y-9556047D01*
X15838925Y-9556047D02*
X15836078Y-9562151D01*
X15836078Y-9562151D02*
X15828758Y-9569883D01*
X15938175Y-9494586D02*
X15903973Y-9400616D01*
X15936546Y-9490111D02*
X15929225Y-9497843D01*
X15929225Y-9497843D02*
X15911326Y-9504358D01*
X15911326Y-9504358D02*
X15900748Y-9503140D01*
X15900748Y-9503140D02*
X15894645Y-9500294D01*
X15894645Y-9500294D02*
X15886913Y-9492973D01*
X15886913Y-9492973D02*
X15877141Y-9466125D01*
X15877141Y-9466125D02*
X15878358Y-9455547D01*
X15878358Y-9455547D02*
X15881204Y-9449444D01*
X15881204Y-9449444D02*
X15888525Y-9441712D01*
X15888525Y-9441712D02*
X15906424Y-9435197D01*
X15906424Y-9435197D02*
X15917002Y-9436414D01*
X16000393Y-9400995D02*
X16023194Y-9463641D01*
X15960121Y-9415653D02*
X15978036Y-9464875D01*
X15978036Y-9464875D02*
X15985768Y-9472196D01*
X15985768Y-9472196D02*
X15996346Y-9473413D01*
X15996346Y-9473413D02*
X16009770Y-9468527D01*
X16009770Y-9468527D02*
X16017091Y-9460795D01*
X16017091Y-9460795D02*
X16019937Y-9454692D01*
X16067942Y-9447354D02*
X16045140Y-9384708D01*
X16033740Y-9353385D02*
X16030894Y-9359488D01*
X16030894Y-9359488D02*
X16036997Y-9362335D01*
X16036997Y-9362335D02*
X16039843Y-9356231D01*
X16039843Y-9356231D02*
X16033740Y-9353385D01*
X16033740Y-9353385D02*
X16036997Y-9362335D01*
X16089888Y-9368422D02*
X16112689Y-9431068D01*
X16093145Y-9377371D02*
X16095991Y-9371268D01*
X16095991Y-9371268D02*
X16103312Y-9363535D01*
X16103312Y-9363535D02*
X16116736Y-9358649D01*
X16116736Y-9358649D02*
X16127314Y-9359867D01*
X16127314Y-9359867D02*
X16135046Y-9367188D01*
X16135046Y-9367188D02*
X16152962Y-9416410D01*
X16211133Y-9395237D02*
X16200555Y-9394020D01*
X16200555Y-9394020D02*
X16194451Y-9391174D01*
X16194451Y-9391174D02*
X16186719Y-9383853D01*
X16186719Y-9383853D02*
X16176947Y-9357004D01*
X16176947Y-9357004D02*
X16178165Y-9346426D01*
X16178165Y-9346426D02*
X16181011Y-9340323D01*
X16181011Y-9340323D02*
X16188332Y-9332591D01*
X16188332Y-9332591D02*
X16201756Y-9327705D01*
X16201756Y-9327705D02*
X16212334Y-9328922D01*
X16212334Y-9328922D02*
X16218437Y-9331768D01*
X16218437Y-9331768D02*
X16226169Y-9339089D01*
X16226169Y-9339089D02*
X16235941Y-9365937D01*
X16235941Y-9365937D02*
X16234724Y-9376516D01*
X16234724Y-9376516D02*
X16231878Y-9382619D01*
X16231878Y-9382619D02*
X16224557Y-9390351D01*
X16224557Y-9390351D02*
X16211133Y-9395237D01*
%TO.C,C10*%
D15*
X17215860Y-9385772D02*
X17231110Y-9401022D01*
X17266772Y-9334860D02*
X17282022Y-9350110D01*
%TO.C,C11*%
X15236784Y-10307000D02*
X15215216Y-10307000D01*
X15236784Y-10379000D02*
X15215216Y-10379000D01*
%TO.C,C6*%
X17368860Y-9383772D02*
X17384110Y-9399022D01*
X17419772Y-9332860D02*
X17435022Y-9348110D01*
%TO.C,C5*%
X17196110Y-9531022D02*
X17180860Y-9515772D01*
X17247022Y-9480110D02*
X17231772Y-9464860D01*
%TO.C,R6*%
X15658364Y-9769000D02*
X15627636Y-9769000D01*
X15658364Y-9845000D02*
X15627636Y-9845000D01*
%TO.C,C3*%
X15011784Y-10305000D02*
X14990216Y-10305000D01*
X15011784Y-10377000D02*
X14990216Y-10377000D01*
%TO.C,R3*%
X15544364Y-9332000D02*
X15513636Y-9332000D01*
X15544364Y-9408000D02*
X15513636Y-9408000D01*
%TO.C,C4*%
X14941216Y-9304000D02*
X14962784Y-9304000D01*
X14941216Y-9376000D02*
X14962784Y-9376000D01*
%TO.C,C2*%
X15014784Y-10190000D02*
X14993216Y-10190000D01*
X15014784Y-10262000D02*
X14993216Y-10262000D01*
%TO.C,U3*%
X14944000Y-9479000D02*
X15016500Y-9479000D01*
X14944000Y-9551500D02*
X14944000Y-9479000D01*
X14944000Y-10001000D02*
X14944000Y-9928500D01*
X15016500Y-10001000D02*
X14944000Y-10001000D01*
X15393500Y-9479000D02*
X15466000Y-9479000D01*
X15466000Y-9479000D02*
X15466000Y-9551500D01*
X15466000Y-9928500D02*
X15466000Y-10001000D01*
X15466000Y-10001000D02*
X15393500Y-10001000D01*
%TO.C,R2*%
X14795000Y-10058636D02*
X14795000Y-10089364D01*
X14871000Y-10058636D02*
X14871000Y-10089364D01*
%TO.C,C7*%
X16147110Y-10182022D02*
X16131860Y-10166772D01*
X16198022Y-10131110D02*
X16182772Y-10115860D01*
%TO.C,R5*%
X17625636Y-10240000D02*
X17656364Y-10240000D01*
X17625636Y-10316000D02*
X17656364Y-10316000D01*
%TO.C,C9*%
X17054228Y-9390140D02*
X17038978Y-9374890D01*
X17105140Y-9339228D02*
X17089890Y-9323978D01*
%TO.C,C1*%
X15014784Y-10083000D02*
X14993216Y-10083000D01*
X15014784Y-10155000D02*
X14993216Y-10155000D01*
%TO.C,SW1*%
X17858000Y-9571000D02*
X17858000Y-10211000D01*
X17858000Y-10211000D02*
X17978000Y-10211000D01*
X17978000Y-9571000D02*
X17858000Y-9571000D01*
X18138000Y-10211000D02*
X18258000Y-10211000D01*
X18258000Y-9571000D02*
X18138000Y-9571000D01*
X18258000Y-10211000D02*
X18258000Y-9571000D01*
%TO.C,D2*%
D16*
X15339500Y-10228000D02*
G75*
G02*
X15329500Y-10228000I-5000J0D01*
G01*
X15329500Y-10228000D02*
G75*
G02*
X15339500Y-10228000I5000J0D01*
G01*
%TO.C,D3*%
X15967500Y-9965000D02*
G75*
G02*
X15957500Y-9965000I-5000J0D01*
G01*
X15957500Y-9965000D02*
G75*
G02*
X15967500Y-9965000I5000J0D01*
G01*
%TO.C,C8*%
D15*
X16273860Y-10302772D02*
X16289110Y-10318022D01*
X16324772Y-10251860D02*
X16340022Y-10267110D01*
%TO.C,D1*%
D16*
X15970500Y-9806000D02*
G75*
G02*
X15960500Y-9806000I-5000J0D01*
G01*
X15960500Y-9806000D02*
G75*
G02*
X15970500Y-9806000I5000J0D01*
G01*
%TO.C,R4*%
D15*
X15273636Y-9302000D02*
X15304364Y-9302000D01*
X15273636Y-9378000D02*
X15304364Y-9378000D01*
%TO.C,U2*%
X15554250Y-10076000D02*
X15736250Y-10076000D01*
X15554250Y-10176000D02*
X15554250Y-10076000D01*
X15554250Y-10388000D02*
X15554250Y-10288000D01*
X15736250Y-10076000D02*
X15736250Y-10081000D01*
X15736250Y-10193000D02*
X15736250Y-10271000D01*
X15736250Y-10383000D02*
X15736250Y-10388000D01*
X15736250Y-10388000D02*
X15554250Y-10388000D01*
X15790250Y-10270000D02*
X15766250Y-10237000D01*
X15814250Y-10237000D01*
X15790250Y-10270000D01*
G36*
X15790250Y-10270000D02*
G01*
X15766250Y-10237000D01*
X15814250Y-10237000D01*
X15790250Y-10270000D01*
G37*
%TO.C,R7*%
X15655364Y-9926000D02*
X15624636Y-9926000D01*
X15655364Y-10002000D02*
X15624636Y-10002000D01*
%TO.C,Y1*%
X17625071Y-9287307D02*
X17333743Y-9578635D01*
X17866902Y-9529137D02*
X17625071Y-9287307D01*
%TO.C,U1*%
X16198568Y-9835373D02*
X16218013Y-9815928D01*
X16218013Y-9854819D02*
X16198568Y-9835373D01*
X16689654Y-9344288D02*
X16709099Y-9324842D01*
X16709099Y-9324842D02*
X16728544Y-9344288D01*
X16709099Y-10345904D02*
X16689654Y-10326459D01*
X16728544Y-10326459D02*
X16709099Y-10345904D01*
X17200185Y-9815928D02*
X17219630Y-9835373D01*
X17219630Y-9835373D02*
X17200185Y-9854819D01*
%TO.C,R1*%
X14795000Y-9657364D02*
X14795000Y-9626636D01*
X14871000Y-9657364D02*
X14871000Y-9626636D01*
%TO.C,C12*%
X15894000Y-10226216D02*
X15894000Y-10247784D01*
X15966000Y-10226216D02*
X15966000Y-10247784D01*
%TD*%
M02*
