%TF.GenerationSoftware,KiCad,Pcbnew,10.0.0*%
%TF.CreationDate,2026-04-12T10:37:01+02:00*%
%TF.ProjectId,Easyduino_RP2040,45617379-6475-4696-9e6f-5f5250323034,rev?*%
%TF.SameCoordinates,Original*%
%TF.FileFunction,Copper,L4,Bot*%
%TF.FilePolarity,Positive*%
%FSLAX45Y45*%
G04 Gerber Fmt 4.5, Leading zero omitted, Abs format (unit mm)*
G04 Created by KiCad (PCBNEW 10.0.0) date 2026-04-12 10:37:01*
%MOMM*%
%LPD*%
G01*
G04 APERTURE LIST*
%TA.AperFunction,ComponentPad*%
%ADD10O,1.000000X2.100000*%
%TD*%
%TA.AperFunction,ComponentPad*%
%ADD11O,1.000000X1.800000*%
%TD*%
%TA.AperFunction,ComponentPad*%
%ADD12R,1.700000X1.700000*%
%TD*%
%TA.AperFunction,ComponentPad*%
%ADD13C,1.700000*%
%TD*%
%TA.AperFunction,SMDPad,CuDef*%
%ADD14C,0.500000*%
%TD*%
%TA.AperFunction,ViaPad*%
%ADD15C,0.600000*%
%TD*%
%TA.AperFunction,Conductor*%
%ADD16C,0.200000*%
%TD*%
G04 APERTURE END LIST*
D10*
%TO.P,J1,SH,SHIELD_SH*%
%TO.N,GND*%
X14900000Y-8000000D03*
D11*
X14900000Y-7580000D03*
D10*
X14036000Y-8000000D03*
D11*
X14036000Y-7580000D03*
%TD*%
D12*
%TO.P,J5,1,Pin_1_1*%
%TO.N,/SWCLK*%
X14192000Y-12307900D03*
D13*
%TO.P,J5,2,Pin_2_2*%
%TO.N,GND*%
X14446000Y-12307900D03*
%TO.P,J5,3,Pin_3_3*%
%TO.N,/SWD*%
X14700000Y-12307900D03*
%TD*%
D12*
%TO.P,J7,1,Pin_1_1*%
%TO.N,/RUN*%
X14270000Y-8580000D03*
%TD*%
D14*
%TO.P,TP6,1,1_1*%
%TO.N,/SWD*%
X14645000Y-10730000D03*
%TD*%
D12*
%TO.P,J4,1,Pin_1_1*%
%TO.N,VBUS*%
X15344100Y-7481900D03*
D13*
%TO.P,J4,2,Pin_2_2*%
%TO.N,VCC*%
X15344100Y-7735900D03*
%TO.P,J4,3,Pin_3_3*%
%TO.N,GND*%
X15344100Y-7989900D03*
%TO.P,J4,4,Pin_4_4*%
%TO.N,+3.3V*%
X15344100Y-8243900D03*
%TO.P,J4,5,Pin_5_5*%
X15344100Y-8497900D03*
%TO.P,J4,6,Pin_6_6*%
X15344100Y-8751900D03*
%TO.P,J4,7,Pin_7_7*%
%TO.N,/GPIO29_ADC3*%
X15344100Y-9005900D03*
%TO.P,J4,8,Pin_8_8*%
%TO.N,GND*%
X15344100Y-9259900D03*
%TO.P,J4,9,Pin_9_9*%
%TO.N,/GPIO28_ADC2*%
X15344100Y-9513900D03*
%TO.P,J4,10,Pin_10_10*%
%TO.N,/GPIO27_ADC1*%
X15344100Y-9767900D03*
%TO.P,J4,11,Pin_11_11*%
%TO.N,/GPIO26_ADC0*%
X15344100Y-10021900D03*
%TO.P,J4,12,Pin_12_12*%
%TO.N,/GPIO22*%
X15344100Y-10275900D03*
%TO.P,J4,13,Pin_13_13*%
%TO.N,GND*%
X15344100Y-10529900D03*
%TO.P,J4,14,Pin_14_14*%
%TO.N,/GPIO21*%
X15344100Y-10783900D03*
%TO.P,J4,15,Pin_15_15*%
%TO.N,/GPIO20*%
X15344100Y-11037900D03*
%TO.P,J4,16,Pin_16_16*%
%TO.N,/GPIO19*%
X15344100Y-11291900D03*
%TO.P,J4,17,Pin_17_17*%
%TO.N,/GPIO18*%
X15344100Y-11545900D03*
%TO.P,J4,18,Pin_18_18*%
%TO.N,GND*%
X15344100Y-11799900D03*
%TO.P,J4,19,Pin_19_19*%
%TO.N,/GPIO17*%
X15344100Y-12053900D03*
%TO.P,J4,20,Pin_20_20*%
%TO.N,/GPIO16*%
X15344100Y-12307900D03*
%TD*%
D14*
%TO.P,TP5,1,1_1*%
%TO.N,/SWCLK*%
X14510000Y-10730000D03*
%TD*%
%TO.P,TP7,1,1_1*%
%TO.N,GND*%
X14725000Y-10730000D03*
%TD*%
D12*
%TO.P,J3,1,Pin_1_1*%
%TO.N,/GPIO0*%
X13553400Y-7481900D03*
D13*
%TO.P,J3,2,Pin_2_2*%
%TO.N,/GPIO1*%
X13553400Y-7735900D03*
%TO.P,J3,3,Pin_3_3*%
%TO.N,GND*%
X13553400Y-7989900D03*
%TO.P,J3,4,Pin_4_4*%
%TO.N,/GPIO2*%
X13553400Y-8243900D03*
%TO.P,J3,5,Pin_5_5*%
%TO.N,/GPIO3*%
X13553400Y-8497900D03*
%TO.P,J3,6,Pin_6_6*%
%TO.N,/GPIO4*%
X13553400Y-8751900D03*
%TO.P,J3,7,Pin_7_7*%
%TO.N,/GPIO5*%
X13553400Y-9005900D03*
%TO.P,J3,8,Pin_8_8*%
%TO.N,GND*%
X13553400Y-9259900D03*
%TO.P,J3,9,Pin_9_9*%
%TO.N,/GPIO6*%
X13553400Y-9513900D03*
%TO.P,J3,10,Pin_10_10*%
%TO.N,/GPIO7*%
X13553400Y-9767900D03*
%TO.P,J3,11,Pin_11_11*%
%TO.N,/GPIO8*%
X13553400Y-10021900D03*
%TO.P,J3,12,Pin_12_12*%
%TO.N,/GPIO9*%
X13553400Y-10275900D03*
%TO.P,J3,13,Pin_13_13*%
%TO.N,GND*%
X13553400Y-10529900D03*
%TO.P,J3,14,Pin_14_14*%
%TO.N,/GPIO10*%
X13553400Y-10783900D03*
%TO.P,J3,15,Pin_15_15*%
%TO.N,/GPIO11*%
X13553400Y-11037900D03*
%TO.P,J3,16,Pin_16_16*%
%TO.N,/GPIO12*%
X13553400Y-11291900D03*
%TO.P,J3,17,Pin_17_17*%
%TO.N,/GPIO13*%
X13553400Y-11545900D03*
%TO.P,J3,18,Pin_18_18*%
%TO.N,GND*%
X13553400Y-11799900D03*
%TO.P,J3,19,Pin_19_19*%
%TO.N,/GPIO14*%
X13553400Y-12053900D03*
%TO.P,J3,20,Pin_20_20*%
%TO.N,/GPIO15*%
X13553400Y-12307900D03*
%TD*%
D15*
%TO.N,+3.3V*%
X13823216Y-10364779D03*
X14132000Y-8250000D03*
X14999000Y-10031000D03*
X14506500Y-9768000D03*
X14590000Y-8790000D03*
X14948950Y-10350306D03*
X14436276Y-10841505D03*
X13970000Y-9670000D03*
X13965000Y-9855000D03*
X14985500Y-9788000D03*
X14291000Y-8992000D03*
X14670000Y-8790000D03*
X14740000Y-8990000D03*
%TO.N,/GPIO0*%
X13992500Y-10002500D03*
%TO.N,/GPIO1*%
X13965000Y-10085000D03*
%TO.N,/GPIO13*%
X14207416Y-10571240D03*
X13899000Y-11028000D03*
%TO.N,/GPIO14*%
X14270000Y-10530000D03*
X13942948Y-11091004D03*
%TO.N,/GPIO15*%
X13998000Y-11155000D03*
X14339155Y-10558899D03*
%TO.N,GND*%
X15042000Y-10349900D03*
X14500000Y-9265000D03*
X14530000Y-10460000D03*
X14600000Y-10460000D03*
X14629000Y-8515000D03*
X14680000Y-10937500D03*
X14047500Y-9690000D03*
X14530000Y-10250000D03*
X14629000Y-8430000D03*
X14320000Y-10390000D03*
X14145000Y-9030000D03*
X14600000Y-10250000D03*
X14200000Y-9310000D03*
X14390000Y-10390000D03*
X14294000Y-8408000D03*
X14434950Y-10937500D03*
X14790000Y-8150000D03*
X15092000Y-8912000D03*
X14150000Y-8150000D03*
X14600000Y-10180000D03*
X15149000Y-8763000D03*
X13731000Y-8863000D03*
X14175000Y-9675000D03*
X15002500Y-9939500D03*
X14600000Y-10390000D03*
X14530000Y-10390000D03*
X14137500Y-11244950D03*
X14600000Y-10320000D03*
X14320722Y-10183823D03*
X14390000Y-10250000D03*
X14915000Y-9630000D03*
X14390000Y-10460000D03*
X13723101Y-10416899D03*
X14415000Y-10555000D03*
X14715000Y-9630000D03*
X14320000Y-10320000D03*
X14320000Y-10250000D03*
X14460000Y-10460000D03*
X14660000Y-11487500D03*
X14320459Y-10459583D03*
%TO.N,+1V1*%
X14175000Y-9768000D03*
X14655000Y-9790000D03*
X14680000Y-10840000D03*
%TO.N,/SWCLK*%
X14350000Y-11800000D03*
X14530000Y-10555000D03*
%TO.N,/SWD*%
X14550000Y-11805000D03*
X14610963Y-10555000D03*
%TO.N,/RUN*%
X14685000Y-10515000D03*
%TO.N,/GPIO23*%
X14740000Y-9090000D03*
X14705000Y-10340000D03*
%TO.N,/GPIO24*%
X15014000Y-9595000D03*
X15118654Y-10237981D03*
%TO.N,/GPIO25*%
X14740000Y-9195000D03*
X14705000Y-10260000D03*
%TO.N,/QSPI_SD3*%
X14365000Y-9876100D03*
X14292000Y-8827000D03*
%TO.N,/QSPI_SCLK*%
X14485000Y-10105000D03*
X14366973Y-8828026D03*
%TO.N,/QSPI_SD0*%
X14441966Y-8826987D03*
X14340076Y-10110388D03*
%TO.N,/QSPI_SD2*%
X14248825Y-10125131D03*
X14308078Y-9597035D03*
%TO.N,/QSPI_SD1*%
X14230050Y-9595000D03*
X14204000Y-10065000D03*
%TO.N,VBUS*%
X15010000Y-9370000D03*
X14756000Y-8411000D03*
%TD*%
%TO.N,/GPIO0*%
D16*
X13992500Y-10002500D02*
X13932500Y-10002500D01*
X13905000Y-9975000D02*
X13905000Y-7664919D01*
X13717500Y-7435000D02*
X13670600Y-7481900D01*
X13932500Y-10002500D02*
X13905000Y-9975000D01*
X13934000Y-7487500D02*
X13881500Y-7435000D01*
X13670600Y-7481900D02*
X13553400Y-7481900D01*
X13881500Y-7435000D02*
X13717500Y-7435000D01*
X13905000Y-7664919D02*
X13934000Y-7635919D01*
X13934000Y-7635919D02*
X13934000Y-7487500D01*
%TO.N,/GPIO1*%
X13553400Y-7735900D02*
X13755900Y-7735900D01*
X13870050Y-7850050D02*
X13870050Y-10050050D01*
X13905000Y-10085000D02*
X13965000Y-10085000D01*
X13870050Y-10050050D02*
X13905000Y-10085000D01*
X13755900Y-7735900D02*
X13870050Y-7850050D01*
%TO.N,/GPIO13*%
X13899000Y-11028000D02*
X13942000Y-11028000D01*
X14207416Y-10762584D02*
X14207416Y-10571240D01*
X13942000Y-11028000D02*
X14207416Y-10762584D01*
%TO.N,/GPIO14*%
X13948996Y-11091004D02*
X14273819Y-10766181D01*
X14273819Y-10766181D02*
X14273819Y-10533819D01*
X14273819Y-10533819D02*
X14270000Y-10530000D01*
X13942948Y-11091004D02*
X13948996Y-11091004D01*
%TO.N,/GPIO15*%
X14339155Y-10768845D02*
X14339155Y-10558899D01*
X13998000Y-11110000D02*
X14339155Y-10768845D01*
X13998000Y-11155000D02*
X13998000Y-11110000D01*
%TO.N,/SWCLK*%
X14510000Y-10730000D02*
X14559000Y-10730000D01*
X14559000Y-10730000D02*
X14559000Y-11280000D01*
X14390000Y-11800000D02*
X14350000Y-11800000D01*
X14500000Y-11340000D02*
X14420000Y-11420000D01*
X14530000Y-10555000D02*
X14559000Y-10584000D01*
X14192000Y-12178000D02*
X14192000Y-12307900D01*
X14240000Y-12130000D02*
X14192000Y-12178000D01*
X14326000Y-12130000D02*
X14240000Y-12130000D01*
X14420000Y-11420000D02*
X14420000Y-11770000D01*
X14500000Y-11340000D02*
X14500000Y-11339000D01*
X14500000Y-11339000D02*
X14559000Y-11280000D01*
X14420000Y-12036000D02*
X14326000Y-12130000D01*
X14420000Y-11770000D02*
X14390000Y-11800000D01*
X14559000Y-10584000D02*
X14559000Y-10730000D01*
X14420000Y-11770000D02*
X14420000Y-12036000D01*
%TO.N,/SWD*%
X14601000Y-10730000D02*
X14596000Y-10725000D01*
X14495000Y-11805000D02*
X14550000Y-11805000D01*
X14700000Y-12180000D02*
X14700000Y-12307900D01*
X14455000Y-12035000D02*
X14550000Y-12130000D01*
X14596000Y-10725000D02*
X14596000Y-11294000D01*
X14455000Y-11435000D02*
X14455000Y-11765000D01*
X14645000Y-10730000D02*
X14601000Y-10730000D01*
X14550000Y-12130000D02*
X14650000Y-12130000D01*
X14596000Y-10569964D02*
X14596000Y-10725000D01*
X14455000Y-11765000D02*
X14455000Y-12035000D01*
X14596000Y-11294000D02*
X14455000Y-11435000D01*
X14650000Y-12130000D02*
X14700000Y-12180000D01*
X14610963Y-10555000D02*
X14596000Y-10569964D01*
X14455000Y-11765000D02*
X14495000Y-11805000D01*
%TO.N,/RUN*%
X14860000Y-10462000D02*
X14860000Y-8693000D01*
X14860000Y-8693000D02*
X14747000Y-8580000D01*
X14685000Y-10515000D02*
X14807000Y-10515000D01*
X14807000Y-10515000D02*
X14860000Y-10462000D01*
X14747000Y-8580000D02*
X14270000Y-8580000D01*
%TO.N,/GPIO23*%
X14790000Y-9085000D02*
X14745000Y-9085000D01*
X14705000Y-10340000D02*
X14785000Y-10340000D01*
X14825000Y-9120000D02*
X14790000Y-9085000D01*
X14745000Y-9085000D02*
X14740000Y-9090000D01*
X14785000Y-10340000D02*
X14825000Y-10300000D01*
X14825000Y-10300000D02*
X14825000Y-9120000D01*
%TO.N,/GPIO24*%
X15118654Y-9628654D02*
X15085000Y-9595000D01*
X15085000Y-9595000D02*
X15014000Y-9595000D01*
X15118654Y-10237981D02*
X15118654Y-9628654D01*
%TO.N,/GPIO25*%
X14790000Y-9215000D02*
X14770000Y-9195000D01*
X14790000Y-9215000D02*
X14790000Y-10230000D01*
X14760000Y-10260000D02*
X14705000Y-10260000D01*
X14790000Y-10230000D02*
X14760000Y-10260000D01*
X14770000Y-9195000D02*
X14740000Y-9195000D01*
%TO.N,/QSPI_SD3*%
X14363078Y-8956078D02*
X14363078Y-9874178D01*
X14363078Y-9874178D02*
X14365000Y-9876100D01*
X14292000Y-8827000D02*
X14292000Y-8885000D01*
X14292000Y-8885000D02*
X14363078Y-8956078D01*
%TO.N,/QSPI_SCLK*%
X14485000Y-10105000D02*
X14485000Y-9910000D01*
X14398078Y-9823078D02*
X14398078Y-8925078D01*
X14398078Y-8925078D02*
X14366973Y-8893973D01*
X14485000Y-9910000D02*
X14398078Y-9823078D01*
X14366973Y-8893973D02*
X14366973Y-8828026D01*
%TO.N,/QSPI_SD0*%
X14433078Y-8896922D02*
X14442000Y-8888000D01*
X14555000Y-10130000D02*
X14555000Y-9920000D01*
X14433078Y-9798078D02*
X14433078Y-8896922D01*
X14455000Y-10160000D02*
X14525000Y-10160000D01*
X14405388Y-10110388D02*
X14455000Y-10160000D01*
X14441966Y-8887966D02*
X14441966Y-8826987D01*
X14340076Y-10110388D02*
X14405388Y-10110388D01*
X14442000Y-8888000D02*
X14441966Y-8887966D01*
X14555000Y-9920000D02*
X14433078Y-9798078D01*
X14525000Y-10160000D02*
X14555000Y-10130000D01*
%TO.N,/QSPI_SD2*%
X14270000Y-9650000D02*
X14270000Y-10075000D01*
X14255000Y-10120000D02*
X14249869Y-10125131D01*
X14249869Y-10125131D02*
X14248825Y-10125131D01*
X14255000Y-10090000D02*
X14255000Y-10120000D01*
X14270000Y-9635113D02*
X14270000Y-9650000D01*
X14308078Y-9597035D02*
X14270000Y-9635113D01*
X14310000Y-9610000D02*
X14270000Y-9650000D01*
X14270000Y-10075000D02*
X14255000Y-10090000D01*
X14310000Y-9590623D02*
X14310000Y-9610000D01*
%TO.N,/QSPI_SD1*%
X14204000Y-10065000D02*
X14204000Y-10061000D01*
X14204000Y-10061000D02*
X14230000Y-10035000D01*
X14230000Y-10035000D02*
X14230000Y-9630000D01*
X14230000Y-9630000D02*
X14235000Y-9625000D01*
%TD*%
%TA.AperFunction,Conductor*%
%TO.N,GND*%
G36*
X15241883Y-7402167D02*
G01*
X15244050Y-7407400D01*
X15244050Y-7493590D01*
X15241883Y-7498823D01*
X15236650Y-7500990D01*
X15231417Y-7498823D01*
X15218967Y-7486372D01*
X15218966Y-7486371D01*
X15203335Y-7475015D01*
X15186120Y-7466243D01*
X15186120Y-7466243D01*
X15186119Y-7466243D01*
X15186119Y-7466243D01*
X15167745Y-7460273D01*
X15167744Y-7460272D01*
X15148661Y-7457250D01*
X15148661Y-7457250D01*
X15129339Y-7457250D01*
X15129339Y-7457250D01*
X15110256Y-7460272D01*
X15110255Y-7460273D01*
X15091881Y-7466243D01*
X15074665Y-7475015D01*
X15074665Y-7475015D01*
X15064339Y-7482517D01*
X15059034Y-7486371D01*
X15045371Y-7500034D01*
X15045371Y-7500034D01*
X15045371Y-7500034D01*
X15034015Y-7515665D01*
X15034015Y-7515665D01*
X15025243Y-7532881D01*
X15019273Y-7551255D01*
X15019272Y-7551256D01*
X15016250Y-7570339D01*
X15016250Y-7589661D01*
X15019272Y-7608744D01*
X15019273Y-7608745D01*
X15025243Y-7627119D01*
X15025243Y-7627120D01*
X15025243Y-7627120D01*
X15034015Y-7644335D01*
X15045371Y-7659966D01*
X15059034Y-7673628D01*
X15074665Y-7684985D01*
X15091880Y-7693757D01*
X15091881Y-7693757D01*
X15091880Y-7693757D01*
X15110255Y-7699727D01*
X15110255Y-7699727D01*
X15110256Y-7699727D01*
X15122978Y-7701742D01*
X15129339Y-7702750D01*
X15129339Y-7702750D01*
X15148661Y-7702750D01*
X15153431Y-7701994D01*
X15167744Y-7699727D01*
X15167745Y-7699727D01*
X15167745Y-7699727D01*
X15176087Y-7697017D01*
X15186120Y-7693757D01*
X15203335Y-7684985D01*
X15218966Y-7673628D01*
X15232628Y-7659966D01*
X15243985Y-7644335D01*
X15252757Y-7627120D01*
X15258727Y-7608744D01*
X15261750Y-7589661D01*
X15261750Y-7589350D01*
X15263917Y-7584117D01*
X15269150Y-7581950D01*
X15430582Y-7581950D01*
X15430582Y-7581950D01*
X15434972Y-7581077D01*
X15438489Y-7578727D01*
X15444044Y-7577622D01*
X15448753Y-7580769D01*
X15450000Y-7584880D01*
X15450000Y-7692920D01*
X15447833Y-7698152D01*
X15442600Y-7700320D01*
X15437367Y-7698152D01*
X15435763Y-7695751D01*
X15433263Y-7689716D01*
X15432763Y-7688509D01*
X15421814Y-7672122D01*
X15407878Y-7658186D01*
X15406335Y-7657155D01*
X15391491Y-7647237D01*
X15373284Y-7639695D01*
X15373283Y-7639695D01*
X15360339Y-7637120D01*
X15353954Y-7635850D01*
X15334246Y-7635850D01*
X15328766Y-7636940D01*
X15314917Y-7639695D01*
X15314916Y-7639695D01*
X15296709Y-7647237D01*
X15280322Y-7658186D01*
X15280322Y-7658186D01*
X15266386Y-7672122D01*
X15266386Y-7672122D01*
X15255437Y-7688509D01*
X15247895Y-7706716D01*
X15247895Y-7706717D01*
X15244050Y-7726046D01*
X15244050Y-7745754D01*
X15247895Y-7765083D01*
X15247895Y-7765084D01*
X15255437Y-7783291D01*
X15256522Y-7784916D01*
X15266386Y-7799678D01*
X15280322Y-7813614D01*
X15296709Y-7824563D01*
X15314916Y-7832105D01*
X15334246Y-7835950D01*
X15334246Y-7835950D01*
X15353954Y-7835950D01*
X15353954Y-7835950D01*
X15373283Y-7832105D01*
X15391491Y-7824563D01*
X15407878Y-7813614D01*
X15421814Y-7799678D01*
X15432763Y-7783291D01*
X15435763Y-7776048D01*
X15439768Y-7772044D01*
X15445432Y-7772044D01*
X15449437Y-7776048D01*
X15450000Y-7778880D01*
X15450000Y-7935001D01*
X15447833Y-7940233D01*
X15442600Y-7942401D01*
X15437367Y-7940233D01*
X15436447Y-7939112D01*
X15433962Y-7935393D01*
X15433962Y-7935393D01*
X15392396Y-7976959D01*
X15390692Y-7970601D01*
X15384110Y-7959199D01*
X15374801Y-7949890D01*
X15363399Y-7943307D01*
X15357041Y-7941604D01*
X15398607Y-7900038D01*
X15393836Y-7896850D01*
X15374727Y-7888935D01*
X15374727Y-7888935D01*
X15354442Y-7884900D01*
X15333758Y-7884900D01*
X15313473Y-7888935D01*
X15313472Y-7888935D01*
X15294363Y-7896850D01*
X15289593Y-7900038D01*
X15289593Y-7900038D01*
X15331159Y-7941604D01*
X15324801Y-7943307D01*
X15313399Y-7949890D01*
X15304090Y-7959199D01*
X15297507Y-7970601D01*
X15295804Y-7976959D01*
X15254238Y-7935393D01*
X15254238Y-7935393D01*
X15251050Y-7940163D01*
X15243135Y-7959272D01*
X15243135Y-7959273D01*
X15239100Y-7979558D01*
X15239100Y-8000241D01*
X15243135Y-8020527D01*
X15243135Y-8020527D01*
X15251050Y-8039636D01*
X15254238Y-8044407D01*
X15295804Y-8002841D01*
X15297507Y-8009199D01*
X15304090Y-8020601D01*
X15313399Y-8029910D01*
X15324801Y-8036492D01*
X15331159Y-8038196D01*
X15289593Y-8079762D01*
X15289593Y-8079762D01*
X15294364Y-8082950D01*
X15313472Y-8090865D01*
X15313473Y-8090865D01*
X15333758Y-8094900D01*
X15354442Y-8094900D01*
X15374727Y-8090865D01*
X15374727Y-8090865D01*
X15393836Y-8082950D01*
X15398607Y-8079762D01*
X15398607Y-8079762D01*
X15357041Y-8038196D01*
X15363399Y-8036492D01*
X15374801Y-8029910D01*
X15384110Y-8020601D01*
X15390692Y-8009199D01*
X15392396Y-8002841D01*
X15433962Y-8044407D01*
X15436447Y-8040688D01*
X15441156Y-8037541D01*
X15446711Y-8038646D01*
X15449858Y-8043355D01*
X15450000Y-8044799D01*
X15450000Y-8200920D01*
X15447833Y-8206152D01*
X15442600Y-8208320D01*
X15437367Y-8206152D01*
X15435763Y-8203751D01*
X15433263Y-8197716D01*
X15432763Y-8196509D01*
X15421814Y-8180122D01*
X15407878Y-8166186D01*
X15391491Y-8155237D01*
X15391491Y-8155237D01*
X15391491Y-8155237D01*
X15373284Y-8147695D01*
X15373283Y-8147695D01*
X15360339Y-8145120D01*
X15353954Y-8143850D01*
X15334246Y-8143850D01*
X15328766Y-8144940D01*
X15314917Y-8147695D01*
X15314916Y-8147695D01*
X15296709Y-8155237D01*
X15280322Y-8166186D01*
X15280322Y-8166186D01*
X15266386Y-8180122D01*
X15266386Y-8180122D01*
X15255437Y-8196509D01*
X15247895Y-8214716D01*
X15247895Y-8214717D01*
X15244685Y-8230853D01*
X15244050Y-8234046D01*
X15244050Y-8253754D01*
X15245320Y-8260139D01*
X15247895Y-8273083D01*
X15247895Y-8273084D01*
X15255437Y-8291291D01*
X15256522Y-8292916D01*
X15266386Y-8307678D01*
X15280322Y-8321614D01*
X15296709Y-8332563D01*
X15314916Y-8340105D01*
X15334246Y-8343950D01*
X15334246Y-8343950D01*
X15353954Y-8343950D01*
X15353954Y-8343950D01*
X15373283Y-8340105D01*
X15391491Y-8332563D01*
X15407878Y-8321614D01*
X15421814Y-8307678D01*
X15432763Y-8291291D01*
X15435763Y-8284048D01*
X15439768Y-8280044D01*
X15445432Y-8280044D01*
X15449437Y-8284048D01*
X15450000Y-8286880D01*
X15450000Y-8454920D01*
X15447833Y-8460152D01*
X15442600Y-8462320D01*
X15437367Y-8460152D01*
X15435763Y-8457752D01*
X15434590Y-8454920D01*
X15432763Y-8450509D01*
X15421814Y-8434122D01*
X15407878Y-8420186D01*
X15403007Y-8416931D01*
X15391491Y-8409237D01*
X15373284Y-8401695D01*
X15373283Y-8401695D01*
X15360339Y-8399120D01*
X15353954Y-8397850D01*
X15334246Y-8397850D01*
X15328766Y-8398940D01*
X15314917Y-8401695D01*
X15314916Y-8401695D01*
X15296709Y-8409237D01*
X15280322Y-8420186D01*
X15280322Y-8420186D01*
X15266386Y-8434122D01*
X15266386Y-8434122D01*
X15255437Y-8450509D01*
X15247895Y-8468716D01*
X15247895Y-8468717D01*
X15244050Y-8488046D01*
X15244050Y-8507754D01*
X15247895Y-8527083D01*
X15247895Y-8527084D01*
X15255437Y-8545291D01*
X15261890Y-8554950D01*
X15266386Y-8561678D01*
X15280322Y-8575614D01*
X15296709Y-8586563D01*
X15314916Y-8594105D01*
X15334246Y-8597950D01*
X15334246Y-8597950D01*
X15353954Y-8597950D01*
X15353954Y-8597950D01*
X15373283Y-8594105D01*
X15391491Y-8586563D01*
X15407878Y-8575614D01*
X15421814Y-8561678D01*
X15432763Y-8545291D01*
X15435763Y-8538049D01*
X15439768Y-8534044D01*
X15445432Y-8534044D01*
X15449437Y-8538048D01*
X15450000Y-8540880D01*
X15450000Y-8708920D01*
X15447833Y-8714152D01*
X15442600Y-8716320D01*
X15437367Y-8714152D01*
X15435763Y-8711752D01*
X15434590Y-8708920D01*
X15432763Y-8704509D01*
X15421814Y-8688122D01*
X15407878Y-8674186D01*
X15404253Y-8671764D01*
X15391491Y-8663237D01*
X15373284Y-8655695D01*
X15373283Y-8655695D01*
X15360339Y-8653120D01*
X15353954Y-8651850D01*
X15334246Y-8651850D01*
X15328766Y-8652940D01*
X15314917Y-8655695D01*
X15314916Y-8655695D01*
X15296709Y-8663237D01*
X15280322Y-8674186D01*
X15280322Y-8674186D01*
X15266386Y-8688122D01*
X15266386Y-8688122D01*
X15255437Y-8704509D01*
X15247895Y-8722716D01*
X15247895Y-8722717D01*
X15244685Y-8738854D01*
X15244050Y-8742046D01*
X15244050Y-8761754D01*
X15245320Y-8768139D01*
X15247895Y-8781083D01*
X15247895Y-8781084D01*
X15255437Y-8799291D01*
X15266386Y-8815678D01*
X15280322Y-8829614D01*
X15296709Y-8840563D01*
X15305912Y-8844375D01*
X15314916Y-8848105D01*
X15334246Y-8851950D01*
X15334246Y-8851950D01*
X15353954Y-8851950D01*
X15353954Y-8851950D01*
X15373283Y-8848105D01*
X15391491Y-8840563D01*
X15407878Y-8829614D01*
X15421814Y-8815678D01*
X15432763Y-8799291D01*
X15435763Y-8792049D01*
X15439768Y-8788044D01*
X15445432Y-8788044D01*
X15449437Y-8792048D01*
X15450000Y-8794880D01*
X15450000Y-8962920D01*
X15447833Y-8968152D01*
X15442600Y-8970320D01*
X15437367Y-8968152D01*
X15435763Y-8965752D01*
X15434350Y-8962339D01*
X15432763Y-8958509D01*
X15421814Y-8942122D01*
X15407878Y-8928186D01*
X15391491Y-8917237D01*
X15391491Y-8917237D01*
X15391491Y-8917237D01*
X15373284Y-8909695D01*
X15373283Y-8909695D01*
X15360339Y-8907120D01*
X15353954Y-8905850D01*
X15334246Y-8905850D01*
X15328766Y-8906940D01*
X15314917Y-8909695D01*
X15314916Y-8909695D01*
X15296709Y-8917237D01*
X15280322Y-8928186D01*
X15280322Y-8928186D01*
X15266386Y-8942122D01*
X15266386Y-8942122D01*
X15255437Y-8958509D01*
X15247895Y-8976716D01*
X15247895Y-8976717D01*
X15246034Y-8986069D01*
X15244073Y-8995931D01*
X15244050Y-8996046D01*
X15244050Y-9015754D01*
X15247895Y-9035083D01*
X15247895Y-9035084D01*
X15255437Y-9053291D01*
X15262434Y-9063764D01*
X15266386Y-9069678D01*
X15280322Y-9083614D01*
X15296709Y-9094563D01*
X15314916Y-9102105D01*
X15334246Y-9105950D01*
X15334246Y-9105950D01*
X15353954Y-9105950D01*
X15353954Y-9105950D01*
X15373283Y-9102105D01*
X15391491Y-9094563D01*
X15407878Y-9083614D01*
X15421814Y-9069678D01*
X15432763Y-9053291D01*
X15435763Y-9046049D01*
X15439768Y-9042044D01*
X15445432Y-9042044D01*
X15449437Y-9046048D01*
X15450000Y-9048880D01*
X15450000Y-9205001D01*
X15447833Y-9210234D01*
X15442600Y-9212401D01*
X15437367Y-9210234D01*
X15436447Y-9209112D01*
X15433962Y-9205393D01*
X15433962Y-9205393D01*
X15392396Y-9246959D01*
X15390692Y-9240601D01*
X15384110Y-9229199D01*
X15374801Y-9219890D01*
X15363399Y-9213308D01*
X15357041Y-9211604D01*
X15398607Y-9170038D01*
X15393836Y-9166850D01*
X15374727Y-9158935D01*
X15374727Y-9158935D01*
X15354442Y-9154900D01*
X15333758Y-9154900D01*
X15313473Y-9158935D01*
X15313472Y-9158935D01*
X15294363Y-9166850D01*
X15289593Y-9170038D01*
X15289593Y-9170038D01*
X15331159Y-9211604D01*
X15324801Y-9213308D01*
X15313399Y-9219890D01*
X15304090Y-9229199D01*
X15297507Y-9240601D01*
X15295804Y-9246959D01*
X15254238Y-9205393D01*
X15254238Y-9205393D01*
X15251050Y-9210163D01*
X15243135Y-9229273D01*
X15243135Y-9229273D01*
X15239100Y-9249558D01*
X15239100Y-9270242D01*
X15243135Y-9290527D01*
X15243135Y-9290527D01*
X15251050Y-9309636D01*
X15254238Y-9314407D01*
X15295804Y-9272841D01*
X15297507Y-9279199D01*
X15304090Y-9290601D01*
X15313399Y-9299910D01*
X15324801Y-9306493D01*
X15331159Y-9308196D01*
X15289593Y-9349762D01*
X15289593Y-9349762D01*
X15294364Y-9352950D01*
X15313472Y-9360865D01*
X15313473Y-9360865D01*
X15333758Y-9364900D01*
X15354442Y-9364900D01*
X15374727Y-9360865D01*
X15374727Y-9360865D01*
X15393836Y-9352950D01*
X15398607Y-9349762D01*
X15398607Y-9349762D01*
X15357041Y-9308196D01*
X15363399Y-9306493D01*
X15374801Y-9299910D01*
X15384110Y-9290601D01*
X15390692Y-9279199D01*
X15392396Y-9272841D01*
X15433962Y-9314407D01*
X15436447Y-9310688D01*
X15441156Y-9307541D01*
X15446711Y-9308646D01*
X15449858Y-9313355D01*
X15450000Y-9314799D01*
X15450000Y-9470920D01*
X15447833Y-9476152D01*
X15442600Y-9478320D01*
X15437367Y-9476152D01*
X15435763Y-9473752D01*
X15433263Y-9467716D01*
X15432763Y-9466509D01*
X15421814Y-9450122D01*
X15407878Y-9436186D01*
X15391491Y-9425237D01*
X15391491Y-9425237D01*
X15391491Y-9425237D01*
X15373284Y-9417695D01*
X15373283Y-9417695D01*
X15359986Y-9415050D01*
X15353954Y-9413850D01*
X15334246Y-9413850D01*
X15328766Y-9414940D01*
X15314917Y-9417695D01*
X15314916Y-9417695D01*
X15296709Y-9425237D01*
X15280322Y-9436186D01*
X15280322Y-9436186D01*
X15266386Y-9450122D01*
X15266386Y-9450122D01*
X15255437Y-9466509D01*
X15247895Y-9484716D01*
X15247895Y-9484717D01*
X15244050Y-9504046D01*
X15244050Y-9523754D01*
X15247895Y-9543083D01*
X15247895Y-9543084D01*
X15255437Y-9561291D01*
X15266342Y-9577612D01*
X15266386Y-9577678D01*
X15280322Y-9591614D01*
X15296709Y-9602563D01*
X15314916Y-9610105D01*
X15334246Y-9613950D01*
X15334246Y-9613950D01*
X15353954Y-9613950D01*
X15353954Y-9613950D01*
X15373283Y-9610105D01*
X15391491Y-9602563D01*
X15407878Y-9591614D01*
X15421814Y-9577678D01*
X15432763Y-9561291D01*
X15435763Y-9554049D01*
X15439768Y-9550044D01*
X15445432Y-9550044D01*
X15449437Y-9554048D01*
X15450000Y-9556880D01*
X15450000Y-9724920D01*
X15447833Y-9730152D01*
X15442600Y-9732320D01*
X15437367Y-9730152D01*
X15435763Y-9727752D01*
X15434590Y-9724920D01*
X15432763Y-9720509D01*
X15421814Y-9704122D01*
X15407878Y-9690186D01*
X15403691Y-9687389D01*
X15391491Y-9679237D01*
X15373284Y-9671695D01*
X15373283Y-9671695D01*
X15360339Y-9669120D01*
X15353954Y-9667850D01*
X15334246Y-9667850D01*
X15328766Y-9668940D01*
X15314917Y-9671695D01*
X15314916Y-9671695D01*
X15296709Y-9679237D01*
X15280322Y-9690186D01*
X15280322Y-9690186D01*
X15266386Y-9704122D01*
X15266386Y-9704122D01*
X15255437Y-9720509D01*
X15247895Y-9738716D01*
X15247895Y-9738717D01*
X15244050Y-9758046D01*
X15244050Y-9777754D01*
X15247895Y-9797083D01*
X15247895Y-9797084D01*
X15255437Y-9815291D01*
X15266386Y-9831678D01*
X15280322Y-9845614D01*
X15296709Y-9856563D01*
X15301895Y-9858711D01*
X15314916Y-9864105D01*
X15334246Y-9867950D01*
X15334246Y-9867950D01*
X15353954Y-9867950D01*
X15353954Y-9867950D01*
X15373283Y-9864105D01*
X15391491Y-9856563D01*
X15407878Y-9845614D01*
X15421814Y-9831678D01*
X15432763Y-9815291D01*
X15435155Y-9809516D01*
X15435763Y-9808049D01*
X15439768Y-9804044D01*
X15445432Y-9804044D01*
X15449437Y-9808048D01*
X15450000Y-9810880D01*
X15450000Y-9978920D01*
X15447833Y-9984152D01*
X15442600Y-9986320D01*
X15437367Y-9984152D01*
X15435763Y-9981752D01*
X15434590Y-9978920D01*
X15432763Y-9974509D01*
X15421814Y-9958122D01*
X15407878Y-9944186D01*
X15391797Y-9933441D01*
X15391491Y-9933237D01*
X15373284Y-9925695D01*
X15373283Y-9925695D01*
X15360281Y-9923109D01*
X15353954Y-9921850D01*
X15334246Y-9921850D01*
X15328766Y-9922940D01*
X15314917Y-9925695D01*
X15314916Y-9925695D01*
X15296709Y-9933237D01*
X15280322Y-9944186D01*
X15280322Y-9944186D01*
X15266386Y-9958122D01*
X15266386Y-9958122D01*
X15255437Y-9974509D01*
X15247895Y-9992716D01*
X15247895Y-9992717D01*
X15244050Y-10012046D01*
X15244050Y-10031754D01*
X15247895Y-10051083D01*
X15247895Y-10051084D01*
X15255437Y-10069291D01*
X15266386Y-10085678D01*
X15280322Y-10099614D01*
X15296709Y-10110563D01*
X15304093Y-10113622D01*
X15314916Y-10118105D01*
X15334246Y-10121950D01*
X15334246Y-10121950D01*
X15353954Y-10121950D01*
X15353954Y-10121950D01*
X15373283Y-10118105D01*
X15391491Y-10110563D01*
X15407878Y-10099614D01*
X15421814Y-10085678D01*
X15432763Y-10069291D01*
X15435763Y-10062049D01*
X15439768Y-10058044D01*
X15445432Y-10058044D01*
X15449437Y-10062048D01*
X15450000Y-10064880D01*
X15450000Y-10232920D01*
X15447833Y-10238152D01*
X15442600Y-10240320D01*
X15437367Y-10238152D01*
X15435763Y-10235752D01*
X15434350Y-10232339D01*
X15432763Y-10228509D01*
X15421814Y-10212122D01*
X15407878Y-10198186D01*
X15406470Y-10197245D01*
X15391491Y-10187237D01*
X15373284Y-10179695D01*
X15373283Y-10179695D01*
X15360339Y-10177120D01*
X15353954Y-10175850D01*
X15334246Y-10175850D01*
X15328766Y-10176940D01*
X15314917Y-10179695D01*
X15314916Y-10179695D01*
X15296709Y-10187237D01*
X15280322Y-10198186D01*
X15280322Y-10198186D01*
X15266386Y-10212122D01*
X15266386Y-10212122D01*
X15255437Y-10228509D01*
X15247895Y-10246716D01*
X15247895Y-10246717D01*
X15244685Y-10262854D01*
X15244050Y-10266046D01*
X15244050Y-10285754D01*
X15244399Y-10287511D01*
X15247895Y-10305083D01*
X15247895Y-10305084D01*
X15255437Y-10323291D01*
X15266386Y-10339678D01*
X15280322Y-10353614D01*
X15296709Y-10364563D01*
X15303360Y-10367318D01*
X15314916Y-10372105D01*
X15334246Y-10375950D01*
X15334246Y-10375950D01*
X15353954Y-10375950D01*
X15353954Y-10375950D01*
X15373283Y-10372105D01*
X15391491Y-10364563D01*
X15407878Y-10353614D01*
X15421814Y-10339678D01*
X15432763Y-10323291D01*
X15435763Y-10316049D01*
X15439768Y-10312044D01*
X15445432Y-10312044D01*
X15449437Y-10316048D01*
X15450000Y-10318880D01*
X15450000Y-10475001D01*
X15447833Y-10480234D01*
X15442600Y-10482401D01*
X15437367Y-10480234D01*
X15436447Y-10479112D01*
X15433962Y-10475393D01*
X15433962Y-10475393D01*
X15392396Y-10516959D01*
X15390692Y-10510601D01*
X15384110Y-10499199D01*
X15374801Y-10489890D01*
X15363399Y-10483308D01*
X15357041Y-10481604D01*
X15398607Y-10440038D01*
X15393836Y-10436850D01*
X15374727Y-10428935D01*
X15374727Y-10428935D01*
X15354442Y-10424900D01*
X15333758Y-10424900D01*
X15313473Y-10428935D01*
X15313472Y-10428935D01*
X15294363Y-10436850D01*
X15289593Y-10440038D01*
X15289593Y-10440038D01*
X15331159Y-10481604D01*
X15324801Y-10483308D01*
X15313399Y-10489890D01*
X15304090Y-10499199D01*
X15297507Y-10510601D01*
X15295804Y-10516959D01*
X15254238Y-10475393D01*
X15254238Y-10475393D01*
X15251050Y-10480163D01*
X15243135Y-10499273D01*
X15243135Y-10499273D01*
X15239100Y-10519558D01*
X15239100Y-10540242D01*
X15243135Y-10560527D01*
X15243135Y-10560527D01*
X15251050Y-10579636D01*
X15254238Y-10584407D01*
X15295804Y-10542841D01*
X15297507Y-10549199D01*
X15304090Y-10560601D01*
X15313399Y-10569910D01*
X15324801Y-10576493D01*
X15331159Y-10578196D01*
X15289593Y-10619762D01*
X15289593Y-10619762D01*
X15294364Y-10622950D01*
X15313472Y-10630865D01*
X15313473Y-10630865D01*
X15333758Y-10634900D01*
X15354442Y-10634900D01*
X15374727Y-10630865D01*
X15374727Y-10630865D01*
X15393836Y-10622950D01*
X15398607Y-10619762D01*
X15398607Y-10619762D01*
X15357041Y-10578196D01*
X15363399Y-10576493D01*
X15374801Y-10569910D01*
X15384110Y-10560601D01*
X15390692Y-10549199D01*
X15392396Y-10542841D01*
X15433962Y-10584407D01*
X15436447Y-10580688D01*
X15441156Y-10577541D01*
X15446711Y-10578646D01*
X15449858Y-10583355D01*
X15450000Y-10584799D01*
X15450000Y-10740920D01*
X15447833Y-10746152D01*
X15442600Y-10748320D01*
X15437367Y-10746152D01*
X15435763Y-10743752D01*
X15433263Y-10737716D01*
X15432763Y-10736509D01*
X15421814Y-10720122D01*
X15407878Y-10706186D01*
X15406715Y-10705409D01*
X15391491Y-10695237D01*
X15373284Y-10687695D01*
X15373283Y-10687695D01*
X15360339Y-10685120D01*
X15353954Y-10683850D01*
X15334246Y-10683850D01*
X15328766Y-10684940D01*
X15314917Y-10687695D01*
X15314916Y-10687695D01*
X15296709Y-10695237D01*
X15280322Y-10706186D01*
X15280322Y-10706186D01*
X15266386Y-10720122D01*
X15266386Y-10720122D01*
X15255437Y-10736509D01*
X15247895Y-10754716D01*
X15247895Y-10754717D01*
X15246076Y-10763863D01*
X15244050Y-10774046D01*
X15244050Y-10793754D01*
X15244898Y-10798020D01*
X15247895Y-10813083D01*
X15247895Y-10813084D01*
X15255437Y-10831291D01*
X15266386Y-10847678D01*
X15280322Y-10861614D01*
X15296709Y-10872563D01*
X15308759Y-10877555D01*
X15314916Y-10880105D01*
X15334246Y-10883950D01*
X15334246Y-10883950D01*
X15353954Y-10883950D01*
X15353954Y-10883950D01*
X15373283Y-10880105D01*
X15391491Y-10872563D01*
X15407878Y-10861614D01*
X15421814Y-10847678D01*
X15432763Y-10831291D01*
X15435763Y-10824049D01*
X15439768Y-10820044D01*
X15445432Y-10820044D01*
X15449437Y-10824048D01*
X15450000Y-10826880D01*
X15450000Y-10994920D01*
X15447833Y-11000152D01*
X15442600Y-11002320D01*
X15437367Y-11000152D01*
X15435763Y-10997752D01*
X15433361Y-10991951D01*
X15432763Y-10990509D01*
X15421814Y-10974122D01*
X15407878Y-10960186D01*
X15391491Y-10949237D01*
X15391491Y-10949237D01*
X15391491Y-10949237D01*
X15373284Y-10941695D01*
X15373283Y-10941695D01*
X15360339Y-10939120D01*
X15353954Y-10937850D01*
X15334246Y-10937850D01*
X15328766Y-10938940D01*
X15314917Y-10941695D01*
X15314916Y-10941695D01*
X15296709Y-10949237D01*
X15280322Y-10960186D01*
X15280322Y-10960186D01*
X15266386Y-10974122D01*
X15266386Y-10974122D01*
X15255437Y-10990509D01*
X15247895Y-11008716D01*
X15247895Y-11008717D01*
X15244050Y-11028046D01*
X15244050Y-11047754D01*
X15247895Y-11067083D01*
X15247895Y-11067084D01*
X15255437Y-11085291D01*
X15263217Y-11096935D01*
X15266386Y-11101678D01*
X15280322Y-11115614D01*
X15296709Y-11126563D01*
X15314916Y-11134105D01*
X15334246Y-11137950D01*
X15334246Y-11137950D01*
X15353954Y-11137950D01*
X15353954Y-11137950D01*
X15373283Y-11134105D01*
X15391491Y-11126563D01*
X15407878Y-11115614D01*
X15421814Y-11101678D01*
X15432763Y-11085291D01*
X15435763Y-11078049D01*
X15439768Y-11074044D01*
X15445432Y-11074044D01*
X15449437Y-11078048D01*
X15450000Y-11080880D01*
X15450000Y-11248920D01*
X15447833Y-11254152D01*
X15442600Y-11256320D01*
X15437367Y-11254152D01*
X15435763Y-11251751D01*
X15433263Y-11245716D01*
X15432763Y-11244509D01*
X15421814Y-11228122D01*
X15407878Y-11214186D01*
X15391491Y-11203237D01*
X15391491Y-11203237D01*
X15391491Y-11203237D01*
X15373284Y-11195695D01*
X15373283Y-11195695D01*
X15360339Y-11193120D01*
X15353954Y-11191850D01*
X15334246Y-11191850D01*
X15328766Y-11192940D01*
X15314917Y-11195695D01*
X15314916Y-11195695D01*
X15296709Y-11203237D01*
X15280322Y-11214186D01*
X15280322Y-11214186D01*
X15266386Y-11228122D01*
X15266386Y-11228122D01*
X15255437Y-11244509D01*
X15247895Y-11262716D01*
X15247895Y-11262717D01*
X15244050Y-11282046D01*
X15244050Y-11301754D01*
X15247895Y-11321083D01*
X15247895Y-11321084D01*
X15255437Y-11339291D01*
X15256522Y-11340916D01*
X15266386Y-11355678D01*
X15280322Y-11369614D01*
X15296709Y-11380563D01*
X15314916Y-11388105D01*
X15334246Y-11391950D01*
X15334246Y-11391950D01*
X15353954Y-11391950D01*
X15353954Y-11391950D01*
X15373283Y-11388105D01*
X15391491Y-11380563D01*
X15407878Y-11369614D01*
X15421814Y-11355678D01*
X15432763Y-11339291D01*
X15435763Y-11332048D01*
X15439768Y-11328044D01*
X15445432Y-11328044D01*
X15449437Y-11332048D01*
X15450000Y-11334880D01*
X15450000Y-11502920D01*
X15447833Y-11508152D01*
X15442600Y-11510320D01*
X15437367Y-11508152D01*
X15435763Y-11505751D01*
X15433263Y-11499716D01*
X15432763Y-11498509D01*
X15421814Y-11482122D01*
X15407878Y-11468186D01*
X15391491Y-11457237D01*
X15391491Y-11457237D01*
X15391491Y-11457237D01*
X15373284Y-11449695D01*
X15373283Y-11449695D01*
X15360339Y-11447120D01*
X15353954Y-11445850D01*
X15334246Y-11445850D01*
X15328766Y-11446940D01*
X15314917Y-11449695D01*
X15314916Y-11449695D01*
X15296709Y-11457237D01*
X15280322Y-11468186D01*
X15280322Y-11468186D01*
X15266386Y-11482122D01*
X15266386Y-11482122D01*
X15255437Y-11498509D01*
X15247895Y-11516716D01*
X15247895Y-11516717D01*
X15244050Y-11536046D01*
X15244050Y-11555754D01*
X15247895Y-11575083D01*
X15247895Y-11575084D01*
X15255437Y-11593291D01*
X15256522Y-11594916D01*
X15266386Y-11609678D01*
X15280322Y-11623614D01*
X15296709Y-11634563D01*
X15314916Y-11642105D01*
X15334246Y-11645950D01*
X15334246Y-11645950D01*
X15353954Y-11645950D01*
X15353954Y-11645950D01*
X15373283Y-11642105D01*
X15391491Y-11634563D01*
X15407878Y-11623614D01*
X15421814Y-11609678D01*
X15432763Y-11593291D01*
X15435763Y-11586048D01*
X15439768Y-11582044D01*
X15445432Y-11582044D01*
X15449437Y-11586048D01*
X15450000Y-11588880D01*
X15450000Y-11745001D01*
X15447833Y-11750233D01*
X15442600Y-11752401D01*
X15437367Y-11750233D01*
X15436447Y-11749112D01*
X15433962Y-11745393D01*
X15433962Y-11745393D01*
X15392396Y-11786959D01*
X15390692Y-11780601D01*
X15384110Y-11769199D01*
X15374801Y-11759890D01*
X15363399Y-11753307D01*
X15357041Y-11751604D01*
X15398607Y-11710038D01*
X15393836Y-11706850D01*
X15374727Y-11698935D01*
X15374727Y-11698935D01*
X15354442Y-11694900D01*
X15333758Y-11694900D01*
X15313473Y-11698935D01*
X15313472Y-11698935D01*
X15294363Y-11706850D01*
X15289593Y-11710038D01*
X15289593Y-11710038D01*
X15331159Y-11751604D01*
X15324801Y-11753307D01*
X15313399Y-11759890D01*
X15304090Y-11769199D01*
X15297507Y-11780601D01*
X15295804Y-11786959D01*
X15254238Y-11745393D01*
X15254238Y-11745393D01*
X15251050Y-11750163D01*
X15243135Y-11769272D01*
X15243135Y-11769273D01*
X15239100Y-11789558D01*
X15239100Y-11810241D01*
X15243135Y-11830527D01*
X15243135Y-11830527D01*
X15251050Y-11849636D01*
X15254238Y-11854407D01*
X15295804Y-11812841D01*
X15297507Y-11819199D01*
X15304090Y-11830601D01*
X15313399Y-11839910D01*
X15324801Y-11846492D01*
X15331159Y-11848196D01*
X15289593Y-11889762D01*
X15289593Y-11889762D01*
X15294364Y-11892950D01*
X15313472Y-11900865D01*
X15313473Y-11900865D01*
X15333758Y-11904900D01*
X15354442Y-11904900D01*
X15374727Y-11900865D01*
X15374727Y-11900865D01*
X15393836Y-11892950D01*
X15398607Y-11889762D01*
X15398607Y-11889762D01*
X15357041Y-11848196D01*
X15363399Y-11846492D01*
X15374801Y-11839910D01*
X15384110Y-11830601D01*
X15390692Y-11819199D01*
X15392396Y-11812841D01*
X15433962Y-11854407D01*
X15436447Y-11850688D01*
X15441156Y-11847541D01*
X15446711Y-11848646D01*
X15449858Y-11853355D01*
X15450000Y-11854799D01*
X15450000Y-12010920D01*
X15447833Y-12016152D01*
X15442600Y-12018320D01*
X15437367Y-12016152D01*
X15435763Y-12013751D01*
X15433263Y-12007716D01*
X15432763Y-12006509D01*
X15421814Y-11990122D01*
X15407878Y-11976186D01*
X15391491Y-11965237D01*
X15391491Y-11965237D01*
X15391491Y-11965237D01*
X15373284Y-11957695D01*
X15373283Y-11957695D01*
X15360339Y-11955120D01*
X15353954Y-11953850D01*
X15334246Y-11953850D01*
X15328766Y-11954940D01*
X15314917Y-11957695D01*
X15314916Y-11957695D01*
X15296709Y-11965237D01*
X15280322Y-11976186D01*
X15280322Y-11976186D01*
X15266386Y-11990122D01*
X15266386Y-11990122D01*
X15255437Y-12006509D01*
X15247895Y-12024716D01*
X15247895Y-12024717D01*
X15244050Y-12044046D01*
X15244050Y-12063754D01*
X15247895Y-12083083D01*
X15247895Y-12083084D01*
X15255437Y-12101291D01*
X15265138Y-12115810D01*
X15266386Y-12117678D01*
X15280322Y-12131614D01*
X15296709Y-12142563D01*
X15314916Y-12150105D01*
X15334246Y-12153950D01*
X15334246Y-12153950D01*
X15353954Y-12153950D01*
X15353954Y-12153950D01*
X15373283Y-12150105D01*
X15391491Y-12142563D01*
X15407878Y-12131614D01*
X15421814Y-12117678D01*
X15432763Y-12101291D01*
X15435763Y-12094048D01*
X15439768Y-12090044D01*
X15445432Y-12090044D01*
X15449437Y-12094048D01*
X15450000Y-12096880D01*
X15450000Y-12264920D01*
X15447833Y-12270152D01*
X15442600Y-12272320D01*
X15437367Y-12270152D01*
X15435763Y-12267751D01*
X15433094Y-12261307D01*
X15432763Y-12260509D01*
X15421814Y-12244122D01*
X15407878Y-12230186D01*
X15407092Y-12229661D01*
X15391491Y-12219237D01*
X15373284Y-12211695D01*
X15373283Y-12211695D01*
X15358344Y-12208723D01*
X15353954Y-12207850D01*
X15334246Y-12207850D01*
X15329856Y-12208723D01*
X15314917Y-12211695D01*
X15314916Y-12211695D01*
X15296709Y-12219237D01*
X15280322Y-12230186D01*
X15280322Y-12230186D01*
X15266386Y-12244122D01*
X15266386Y-12244122D01*
X15255437Y-12260509D01*
X15247895Y-12278716D01*
X15247895Y-12278717D01*
X15244050Y-12298046D01*
X15244050Y-12317754D01*
X15247895Y-12337083D01*
X15247895Y-12337084D01*
X15255437Y-12355291D01*
X15266386Y-12371678D01*
X15280322Y-12385614D01*
X15281569Y-12386447D01*
X15284715Y-12391156D01*
X15283610Y-12396711D01*
X15278901Y-12399858D01*
X15277458Y-12400000D01*
X14766642Y-12400000D01*
X14761410Y-12397833D01*
X14759242Y-12392600D01*
X14761410Y-12387367D01*
X14762531Y-12386447D01*
X14763778Y-12385614D01*
X14777714Y-12371678D01*
X14788663Y-12355291D01*
X14796205Y-12337083D01*
X14800050Y-12317754D01*
X14800050Y-12298046D01*
X14796205Y-12278716D01*
X14788663Y-12260509D01*
X14777714Y-12244122D01*
X14763778Y-12230186D01*
X14762992Y-12229661D01*
X14747391Y-12219237D01*
X14741715Y-12216885D01*
X14741715Y-12216885D01*
X14729618Y-12211875D01*
X14728083Y-12210339D01*
X14936250Y-12210339D01*
X14936250Y-12229661D01*
X14939272Y-12248744D01*
X14939273Y-12248745D01*
X14945243Y-12267119D01*
X14945243Y-12267120D01*
X14945243Y-12267120D01*
X14954015Y-12284335D01*
X14965371Y-12299966D01*
X14979034Y-12313628D01*
X14994665Y-12324985D01*
X15011880Y-12333757D01*
X15011881Y-12333757D01*
X15011880Y-12333757D01*
X15030255Y-12339727D01*
X15030255Y-12339727D01*
X15030256Y-12339727D01*
X15042978Y-12341742D01*
X15049339Y-12342750D01*
X15049339Y-12342750D01*
X15068661Y-12342750D01*
X15073431Y-12341994D01*
X15087744Y-12339727D01*
X15087745Y-12339727D01*
X15087745Y-12339727D01*
X15096087Y-12337017D01*
X15106120Y-12333757D01*
X15123335Y-12324985D01*
X15138966Y-12313628D01*
X15152628Y-12299966D01*
X15163985Y-12284335D01*
X15172757Y-12267120D01*
X15178727Y-12248744D01*
X15181750Y-12229661D01*
X15181750Y-12210339D01*
X15181739Y-12210271D01*
X15178727Y-12191256D01*
X15178727Y-12191255D01*
X15172757Y-12172881D01*
X15172757Y-12172880D01*
X15172757Y-12172880D01*
X15163985Y-12155665D01*
X15152628Y-12140034D01*
X15138966Y-12126371D01*
X15123335Y-12115015D01*
X15106120Y-12106243D01*
X15106120Y-12106243D01*
X15106119Y-12106243D01*
X15106119Y-12106243D01*
X15087745Y-12100273D01*
X15087744Y-12100272D01*
X15068661Y-12097250D01*
X15068661Y-12097250D01*
X15049339Y-12097250D01*
X15049339Y-12097250D01*
X15030256Y-12100272D01*
X15030255Y-12100273D01*
X15011881Y-12106243D01*
X14994665Y-12115015D01*
X14994665Y-12115015D01*
X14979034Y-12126371D01*
X14979034Y-12126371D01*
X14965371Y-12140034D01*
X14965371Y-12140034D01*
X14965371Y-12140034D01*
X14954015Y-12155665D01*
X14954015Y-12155665D01*
X14945243Y-12172881D01*
X14939273Y-12191255D01*
X14939272Y-12191256D01*
X14936250Y-12210339D01*
X14728083Y-12210339D01*
X14725613Y-12207870D01*
X14725050Y-12205038D01*
X14725050Y-12185845D01*
X14725050Y-12185844D01*
X14725050Y-12175017D01*
X14721738Y-12167021D01*
X14721236Y-12165810D01*
X14721236Y-12165810D01*
X14714190Y-12158764D01*
X14714189Y-12158763D01*
X14664190Y-12108764D01*
X14664189Y-12108763D01*
X14664189Y-12108763D01*
X14654983Y-12104950D01*
X14563441Y-12104950D01*
X14558209Y-12102783D01*
X14482217Y-12026791D01*
X14480050Y-12021559D01*
X14480050Y-11836996D01*
X14482217Y-11831764D01*
X14487450Y-11829596D01*
X14489291Y-11829963D01*
X14489302Y-11829908D01*
X14490017Y-11830050D01*
X14490017Y-11830050D01*
X14499983Y-11830050D01*
X14508298Y-11830050D01*
X14513531Y-11832217D01*
X14513698Y-11832408D01*
X14513951Y-11832661D01*
X14513951Y-11832661D01*
X14522339Y-11841049D01*
X14522339Y-11841049D01*
X14522339Y-11841049D01*
X14529269Y-11845050D01*
X14532611Y-11846980D01*
X14532611Y-11846980D01*
X14532612Y-11846980D01*
X14534706Y-11847541D01*
X14544069Y-11850050D01*
X14544069Y-11850050D01*
X14544069Y-11850050D01*
X14555931Y-11850050D01*
X14555931Y-11850050D01*
X14567389Y-11846980D01*
X14577661Y-11841049D01*
X14586049Y-11832661D01*
X14591980Y-11822389D01*
X14595050Y-11810931D01*
X14595050Y-11810931D01*
X14595050Y-11799069D01*
X14592917Y-11791110D01*
X14592917Y-11791110D01*
X14592373Y-11789080D01*
X14591980Y-11787611D01*
X14589093Y-11782611D01*
X14586049Y-11777339D01*
X14586049Y-11777339D01*
X14586049Y-11777339D01*
X14577661Y-11768951D01*
X14577661Y-11768951D01*
X14577661Y-11768951D01*
X14567389Y-11763020D01*
X14567388Y-11763020D01*
X14555931Y-11759950D01*
X14555931Y-11759950D01*
X14544069Y-11759950D01*
X14544069Y-11759950D01*
X14532612Y-11763020D01*
X14532611Y-11763020D01*
X14522339Y-11768951D01*
X14513608Y-11777682D01*
X14513392Y-11777465D01*
X14509301Y-11779809D01*
X14503835Y-11778324D01*
X14503128Y-11777701D01*
X14482217Y-11756791D01*
X14480050Y-11751559D01*
X14480050Y-11448441D01*
X14482217Y-11443209D01*
X14617236Y-11308190D01*
X14617236Y-11308190D01*
X14621050Y-11298983D01*
X14621050Y-11289017D01*
X14621050Y-10850264D01*
X14623217Y-10845031D01*
X14628450Y-10842864D01*
X14633683Y-10845031D01*
X14635598Y-10848349D01*
X14638020Y-10857388D01*
X14638020Y-10857389D01*
X14643951Y-10867661D01*
X14643951Y-10867661D01*
X14643951Y-10867661D01*
X14652339Y-10876049D01*
X14652339Y-10876049D01*
X14652339Y-10876049D01*
X14662611Y-10881980D01*
X14662611Y-10881980D01*
X14662611Y-10881980D01*
X14662612Y-10881980D01*
X14668229Y-10883485D01*
X14674069Y-10885050D01*
X14674069Y-10885050D01*
X14674069Y-10885050D01*
X14685931Y-10885050D01*
X14685931Y-10885050D01*
X14697389Y-10881980D01*
X14707661Y-10876049D01*
X14716049Y-10867661D01*
X14721980Y-10857389D01*
X14725050Y-10845931D01*
X14725050Y-10845931D01*
X14725050Y-10834069D01*
X14725050Y-10834069D01*
X14721980Y-10822612D01*
X14721980Y-10822611D01*
X14716049Y-10812339D01*
X14716049Y-10812339D01*
X14716049Y-10812339D01*
X14707661Y-10803951D01*
X14707661Y-10803951D01*
X14707661Y-10803951D01*
X14697389Y-10798020D01*
X14697388Y-10798020D01*
X14685931Y-10794950D01*
X14685931Y-10794950D01*
X14674069Y-10794950D01*
X14674069Y-10794950D01*
X14662612Y-10798020D01*
X14662611Y-10798020D01*
X14652339Y-10803951D01*
X14643951Y-10812339D01*
X14638020Y-10822611D01*
X14638020Y-10822612D01*
X14635598Y-10831651D01*
X14632150Y-10836145D01*
X14626535Y-10836884D01*
X14622041Y-10833436D01*
X14621050Y-10829736D01*
X14621050Y-10774689D01*
X14623217Y-10769457D01*
X14628450Y-10767289D01*
X14630365Y-10767542D01*
X14639727Y-10770050D01*
X14639727Y-10770050D01*
X14639727Y-10770050D01*
X14650273Y-10770050D01*
X14650273Y-10770050D01*
X14660459Y-10767321D01*
X14669591Y-10762048D01*
X14677048Y-10754591D01*
X14682321Y-10745459D01*
X14685050Y-10735273D01*
X14685050Y-10735273D01*
X14685050Y-10724727D01*
X14685050Y-10724727D01*
X14682321Y-10714542D01*
X14682321Y-10714541D01*
X14677048Y-10705409D01*
X14669591Y-10697952D01*
X14668950Y-10697582D01*
X14660459Y-10692680D01*
X14660458Y-10692679D01*
X14650273Y-10689950D01*
X14650273Y-10689950D01*
X14639727Y-10689950D01*
X14630365Y-10692459D01*
X14624750Y-10691719D01*
X14621302Y-10687226D01*
X14621050Y-10685311D01*
X14621050Y-10604615D01*
X14623217Y-10599382D01*
X14626535Y-10597467D01*
X14628352Y-10596980D01*
X14638625Y-10591049D01*
X14647012Y-10582661D01*
X14652943Y-10572389D01*
X14654855Y-10565255D01*
X14655988Y-10561026D01*
X14659436Y-10556532D01*
X14665051Y-10555793D01*
X14666836Y-10556532D01*
X14667611Y-10556980D01*
X14667611Y-10556980D01*
X14667611Y-10556980D01*
X14667611Y-10556980D01*
X14667612Y-10556980D01*
X14673340Y-10558515D01*
X14679069Y-10560050D01*
X14679069Y-10560050D01*
X14679069Y-10560050D01*
X14690931Y-10560050D01*
X14690931Y-10560050D01*
X14702389Y-10556980D01*
X14712661Y-10551049D01*
X14721049Y-10542661D01*
X14721049Y-10542661D01*
X14721392Y-10542318D01*
X14721584Y-10542511D01*
X14725735Y-10540113D01*
X14726702Y-10540050D01*
X14811983Y-10540050D01*
X14811983Y-10540050D01*
X14821190Y-10536236D01*
X14873149Y-10484277D01*
X14873149Y-10484277D01*
X14874189Y-10483237D01*
X14874190Y-10483237D01*
X14881236Y-10476190D01*
X14883821Y-10469950D01*
X14885050Y-10466983D01*
X14885050Y-10457017D01*
X14885050Y-10456422D01*
X14885050Y-10456420D01*
X14885050Y-10344374D01*
X14903900Y-10344374D01*
X14903900Y-10356237D01*
X14906970Y-10367694D01*
X14906970Y-10367694D01*
X14912901Y-10377967D01*
X14912901Y-10377967D01*
X14912901Y-10377967D01*
X14921289Y-10386355D01*
X14931561Y-10392286D01*
X14931561Y-10392286D01*
X14931562Y-10392286D01*
X14932139Y-10392440D01*
X14943019Y-10395356D01*
X14943019Y-10395356D01*
X14943019Y-10395356D01*
X14954881Y-10395356D01*
X14954881Y-10395356D01*
X14966339Y-10392286D01*
X14976611Y-10386355D01*
X14984999Y-10377967D01*
X14990930Y-10367694D01*
X14994000Y-10356237D01*
X14994000Y-10356237D01*
X14994000Y-10344375D01*
X14994000Y-10344374D01*
X14990930Y-10332917D01*
X14990930Y-10332917D01*
X14984999Y-10322645D01*
X14984999Y-10322645D01*
X14984999Y-10322644D01*
X14976611Y-10314257D01*
X14976611Y-10314257D01*
X14976611Y-10314256D01*
X14966339Y-10308326D01*
X14966338Y-10308326D01*
X14954881Y-10305256D01*
X14954881Y-10305256D01*
X14943019Y-10305256D01*
X14943019Y-10305256D01*
X14931562Y-10308326D01*
X14931561Y-10308326D01*
X14921289Y-10314256D01*
X14912901Y-10322645D01*
X14906970Y-10332917D01*
X14906970Y-10332917D01*
X14903900Y-10344374D01*
X14885050Y-10344374D01*
X14885050Y-10025069D01*
X14953950Y-10025069D01*
X14953950Y-10036931D01*
X14957020Y-10048388D01*
X14957020Y-10048389D01*
X14962951Y-10058661D01*
X14962951Y-10058661D01*
X14962951Y-10058661D01*
X14971338Y-10067049D01*
X14971339Y-10067049D01*
X14971339Y-10067049D01*
X14981611Y-10072980D01*
X14981611Y-10072980D01*
X14981611Y-10072980D01*
X14981611Y-10072980D01*
X14983953Y-10073607D01*
X14993069Y-10076050D01*
X14993069Y-10076050D01*
X14993069Y-10076050D01*
X15004931Y-10076050D01*
X15004931Y-10076050D01*
X15016388Y-10072980D01*
X15026661Y-10067049D01*
X15035049Y-10058661D01*
X15040980Y-10048388D01*
X15044050Y-10036931D01*
X15044050Y-10036931D01*
X15044050Y-10025069D01*
X15044050Y-10025069D01*
X15043992Y-10024853D01*
X15040980Y-10013611D01*
X15039467Y-10010991D01*
X15035049Y-10003339D01*
X15035049Y-10003339D01*
X15035049Y-10003339D01*
X15026661Y-9994951D01*
X15026661Y-9994951D01*
X15026661Y-9994951D01*
X15016388Y-9989020D01*
X15016388Y-9989020D01*
X15004931Y-9985950D01*
X15004931Y-9985950D01*
X14993069Y-9985950D01*
X14993069Y-9985950D01*
X14981611Y-9989020D01*
X14981611Y-9989020D01*
X14971339Y-9994951D01*
X14962951Y-10003339D01*
X14957020Y-10013611D01*
X14957020Y-10013612D01*
X14953950Y-10025069D01*
X14885050Y-10025069D01*
X14885050Y-9782069D01*
X14940450Y-9782069D01*
X14940450Y-9793931D01*
X14943520Y-9805388D01*
X14943520Y-9805389D01*
X14949451Y-9815661D01*
X14949451Y-9815661D01*
X14949451Y-9815661D01*
X14957839Y-9824049D01*
X14957839Y-9824049D01*
X14957839Y-9824049D01*
X14963537Y-9827339D01*
X14968111Y-9829980D01*
X14968111Y-9829980D01*
X14968112Y-9829980D01*
X14973840Y-9831515D01*
X14979569Y-9833050D01*
X14979569Y-9833050D01*
X14979569Y-9833050D01*
X14991431Y-9833050D01*
X14991431Y-9833050D01*
X15002888Y-9829980D01*
X15013161Y-9824049D01*
X15021549Y-9815661D01*
X15027480Y-9805389D01*
X15030550Y-9793931D01*
X15030550Y-9793931D01*
X15030550Y-9782069D01*
X15030550Y-9782069D01*
X15030443Y-9781670D01*
X15029015Y-9776340D01*
X15027480Y-9770612D01*
X15027480Y-9770611D01*
X15021549Y-9760339D01*
X15021549Y-9760339D01*
X15021549Y-9760339D01*
X15013161Y-9751951D01*
X15013161Y-9751951D01*
X15013161Y-9751951D01*
X15002889Y-9746020D01*
X15002888Y-9746020D01*
X14991431Y-9742950D01*
X14991431Y-9742950D01*
X14979569Y-9742950D01*
X14979569Y-9742950D01*
X14968112Y-9746020D01*
X14968111Y-9746020D01*
X14957839Y-9751951D01*
X14949451Y-9760339D01*
X14943520Y-9770611D01*
X14943520Y-9770612D01*
X14940450Y-9782069D01*
X14885050Y-9782069D01*
X14885050Y-9589069D01*
X14968950Y-9589069D01*
X14968950Y-9600931D01*
X14972020Y-9612388D01*
X14972020Y-9612389D01*
X14977951Y-9622661D01*
X14977951Y-9622661D01*
X14977951Y-9622661D01*
X14986339Y-9631049D01*
X14986339Y-9631049D01*
X14986339Y-9631049D01*
X14996611Y-9636980D01*
X14996611Y-9636980D01*
X14996611Y-9636980D01*
X14996612Y-9636980D01*
X15000169Y-9637933D01*
X15008069Y-9640050D01*
X15008069Y-9640050D01*
X15008069Y-9640050D01*
X15019931Y-9640050D01*
X15019931Y-9640050D01*
X15031389Y-9636980D01*
X15041661Y-9631049D01*
X15050049Y-9622661D01*
X15050049Y-9622661D01*
X15050392Y-9622318D01*
X15050584Y-9622511D01*
X15054735Y-9620113D01*
X15055702Y-9620050D01*
X15071559Y-9620050D01*
X15076791Y-9622217D01*
X15091437Y-9636863D01*
X15093604Y-9642096D01*
X15093604Y-10196279D01*
X15091437Y-10201512D01*
X15091246Y-10201679D01*
X15082605Y-10210320D01*
X15076674Y-10220592D01*
X15076674Y-10220593D01*
X15073604Y-10232050D01*
X15073604Y-10243912D01*
X15076674Y-10255369D01*
X15076674Y-10255370D01*
X15082605Y-10265642D01*
X15082605Y-10265642D01*
X15082605Y-10265642D01*
X15090993Y-10274030D01*
X15090993Y-10274030D01*
X15090993Y-10274030D01*
X15101265Y-10279961D01*
X15101266Y-10279961D01*
X15101266Y-10279961D01*
X15101266Y-10279961D01*
X15106025Y-10281236D01*
X15112723Y-10283031D01*
X15112723Y-10283031D01*
X15112723Y-10283031D01*
X15124585Y-10283031D01*
X15124585Y-10283031D01*
X15136043Y-10279961D01*
X15146315Y-10274030D01*
X15154703Y-10265642D01*
X15160634Y-10255370D01*
X15163704Y-10243912D01*
X15163704Y-10243912D01*
X15163704Y-10232050D01*
X15163704Y-10232050D01*
X15162755Y-10228509D01*
X15161534Y-10223951D01*
X15160634Y-10220593D01*
X15160634Y-10220592D01*
X15154703Y-10210320D01*
X15154703Y-10210320D01*
X15154703Y-10210320D01*
X15146315Y-10201932D01*
X15146315Y-10201932D01*
X15145973Y-10201589D01*
X15146165Y-10201397D01*
X15143767Y-10197245D01*
X15143704Y-10196279D01*
X15143704Y-9623671D01*
X15143704Y-9623671D01*
X15139891Y-9614465D01*
X15139890Y-9614464D01*
X15099190Y-9573764D01*
X15099189Y-9573763D01*
X15089983Y-9569950D01*
X15055702Y-9569950D01*
X15050469Y-9567783D01*
X15050302Y-9567592D01*
X15045985Y-9563275D01*
X15041661Y-9558951D01*
X15041661Y-9558951D01*
X15041661Y-9558951D01*
X15031389Y-9553020D01*
X15031388Y-9553020D01*
X15019931Y-9549950D01*
X15019931Y-9549950D01*
X15008069Y-9549950D01*
X15008069Y-9549950D01*
X14996612Y-9553020D01*
X14996611Y-9553020D01*
X14986339Y-9558951D01*
X14977951Y-9567339D01*
X14972020Y-9577611D01*
X14972020Y-9577612D01*
X14968950Y-9589069D01*
X14885050Y-9589069D01*
X14885050Y-9364069D01*
X14964950Y-9364069D01*
X14964950Y-9375931D01*
X14968020Y-9387388D01*
X14968020Y-9387389D01*
X14973951Y-9397661D01*
X14973951Y-9397661D01*
X14973951Y-9397661D01*
X14982339Y-9406049D01*
X14992611Y-9411980D01*
X14992611Y-9411980D01*
X14992612Y-9411980D01*
X14998340Y-9413515D01*
X15004069Y-9415050D01*
X15004069Y-9415050D01*
X15004069Y-9415050D01*
X15015931Y-9415050D01*
X15015931Y-9415050D01*
X15027389Y-9411980D01*
X15037661Y-9406049D01*
X15046049Y-9397661D01*
X15051980Y-9387389D01*
X15055050Y-9375931D01*
X15055050Y-9375931D01*
X15055050Y-9364069D01*
X15055050Y-9364069D01*
X15051980Y-9352612D01*
X15051980Y-9352611D01*
X15050879Y-9350704D01*
X15050879Y-9350704D01*
X15046049Y-9342339D01*
X15046049Y-9342339D01*
X15046049Y-9342339D01*
X15037661Y-9333951D01*
X15037661Y-9333951D01*
X15037661Y-9333951D01*
X15027389Y-9328020D01*
X15027388Y-9328020D01*
X15015931Y-9324950D01*
X15015931Y-9324950D01*
X15004069Y-9324950D01*
X15004069Y-9324950D01*
X14992612Y-9328020D01*
X14992611Y-9328020D01*
X14982339Y-9333951D01*
X14973951Y-9342339D01*
X14968020Y-9352611D01*
X14968020Y-9352612D01*
X14964950Y-9364069D01*
X14885050Y-9364069D01*
X14885050Y-8688017D01*
X14885050Y-8688017D01*
X14881236Y-8678810D01*
X14881236Y-8678810D01*
X14873768Y-8671342D01*
X14873767Y-8671341D01*
X14761190Y-8558764D01*
X14761189Y-8558763D01*
X14751983Y-8554950D01*
X14377450Y-8554950D01*
X14372217Y-8552783D01*
X14370050Y-8547550D01*
X14370050Y-8493518D01*
X14369177Y-8489128D01*
X14365850Y-8484150D01*
X14360872Y-8480823D01*
X14356482Y-8479950D01*
X14183518Y-8479950D01*
X14181323Y-8480387D01*
X14179128Y-8480823D01*
X14174150Y-8484150D01*
X14174149Y-8484150D01*
X14170823Y-8489128D01*
X14169950Y-8493518D01*
X14169950Y-8666482D01*
X14170823Y-8670872D01*
X14173037Y-8674186D01*
X14174150Y-8675850D01*
X14179128Y-8679177D01*
X14183518Y-8680050D01*
X14183518Y-8680050D01*
X14356482Y-8680050D01*
X14356482Y-8680050D01*
X14360872Y-8679177D01*
X14365850Y-8675850D01*
X14369177Y-8670872D01*
X14370050Y-8666482D01*
X14370050Y-8612450D01*
X14372217Y-8607217D01*
X14377450Y-8605050D01*
X14733559Y-8605050D01*
X14738791Y-8607217D01*
X14832782Y-8701209D01*
X14834950Y-8706441D01*
X14834950Y-9076659D01*
X14832782Y-9081891D01*
X14827550Y-9084059D01*
X14822317Y-9081891D01*
X14804190Y-9063764D01*
X14804189Y-9063763D01*
X14794983Y-9059950D01*
X14776725Y-9059950D01*
X14771493Y-9057783D01*
X14767661Y-9053951D01*
X14767661Y-9053951D01*
X14767661Y-9053951D01*
X14757389Y-9048020D01*
X14757388Y-9048020D01*
X14754133Y-9047148D01*
X14749640Y-9043700D01*
X14748901Y-9038085D01*
X14752349Y-9033591D01*
X14754133Y-9032852D01*
X14757388Y-9031980D01*
X14757388Y-9031980D01*
X14757389Y-9031980D01*
X14767661Y-9026049D01*
X14776049Y-9017661D01*
X14781980Y-9007389D01*
X14785050Y-8995931D01*
X14785050Y-8995931D01*
X14785050Y-8984069D01*
X14785050Y-8984069D01*
X14781980Y-8972612D01*
X14781980Y-8972611D01*
X14776049Y-8962339D01*
X14776049Y-8962339D01*
X14776049Y-8962339D01*
X14767661Y-8953951D01*
X14767661Y-8953951D01*
X14767661Y-8953951D01*
X14757389Y-8948020D01*
X14757388Y-8948020D01*
X14745931Y-8944950D01*
X14745931Y-8944950D01*
X14734069Y-8944950D01*
X14734069Y-8944950D01*
X14722612Y-8948020D01*
X14722611Y-8948020D01*
X14712339Y-8953951D01*
X14703951Y-8962339D01*
X14698020Y-8972611D01*
X14698020Y-8972612D01*
X14694950Y-8984069D01*
X14694950Y-8995931D01*
X14698020Y-9007388D01*
X14698020Y-9007389D01*
X14703951Y-9017661D01*
X14703951Y-9017661D01*
X14703951Y-9017661D01*
X14712339Y-9026049D01*
X14712339Y-9026049D01*
X14712339Y-9026049D01*
X14715803Y-9028049D01*
X14722611Y-9031980D01*
X14722611Y-9031980D01*
X14722612Y-9031980D01*
X14725867Y-9032852D01*
X14730360Y-9036300D01*
X14731099Y-9041915D01*
X14727651Y-9046409D01*
X14725867Y-9047148D01*
X14722612Y-9048020D01*
X14722611Y-9048020D01*
X14712339Y-9053951D01*
X14703951Y-9062339D01*
X14698020Y-9072611D01*
X14698020Y-9072612D01*
X14694950Y-9084069D01*
X14694950Y-9095931D01*
X14698020Y-9107388D01*
X14698020Y-9107389D01*
X14703951Y-9117661D01*
X14703951Y-9117661D01*
X14703951Y-9117661D01*
X14712339Y-9126049D01*
X14712339Y-9126049D01*
X14712339Y-9126049D01*
X14719833Y-9130376D01*
X14722611Y-9131980D01*
X14722611Y-9131980D01*
X14722612Y-9131980D01*
X14728065Y-9133441D01*
X14734069Y-9135050D01*
X14734069Y-9135050D01*
X14734069Y-9135050D01*
X14745931Y-9135050D01*
X14745931Y-9135050D01*
X14757389Y-9131980D01*
X14767661Y-9126049D01*
X14776049Y-9117661D01*
X14776049Y-9117661D01*
X14776392Y-9117318D01*
X14776619Y-9117545D01*
X14780640Y-9115199D01*
X14786117Y-9116639D01*
X14786872Y-9117298D01*
X14797783Y-9128209D01*
X14799950Y-9133441D01*
X14799950Y-9171659D01*
X14797783Y-9176891D01*
X14792550Y-9179059D01*
X14788370Y-9177765D01*
X14787803Y-9177377D01*
X14784190Y-9173764D01*
X14779974Y-9172018D01*
X14779338Y-9171582D01*
X14778650Y-9170526D01*
X14777109Y-9169176D01*
X14776049Y-9167339D01*
X14776049Y-9167339D01*
X14776049Y-9167339D01*
X14767661Y-9158951D01*
X14767661Y-9158951D01*
X14767661Y-9158951D01*
X14757389Y-9153020D01*
X14757388Y-9153020D01*
X14745931Y-9149950D01*
X14745931Y-9149950D01*
X14734069Y-9149950D01*
X14734069Y-9149950D01*
X14722612Y-9153020D01*
X14722611Y-9153020D01*
X14712339Y-9158951D01*
X14703951Y-9167339D01*
X14698020Y-9177611D01*
X14698020Y-9177612D01*
X14694950Y-9189069D01*
X14694950Y-9200931D01*
X14698020Y-9212388D01*
X14698020Y-9212389D01*
X14703951Y-9222661D01*
X14703951Y-9222661D01*
X14703951Y-9222661D01*
X14712339Y-9231049D01*
X14712339Y-9231049D01*
X14712339Y-9231049D01*
X14722611Y-9236980D01*
X14722611Y-9236980D01*
X14722611Y-9236980D01*
X14722612Y-9236980D01*
X14727124Y-9238189D01*
X14734069Y-9240050D01*
X14734069Y-9240050D01*
X14734069Y-9240050D01*
X14745931Y-9240050D01*
X14748242Y-9239431D01*
X14755635Y-9237450D01*
X14761250Y-9238189D01*
X14764698Y-9242682D01*
X14764950Y-9244598D01*
X14764950Y-10216559D01*
X14762783Y-10221791D01*
X14751872Y-10232702D01*
X14746640Y-10234869D01*
X14741407Y-10232702D01*
X14741374Y-10232664D01*
X14737218Y-10228508D01*
X14732661Y-10223951D01*
X14732661Y-10223951D01*
X14732661Y-10223951D01*
X14722389Y-10218020D01*
X14722388Y-10218020D01*
X14710931Y-10214950D01*
X14710931Y-10214950D01*
X14699069Y-10214950D01*
X14699069Y-10214950D01*
X14687612Y-10218020D01*
X14687611Y-10218020D01*
X14677339Y-10223951D01*
X14668951Y-10232339D01*
X14663020Y-10242611D01*
X14663020Y-10242612D01*
X14659950Y-10254069D01*
X14659950Y-10265931D01*
X14663020Y-10277388D01*
X14663020Y-10277389D01*
X14668951Y-10287661D01*
X14668951Y-10287661D01*
X14668951Y-10287661D01*
X14676057Y-10294768D01*
X14678225Y-10300000D01*
X14676057Y-10305232D01*
X14669246Y-10312044D01*
X14668951Y-10312339D01*
X14663020Y-10322611D01*
X14663020Y-10322612D01*
X14659950Y-10334069D01*
X14659950Y-10345931D01*
X14663020Y-10357388D01*
X14663020Y-10357389D01*
X14668951Y-10367661D01*
X14668951Y-10367661D01*
X14668951Y-10367661D01*
X14677339Y-10376049D01*
X14677339Y-10376049D01*
X14677339Y-10376049D01*
X14680661Y-10377967D01*
X14687611Y-10381980D01*
X14687611Y-10381980D01*
X14687612Y-10381980D01*
X14693340Y-10383515D01*
X14699069Y-10385050D01*
X14699069Y-10385050D01*
X14699069Y-10385050D01*
X14710931Y-10385050D01*
X14710931Y-10385050D01*
X14722389Y-10381980D01*
X14732661Y-10376049D01*
X14741049Y-10367661D01*
X14741049Y-10367661D01*
X14741392Y-10367318D01*
X14741584Y-10367511D01*
X14745735Y-10365113D01*
X14746702Y-10365050D01*
X14789983Y-10365050D01*
X14789983Y-10365050D01*
X14799190Y-10361236D01*
X14822317Y-10338109D01*
X14827550Y-10335941D01*
X14832782Y-10338109D01*
X14834950Y-10343341D01*
X14834950Y-10448559D01*
X14832782Y-10453791D01*
X14798791Y-10487783D01*
X14793559Y-10489950D01*
X14726702Y-10489950D01*
X14721469Y-10487783D01*
X14721302Y-10487592D01*
X14717018Y-10483308D01*
X14712661Y-10478951D01*
X14712661Y-10478951D01*
X14712661Y-10478951D01*
X14702389Y-10473020D01*
X14702388Y-10473020D01*
X14690931Y-10469950D01*
X14690931Y-10469950D01*
X14679069Y-10469950D01*
X14679069Y-10469950D01*
X14667612Y-10473020D01*
X14667611Y-10473020D01*
X14657339Y-10478951D01*
X14648951Y-10487339D01*
X14643020Y-10497611D01*
X14643020Y-10497612D01*
X14639975Y-10508975D01*
X14636527Y-10513468D01*
X14630912Y-10514207D01*
X14629127Y-10513468D01*
X14628352Y-10513020D01*
X14628352Y-10513020D01*
X14616895Y-10509950D01*
X14616894Y-10509950D01*
X14605033Y-10509950D01*
X14605032Y-10509950D01*
X14593575Y-10513020D01*
X14593575Y-10513020D01*
X14583302Y-10518951D01*
X14575714Y-10526539D01*
X14570482Y-10528706D01*
X14565249Y-10526539D01*
X14557661Y-10518951D01*
X14557661Y-10518951D01*
X14557661Y-10518951D01*
X14547389Y-10513020D01*
X14547388Y-10513020D01*
X14535931Y-10509950D01*
X14535931Y-10509950D01*
X14524069Y-10509950D01*
X14524069Y-10509950D01*
X14512612Y-10513020D01*
X14512611Y-10513020D01*
X14502339Y-10518951D01*
X14493951Y-10527339D01*
X14488020Y-10537611D01*
X14488020Y-10537612D01*
X14484950Y-10549069D01*
X14484950Y-10560931D01*
X14488020Y-10572388D01*
X14488020Y-10572389D01*
X14493951Y-10582661D01*
X14493951Y-10582661D01*
X14493951Y-10582661D01*
X14502339Y-10591049D01*
X14502339Y-10591049D01*
X14502339Y-10591049D01*
X14510019Y-10595483D01*
X14512611Y-10596980D01*
X14512611Y-10596980D01*
X14512612Y-10596980D01*
X14518340Y-10598515D01*
X14524069Y-10600050D01*
X14524069Y-10600050D01*
X14524069Y-10600050D01*
X14526550Y-10600050D01*
X14531783Y-10602217D01*
X14533950Y-10607450D01*
X14533950Y-10685311D01*
X14531783Y-10690543D01*
X14526550Y-10692711D01*
X14524635Y-10692459D01*
X14515273Y-10689950D01*
X14504727Y-10689950D01*
X14504727Y-10689950D01*
X14494542Y-10692679D01*
X14494541Y-10692680D01*
X14485409Y-10697952D01*
X14477952Y-10705409D01*
X14472679Y-10714541D01*
X14472679Y-10714542D01*
X14469950Y-10724727D01*
X14469950Y-10735273D01*
X14472679Y-10745458D01*
X14472679Y-10745459D01*
X14477952Y-10754591D01*
X14485409Y-10762048D01*
X14494541Y-10767321D01*
X14504727Y-10770050D01*
X14504727Y-10770050D01*
X14504727Y-10770050D01*
X14515273Y-10770050D01*
X14515273Y-10770050D01*
X14524635Y-10767542D01*
X14530250Y-10768281D01*
X14533698Y-10772774D01*
X14533950Y-10774689D01*
X14533950Y-11266559D01*
X14531783Y-11271791D01*
X14485810Y-11317764D01*
X14478764Y-11324810D01*
X14478763Y-11324810D01*
X14478763Y-11324810D01*
X14478620Y-11325158D01*
X14477016Y-11327558D01*
X14398764Y-11405810D01*
X14398763Y-11405810D01*
X14394950Y-11415017D01*
X14394950Y-11756559D01*
X14392783Y-11761791D01*
X14392782Y-11761791D01*
X14389374Y-11765199D01*
X14384142Y-11767367D01*
X14378909Y-11765199D01*
X14377661Y-11763951D01*
X14377661Y-11763951D01*
X14377661Y-11763951D01*
X14367389Y-11758020D01*
X14367388Y-11758020D01*
X14355931Y-11754950D01*
X14355931Y-11754950D01*
X14344069Y-11754950D01*
X14344069Y-11754950D01*
X14332612Y-11758020D01*
X14332611Y-11758020D01*
X14322339Y-11763951D01*
X14313951Y-11772339D01*
X14308020Y-11782611D01*
X14308020Y-11782612D01*
X14304950Y-11794069D01*
X14304950Y-11805931D01*
X14308020Y-11817388D01*
X14308020Y-11817389D01*
X14313951Y-11827661D01*
X14313951Y-11827661D01*
X14313951Y-11827661D01*
X14322339Y-11836049D01*
X14322339Y-11836049D01*
X14322339Y-11836049D01*
X14330999Y-11841049D01*
X14332611Y-11841980D01*
X14332611Y-11841980D01*
X14332612Y-11841980D01*
X14338340Y-11843515D01*
X14344069Y-11845050D01*
X14344069Y-11845050D01*
X14344069Y-11845050D01*
X14355931Y-11845050D01*
X14355931Y-11845050D01*
X14367389Y-11841980D01*
X14377661Y-11836049D01*
X14382317Y-11831393D01*
X14387550Y-11829225D01*
X14392783Y-11831393D01*
X14394950Y-11836625D01*
X14394950Y-12022559D01*
X14392783Y-12027791D01*
X14317791Y-12102783D01*
X14312559Y-12104950D01*
X14245845Y-12104950D01*
X14245844Y-12104950D01*
X14244983Y-12104950D01*
X14235017Y-12104950D01*
X14229624Y-12107184D01*
X14229624Y-12107184D01*
X14225810Y-12108763D01*
X14218763Y-12115810D01*
X14176769Y-12157804D01*
X14170764Y-12163810D01*
X14170763Y-12163810D01*
X14166950Y-12173017D01*
X14166950Y-12200450D01*
X14164783Y-12205683D01*
X14159550Y-12207850D01*
X14105518Y-12207850D01*
X14105417Y-12207870D01*
X14101128Y-12208723D01*
X14096150Y-12212049D01*
X14096149Y-12212050D01*
X14092823Y-12217028D01*
X14091950Y-12221418D01*
X14091950Y-12392600D01*
X14089783Y-12397833D01*
X14084550Y-12400000D01*
X13620042Y-12400000D01*
X13614810Y-12397833D01*
X13612642Y-12392600D01*
X13614810Y-12387367D01*
X13615931Y-12386447D01*
X13617178Y-12385614D01*
X13631114Y-12371678D01*
X13642063Y-12355291D01*
X13649605Y-12337083D01*
X13653450Y-12317754D01*
X13653450Y-12298046D01*
X13649605Y-12278716D01*
X13642063Y-12260509D01*
X13631114Y-12244122D01*
X13617178Y-12230186D01*
X13616392Y-12229661D01*
X13600791Y-12219237D01*
X13595115Y-12216885D01*
X13582584Y-12211695D01*
X13582583Y-12211695D01*
X13575769Y-12210339D01*
X13676250Y-12210339D01*
X13676250Y-12229661D01*
X13679272Y-12248744D01*
X13679273Y-12248745D01*
X13685243Y-12267119D01*
X13685243Y-12267120D01*
X13685243Y-12267120D01*
X13694015Y-12284335D01*
X13705371Y-12299966D01*
X13719034Y-12313628D01*
X13734665Y-12324985D01*
X13751880Y-12333757D01*
X13751881Y-12333757D01*
X13751880Y-12333757D01*
X13770255Y-12339727D01*
X13770255Y-12339727D01*
X13770256Y-12339727D01*
X13782978Y-12341742D01*
X13789339Y-12342750D01*
X13789339Y-12342750D01*
X13808661Y-12342750D01*
X13813431Y-12341994D01*
X13827744Y-12339727D01*
X13827745Y-12339727D01*
X13827745Y-12339727D01*
X13836087Y-12337017D01*
X13846120Y-12333757D01*
X13863335Y-12324985D01*
X13878966Y-12313628D01*
X13892628Y-12299966D01*
X13903985Y-12284335D01*
X13912757Y-12267120D01*
X13918727Y-12248744D01*
X13921750Y-12229661D01*
X13921750Y-12210339D01*
X13921739Y-12210271D01*
X13918727Y-12191256D01*
X13918727Y-12191255D01*
X13912757Y-12172881D01*
X13912757Y-12172880D01*
X13912757Y-12172880D01*
X13903985Y-12155665D01*
X13892628Y-12140034D01*
X13878966Y-12126371D01*
X13863335Y-12115015D01*
X13846120Y-12106243D01*
X13846120Y-12106243D01*
X13846119Y-12106243D01*
X13846119Y-12106243D01*
X13827745Y-12100273D01*
X13827744Y-12100272D01*
X13808661Y-12097250D01*
X13808661Y-12097250D01*
X13789339Y-12097250D01*
X13789339Y-12097250D01*
X13770256Y-12100272D01*
X13770255Y-12100273D01*
X13751881Y-12106243D01*
X13734665Y-12115015D01*
X13734665Y-12115015D01*
X13719034Y-12126371D01*
X13719034Y-12126371D01*
X13705371Y-12140034D01*
X13705371Y-12140034D01*
X13705371Y-12140034D01*
X13694015Y-12155665D01*
X13694015Y-12155665D01*
X13685243Y-12172881D01*
X13679273Y-12191255D01*
X13679272Y-12191256D01*
X13676250Y-12210339D01*
X13575769Y-12210339D01*
X13567644Y-12208723D01*
X13563254Y-12207850D01*
X13543546Y-12207850D01*
X13539156Y-12208723D01*
X13524217Y-12211695D01*
X13524216Y-12211695D01*
X13506009Y-12219237D01*
X13489622Y-12230186D01*
X13489622Y-12230186D01*
X13475686Y-12244122D01*
X13475686Y-12244122D01*
X13464737Y-12260508D01*
X13464237Y-12261716D01*
X13460232Y-12265721D01*
X13454568Y-12265721D01*
X13450563Y-12261716D01*
X13450000Y-12258884D01*
X13450000Y-12102916D01*
X13452167Y-12097683D01*
X13457400Y-12095516D01*
X13462633Y-12097683D01*
X13464237Y-12100084D01*
X13464737Y-12101291D01*
X13474438Y-12115810D01*
X13475686Y-12117678D01*
X13489622Y-12131614D01*
X13506009Y-12142563D01*
X13524216Y-12150105D01*
X13543546Y-12153950D01*
X13543546Y-12153950D01*
X13563254Y-12153950D01*
X13563254Y-12153950D01*
X13582583Y-12150105D01*
X13600791Y-12142563D01*
X13617178Y-12131614D01*
X13631114Y-12117678D01*
X13642063Y-12101291D01*
X13649605Y-12083083D01*
X13653450Y-12063754D01*
X13653450Y-12044046D01*
X13649605Y-12024716D01*
X13649567Y-12024624D01*
X13642063Y-12006509D01*
X13631114Y-11990122D01*
X13617178Y-11976186D01*
X13600791Y-11965237D01*
X13582584Y-11957695D01*
X13582583Y-11957695D01*
X13569639Y-11955120D01*
X13563254Y-11953850D01*
X13543546Y-11953850D01*
X13538066Y-11954940D01*
X13524217Y-11957695D01*
X13524216Y-11957695D01*
X13506009Y-11965237D01*
X13489622Y-11976186D01*
X13489622Y-11976186D01*
X13475686Y-11990122D01*
X13475686Y-11990122D01*
X13464737Y-12006508D01*
X13464237Y-12007716D01*
X13460232Y-12011721D01*
X13454568Y-12011721D01*
X13450563Y-12007716D01*
X13450000Y-12004884D01*
X13450000Y-11858540D01*
X13452167Y-11853308D01*
X13457400Y-11851140D01*
X13462633Y-11853308D01*
X13463534Y-11854406D01*
X13463538Y-11854407D01*
X13505104Y-11812841D01*
X13506807Y-11819199D01*
X13513390Y-11830601D01*
X13522699Y-11839910D01*
X13534101Y-11846492D01*
X13540459Y-11848196D01*
X13498893Y-11889762D01*
X13498893Y-11889762D01*
X13503664Y-11892950D01*
X13522772Y-11900865D01*
X13522773Y-11900865D01*
X13543058Y-11904900D01*
X13563742Y-11904900D01*
X13584027Y-11900865D01*
X13584027Y-11900865D01*
X13603136Y-11892950D01*
X13607907Y-11889762D01*
X13607907Y-11889762D01*
X13566341Y-11848196D01*
X13572699Y-11846492D01*
X13584101Y-11839910D01*
X13593410Y-11830601D01*
X13599992Y-11819199D01*
X13601696Y-11812841D01*
X13643262Y-11854407D01*
X13643262Y-11854407D01*
X13646450Y-11849636D01*
X13654365Y-11830527D01*
X13654365Y-11830527D01*
X13658400Y-11810241D01*
X13658400Y-11789558D01*
X13654365Y-11769273D01*
X13654365Y-11769272D01*
X13646450Y-11750164D01*
X13643262Y-11745393D01*
X13601696Y-11786959D01*
X13599992Y-11780601D01*
X13593410Y-11769199D01*
X13584101Y-11759890D01*
X13572699Y-11753307D01*
X13566341Y-11751604D01*
X13607907Y-11710038D01*
X13603136Y-11706850D01*
X13584027Y-11698935D01*
X13584027Y-11698935D01*
X13563742Y-11694900D01*
X13543058Y-11694900D01*
X13522773Y-11698935D01*
X13522772Y-11698935D01*
X13503663Y-11706850D01*
X13498893Y-11710038D01*
X13498893Y-11710038D01*
X13540459Y-11751604D01*
X13534101Y-11753307D01*
X13522699Y-11759890D01*
X13513390Y-11769199D01*
X13506807Y-11780601D01*
X13505104Y-11786959D01*
X13463538Y-11745393D01*
X13463515Y-11745395D01*
X13458844Y-11748517D01*
X13453289Y-11747412D01*
X13450142Y-11742703D01*
X13450000Y-11741259D01*
X13450000Y-11594916D01*
X13452167Y-11589683D01*
X13457400Y-11587516D01*
X13462633Y-11589683D01*
X13464237Y-11592084D01*
X13464737Y-11593291D01*
X13465822Y-11594916D01*
X13475686Y-11609678D01*
X13489622Y-11623614D01*
X13506009Y-11634563D01*
X13524216Y-11642105D01*
X13543546Y-11645950D01*
X13543546Y-11645950D01*
X13563254Y-11645950D01*
X13563254Y-11645950D01*
X13582583Y-11642105D01*
X13600791Y-11634563D01*
X13617178Y-11623614D01*
X13631114Y-11609678D01*
X13642063Y-11593291D01*
X13649605Y-11575083D01*
X13653450Y-11555754D01*
X13653450Y-11536046D01*
X13649605Y-11516716D01*
X13642063Y-11498509D01*
X13631114Y-11482122D01*
X13617178Y-11468186D01*
X13600791Y-11457237D01*
X13600791Y-11457237D01*
X13600791Y-11457237D01*
X13582584Y-11449695D01*
X13582583Y-11449695D01*
X13569639Y-11447120D01*
X13563254Y-11445850D01*
X13543546Y-11445850D01*
X13538066Y-11446940D01*
X13524217Y-11449695D01*
X13524216Y-11449695D01*
X13506009Y-11457237D01*
X13489622Y-11468186D01*
X13489622Y-11468186D01*
X13475686Y-11482122D01*
X13475686Y-11482122D01*
X13464737Y-11498508D01*
X13464237Y-11499716D01*
X13460232Y-11503721D01*
X13454568Y-11503721D01*
X13450563Y-11499716D01*
X13450000Y-11496884D01*
X13450000Y-11340916D01*
X13452167Y-11335683D01*
X13457400Y-11333516D01*
X13462633Y-11335683D01*
X13464237Y-11338084D01*
X13464737Y-11339291D01*
X13465822Y-11340916D01*
X13475686Y-11355678D01*
X13489622Y-11369614D01*
X13506009Y-11380563D01*
X13524216Y-11388105D01*
X13543546Y-11391950D01*
X13543546Y-11391950D01*
X13563254Y-11391950D01*
X13563254Y-11391950D01*
X13582583Y-11388105D01*
X13600791Y-11380563D01*
X13617178Y-11369614D01*
X13631114Y-11355678D01*
X13642063Y-11339291D01*
X13649605Y-11321083D01*
X13653450Y-11301754D01*
X13653450Y-11282046D01*
X13649605Y-11262716D01*
X13642063Y-11244509D01*
X13631114Y-11228122D01*
X13617178Y-11214186D01*
X13600791Y-11203237D01*
X13600791Y-11203237D01*
X13600791Y-11203237D01*
X13582584Y-11195695D01*
X13582583Y-11195695D01*
X13569639Y-11193120D01*
X13563254Y-11191850D01*
X13543546Y-11191850D01*
X13538066Y-11192940D01*
X13524217Y-11195695D01*
X13524216Y-11195695D01*
X13506009Y-11203237D01*
X13489622Y-11214186D01*
X13489622Y-11214186D01*
X13475686Y-11228122D01*
X13475686Y-11228122D01*
X13464737Y-11244508D01*
X13464237Y-11245716D01*
X13460232Y-11249721D01*
X13454568Y-11249721D01*
X13450563Y-11245716D01*
X13450000Y-11242884D01*
X13450000Y-11086916D01*
X13452167Y-11081683D01*
X13457400Y-11079516D01*
X13462633Y-11081683D01*
X13464237Y-11084084D01*
X13464737Y-11085291D01*
X13472517Y-11096935D01*
X13475686Y-11101678D01*
X13489622Y-11115614D01*
X13506009Y-11126563D01*
X13524216Y-11134105D01*
X13543546Y-11137950D01*
X13543546Y-11137950D01*
X13563254Y-11137950D01*
X13563254Y-11137950D01*
X13582583Y-11134105D01*
X13600791Y-11126563D01*
X13617178Y-11115614D01*
X13631114Y-11101678D01*
X13642063Y-11085291D01*
X13649605Y-11067084D01*
X13653450Y-11047754D01*
X13653450Y-11028046D01*
X13652261Y-11022069D01*
X13853950Y-11022069D01*
X13853950Y-11033931D01*
X13857020Y-11045388D01*
X13857020Y-11045389D01*
X13862951Y-11055661D01*
X13862951Y-11055661D01*
X13862951Y-11055661D01*
X13871339Y-11064049D01*
X13881611Y-11069980D01*
X13881611Y-11069980D01*
X13881612Y-11069980D01*
X13893432Y-11073147D01*
X13897925Y-11076595D01*
X13898665Y-11082210D01*
X13897898Y-11085073D01*
X13897898Y-11096935D01*
X13900968Y-11108392D01*
X13900968Y-11108392D01*
X13906898Y-11118665D01*
X13906899Y-11118665D01*
X13906899Y-11118665D01*
X13915286Y-11127053D01*
X13915287Y-11127053D01*
X13915287Y-11127053D01*
X13925559Y-11132984D01*
X13925559Y-11132984D01*
X13925559Y-11132984D01*
X13925559Y-11132984D01*
X13929745Y-11134105D01*
X13937016Y-11136054D01*
X13937017Y-11136054D01*
X13946794Y-11136054D01*
X13952026Y-11138221D01*
X13954194Y-11143454D01*
X13953941Y-11145369D01*
X13952950Y-11149069D01*
X13952950Y-11160931D01*
X13956020Y-11172388D01*
X13956020Y-11172389D01*
X13961951Y-11182661D01*
X13961951Y-11182661D01*
X13961951Y-11182661D01*
X13970339Y-11191049D01*
X13980611Y-11196980D01*
X13980611Y-11196980D01*
X13980612Y-11196980D01*
X13986340Y-11198515D01*
X13992069Y-11200050D01*
X13992069Y-11200050D01*
X13992069Y-11200050D01*
X14003931Y-11200050D01*
X14003931Y-11200050D01*
X14015389Y-11196980D01*
X14025661Y-11191049D01*
X14034049Y-11182661D01*
X14039980Y-11172389D01*
X14043050Y-11160931D01*
X14043050Y-11160931D01*
X14043050Y-11149069D01*
X14043050Y-11149069D01*
X14042058Y-11145369D01*
X14039980Y-11137611D01*
X14037955Y-11134105D01*
X14034049Y-11127339D01*
X14034049Y-11127339D01*
X14034049Y-11127339D01*
X14030300Y-11123590D01*
X14028133Y-11118358D01*
X14030300Y-11113125D01*
X14307852Y-10835574D01*
X14391226Y-10835574D01*
X14391226Y-10847437D01*
X14394296Y-10858894D01*
X14394296Y-10858894D01*
X14400227Y-10869166D01*
X14400227Y-10869166D01*
X14400227Y-10869167D01*
X14408615Y-10877554D01*
X14408615Y-10877554D01*
X14408615Y-10877555D01*
X14418888Y-10883485D01*
X14418888Y-10883485D01*
X14418888Y-10883485D01*
X14418888Y-10883485D01*
X14424617Y-10885020D01*
X14430345Y-10886555D01*
X14430345Y-10886555D01*
X14430345Y-10886555D01*
X14442207Y-10886555D01*
X14442207Y-10886555D01*
X14453665Y-10883485D01*
X14463938Y-10877554D01*
X14472325Y-10869167D01*
X14478256Y-10858894D01*
X14481326Y-10847437D01*
X14481326Y-10847437D01*
X14481326Y-10835574D01*
X14481326Y-10835574D01*
X14480753Y-10833436D01*
X14479762Y-10829736D01*
X14478256Y-10824117D01*
X14478256Y-10824117D01*
X14472325Y-10813844D01*
X14472325Y-10813844D01*
X14472325Y-10813844D01*
X14463938Y-10805457D01*
X14463937Y-10805456D01*
X14463937Y-10805456D01*
X14453665Y-10799526D01*
X14453665Y-10799525D01*
X14442207Y-10796455D01*
X14442207Y-10796455D01*
X14430345Y-10796455D01*
X14430345Y-10796455D01*
X14418888Y-10799525D01*
X14418888Y-10799526D01*
X14408615Y-10805456D01*
X14400227Y-10813844D01*
X14394296Y-10824117D01*
X14394296Y-10824117D01*
X14391226Y-10835574D01*
X14307852Y-10835574D01*
X14360391Y-10783035D01*
X14364205Y-10773828D01*
X14364205Y-10763863D01*
X14364205Y-10600601D01*
X14366372Y-10595368D01*
X14366563Y-10595201D01*
X14366816Y-10594948D01*
X14366816Y-10594948D01*
X14375204Y-10586560D01*
X14381135Y-10576288D01*
X14384205Y-10564830D01*
X14384205Y-10564830D01*
X14384205Y-10552968D01*
X14384205Y-10552968D01*
X14381135Y-10541511D01*
X14381135Y-10541510D01*
X14375204Y-10531238D01*
X14375204Y-10531238D01*
X14375204Y-10531238D01*
X14366816Y-10522850D01*
X14366816Y-10522850D01*
X14366816Y-10522850D01*
X14356543Y-10516919D01*
X14356543Y-10516919D01*
X14345086Y-10513849D01*
X14345086Y-10513849D01*
X14333224Y-10513849D01*
X14333224Y-10513849D01*
X14321298Y-10517045D01*
X14321263Y-10516917D01*
X14316107Y-10516916D01*
X14312224Y-10513031D01*
X14312222Y-10513031D01*
X14312219Y-10513027D01*
X14312104Y-10512911D01*
X14311980Y-10512611D01*
X14306049Y-10502339D01*
X14306049Y-10502339D01*
X14306049Y-10502339D01*
X14297661Y-10493951D01*
X14297661Y-10493951D01*
X14297661Y-10493951D01*
X14287389Y-10488020D01*
X14287388Y-10488020D01*
X14275931Y-10484950D01*
X14275931Y-10484950D01*
X14264069Y-10484950D01*
X14264069Y-10484950D01*
X14252612Y-10488020D01*
X14252611Y-10488020D01*
X14242339Y-10493951D01*
X14233951Y-10502339D01*
X14228020Y-10512611D01*
X14228020Y-10512612D01*
X14225558Y-10521801D01*
X14222110Y-10526294D01*
X14216495Y-10527034D01*
X14213347Y-10526190D01*
X14213347Y-10526190D01*
X14201485Y-10526190D01*
X14201485Y-10526190D01*
X14190027Y-10529260D01*
X14190027Y-10529260D01*
X14179755Y-10535191D01*
X14171367Y-10543579D01*
X14165436Y-10553852D01*
X14165436Y-10553852D01*
X14162366Y-10565309D01*
X14162366Y-10577171D01*
X14165436Y-10588629D01*
X14165436Y-10588629D01*
X14171367Y-10598901D01*
X14171367Y-10598901D01*
X14171367Y-10598902D01*
X14176527Y-10604062D01*
X14180097Y-10607632D01*
X14179905Y-10607825D01*
X14182302Y-10611975D01*
X14182366Y-10612942D01*
X14182366Y-10749143D01*
X14180198Y-10754375D01*
X13939874Y-10994699D01*
X13934642Y-10996867D01*
X13929409Y-10994699D01*
X13926661Y-10991951D01*
X13926661Y-10991951D01*
X13926661Y-10991951D01*
X13916389Y-10986020D01*
X13916388Y-10986020D01*
X13904931Y-10982950D01*
X13904931Y-10982950D01*
X13893069Y-10982950D01*
X13893069Y-10982950D01*
X13881612Y-10986020D01*
X13881611Y-10986020D01*
X13871339Y-10991951D01*
X13862951Y-11000339D01*
X13857020Y-11010611D01*
X13857020Y-11010612D01*
X13853950Y-11022069D01*
X13652261Y-11022069D01*
X13649605Y-11008717D01*
X13644697Y-10996867D01*
X13642063Y-10990509D01*
X13631114Y-10974122D01*
X13617178Y-10960186D01*
X13600791Y-10949237D01*
X13582584Y-10941695D01*
X13582583Y-10941695D01*
X13569639Y-10939120D01*
X13563254Y-10937850D01*
X13543546Y-10937850D01*
X13538066Y-10938940D01*
X13524217Y-10941695D01*
X13524216Y-10941695D01*
X13506009Y-10949237D01*
X13489622Y-10960186D01*
X13489622Y-10960186D01*
X13475686Y-10974122D01*
X13475686Y-10974122D01*
X13464737Y-10990508D01*
X13464237Y-10991716D01*
X13460232Y-10995721D01*
X13454568Y-10995721D01*
X13450563Y-10991716D01*
X13450000Y-10988884D01*
X13450000Y-10832916D01*
X13452167Y-10827683D01*
X13457400Y-10825516D01*
X13462633Y-10827683D01*
X13464237Y-10830084D01*
X13464737Y-10831291D01*
X13475686Y-10847678D01*
X13489622Y-10861614D01*
X13506009Y-10872563D01*
X13518059Y-10877555D01*
X13524216Y-10880105D01*
X13543546Y-10883950D01*
X13543546Y-10883950D01*
X13563254Y-10883950D01*
X13563254Y-10883950D01*
X13582583Y-10880105D01*
X13600791Y-10872563D01*
X13617178Y-10861614D01*
X13631114Y-10847678D01*
X13642063Y-10831291D01*
X13649605Y-10813084D01*
X13653450Y-10793754D01*
X13653450Y-10774046D01*
X13649605Y-10754717D01*
X13642063Y-10736509D01*
X13631114Y-10720122D01*
X13617178Y-10706186D01*
X13616015Y-10705409D01*
X13600791Y-10695237D01*
X13582584Y-10687695D01*
X13582583Y-10687695D01*
X13569639Y-10685120D01*
X13563254Y-10683850D01*
X13543546Y-10683850D01*
X13538066Y-10684940D01*
X13524217Y-10687695D01*
X13524216Y-10687695D01*
X13506009Y-10695237D01*
X13489622Y-10706186D01*
X13489622Y-10706186D01*
X13475686Y-10720122D01*
X13475686Y-10720122D01*
X13464737Y-10736508D01*
X13464237Y-10737716D01*
X13460232Y-10741721D01*
X13454568Y-10741721D01*
X13450563Y-10737716D01*
X13450000Y-10734884D01*
X13450000Y-10588541D01*
X13452167Y-10583308D01*
X13457400Y-10581141D01*
X13462633Y-10583308D01*
X13463534Y-10584406D01*
X13463538Y-10584407D01*
X13505104Y-10542841D01*
X13506807Y-10549199D01*
X13513390Y-10560601D01*
X13522699Y-10569910D01*
X13534101Y-10576493D01*
X13540459Y-10578196D01*
X13498893Y-10619762D01*
X13498893Y-10619762D01*
X13503664Y-10622950D01*
X13522772Y-10630865D01*
X13522773Y-10630865D01*
X13543058Y-10634900D01*
X13563742Y-10634900D01*
X13584027Y-10630865D01*
X13584027Y-10630865D01*
X13603136Y-10622950D01*
X13607907Y-10619762D01*
X13607907Y-10619762D01*
X13566341Y-10578196D01*
X13572699Y-10576493D01*
X13584101Y-10569910D01*
X13593410Y-10560601D01*
X13599992Y-10549199D01*
X13601696Y-10542841D01*
X13643262Y-10584407D01*
X13643262Y-10584407D01*
X13646450Y-10579636D01*
X13654365Y-10560527D01*
X13654365Y-10560527D01*
X13658400Y-10540242D01*
X13658400Y-10519558D01*
X13654365Y-10499273D01*
X13654365Y-10499273D01*
X13646450Y-10480164D01*
X13643262Y-10475393D01*
X13601696Y-10516959D01*
X13599992Y-10510601D01*
X13593410Y-10499199D01*
X13584101Y-10489890D01*
X13572699Y-10483308D01*
X13566341Y-10481604D01*
X13607907Y-10440038D01*
X13603136Y-10436850D01*
X13584027Y-10428935D01*
X13584027Y-10428935D01*
X13563742Y-10424900D01*
X13543058Y-10424900D01*
X13522773Y-10428935D01*
X13522772Y-10428935D01*
X13503663Y-10436850D01*
X13498893Y-10440038D01*
X13498893Y-10440038D01*
X13540459Y-10481604D01*
X13534101Y-10483308D01*
X13522699Y-10489890D01*
X13513390Y-10499199D01*
X13506807Y-10510601D01*
X13505104Y-10516959D01*
X13463538Y-10475393D01*
X13463515Y-10475395D01*
X13458844Y-10478517D01*
X13453289Y-10477412D01*
X13450142Y-10472703D01*
X13450000Y-10471259D01*
X13450000Y-10324916D01*
X13452167Y-10319683D01*
X13457400Y-10317516D01*
X13462633Y-10319683D01*
X13464237Y-10322084D01*
X13464737Y-10323291D01*
X13475686Y-10339678D01*
X13489622Y-10353614D01*
X13506009Y-10364563D01*
X13512660Y-10367318D01*
X13524216Y-10372105D01*
X13543546Y-10375950D01*
X13543546Y-10375950D01*
X13563254Y-10375950D01*
X13563254Y-10375950D01*
X13582583Y-10372105D01*
X13600791Y-10364563D01*
X13609345Y-10358848D01*
X13778166Y-10358848D01*
X13778166Y-10370710D01*
X13781236Y-10382167D01*
X13781236Y-10382168D01*
X13787167Y-10392440D01*
X13787167Y-10392440D01*
X13787167Y-10392440D01*
X13795555Y-10400828D01*
X13805827Y-10406759D01*
X13805827Y-10406759D01*
X13805828Y-10406759D01*
X13811556Y-10408294D01*
X13817285Y-10409829D01*
X13817285Y-10409829D01*
X13817285Y-10409829D01*
X13829147Y-10409829D01*
X13829147Y-10409829D01*
X13840604Y-10406759D01*
X13850877Y-10400828D01*
X13859265Y-10392440D01*
X13865196Y-10382168D01*
X13868266Y-10370710D01*
X13868266Y-10370710D01*
X13868266Y-10358848D01*
X13868266Y-10358848D01*
X13867875Y-10357389D01*
X13865196Y-10347390D01*
X13863455Y-10344374D01*
X13859265Y-10337118D01*
X13859265Y-10337118D01*
X13859265Y-10337118D01*
X13850877Y-10328730D01*
X13850877Y-10328730D01*
X13850877Y-10328730D01*
X13840605Y-10322799D01*
X13840604Y-10322799D01*
X13829147Y-10319729D01*
X13829147Y-10319729D01*
X13817285Y-10319729D01*
X13817285Y-10319729D01*
X13805828Y-10322799D01*
X13805827Y-10322799D01*
X13795555Y-10328730D01*
X13787167Y-10337118D01*
X13781236Y-10347390D01*
X13781236Y-10347391D01*
X13778166Y-10358848D01*
X13609345Y-10358848D01*
X13617178Y-10353614D01*
X13631114Y-10339678D01*
X13642063Y-10323291D01*
X13649605Y-10305084D01*
X13653450Y-10285754D01*
X13653450Y-10266046D01*
X13649605Y-10246717D01*
X13647905Y-10242612D01*
X13642063Y-10228509D01*
X13631114Y-10212122D01*
X13617178Y-10198186D01*
X13600791Y-10187237D01*
X13582584Y-10179695D01*
X13582583Y-10179695D01*
X13569639Y-10177120D01*
X13563254Y-10175850D01*
X13543546Y-10175850D01*
X13538066Y-10176940D01*
X13524217Y-10179695D01*
X13524216Y-10179695D01*
X13506009Y-10187237D01*
X13489622Y-10198186D01*
X13489622Y-10198186D01*
X13475686Y-10212122D01*
X13475686Y-10212122D01*
X13464737Y-10228508D01*
X13464237Y-10229716D01*
X13460232Y-10233721D01*
X13454568Y-10233721D01*
X13450563Y-10229716D01*
X13450000Y-10226884D01*
X13450000Y-10070916D01*
X13452167Y-10065683D01*
X13457400Y-10063516D01*
X13462633Y-10065683D01*
X13464237Y-10068084D01*
X13464737Y-10069291D01*
X13475686Y-10085678D01*
X13489622Y-10099614D01*
X13506009Y-10110563D01*
X13513393Y-10113622D01*
X13524216Y-10118105D01*
X13543546Y-10121950D01*
X13543546Y-10121950D01*
X13563254Y-10121950D01*
X13563254Y-10121950D01*
X13582583Y-10118105D01*
X13600791Y-10110563D01*
X13617178Y-10099614D01*
X13631114Y-10085678D01*
X13642063Y-10069291D01*
X13649605Y-10051084D01*
X13653450Y-10031754D01*
X13653450Y-10012046D01*
X13649605Y-9992717D01*
X13648074Y-9989020D01*
X13642063Y-9974509D01*
X13631114Y-9958122D01*
X13617178Y-9944186D01*
X13600791Y-9933237D01*
X13582584Y-9925695D01*
X13582583Y-9925695D01*
X13569581Y-9923109D01*
X13563254Y-9921850D01*
X13543546Y-9921850D01*
X13538066Y-9922940D01*
X13524217Y-9925695D01*
X13524216Y-9925695D01*
X13506009Y-9933237D01*
X13489622Y-9944186D01*
X13489622Y-9944186D01*
X13475686Y-9958122D01*
X13475686Y-9958122D01*
X13464737Y-9974508D01*
X13464237Y-9975716D01*
X13460232Y-9979721D01*
X13454568Y-9979721D01*
X13450563Y-9975716D01*
X13450000Y-9972884D01*
X13450000Y-9816916D01*
X13452167Y-9811683D01*
X13457400Y-9809516D01*
X13462633Y-9811683D01*
X13464237Y-9814084D01*
X13464737Y-9815291D01*
X13475686Y-9831678D01*
X13489622Y-9845614D01*
X13506009Y-9856563D01*
X13511195Y-9858711D01*
X13524216Y-9864105D01*
X13543546Y-9867950D01*
X13543546Y-9867950D01*
X13563254Y-9867950D01*
X13563254Y-9867950D01*
X13582583Y-9864105D01*
X13600791Y-9856563D01*
X13617178Y-9845614D01*
X13631114Y-9831678D01*
X13642063Y-9815291D01*
X13649605Y-9797084D01*
X13653450Y-9777754D01*
X13653450Y-9758046D01*
X13649605Y-9738717D01*
X13642063Y-9720509D01*
X13631114Y-9704122D01*
X13617178Y-9690186D01*
X13612991Y-9687389D01*
X13600791Y-9679237D01*
X13582584Y-9671695D01*
X13582583Y-9671695D01*
X13569639Y-9669120D01*
X13563254Y-9667850D01*
X13543546Y-9667850D01*
X13538066Y-9668940D01*
X13524217Y-9671695D01*
X13524216Y-9671695D01*
X13506009Y-9679237D01*
X13489622Y-9690186D01*
X13489622Y-9690186D01*
X13475686Y-9704122D01*
X13475686Y-9704122D01*
X13464737Y-9720508D01*
X13464237Y-9721716D01*
X13460232Y-9725721D01*
X13454568Y-9725721D01*
X13450563Y-9721716D01*
X13450000Y-9718884D01*
X13450000Y-9562916D01*
X13452167Y-9557683D01*
X13457400Y-9555516D01*
X13462633Y-9557683D01*
X13464237Y-9560084D01*
X13464737Y-9561291D01*
X13475642Y-9577612D01*
X13475686Y-9577678D01*
X13489622Y-9591614D01*
X13506009Y-9602563D01*
X13524216Y-9610105D01*
X13543546Y-9613950D01*
X13543546Y-9613950D01*
X13563254Y-9613950D01*
X13563254Y-9613950D01*
X13582583Y-9610105D01*
X13600791Y-9602563D01*
X13617178Y-9591614D01*
X13631114Y-9577678D01*
X13642063Y-9561291D01*
X13649605Y-9543084D01*
X13653450Y-9523754D01*
X13653450Y-9504046D01*
X13649605Y-9484717D01*
X13642063Y-9466509D01*
X13631114Y-9450122D01*
X13617178Y-9436186D01*
X13600791Y-9425237D01*
X13600791Y-9425237D01*
X13600791Y-9425237D01*
X13582584Y-9417695D01*
X13582583Y-9417695D01*
X13569286Y-9415050D01*
X13563254Y-9413850D01*
X13543546Y-9413850D01*
X13538066Y-9414940D01*
X13524217Y-9417695D01*
X13524216Y-9417695D01*
X13506009Y-9425237D01*
X13489622Y-9436186D01*
X13489622Y-9436186D01*
X13475686Y-9450122D01*
X13475686Y-9450122D01*
X13464737Y-9466508D01*
X13464237Y-9467716D01*
X13460232Y-9471721D01*
X13454568Y-9471721D01*
X13450563Y-9467716D01*
X13450000Y-9464884D01*
X13450000Y-9318541D01*
X13452167Y-9313308D01*
X13457400Y-9311141D01*
X13462633Y-9313308D01*
X13463534Y-9314406D01*
X13463538Y-9314407D01*
X13505104Y-9272841D01*
X13506807Y-9279199D01*
X13513390Y-9290601D01*
X13522699Y-9299910D01*
X13534101Y-9306493D01*
X13540459Y-9308196D01*
X13498893Y-9349762D01*
X13498893Y-9349762D01*
X13503664Y-9352950D01*
X13522772Y-9360865D01*
X13522773Y-9360865D01*
X13543058Y-9364900D01*
X13563742Y-9364900D01*
X13584027Y-9360865D01*
X13584027Y-9360865D01*
X13603136Y-9352950D01*
X13607907Y-9349762D01*
X13607907Y-9349762D01*
X13566341Y-9308196D01*
X13572699Y-9306493D01*
X13584101Y-9299910D01*
X13593410Y-9290601D01*
X13599992Y-9279199D01*
X13601696Y-9272841D01*
X13643262Y-9314407D01*
X13643262Y-9314407D01*
X13646450Y-9309636D01*
X13654365Y-9290527D01*
X13654365Y-9290527D01*
X13658400Y-9270242D01*
X13658400Y-9249558D01*
X13654365Y-9229273D01*
X13654365Y-9229273D01*
X13646450Y-9210164D01*
X13643262Y-9205393D01*
X13601696Y-9246959D01*
X13599992Y-9240601D01*
X13593410Y-9229199D01*
X13584101Y-9219890D01*
X13572699Y-9213308D01*
X13566341Y-9211604D01*
X13607907Y-9170038D01*
X13603136Y-9166850D01*
X13584027Y-9158935D01*
X13584027Y-9158935D01*
X13563742Y-9154900D01*
X13543058Y-9154900D01*
X13522773Y-9158935D01*
X13522772Y-9158935D01*
X13503663Y-9166850D01*
X13498893Y-9170038D01*
X13498893Y-9170038D01*
X13540459Y-9211604D01*
X13534101Y-9213308D01*
X13522699Y-9219890D01*
X13513390Y-9229199D01*
X13506807Y-9240601D01*
X13505104Y-9246959D01*
X13463538Y-9205393D01*
X13463515Y-9205395D01*
X13458844Y-9208517D01*
X13453289Y-9207412D01*
X13450142Y-9202703D01*
X13450000Y-9201259D01*
X13450000Y-9054916D01*
X13452167Y-9049683D01*
X13457400Y-9047516D01*
X13462633Y-9049683D01*
X13464237Y-9052084D01*
X13464737Y-9053291D01*
X13471734Y-9063764D01*
X13475686Y-9069678D01*
X13489622Y-9083614D01*
X13506009Y-9094563D01*
X13524216Y-9102105D01*
X13543546Y-9105950D01*
X13543546Y-9105950D01*
X13563254Y-9105950D01*
X13563254Y-9105950D01*
X13582583Y-9102105D01*
X13600791Y-9094563D01*
X13617178Y-9083614D01*
X13631114Y-9069678D01*
X13642063Y-9053291D01*
X13649605Y-9035084D01*
X13653450Y-9015754D01*
X13653450Y-8996046D01*
X13649605Y-8976717D01*
X13648733Y-8974611D01*
X13642063Y-8958509D01*
X13631114Y-8942122D01*
X13617178Y-8928186D01*
X13600791Y-8917237D01*
X13582584Y-8909695D01*
X13582583Y-8909695D01*
X13569639Y-8907120D01*
X13563254Y-8905850D01*
X13543546Y-8905850D01*
X13538066Y-8906940D01*
X13524217Y-8909695D01*
X13524216Y-8909695D01*
X13506009Y-8917237D01*
X13489622Y-8928186D01*
X13489622Y-8928186D01*
X13475686Y-8942122D01*
X13475686Y-8942122D01*
X13464737Y-8958508D01*
X13464237Y-8959716D01*
X13460232Y-8963721D01*
X13454568Y-8963721D01*
X13450563Y-8959716D01*
X13450000Y-8956884D01*
X13450000Y-8800916D01*
X13452167Y-8795683D01*
X13457400Y-8793516D01*
X13462633Y-8795683D01*
X13464237Y-8798084D01*
X13464737Y-8799291D01*
X13475686Y-8815678D01*
X13489622Y-8829614D01*
X13506009Y-8840563D01*
X13515212Y-8844375D01*
X13524216Y-8848105D01*
X13543546Y-8851950D01*
X13543546Y-8851950D01*
X13563254Y-8851950D01*
X13563254Y-8851950D01*
X13582583Y-8848105D01*
X13600791Y-8840563D01*
X13617178Y-8829614D01*
X13631114Y-8815678D01*
X13642063Y-8799291D01*
X13649605Y-8781084D01*
X13653450Y-8761754D01*
X13653450Y-8742046D01*
X13649605Y-8722717D01*
X13642063Y-8704509D01*
X13631114Y-8688122D01*
X13617178Y-8674186D01*
X13613553Y-8671764D01*
X13600791Y-8663237D01*
X13582584Y-8655695D01*
X13582583Y-8655695D01*
X13569639Y-8653120D01*
X13563254Y-8651850D01*
X13543546Y-8651850D01*
X13538066Y-8652940D01*
X13524217Y-8655695D01*
X13524216Y-8655695D01*
X13506009Y-8663237D01*
X13489622Y-8674186D01*
X13489622Y-8674186D01*
X13475686Y-8688122D01*
X13475686Y-8688122D01*
X13464737Y-8704508D01*
X13464237Y-8705716D01*
X13460232Y-8709721D01*
X13454568Y-8709721D01*
X13450563Y-8705716D01*
X13450000Y-8702884D01*
X13450000Y-8546916D01*
X13452167Y-8541683D01*
X13457400Y-8539516D01*
X13462633Y-8541683D01*
X13464237Y-8544084D01*
X13464737Y-8545291D01*
X13471190Y-8554950D01*
X13475686Y-8561678D01*
X13489622Y-8575614D01*
X13506009Y-8586563D01*
X13524216Y-8594105D01*
X13543546Y-8597950D01*
X13543546Y-8597950D01*
X13563254Y-8597950D01*
X13563254Y-8597950D01*
X13582583Y-8594105D01*
X13600791Y-8586563D01*
X13617178Y-8575614D01*
X13631114Y-8561678D01*
X13642063Y-8545291D01*
X13649605Y-8527084D01*
X13653450Y-8507754D01*
X13653450Y-8488046D01*
X13649605Y-8468717D01*
X13642063Y-8450509D01*
X13631114Y-8434122D01*
X13617178Y-8420186D01*
X13612307Y-8416931D01*
X13600791Y-8409237D01*
X13582584Y-8401695D01*
X13582583Y-8401695D01*
X13569639Y-8399120D01*
X13563254Y-8397850D01*
X13543546Y-8397850D01*
X13538066Y-8398940D01*
X13524217Y-8401695D01*
X13524216Y-8401695D01*
X13506009Y-8409237D01*
X13489622Y-8420186D01*
X13489622Y-8420186D01*
X13475686Y-8434122D01*
X13475686Y-8434122D01*
X13464737Y-8450508D01*
X13464237Y-8451716D01*
X13460232Y-8455721D01*
X13454568Y-8455721D01*
X13450563Y-8451716D01*
X13450000Y-8448884D01*
X13450000Y-8292916D01*
X13452167Y-8287683D01*
X13457400Y-8285516D01*
X13462633Y-8287683D01*
X13464237Y-8290084D01*
X13464737Y-8291291D01*
X13465822Y-8292916D01*
X13475686Y-8307678D01*
X13489622Y-8321614D01*
X13506009Y-8332563D01*
X13524216Y-8340105D01*
X13543546Y-8343950D01*
X13543546Y-8343950D01*
X13563254Y-8343950D01*
X13563254Y-8343950D01*
X13582583Y-8340105D01*
X13600791Y-8332563D01*
X13617178Y-8321614D01*
X13631114Y-8307678D01*
X13642063Y-8291291D01*
X13649605Y-8273083D01*
X13653450Y-8253754D01*
X13653450Y-8234046D01*
X13649605Y-8214716D01*
X13642063Y-8196509D01*
X13631114Y-8180122D01*
X13617178Y-8166186D01*
X13600791Y-8155237D01*
X13600791Y-8155237D01*
X13600791Y-8155237D01*
X13582584Y-8147695D01*
X13582583Y-8147695D01*
X13569639Y-8145120D01*
X13563254Y-8143850D01*
X13543546Y-8143850D01*
X13538066Y-8144940D01*
X13524217Y-8147695D01*
X13524216Y-8147695D01*
X13506009Y-8155237D01*
X13489622Y-8166186D01*
X13489622Y-8166186D01*
X13475686Y-8180122D01*
X13475686Y-8180122D01*
X13464737Y-8196508D01*
X13464237Y-8197716D01*
X13460232Y-8201721D01*
X13454568Y-8201721D01*
X13450563Y-8197716D01*
X13450000Y-8194884D01*
X13450000Y-8048540D01*
X13452167Y-8043308D01*
X13457400Y-8041140D01*
X13462633Y-8043308D01*
X13463534Y-8044406D01*
X13463538Y-8044407D01*
X13505104Y-8002841D01*
X13506807Y-8009199D01*
X13513390Y-8020601D01*
X13522699Y-8029910D01*
X13534101Y-8036492D01*
X13540459Y-8038196D01*
X13498893Y-8079762D01*
X13498893Y-8079762D01*
X13503664Y-8082950D01*
X13522772Y-8090865D01*
X13522773Y-8090865D01*
X13543058Y-8094900D01*
X13563742Y-8094900D01*
X13584027Y-8090865D01*
X13584027Y-8090865D01*
X13603136Y-8082950D01*
X13607907Y-8079762D01*
X13607907Y-8079762D01*
X13566341Y-8038196D01*
X13572699Y-8036492D01*
X13584101Y-8029910D01*
X13593410Y-8020601D01*
X13599992Y-8009199D01*
X13601696Y-8002841D01*
X13643262Y-8044407D01*
X13643262Y-8044407D01*
X13646450Y-8039636D01*
X13654365Y-8020527D01*
X13654365Y-8020527D01*
X13658400Y-8000241D01*
X13658400Y-7979558D01*
X13654365Y-7959273D01*
X13654365Y-7959272D01*
X13646450Y-7940164D01*
X13643262Y-7935393D01*
X13601696Y-7976959D01*
X13599992Y-7970601D01*
X13593410Y-7959199D01*
X13584101Y-7949890D01*
X13572699Y-7943307D01*
X13566341Y-7941604D01*
X13607907Y-7900038D01*
X13603136Y-7896850D01*
X13584027Y-7888935D01*
X13584027Y-7888935D01*
X13563742Y-7884900D01*
X13543058Y-7884900D01*
X13522773Y-7888935D01*
X13522772Y-7888935D01*
X13503663Y-7896850D01*
X13498893Y-7900038D01*
X13498893Y-7900038D01*
X13540459Y-7941604D01*
X13534101Y-7943307D01*
X13522699Y-7949890D01*
X13513390Y-7959199D01*
X13506807Y-7970601D01*
X13505104Y-7976959D01*
X13463538Y-7935393D01*
X13463515Y-7935395D01*
X13458844Y-7938517D01*
X13453289Y-7937412D01*
X13450142Y-7932703D01*
X13450000Y-7931259D01*
X13450000Y-7784916D01*
X13452167Y-7779683D01*
X13457400Y-7777516D01*
X13462633Y-7779683D01*
X13464237Y-7782084D01*
X13464737Y-7783291D01*
X13465822Y-7784916D01*
X13475686Y-7799678D01*
X13489622Y-7813614D01*
X13506009Y-7824563D01*
X13524216Y-7832105D01*
X13543546Y-7835950D01*
X13543546Y-7835950D01*
X13563254Y-7835950D01*
X13563254Y-7835950D01*
X13582583Y-7832105D01*
X13600791Y-7824563D01*
X13617178Y-7813614D01*
X13631114Y-7799678D01*
X13642063Y-7783291D01*
X13646722Y-7772044D01*
X13649425Y-7765518D01*
X13653430Y-7761513D01*
X13656262Y-7760950D01*
X13742459Y-7760950D01*
X13747691Y-7763117D01*
X13842832Y-7858259D01*
X13845000Y-7863491D01*
X13845000Y-10055033D01*
X13848813Y-10064239D01*
X13848813Y-10064240D01*
X13848813Y-10064240D01*
X13890810Y-10106236D01*
X13900017Y-10110050D01*
X13909983Y-10110050D01*
X13923298Y-10110050D01*
X13928531Y-10112217D01*
X13928698Y-10112408D01*
X13928951Y-10112661D01*
X13928951Y-10112661D01*
X13937339Y-10121049D01*
X13947611Y-10126980D01*
X13947611Y-10126980D01*
X13947612Y-10126980D01*
X13950584Y-10127776D01*
X13959069Y-10130050D01*
X13959069Y-10130050D01*
X13959069Y-10130050D01*
X13970931Y-10130050D01*
X13970931Y-10130050D01*
X13982389Y-10126980D01*
X13992661Y-10121049D01*
X14001049Y-10112661D01*
X14006980Y-10102389D01*
X14010050Y-10090931D01*
X14010050Y-10090931D01*
X14010050Y-10079069D01*
X14010050Y-10079069D01*
X14006980Y-10067612D01*
X14006980Y-10067611D01*
X14000806Y-10056919D01*
X14000956Y-10056832D01*
X13999648Y-10051954D01*
X14002480Y-10047048D01*
X14005069Y-10045771D01*
X14009889Y-10044480D01*
X14020161Y-10038549D01*
X14028549Y-10030161D01*
X14034480Y-10019889D01*
X14037550Y-10008431D01*
X14037550Y-10008431D01*
X14037550Y-9996569D01*
X14037550Y-9996569D01*
X14034480Y-9985112D01*
X14034480Y-9985111D01*
X14028549Y-9974839D01*
X14028549Y-9974839D01*
X14028549Y-9974839D01*
X14020161Y-9966451D01*
X14020161Y-9966451D01*
X14020161Y-9966451D01*
X14009889Y-9960520D01*
X14009888Y-9960520D01*
X13998431Y-9957450D01*
X13998431Y-9957450D01*
X13986569Y-9957450D01*
X13986569Y-9957450D01*
X13975112Y-9960520D01*
X13975111Y-9960520D01*
X13964839Y-9966451D01*
X13956108Y-9975182D01*
X13955916Y-9974989D01*
X13951765Y-9977387D01*
X13950798Y-9977450D01*
X13945941Y-9977450D01*
X13940709Y-9975283D01*
X13932217Y-9966791D01*
X13930050Y-9961559D01*
X13930050Y-9899658D01*
X13932217Y-9894425D01*
X13937450Y-9892258D01*
X13941150Y-9893249D01*
X13941564Y-9893489D01*
X13947611Y-9896980D01*
X13947611Y-9896980D01*
X13947612Y-9896980D01*
X13952693Y-9898342D01*
X13959069Y-9900050D01*
X13959069Y-9900050D01*
X13959069Y-9900050D01*
X13970931Y-9900050D01*
X13970931Y-9900050D01*
X13982389Y-9896980D01*
X13992661Y-9891049D01*
X14001049Y-9882661D01*
X14006980Y-9872389D01*
X14010050Y-9860931D01*
X14010050Y-9860931D01*
X14010050Y-9849069D01*
X14010050Y-9849069D01*
X14009881Y-9848439D01*
X14006980Y-9837611D01*
X14004346Y-9833050D01*
X14001049Y-9827339D01*
X14001049Y-9827339D01*
X14001049Y-9827339D01*
X13992661Y-9818951D01*
X13992661Y-9818951D01*
X13992661Y-9818951D01*
X13982389Y-9813020D01*
X13982388Y-9813020D01*
X13970931Y-9809950D01*
X13970931Y-9809950D01*
X13959069Y-9809950D01*
X13959069Y-9809950D01*
X13947612Y-9813020D01*
X13947611Y-9813020D01*
X13941150Y-9816751D01*
X13935535Y-9817490D01*
X13931041Y-9814042D01*
X13930050Y-9810342D01*
X13930050Y-9762069D01*
X14129950Y-9762069D01*
X14129950Y-9773931D01*
X14133020Y-9785388D01*
X14133020Y-9785389D01*
X14138951Y-9795661D01*
X14138951Y-9795661D01*
X14138951Y-9795661D01*
X14147339Y-9804049D01*
X14147339Y-9804049D01*
X14147339Y-9804049D01*
X14154266Y-9808049D01*
X14157611Y-9809980D01*
X14157611Y-9809980D01*
X14157612Y-9809980D01*
X14160972Y-9810880D01*
X14169069Y-9813050D01*
X14169069Y-9813050D01*
X14169069Y-9813050D01*
X14180931Y-9813050D01*
X14180931Y-9813050D01*
X14192389Y-9809980D01*
X14193850Y-9809136D01*
X14199465Y-9808397D01*
X14203958Y-9811845D01*
X14204950Y-9815545D01*
X14204950Y-10012554D01*
X14202783Y-10017787D01*
X14198516Y-10019891D01*
X14198069Y-10019950D01*
X14186612Y-10023020D01*
X14186611Y-10023020D01*
X14176339Y-10028951D01*
X14167951Y-10037339D01*
X14162020Y-10047611D01*
X14162020Y-10047612D01*
X14158950Y-10059069D01*
X14158950Y-10070931D01*
X14162020Y-10082388D01*
X14162020Y-10082389D01*
X14167951Y-10092661D01*
X14167951Y-10092661D01*
X14167951Y-10092661D01*
X14176339Y-10101049D01*
X14186611Y-10106980D01*
X14198069Y-10110050D01*
X14198069Y-10110050D01*
X14198533Y-10110174D01*
X14203026Y-10113622D01*
X14203694Y-10118700D01*
X14203838Y-10118719D01*
X14203775Y-10119200D01*
X14203775Y-10131062D01*
X14206845Y-10142519D01*
X14206845Y-10142520D01*
X14212776Y-10152792D01*
X14212776Y-10152792D01*
X14212776Y-10152793D01*
X14221164Y-10161180D01*
X14231436Y-10167111D01*
X14231437Y-10167111D01*
X14231437Y-10167111D01*
X14237165Y-10168646D01*
X14242894Y-10170181D01*
X14242894Y-10170181D01*
X14242894Y-10170181D01*
X14254756Y-10170181D01*
X14254756Y-10170181D01*
X14266214Y-10167111D01*
X14276486Y-10161180D01*
X14284874Y-10152793D01*
X14290805Y-10142520D01*
X14291231Y-10140929D01*
X14294679Y-10136436D01*
X14300294Y-10135696D01*
X14303531Y-10137859D01*
X14303684Y-10137706D01*
X14304027Y-10138049D01*
X14304027Y-10138049D01*
X14312415Y-10146437D01*
X14322687Y-10152368D01*
X14322687Y-10152368D01*
X14322688Y-10152368D01*
X14324272Y-10152792D01*
X14334145Y-10155438D01*
X14334145Y-10155438D01*
X14334145Y-10155438D01*
X14346007Y-10155438D01*
X14346007Y-10155438D01*
X14357465Y-10152368D01*
X14367737Y-10146437D01*
X14376125Y-10138049D01*
X14376125Y-10138049D01*
X14376468Y-10137706D01*
X14376660Y-10137898D01*
X14380811Y-10135501D01*
X14381778Y-10135438D01*
X14391946Y-10135438D01*
X14397179Y-10137605D01*
X14433341Y-10173768D01*
X14433342Y-10173768D01*
X14433764Y-10174190D01*
X14440810Y-10181236D01*
X14450017Y-10185050D01*
X14450017Y-10185050D01*
X14529983Y-10185050D01*
X14529983Y-10185050D01*
X14539190Y-10181236D01*
X14576236Y-10144190D01*
X14580050Y-10134983D01*
X14580050Y-10125017D01*
X14580050Y-9915017D01*
X14576236Y-9905810D01*
X14569190Y-9898764D01*
X14568768Y-9898342D01*
X14568767Y-9898342D01*
X14496109Y-9825683D01*
X14493941Y-9820450D01*
X14496109Y-9815217D01*
X14501341Y-9813050D01*
X14512431Y-9813050D01*
X14512431Y-9813050D01*
X14523889Y-9809980D01*
X14534161Y-9804049D01*
X14542549Y-9795661D01*
X14548480Y-9785389D01*
X14548833Y-9784069D01*
X14548833Y-9784069D01*
X14609950Y-9784069D01*
X14609950Y-9795931D01*
X14613020Y-9807388D01*
X14613020Y-9807389D01*
X14618951Y-9817661D01*
X14618951Y-9817661D01*
X14618951Y-9817661D01*
X14627339Y-9826049D01*
X14627339Y-9826049D01*
X14627339Y-9826049D01*
X14637089Y-9831678D01*
X14637611Y-9831980D01*
X14637611Y-9831980D01*
X14637612Y-9831980D01*
X14643340Y-9833515D01*
X14649069Y-9835050D01*
X14649069Y-9835050D01*
X14649069Y-9835050D01*
X14660931Y-9835050D01*
X14660931Y-9835050D01*
X14672389Y-9831980D01*
X14682661Y-9826049D01*
X14691049Y-9817661D01*
X14696980Y-9807389D01*
X14700050Y-9795931D01*
X14700050Y-9795931D01*
X14700050Y-9784069D01*
X14700050Y-9784069D01*
X14696980Y-9772612D01*
X14696980Y-9772611D01*
X14691049Y-9762339D01*
X14691049Y-9762339D01*
X14691049Y-9762339D01*
X14682661Y-9753951D01*
X14682661Y-9753951D01*
X14682661Y-9753951D01*
X14672389Y-9748020D01*
X14672388Y-9748020D01*
X14660931Y-9744950D01*
X14660931Y-9744950D01*
X14649069Y-9744950D01*
X14649069Y-9744950D01*
X14637612Y-9748020D01*
X14637611Y-9748020D01*
X14627339Y-9753951D01*
X14618951Y-9762339D01*
X14613020Y-9772611D01*
X14613020Y-9772612D01*
X14609950Y-9784069D01*
X14548833Y-9784069D01*
X14549476Y-9781670D01*
X14549477Y-9781669D01*
X14551550Y-9773931D01*
X14551550Y-9762069D01*
X14551550Y-9762069D01*
X14551550Y-9762069D01*
X14548480Y-9750612D01*
X14548480Y-9750611D01*
X14542549Y-9740339D01*
X14542549Y-9740339D01*
X14542549Y-9740339D01*
X14534161Y-9731951D01*
X14534161Y-9731951D01*
X14534161Y-9731951D01*
X14523889Y-9726020D01*
X14523888Y-9726020D01*
X14512431Y-9722950D01*
X14512431Y-9722950D01*
X14500569Y-9722950D01*
X14500569Y-9722950D01*
X14489112Y-9726020D01*
X14489111Y-9726020D01*
X14478839Y-9731951D01*
X14478839Y-9731951D01*
X14478839Y-9731951D01*
X14470760Y-9740029D01*
X14465528Y-9742197D01*
X14460295Y-9740029D01*
X14458128Y-9734797D01*
X14458128Y-8910363D01*
X14460295Y-8905131D01*
X14463236Y-8902190D01*
X14467050Y-8892983D01*
X14467050Y-8883017D01*
X14467050Y-8882465D01*
X14467016Y-8882117D01*
X14467016Y-8868689D01*
X14469183Y-8863456D01*
X14469374Y-8863289D01*
X14469627Y-8863036D01*
X14469627Y-8863036D01*
X14478015Y-8854648D01*
X14483946Y-8844375D01*
X14487016Y-8832918D01*
X14487016Y-8832918D01*
X14487016Y-8821056D01*
X14487016Y-8821055D01*
X14483946Y-8809598D01*
X14483946Y-8809598D01*
X14478015Y-8799326D01*
X14478015Y-8799326D01*
X14478015Y-8799325D01*
X14469627Y-8790938D01*
X14469627Y-8790938D01*
X14469627Y-8790937D01*
X14467990Y-8789993D01*
X14459354Y-8785007D01*
X14459354Y-8785007D01*
X14455854Y-8784069D01*
X14544950Y-8784069D01*
X14544950Y-8795931D01*
X14548020Y-8807388D01*
X14548020Y-8807389D01*
X14553951Y-8817661D01*
X14553951Y-8817661D01*
X14553951Y-8817661D01*
X14562339Y-8826049D01*
X14572611Y-8831980D01*
X14572611Y-8831980D01*
X14572612Y-8831980D01*
X14576161Y-8832931D01*
X14584069Y-8835050D01*
X14584069Y-8835050D01*
X14584069Y-8835050D01*
X14595931Y-8835050D01*
X14595931Y-8835050D01*
X14607389Y-8831980D01*
X14617661Y-8826049D01*
X14624767Y-8818943D01*
X14630000Y-8816775D01*
X14635232Y-8818943D01*
X14642339Y-8826049D01*
X14652611Y-8831980D01*
X14652611Y-8831980D01*
X14652612Y-8831980D01*
X14656161Y-8832931D01*
X14664069Y-8835050D01*
X14664069Y-8835050D01*
X14664069Y-8835050D01*
X14675931Y-8835050D01*
X14675931Y-8835050D01*
X14687389Y-8831980D01*
X14697661Y-8826049D01*
X14706049Y-8817661D01*
X14711980Y-8807389D01*
X14715050Y-8795931D01*
X14715050Y-8795931D01*
X14715050Y-8784069D01*
X14715050Y-8784069D01*
X14711980Y-8772612D01*
X14711980Y-8772611D01*
X14706049Y-8762339D01*
X14706049Y-8762339D01*
X14706049Y-8762339D01*
X14697661Y-8753951D01*
X14697661Y-8753951D01*
X14697661Y-8753951D01*
X14687389Y-8748020D01*
X14687388Y-8748020D01*
X14675931Y-8744950D01*
X14675931Y-8744950D01*
X14664069Y-8744950D01*
X14664069Y-8744950D01*
X14652612Y-8748020D01*
X14652611Y-8748020D01*
X14642339Y-8753951D01*
X14642339Y-8753951D01*
X14642339Y-8753951D01*
X14635232Y-8761057D01*
X14630000Y-8763225D01*
X14624767Y-8761057D01*
X14617661Y-8753951D01*
X14617661Y-8753951D01*
X14617661Y-8753951D01*
X14607389Y-8748020D01*
X14607388Y-8748020D01*
X14595931Y-8744950D01*
X14595931Y-8744950D01*
X14584069Y-8744950D01*
X14584069Y-8744950D01*
X14572612Y-8748020D01*
X14572611Y-8748020D01*
X14562339Y-8753951D01*
X14553951Y-8762339D01*
X14548020Y-8772611D01*
X14548020Y-8772612D01*
X14544950Y-8784069D01*
X14455854Y-8784069D01*
X14447897Y-8781937D01*
X14447897Y-8781937D01*
X14436035Y-8781937D01*
X14436035Y-8781937D01*
X14424577Y-8785007D01*
X14424577Y-8785007D01*
X14414305Y-8790937D01*
X14409182Y-8796060D01*
X14403949Y-8798228D01*
X14398717Y-8796060D01*
X14394634Y-8791977D01*
X14394634Y-8791977D01*
X14384361Y-8786046D01*
X14384361Y-8786046D01*
X14372904Y-8782976D01*
X14372904Y-8782976D01*
X14361042Y-8782976D01*
X14361042Y-8782976D01*
X14349584Y-8786046D01*
X14349584Y-8786046D01*
X14339312Y-8791977D01*
X14335232Y-8796057D01*
X14329999Y-8798224D01*
X14324767Y-8796057D01*
X14319661Y-8790951D01*
X14319661Y-8790951D01*
X14309389Y-8785020D01*
X14309388Y-8785020D01*
X14297931Y-8781950D01*
X14297931Y-8781950D01*
X14286069Y-8781950D01*
X14286069Y-8781950D01*
X14274612Y-8785020D01*
X14274611Y-8785020D01*
X14264339Y-8790951D01*
X14255951Y-8799339D01*
X14250020Y-8809611D01*
X14250020Y-8809612D01*
X14246950Y-8821069D01*
X14246950Y-8832931D01*
X14250020Y-8844388D01*
X14250020Y-8844389D01*
X14255951Y-8854661D01*
X14255951Y-8854661D01*
X14255951Y-8854661D01*
X14264325Y-8863036D01*
X14264682Y-8863392D01*
X14264489Y-8863584D01*
X14266887Y-8867735D01*
X14266950Y-8868702D01*
X14266950Y-8889983D01*
X14270763Y-8899189D01*
X14270764Y-8899190D01*
X14306899Y-8935325D01*
X14309066Y-8940558D01*
X14306899Y-8945790D01*
X14301666Y-8947958D01*
X14299751Y-8947706D01*
X14296931Y-8946950D01*
X14285069Y-8946950D01*
X14285069Y-8946950D01*
X14273612Y-8950020D01*
X14273611Y-8950020D01*
X14263339Y-8955951D01*
X14254951Y-8964339D01*
X14249020Y-8974611D01*
X14249020Y-8974612D01*
X14245950Y-8986069D01*
X14245950Y-8997931D01*
X14249020Y-9009388D01*
X14249020Y-9009389D01*
X14254951Y-9019661D01*
X14254951Y-9019661D01*
X14254951Y-9019661D01*
X14263339Y-9028049D01*
X14263339Y-9028049D01*
X14263339Y-9028049D01*
X14270147Y-9031980D01*
X14273611Y-9033980D01*
X14273611Y-9033980D01*
X14273612Y-9033980D01*
X14279340Y-9035515D01*
X14285069Y-9037050D01*
X14285069Y-9037050D01*
X14285069Y-9037050D01*
X14296931Y-9037050D01*
X14296931Y-9037050D01*
X14308389Y-9033980D01*
X14318661Y-9028049D01*
X14325395Y-9021315D01*
X14330628Y-9019147D01*
X14335860Y-9021315D01*
X14338028Y-9026547D01*
X14338028Y-9549490D01*
X14335860Y-9554723D01*
X14330628Y-9556890D01*
X14326928Y-9555899D01*
X14325467Y-9555056D01*
X14325466Y-9555055D01*
X14314009Y-9551985D01*
X14314009Y-9551985D01*
X14302147Y-9551985D01*
X14302147Y-9551985D01*
X14290690Y-9555055D01*
X14290689Y-9555055D01*
X14280417Y-9560986D01*
X14275314Y-9566089D01*
X14270081Y-9568256D01*
X14264849Y-9566089D01*
X14261676Y-9562916D01*
X14257711Y-9558951D01*
X14257711Y-9558951D01*
X14257711Y-9558951D01*
X14247439Y-9553020D01*
X14247438Y-9553020D01*
X14235981Y-9549950D01*
X14235981Y-9549950D01*
X14224119Y-9549950D01*
X14224119Y-9549950D01*
X14212662Y-9553020D01*
X14212661Y-9553020D01*
X14202389Y-9558951D01*
X14194001Y-9567339D01*
X14188070Y-9577611D01*
X14188070Y-9577612D01*
X14185000Y-9589069D01*
X14185000Y-9600931D01*
X14188070Y-9612388D01*
X14188070Y-9612389D01*
X14194001Y-9622661D01*
X14194001Y-9622661D01*
X14194001Y-9622661D01*
X14199360Y-9628020D01*
X14202732Y-9631392D01*
X14202521Y-9631603D01*
X14204886Y-9635692D01*
X14204950Y-9636664D01*
X14204950Y-9720455D01*
X14202783Y-9725688D01*
X14197550Y-9727855D01*
X14193850Y-9726864D01*
X14192389Y-9726020D01*
X14192388Y-9726020D01*
X14180931Y-9722950D01*
X14180931Y-9722950D01*
X14169069Y-9722950D01*
X14169069Y-9722950D01*
X14157612Y-9726020D01*
X14157611Y-9726020D01*
X14147339Y-9731951D01*
X14138951Y-9740339D01*
X14133020Y-9750611D01*
X14133020Y-9750612D01*
X14129950Y-9762069D01*
X13930050Y-9762069D01*
X13930050Y-9711625D01*
X13932217Y-9706392D01*
X13937450Y-9704225D01*
X13941956Y-9705755D01*
X13942338Y-9706048D01*
X13942339Y-9706049D01*
X13952611Y-9711980D01*
X13952611Y-9711980D01*
X13952612Y-9711980D01*
X13958340Y-9713515D01*
X13964069Y-9715050D01*
X13964069Y-9715050D01*
X13964069Y-9715050D01*
X13975931Y-9715050D01*
X13975931Y-9715050D01*
X13987389Y-9711980D01*
X13997661Y-9706049D01*
X14006049Y-9697661D01*
X14011980Y-9687389D01*
X14015050Y-9675931D01*
X14015050Y-9675931D01*
X14015050Y-9664069D01*
X14015050Y-9664069D01*
X14011980Y-9652612D01*
X14011980Y-9652611D01*
X14006049Y-9642339D01*
X14006049Y-9642339D01*
X14006049Y-9642339D01*
X13997661Y-9633951D01*
X13997661Y-9633951D01*
X13997661Y-9633951D01*
X13987389Y-9628020D01*
X13987388Y-9628020D01*
X13975931Y-9624950D01*
X13975931Y-9624950D01*
X13964069Y-9624950D01*
X13964069Y-9624950D01*
X13952612Y-9628020D01*
X13952611Y-9628020D01*
X13942339Y-9633951D01*
X13941955Y-9634245D01*
X13936485Y-9635712D01*
X13931580Y-9632880D01*
X13930050Y-9628375D01*
X13930050Y-8405069D01*
X14710950Y-8405069D01*
X14710950Y-8416931D01*
X14714020Y-8428388D01*
X14714020Y-8428389D01*
X14719951Y-8438661D01*
X14719951Y-8438661D01*
X14719951Y-8438661D01*
X14728339Y-8447049D01*
X14728339Y-8447049D01*
X14728339Y-8447049D01*
X14738611Y-8452980D01*
X14738611Y-8452980D01*
X14738611Y-8452980D01*
X14738612Y-8452980D01*
X14744340Y-8454515D01*
X14750069Y-8456050D01*
X14750069Y-8456050D01*
X14750069Y-8456050D01*
X14761931Y-8456050D01*
X14761931Y-8456050D01*
X14773389Y-8452980D01*
X14783661Y-8447049D01*
X14792049Y-8438661D01*
X14797980Y-8428389D01*
X14801050Y-8416931D01*
X14801050Y-8416931D01*
X14801050Y-8405069D01*
X14801050Y-8405069D01*
X14797980Y-8393612D01*
X14797980Y-8393611D01*
X14792049Y-8383339D01*
X14792049Y-8383339D01*
X14792049Y-8383339D01*
X14783661Y-8374951D01*
X14783661Y-8374951D01*
X14783661Y-8374951D01*
X14773389Y-8369020D01*
X14773388Y-8369020D01*
X14761931Y-8365950D01*
X14761931Y-8365950D01*
X14750069Y-8365950D01*
X14750069Y-8365950D01*
X14738612Y-8369020D01*
X14738611Y-8369020D01*
X14728339Y-8374951D01*
X14719951Y-8383339D01*
X14714020Y-8393611D01*
X14714020Y-8393612D01*
X14710950Y-8405069D01*
X13930050Y-8405069D01*
X13930050Y-8244069D01*
X14086950Y-8244069D01*
X14086950Y-8255931D01*
X14090020Y-8267388D01*
X14090020Y-8267389D01*
X14095951Y-8277661D01*
X14095951Y-8277661D01*
X14095951Y-8277661D01*
X14104339Y-8286049D01*
X14114611Y-8291980D01*
X14114611Y-8291980D01*
X14114612Y-8291980D01*
X14120340Y-8293515D01*
X14126069Y-8295050D01*
X14126069Y-8295050D01*
X14126069Y-8295050D01*
X14137931Y-8295050D01*
X14137931Y-8295050D01*
X14149389Y-8291980D01*
X14159661Y-8286049D01*
X14168049Y-8277661D01*
X14173980Y-8267389D01*
X14177050Y-8255931D01*
X14177050Y-8255931D01*
X14177050Y-8244069D01*
X14177050Y-8244069D01*
X14173980Y-8232612D01*
X14173980Y-8232611D01*
X14168049Y-8222339D01*
X14168049Y-8222339D01*
X14168049Y-8222339D01*
X14159661Y-8213951D01*
X14159661Y-8213951D01*
X14159661Y-8213951D01*
X14149389Y-8208020D01*
X14149388Y-8208020D01*
X14137931Y-8204950D01*
X14137931Y-8204950D01*
X14126069Y-8204950D01*
X14126069Y-8204950D01*
X14114612Y-8208020D01*
X14114611Y-8208020D01*
X14104339Y-8213951D01*
X14095951Y-8222339D01*
X14090020Y-8232611D01*
X14090020Y-8232612D01*
X14086950Y-8244069D01*
X13930050Y-8244069D01*
X13930050Y-7938106D01*
X13966000Y-7938106D01*
X13966000Y-7975000D01*
X14006000Y-7975000D01*
X14006000Y-8025000D01*
X13966000Y-8025000D01*
X13966000Y-8061894D01*
X13968690Y-8075418D01*
X13968690Y-8075419D01*
X13973967Y-8088157D01*
X13981627Y-8099622D01*
X13991378Y-8109373D01*
X14002843Y-8117033D01*
X14011000Y-8120412D01*
X14011000Y-8120412D01*
X14011000Y-8071699D01*
X14011994Y-8073420D01*
X14017579Y-8079006D01*
X14024420Y-8082956D01*
X14032050Y-8085000D01*
X14039950Y-8085000D01*
X14047580Y-8082956D01*
X14054420Y-8079006D01*
X14060006Y-8073420D01*
X14061000Y-8071699D01*
X14061000Y-8120412D01*
X14069157Y-8117033D01*
X14080622Y-8109373D01*
X14080622Y-8109372D01*
X14090372Y-8099622D01*
X14090373Y-8099622D01*
X14098033Y-8088157D01*
X14103310Y-8075419D01*
X14103310Y-8075418D01*
X14106000Y-8061894D01*
X14106000Y-8025000D01*
X14066000Y-8025000D01*
X14066000Y-7975000D01*
X14106000Y-7975000D01*
X14106000Y-7942042D01*
X14133750Y-7942042D01*
X14133750Y-7953957D01*
X14136833Y-7965465D01*
X14136834Y-7965466D01*
X14142338Y-7975000D01*
X14142791Y-7975784D01*
X14151216Y-7984209D01*
X14151216Y-7984209D01*
X14161073Y-7989900D01*
X14161534Y-7990166D01*
X14161534Y-7990166D01*
X14161534Y-7990166D01*
X14167288Y-7991708D01*
X14173042Y-7993250D01*
X14173042Y-7993250D01*
X14173043Y-7993250D01*
X14184957Y-7993250D01*
X14184957Y-7993250D01*
X14196466Y-7990166D01*
X14206784Y-7984209D01*
X14215209Y-7975784D01*
X14221166Y-7965466D01*
X14224250Y-7953957D01*
X14224250Y-7953957D01*
X14224250Y-7942042D01*
X14224250Y-7942042D01*
X14711750Y-7942042D01*
X14711750Y-7953957D01*
X14714833Y-7965465D01*
X14714834Y-7965466D01*
X14720338Y-7975000D01*
X14720791Y-7975784D01*
X14729216Y-7984209D01*
X14729216Y-7984209D01*
X14739073Y-7989900D01*
X14739534Y-7990166D01*
X14739534Y-7990166D01*
X14739534Y-7990166D01*
X14745288Y-7991708D01*
X14751042Y-7993250D01*
X14751042Y-7993250D01*
X14751043Y-7993250D01*
X14762957Y-7993250D01*
X14762957Y-7993250D01*
X14774466Y-7990166D01*
X14784784Y-7984209D01*
X14793209Y-7975784D01*
X14799166Y-7965466D01*
X14802250Y-7953957D01*
X14802250Y-7953957D01*
X14802250Y-7942042D01*
X14802250Y-7942042D01*
X14801765Y-7940233D01*
X14801195Y-7938106D01*
X14830000Y-7938106D01*
X14830000Y-7975000D01*
X14870000Y-7975000D01*
X14870000Y-8025000D01*
X14830000Y-8025000D01*
X14830000Y-8061894D01*
X14832690Y-8075418D01*
X14832690Y-8075419D01*
X14837967Y-8088157D01*
X14845627Y-8099622D01*
X14855378Y-8109373D01*
X14866843Y-8117033D01*
X14875000Y-8120412D01*
X14875000Y-8120412D01*
X14875000Y-8071699D01*
X14875994Y-8073420D01*
X14881579Y-8079006D01*
X14888420Y-8082956D01*
X14896050Y-8085000D01*
X14903950Y-8085000D01*
X14911580Y-8082956D01*
X14918420Y-8079006D01*
X14924006Y-8073420D01*
X14925000Y-8071699D01*
X14925000Y-8120412D01*
X14933157Y-8117033D01*
X14944622Y-8109373D01*
X14944622Y-8109372D01*
X14954372Y-8099622D01*
X14954373Y-8099622D01*
X14962033Y-8088157D01*
X14967310Y-8075419D01*
X14967310Y-8075417D01*
X14970000Y-8061894D01*
X14970000Y-8025000D01*
X14930000Y-8025000D01*
X14930000Y-7975000D01*
X14970000Y-7975000D01*
X14970000Y-7938106D01*
X14967310Y-7924582D01*
X14967310Y-7924581D01*
X14962033Y-7911843D01*
X14958735Y-7906907D01*
X14954373Y-7900378D01*
X14944622Y-7890627D01*
X14933157Y-7882967D01*
X14925000Y-7879588D01*
X14925000Y-7928301D01*
X14924006Y-7926579D01*
X14918420Y-7920994D01*
X14911580Y-7917044D01*
X14903950Y-7915000D01*
X14896050Y-7915000D01*
X14888420Y-7917044D01*
X14881579Y-7920994D01*
X14875994Y-7926579D01*
X14875000Y-7928301D01*
X14875000Y-7879588D01*
X14875000Y-7879588D01*
X14866842Y-7882967D01*
X14855378Y-7890627D01*
X14855377Y-7890627D01*
X14845627Y-7900377D01*
X14845627Y-7900378D01*
X14837967Y-7911843D01*
X14832690Y-7924581D01*
X14832690Y-7924582D01*
X14830000Y-7938106D01*
X14801195Y-7938106D01*
X14799166Y-7930534D01*
X14793209Y-7920216D01*
X14784784Y-7911791D01*
X14784784Y-7911791D01*
X14774466Y-7905834D01*
X14774465Y-7905833D01*
X14762957Y-7902750D01*
X14762957Y-7902750D01*
X14751043Y-7902750D01*
X14751042Y-7902750D01*
X14739534Y-7905833D01*
X14739534Y-7905834D01*
X14729216Y-7911791D01*
X14720791Y-7920216D01*
X14714834Y-7930534D01*
X14714833Y-7930534D01*
X14711750Y-7942042D01*
X14224250Y-7942042D01*
X14223746Y-7940164D01*
X14221166Y-7930534D01*
X14215209Y-7920216D01*
X14206784Y-7911791D01*
X14206784Y-7911791D01*
X14196466Y-7905834D01*
X14196465Y-7905833D01*
X14184957Y-7902750D01*
X14184957Y-7902750D01*
X14173043Y-7902750D01*
X14173042Y-7902750D01*
X14161534Y-7905833D01*
X14161534Y-7905834D01*
X14151216Y-7911791D01*
X14142791Y-7920216D01*
X14136834Y-7930534D01*
X14136833Y-7930534D01*
X14133750Y-7942042D01*
X14106000Y-7942042D01*
X14106000Y-7938106D01*
X14103310Y-7924582D01*
X14103310Y-7924581D01*
X14098033Y-7911843D01*
X14090373Y-7900378D01*
X14080622Y-7890627D01*
X14069157Y-7882967D01*
X14061000Y-7879588D01*
X14061000Y-7928301D01*
X14060006Y-7926579D01*
X14054420Y-7920994D01*
X14047580Y-7917044D01*
X14039950Y-7915000D01*
X14032050Y-7915000D01*
X14024420Y-7917044D01*
X14017579Y-7920994D01*
X14011994Y-7926579D01*
X14011000Y-7928301D01*
X14011000Y-7879588D01*
X14011000Y-7879588D01*
X14002842Y-7882967D01*
X13991378Y-7890627D01*
X13991377Y-7890627D01*
X13981627Y-7900377D01*
X13981627Y-7900378D01*
X13973967Y-7911843D01*
X13968690Y-7924581D01*
X13968690Y-7924582D01*
X13966000Y-7938106D01*
X13930050Y-7938106D01*
X13930050Y-7678360D01*
X13932217Y-7673127D01*
X13947149Y-7658196D01*
X13947149Y-7658196D01*
X13948190Y-7657155D01*
X13948190Y-7657155D01*
X13955236Y-7650108D01*
X13957133Y-7645528D01*
X13961138Y-7641524D01*
X13966802Y-7641524D01*
X13970807Y-7645528D01*
X13970807Y-7645528D01*
X13973967Y-7653157D01*
X13981627Y-7664622D01*
X13991378Y-7674373D01*
X14002843Y-7682033D01*
X14011000Y-7685412D01*
X14011000Y-7685412D01*
X14011000Y-7636699D01*
X14011994Y-7638420D01*
X14017579Y-7644006D01*
X14024420Y-7647956D01*
X14032050Y-7650000D01*
X14039950Y-7650000D01*
X14047580Y-7647956D01*
X14054420Y-7644006D01*
X14060006Y-7638420D01*
X14061000Y-7636699D01*
X14061000Y-7685412D01*
X14069157Y-7682033D01*
X14080622Y-7674373D01*
X14080622Y-7674372D01*
X14090372Y-7664622D01*
X14090373Y-7664622D01*
X14098033Y-7653157D01*
X14103310Y-7640419D01*
X14103310Y-7640418D01*
X14106000Y-7626894D01*
X14106000Y-7605000D01*
X14066000Y-7605000D01*
X14066000Y-7555000D01*
X14106000Y-7555000D01*
X14106000Y-7533106D01*
X14830000Y-7533106D01*
X14830000Y-7555000D01*
X14870000Y-7555000D01*
X14870000Y-7605000D01*
X14830000Y-7605000D01*
X14830000Y-7626894D01*
X14832690Y-7640418D01*
X14832690Y-7640419D01*
X14837967Y-7653157D01*
X14845627Y-7664622D01*
X14855378Y-7674373D01*
X14866843Y-7682033D01*
X14875000Y-7685412D01*
X14875000Y-7685412D01*
X14875000Y-7636699D01*
X14875994Y-7638420D01*
X14881579Y-7644006D01*
X14888420Y-7647956D01*
X14896050Y-7650000D01*
X14903950Y-7650000D01*
X14911580Y-7647956D01*
X14918420Y-7644006D01*
X14924006Y-7638420D01*
X14925000Y-7636699D01*
X14925000Y-7685412D01*
X14933157Y-7682033D01*
X14944622Y-7674373D01*
X14944622Y-7674372D01*
X14954372Y-7664622D01*
X14954373Y-7664622D01*
X14962033Y-7653157D01*
X14967310Y-7640419D01*
X14967310Y-7640418D01*
X14970000Y-7626894D01*
X14970000Y-7605000D01*
X14930000Y-7605000D01*
X14930000Y-7555000D01*
X14970000Y-7555000D01*
X14970000Y-7533106D01*
X14967310Y-7519582D01*
X14967310Y-7519581D01*
X14962033Y-7506843D01*
X14954373Y-7495378D01*
X14944622Y-7485627D01*
X14933157Y-7477967D01*
X14925000Y-7474588D01*
X14925000Y-7523301D01*
X14924006Y-7521579D01*
X14918420Y-7515994D01*
X14911580Y-7512044D01*
X14903950Y-7510000D01*
X14896050Y-7510000D01*
X14888420Y-7512044D01*
X14881579Y-7515994D01*
X14875994Y-7521579D01*
X14875000Y-7523301D01*
X14875000Y-7474588D01*
X14875000Y-7474588D01*
X14866842Y-7477967D01*
X14855378Y-7485627D01*
X14855377Y-7485627D01*
X14845627Y-7495377D01*
X14845627Y-7495378D01*
X14837967Y-7506843D01*
X14832690Y-7519581D01*
X14832690Y-7519582D01*
X14830000Y-7533106D01*
X14106000Y-7533106D01*
X14103310Y-7519582D01*
X14103310Y-7519581D01*
X14098033Y-7506843D01*
X14090373Y-7495378D01*
X14080622Y-7485627D01*
X14069157Y-7477967D01*
X14061000Y-7474588D01*
X14061000Y-7523301D01*
X14060006Y-7521579D01*
X14054420Y-7515994D01*
X14047580Y-7512044D01*
X14039950Y-7510000D01*
X14032050Y-7510000D01*
X14024420Y-7512044D01*
X14017579Y-7515994D01*
X14011994Y-7521579D01*
X14011000Y-7523301D01*
X14011000Y-7474588D01*
X14011000Y-7474588D01*
X14002842Y-7477967D01*
X13991378Y-7485627D01*
X13991377Y-7485627D01*
X13981627Y-7495377D01*
X13981627Y-7495378D01*
X13973967Y-7506842D01*
X13973287Y-7508484D01*
X13969282Y-7512489D01*
X13963618Y-7512489D01*
X13959613Y-7508484D01*
X13959050Y-7505653D01*
X13959050Y-7482517D01*
X13959050Y-7482517D01*
X13955236Y-7473310D01*
X13955236Y-7473310D01*
X13895690Y-7413764D01*
X13895374Y-7413553D01*
X13892228Y-7408844D01*
X13893333Y-7403289D01*
X13898042Y-7400142D01*
X13899486Y-7400000D01*
X15236650Y-7400000D01*
X15241883Y-7402167D01*
G37*
%TD.AperFunction*%
%TA.AperFunction,Conductor*%
G36*
X14443232Y-12058658D02*
G01*
X14528341Y-12143767D01*
X14528342Y-12143768D01*
X14528764Y-12144190D01*
X14535810Y-12151236D01*
X14545017Y-12155050D01*
X14636559Y-12155050D01*
X14641791Y-12157217D01*
X14672783Y-12188209D01*
X14674950Y-12193441D01*
X14674950Y-12205038D01*
X14672783Y-12210271D01*
X14670382Y-12211875D01*
X14652609Y-12219237D01*
X14636222Y-12230186D01*
X14636222Y-12230186D01*
X14622286Y-12244122D01*
X14622286Y-12244122D01*
X14611337Y-12260509D01*
X14603795Y-12278716D01*
X14603795Y-12278717D01*
X14599950Y-12298046D01*
X14599950Y-12317754D01*
X14603795Y-12337083D01*
X14603795Y-12337084D01*
X14611337Y-12355291D01*
X14622286Y-12371678D01*
X14636222Y-12385614D01*
X14637469Y-12386447D01*
X14640615Y-12391156D01*
X14639510Y-12396711D01*
X14634801Y-12399858D01*
X14633358Y-12400000D01*
X14502745Y-12400000D01*
X14458941Y-12356196D01*
X14465299Y-12354492D01*
X14476701Y-12347910D01*
X14486010Y-12338601D01*
X14492592Y-12327199D01*
X14494296Y-12320841D01*
X14535862Y-12362407D01*
X14535862Y-12362407D01*
X14539050Y-12357636D01*
X14546965Y-12338527D01*
X14546965Y-12338527D01*
X14551000Y-12318241D01*
X14551000Y-12297558D01*
X14546965Y-12277273D01*
X14546965Y-12277272D01*
X14539050Y-12258164D01*
X14535862Y-12253393D01*
X14494296Y-12294959D01*
X14492592Y-12288601D01*
X14486010Y-12277199D01*
X14476701Y-12267890D01*
X14465299Y-12261307D01*
X14458941Y-12259604D01*
X14500507Y-12218038D01*
X14495736Y-12214850D01*
X14476627Y-12206935D01*
X14476627Y-12206935D01*
X14456342Y-12202900D01*
X14435658Y-12202900D01*
X14415373Y-12206935D01*
X14415372Y-12206935D01*
X14396263Y-12214850D01*
X14391493Y-12218038D01*
X14391493Y-12218038D01*
X14433059Y-12259604D01*
X14426701Y-12261307D01*
X14415299Y-12267890D01*
X14405990Y-12277199D01*
X14399407Y-12288601D01*
X14397704Y-12294959D01*
X14356138Y-12253393D01*
X14356138Y-12253393D01*
X14352950Y-12258163D01*
X14345035Y-12277272D01*
X14345035Y-12277273D01*
X14341000Y-12297558D01*
X14341000Y-12318241D01*
X14345035Y-12338527D01*
X14345035Y-12338527D01*
X14352950Y-12357636D01*
X14356138Y-12362407D01*
X14397704Y-12320841D01*
X14399407Y-12327199D01*
X14405990Y-12338601D01*
X14415299Y-12347910D01*
X14426701Y-12354492D01*
X14433059Y-12356196D01*
X14389255Y-12400000D01*
X14299450Y-12400000D01*
X14294217Y-12397833D01*
X14292050Y-12392600D01*
X14292050Y-12221418D01*
X14291616Y-12219237D01*
X14291177Y-12217028D01*
X14287850Y-12212050D01*
X14287589Y-12211875D01*
X14282872Y-12208723D01*
X14278482Y-12207850D01*
X14278482Y-12207850D01*
X14224450Y-12207850D01*
X14219217Y-12205683D01*
X14217050Y-12200450D01*
X14217050Y-12191441D01*
X14219217Y-12186209D01*
X14248209Y-12157217D01*
X14253441Y-12155050D01*
X14330983Y-12155050D01*
X14330983Y-12155050D01*
X14340190Y-12151236D01*
X14432767Y-12058658D01*
X14438000Y-12056491D01*
X14443232Y-12058658D01*
G37*
%TD.AperFunction*%
%TD*%
M02*
