%TF.GenerationSoftware,KiCad,Pcbnew,10.0.0*%
%TF.CreationDate,2026-04-12T10:37:01+02:00*%
%TF.ProjectId,Easyduino_RP2040,45617379-6475-4696-9e6f-5f5250323034,rev?*%
%TF.SameCoordinates,Original*%
%TF.FileFunction,Soldermask,Bot*%
%TF.FilePolarity,Negative*%
%FSLAX45Y45*%
G04 Gerber Fmt 4.5, Leading zero omitted, Abs format (unit mm)*
G04 Created by KiCad (PCBNEW 10.0.0) date 2026-04-12 10:37:01*
%MOMM*%
%LPD*%
G01*
G04 APERTURE LIST*
%ADD10C,0.650000*%
%ADD11O,1.000000X2.100000*%
%ADD12O,1.000000X1.800000*%
%ADD13C,2.200000*%
%ADD14R,1.700000X1.700000*%
%ADD15C,1.700000*%
%ADD16C,0.500000*%
G04 APERTURE END LIST*
D10*
%TO.C,J1*%
X14757000Y-7948000D03*
X14179000Y-7948000D03*
D11*
X14900000Y-8000000D03*
D12*
X14900000Y-7580000D03*
D11*
X14036000Y-8000000D03*
D12*
X14036000Y-7580000D03*
%TD*%
D13*
%TO.C,H3*%
X13799000Y-12220000D03*
%TD*%
D14*
%TO.C,J5*%
X14192000Y-12307900D03*
D15*
X14446000Y-12307900D03*
X14700000Y-12307900D03*
%TD*%
D14*
%TO.C,J7*%
X14270000Y-8580000D03*
%TD*%
D13*
%TO.C,H1*%
X13799000Y-7580000D03*
%TD*%
%TO.C,H2*%
X15139000Y-7580000D03*
%TD*%
%TO.C,H4*%
X15059000Y-12220000D03*
%TD*%
D16*
%TO.C,TP6*%
X14645000Y-10730000D03*
%TD*%
D14*
%TO.C,J4*%
X15344100Y-7481900D03*
D15*
X15344100Y-7735900D03*
X15344100Y-7989900D03*
X15344100Y-8243900D03*
X15344100Y-8497900D03*
X15344100Y-8751900D03*
X15344100Y-9005900D03*
X15344100Y-9259900D03*
X15344100Y-9513900D03*
X15344100Y-9767900D03*
X15344100Y-10021900D03*
X15344100Y-10275900D03*
X15344100Y-10529900D03*
X15344100Y-10783900D03*
X15344100Y-11037900D03*
X15344100Y-11291900D03*
X15344100Y-11545900D03*
X15344100Y-11799900D03*
X15344100Y-12053900D03*
X15344100Y-12307900D03*
%TD*%
D16*
%TO.C,TP5*%
X14510000Y-10730000D03*
%TD*%
%TO.C,TP7*%
X14725000Y-10730000D03*
%TD*%
D14*
%TO.C,J3*%
X13553400Y-7481900D03*
D15*
X13553400Y-7735900D03*
X13553400Y-7989900D03*
X13553400Y-8243900D03*
X13553400Y-8497900D03*
X13553400Y-8751900D03*
X13553400Y-9005900D03*
X13553400Y-9259900D03*
X13553400Y-9513900D03*
X13553400Y-9767900D03*
X13553400Y-10021900D03*
X13553400Y-10275900D03*
X13553400Y-10529900D03*
X13553400Y-10783900D03*
X13553400Y-11037900D03*
X13553400Y-11291900D03*
X13553400Y-11545900D03*
X13553400Y-11799900D03*
X13553400Y-12053900D03*
X13553400Y-12307900D03*
%TD*%
M02*
