%TF.GenerationSoftware,KiCad,Pcbnew,10.0.0*%
%TF.CreationDate,2026-04-10T18:52:41+02:00*%
%TF.ProjectId,Easyduino_ESP32,45617379-6475-4696-9e6f-5f4553503332,rev?*%
%TF.SameCoordinates,Original*%
%TF.FileFunction,Copper,L3,Inr*%
%TF.FilePolarity,Positive*%
%FSLAX45Y45*%
G04 Gerber Fmt 4.5, Leading zero omitted, Abs format (unit mm)*
G04 Created by KiCad (PCBNEW 10.0.0) date 2026-04-10 18:52:41*
%MOMM*%
%LPD*%
G01*
G04 APERTURE LIST*
%TA.AperFunction,ComponentPad*%
%ADD10O,1.000000X2.100000*%
%TD*%
%TA.AperFunction,ComponentPad*%
%ADD11O,1.000000X1.800000*%
%TD*%
%TA.AperFunction,ComponentPad*%
%ADD12O,2.000000X1.200000*%
%TD*%
%TA.AperFunction,ViaPad*%
%ADD13C,0.500000*%
%TD*%
%TA.AperFunction,ViaPad*%
%ADD14C,0.700000*%
%TD*%
G04 APERTURE END LIST*
D10*
%TO.N,GND*%
%TO.C,J1*%
X14154000Y-11098000D03*
D11*
X14154000Y-11518000D03*
D10*
X15018000Y-11098000D03*
D11*
X15018000Y-11518000D03*
%TD*%
D12*
%TO.N,+3.3V*%
%TO.C,U4*%
X13310368Y-7054272D03*
%TO.N,/EN*%
X13310368Y-7308272D03*
%TO.N,/GPIO36*%
X13310368Y-7562272D03*
%TO.N,/GPIO39*%
X13310368Y-7816272D03*
%TO.N,/GPIO34*%
X13310368Y-8070272D03*
%TO.N,/GPIO35*%
X13310368Y-8324272D03*
%TO.N,/GPIO32*%
X13310368Y-8578272D03*
%TO.N,/GPIO33*%
X13310368Y-8832272D03*
%TO.N,/GPIO25*%
X13310368Y-9086272D03*
%TO.N,/GPIO26*%
X13310368Y-9340272D03*
%TO.N,/GPIO27*%
X13310368Y-9594272D03*
%TO.N,/GPIO14*%
X13310368Y-9848272D03*
%TO.N,/GPIO12*%
X13310368Y-10102272D03*
%TO.N,GND*%
X13310368Y-10356272D03*
%TO.N,/GPIO13*%
X13310368Y-10610272D03*
%TO.N,unconnected-(U4-SD_DATA2{slash}GPIO9-Pad16)*%
X13310368Y-10864272D03*
%TO.N,unconnected-(U4-SD_DATA3{slash}GPIO10-Pad17)*%
X13310368Y-11118272D03*
%TO.N,unconnected-(U4-CMD-Pad18)*%
X13310368Y-11372272D03*
%TO.N,+5V*%
X13310368Y-11626272D03*
%TO.N,unconnected-(U4-SD_CLK{slash}GPIO6-Pad20)*%
X15850000Y-11626000D03*
%TO.N,unconnected-(U4-SD_DATA0{slash}GPIO7-Pad21)*%
X15850000Y-11372000D03*
%TO.N,unconnected-(U4-SD_DATA1{slash}GPIO8-Pad22)*%
X15850368Y-11118272D03*
%TO.N,/GPIO15*%
X15850368Y-10864272D03*
%TO.N,/GPIO2*%
X15850368Y-10610272D03*
%TO.N,/GPIO0*%
X15850368Y-10356272D03*
%TO.N,/GPIO4*%
X15850368Y-10102272D03*
%TO.N,/GPIO16*%
X15850368Y-9848272D03*
%TO.N,/GPIO17*%
X15850368Y-9594272D03*
%TO.N,/GPIO5*%
X15850368Y-9340272D03*
%TO.N,/GPIO18*%
X15850368Y-9086272D03*
%TO.N,/GPIO19*%
X15850368Y-8832272D03*
%TO.N,GND*%
X15850368Y-8578272D03*
%TO.N,/GPIO21*%
X15850368Y-8324272D03*
%TO.N,/GPIO3*%
X15850368Y-8070272D03*
%TO.N,/GPIO1*%
X15850368Y-7816272D03*
%TO.N,/GPIO22*%
X15850368Y-7562272D03*
%TO.N,/GPIO23*%
X15850368Y-7308272D03*
%TO.N,GND*%
X15850368Y-7054272D03*
%TD*%
D13*
%TO.N,GND*%
X14400000Y-10520000D03*
X15140000Y-10500000D03*
X13800000Y-11650000D03*
X14020000Y-9020000D03*
X14670000Y-7810000D03*
X13770000Y-9580000D03*
X14160000Y-10870000D03*
X14200000Y-7810000D03*
X14510000Y-8110000D03*
X13920000Y-9860000D03*
X15350000Y-11650000D03*
X14510000Y-7650000D03*
X15000000Y-9850000D03*
X15430000Y-9390000D03*
X14390000Y-10620000D03*
X13880000Y-10850000D03*
X14110000Y-9170000D03*
X13930000Y-9560000D03*
X14120000Y-10930000D03*
X15270000Y-10240000D03*
X14670000Y-7950000D03*
X14370000Y-8110000D03*
X15140000Y-10860000D03*
X15010000Y-10500000D03*
X15120000Y-10930000D03*
X14370000Y-7650000D03*
X13890000Y-7110000D03*
X14200000Y-7950000D03*
X13750000Y-9410000D03*
X15470000Y-10850000D03*
D14*
%TO.N,+3.3V*%
X13930000Y-9290000D03*
D13*
X14690000Y-9500000D03*
X14690000Y-9270000D03*
X13780000Y-9890000D03*
D14*
X13890000Y-7230000D03*
D13*
X14690000Y-9390000D03*
X13760000Y-9140000D03*
%TO.N,/CC2*%
X14760000Y-10860000D03*
X14890000Y-10860000D03*
%TO.N,/USB_D+*%
X14677744Y-10934924D03*
X14561000Y-10940000D03*
%TO.N,/~{RTS}*%
X14140000Y-10080000D03*
X13940000Y-10130000D03*
%TO.N,Net-(U1-VDD)*%
X14710000Y-10510000D03*
X14940000Y-10580000D03*
%TO.N,/GPIO0*%
X15555000Y-9255000D03*
X14970000Y-10760000D03*
X15712048Y-10217952D03*
X14350000Y-10760000D03*
X15580000Y-10020000D03*
X15620000Y-10670000D03*
%TO.N,/GPIO13*%
X13720000Y-8910000D03*
X14140000Y-8740000D03*
%TO.N,/GPIO15*%
X15410000Y-10240000D03*
X15170000Y-9430000D03*
%TO.N,/GPIO2*%
X15260000Y-9370000D03*
X15460000Y-10090000D03*
%TO.N,/GPIO4*%
X15610000Y-9730000D03*
X15610000Y-9470000D03*
%TO.N,/GPIO3*%
X14580000Y-8670000D03*
X14220000Y-10240000D03*
%TO.N,/GPIO1*%
X14520000Y-8620000D03*
X14190000Y-10160000D03*
%TD*%
%TA.AperFunction,Conductor*%
%TO.N,+3.3V*%
G36*
X15732310Y-6986290D02*
G01*
X15736885Y-6991571D01*
X15737880Y-6998487D01*
X15735916Y-7003611D01*
X15733415Y-7007355D01*
X15730567Y-7011617D01*
X15730566Y-7011618D01*
X15723779Y-7028005D01*
X15723778Y-7028006D01*
X15720318Y-7045402D01*
X15720318Y-7063141D01*
X15723778Y-7080538D01*
X15723779Y-7080539D01*
X15730566Y-7096926D01*
X15730567Y-7096927D01*
X15740421Y-7111675D01*
X15740422Y-7111676D01*
X15752964Y-7124218D01*
X15752964Y-7124218D01*
X15767713Y-7134073D01*
X15767714Y-7134074D01*
X15779690Y-7139034D01*
X15784101Y-7140861D01*
X15784102Y-7140861D01*
X15784102Y-7140862D01*
X15801498Y-7144322D01*
X15801499Y-7144322D01*
X15801499Y-7144322D01*
X15899237Y-7144322D01*
X15899237Y-7144322D01*
X15905036Y-7143168D01*
X15916634Y-7140862D01*
X15916634Y-7140861D01*
X15916635Y-7140861D01*
X15933023Y-7134073D01*
X15937944Y-7130785D01*
X15941029Y-7128724D01*
X15947696Y-7126636D01*
X15954434Y-7128484D01*
X15959104Y-7133682D01*
X15960318Y-7139034D01*
X15960318Y-7223510D01*
X15958349Y-7230214D01*
X15953069Y-7234789D01*
X15946153Y-7235784D01*
X15941029Y-7233820D01*
X15933024Y-7228471D01*
X15933022Y-7228470D01*
X15916635Y-7221683D01*
X15916634Y-7221682D01*
X15899237Y-7218222D01*
X15899237Y-7218222D01*
X15801499Y-7218222D01*
X15801499Y-7218222D01*
X15784102Y-7221682D01*
X15784101Y-7221683D01*
X15767714Y-7228470D01*
X15767713Y-7228471D01*
X15752964Y-7238325D01*
X15752964Y-7238326D01*
X15740422Y-7250868D01*
X15740421Y-7250868D01*
X15730567Y-7265617D01*
X15730566Y-7265618D01*
X15723779Y-7282005D01*
X15723778Y-7282006D01*
X15720318Y-7299402D01*
X15720318Y-7317141D01*
X15723778Y-7334538D01*
X15723779Y-7334539D01*
X15730566Y-7350926D01*
X15730567Y-7350927D01*
X15740421Y-7365675D01*
X15740422Y-7365676D01*
X15752964Y-7378218D01*
X15752964Y-7378218D01*
X15767713Y-7388073D01*
X15767714Y-7388074D01*
X15779689Y-7393034D01*
X15784101Y-7394861D01*
X15784102Y-7394861D01*
X15784102Y-7394862D01*
X15801498Y-7398322D01*
X15801499Y-7398322D01*
X15801499Y-7398322D01*
X15899237Y-7398322D01*
X15899237Y-7398322D01*
X15905036Y-7397168D01*
X15916634Y-7394862D01*
X15916634Y-7394861D01*
X15916635Y-7394861D01*
X15933023Y-7388073D01*
X15937944Y-7384785D01*
X15941029Y-7382724D01*
X15947696Y-7380636D01*
X15954434Y-7382484D01*
X15959104Y-7387682D01*
X15960318Y-7393034D01*
X15960318Y-7477510D01*
X15958349Y-7484214D01*
X15953069Y-7488789D01*
X15946153Y-7489784D01*
X15941029Y-7487820D01*
X15933024Y-7482471D01*
X15933022Y-7482470D01*
X15916635Y-7475683D01*
X15916634Y-7475682D01*
X15899237Y-7472222D01*
X15899237Y-7472222D01*
X15801499Y-7472222D01*
X15801499Y-7472222D01*
X15784102Y-7475682D01*
X15784101Y-7475683D01*
X15767714Y-7482470D01*
X15767713Y-7482471D01*
X15752964Y-7492325D01*
X15752964Y-7492326D01*
X15740422Y-7504868D01*
X15740421Y-7504868D01*
X15730567Y-7519617D01*
X15730566Y-7519618D01*
X15723779Y-7536005D01*
X15723778Y-7536006D01*
X15720318Y-7553402D01*
X15720318Y-7571141D01*
X15723778Y-7588538D01*
X15723779Y-7588539D01*
X15730566Y-7604926D01*
X15730567Y-7604927D01*
X15740421Y-7619675D01*
X15740422Y-7619676D01*
X15752964Y-7632218D01*
X15752964Y-7632218D01*
X15767713Y-7642073D01*
X15767714Y-7642074D01*
X15779689Y-7647034D01*
X15784101Y-7648861D01*
X15784102Y-7648861D01*
X15784102Y-7648862D01*
X15801498Y-7652322D01*
X15801499Y-7652322D01*
X15801499Y-7652322D01*
X15899237Y-7652322D01*
X15899237Y-7652322D01*
X15905036Y-7651168D01*
X15916634Y-7648862D01*
X15916634Y-7648861D01*
X15916635Y-7648861D01*
X15931382Y-7642753D01*
X15933022Y-7642074D01*
X15933022Y-7642073D01*
X15933023Y-7642073D01*
X15937944Y-7638785D01*
X15941029Y-7636724D01*
X15947696Y-7634636D01*
X15954434Y-7636484D01*
X15959104Y-7641682D01*
X15960318Y-7647034D01*
X15960318Y-7731510D01*
X15958349Y-7738214D01*
X15953069Y-7742789D01*
X15946153Y-7743784D01*
X15941029Y-7741820D01*
X15933024Y-7736471D01*
X15933022Y-7736470D01*
X15916635Y-7729683D01*
X15916634Y-7729682D01*
X15899237Y-7726222D01*
X15899237Y-7726222D01*
X15801499Y-7726222D01*
X15801499Y-7726222D01*
X15784102Y-7729682D01*
X15784101Y-7729683D01*
X15767714Y-7736470D01*
X15767713Y-7736471D01*
X15752964Y-7746325D01*
X15752964Y-7746326D01*
X15740422Y-7758868D01*
X15740421Y-7758868D01*
X15730567Y-7773617D01*
X15730566Y-7773618D01*
X15723779Y-7790005D01*
X15723778Y-7790006D01*
X15720318Y-7807402D01*
X15720318Y-7825141D01*
X15723778Y-7842538D01*
X15723779Y-7842539D01*
X15730566Y-7858926D01*
X15730567Y-7858927D01*
X15740421Y-7873675D01*
X15740422Y-7873676D01*
X15752964Y-7886218D01*
X15752964Y-7886218D01*
X15767713Y-7896073D01*
X15767714Y-7896074D01*
X15779689Y-7901034D01*
X15784101Y-7902861D01*
X15784102Y-7902861D01*
X15784102Y-7902862D01*
X15801498Y-7906322D01*
X15801499Y-7906322D01*
X15801499Y-7906322D01*
X15899237Y-7906322D01*
X15899237Y-7906322D01*
X15905036Y-7905168D01*
X15916634Y-7902862D01*
X15916634Y-7902861D01*
X15916635Y-7902861D01*
X15933023Y-7896073D01*
X15937944Y-7892785D01*
X15941029Y-7890724D01*
X15947696Y-7888636D01*
X15954434Y-7890484D01*
X15959104Y-7895682D01*
X15960318Y-7901034D01*
X15960318Y-7985510D01*
X15958349Y-7992214D01*
X15953069Y-7996789D01*
X15946153Y-7997784D01*
X15941029Y-7995820D01*
X15933024Y-7990471D01*
X15933022Y-7990470D01*
X15916635Y-7983683D01*
X15916634Y-7983682D01*
X15899237Y-7980222D01*
X15899237Y-7980222D01*
X15801499Y-7980222D01*
X15801499Y-7980222D01*
X15784102Y-7983682D01*
X15784101Y-7983683D01*
X15767714Y-7990470D01*
X15767713Y-7990471D01*
X15752964Y-8000325D01*
X15752964Y-8000326D01*
X15740422Y-8012868D01*
X15740421Y-8012868D01*
X15730567Y-8027617D01*
X15730566Y-8027618D01*
X15723779Y-8044005D01*
X15723778Y-8044006D01*
X15720318Y-8061402D01*
X15720318Y-8079141D01*
X15723778Y-8096538D01*
X15723779Y-8096539D01*
X15730566Y-8112926D01*
X15730567Y-8112927D01*
X15740421Y-8127675D01*
X15740422Y-8127676D01*
X15752964Y-8140218D01*
X15752964Y-8140218D01*
X15767713Y-8150073D01*
X15767714Y-8150074D01*
X15779689Y-8155034D01*
X15784101Y-8156861D01*
X15784102Y-8156861D01*
X15784102Y-8156862D01*
X15801498Y-8160322D01*
X15801499Y-8160322D01*
X15801499Y-8160322D01*
X15899237Y-8160322D01*
X15899237Y-8160322D01*
X15905036Y-8159168D01*
X15916634Y-8156862D01*
X15916634Y-8156861D01*
X15916635Y-8156861D01*
X15933023Y-8150073D01*
X15937944Y-8146785D01*
X15941029Y-8144724D01*
X15947696Y-8142636D01*
X15954434Y-8144484D01*
X15959104Y-8149682D01*
X15960318Y-8155034D01*
X15960318Y-8239510D01*
X15958349Y-8246214D01*
X15953069Y-8250789D01*
X15946153Y-8251784D01*
X15941029Y-8249820D01*
X15933024Y-8244471D01*
X15933022Y-8244470D01*
X15916635Y-8237683D01*
X15916634Y-8237682D01*
X15899237Y-8234222D01*
X15899237Y-8234222D01*
X15801499Y-8234222D01*
X15801499Y-8234222D01*
X15784102Y-8237682D01*
X15784101Y-8237683D01*
X15767714Y-8244470D01*
X15767713Y-8244471D01*
X15752964Y-8254325D01*
X15752964Y-8254326D01*
X15740422Y-8266868D01*
X15740421Y-8266868D01*
X15730567Y-8281617D01*
X15730566Y-8281618D01*
X15723779Y-8298005D01*
X15723778Y-8298006D01*
X15720318Y-8315402D01*
X15720318Y-8333141D01*
X15723778Y-8350538D01*
X15723779Y-8350539D01*
X15730566Y-8366926D01*
X15730567Y-8366927D01*
X15740421Y-8381675D01*
X15740422Y-8381676D01*
X15752964Y-8394218D01*
X15752964Y-8394218D01*
X15767713Y-8404073D01*
X15767714Y-8404074D01*
X15779689Y-8409034D01*
X15784101Y-8410861D01*
X15784102Y-8410861D01*
X15784102Y-8410862D01*
X15801498Y-8414322D01*
X15801499Y-8414322D01*
X15801499Y-8414322D01*
X15899237Y-8414322D01*
X15899237Y-8414322D01*
X15905036Y-8413168D01*
X15916634Y-8410862D01*
X15916634Y-8410861D01*
X15916635Y-8410861D01*
X15933023Y-8404073D01*
X15937944Y-8400785D01*
X15941029Y-8398724D01*
X15947696Y-8396636D01*
X15954434Y-8398484D01*
X15959104Y-8403682D01*
X15960318Y-8409034D01*
X15960318Y-8493510D01*
X15958349Y-8500214D01*
X15953069Y-8504789D01*
X15946153Y-8505784D01*
X15941029Y-8503820D01*
X15933024Y-8498471D01*
X15933022Y-8498470D01*
X15916635Y-8491683D01*
X15916634Y-8491682D01*
X15899237Y-8488222D01*
X15899237Y-8488222D01*
X15801499Y-8488222D01*
X15801499Y-8488222D01*
X15784102Y-8491682D01*
X15784101Y-8491683D01*
X15767714Y-8498470D01*
X15767713Y-8498471D01*
X15752964Y-8508326D01*
X15752964Y-8508326D01*
X15740422Y-8520868D01*
X15740421Y-8520869D01*
X15730567Y-8535617D01*
X15730566Y-8535618D01*
X15723779Y-8552005D01*
X15723778Y-8552006D01*
X15720318Y-8569402D01*
X15720318Y-8587142D01*
X15723778Y-8604538D01*
X15723779Y-8604539D01*
X15730566Y-8620926D01*
X15730567Y-8620927D01*
X15740421Y-8635675D01*
X15740422Y-8635676D01*
X15752964Y-8648218D01*
X15752964Y-8648218D01*
X15767713Y-8658073D01*
X15767714Y-8658074D01*
X15779010Y-8662753D01*
X15784101Y-8664861D01*
X15784102Y-8664861D01*
X15784102Y-8664862D01*
X15801498Y-8668322D01*
X15801499Y-8668322D01*
X15801499Y-8668322D01*
X15899237Y-8668322D01*
X15899237Y-8668322D01*
X15905036Y-8667168D01*
X15916634Y-8664862D01*
X15916634Y-8664861D01*
X15916635Y-8664861D01*
X15933023Y-8658073D01*
X15939416Y-8653801D01*
X15941029Y-8652724D01*
X15947696Y-8650636D01*
X15954434Y-8652484D01*
X15959104Y-8657682D01*
X15960318Y-8663034D01*
X15960318Y-8747510D01*
X15958349Y-8754214D01*
X15953069Y-8758789D01*
X15946153Y-8759784D01*
X15941029Y-8757820D01*
X15933024Y-8752471D01*
X15933022Y-8752470D01*
X15916635Y-8745683D01*
X15916634Y-8745682D01*
X15899237Y-8742222D01*
X15899237Y-8742222D01*
X15801499Y-8742222D01*
X15801499Y-8742222D01*
X15784102Y-8745682D01*
X15784101Y-8745683D01*
X15767714Y-8752470D01*
X15767713Y-8752471D01*
X15752964Y-8762326D01*
X15752964Y-8762326D01*
X15740422Y-8774868D01*
X15740421Y-8774869D01*
X15730567Y-8789617D01*
X15730566Y-8789618D01*
X15723779Y-8806005D01*
X15723778Y-8806006D01*
X15720318Y-8823402D01*
X15720318Y-8841142D01*
X15723778Y-8858538D01*
X15723779Y-8858539D01*
X15730566Y-8874926D01*
X15730567Y-8874927D01*
X15740421Y-8889675D01*
X15740422Y-8889676D01*
X15752964Y-8902218D01*
X15752964Y-8902218D01*
X15767713Y-8912073D01*
X15767714Y-8912074D01*
X15779689Y-8917034D01*
X15784101Y-8918861D01*
X15784102Y-8918861D01*
X15784102Y-8918862D01*
X15801498Y-8922322D01*
X15801499Y-8922322D01*
X15801499Y-8922322D01*
X15899237Y-8922322D01*
X15899237Y-8922322D01*
X15905036Y-8921168D01*
X15916634Y-8918862D01*
X15916634Y-8918861D01*
X15916635Y-8918861D01*
X15933023Y-8912073D01*
X15937944Y-8908785D01*
X15941029Y-8906724D01*
X15947696Y-8904636D01*
X15954434Y-8906484D01*
X15959104Y-8911682D01*
X15960318Y-8917034D01*
X15960318Y-9001510D01*
X15958349Y-9008214D01*
X15953069Y-9012789D01*
X15946153Y-9013784D01*
X15941029Y-9011820D01*
X15933024Y-9006471D01*
X15933022Y-9006470D01*
X15916635Y-8999683D01*
X15916634Y-8999682D01*
X15899237Y-8996222D01*
X15899237Y-8996222D01*
X15801499Y-8996222D01*
X15801499Y-8996222D01*
X15784102Y-8999682D01*
X15784101Y-8999683D01*
X15767714Y-9006470D01*
X15767713Y-9006471D01*
X15752964Y-9016326D01*
X15752964Y-9016326D01*
X15740422Y-9028868D01*
X15740421Y-9028869D01*
X15730567Y-9043617D01*
X15730566Y-9043618D01*
X15723779Y-9060005D01*
X15723778Y-9060006D01*
X15720318Y-9077402D01*
X15720318Y-9095142D01*
X15723778Y-9112538D01*
X15723779Y-9112539D01*
X15730566Y-9128926D01*
X15730567Y-9128927D01*
X15740421Y-9143675D01*
X15740422Y-9143676D01*
X15752964Y-9156218D01*
X15752964Y-9156218D01*
X15767713Y-9166073D01*
X15767714Y-9166074D01*
X15779689Y-9171034D01*
X15784101Y-9172861D01*
X15784102Y-9172861D01*
X15784102Y-9172862D01*
X15801498Y-9176322D01*
X15801499Y-9176322D01*
X15801499Y-9176322D01*
X15899237Y-9176322D01*
X15899237Y-9176322D01*
X15905036Y-9175168D01*
X15916634Y-9172862D01*
X15916634Y-9172861D01*
X15916635Y-9172861D01*
X15933023Y-9166073D01*
X15937993Y-9162753D01*
X15941029Y-9160724D01*
X15947696Y-9158636D01*
X15954434Y-9160484D01*
X15959104Y-9165682D01*
X15960318Y-9171034D01*
X15960318Y-9255510D01*
X15958349Y-9262214D01*
X15953069Y-9266789D01*
X15946153Y-9267784D01*
X15941029Y-9265820D01*
X15933024Y-9260471D01*
X15933022Y-9260470D01*
X15916635Y-9253683D01*
X15916634Y-9253682D01*
X15899237Y-9250222D01*
X15899237Y-9250222D01*
X15801499Y-9250222D01*
X15801499Y-9250222D01*
X15784102Y-9253682D01*
X15784101Y-9253683D01*
X15767714Y-9260470D01*
X15767713Y-9260471D01*
X15752964Y-9270326D01*
X15752964Y-9270326D01*
X15740422Y-9282868D01*
X15740421Y-9282869D01*
X15730567Y-9297617D01*
X15730566Y-9297618D01*
X15723779Y-9314005D01*
X15723778Y-9314006D01*
X15720318Y-9331402D01*
X15720318Y-9349142D01*
X15723778Y-9366538D01*
X15723779Y-9366539D01*
X15730566Y-9382926D01*
X15730567Y-9382927D01*
X15740421Y-9397675D01*
X15740422Y-9397676D01*
X15752964Y-9410218D01*
X15752964Y-9410218D01*
X15767713Y-9420073D01*
X15767714Y-9420074D01*
X15779689Y-9425034D01*
X15784101Y-9426861D01*
X15784102Y-9426861D01*
X15784102Y-9426862D01*
X15801498Y-9430322D01*
X15801499Y-9430322D01*
X15801499Y-9430322D01*
X15899237Y-9430322D01*
X15899237Y-9430322D01*
X15905036Y-9429168D01*
X15916634Y-9426862D01*
X15916634Y-9426861D01*
X15916635Y-9426861D01*
X15933023Y-9420073D01*
X15937944Y-9416785D01*
X15941029Y-9414724D01*
X15947696Y-9412636D01*
X15954434Y-9414484D01*
X15959104Y-9419682D01*
X15960318Y-9425034D01*
X15960318Y-9509510D01*
X15958349Y-9516214D01*
X15953069Y-9520789D01*
X15946153Y-9521784D01*
X15941029Y-9519820D01*
X15933024Y-9514471D01*
X15933022Y-9514470D01*
X15916635Y-9507683D01*
X15916634Y-9507682D01*
X15899237Y-9504222D01*
X15899237Y-9504222D01*
X15801499Y-9504222D01*
X15801499Y-9504222D01*
X15784102Y-9507682D01*
X15784101Y-9507683D01*
X15767714Y-9514470D01*
X15767713Y-9514471D01*
X15752964Y-9524326D01*
X15752964Y-9524326D01*
X15740422Y-9536868D01*
X15740421Y-9536869D01*
X15730567Y-9551617D01*
X15730566Y-9551618D01*
X15723779Y-9568005D01*
X15723778Y-9568006D01*
X15720318Y-9585402D01*
X15720318Y-9603142D01*
X15723778Y-9620538D01*
X15723779Y-9620539D01*
X15730566Y-9636926D01*
X15730567Y-9636927D01*
X15740421Y-9651675D01*
X15740422Y-9651676D01*
X15752964Y-9664218D01*
X15752964Y-9664218D01*
X15767713Y-9674073D01*
X15767714Y-9674074D01*
X15778887Y-9678702D01*
X15784101Y-9680861D01*
X15784102Y-9680861D01*
X15784102Y-9680862D01*
X15801498Y-9684322D01*
X15801499Y-9684322D01*
X15801499Y-9684322D01*
X15899237Y-9684322D01*
X15899237Y-9684322D01*
X15905036Y-9683168D01*
X15916634Y-9680862D01*
X15916634Y-9680861D01*
X15916635Y-9680861D01*
X15933023Y-9674073D01*
X15937944Y-9670785D01*
X15941029Y-9668724D01*
X15947696Y-9666636D01*
X15954434Y-9668484D01*
X15959104Y-9673682D01*
X15960318Y-9679034D01*
X15960318Y-9763510D01*
X15958349Y-9770214D01*
X15953069Y-9774789D01*
X15946153Y-9775784D01*
X15941029Y-9773820D01*
X15933024Y-9768471D01*
X15933022Y-9768470D01*
X15916635Y-9761683D01*
X15916634Y-9761682D01*
X15899237Y-9758222D01*
X15899237Y-9758222D01*
X15801499Y-9758222D01*
X15801499Y-9758222D01*
X15784102Y-9761682D01*
X15784101Y-9761683D01*
X15767714Y-9768470D01*
X15767713Y-9768471D01*
X15752964Y-9778326D01*
X15752964Y-9778326D01*
X15740422Y-9790868D01*
X15740421Y-9790869D01*
X15730567Y-9805617D01*
X15730566Y-9805618D01*
X15723779Y-9822005D01*
X15723778Y-9822006D01*
X15720318Y-9839402D01*
X15720318Y-9857142D01*
X15723778Y-9874538D01*
X15723779Y-9874539D01*
X15730566Y-9890926D01*
X15730567Y-9890927D01*
X15740421Y-9905675D01*
X15740422Y-9905676D01*
X15752964Y-9918218D01*
X15752964Y-9918218D01*
X15767713Y-9928073D01*
X15767714Y-9928074D01*
X15779689Y-9933034D01*
X15784101Y-9934861D01*
X15784102Y-9934861D01*
X15784102Y-9934862D01*
X15801498Y-9938322D01*
X15801499Y-9938322D01*
X15801499Y-9938322D01*
X15899237Y-9938322D01*
X15899237Y-9938322D01*
X15905036Y-9937168D01*
X15916634Y-9934862D01*
X15916634Y-9934861D01*
X15916635Y-9934861D01*
X15933023Y-9928073D01*
X15937944Y-9924785D01*
X15941029Y-9922724D01*
X15947696Y-9920636D01*
X15954434Y-9922484D01*
X15959104Y-9927682D01*
X15960318Y-9933034D01*
X15960318Y-10017510D01*
X15958349Y-10024214D01*
X15953069Y-10028789D01*
X15946153Y-10029784D01*
X15941029Y-10027820D01*
X15933024Y-10022471D01*
X15933022Y-10022470D01*
X15916635Y-10015683D01*
X15916634Y-10015682D01*
X15899237Y-10012222D01*
X15899237Y-10012222D01*
X15801499Y-10012222D01*
X15801499Y-10012222D01*
X15784102Y-10015682D01*
X15784101Y-10015683D01*
X15767714Y-10022470D01*
X15767713Y-10022471D01*
X15752964Y-10032326D01*
X15752964Y-10032326D01*
X15740422Y-10044868D01*
X15740421Y-10044869D01*
X15730567Y-10059617D01*
X15730566Y-10059618D01*
X15723779Y-10076005D01*
X15723778Y-10076006D01*
X15720318Y-10093402D01*
X15720318Y-10111142D01*
X15723778Y-10128538D01*
X15723779Y-10128539D01*
X15730800Y-10145490D01*
X15730612Y-10145567D01*
X15731846Y-10151498D01*
X15729346Y-10158022D01*
X15723715Y-10162159D01*
X15719486Y-10162902D01*
X15719295Y-10162902D01*
X15704800Y-10162902D01*
X15691947Y-10166346D01*
X15690799Y-10166654D01*
X15678247Y-10173901D01*
X15678246Y-10173901D01*
X15667997Y-10184150D01*
X15667997Y-10184151D01*
X15660750Y-10196703D01*
X15660750Y-10196704D01*
X15656998Y-10210705D01*
X15656998Y-10225200D01*
X15659022Y-10232753D01*
X15660750Y-10239201D01*
X15667997Y-10251753D01*
X15667997Y-10251753D01*
X15667997Y-10251754D01*
X15678246Y-10262003D01*
X15678247Y-10262003D01*
X15678247Y-10262003D01*
X15690799Y-10269250D01*
X15690799Y-10269250D01*
X15690799Y-10269250D01*
X15704800Y-10273002D01*
X15704801Y-10273002D01*
X15719295Y-10273002D01*
X15719295Y-10273002D01*
X15733296Y-10269250D01*
X15733297Y-10269250D01*
X15733297Y-10269250D01*
X15733297Y-10269250D01*
X15745849Y-10262003D01*
X15756099Y-10251754D01*
X15763346Y-10239201D01*
X15767098Y-10225200D01*
X15767098Y-10210705D01*
X15764899Y-10202500D01*
X15765066Y-10195515D01*
X15768982Y-10189729D01*
X15775405Y-10186978D01*
X15781622Y-10187834D01*
X15784101Y-10188861D01*
X15784102Y-10188861D01*
X15784102Y-10188862D01*
X15801498Y-10192322D01*
X15801499Y-10192322D01*
X15801499Y-10192322D01*
X15899237Y-10192322D01*
X15899237Y-10192322D01*
X15905036Y-10191168D01*
X15916634Y-10188862D01*
X15916634Y-10188861D01*
X15916635Y-10188861D01*
X15933023Y-10182073D01*
X15938315Y-10178537D01*
X15941029Y-10176724D01*
X15947696Y-10174636D01*
X15954434Y-10176484D01*
X15959104Y-10181682D01*
X15960318Y-10187034D01*
X15960318Y-10271510D01*
X15958349Y-10278214D01*
X15953069Y-10282789D01*
X15946153Y-10283784D01*
X15941029Y-10281820D01*
X15933024Y-10276471D01*
X15933022Y-10276470D01*
X15916635Y-10269683D01*
X15916634Y-10269682D01*
X15899237Y-10266222D01*
X15899237Y-10266222D01*
X15801499Y-10266222D01*
X15801499Y-10266222D01*
X15784102Y-10269682D01*
X15784101Y-10269683D01*
X15767714Y-10276470D01*
X15767713Y-10276471D01*
X15762950Y-10279653D01*
X15762932Y-10279665D01*
X15752964Y-10286326D01*
X15752570Y-10286720D01*
X15752570Y-10286720D01*
X15740422Y-10298868D01*
X15740421Y-10298869D01*
X15730567Y-10313617D01*
X15730566Y-10313618D01*
X15723779Y-10330005D01*
X15723778Y-10330006D01*
X15720318Y-10347402D01*
X15720318Y-10365142D01*
X15723778Y-10382538D01*
X15723779Y-10382539D01*
X15730566Y-10398926D01*
X15730567Y-10398927D01*
X15740421Y-10413675D01*
X15740422Y-10413676D01*
X15752964Y-10426218D01*
X15752964Y-10426218D01*
X15767713Y-10436073D01*
X15767714Y-10436074D01*
X15779689Y-10441034D01*
X15784101Y-10442861D01*
X15784102Y-10442861D01*
X15784102Y-10442862D01*
X15801498Y-10446322D01*
X15801499Y-10446322D01*
X15801499Y-10446322D01*
X15899237Y-10446322D01*
X15899237Y-10446322D01*
X15906135Y-10444950D01*
X15916634Y-10442862D01*
X15916634Y-10442861D01*
X15916635Y-10442861D01*
X15933023Y-10436073D01*
X15937944Y-10432785D01*
X15941029Y-10430724D01*
X15947696Y-10428636D01*
X15954434Y-10430484D01*
X15959104Y-10435682D01*
X15960318Y-10441034D01*
X15960318Y-10525510D01*
X15958349Y-10532214D01*
X15953069Y-10536789D01*
X15946153Y-10537784D01*
X15941029Y-10535820D01*
X15933024Y-10530471D01*
X15933022Y-10530470D01*
X15916635Y-10523683D01*
X15916634Y-10523682D01*
X15899237Y-10520222D01*
X15899237Y-10520222D01*
X15801499Y-10520222D01*
X15801499Y-10520222D01*
X15784102Y-10523682D01*
X15784101Y-10523683D01*
X15767714Y-10530470D01*
X15767713Y-10530471D01*
X15752964Y-10540326D01*
X15752964Y-10540326D01*
X15740422Y-10552868D01*
X15740421Y-10552869D01*
X15730567Y-10567617D01*
X15730566Y-10567618D01*
X15723779Y-10584005D01*
X15723778Y-10584006D01*
X15720318Y-10601402D01*
X15720318Y-10619142D01*
X15723778Y-10636538D01*
X15723779Y-10636539D01*
X15730566Y-10652926D01*
X15730567Y-10652927D01*
X15740421Y-10667675D01*
X15740422Y-10667676D01*
X15752964Y-10680218D01*
X15752964Y-10680218D01*
X15767713Y-10690073D01*
X15767714Y-10690074D01*
X15779689Y-10695034D01*
X15784101Y-10696861D01*
X15784102Y-10696861D01*
X15784102Y-10696862D01*
X15801498Y-10700322D01*
X15801499Y-10700322D01*
X15801499Y-10700322D01*
X15899237Y-10700322D01*
X15899237Y-10700322D01*
X15905036Y-10699168D01*
X15916634Y-10696862D01*
X15916634Y-10696861D01*
X15916635Y-10696861D01*
X15933023Y-10690073D01*
X15937944Y-10686785D01*
X15941029Y-10684724D01*
X15947696Y-10682636D01*
X15954434Y-10684484D01*
X15959104Y-10689682D01*
X15960318Y-10695034D01*
X15960318Y-10779510D01*
X15958349Y-10786214D01*
X15953069Y-10790789D01*
X15946153Y-10791784D01*
X15941029Y-10789820D01*
X15933024Y-10784471D01*
X15933022Y-10784470D01*
X15916635Y-10777683D01*
X15916634Y-10777682D01*
X15899237Y-10774222D01*
X15899237Y-10774222D01*
X15801499Y-10774222D01*
X15801499Y-10774222D01*
X15784102Y-10777682D01*
X15784101Y-10777683D01*
X15767714Y-10784470D01*
X15767713Y-10784471D01*
X15752964Y-10794326D01*
X15752964Y-10794326D01*
X15740422Y-10806868D01*
X15740421Y-10806869D01*
X15730567Y-10821617D01*
X15730566Y-10821618D01*
X15723779Y-10838005D01*
X15723778Y-10838006D01*
X15720318Y-10855402D01*
X15720318Y-10873142D01*
X15723778Y-10890538D01*
X15723779Y-10890539D01*
X15730566Y-10906926D01*
X15730567Y-10906927D01*
X15740421Y-10921675D01*
X15740422Y-10921676D01*
X15752964Y-10934218D01*
X15752964Y-10934218D01*
X15767713Y-10944073D01*
X15767714Y-10944074D01*
X15779689Y-10949034D01*
X15784101Y-10950861D01*
X15784102Y-10950861D01*
X15784102Y-10950862D01*
X15801498Y-10954322D01*
X15801499Y-10954322D01*
X15801499Y-10954322D01*
X15899237Y-10954322D01*
X15899237Y-10954322D01*
X15907356Y-10952707D01*
X15916634Y-10950862D01*
X15916634Y-10950861D01*
X15916635Y-10950861D01*
X15933023Y-10944073D01*
X15937944Y-10940785D01*
X15941029Y-10938724D01*
X15947696Y-10936636D01*
X15954434Y-10938484D01*
X15959104Y-10943682D01*
X15960318Y-10949034D01*
X15960318Y-11033510D01*
X15958349Y-11040214D01*
X15953069Y-11044789D01*
X15946153Y-11045784D01*
X15941029Y-11043820D01*
X15933024Y-11038471D01*
X15933022Y-11038470D01*
X15916635Y-11031683D01*
X15916634Y-11031682D01*
X15899237Y-11028222D01*
X15899237Y-11028222D01*
X15801499Y-11028222D01*
X15801499Y-11028222D01*
X15784102Y-11031682D01*
X15784101Y-11031683D01*
X15767714Y-11038470D01*
X15767713Y-11038471D01*
X15752964Y-11048326D01*
X15752964Y-11048326D01*
X15740422Y-11060868D01*
X15740421Y-11060869D01*
X15730567Y-11075617D01*
X15730566Y-11075618D01*
X15723779Y-11092005D01*
X15723778Y-11092006D01*
X15720318Y-11109402D01*
X15720318Y-11127142D01*
X15723778Y-11144538D01*
X15723779Y-11144539D01*
X15730566Y-11160926D01*
X15730567Y-11160927D01*
X15740421Y-11175675D01*
X15740422Y-11175676D01*
X15752964Y-11188218D01*
X15752964Y-11188218D01*
X15767713Y-11198073D01*
X15767714Y-11198074D01*
X15778521Y-11202550D01*
X15784101Y-11204861D01*
X15784102Y-11204861D01*
X15784102Y-11204862D01*
X15801498Y-11208322D01*
X15801499Y-11208322D01*
X15801499Y-11208322D01*
X15899237Y-11208322D01*
X15899237Y-11208322D01*
X15905036Y-11207168D01*
X15916634Y-11204862D01*
X15916634Y-11204861D01*
X15916635Y-11204861D01*
X15930621Y-11199068D01*
X15933022Y-11198074D01*
X15933022Y-11198073D01*
X15933023Y-11198073D01*
X15937944Y-11194785D01*
X15941029Y-11192724D01*
X15947696Y-11190636D01*
X15954434Y-11192484D01*
X15959104Y-11197682D01*
X15960318Y-11203034D01*
X15960318Y-11287484D01*
X15958349Y-11294188D01*
X15953069Y-11298763D01*
X15946153Y-11299758D01*
X15941029Y-11297794D01*
X15932656Y-11292199D01*
X15932654Y-11292198D01*
X15916267Y-11285411D01*
X15916266Y-11285410D01*
X15898869Y-11281950D01*
X15898869Y-11281950D01*
X15801131Y-11281950D01*
X15801131Y-11281950D01*
X15783734Y-11285410D01*
X15783733Y-11285411D01*
X15767346Y-11292198D01*
X15767345Y-11292199D01*
X15752596Y-11302053D01*
X15752596Y-11302054D01*
X15740054Y-11314596D01*
X15740053Y-11314596D01*
X15730199Y-11329345D01*
X15730198Y-11329346D01*
X15723411Y-11345733D01*
X15723410Y-11345734D01*
X15719950Y-11363130D01*
X15719950Y-11380869D01*
X15723410Y-11398266D01*
X15723411Y-11398267D01*
X15730198Y-11414654D01*
X15730199Y-11414655D01*
X15740053Y-11429403D01*
X15740054Y-11429404D01*
X15752596Y-11441946D01*
X15752596Y-11441946D01*
X15767345Y-11451801D01*
X15767346Y-11451802D01*
X15779636Y-11456892D01*
X15783733Y-11458589D01*
X15783734Y-11458589D01*
X15783734Y-11458590D01*
X15801130Y-11462050D01*
X15801131Y-11462050D01*
X15801131Y-11462050D01*
X15898869Y-11462050D01*
X15898869Y-11462050D01*
X15904668Y-11460896D01*
X15916266Y-11458590D01*
X15916266Y-11458589D01*
X15916267Y-11458589D01*
X15932655Y-11451801D01*
X15941029Y-11446206D01*
X15947696Y-11444118D01*
X15954434Y-11445966D01*
X15959104Y-11451164D01*
X15960318Y-11456516D01*
X15960318Y-11541484D01*
X15958349Y-11548188D01*
X15953069Y-11552763D01*
X15946153Y-11553758D01*
X15941029Y-11551794D01*
X15932656Y-11546199D01*
X15932654Y-11546198D01*
X15916267Y-11539411D01*
X15916266Y-11539410D01*
X15898869Y-11535950D01*
X15898869Y-11535950D01*
X15801131Y-11535950D01*
X15801131Y-11535950D01*
X15783734Y-11539410D01*
X15783733Y-11539411D01*
X15767346Y-11546198D01*
X15767345Y-11546199D01*
X15752596Y-11556053D01*
X15752596Y-11556054D01*
X15740054Y-11568596D01*
X15740053Y-11568596D01*
X15730199Y-11583345D01*
X15730198Y-11583346D01*
X15723411Y-11599733D01*
X15723410Y-11599734D01*
X15719950Y-11617130D01*
X15719950Y-11634869D01*
X15723410Y-11652266D01*
X15723411Y-11652267D01*
X15730198Y-11668654D01*
X15730199Y-11668655D01*
X15735730Y-11676933D01*
X15737818Y-11683601D01*
X15735969Y-11690339D01*
X15730771Y-11695008D01*
X15725420Y-11696222D01*
X15408357Y-11696222D01*
X15401653Y-11694253D01*
X15397078Y-11688973D01*
X15396084Y-11682057D01*
X15397619Y-11677622D01*
X15401298Y-11671249D01*
X15401298Y-11671249D01*
X15401298Y-11671248D01*
X15405050Y-11657247D01*
X15405050Y-11642752D01*
X15401298Y-11628751D01*
X15394589Y-11617131D01*
X15394051Y-11616199D01*
X15394051Y-11616198D01*
X15383802Y-11605949D01*
X15383801Y-11605949D01*
X15371249Y-11598702D01*
X15371249Y-11598702D01*
X15370101Y-11598394D01*
X15357247Y-11594950D01*
X15342752Y-11594950D01*
X15329899Y-11598394D01*
X15328751Y-11598702D01*
X15316199Y-11605949D01*
X15316198Y-11605949D01*
X15305949Y-11616198D01*
X15305949Y-11616199D01*
X15298702Y-11628751D01*
X15298651Y-11628940D01*
X15294950Y-11642752D01*
X15294950Y-11657247D01*
X15298079Y-11668926D01*
X15298702Y-11671249D01*
X15302381Y-11677622D01*
X15304029Y-11684412D01*
X15301743Y-11691015D01*
X15296251Y-11695334D01*
X15291643Y-11696222D01*
X13858357Y-11696222D01*
X13851653Y-11694253D01*
X13847078Y-11688973D01*
X13846084Y-11682057D01*
X13847619Y-11677622D01*
X13851298Y-11671249D01*
X13851298Y-11671249D01*
X13851298Y-11671248D01*
X13855050Y-11657247D01*
X13855050Y-11642752D01*
X13851298Y-11628751D01*
X13844589Y-11617131D01*
X13844051Y-11616199D01*
X13844051Y-11616198D01*
X13833802Y-11605949D01*
X13833801Y-11605949D01*
X13821249Y-11598702D01*
X13821249Y-11598702D01*
X13820101Y-11598394D01*
X13807247Y-11594950D01*
X13792752Y-11594950D01*
X13779899Y-11598394D01*
X13778751Y-11598702D01*
X13766199Y-11605949D01*
X13766198Y-11605949D01*
X13755949Y-11616198D01*
X13755949Y-11616199D01*
X13748702Y-11628751D01*
X13748651Y-11628940D01*
X13744950Y-11642752D01*
X13744950Y-11657247D01*
X13748079Y-11668926D01*
X13748702Y-11671249D01*
X13752381Y-11677622D01*
X13754029Y-11684412D01*
X13751743Y-11691015D01*
X13746251Y-11695334D01*
X13741643Y-11696222D01*
X13435130Y-11696222D01*
X13428426Y-11694253D01*
X13423850Y-11688973D01*
X13422856Y-11682057D01*
X13424820Y-11676933D01*
X13430169Y-11668927D01*
X13436957Y-11652539D01*
X13438904Y-11642753D01*
X13440418Y-11635141D01*
X13440418Y-11635141D01*
X13440418Y-11617403D01*
X13440418Y-11617402D01*
X13436958Y-11600006D01*
X13436957Y-11600005D01*
X13436845Y-11599733D01*
X13434863Y-11594950D01*
X13430170Y-11583618D01*
X13430169Y-11583617D01*
X13420314Y-11568868D01*
X13420314Y-11568868D01*
X13407772Y-11556326D01*
X13407771Y-11556325D01*
X13393023Y-11546471D01*
X13393022Y-11546470D01*
X13376635Y-11539683D01*
X13376634Y-11539682D01*
X13359237Y-11536222D01*
X13359237Y-11536222D01*
X13261499Y-11536222D01*
X13261499Y-11536222D01*
X13244102Y-11539682D01*
X13244101Y-11539683D01*
X13227714Y-11546470D01*
X13227713Y-11546471D01*
X13219707Y-11551820D01*
X13213039Y-11553908D01*
X13206301Y-11552059D01*
X13201632Y-11546862D01*
X13200418Y-11541510D01*
X13200418Y-11470115D01*
X14073950Y-11470115D01*
X14073950Y-11565885D01*
X14077026Y-11581349D01*
X14077026Y-11581350D01*
X14083060Y-11595917D01*
X14083061Y-11595918D01*
X14091821Y-11609029D01*
X14091821Y-11609029D01*
X14102971Y-11620179D01*
X14102971Y-11620179D01*
X14116081Y-11628939D01*
X14116083Y-11628940D01*
X14130398Y-11634869D01*
X14130650Y-11634974D01*
X14146115Y-11638050D01*
X14146116Y-11638050D01*
X14146116Y-11638050D01*
X14161884Y-11638050D01*
X14161884Y-11638050D01*
X14177350Y-11634974D01*
X14191918Y-11628939D01*
X14205029Y-11620179D01*
X14216179Y-11609029D01*
X14224939Y-11595918D01*
X14230974Y-11581350D01*
X14234050Y-11565884D01*
X14234050Y-11470116D01*
X14234050Y-11470115D01*
X14234050Y-11470115D01*
X14937950Y-11470115D01*
X14937950Y-11565885D01*
X14941026Y-11581349D01*
X14941026Y-11581350D01*
X14947060Y-11595917D01*
X14947061Y-11595918D01*
X14955821Y-11609029D01*
X14955821Y-11609029D01*
X14966971Y-11620179D01*
X14966971Y-11620179D01*
X14980081Y-11628939D01*
X14980083Y-11628940D01*
X14994398Y-11634869D01*
X14994650Y-11634974D01*
X15010115Y-11638050D01*
X15010116Y-11638050D01*
X15010116Y-11638050D01*
X15025884Y-11638050D01*
X15025884Y-11638050D01*
X15041350Y-11634974D01*
X15055918Y-11628939D01*
X15069029Y-11620179D01*
X15080179Y-11609029D01*
X15088939Y-11595918D01*
X15094974Y-11581350D01*
X15098050Y-11565884D01*
X15098050Y-11470116D01*
X15098050Y-11470115D01*
X15098050Y-11470115D01*
X15094974Y-11454651D01*
X15094974Y-11454650D01*
X15093906Y-11452073D01*
X15088940Y-11440083D01*
X15088939Y-11440081D01*
X15080179Y-11426971D01*
X15080179Y-11426971D01*
X15069029Y-11415821D01*
X15069029Y-11415821D01*
X15055918Y-11407061D01*
X15055917Y-11407060D01*
X15041350Y-11401026D01*
X15041349Y-11401026D01*
X15025884Y-11397950D01*
X15025884Y-11397950D01*
X15010116Y-11397950D01*
X15010115Y-11397950D01*
X14994651Y-11401026D01*
X14994650Y-11401026D01*
X14980083Y-11407060D01*
X14980081Y-11407061D01*
X14966971Y-11415821D01*
X14966971Y-11415821D01*
X14955821Y-11426971D01*
X14955821Y-11426971D01*
X14947061Y-11440081D01*
X14947060Y-11440083D01*
X14941026Y-11454650D01*
X14941026Y-11454651D01*
X14937950Y-11470115D01*
X14234050Y-11470115D01*
X14230974Y-11454651D01*
X14230974Y-11454650D01*
X14229906Y-11452073D01*
X14224940Y-11440083D01*
X14224939Y-11440081D01*
X14216179Y-11426971D01*
X14216179Y-11426971D01*
X14205029Y-11415821D01*
X14205029Y-11415821D01*
X14191918Y-11407061D01*
X14191917Y-11407060D01*
X14177350Y-11401026D01*
X14177349Y-11401026D01*
X14161884Y-11397950D01*
X14161884Y-11397950D01*
X14146116Y-11397950D01*
X14146115Y-11397950D01*
X14130651Y-11401026D01*
X14130650Y-11401026D01*
X14116083Y-11407060D01*
X14116081Y-11407061D01*
X14102971Y-11415821D01*
X14102971Y-11415821D01*
X14091821Y-11426971D01*
X14091821Y-11426971D01*
X14083061Y-11440081D01*
X14083060Y-11440083D01*
X14077026Y-11454650D01*
X14077026Y-11454651D01*
X14073950Y-11470115D01*
X13200418Y-11470115D01*
X13200418Y-11457034D01*
X13202386Y-11450330D01*
X13207667Y-11445754D01*
X13214583Y-11444760D01*
X13219707Y-11446724D01*
X13227713Y-11452073D01*
X13227713Y-11452073D01*
X13227714Y-11452074D01*
X13238439Y-11456516D01*
X13244101Y-11458861D01*
X13244102Y-11458861D01*
X13244102Y-11458862D01*
X13261498Y-11462322D01*
X13261499Y-11462322D01*
X13261499Y-11462322D01*
X13359237Y-11462322D01*
X13359237Y-11462322D01*
X13365036Y-11461168D01*
X13376634Y-11458862D01*
X13376634Y-11458861D01*
X13376635Y-11458861D01*
X13393023Y-11452073D01*
X13407771Y-11442218D01*
X13420314Y-11429675D01*
X13430169Y-11414927D01*
X13436957Y-11398539D01*
X13440418Y-11381141D01*
X13440418Y-11363403D01*
X13440418Y-11363403D01*
X13440418Y-11363402D01*
X13436958Y-11346006D01*
X13436957Y-11346005D01*
X13436845Y-11345733D01*
X13435260Y-11341908D01*
X13430170Y-11329618D01*
X13430169Y-11329617D01*
X13420314Y-11314868D01*
X13420314Y-11314868D01*
X13407772Y-11302326D01*
X13407771Y-11302325D01*
X13393023Y-11292471D01*
X13393022Y-11292470D01*
X13376635Y-11285683D01*
X13376634Y-11285682D01*
X13359237Y-11282222D01*
X13359237Y-11282222D01*
X13261499Y-11282222D01*
X13261499Y-11282222D01*
X13244102Y-11285682D01*
X13244101Y-11285683D01*
X13227714Y-11292470D01*
X13227713Y-11292471D01*
X13219707Y-11297820D01*
X13213039Y-11299908D01*
X13206301Y-11298059D01*
X13201632Y-11292862D01*
X13200418Y-11287510D01*
X13200418Y-11203034D01*
X13202386Y-11196330D01*
X13207667Y-11191754D01*
X13214583Y-11190760D01*
X13219707Y-11192724D01*
X13227713Y-11198073D01*
X13227713Y-11198073D01*
X13227714Y-11198074D01*
X13238521Y-11202550D01*
X13244101Y-11204861D01*
X13244102Y-11204861D01*
X13244102Y-11204862D01*
X13261498Y-11208322D01*
X13261499Y-11208322D01*
X13261499Y-11208322D01*
X13359237Y-11208322D01*
X13359237Y-11208322D01*
X13365036Y-11207168D01*
X13376634Y-11204862D01*
X13376634Y-11204861D01*
X13376635Y-11204861D01*
X13390621Y-11199068D01*
X13393022Y-11198074D01*
X13393022Y-11198073D01*
X13393023Y-11198073D01*
X13407771Y-11188218D01*
X13420314Y-11175676D01*
X13430169Y-11160927D01*
X13436957Y-11144539D01*
X13440418Y-11127141D01*
X13440418Y-11109403D01*
X13440418Y-11109403D01*
X13440418Y-11109402D01*
X13436958Y-11092006D01*
X13436957Y-11092005D01*
X13430170Y-11075618D01*
X13430169Y-11075617D01*
X13420314Y-11060869D01*
X13420314Y-11060868D01*
X13407772Y-11048326D01*
X13407771Y-11048326D01*
X13393023Y-11038471D01*
X13393022Y-11038470D01*
X13376635Y-11031683D01*
X13376634Y-11031682D01*
X13359237Y-11028222D01*
X13359237Y-11028222D01*
X13261499Y-11028222D01*
X13261499Y-11028222D01*
X13244102Y-11031682D01*
X13244101Y-11031683D01*
X13227714Y-11038470D01*
X13227713Y-11038471D01*
X13219707Y-11043820D01*
X13213039Y-11045908D01*
X13206301Y-11044060D01*
X13201632Y-11038862D01*
X13200418Y-11033510D01*
X13200418Y-10949034D01*
X13202386Y-10942330D01*
X13207667Y-10937755D01*
X13214583Y-10936760D01*
X13219707Y-10938724D01*
X13227713Y-10944073D01*
X13227713Y-10944073D01*
X13227714Y-10944074D01*
X13239689Y-10949034D01*
X13244101Y-10950861D01*
X13244102Y-10950861D01*
X13244102Y-10950862D01*
X13261498Y-10954322D01*
X13261499Y-10954322D01*
X13261499Y-10954322D01*
X13359237Y-10954322D01*
X13359237Y-10954322D01*
X13367356Y-10952707D01*
X13376634Y-10950862D01*
X13376634Y-10950861D01*
X13376635Y-10950861D01*
X13393023Y-10944073D01*
X13407771Y-10934218D01*
X13419237Y-10922753D01*
X14064950Y-10922753D01*
X14064950Y-10937248D01*
X14068702Y-10951249D01*
X14068702Y-10951249D01*
X14075949Y-10963801D01*
X14075949Y-10963801D01*
X14075949Y-10963802D01*
X14086198Y-10974051D01*
X14087431Y-10974762D01*
X14092252Y-10979819D01*
X14093575Y-10986679D01*
X14091541Y-10992390D01*
X14083061Y-11005081D01*
X14083060Y-11005083D01*
X14077026Y-11019650D01*
X14077026Y-11019651D01*
X14073950Y-11035115D01*
X14073950Y-11160885D01*
X14077026Y-11176349D01*
X14077026Y-11176350D01*
X14083060Y-11190917D01*
X14083061Y-11190918D01*
X14091821Y-11204029D01*
X14091821Y-11204029D01*
X14102971Y-11215179D01*
X14102971Y-11215179D01*
X14116081Y-11223939D01*
X14116083Y-11223940D01*
X14130650Y-11229973D01*
X14130650Y-11229974D01*
X14146115Y-11233050D01*
X14146116Y-11233050D01*
X14146116Y-11233050D01*
X14161884Y-11233050D01*
X14161884Y-11233050D01*
X14177350Y-11229974D01*
X14191918Y-11223939D01*
X14205029Y-11215179D01*
X14216179Y-11204029D01*
X14224939Y-11190918D01*
X14229940Y-11178846D01*
X14234324Y-11173405D01*
X14240953Y-11171199D01*
X14247723Y-11172927D01*
X14252135Y-11177391D01*
X14254949Y-11182266D01*
X14254949Y-11182266D01*
X14254949Y-11182267D01*
X14264733Y-11192050D01*
X14276716Y-11198969D01*
X14290082Y-11202550D01*
X14290082Y-11202550D01*
X14303918Y-11202550D01*
X14303918Y-11202550D01*
X14317284Y-11198969D01*
X14329266Y-11192050D01*
X14339050Y-11182267D01*
X14345969Y-11170284D01*
X14349550Y-11156918D01*
X14349550Y-11143082D01*
X14822450Y-11143082D01*
X14822450Y-11156918D01*
X14823524Y-11160927D01*
X14826031Y-11170284D01*
X14826031Y-11170284D01*
X14832949Y-11182266D01*
X14832949Y-11182266D01*
X14832949Y-11182267D01*
X14842733Y-11192050D01*
X14854716Y-11198969D01*
X14868082Y-11202550D01*
X14868082Y-11202550D01*
X14881918Y-11202550D01*
X14881918Y-11202550D01*
X14895284Y-11198969D01*
X14907266Y-11192050D01*
X14917050Y-11182267D01*
X14919865Y-11177391D01*
X14924922Y-11172570D01*
X14931782Y-11171247D01*
X14938269Y-11173844D01*
X14942060Y-11178846D01*
X14947060Y-11190917D01*
X14947061Y-11190918D01*
X14955821Y-11204029D01*
X14955821Y-11204029D01*
X14966971Y-11215179D01*
X14966971Y-11215179D01*
X14980081Y-11223939D01*
X14980083Y-11223940D01*
X14994650Y-11229973D01*
X14994650Y-11229974D01*
X15010115Y-11233050D01*
X15010116Y-11233050D01*
X15010116Y-11233050D01*
X15025884Y-11233050D01*
X15025884Y-11233050D01*
X15041350Y-11229974D01*
X15055918Y-11223939D01*
X15069029Y-11215179D01*
X15080179Y-11204029D01*
X15088939Y-11190918D01*
X15094974Y-11176350D01*
X15098050Y-11160884D01*
X15098050Y-11035116D01*
X15098050Y-11035116D01*
X15098050Y-11035115D01*
X15094974Y-11019651D01*
X15094974Y-11019650D01*
X15094973Y-11019650D01*
X15088940Y-11005083D01*
X15088939Y-11005081D01*
X15085746Y-11000303D01*
X15083658Y-10993635D01*
X15085507Y-10986897D01*
X15090704Y-10982228D01*
X15097601Y-10981110D01*
X15099264Y-10981436D01*
X15112752Y-10985050D01*
X15112753Y-10985050D01*
X15127247Y-10985050D01*
X15127247Y-10985050D01*
X15141248Y-10981298D01*
X15153801Y-10974051D01*
X15164051Y-10963802D01*
X15171298Y-10951249D01*
X15175050Y-10937248D01*
X15175050Y-10922753D01*
X15172687Y-10913933D01*
X15172853Y-10906949D01*
X15175896Y-10901956D01*
X15184051Y-10893802D01*
X15191298Y-10881249D01*
X15195050Y-10867248D01*
X15195050Y-10852753D01*
X15192370Y-10842753D01*
X15414950Y-10842753D01*
X15414950Y-10857248D01*
X15417847Y-10868060D01*
X15418702Y-10871249D01*
X15425949Y-10883801D01*
X15425949Y-10883801D01*
X15425949Y-10883802D01*
X15436198Y-10894051D01*
X15436199Y-10894051D01*
X15436199Y-10894051D01*
X15448751Y-10901298D01*
X15448751Y-10901298D01*
X15448751Y-10901298D01*
X15462752Y-10905050D01*
X15462753Y-10905050D01*
X15477247Y-10905050D01*
X15477247Y-10905050D01*
X15491248Y-10901298D01*
X15503801Y-10894051D01*
X15514051Y-10883802D01*
X15521298Y-10871249D01*
X15525050Y-10857248D01*
X15525050Y-10842753D01*
X15521298Y-10828752D01*
X15519824Y-10826199D01*
X15514051Y-10816199D01*
X15514051Y-10816198D01*
X15503802Y-10805949D01*
X15503801Y-10805949D01*
X15491249Y-10798702D01*
X15491249Y-10798702D01*
X15490101Y-10798394D01*
X15477247Y-10794950D01*
X15462752Y-10794950D01*
X15449899Y-10798394D01*
X15448751Y-10798702D01*
X15436199Y-10805949D01*
X15436198Y-10805949D01*
X15425949Y-10816198D01*
X15425949Y-10816199D01*
X15418702Y-10828751D01*
X15418702Y-10828752D01*
X15414950Y-10842753D01*
X15192370Y-10842753D01*
X15191298Y-10838752D01*
X15190868Y-10838006D01*
X15184051Y-10826199D01*
X15184051Y-10826198D01*
X15173802Y-10815949D01*
X15173801Y-10815949D01*
X15161249Y-10808702D01*
X15161249Y-10808702D01*
X15159900Y-10808340D01*
X15147247Y-10804950D01*
X15132752Y-10804950D01*
X15120100Y-10808340D01*
X15118751Y-10808702D01*
X15106199Y-10815949D01*
X15106198Y-10815949D01*
X15095949Y-10826198D01*
X15095949Y-10826199D01*
X15088702Y-10838751D01*
X15088702Y-10838752D01*
X15084950Y-10852753D01*
X15084950Y-10852753D01*
X15084950Y-10867247D01*
X15087313Y-10876066D01*
X15087147Y-10883051D01*
X15084104Y-10888044D01*
X15075949Y-10896198D01*
X15075949Y-10896199D01*
X15068702Y-10908751D01*
X15068702Y-10908752D01*
X15064950Y-10922753D01*
X15064950Y-10937248D01*
X15068702Y-10951249D01*
X15068702Y-10951249D01*
X15070248Y-10953926D01*
X15071895Y-10960716D01*
X15069610Y-10967319D01*
X15064118Y-10971638D01*
X15057162Y-10972302D01*
X15054764Y-10971582D01*
X15041350Y-10966026D01*
X15041349Y-10966026D01*
X15025884Y-10962950D01*
X15025884Y-10962950D01*
X15010116Y-10962950D01*
X15010115Y-10962950D01*
X14994651Y-10966026D01*
X14994650Y-10966026D01*
X14980083Y-10972060D01*
X14980081Y-10972061D01*
X14966971Y-10980821D01*
X14966971Y-10980821D01*
X14955821Y-10991971D01*
X14955821Y-10991971D01*
X14947061Y-11005081D01*
X14947060Y-11005083D01*
X14941026Y-11019650D01*
X14941026Y-11019651D01*
X14937950Y-11035115D01*
X14937950Y-11108697D01*
X14935981Y-11115401D01*
X14930701Y-11119976D01*
X14923785Y-11120971D01*
X14917430Y-11118068D01*
X14916782Y-11117465D01*
X14907267Y-11107950D01*
X14907266Y-11107949D01*
X14895284Y-11101031D01*
X14895284Y-11101031D01*
X14895284Y-11101031D01*
X14881918Y-11097450D01*
X14868082Y-11097450D01*
X14854716Y-11101031D01*
X14854716Y-11101031D01*
X14842734Y-11107949D01*
X14842733Y-11107950D01*
X14832950Y-11117733D01*
X14832949Y-11117734D01*
X14826031Y-11129716D01*
X14826031Y-11129716D01*
X14822450Y-11143082D01*
X14349550Y-11143082D01*
X14345969Y-11129716D01*
X14339050Y-11117734D01*
X14329266Y-11107950D01*
X14329266Y-11107949D01*
X14329266Y-11107949D01*
X14317284Y-11101031D01*
X14317284Y-11101031D01*
X14317284Y-11101031D01*
X14303918Y-11097450D01*
X14290082Y-11097450D01*
X14276716Y-11101031D01*
X14276716Y-11101031D01*
X14264734Y-11107949D01*
X14264733Y-11107950D01*
X14255218Y-11117465D01*
X14249086Y-11120813D01*
X14242117Y-11120315D01*
X14236523Y-11116128D01*
X14234082Y-11109581D01*
X14234050Y-11108697D01*
X14234050Y-11035116D01*
X14234050Y-11035115D01*
X14230974Y-11019651D01*
X14230974Y-11019650D01*
X14230973Y-11019650D01*
X14224940Y-11005083D01*
X14224939Y-11005081D01*
X14216179Y-10991971D01*
X14216179Y-10991971D01*
X14205029Y-10980821D01*
X14205029Y-10980821D01*
X14191918Y-10972061D01*
X14191917Y-10972060D01*
X14178385Y-10966455D01*
X14172945Y-10962071D01*
X14170739Y-10955442D01*
X14170944Y-10952707D01*
X14171180Y-10951453D01*
X14171298Y-10951249D01*
X14175050Y-10937248D01*
X14175050Y-10932753D01*
X14505950Y-10932753D01*
X14505950Y-10947248D01*
X14508146Y-10955442D01*
X14509702Y-10961249D01*
X14516949Y-10973801D01*
X14516949Y-10973801D01*
X14516949Y-10973802D01*
X14527198Y-10984051D01*
X14527199Y-10984051D01*
X14527199Y-10984051D01*
X14539751Y-10991298D01*
X14539751Y-10991298D01*
X14539751Y-10991298D01*
X14553752Y-10995050D01*
X14553753Y-10995050D01*
X14568247Y-10995050D01*
X14568247Y-10995050D01*
X14582248Y-10991298D01*
X14594801Y-10984051D01*
X14605051Y-10973802D01*
X14609540Y-10966026D01*
X14610099Y-10965059D01*
X14615155Y-10960237D01*
X14622016Y-10958915D01*
X14628502Y-10961512D01*
X14631576Y-10965059D01*
X14633693Y-10968726D01*
X14643942Y-10978975D01*
X14643943Y-10978975D01*
X14643943Y-10978975D01*
X14656495Y-10986222D01*
X14656495Y-10986222D01*
X14656495Y-10986223D01*
X14670496Y-10989974D01*
X14670497Y-10989974D01*
X14684991Y-10989974D01*
X14684991Y-10989974D01*
X14698992Y-10986223D01*
X14711545Y-10978975D01*
X14721795Y-10968726D01*
X14729042Y-10956173D01*
X14732794Y-10942172D01*
X14732794Y-10927677D01*
X14732794Y-10927676D01*
X14732763Y-10927445D01*
X14732794Y-10927248D01*
X14732794Y-10926864D01*
X14732854Y-10926864D01*
X14733839Y-10920541D01*
X14738477Y-10915315D01*
X14745204Y-10913426D01*
X14748266Y-10913848D01*
X14752752Y-10915050D01*
X14752753Y-10915050D01*
X14767247Y-10915050D01*
X14767247Y-10915050D01*
X14781248Y-10911298D01*
X14793801Y-10904051D01*
X14804051Y-10893802D01*
X14811298Y-10881249D01*
X14813023Y-10874814D01*
X14816659Y-10868848D01*
X14822944Y-10865795D01*
X14829881Y-10866625D01*
X14835269Y-10871073D01*
X14836977Y-10874814D01*
X14838655Y-10881076D01*
X14838702Y-10881249D01*
X14845949Y-10893801D01*
X14845949Y-10893801D01*
X14845949Y-10893802D01*
X14856198Y-10904051D01*
X14856199Y-10904051D01*
X14856199Y-10904051D01*
X14868751Y-10911298D01*
X14868751Y-10911298D01*
X14868751Y-10911298D01*
X14882752Y-10915050D01*
X14882753Y-10915050D01*
X14897247Y-10915050D01*
X14897247Y-10915050D01*
X14911248Y-10911298D01*
X14923801Y-10904051D01*
X14934051Y-10893802D01*
X14941298Y-10881249D01*
X14945050Y-10867248D01*
X14945050Y-10852753D01*
X14941298Y-10838752D01*
X14936151Y-10829837D01*
X14934504Y-10823047D01*
X14936789Y-10816445D01*
X14942282Y-10812125D01*
X14949237Y-10811461D01*
X14950098Y-10811659D01*
X14962752Y-10815050D01*
X14962753Y-10815050D01*
X14977247Y-10815050D01*
X14977247Y-10815050D01*
X14991248Y-10811298D01*
X15003801Y-10804051D01*
X15014051Y-10793802D01*
X15021298Y-10781249D01*
X15025050Y-10767248D01*
X15025050Y-10752753D01*
X15021298Y-10738752D01*
X15014051Y-10726199D01*
X15003801Y-10715949D01*
X15003801Y-10715949D01*
X15003801Y-10715949D01*
X14991249Y-10708702D01*
X14991249Y-10708702D01*
X14990101Y-10708394D01*
X14977247Y-10704950D01*
X14962752Y-10704950D01*
X14949899Y-10708394D01*
X14948751Y-10708702D01*
X14936199Y-10715949D01*
X14936198Y-10715949D01*
X14925949Y-10726198D01*
X14925949Y-10726199D01*
X14918702Y-10738751D01*
X14918702Y-10738752D01*
X14914950Y-10752753D01*
X14914950Y-10767248D01*
X14918702Y-10781249D01*
X14923848Y-10790163D01*
X14925496Y-10796953D01*
X14923210Y-10803555D01*
X14917718Y-10807875D01*
X14910763Y-10808539D01*
X14909900Y-10808340D01*
X14900975Y-10805949D01*
X14897247Y-10804950D01*
X14882752Y-10804950D01*
X14870100Y-10808340D01*
X14868751Y-10808702D01*
X14856199Y-10815949D01*
X14856198Y-10815949D01*
X14845949Y-10826198D01*
X14845949Y-10826199D01*
X14838702Y-10838751D01*
X14838702Y-10838752D01*
X14836987Y-10845149D01*
X14836977Y-10845186D01*
X14833341Y-10851152D01*
X14827056Y-10854205D01*
X14820119Y-10853375D01*
X14814731Y-10848927D01*
X14813022Y-10845186D01*
X14811298Y-10838752D01*
X14810868Y-10838006D01*
X14804051Y-10826199D01*
X14804051Y-10826198D01*
X14793802Y-10815949D01*
X14793801Y-10815949D01*
X14781249Y-10808702D01*
X14781249Y-10808702D01*
X14779900Y-10808340D01*
X14767247Y-10804950D01*
X14752752Y-10804950D01*
X14740100Y-10808340D01*
X14738751Y-10808702D01*
X14726199Y-10815949D01*
X14726198Y-10815949D01*
X14715949Y-10826198D01*
X14715949Y-10826199D01*
X14708702Y-10838751D01*
X14708702Y-10838752D01*
X14704950Y-10852753D01*
X14704950Y-10852753D01*
X14704950Y-10867248D01*
X14704981Y-10867480D01*
X14704950Y-10867676D01*
X14704950Y-10868060D01*
X14704890Y-10868060D01*
X14703904Y-10874384D01*
X14699266Y-10879609D01*
X14692539Y-10881498D01*
X14689477Y-10881076D01*
X14688530Y-10880822D01*
X14684991Y-10879874D01*
X14670496Y-10879874D01*
X14658639Y-10883051D01*
X14656495Y-10883626D01*
X14643943Y-10890873D01*
X14643942Y-10890873D01*
X14633693Y-10901122D01*
X14633693Y-10901123D01*
X14628645Y-10909866D01*
X14623588Y-10914687D01*
X14616728Y-10916009D01*
X14610241Y-10913412D01*
X14607168Y-10909865D01*
X14605051Y-10906199D01*
X14594801Y-10895949D01*
X14594801Y-10895949D01*
X14594801Y-10895949D01*
X14582249Y-10888702D01*
X14582249Y-10888702D01*
X14579793Y-10888044D01*
X14568247Y-10884950D01*
X14553752Y-10884950D01*
X14542207Y-10888044D01*
X14539751Y-10888702D01*
X14527199Y-10895949D01*
X14527198Y-10895949D01*
X14516949Y-10906198D01*
X14516949Y-10906199D01*
X14509702Y-10918751D01*
X14509702Y-10918752D01*
X14505950Y-10932753D01*
X14175050Y-10932753D01*
X14175050Y-10930880D01*
X14175264Y-10929744D01*
X14176347Y-10927620D01*
X14177018Y-10925332D01*
X14177968Y-10924427D01*
X14178246Y-10923820D01*
X14178313Y-10923764D01*
X14178437Y-10923520D01*
X14179022Y-10923179D01*
X14180927Y-10921605D01*
X14181251Y-10921297D01*
X14193801Y-10914051D01*
X14204051Y-10903802D01*
X14211298Y-10891249D01*
X14215050Y-10877248D01*
X14215050Y-10862753D01*
X14211298Y-10848752D01*
X14208762Y-10844359D01*
X14204051Y-10836199D01*
X14204051Y-10836198D01*
X14193802Y-10825949D01*
X14193801Y-10825949D01*
X14181249Y-10818702D01*
X14181249Y-10818702D01*
X14180101Y-10818394D01*
X14167247Y-10814950D01*
X14152752Y-10814950D01*
X14139899Y-10818394D01*
X14138751Y-10818702D01*
X14126199Y-10825949D01*
X14126198Y-10825949D01*
X14115949Y-10836198D01*
X14115949Y-10836199D01*
X14108702Y-10848751D01*
X14108702Y-10848752D01*
X14104950Y-10862753D01*
X14104950Y-10862753D01*
X14104950Y-10867964D01*
X14102981Y-10874668D01*
X14098750Y-10878702D01*
X14086198Y-10885949D01*
X14086198Y-10885949D01*
X14075949Y-10896198D01*
X14075949Y-10896199D01*
X14068702Y-10908751D01*
X14068702Y-10908752D01*
X14064950Y-10922753D01*
X13419237Y-10922753D01*
X13420314Y-10921676D01*
X13424741Y-10915050D01*
X13428206Y-10909866D01*
X13430169Y-10906927D01*
X13436957Y-10890539D01*
X13438069Y-10884950D01*
X13439836Y-10876066D01*
X13440418Y-10873141D01*
X13440418Y-10855403D01*
X13440418Y-10855403D01*
X13440418Y-10855402D01*
X13438221Y-10844359D01*
X13437902Y-10842753D01*
X13824950Y-10842753D01*
X13824950Y-10857248D01*
X13827847Y-10868060D01*
X13828702Y-10871249D01*
X13835949Y-10883801D01*
X13835949Y-10883801D01*
X13835949Y-10883802D01*
X13846198Y-10894051D01*
X13846199Y-10894051D01*
X13846199Y-10894051D01*
X13858751Y-10901298D01*
X13858751Y-10901298D01*
X13858751Y-10901298D01*
X13872752Y-10905050D01*
X13872753Y-10905050D01*
X13887247Y-10905050D01*
X13887247Y-10905050D01*
X13901248Y-10901298D01*
X13913801Y-10894051D01*
X13924051Y-10883802D01*
X13931298Y-10871249D01*
X13935050Y-10857248D01*
X13935050Y-10842753D01*
X13931298Y-10828752D01*
X13929824Y-10826199D01*
X13924051Y-10816199D01*
X13924051Y-10816198D01*
X13913802Y-10805949D01*
X13913801Y-10805949D01*
X13901249Y-10798702D01*
X13901249Y-10798702D01*
X13900101Y-10798394D01*
X13887247Y-10794950D01*
X13872752Y-10794950D01*
X13859899Y-10798394D01*
X13858751Y-10798702D01*
X13846199Y-10805949D01*
X13846198Y-10805949D01*
X13835949Y-10816198D01*
X13835949Y-10816199D01*
X13828702Y-10828751D01*
X13828702Y-10828752D01*
X13824950Y-10842753D01*
X13437902Y-10842753D01*
X13436957Y-10838006D01*
X13436957Y-10838005D01*
X13431964Y-10825949D01*
X13430170Y-10821618D01*
X13430169Y-10821617D01*
X13420314Y-10806869D01*
X13420314Y-10806868D01*
X13407772Y-10794326D01*
X13407771Y-10794326D01*
X13393023Y-10784471D01*
X13393022Y-10784470D01*
X13376635Y-10777683D01*
X13376634Y-10777682D01*
X13359237Y-10774222D01*
X13359237Y-10774222D01*
X13261499Y-10774222D01*
X13261499Y-10774222D01*
X13244102Y-10777682D01*
X13244101Y-10777683D01*
X13227714Y-10784470D01*
X13227713Y-10784471D01*
X13219707Y-10789820D01*
X13213039Y-10791908D01*
X13206301Y-10790060D01*
X13201632Y-10784862D01*
X13200418Y-10779510D01*
X13200418Y-10752753D01*
X14294950Y-10752753D01*
X14294950Y-10767248D01*
X14298236Y-10779510D01*
X14298702Y-10781249D01*
X14305949Y-10793801D01*
X14305949Y-10793801D01*
X14305949Y-10793802D01*
X14316198Y-10804051D01*
X14316199Y-10804051D01*
X14316199Y-10804051D01*
X14328751Y-10811298D01*
X14328751Y-10811298D01*
X14328751Y-10811298D01*
X14342752Y-10815050D01*
X14342753Y-10815050D01*
X14357247Y-10815050D01*
X14357247Y-10815050D01*
X14371248Y-10811298D01*
X14383801Y-10804051D01*
X14394051Y-10793802D01*
X14401298Y-10781249D01*
X14405050Y-10767248D01*
X14405050Y-10752753D01*
X14401298Y-10738752D01*
X14394051Y-10726199D01*
X14383801Y-10715949D01*
X14383801Y-10715949D01*
X14383801Y-10715949D01*
X14371249Y-10708702D01*
X14371249Y-10708702D01*
X14370101Y-10708394D01*
X14357247Y-10704950D01*
X14342752Y-10704950D01*
X14329899Y-10708394D01*
X14328751Y-10708702D01*
X14316199Y-10715949D01*
X14316198Y-10715949D01*
X14305949Y-10726198D01*
X14305949Y-10726199D01*
X14298702Y-10738751D01*
X14298702Y-10738752D01*
X14294950Y-10752753D01*
X13200418Y-10752753D01*
X13200418Y-10695034D01*
X13202386Y-10688330D01*
X13207667Y-10683755D01*
X13214583Y-10682760D01*
X13219707Y-10684724D01*
X13227713Y-10690073D01*
X13227713Y-10690073D01*
X13227714Y-10690074D01*
X13239689Y-10695034D01*
X13244101Y-10696861D01*
X13244102Y-10696861D01*
X13244102Y-10696862D01*
X13261498Y-10700322D01*
X13261499Y-10700322D01*
X13261499Y-10700322D01*
X13359237Y-10700322D01*
X13359237Y-10700322D01*
X13365036Y-10699168D01*
X13376634Y-10696862D01*
X13376634Y-10696861D01*
X13376635Y-10696861D01*
X13393023Y-10690073D01*
X13407771Y-10680218D01*
X13420314Y-10667676D01*
X13430169Y-10652927D01*
X13436957Y-10636539D01*
X13438000Y-10631298D01*
X13440418Y-10619142D01*
X13440418Y-10619141D01*
X13440418Y-10612753D01*
X14334950Y-10612753D01*
X14334950Y-10627248D01*
X14337439Y-10636538D01*
X14338702Y-10641249D01*
X14345949Y-10653801D01*
X14345949Y-10653801D01*
X14345949Y-10653802D01*
X14356198Y-10664051D01*
X14356199Y-10664051D01*
X14356199Y-10664051D01*
X14368751Y-10671298D01*
X14368751Y-10671298D01*
X14368751Y-10671298D01*
X14382752Y-10675050D01*
X14382753Y-10675050D01*
X14397247Y-10675050D01*
X14397247Y-10675050D01*
X14411248Y-10671298D01*
X14423801Y-10664051D01*
X14425100Y-10662753D01*
X15564950Y-10662753D01*
X15564950Y-10677248D01*
X15568387Y-10690073D01*
X15568702Y-10691249D01*
X15575949Y-10703801D01*
X15575949Y-10703801D01*
X15575949Y-10703802D01*
X15586198Y-10714051D01*
X15586199Y-10714051D01*
X15586199Y-10714051D01*
X15598751Y-10721298D01*
X15598751Y-10721298D01*
X15598751Y-10721298D01*
X15612752Y-10725050D01*
X15612753Y-10725050D01*
X15627247Y-10725050D01*
X15627247Y-10725050D01*
X15641248Y-10721298D01*
X15653801Y-10714051D01*
X15664051Y-10703802D01*
X15671298Y-10691249D01*
X15675050Y-10677248D01*
X15675050Y-10662753D01*
X15671298Y-10648752D01*
X15666966Y-10641249D01*
X15664051Y-10636199D01*
X15664051Y-10636198D01*
X15653802Y-10625949D01*
X15653801Y-10625949D01*
X15641249Y-10618702D01*
X15641249Y-10618702D01*
X15640101Y-10618394D01*
X15627247Y-10614950D01*
X15612752Y-10614950D01*
X15599899Y-10618394D01*
X15598751Y-10618702D01*
X15586199Y-10625949D01*
X15586198Y-10625949D01*
X15575949Y-10636198D01*
X15575949Y-10636199D01*
X15568702Y-10648751D01*
X15568702Y-10648752D01*
X15564950Y-10662753D01*
X14425100Y-10662753D01*
X14434051Y-10653802D01*
X14441298Y-10641249D01*
X14445050Y-10627248D01*
X14445050Y-10612753D01*
X14441298Y-10598752D01*
X14434656Y-10587248D01*
X14434051Y-10586199D01*
X14434051Y-10586198D01*
X14431345Y-10583493D01*
X14427997Y-10577361D01*
X14428326Y-10572753D01*
X14884950Y-10572753D01*
X14884950Y-10587248D01*
X14888702Y-10601249D01*
X14888702Y-10601249D01*
X14895949Y-10613801D01*
X14895949Y-10613801D01*
X14895949Y-10613802D01*
X14906198Y-10624051D01*
X14906199Y-10624051D01*
X14906199Y-10624051D01*
X14918751Y-10631298D01*
X14918751Y-10631298D01*
X14918751Y-10631298D01*
X14932752Y-10635050D01*
X14932753Y-10635050D01*
X14947247Y-10635050D01*
X14947247Y-10635050D01*
X14961248Y-10631298D01*
X14973801Y-10624051D01*
X14984051Y-10613802D01*
X14991298Y-10601249D01*
X14995050Y-10587248D01*
X14995050Y-10572753D01*
X14994489Y-10570659D01*
X14994655Y-10563674D01*
X14998572Y-10557888D01*
X15004994Y-10555138D01*
X15006467Y-10555050D01*
X15017247Y-10555050D01*
X15017247Y-10555050D01*
X15031248Y-10551298D01*
X15043801Y-10544051D01*
X15054051Y-10533802D01*
X15061298Y-10521249D01*
X15063023Y-10514814D01*
X15066659Y-10508848D01*
X15072944Y-10505795D01*
X15079881Y-10506625D01*
X15085269Y-10511073D01*
X15086977Y-10514814D01*
X15088702Y-10521249D01*
X15088702Y-10521249D01*
X15095949Y-10533801D01*
X15095949Y-10533801D01*
X15095949Y-10533802D01*
X15106198Y-10544051D01*
X15106199Y-10544051D01*
X15106199Y-10544051D01*
X15118751Y-10551298D01*
X15118751Y-10551298D01*
X15118751Y-10551298D01*
X15132752Y-10555050D01*
X15132753Y-10555050D01*
X15147247Y-10555050D01*
X15147247Y-10555050D01*
X15161248Y-10551298D01*
X15173801Y-10544051D01*
X15184051Y-10533802D01*
X15191298Y-10521249D01*
X15195050Y-10507248D01*
X15195050Y-10492753D01*
X15191298Y-10478752D01*
X15189824Y-10476199D01*
X15184051Y-10466199D01*
X15184051Y-10466198D01*
X15173802Y-10455949D01*
X15173801Y-10455949D01*
X15161249Y-10448702D01*
X15161249Y-10448702D01*
X15160101Y-10448394D01*
X15147247Y-10444950D01*
X15132752Y-10444950D01*
X15119899Y-10448394D01*
X15118751Y-10448702D01*
X15106199Y-10455949D01*
X15106198Y-10455949D01*
X15095949Y-10466198D01*
X15095949Y-10466199D01*
X15088702Y-10478751D01*
X15086977Y-10485186D01*
X15083341Y-10491152D01*
X15077056Y-10494205D01*
X15070119Y-10493375D01*
X15064731Y-10488927D01*
X15063022Y-10485186D01*
X15061298Y-10478752D01*
X15059824Y-10476199D01*
X15054051Y-10466199D01*
X15054051Y-10466198D01*
X15043802Y-10455949D01*
X15043801Y-10455949D01*
X15031249Y-10448702D01*
X15031249Y-10448702D01*
X15030101Y-10448394D01*
X15017247Y-10444950D01*
X15002752Y-10444950D01*
X14989899Y-10448394D01*
X14988751Y-10448702D01*
X14976199Y-10455949D01*
X14976198Y-10455949D01*
X14965949Y-10466198D01*
X14965949Y-10466199D01*
X14958702Y-10478751D01*
X14958702Y-10478752D01*
X14954950Y-10492753D01*
X14954950Y-10507248D01*
X14955511Y-10509341D01*
X14955345Y-10516326D01*
X14951428Y-10522112D01*
X14945005Y-10524862D01*
X14943533Y-10524950D01*
X14932752Y-10524950D01*
X14919899Y-10528394D01*
X14918751Y-10528702D01*
X14906199Y-10535949D01*
X14906198Y-10535949D01*
X14895949Y-10546198D01*
X14895949Y-10546199D01*
X14888702Y-10558751D01*
X14888702Y-10558752D01*
X14884950Y-10572753D01*
X14428326Y-10572753D01*
X14428495Y-10570392D01*
X14432682Y-10564798D01*
X14433715Y-10564117D01*
X14433801Y-10564051D01*
X14433801Y-10564051D01*
X14444051Y-10553802D01*
X14451298Y-10541249D01*
X14455050Y-10527248D01*
X14455050Y-10512753D01*
X14452370Y-10502753D01*
X14654950Y-10502753D01*
X14654950Y-10517248D01*
X14658702Y-10531249D01*
X14658702Y-10531249D01*
X14665949Y-10543801D01*
X14665949Y-10543801D01*
X14665949Y-10543802D01*
X14676198Y-10554051D01*
X14676199Y-10554051D01*
X14676199Y-10554051D01*
X14688751Y-10561298D01*
X14688751Y-10561298D01*
X14688751Y-10561298D01*
X14702752Y-10565050D01*
X14702753Y-10565050D01*
X14717247Y-10565050D01*
X14717247Y-10565050D01*
X14731248Y-10561298D01*
X14731417Y-10561201D01*
X14731417Y-10561201D01*
X14735660Y-10558751D01*
X14743801Y-10554051D01*
X14754051Y-10543802D01*
X14761298Y-10531249D01*
X14765050Y-10517248D01*
X14765050Y-10502753D01*
X14761298Y-10488752D01*
X14759824Y-10486199D01*
X14754051Y-10476199D01*
X14754051Y-10476198D01*
X14743802Y-10465949D01*
X14743801Y-10465949D01*
X14731249Y-10458702D01*
X14731249Y-10458702D01*
X14730101Y-10458394D01*
X14717247Y-10454950D01*
X14702752Y-10454950D01*
X14689899Y-10458394D01*
X14688751Y-10458702D01*
X14676199Y-10465949D01*
X14676198Y-10465949D01*
X14665949Y-10476198D01*
X14665949Y-10476199D01*
X14658702Y-10488751D01*
X14658702Y-10488752D01*
X14654950Y-10502753D01*
X14452370Y-10502753D01*
X14451298Y-10498752D01*
X14445525Y-10488751D01*
X14444051Y-10486199D01*
X14444051Y-10486198D01*
X14433802Y-10475949D01*
X14433801Y-10475949D01*
X14421249Y-10468702D01*
X14421249Y-10468702D01*
X14420101Y-10468394D01*
X14407247Y-10464950D01*
X14392752Y-10464950D01*
X14379899Y-10468394D01*
X14378751Y-10468702D01*
X14366199Y-10475949D01*
X14366198Y-10475949D01*
X14355949Y-10486198D01*
X14355949Y-10486199D01*
X14348702Y-10498751D01*
X14348702Y-10498752D01*
X14344950Y-10512753D01*
X14344950Y-10527248D01*
X14347773Y-10537784D01*
X14348702Y-10541249D01*
X14355949Y-10553801D01*
X14355949Y-10553802D01*
X14358654Y-10556507D01*
X14362003Y-10562639D01*
X14361505Y-10569608D01*
X14357317Y-10575202D01*
X14356285Y-10575883D01*
X14356198Y-10575949D01*
X14345949Y-10586198D01*
X14345949Y-10586199D01*
X14338702Y-10598751D01*
X14338702Y-10598752D01*
X14334950Y-10612753D01*
X13440418Y-10612753D01*
X13440418Y-10601403D01*
X13440418Y-10601402D01*
X13436958Y-10584006D01*
X13436957Y-10584005D01*
X13436745Y-10583493D01*
X13433620Y-10575949D01*
X13430170Y-10567618D01*
X13430169Y-10567617D01*
X13420314Y-10552869D01*
X13420314Y-10552868D01*
X13407772Y-10540326D01*
X13407771Y-10540326D01*
X13393023Y-10530471D01*
X13393022Y-10530470D01*
X13376635Y-10523683D01*
X13376634Y-10523682D01*
X13359237Y-10520222D01*
X13359237Y-10520222D01*
X13261499Y-10520222D01*
X13261499Y-10520222D01*
X13244102Y-10523682D01*
X13244101Y-10523683D01*
X13227714Y-10530470D01*
X13227713Y-10530471D01*
X13219707Y-10535820D01*
X13213039Y-10537908D01*
X13206301Y-10536060D01*
X13201632Y-10530862D01*
X13200418Y-10525510D01*
X13200418Y-10441034D01*
X13202386Y-10434330D01*
X13207667Y-10429755D01*
X13214583Y-10428760D01*
X13219707Y-10430724D01*
X13227713Y-10436073D01*
X13227713Y-10436073D01*
X13227714Y-10436074D01*
X13239689Y-10441034D01*
X13244101Y-10442861D01*
X13244102Y-10442861D01*
X13244102Y-10442862D01*
X13261498Y-10446322D01*
X13261499Y-10446322D01*
X13261499Y-10446322D01*
X13359237Y-10446322D01*
X13359237Y-10446322D01*
X13366135Y-10444950D01*
X13376634Y-10442862D01*
X13376634Y-10442861D01*
X13376635Y-10442861D01*
X13393023Y-10436073D01*
X13407771Y-10426218D01*
X13420314Y-10413676D01*
X13430169Y-10398927D01*
X13436957Y-10382539D01*
X13440418Y-10365141D01*
X13440418Y-10347403D01*
X13440418Y-10347403D01*
X13440418Y-10347402D01*
X13436958Y-10330006D01*
X13436957Y-10330005D01*
X13430170Y-10313618D01*
X13430169Y-10313617D01*
X13420314Y-10298869D01*
X13420314Y-10298868D01*
X13407772Y-10286326D01*
X13407771Y-10286326D01*
X13393023Y-10276471D01*
X13393022Y-10276470D01*
X13376635Y-10269683D01*
X13376634Y-10269682D01*
X13359237Y-10266222D01*
X13359237Y-10266222D01*
X13261499Y-10266222D01*
X13261499Y-10266222D01*
X13244102Y-10269682D01*
X13244101Y-10269683D01*
X13227714Y-10276470D01*
X13227713Y-10276471D01*
X13219707Y-10281820D01*
X13213039Y-10283908D01*
X13206301Y-10282060D01*
X13201632Y-10276862D01*
X13200418Y-10271510D01*
X13200418Y-10187034D01*
X13202386Y-10180330D01*
X13207667Y-10175755D01*
X13214583Y-10174760D01*
X13219707Y-10176724D01*
X13227713Y-10182073D01*
X13227713Y-10182073D01*
X13227714Y-10182074D01*
X13239555Y-10186978D01*
X13244101Y-10188861D01*
X13244102Y-10188861D01*
X13244102Y-10188862D01*
X13261498Y-10192322D01*
X13261499Y-10192322D01*
X13261499Y-10192322D01*
X13359237Y-10192322D01*
X13359237Y-10192322D01*
X13365036Y-10191168D01*
X13376634Y-10188862D01*
X13376634Y-10188861D01*
X13376635Y-10188861D01*
X13393023Y-10182073D01*
X13407771Y-10172218D01*
X13420314Y-10159676D01*
X13430169Y-10144927D01*
X13436957Y-10128539D01*
X13437423Y-10126199D01*
X13438108Y-10122753D01*
X13884950Y-10122753D01*
X13884950Y-10137248D01*
X13888035Y-10148763D01*
X13888702Y-10151249D01*
X13895949Y-10163801D01*
X13895949Y-10163801D01*
X13895949Y-10163802D01*
X13906198Y-10174051D01*
X13906199Y-10174051D01*
X13906199Y-10174051D01*
X13918751Y-10181298D01*
X13918751Y-10181298D01*
X13918751Y-10181298D01*
X13932752Y-10185050D01*
X13932753Y-10185050D01*
X13947247Y-10185050D01*
X13947247Y-10185050D01*
X13961248Y-10181298D01*
X13973801Y-10174051D01*
X13984051Y-10163802D01*
X13991298Y-10151249D01*
X13995050Y-10137248D01*
X13995050Y-10122753D01*
X13991298Y-10108752D01*
X13991270Y-10108702D01*
X13984051Y-10096199D01*
X13984051Y-10096198D01*
X13973802Y-10085949D01*
X13973801Y-10085949D01*
X13968265Y-10082753D01*
X13968137Y-10082679D01*
X13961248Y-10078702D01*
X13947247Y-10074950D01*
X13932752Y-10074950D01*
X13919899Y-10078394D01*
X13918751Y-10078702D01*
X13906199Y-10085949D01*
X13906198Y-10085949D01*
X13895949Y-10096198D01*
X13895949Y-10096199D01*
X13888702Y-10108751D01*
X13888702Y-10108752D01*
X13884950Y-10122753D01*
X13438108Y-10122753D01*
X13438751Y-10119521D01*
X13438751Y-10119521D01*
X13440418Y-10111141D01*
X13440418Y-10093403D01*
X13440418Y-10093402D01*
X13436958Y-10076006D01*
X13436957Y-10076005D01*
X13435610Y-10072753D01*
X14084950Y-10072753D01*
X14084950Y-10087248D01*
X14088702Y-10101249D01*
X14088702Y-10101249D01*
X14095949Y-10113801D01*
X14095949Y-10113801D01*
X14095949Y-10113802D01*
X14106198Y-10124051D01*
X14106199Y-10124051D01*
X14106199Y-10124051D01*
X14118751Y-10131298D01*
X14118751Y-10131298D01*
X14118751Y-10131298D01*
X14127251Y-10133576D01*
X14133217Y-10137212D01*
X14136270Y-10143497D01*
X14136019Y-10148763D01*
X14134950Y-10152753D01*
X14134950Y-10167248D01*
X14138702Y-10181249D01*
X14138702Y-10181249D01*
X14145949Y-10193801D01*
X14145949Y-10193801D01*
X14145949Y-10193802D01*
X14156198Y-10204051D01*
X14162198Y-10207515D01*
X14167019Y-10212571D01*
X14168342Y-10219432D01*
X14167975Y-10221462D01*
X14164950Y-10232753D01*
X14164950Y-10247248D01*
X14168304Y-10259765D01*
X14168702Y-10261249D01*
X14175949Y-10273801D01*
X14175949Y-10273801D01*
X14175949Y-10273802D01*
X14186198Y-10284051D01*
X14186199Y-10284051D01*
X14186199Y-10284051D01*
X14198751Y-10291298D01*
X14198751Y-10291298D01*
X14198751Y-10291298D01*
X14212752Y-10295050D01*
X14212753Y-10295050D01*
X14227247Y-10295050D01*
X14227247Y-10295050D01*
X14241248Y-10291298D01*
X14253801Y-10284051D01*
X14264051Y-10273802D01*
X14271298Y-10261249D01*
X14275050Y-10247248D01*
X14275050Y-10232753D01*
X15214950Y-10232753D01*
X15214950Y-10247248D01*
X15218304Y-10259765D01*
X15218702Y-10261249D01*
X15225949Y-10273801D01*
X15225949Y-10273801D01*
X15225949Y-10273802D01*
X15236198Y-10284051D01*
X15236199Y-10284051D01*
X15236199Y-10284051D01*
X15248751Y-10291298D01*
X15248751Y-10291298D01*
X15248751Y-10291298D01*
X15262752Y-10295050D01*
X15262753Y-10295050D01*
X15277247Y-10295050D01*
X15277247Y-10295050D01*
X15291248Y-10291298D01*
X15303801Y-10284051D01*
X15314051Y-10273802D01*
X15321298Y-10261249D01*
X15325050Y-10247248D01*
X15325050Y-10232753D01*
X15354950Y-10232753D01*
X15354950Y-10247248D01*
X15358304Y-10259765D01*
X15358702Y-10261249D01*
X15365949Y-10273801D01*
X15365949Y-10273801D01*
X15365949Y-10273802D01*
X15376198Y-10284051D01*
X15376199Y-10284051D01*
X15376199Y-10284051D01*
X15388751Y-10291298D01*
X15388751Y-10291298D01*
X15388751Y-10291298D01*
X15402752Y-10295050D01*
X15402753Y-10295050D01*
X15417247Y-10295050D01*
X15417247Y-10295050D01*
X15431248Y-10291298D01*
X15443801Y-10284051D01*
X15454051Y-10273802D01*
X15461298Y-10261249D01*
X15465050Y-10247248D01*
X15465050Y-10232753D01*
X15461298Y-10218752D01*
X15457730Y-10212571D01*
X15454051Y-10206199D01*
X15454051Y-10206198D01*
X15443802Y-10195949D01*
X15443801Y-10195949D01*
X15431249Y-10188702D01*
X15431249Y-10188702D01*
X15430101Y-10188394D01*
X15417247Y-10184950D01*
X15402752Y-10184950D01*
X15389899Y-10188394D01*
X15388751Y-10188702D01*
X15376199Y-10195949D01*
X15376198Y-10195949D01*
X15365949Y-10206198D01*
X15365949Y-10206199D01*
X15358702Y-10218751D01*
X15358702Y-10218752D01*
X15354950Y-10232753D01*
X15325050Y-10232753D01*
X15321298Y-10218752D01*
X15317730Y-10212571D01*
X15314051Y-10206199D01*
X15314051Y-10206198D01*
X15303802Y-10195949D01*
X15303801Y-10195949D01*
X15291249Y-10188702D01*
X15291249Y-10188702D01*
X15290101Y-10188394D01*
X15277247Y-10184950D01*
X15262752Y-10184950D01*
X15249899Y-10188394D01*
X15248751Y-10188702D01*
X15236199Y-10195949D01*
X15236198Y-10195949D01*
X15225949Y-10206198D01*
X15225949Y-10206199D01*
X15218702Y-10218751D01*
X15218702Y-10218752D01*
X15214950Y-10232753D01*
X14275050Y-10232753D01*
X14271298Y-10218752D01*
X14267730Y-10212571D01*
X14264051Y-10206199D01*
X14264051Y-10206198D01*
X14253802Y-10195949D01*
X14253801Y-10195949D01*
X14247802Y-10192485D01*
X14242981Y-10187429D01*
X14241658Y-10180568D01*
X14242025Y-10178538D01*
X14245050Y-10167248D01*
X14245050Y-10152753D01*
X14241298Y-10138752D01*
X14240410Y-10137212D01*
X14234051Y-10126199D01*
X14234051Y-10126198D01*
X14223802Y-10115949D01*
X14223801Y-10115949D01*
X14211249Y-10108702D01*
X14211248Y-10108702D01*
X14202749Y-10106424D01*
X14196783Y-10102788D01*
X14193730Y-10096503D01*
X14193646Y-10092978D01*
X14193751Y-10092096D01*
X14195050Y-10087248D01*
X14195050Y-10082753D01*
X15404950Y-10082753D01*
X15404950Y-10097248D01*
X15408673Y-10111141D01*
X15408702Y-10111249D01*
X15415949Y-10123801D01*
X15415949Y-10123801D01*
X15415949Y-10123802D01*
X15426198Y-10134051D01*
X15426199Y-10134051D01*
X15426199Y-10134051D01*
X15438751Y-10141298D01*
X15438751Y-10141298D01*
X15438751Y-10141298D01*
X15452752Y-10145050D01*
X15452753Y-10145050D01*
X15467247Y-10145050D01*
X15467247Y-10145050D01*
X15481248Y-10141298D01*
X15493801Y-10134051D01*
X15504051Y-10123802D01*
X15511298Y-10111249D01*
X15515050Y-10097248D01*
X15515050Y-10082753D01*
X15511298Y-10068752D01*
X15508584Y-10064051D01*
X15504051Y-10056199D01*
X15504051Y-10056198D01*
X15493802Y-10045949D01*
X15493801Y-10045949D01*
X15481249Y-10038702D01*
X15481249Y-10038702D01*
X15480101Y-10038394D01*
X15467247Y-10034950D01*
X15452752Y-10034950D01*
X15439899Y-10038394D01*
X15438751Y-10038702D01*
X15426199Y-10045949D01*
X15426198Y-10045949D01*
X15415949Y-10056198D01*
X15415949Y-10056199D01*
X15408702Y-10068751D01*
X15408702Y-10068752D01*
X15404950Y-10082753D01*
X14195050Y-10082753D01*
X14195050Y-10072753D01*
X14191298Y-10058752D01*
X14189824Y-10056199D01*
X14184051Y-10046199D01*
X14184051Y-10046198D01*
X14173802Y-10035949D01*
X14173801Y-10035949D01*
X14161249Y-10028702D01*
X14161249Y-10028702D01*
X14160101Y-10028394D01*
X14147247Y-10024950D01*
X14132752Y-10024950D01*
X14119899Y-10028394D01*
X14118751Y-10028702D01*
X14106199Y-10035949D01*
X14106198Y-10035949D01*
X14095949Y-10046198D01*
X14095949Y-10046199D01*
X14088702Y-10058751D01*
X14088702Y-10058752D01*
X14084950Y-10072753D01*
X13435610Y-10072753D01*
X13430170Y-10059618D01*
X13430169Y-10059617D01*
X13420314Y-10044869D01*
X13420314Y-10044868D01*
X13407772Y-10032326D01*
X13407771Y-10032326D01*
X13393023Y-10022471D01*
X13393022Y-10022470D01*
X13376635Y-10015683D01*
X13376634Y-10015682D01*
X13361904Y-10012753D01*
X15524950Y-10012753D01*
X15524950Y-10027248D01*
X15527282Y-10035949D01*
X15528702Y-10041249D01*
X15535949Y-10053801D01*
X15535949Y-10053801D01*
X15535949Y-10053802D01*
X15546198Y-10064051D01*
X15546199Y-10064051D01*
X15546199Y-10064051D01*
X15558751Y-10071298D01*
X15558751Y-10071298D01*
X15558751Y-10071298D01*
X15572752Y-10075050D01*
X15572753Y-10075050D01*
X15587247Y-10075050D01*
X15587247Y-10075050D01*
X15601248Y-10071298D01*
X15613801Y-10064051D01*
X15624051Y-10053802D01*
X15631298Y-10041249D01*
X15635050Y-10027248D01*
X15635050Y-10012753D01*
X15631298Y-9998752D01*
X15624051Y-9986199D01*
X15613801Y-9975949D01*
X15613801Y-9975949D01*
X15613801Y-9975949D01*
X15601249Y-9968702D01*
X15601249Y-9968702D01*
X15600101Y-9968394D01*
X15587247Y-9964950D01*
X15572752Y-9964950D01*
X15559899Y-9968394D01*
X15558751Y-9968702D01*
X15546199Y-9975949D01*
X15546198Y-9975949D01*
X15535949Y-9986198D01*
X15535949Y-9986199D01*
X15528702Y-9998751D01*
X15528702Y-9998752D01*
X15524950Y-10012753D01*
X13361904Y-10012753D01*
X13359237Y-10012222D01*
X13359237Y-10012222D01*
X13261499Y-10012222D01*
X13261499Y-10012222D01*
X13244102Y-10015682D01*
X13244101Y-10015683D01*
X13227714Y-10022470D01*
X13227713Y-10022471D01*
X13219707Y-10027820D01*
X13213039Y-10029908D01*
X13206301Y-10028060D01*
X13201632Y-10022862D01*
X13200418Y-10017510D01*
X13200418Y-9933034D01*
X13202386Y-9926330D01*
X13207667Y-9921755D01*
X13214583Y-9920760D01*
X13219707Y-9922724D01*
X13227713Y-9928073D01*
X13227713Y-9928073D01*
X13227714Y-9928074D01*
X13239689Y-9933034D01*
X13244101Y-9934861D01*
X13244102Y-9934861D01*
X13244102Y-9934862D01*
X13261498Y-9938322D01*
X13261499Y-9938322D01*
X13261499Y-9938322D01*
X13359237Y-9938322D01*
X13359237Y-9938322D01*
X13365036Y-9937168D01*
X13376634Y-9934862D01*
X13376634Y-9934861D01*
X13376635Y-9934861D01*
X13393023Y-9928073D01*
X13407771Y-9918218D01*
X13420314Y-9905676D01*
X13430169Y-9890927D01*
X13436957Y-9874539D01*
X13437612Y-9871249D01*
X13440418Y-9857142D01*
X13440418Y-9857141D01*
X13440418Y-9852753D01*
X13864950Y-9852753D01*
X13864950Y-9867248D01*
X13866022Y-9871249D01*
X13868702Y-9881249D01*
X13875949Y-9893801D01*
X13875949Y-9893801D01*
X13875949Y-9893802D01*
X13886198Y-9904051D01*
X13886199Y-9904051D01*
X13886199Y-9904051D01*
X13898751Y-9911298D01*
X13898751Y-9911298D01*
X13898751Y-9911298D01*
X13912752Y-9915050D01*
X13912753Y-9915050D01*
X13927247Y-9915050D01*
X13927247Y-9915050D01*
X13941248Y-9911298D01*
X13953801Y-9904051D01*
X13964051Y-9893802D01*
X13971298Y-9881249D01*
X13975050Y-9867248D01*
X13975050Y-9852753D01*
X13972370Y-9842753D01*
X14944950Y-9842753D01*
X14944950Y-9857248D01*
X14948702Y-9871249D01*
X14948702Y-9871249D01*
X14955949Y-9883801D01*
X14955949Y-9883801D01*
X14955949Y-9883802D01*
X14966198Y-9894051D01*
X14966199Y-9894051D01*
X14966199Y-9894051D01*
X14978751Y-9901298D01*
X14978751Y-9901298D01*
X14978751Y-9901298D01*
X14992752Y-9905050D01*
X14992753Y-9905050D01*
X15007247Y-9905050D01*
X15007247Y-9905050D01*
X15021248Y-9901298D01*
X15033801Y-9894051D01*
X15044051Y-9883802D01*
X15051298Y-9871249D01*
X15055050Y-9857248D01*
X15055050Y-9842753D01*
X15051298Y-9828752D01*
X15049824Y-9826199D01*
X15044051Y-9816199D01*
X15044051Y-9816198D01*
X15033802Y-9805949D01*
X15033801Y-9805949D01*
X15021249Y-9798702D01*
X15021249Y-9798702D01*
X15020101Y-9798394D01*
X15007247Y-9794950D01*
X14992752Y-9794950D01*
X14979899Y-9798394D01*
X14978751Y-9798702D01*
X14966199Y-9805949D01*
X14966198Y-9805949D01*
X14955949Y-9816198D01*
X14955949Y-9816199D01*
X14948702Y-9828751D01*
X14948702Y-9828752D01*
X14944950Y-9842753D01*
X13972370Y-9842753D01*
X13971298Y-9838752D01*
X13965525Y-9828751D01*
X13964051Y-9826199D01*
X13964051Y-9826198D01*
X13953802Y-9815949D01*
X13953801Y-9815949D01*
X13941249Y-9808702D01*
X13941249Y-9808702D01*
X13940101Y-9808394D01*
X13927247Y-9804950D01*
X13912752Y-9804950D01*
X13899899Y-9808394D01*
X13898751Y-9808702D01*
X13886199Y-9815949D01*
X13886198Y-9815949D01*
X13875949Y-9826198D01*
X13875949Y-9826199D01*
X13868702Y-9838751D01*
X13868702Y-9838752D01*
X13864950Y-9852753D01*
X13440418Y-9852753D01*
X13440418Y-9839403D01*
X13440418Y-9839402D01*
X13436958Y-9822006D01*
X13436957Y-9822005D01*
X13430170Y-9805618D01*
X13430169Y-9805617D01*
X13420314Y-9790869D01*
X13420314Y-9790868D01*
X13407772Y-9778326D01*
X13407771Y-9778326D01*
X13393023Y-9768471D01*
X13393022Y-9768470D01*
X13376635Y-9761683D01*
X13376634Y-9761682D01*
X13359237Y-9758222D01*
X13359237Y-9758222D01*
X13261499Y-9758222D01*
X13261499Y-9758222D01*
X13244102Y-9761682D01*
X13244101Y-9761683D01*
X13227714Y-9768470D01*
X13227713Y-9768471D01*
X13219707Y-9773820D01*
X13213039Y-9775908D01*
X13206301Y-9774060D01*
X13201632Y-9768862D01*
X13200418Y-9763510D01*
X13200418Y-9722753D01*
X15554950Y-9722753D01*
X15554950Y-9737248D01*
X15558702Y-9751249D01*
X15558702Y-9751249D01*
X15565949Y-9763801D01*
X15565949Y-9763801D01*
X15565949Y-9763802D01*
X15576198Y-9774051D01*
X15576199Y-9774051D01*
X15576199Y-9774051D01*
X15588751Y-9781298D01*
X15588751Y-9781298D01*
X15588751Y-9781298D01*
X15602752Y-9785050D01*
X15602753Y-9785050D01*
X15617247Y-9785050D01*
X15617247Y-9785050D01*
X15631248Y-9781298D01*
X15643801Y-9774051D01*
X15654051Y-9763802D01*
X15661298Y-9751249D01*
X15665050Y-9737248D01*
X15665050Y-9722753D01*
X15661298Y-9708752D01*
X15654051Y-9696199D01*
X15643801Y-9685949D01*
X15643801Y-9685949D01*
X15643801Y-9685949D01*
X15631249Y-9678702D01*
X15631249Y-9678702D01*
X15630101Y-9678394D01*
X15617247Y-9674950D01*
X15602752Y-9674950D01*
X15589899Y-9678394D01*
X15588751Y-9678702D01*
X15576199Y-9685949D01*
X15576198Y-9685949D01*
X15565949Y-9696198D01*
X15565949Y-9696199D01*
X15558702Y-9708751D01*
X15558702Y-9708752D01*
X15554950Y-9722753D01*
X13200418Y-9722753D01*
X13200418Y-9679034D01*
X13202386Y-9672330D01*
X13207667Y-9667755D01*
X13214583Y-9666760D01*
X13219707Y-9668724D01*
X13227713Y-9674073D01*
X13227713Y-9674073D01*
X13227714Y-9674074D01*
X13238887Y-9678702D01*
X13244101Y-9680861D01*
X13244102Y-9680861D01*
X13244102Y-9680862D01*
X13261498Y-9684322D01*
X13261499Y-9684322D01*
X13261499Y-9684322D01*
X13359237Y-9684322D01*
X13359237Y-9684322D01*
X13365036Y-9683168D01*
X13376634Y-9680862D01*
X13376634Y-9680861D01*
X13376635Y-9680861D01*
X13393023Y-9674073D01*
X13407771Y-9664218D01*
X13420314Y-9651676D01*
X13430169Y-9636927D01*
X13436957Y-9620539D01*
X13440418Y-9603141D01*
X13440418Y-9585403D01*
X13440418Y-9585403D01*
X13440418Y-9585402D01*
X13438221Y-9574359D01*
X13437902Y-9572753D01*
X13714950Y-9572753D01*
X13714950Y-9587248D01*
X13718702Y-9601249D01*
X13718702Y-9601249D01*
X13725949Y-9613801D01*
X13725949Y-9613801D01*
X13725949Y-9613802D01*
X13736198Y-9624051D01*
X13736199Y-9624051D01*
X13736199Y-9624051D01*
X13748751Y-9631298D01*
X13748751Y-9631298D01*
X13748751Y-9631298D01*
X13762752Y-9635050D01*
X13762753Y-9635050D01*
X13777247Y-9635050D01*
X13777247Y-9635050D01*
X13791248Y-9631298D01*
X13803801Y-9624051D01*
X13814051Y-9613802D01*
X13821298Y-9601249D01*
X13825050Y-9587248D01*
X13825050Y-9572753D01*
X13821298Y-9558752D01*
X13821298Y-9558751D01*
X13820945Y-9558140D01*
X13820945Y-9558140D01*
X13820405Y-9557204D01*
X13817835Y-9552753D01*
X13874950Y-9552753D01*
X13874950Y-9567248D01*
X13878702Y-9581249D01*
X13878702Y-9581249D01*
X13885949Y-9593801D01*
X13885949Y-9593801D01*
X13885949Y-9593802D01*
X13896198Y-9604051D01*
X13896199Y-9604051D01*
X13896199Y-9604051D01*
X13908751Y-9611298D01*
X13908751Y-9611298D01*
X13908751Y-9611298D01*
X13922752Y-9615050D01*
X13922753Y-9615050D01*
X13937247Y-9615050D01*
X13937247Y-9615050D01*
X13951248Y-9611298D01*
X13963801Y-9604051D01*
X13974051Y-9593802D01*
X13981298Y-9581249D01*
X13985050Y-9567248D01*
X13985050Y-9552753D01*
X13981298Y-9538752D01*
X13980211Y-9536869D01*
X13974051Y-9526199D01*
X13974051Y-9526198D01*
X13963802Y-9515949D01*
X13963801Y-9515949D01*
X13951249Y-9508702D01*
X13951249Y-9508702D01*
X13950101Y-9508394D01*
X13937247Y-9504950D01*
X13922752Y-9504950D01*
X13909899Y-9508394D01*
X13908751Y-9508702D01*
X13896199Y-9515949D01*
X13896198Y-9515949D01*
X13885949Y-9526198D01*
X13885949Y-9526199D01*
X13878702Y-9538751D01*
X13878702Y-9538752D01*
X13874950Y-9552753D01*
X13817835Y-9552753D01*
X13814051Y-9546199D01*
X13803801Y-9535949D01*
X13803801Y-9535949D01*
X13803801Y-9535949D01*
X13791249Y-9528702D01*
X13791249Y-9528702D01*
X13790101Y-9528394D01*
X13777247Y-9524950D01*
X13762752Y-9524950D01*
X13749899Y-9528394D01*
X13748751Y-9528702D01*
X13736199Y-9535949D01*
X13736198Y-9535949D01*
X13725949Y-9546198D01*
X13725949Y-9546199D01*
X13718702Y-9558751D01*
X13718702Y-9558752D01*
X13714950Y-9572753D01*
X13437902Y-9572753D01*
X13436957Y-9568006D01*
X13436957Y-9568005D01*
X13430640Y-9552753D01*
X13430170Y-9551618D01*
X13430169Y-9551617D01*
X13420314Y-9536869D01*
X13420314Y-9536868D01*
X13407772Y-9524326D01*
X13407771Y-9524326D01*
X13393023Y-9514471D01*
X13393022Y-9514470D01*
X13376635Y-9507683D01*
X13376634Y-9507682D01*
X13359237Y-9504222D01*
X13359237Y-9504222D01*
X13261499Y-9504222D01*
X13261499Y-9504222D01*
X13244102Y-9507682D01*
X13244101Y-9507683D01*
X13227714Y-9514470D01*
X13227713Y-9514471D01*
X13219707Y-9519820D01*
X13213039Y-9521908D01*
X13206301Y-9520060D01*
X13201632Y-9514862D01*
X13200418Y-9509510D01*
X13200418Y-9425034D01*
X13202386Y-9418330D01*
X13207667Y-9413755D01*
X13214583Y-9412760D01*
X13219707Y-9414724D01*
X13227713Y-9420073D01*
X13227713Y-9420073D01*
X13227714Y-9420074D01*
X13239689Y-9425034D01*
X13244101Y-9426861D01*
X13244102Y-9426861D01*
X13244102Y-9426862D01*
X13261498Y-9430322D01*
X13261499Y-9430322D01*
X13261499Y-9430322D01*
X13359237Y-9430322D01*
X13359237Y-9430322D01*
X13365036Y-9429168D01*
X13376634Y-9426862D01*
X13376634Y-9426861D01*
X13376635Y-9426861D01*
X13393023Y-9420073D01*
X13407771Y-9410218D01*
X13415237Y-9402753D01*
X13694950Y-9402753D01*
X13694950Y-9417248D01*
X13698702Y-9431249D01*
X13698702Y-9431249D01*
X13705949Y-9443801D01*
X13705949Y-9443801D01*
X13705949Y-9443802D01*
X13716198Y-9454051D01*
X13716199Y-9454051D01*
X13716199Y-9454051D01*
X13728751Y-9461298D01*
X13728751Y-9461298D01*
X13728751Y-9461298D01*
X13742752Y-9465050D01*
X13742753Y-9465050D01*
X13757247Y-9465050D01*
X13757247Y-9465050D01*
X13771248Y-9461298D01*
X13783801Y-9454051D01*
X13794051Y-9443802D01*
X13801298Y-9431249D01*
X13803575Y-9422753D01*
X15114950Y-9422753D01*
X15114950Y-9437248D01*
X15118702Y-9451249D01*
X15118702Y-9451249D01*
X15125949Y-9463801D01*
X15125949Y-9463801D01*
X15125949Y-9463802D01*
X15136198Y-9474051D01*
X15136199Y-9474051D01*
X15136199Y-9474051D01*
X15148751Y-9481298D01*
X15148751Y-9481298D01*
X15148751Y-9481298D01*
X15162752Y-9485050D01*
X15162753Y-9485050D01*
X15177247Y-9485050D01*
X15177247Y-9485050D01*
X15191248Y-9481298D01*
X15203801Y-9474051D01*
X15214051Y-9463802D01*
X15214656Y-9462753D01*
X15554950Y-9462753D01*
X15554950Y-9477248D01*
X15557041Y-9485050D01*
X15558702Y-9491249D01*
X15565949Y-9503801D01*
X15565949Y-9503801D01*
X15565949Y-9503802D01*
X15576198Y-9514051D01*
X15576199Y-9514051D01*
X15576199Y-9514051D01*
X15588751Y-9521298D01*
X15588751Y-9521298D01*
X15588751Y-9521298D01*
X15602752Y-9525050D01*
X15602753Y-9525050D01*
X15617247Y-9525050D01*
X15617247Y-9525050D01*
X15631248Y-9521298D01*
X15643801Y-9514051D01*
X15654051Y-9503802D01*
X15661298Y-9491249D01*
X15665050Y-9477248D01*
X15665050Y-9462753D01*
X15661298Y-9448752D01*
X15659161Y-9445050D01*
X15654051Y-9436199D01*
X15654051Y-9436198D01*
X15643802Y-9425949D01*
X15643801Y-9425949D01*
X15631249Y-9418702D01*
X15631249Y-9418702D01*
X15629862Y-9418330D01*
X15617247Y-9414950D01*
X15602752Y-9414950D01*
X15590138Y-9418330D01*
X15588751Y-9418702D01*
X15576199Y-9425949D01*
X15576198Y-9425949D01*
X15565949Y-9436198D01*
X15565949Y-9436199D01*
X15558702Y-9448751D01*
X15558702Y-9448752D01*
X15554950Y-9462753D01*
X15214656Y-9462753D01*
X15221298Y-9451249D01*
X15225050Y-9437248D01*
X15225050Y-9433787D01*
X15227018Y-9427083D01*
X15232299Y-9422508D01*
X15239215Y-9421513D01*
X15240657Y-9421809D01*
X15252752Y-9425050D01*
X15252753Y-9425050D01*
X15267247Y-9425050D01*
X15267247Y-9425050D01*
X15281248Y-9421298D01*
X15293801Y-9414051D01*
X15304051Y-9403802D01*
X15311298Y-9391249D01*
X15313575Y-9382753D01*
X15374950Y-9382753D01*
X15374950Y-9397248D01*
X15378179Y-9409297D01*
X15378702Y-9411249D01*
X15385949Y-9423801D01*
X15385949Y-9423801D01*
X15385949Y-9423802D01*
X15396198Y-9434051D01*
X15396199Y-9434051D01*
X15396199Y-9434051D01*
X15408751Y-9441298D01*
X15408751Y-9441298D01*
X15408751Y-9441298D01*
X15422752Y-9445050D01*
X15422753Y-9445050D01*
X15437247Y-9445050D01*
X15437247Y-9445050D01*
X15451248Y-9441298D01*
X15463801Y-9434051D01*
X15474051Y-9423802D01*
X15481298Y-9411249D01*
X15485050Y-9397248D01*
X15485050Y-9382753D01*
X15481298Y-9368752D01*
X15480021Y-9366539D01*
X15474051Y-9356199D01*
X15474051Y-9356198D01*
X15463802Y-9345949D01*
X15463801Y-9345949D01*
X15451249Y-9338702D01*
X15451249Y-9338702D01*
X15450101Y-9338394D01*
X15437247Y-9334950D01*
X15422752Y-9334950D01*
X15409899Y-9338394D01*
X15408751Y-9338702D01*
X15396199Y-9345949D01*
X15396198Y-9345949D01*
X15385949Y-9356198D01*
X15385949Y-9356199D01*
X15378702Y-9368751D01*
X15378702Y-9368752D01*
X15374950Y-9382753D01*
X15313575Y-9382753D01*
X15315050Y-9377248D01*
X15315050Y-9362753D01*
X15311298Y-9348752D01*
X15309680Y-9345949D01*
X15304051Y-9336199D01*
X15304051Y-9336198D01*
X15293802Y-9325949D01*
X15293801Y-9325949D01*
X15281249Y-9318702D01*
X15281249Y-9318702D01*
X15280101Y-9318394D01*
X15267247Y-9314950D01*
X15252752Y-9314950D01*
X15239899Y-9318394D01*
X15238751Y-9318702D01*
X15226199Y-9325949D01*
X15226198Y-9325949D01*
X15215949Y-9336198D01*
X15215949Y-9336199D01*
X15208702Y-9348751D01*
X15208597Y-9349142D01*
X15204950Y-9362753D01*
X15204950Y-9362753D01*
X15204950Y-9366213D01*
X15202981Y-9372917D01*
X15197701Y-9377492D01*
X15190785Y-9378487D01*
X15189341Y-9378190D01*
X15177247Y-9374950D01*
X15162752Y-9374950D01*
X15150659Y-9378190D01*
X15148751Y-9378702D01*
X15136199Y-9385949D01*
X15136198Y-9385949D01*
X15125949Y-9396198D01*
X15125949Y-9396199D01*
X15118702Y-9408751D01*
X15118702Y-9408752D01*
X15114950Y-9422753D01*
X13803575Y-9422753D01*
X13805050Y-9417248D01*
X13805050Y-9402753D01*
X13801298Y-9388752D01*
X13799680Y-9385949D01*
X13794051Y-9376199D01*
X13794051Y-9376198D01*
X13783802Y-9365949D01*
X13783801Y-9365949D01*
X13771249Y-9358702D01*
X13771249Y-9358702D01*
X13770101Y-9358394D01*
X13757247Y-9354950D01*
X13742752Y-9354950D01*
X13729899Y-9358394D01*
X13728751Y-9358702D01*
X13716199Y-9365949D01*
X13716198Y-9365949D01*
X13705949Y-9376198D01*
X13705949Y-9376199D01*
X13698702Y-9388751D01*
X13698702Y-9388752D01*
X13694950Y-9402753D01*
X13415237Y-9402753D01*
X13420314Y-9397676D01*
X13421301Y-9396198D01*
X13422068Y-9395051D01*
X13430169Y-9382927D01*
X13430169Y-9382927D01*
X13430169Y-9382927D01*
X13436957Y-9366539D01*
X13437075Y-9365949D01*
X13440418Y-9349142D01*
X13440418Y-9349141D01*
X13440418Y-9331403D01*
X13440418Y-9331402D01*
X13436958Y-9314006D01*
X13436957Y-9314005D01*
X13430170Y-9297618D01*
X13430169Y-9297617D01*
X13420314Y-9282869D01*
X13420314Y-9282868D01*
X13407772Y-9270326D01*
X13407771Y-9270326D01*
X13393023Y-9260471D01*
X13393022Y-9260470D01*
X13388014Y-9258396D01*
X13376635Y-9253683D01*
X13376634Y-9253682D01*
X13359237Y-9250222D01*
X13359237Y-9250222D01*
X13261499Y-9250222D01*
X13261499Y-9250222D01*
X13244102Y-9253682D01*
X13244101Y-9253683D01*
X13227714Y-9260470D01*
X13227713Y-9260471D01*
X13219707Y-9265820D01*
X13213039Y-9267908D01*
X13206301Y-9266060D01*
X13201632Y-9260862D01*
X13200418Y-9255510D01*
X13200418Y-9247753D01*
X15499950Y-9247753D01*
X15499950Y-9262248D01*
X15502115Y-9270326D01*
X15503702Y-9276249D01*
X15510949Y-9288801D01*
X15510949Y-9288801D01*
X15510949Y-9288802D01*
X15521198Y-9299051D01*
X15521199Y-9299051D01*
X15521199Y-9299051D01*
X15533751Y-9306298D01*
X15533751Y-9306298D01*
X15533751Y-9306298D01*
X15547752Y-9310050D01*
X15547753Y-9310050D01*
X15562247Y-9310050D01*
X15562247Y-9310050D01*
X15576248Y-9306298D01*
X15588801Y-9299051D01*
X15599051Y-9288802D01*
X15606298Y-9276249D01*
X15610050Y-9262248D01*
X15610050Y-9247753D01*
X15606298Y-9233752D01*
X15599051Y-9221199D01*
X15588801Y-9210949D01*
X15588801Y-9210949D01*
X15588801Y-9210949D01*
X15576249Y-9203702D01*
X15576249Y-9203702D01*
X15575101Y-9203394D01*
X15562247Y-9199950D01*
X15547752Y-9199950D01*
X15534899Y-9203394D01*
X15533751Y-9203702D01*
X15521199Y-9210949D01*
X15521198Y-9210949D01*
X15510949Y-9221198D01*
X15510949Y-9221199D01*
X15503702Y-9233751D01*
X15503702Y-9233752D01*
X15499950Y-9247753D01*
X13200418Y-9247753D01*
X13200418Y-9171034D01*
X13202386Y-9164330D01*
X13207667Y-9159755D01*
X13214583Y-9158760D01*
X13219707Y-9160724D01*
X13227713Y-9166073D01*
X13227713Y-9166073D01*
X13227714Y-9166074D01*
X13239689Y-9171034D01*
X13244101Y-9172861D01*
X13244102Y-9172861D01*
X13244102Y-9172862D01*
X13261498Y-9176322D01*
X13261499Y-9176322D01*
X13261499Y-9176322D01*
X13359237Y-9176322D01*
X13359237Y-9176322D01*
X13365036Y-9175168D01*
X13376634Y-9172862D01*
X13376634Y-9172861D01*
X13376635Y-9172861D01*
X13393023Y-9166073D01*
X13397993Y-9162753D01*
X14054950Y-9162753D01*
X14054950Y-9177248D01*
X14058702Y-9191249D01*
X14058702Y-9191249D01*
X14065949Y-9203801D01*
X14065949Y-9203801D01*
X14065949Y-9203802D01*
X14076198Y-9214051D01*
X14076199Y-9214051D01*
X14076199Y-9214051D01*
X14088751Y-9221298D01*
X14088751Y-9221298D01*
X14088751Y-9221298D01*
X14102752Y-9225050D01*
X14102753Y-9225050D01*
X14117247Y-9225050D01*
X14117247Y-9225050D01*
X14131248Y-9221298D01*
X14143801Y-9214051D01*
X14154051Y-9203802D01*
X14161298Y-9191249D01*
X14165050Y-9177248D01*
X14165050Y-9162753D01*
X14161298Y-9148752D01*
X14158368Y-9143676D01*
X14154051Y-9136199D01*
X14154051Y-9136198D01*
X14143802Y-9125949D01*
X14143801Y-9125949D01*
X14131249Y-9118702D01*
X14131249Y-9118702D01*
X14130101Y-9118394D01*
X14117247Y-9114950D01*
X14102752Y-9114950D01*
X14089899Y-9118394D01*
X14088751Y-9118702D01*
X14076199Y-9125949D01*
X14076198Y-9125949D01*
X14065949Y-9136198D01*
X14065949Y-9136199D01*
X14058702Y-9148751D01*
X14058702Y-9148752D01*
X14054950Y-9162753D01*
X13397993Y-9162753D01*
X13407771Y-9156218D01*
X13407772Y-9156218D01*
X13410818Y-9153172D01*
X13420314Y-9143676D01*
X13420314Y-9143676D01*
X13430169Y-9128927D01*
X13436957Y-9112539D01*
X13440418Y-9095141D01*
X13440418Y-9077403D01*
X13440418Y-9077403D01*
X13440418Y-9077402D01*
X13436958Y-9060006D01*
X13436957Y-9060005D01*
X13430170Y-9043618D01*
X13430169Y-9043617D01*
X13420314Y-9028869D01*
X13420314Y-9028868D01*
X13407772Y-9016326D01*
X13407771Y-9016326D01*
X13402424Y-9012753D01*
X13964950Y-9012753D01*
X13964950Y-9027248D01*
X13965384Y-9028869D01*
X13968702Y-9041249D01*
X13975949Y-9053801D01*
X13975949Y-9053801D01*
X13975949Y-9053802D01*
X13986198Y-9064051D01*
X13986199Y-9064051D01*
X13986199Y-9064051D01*
X13998751Y-9071298D01*
X13998751Y-9071298D01*
X13998751Y-9071298D01*
X14012752Y-9075050D01*
X14012753Y-9075050D01*
X14027247Y-9075050D01*
X14027247Y-9075050D01*
X14041248Y-9071298D01*
X14053801Y-9064051D01*
X14064051Y-9053802D01*
X14071298Y-9041249D01*
X14075050Y-9027248D01*
X14075050Y-9012753D01*
X14071298Y-8998752D01*
X14064051Y-8986199D01*
X14053801Y-8975949D01*
X14053801Y-8975949D01*
X14053801Y-8975949D01*
X14041249Y-8968702D01*
X14041249Y-8968702D01*
X14040101Y-8968394D01*
X14027247Y-8964950D01*
X14012752Y-8964950D01*
X13999899Y-8968394D01*
X13998751Y-8968702D01*
X13986199Y-8975949D01*
X13986198Y-8975949D01*
X13975949Y-8986198D01*
X13975949Y-8986199D01*
X13968702Y-8998751D01*
X13968702Y-8998752D01*
X13964950Y-9012753D01*
X13402424Y-9012753D01*
X13393023Y-9006471D01*
X13393022Y-9006470D01*
X13376635Y-8999683D01*
X13376634Y-8999682D01*
X13359237Y-8996222D01*
X13359237Y-8996222D01*
X13261499Y-8996222D01*
X13261499Y-8996222D01*
X13244102Y-8999682D01*
X13244101Y-8999683D01*
X13227714Y-9006470D01*
X13227713Y-9006471D01*
X13219707Y-9011820D01*
X13213039Y-9013908D01*
X13206301Y-9012060D01*
X13201632Y-9006862D01*
X13200418Y-9001510D01*
X13200418Y-8917034D01*
X13202386Y-8910330D01*
X13207667Y-8905755D01*
X13214583Y-8904760D01*
X13219707Y-8906724D01*
X13227713Y-8912073D01*
X13227713Y-8912073D01*
X13227714Y-8912074D01*
X13239689Y-8917034D01*
X13244101Y-8918861D01*
X13244102Y-8918861D01*
X13244102Y-8918862D01*
X13261498Y-8922322D01*
X13261499Y-8922322D01*
X13261499Y-8922322D01*
X13359237Y-8922322D01*
X13359237Y-8922322D01*
X13365036Y-8921168D01*
X13376634Y-8918862D01*
X13376634Y-8918861D01*
X13376635Y-8918861D01*
X13393023Y-8912073D01*
X13406972Y-8902753D01*
X13664950Y-8902753D01*
X13664950Y-8917248D01*
X13668702Y-8931249D01*
X13668702Y-8931249D01*
X13675949Y-8943801D01*
X13675949Y-8943801D01*
X13675949Y-8943802D01*
X13686198Y-8954051D01*
X13686199Y-8954051D01*
X13686199Y-8954051D01*
X13698751Y-8961298D01*
X13698751Y-8961298D01*
X13698751Y-8961298D01*
X13712752Y-8965050D01*
X13712753Y-8965050D01*
X13727247Y-8965050D01*
X13727247Y-8965050D01*
X13741248Y-8961298D01*
X13753801Y-8954051D01*
X13764051Y-8943802D01*
X13771298Y-8931249D01*
X13775050Y-8917248D01*
X13775050Y-8902753D01*
X13771298Y-8888752D01*
X13764051Y-8876199D01*
X13753801Y-8865949D01*
X13753801Y-8865949D01*
X13753801Y-8865949D01*
X13741249Y-8858702D01*
X13741249Y-8858702D01*
X13740101Y-8858394D01*
X13727247Y-8854950D01*
X13712752Y-8854950D01*
X13699899Y-8858394D01*
X13698751Y-8858702D01*
X13686199Y-8865949D01*
X13686198Y-8865949D01*
X13675949Y-8876198D01*
X13675949Y-8876199D01*
X13668702Y-8888751D01*
X13668702Y-8888752D01*
X13664950Y-8902753D01*
X13406972Y-8902753D01*
X13407771Y-8902218D01*
X13407772Y-8902218D01*
X13416818Y-8893172D01*
X13420314Y-8889676D01*
X13420314Y-8889676D01*
X13430169Y-8874927D01*
X13436957Y-8858539D01*
X13440418Y-8841141D01*
X13440418Y-8823403D01*
X13440418Y-8823403D01*
X13440418Y-8823402D01*
X13436958Y-8806006D01*
X13436957Y-8806005D01*
X13430170Y-8789618D01*
X13430169Y-8789617D01*
X13420314Y-8774869D01*
X13420314Y-8774868D01*
X13407772Y-8762326D01*
X13407771Y-8762326D01*
X13393023Y-8752471D01*
X13393022Y-8752470D01*
X13376635Y-8745683D01*
X13376634Y-8745682D01*
X13368686Y-8744102D01*
X13368686Y-8744102D01*
X13359237Y-8742222D01*
X13359237Y-8742222D01*
X13261499Y-8742222D01*
X13261499Y-8742222D01*
X13244102Y-8745682D01*
X13244101Y-8745683D01*
X13227714Y-8752470D01*
X13227713Y-8752471D01*
X13219707Y-8757820D01*
X13213039Y-8759908D01*
X13206301Y-8758060D01*
X13201632Y-8752862D01*
X13200418Y-8747510D01*
X13200418Y-8732753D01*
X14084950Y-8732753D01*
X14084950Y-8747248D01*
X14087783Y-8757820D01*
X14088702Y-8761249D01*
X14095949Y-8773801D01*
X14095949Y-8773801D01*
X14095949Y-8773802D01*
X14106198Y-8784051D01*
X14106199Y-8784051D01*
X14106199Y-8784051D01*
X14118751Y-8791298D01*
X14118751Y-8791298D01*
X14118751Y-8791298D01*
X14132752Y-8795050D01*
X14132753Y-8795050D01*
X14147247Y-8795050D01*
X14147247Y-8795050D01*
X14161248Y-8791298D01*
X14173801Y-8784051D01*
X14184051Y-8773802D01*
X14191298Y-8761249D01*
X14195050Y-8747248D01*
X14195050Y-8732753D01*
X14191298Y-8718752D01*
X14188584Y-8714051D01*
X14184051Y-8706199D01*
X14184051Y-8706198D01*
X14173802Y-8695949D01*
X14173801Y-8695949D01*
X14161249Y-8688702D01*
X14161249Y-8688702D01*
X14160101Y-8688394D01*
X14147247Y-8684950D01*
X14132752Y-8684950D01*
X14119899Y-8688394D01*
X14118751Y-8688702D01*
X14106199Y-8695949D01*
X14106198Y-8695949D01*
X14095949Y-8706198D01*
X14095949Y-8706199D01*
X14088702Y-8718751D01*
X14088702Y-8718752D01*
X14084950Y-8732753D01*
X13200418Y-8732753D01*
X13200418Y-8663034D01*
X13202386Y-8656330D01*
X13207667Y-8651755D01*
X13214583Y-8650760D01*
X13219707Y-8652724D01*
X13227713Y-8658073D01*
X13227713Y-8658073D01*
X13227714Y-8658074D01*
X13239010Y-8662753D01*
X13244101Y-8664861D01*
X13244102Y-8664861D01*
X13244102Y-8664862D01*
X13261498Y-8668322D01*
X13261499Y-8668322D01*
X13261499Y-8668322D01*
X13359237Y-8668322D01*
X13359237Y-8668322D01*
X13365036Y-8667168D01*
X13376634Y-8664862D01*
X13376634Y-8664861D01*
X13376635Y-8664861D01*
X13393023Y-8658073D01*
X13407771Y-8648218D01*
X13420314Y-8635676D01*
X13430169Y-8620927D01*
X13433555Y-8612753D01*
X14464950Y-8612753D01*
X14464950Y-8627248D01*
X14468702Y-8641249D01*
X14468702Y-8641249D01*
X14475949Y-8653801D01*
X14475949Y-8653801D01*
X14475949Y-8653802D01*
X14486198Y-8664051D01*
X14486199Y-8664051D01*
X14486199Y-8664051D01*
X14498751Y-8671298D01*
X14498751Y-8671298D01*
X14498751Y-8671298D01*
X14512752Y-8675050D01*
X14514846Y-8675050D01*
X14521550Y-8677019D01*
X14526126Y-8682299D01*
X14526823Y-8684240D01*
X14528019Y-8688702D01*
X14528702Y-8691249D01*
X14535949Y-8703801D01*
X14535949Y-8703801D01*
X14535949Y-8703802D01*
X14546198Y-8714051D01*
X14546199Y-8714051D01*
X14546199Y-8714051D01*
X14558751Y-8721298D01*
X14558751Y-8721298D01*
X14558751Y-8721298D01*
X14572752Y-8725050D01*
X14572753Y-8725050D01*
X14587247Y-8725050D01*
X14587247Y-8725050D01*
X14601248Y-8721298D01*
X14613801Y-8714051D01*
X14624051Y-8703802D01*
X14631298Y-8691249D01*
X14635050Y-8677248D01*
X14635050Y-8662753D01*
X14631298Y-8648752D01*
X14630990Y-8648218D01*
X14624051Y-8636199D01*
X14624051Y-8636198D01*
X14613802Y-8625949D01*
X14613801Y-8625949D01*
X14601249Y-8618702D01*
X14601249Y-8618702D01*
X14600101Y-8618394D01*
X14587247Y-8614950D01*
X14587247Y-8614950D01*
X14585154Y-8614950D01*
X14578450Y-8612982D01*
X14573874Y-8607701D01*
X14573176Y-8605760D01*
X14571298Y-8598752D01*
X14564595Y-8587142D01*
X14564051Y-8586199D01*
X14564051Y-8586198D01*
X14553802Y-8575949D01*
X14553801Y-8575949D01*
X14541249Y-8568702D01*
X14541249Y-8568702D01*
X14540101Y-8568394D01*
X14527247Y-8564950D01*
X14512752Y-8564950D01*
X14499899Y-8568394D01*
X14498751Y-8568702D01*
X14486199Y-8575949D01*
X14486198Y-8575949D01*
X14475949Y-8586198D01*
X14475949Y-8586199D01*
X14468702Y-8598751D01*
X14468702Y-8598752D01*
X14464950Y-8612753D01*
X13433555Y-8612753D01*
X13436957Y-8604539D01*
X13438109Y-8598752D01*
X13440418Y-8587142D01*
X13440418Y-8587141D01*
X13440418Y-8569403D01*
X13440418Y-8569402D01*
X13436958Y-8552006D01*
X13436957Y-8552005D01*
X13430170Y-8535618D01*
X13430169Y-8535617D01*
X13420314Y-8520869D01*
X13420314Y-8520868D01*
X13407772Y-8508326D01*
X13407771Y-8508326D01*
X13393023Y-8498471D01*
X13393022Y-8498470D01*
X13376635Y-8491683D01*
X13376634Y-8491682D01*
X13359237Y-8488222D01*
X13359237Y-8488222D01*
X13261499Y-8488222D01*
X13261499Y-8488222D01*
X13244102Y-8491682D01*
X13244101Y-8491683D01*
X13227714Y-8498470D01*
X13227713Y-8498471D01*
X13219707Y-8503820D01*
X13213039Y-8505908D01*
X13206301Y-8504060D01*
X13201632Y-8498862D01*
X13200418Y-8493510D01*
X13200418Y-8409034D01*
X13202386Y-8402330D01*
X13207667Y-8397755D01*
X13214583Y-8396760D01*
X13219707Y-8398724D01*
X13227713Y-8404073D01*
X13227713Y-8404073D01*
X13227714Y-8404074D01*
X13239689Y-8409034D01*
X13244101Y-8410861D01*
X13244102Y-8410861D01*
X13244102Y-8410862D01*
X13261498Y-8414322D01*
X13261499Y-8414322D01*
X13261499Y-8414322D01*
X13359237Y-8414322D01*
X13359237Y-8414322D01*
X13365036Y-8413168D01*
X13376634Y-8410862D01*
X13376634Y-8410861D01*
X13376635Y-8410861D01*
X13393023Y-8404073D01*
X13407771Y-8394218D01*
X13420314Y-8381675D01*
X13430169Y-8366927D01*
X13436957Y-8350539D01*
X13440418Y-8333141D01*
X13440418Y-8315403D01*
X13440418Y-8315403D01*
X13440418Y-8315402D01*
X13436958Y-8298006D01*
X13436957Y-8298005D01*
X13430170Y-8281618D01*
X13430169Y-8281617D01*
X13420314Y-8266868D01*
X13420314Y-8266868D01*
X13407772Y-8254326D01*
X13407771Y-8254325D01*
X13393023Y-8244471D01*
X13393022Y-8244470D01*
X13376635Y-8237683D01*
X13376634Y-8237682D01*
X13359237Y-8234222D01*
X13359237Y-8234222D01*
X13261499Y-8234222D01*
X13261499Y-8234222D01*
X13244102Y-8237682D01*
X13244101Y-8237683D01*
X13227714Y-8244470D01*
X13227713Y-8244471D01*
X13219707Y-8249820D01*
X13213039Y-8251908D01*
X13206301Y-8250059D01*
X13201632Y-8244862D01*
X13200418Y-8239510D01*
X13200418Y-8155034D01*
X13202386Y-8148330D01*
X13207667Y-8143754D01*
X13214583Y-8142760D01*
X13219707Y-8144724D01*
X13227713Y-8150073D01*
X13227713Y-8150073D01*
X13227714Y-8150074D01*
X13239689Y-8155034D01*
X13244101Y-8156861D01*
X13244102Y-8156861D01*
X13244102Y-8156862D01*
X13261498Y-8160322D01*
X13261499Y-8160322D01*
X13261499Y-8160322D01*
X13359237Y-8160322D01*
X13359237Y-8160322D01*
X13365036Y-8159168D01*
X13376634Y-8156862D01*
X13376634Y-8156861D01*
X13376635Y-8156861D01*
X13393023Y-8150073D01*
X13407771Y-8140218D01*
X13420314Y-8127675D01*
X13430169Y-8112927D01*
X13434383Y-8102752D01*
X14314950Y-8102752D01*
X14314950Y-8117247D01*
X14317743Y-8127670D01*
X14318702Y-8131249D01*
X14325949Y-8143801D01*
X14325949Y-8143801D01*
X14325949Y-8143801D01*
X14336198Y-8154051D01*
X14336199Y-8154051D01*
X14336199Y-8154051D01*
X14348751Y-8161298D01*
X14348751Y-8161298D01*
X14348751Y-8161298D01*
X14362752Y-8165050D01*
X14362753Y-8165050D01*
X14377247Y-8165050D01*
X14377247Y-8165050D01*
X14391248Y-8161298D01*
X14403801Y-8154051D01*
X14414051Y-8143801D01*
X14421298Y-8131248D01*
X14425050Y-8117247D01*
X14425050Y-8102752D01*
X14454950Y-8102752D01*
X14454950Y-8117247D01*
X14457743Y-8127670D01*
X14458702Y-8131249D01*
X14465949Y-8143801D01*
X14465949Y-8143801D01*
X14465949Y-8143801D01*
X14476198Y-8154051D01*
X14476199Y-8154051D01*
X14476199Y-8154051D01*
X14488751Y-8161298D01*
X14488751Y-8161298D01*
X14488751Y-8161298D01*
X14502752Y-8165050D01*
X14502753Y-8165050D01*
X14517247Y-8165050D01*
X14517247Y-8165050D01*
X14531248Y-8161298D01*
X14543801Y-8154051D01*
X14554051Y-8143801D01*
X14561298Y-8131248D01*
X14565050Y-8117247D01*
X14565050Y-8102752D01*
X14561298Y-8088751D01*
X14555750Y-8079141D01*
X14554051Y-8076199D01*
X14554051Y-8076198D01*
X14543802Y-8065949D01*
X14543801Y-8065949D01*
X14531249Y-8058702D01*
X14531249Y-8058702D01*
X14530101Y-8058394D01*
X14517247Y-8054950D01*
X14502752Y-8054950D01*
X14489899Y-8058394D01*
X14488751Y-8058702D01*
X14476199Y-8065949D01*
X14476198Y-8065949D01*
X14465949Y-8076198D01*
X14465949Y-8076199D01*
X14458702Y-8088751D01*
X14458702Y-8088751D01*
X14454950Y-8102752D01*
X14425050Y-8102752D01*
X14421298Y-8088751D01*
X14415750Y-8079141D01*
X14414051Y-8076199D01*
X14414051Y-8076198D01*
X14403802Y-8065949D01*
X14403801Y-8065949D01*
X14391249Y-8058702D01*
X14391249Y-8058702D01*
X14390101Y-8058394D01*
X14377247Y-8054950D01*
X14362752Y-8054950D01*
X14349899Y-8058394D01*
X14348751Y-8058702D01*
X14336199Y-8065949D01*
X14336198Y-8065949D01*
X14325949Y-8076198D01*
X14325949Y-8076199D01*
X14318702Y-8088751D01*
X14318702Y-8088751D01*
X14314950Y-8102752D01*
X13434383Y-8102752D01*
X13436957Y-8096539D01*
X13438506Y-8088751D01*
X13440418Y-8079141D01*
X13440418Y-8079141D01*
X13440418Y-8061403D01*
X13440418Y-8061402D01*
X13436958Y-8044006D01*
X13436957Y-8044005D01*
X13430170Y-8027618D01*
X13430169Y-8027617D01*
X13420314Y-8012868D01*
X13420314Y-8012868D01*
X13407772Y-8000326D01*
X13407771Y-8000325D01*
X13393023Y-7990471D01*
X13393022Y-7990470D01*
X13376635Y-7983683D01*
X13376634Y-7983682D01*
X13359237Y-7980222D01*
X13359237Y-7980222D01*
X13261499Y-7980222D01*
X13261499Y-7980222D01*
X13244102Y-7983682D01*
X13244101Y-7983683D01*
X13227714Y-7990470D01*
X13227713Y-7990471D01*
X13219707Y-7995820D01*
X13213039Y-7997908D01*
X13206301Y-7996059D01*
X13201632Y-7990862D01*
X13200418Y-7985510D01*
X13200418Y-7942752D01*
X14144950Y-7942752D01*
X14144950Y-7957247D01*
X14148702Y-7971248D01*
X14148702Y-7971249D01*
X14155949Y-7983801D01*
X14155949Y-7983801D01*
X14155949Y-7983801D01*
X14166198Y-7994051D01*
X14166199Y-7994051D01*
X14166199Y-7994051D01*
X14178751Y-8001298D01*
X14178751Y-8001298D01*
X14178751Y-8001298D01*
X14192752Y-8005050D01*
X14192753Y-8005050D01*
X14207247Y-8005050D01*
X14207247Y-8005050D01*
X14221248Y-8001298D01*
X14233801Y-7994051D01*
X14244051Y-7983801D01*
X14251298Y-7971248D01*
X14255050Y-7957247D01*
X14255050Y-7942752D01*
X14614950Y-7942752D01*
X14614950Y-7957247D01*
X14618702Y-7971248D01*
X14618702Y-7971249D01*
X14625949Y-7983801D01*
X14625949Y-7983801D01*
X14625949Y-7983801D01*
X14636198Y-7994051D01*
X14636199Y-7994051D01*
X14636199Y-7994051D01*
X14648751Y-8001298D01*
X14648751Y-8001298D01*
X14648751Y-8001298D01*
X14662752Y-8005050D01*
X14662753Y-8005050D01*
X14677247Y-8005050D01*
X14677247Y-8005050D01*
X14691248Y-8001298D01*
X14703801Y-7994051D01*
X14714051Y-7983801D01*
X14721298Y-7971248D01*
X14725050Y-7957247D01*
X14725050Y-7942752D01*
X14721298Y-7928751D01*
X14714051Y-7916198D01*
X14703801Y-7905949D01*
X14703801Y-7905949D01*
X14703801Y-7905949D01*
X14691249Y-7898702D01*
X14691249Y-7898702D01*
X14690101Y-7898394D01*
X14677247Y-7894950D01*
X14662752Y-7894950D01*
X14649899Y-7898394D01*
X14648751Y-7898702D01*
X14636199Y-7905949D01*
X14636198Y-7905949D01*
X14625949Y-7916198D01*
X14625949Y-7916199D01*
X14618702Y-7928751D01*
X14618702Y-7928751D01*
X14614950Y-7942752D01*
X14255050Y-7942752D01*
X14251298Y-7928751D01*
X14244051Y-7916198D01*
X14233801Y-7905949D01*
X14233801Y-7905949D01*
X14233801Y-7905949D01*
X14221249Y-7898702D01*
X14221249Y-7898702D01*
X14220101Y-7898394D01*
X14207247Y-7894950D01*
X14192752Y-7894950D01*
X14179899Y-7898394D01*
X14178751Y-7898702D01*
X14166199Y-7905949D01*
X14166198Y-7905949D01*
X14155949Y-7916198D01*
X14155949Y-7916199D01*
X14148702Y-7928751D01*
X14148702Y-7928751D01*
X14144950Y-7942752D01*
X13200418Y-7942752D01*
X13200418Y-7901034D01*
X13202386Y-7894330D01*
X13207667Y-7889754D01*
X13214583Y-7888760D01*
X13219707Y-7890724D01*
X13227713Y-7896073D01*
X13227713Y-7896073D01*
X13227714Y-7896074D01*
X13239689Y-7901034D01*
X13244101Y-7902861D01*
X13244102Y-7902861D01*
X13244102Y-7902862D01*
X13261498Y-7906322D01*
X13261499Y-7906322D01*
X13261499Y-7906322D01*
X13359237Y-7906322D01*
X13359237Y-7906322D01*
X13365036Y-7905168D01*
X13376634Y-7902862D01*
X13376634Y-7902861D01*
X13376635Y-7902861D01*
X13393023Y-7896073D01*
X13407771Y-7886218D01*
X13420314Y-7873675D01*
X13430169Y-7858927D01*
X13436957Y-7842539D01*
X13440418Y-7825141D01*
X13440418Y-7807403D01*
X13440418Y-7807403D01*
X13440418Y-7807402D01*
X13439813Y-7804359D01*
X13439493Y-7802752D01*
X14144950Y-7802752D01*
X14144950Y-7817247D01*
X14148702Y-7831248D01*
X14148702Y-7831249D01*
X14155949Y-7843801D01*
X14155949Y-7843801D01*
X14155949Y-7843801D01*
X14166198Y-7854051D01*
X14166199Y-7854051D01*
X14166199Y-7854051D01*
X14178751Y-7861298D01*
X14178751Y-7861298D01*
X14178751Y-7861298D01*
X14192752Y-7865050D01*
X14192753Y-7865050D01*
X14207247Y-7865050D01*
X14207247Y-7865050D01*
X14221248Y-7861298D01*
X14233801Y-7854051D01*
X14244051Y-7843801D01*
X14251298Y-7831248D01*
X14255050Y-7817247D01*
X14255050Y-7802752D01*
X14614950Y-7802752D01*
X14614950Y-7817247D01*
X14618702Y-7831248D01*
X14618702Y-7831249D01*
X14625949Y-7843801D01*
X14625949Y-7843801D01*
X14625949Y-7843801D01*
X14636198Y-7854051D01*
X14636199Y-7854051D01*
X14636199Y-7854051D01*
X14648751Y-7861298D01*
X14648751Y-7861298D01*
X14648751Y-7861298D01*
X14662752Y-7865050D01*
X14662753Y-7865050D01*
X14677247Y-7865050D01*
X14677247Y-7865050D01*
X14691248Y-7861298D01*
X14703801Y-7854051D01*
X14714051Y-7843801D01*
X14721298Y-7831248D01*
X14725050Y-7817247D01*
X14725050Y-7802752D01*
X14721298Y-7788751D01*
X14714051Y-7776198D01*
X14703801Y-7765949D01*
X14703801Y-7765949D01*
X14703801Y-7765949D01*
X14691249Y-7758702D01*
X14691249Y-7758702D01*
X14690101Y-7758394D01*
X14677247Y-7754950D01*
X14662752Y-7754950D01*
X14649899Y-7758394D01*
X14648751Y-7758702D01*
X14636199Y-7765949D01*
X14636198Y-7765949D01*
X14625949Y-7776198D01*
X14625949Y-7776199D01*
X14618702Y-7788751D01*
X14618702Y-7788751D01*
X14614950Y-7802752D01*
X14255050Y-7802752D01*
X14251298Y-7788751D01*
X14244051Y-7776198D01*
X14233801Y-7765949D01*
X14233801Y-7765949D01*
X14233801Y-7765949D01*
X14221249Y-7758702D01*
X14221249Y-7758702D01*
X14220101Y-7758394D01*
X14207247Y-7754950D01*
X14192752Y-7754950D01*
X14179899Y-7758394D01*
X14178751Y-7758702D01*
X14166199Y-7765949D01*
X14166198Y-7765949D01*
X14155949Y-7776198D01*
X14155949Y-7776199D01*
X14148702Y-7788751D01*
X14148702Y-7788751D01*
X14144950Y-7802752D01*
X13439493Y-7802752D01*
X13436957Y-7790006D01*
X13436957Y-7790005D01*
X13431238Y-7776198D01*
X13430170Y-7773618D01*
X13430169Y-7773617D01*
X13420314Y-7758868D01*
X13420314Y-7758868D01*
X13407772Y-7746326D01*
X13407771Y-7746325D01*
X13393023Y-7736471D01*
X13393022Y-7736470D01*
X13376635Y-7729683D01*
X13376634Y-7729682D01*
X13359237Y-7726222D01*
X13359237Y-7726222D01*
X13261499Y-7726222D01*
X13261499Y-7726222D01*
X13244102Y-7729682D01*
X13244101Y-7729683D01*
X13227714Y-7736470D01*
X13227713Y-7736471D01*
X13219707Y-7741820D01*
X13213039Y-7743908D01*
X13206301Y-7742059D01*
X13201632Y-7736862D01*
X13200418Y-7731510D01*
X13200418Y-7647034D01*
X13202386Y-7640330D01*
X13207667Y-7635754D01*
X13214583Y-7634760D01*
X13219707Y-7636724D01*
X13227713Y-7642073D01*
X13227713Y-7642073D01*
X13227714Y-7642074D01*
X13239689Y-7647034D01*
X13244101Y-7648861D01*
X13244102Y-7648861D01*
X13244102Y-7648862D01*
X13261498Y-7652322D01*
X13261499Y-7652322D01*
X13261499Y-7652322D01*
X13359237Y-7652322D01*
X13359237Y-7652322D01*
X13365036Y-7651168D01*
X13376634Y-7648862D01*
X13376634Y-7648861D01*
X13376635Y-7648861D01*
X13391382Y-7642753D01*
X13391383Y-7642752D01*
X14314950Y-7642752D01*
X14314950Y-7657247D01*
X14318702Y-7671248D01*
X14318702Y-7671249D01*
X14325949Y-7683801D01*
X14325949Y-7683801D01*
X14325949Y-7683801D01*
X14336198Y-7694051D01*
X14336199Y-7694051D01*
X14336199Y-7694051D01*
X14348751Y-7701298D01*
X14348751Y-7701298D01*
X14348751Y-7701298D01*
X14362752Y-7705050D01*
X14362753Y-7705050D01*
X14377247Y-7705050D01*
X14377247Y-7705050D01*
X14391248Y-7701298D01*
X14403801Y-7694051D01*
X14414051Y-7683801D01*
X14421298Y-7671248D01*
X14425050Y-7657247D01*
X14425050Y-7642752D01*
X14454950Y-7642752D01*
X14454950Y-7657247D01*
X14458702Y-7671248D01*
X14458702Y-7671249D01*
X14465949Y-7683801D01*
X14465949Y-7683801D01*
X14465949Y-7683801D01*
X14476198Y-7694051D01*
X14476199Y-7694051D01*
X14476199Y-7694051D01*
X14488751Y-7701298D01*
X14488751Y-7701298D01*
X14488751Y-7701298D01*
X14502752Y-7705050D01*
X14502753Y-7705050D01*
X14517247Y-7705050D01*
X14517247Y-7705050D01*
X14531248Y-7701298D01*
X14543801Y-7694051D01*
X14554051Y-7683801D01*
X14561298Y-7671248D01*
X14565050Y-7657247D01*
X14565050Y-7642752D01*
X14561298Y-7628751D01*
X14556058Y-7619676D01*
X14554051Y-7616199D01*
X14554051Y-7616198D01*
X14543802Y-7605949D01*
X14543801Y-7605949D01*
X14531249Y-7598702D01*
X14531249Y-7598702D01*
X14530101Y-7598394D01*
X14517247Y-7594950D01*
X14502752Y-7594950D01*
X14489899Y-7598394D01*
X14488751Y-7598702D01*
X14476199Y-7605949D01*
X14476198Y-7605949D01*
X14465949Y-7616198D01*
X14465949Y-7616199D01*
X14458702Y-7628751D01*
X14458702Y-7628751D01*
X14454950Y-7642752D01*
X14425050Y-7642752D01*
X14421298Y-7628751D01*
X14416058Y-7619676D01*
X14414051Y-7616199D01*
X14414051Y-7616198D01*
X14403802Y-7605949D01*
X14403801Y-7605949D01*
X14391249Y-7598702D01*
X14391249Y-7598702D01*
X14390101Y-7598394D01*
X14377247Y-7594950D01*
X14362752Y-7594950D01*
X14349899Y-7598394D01*
X14348751Y-7598702D01*
X14336199Y-7605949D01*
X14336198Y-7605949D01*
X14325949Y-7616198D01*
X14325949Y-7616199D01*
X14318702Y-7628751D01*
X14318702Y-7628751D01*
X14314950Y-7642752D01*
X13391383Y-7642752D01*
X13393022Y-7642074D01*
X13393022Y-7642073D01*
X13393023Y-7642073D01*
X13407771Y-7632218D01*
X13420314Y-7619675D01*
X13430169Y-7604927D01*
X13436957Y-7588539D01*
X13440418Y-7571141D01*
X13440418Y-7553403D01*
X13440418Y-7553403D01*
X13440418Y-7553402D01*
X13436958Y-7536006D01*
X13436957Y-7536005D01*
X13430170Y-7519618D01*
X13430169Y-7519617D01*
X13420314Y-7504868D01*
X13420314Y-7504868D01*
X13407772Y-7492326D01*
X13407771Y-7492325D01*
X13393023Y-7482471D01*
X13393022Y-7482470D01*
X13376635Y-7475683D01*
X13376634Y-7475682D01*
X13359237Y-7472222D01*
X13359237Y-7472222D01*
X13261499Y-7472222D01*
X13261499Y-7472222D01*
X13244102Y-7475682D01*
X13244101Y-7475683D01*
X13227714Y-7482470D01*
X13227713Y-7482471D01*
X13219707Y-7487820D01*
X13213039Y-7489908D01*
X13206301Y-7488059D01*
X13201632Y-7482862D01*
X13200418Y-7477510D01*
X13200418Y-7393034D01*
X13202386Y-7386330D01*
X13207667Y-7381754D01*
X13214583Y-7380760D01*
X13219707Y-7382724D01*
X13227713Y-7388073D01*
X13227713Y-7388073D01*
X13227714Y-7388074D01*
X13239689Y-7393034D01*
X13244101Y-7394861D01*
X13244102Y-7394861D01*
X13244102Y-7394862D01*
X13261498Y-7398322D01*
X13261499Y-7398322D01*
X13261499Y-7398322D01*
X13359237Y-7398322D01*
X13359237Y-7398322D01*
X13365036Y-7397168D01*
X13376634Y-7394862D01*
X13376634Y-7394861D01*
X13376635Y-7394861D01*
X13393023Y-7388073D01*
X13407771Y-7378218D01*
X13420314Y-7365675D01*
X13430169Y-7350927D01*
X13436957Y-7334539D01*
X13440418Y-7317141D01*
X13440418Y-7299403D01*
X13440418Y-7299403D01*
X13440418Y-7299402D01*
X13436958Y-7282006D01*
X13436957Y-7282005D01*
X13430170Y-7265618D01*
X13430169Y-7265617D01*
X13420314Y-7250868D01*
X13420314Y-7250868D01*
X13407772Y-7238326D01*
X13407771Y-7238325D01*
X13393023Y-7228471D01*
X13393022Y-7228470D01*
X13376635Y-7221683D01*
X13376634Y-7221682D01*
X13359237Y-7218222D01*
X13359237Y-7218222D01*
X13261499Y-7218222D01*
X13261499Y-7218222D01*
X13244102Y-7221682D01*
X13244101Y-7221683D01*
X13227714Y-7228470D01*
X13227713Y-7228471D01*
X13219707Y-7233820D01*
X13213039Y-7235908D01*
X13206301Y-7234059D01*
X13201632Y-7228862D01*
X13200418Y-7223510D01*
X13200418Y-7162321D01*
X13202386Y-7155618D01*
X13207667Y-7151042D01*
X13214583Y-7150048D01*
X13218447Y-7151273D01*
X13228142Y-7156213D01*
X13244609Y-7161563D01*
X13261711Y-7164272D01*
X13285368Y-7164272D01*
X13285368Y-7085841D01*
X13285807Y-7086280D01*
X13294929Y-7091546D01*
X13305102Y-7094272D01*
X13315634Y-7094272D01*
X13325807Y-7091546D01*
X13334929Y-7086280D01*
X13335368Y-7085841D01*
X13335368Y-7164272D01*
X13359025Y-7164272D01*
X13376126Y-7161563D01*
X13392594Y-7156213D01*
X13408020Y-7148352D01*
X13422028Y-7138175D01*
X13434271Y-7125932D01*
X13444448Y-7111924D01*
X13449122Y-7102752D01*
X13834950Y-7102752D01*
X13834950Y-7117247D01*
X13836818Y-7124218D01*
X13838702Y-7131249D01*
X13845949Y-7143801D01*
X13845949Y-7143801D01*
X13845949Y-7143801D01*
X13856198Y-7154051D01*
X13856199Y-7154051D01*
X13856199Y-7154051D01*
X13868751Y-7161298D01*
X13868751Y-7161298D01*
X13868751Y-7161298D01*
X13882752Y-7165050D01*
X13882753Y-7165050D01*
X13897247Y-7165050D01*
X13897247Y-7165050D01*
X13911248Y-7161298D01*
X13923801Y-7154051D01*
X13934051Y-7143801D01*
X13941298Y-7131248D01*
X13945050Y-7117247D01*
X13945050Y-7102752D01*
X13941298Y-7088751D01*
X13936557Y-7080539D01*
X13934051Y-7076199D01*
X13934051Y-7076198D01*
X13923802Y-7065949D01*
X13923801Y-7065949D01*
X13911249Y-7058702D01*
X13911249Y-7058702D01*
X13910101Y-7058394D01*
X13897247Y-7054950D01*
X13882752Y-7054950D01*
X13869899Y-7058394D01*
X13868751Y-7058702D01*
X13856199Y-7065949D01*
X13856198Y-7065949D01*
X13845949Y-7076198D01*
X13845949Y-7076199D01*
X13838702Y-7088751D01*
X13838702Y-7088751D01*
X13834950Y-7102752D01*
X13449122Y-7102752D01*
X13452309Y-7096497D01*
X13457659Y-7080030D01*
X13457779Y-7079272D01*
X13341937Y-7079272D01*
X13342376Y-7078833D01*
X13347642Y-7069711D01*
X13350368Y-7059538D01*
X13350368Y-7049006D01*
X13347642Y-7038833D01*
X13342376Y-7029711D01*
X13341937Y-7029272D01*
X13457779Y-7029272D01*
X13457779Y-7029272D01*
X13457659Y-7028513D01*
X13452309Y-7012046D01*
X13447369Y-7002351D01*
X13446079Y-6995485D01*
X13448707Y-6989011D01*
X13454418Y-6984985D01*
X13458417Y-6984322D01*
X15725606Y-6984322D01*
X15732310Y-6986290D01*
G37*
%TD.AperFunction*%
%TD*%
M02*
