%TF.GenerationSoftware,KiCad,Pcbnew,10.0.0*%
%TF.CreationDate,2026-04-10T18:52:41+02:00*%
%TF.ProjectId,Easyduino_ESP32,45617379-6475-4696-9e6f-5f4553503332,rev?*%
%TF.SameCoordinates,Original*%
%TF.FileFunction,Soldermask,Bot*%
%TF.FilePolarity,Negative*%
%FSLAX45Y45*%
G04 Gerber Fmt 4.5, Leading zero omitted, Abs format (unit mm)*
G04 Created by KiCad (PCBNEW 10.0.0) date 2026-04-10 18:52:41*
%MOMM*%
%LPD*%
G01*
G04 APERTURE LIST*
%ADD10C,0.650000*%
%ADD11O,1.000000X2.100000*%
%ADD12O,1.000000X1.800000*%
%ADD13O,2.000000X1.200000*%
G04 APERTURE END LIST*
D10*
%TO.C,J1*%
X14297000Y-11150000D03*
X14875000Y-11150000D03*
D11*
X14154000Y-11098000D03*
D12*
X14154000Y-11518000D03*
D11*
X15018000Y-11098000D03*
D12*
X15018000Y-11518000D03*
%TD*%
D13*
%TO.C,U4*%
X13310368Y-7054272D03*
X13310368Y-7308272D03*
X13310368Y-7562272D03*
X13310368Y-7816272D03*
X13310368Y-8070272D03*
X13310368Y-8324272D03*
X13310368Y-8578272D03*
X13310368Y-8832272D03*
X13310368Y-9086272D03*
X13310368Y-9340272D03*
X13310368Y-9594272D03*
X13310368Y-9848272D03*
X13310368Y-10102272D03*
X13310368Y-10356272D03*
X13310368Y-10610272D03*
X13310368Y-10864272D03*
X13310368Y-11118272D03*
X13310368Y-11372272D03*
X13310368Y-11626272D03*
X15850000Y-11626000D03*
X15850000Y-11372000D03*
X15850368Y-11118272D03*
X15850368Y-10864272D03*
X15850368Y-10610272D03*
X15850368Y-10356272D03*
X15850368Y-10102272D03*
X15850368Y-9848272D03*
X15850368Y-9594272D03*
X15850368Y-9340272D03*
X15850368Y-9086272D03*
X15850368Y-8832272D03*
X15850368Y-8578272D03*
X15850368Y-8324272D03*
X15850368Y-8070272D03*
X15850368Y-7816272D03*
X15850368Y-7562272D03*
X15850368Y-7308272D03*
X15850368Y-7054272D03*
%TD*%
M02*
