%TF.GenerationSoftware,KiCad,Pcbnew,10.0.0*%
%TF.CreationDate,2026-04-21T19:31:45+02:00*%
%TF.ProjectId,Easyduino_ESP32,45617379-6475-4696-9e6f-5f4553503332,rev?*%
%TF.SameCoordinates,Original*%
%TF.FileFunction,Copper,L4,Bot*%
%TF.FilePolarity,Positive*%
%FSLAX45Y45*%
G04 Gerber Fmt 4.5, Leading zero omitted, Abs format (unit mm)*
G04 Created by KiCad (PCBNEW 10.0.0) date 2026-04-21 19:31:45*
%MOMM*%
%LPD*%
G01*
G04 APERTURE LIST*
%TA.AperFunction,ComponentPad*%
%ADD10O,1.000000X2.100000*%
%TD*%
%TA.AperFunction,ComponentPad*%
%ADD11O,1.000000X1.800000*%
%TD*%
%TA.AperFunction,ComponentPad*%
%ADD12O,2.000000X1.200000*%
%TD*%
%TA.AperFunction,ViaPad*%
%ADD13C,0.500000*%
%TD*%
%TA.AperFunction,ViaPad*%
%ADD14C,0.700000*%
%TD*%
%TA.AperFunction,Conductor*%
%ADD15C,0.200000*%
%TD*%
G04 APERTURE END LIST*
D10*
%TO.P,J1,SH,SHIELD_SH*%
%TO.N,GND*%
X14154000Y-11098000D03*
D11*
X14154000Y-11518000D03*
D10*
X15018000Y-11098000D03*
D11*
X15018000Y-11518000D03*
%TD*%
D12*
%TO.P,U4,1,3V3_1*%
%TO.N,+3.3V*%
X13310368Y-7054272D03*
%TO.P,U4,2,CHIP_PU_2*%
%TO.N,/EN*%
X13310368Y-7308272D03*
%TO.P,U4,3,SENSOR_VP/GPIO36/ADC1_CH0_3*%
%TO.N,/GPIO36*%
X13310368Y-7562272D03*
%TO.P,U4,4,SENSOR_VN/GPIO39/ADC1_CH3_4*%
%TO.N,/GPIO39*%
X13310368Y-7816272D03*
%TO.P,U4,5,VDET_1/GPIO34/ADC1_CH6_5*%
%TO.N,/GPIO34*%
X13310368Y-8070272D03*
%TO.P,U4,6,VDET_2/GPIO35/ADC1_CH7_6*%
%TO.N,/GPIO35*%
X13310368Y-8324272D03*
%TO.P,U4,7,32K_XP/GPIO32/ADC1_CH4_7*%
%TO.N,/GPIO32*%
X13310368Y-8578272D03*
%TO.P,U4,8,32K_XN/GPIO33/ADC1_CH5_8*%
%TO.N,/GPIO33*%
X13310368Y-8832272D03*
%TO.P,U4,9,DAC_1/ADC2_CH8/GPIO25_9*%
%TO.N,/GPIO25*%
X13310368Y-9086272D03*
%TO.P,U4,10,DAC_2/ADC2_CH9/GPIO26_10*%
%TO.N,/GPIO26*%
X13310368Y-9340272D03*
%TO.P,U4,11,ADC2_CH7/GPIO27_11*%
%TO.N,/GPIO27*%
X13310368Y-9594272D03*
%TO.P,U4,12,MTMS/GPIO14/ADC2_CH6_12*%
%TO.N,/GPIO14*%
X13310368Y-9848272D03*
%TO.P,U4,13,\u002AMTDI/GPIO12/ADC2_CH5_13*%
%TO.N,/GPIO12*%
X13310368Y-10102272D03*
%TO.P,U4,14,GND_14*%
%TO.N,GND*%
X13310368Y-10356272D03*
%TO.P,U4,15,MTCK/GPIO13/ADC2_CH4_15*%
%TO.N,/GPIO13*%
X13310368Y-10610272D03*
%TO.P,U4,16,SD_DATA2/GPIO9_16*%
%TO.N,unconnected-(U4-SD_DATA2{slash}GPIO9-Pad16)*%
X13310368Y-10864272D03*
%TO.P,U4,17,SD_DATA3/GPIO10_17*%
%TO.N,unconnected-(U4-SD_DATA3{slash}GPIO10-Pad17)*%
X13310368Y-11118272D03*
%TO.P,U4,18,CMD_18*%
%TO.N,unconnected-(U4-CMD-Pad18)*%
X13310368Y-11372272D03*
%TO.P,U4,19,5V_19*%
%TO.N,VBUS*%
X13310368Y-11626272D03*
%TO.P,U4,20,SD_CLK/GPIO6_20*%
%TO.N,unconnected-(U4-SD_CLK{slash}GPIO6-Pad20)*%
X15850000Y-11626000D03*
%TO.P,U4,21,SD_DATA0/GPIO7_21*%
%TO.N,unconnected-(U4-SD_DATA0{slash}GPIO7-Pad21)*%
X15850000Y-11372000D03*
%TO.P,U4,22,SD_DATA1/GPIO8_22*%
%TO.N,unconnected-(U4-SD_DATA1{slash}GPIO8-Pad22)*%
X15850368Y-11118272D03*
%TO.P,U4,23,\u002AMTDO/GPIO15/ADC2_CH3_23*%
%TO.N,/GPIO15*%
X15850368Y-10864272D03*
%TO.P,U4,24,ADC2_CH2/\u002AGPIO2_24*%
%TO.N,/GPIO2*%
X15850368Y-10610272D03*
%TO.P,U4,25,\u002AGPIO0/BOOT/ADC2_CH1_25*%
%TO.N,/GPIO0*%
X15850368Y-10356272D03*
%TO.P,U4,26,ADC2_CH0/GPIO4_26*%
%TO.N,/GPIO4*%
X15850368Y-10102272D03*
%TO.P,U4,27,GPIO16_27*%
%TO.N,/GPIO16*%
X15850368Y-9848272D03*
%TO.P,U4,28,GPIO17_28*%
%TO.N,/GPIO17*%
X15850368Y-9594272D03*
%TO.P,U4,29,\u002AGPIO5_29*%
%TO.N,/GPIO5*%
X15850368Y-9340272D03*
%TO.P,U4,30,GPIO18_30*%
%TO.N,/GPIO18*%
X15850368Y-9086272D03*
%TO.P,U4,31,GPIO19_31*%
%TO.N,/GPIO19*%
X15850368Y-8832272D03*
%TO.P,U4,32,GND_32*%
%TO.N,GND*%
X15850368Y-8578272D03*
%TO.P,U4,33,GPIO21_33*%
%TO.N,/GPIO21*%
X15850368Y-8324272D03*
%TO.P,U4,34,U0RXD/GPIO3_34*%
%TO.N,/GPIO3*%
X15850368Y-8070272D03*
%TO.P,U4,35,U0TXD/GPIO1_35*%
%TO.N,/GPIO1*%
X15850368Y-7816272D03*
%TO.P,U4,36,GPIO22_36*%
%TO.N,/GPIO22*%
X15850368Y-7562272D03*
%TO.P,U4,37,GPIO23_37*%
%TO.N,/GPIO23*%
X15850368Y-7308272D03*
%TO.P,U4,38,GND_38*%
%TO.N,GND*%
X15850368Y-7054272D03*
%TD*%
D13*
%TO.N,GND*%
X15150000Y-10130000D03*
X14400000Y-10520000D03*
X15140000Y-10500000D03*
X13800000Y-11650000D03*
X14020000Y-9020000D03*
X14670000Y-7810000D03*
X13770000Y-9580000D03*
X14160000Y-10870000D03*
X14200000Y-7810000D03*
X14510000Y-8110000D03*
X13920000Y-9860000D03*
X15350000Y-11650000D03*
X14510000Y-7650000D03*
X15000000Y-9850000D03*
X15430000Y-9390000D03*
X14390000Y-10620000D03*
X13880000Y-10850000D03*
X14110000Y-9170000D03*
X13930000Y-9560000D03*
X14120000Y-10930000D03*
X15270000Y-10240000D03*
X14670000Y-7950000D03*
X14370000Y-8110000D03*
X15140000Y-10860000D03*
X15010000Y-10500000D03*
X15120000Y-10930000D03*
X14370000Y-7650000D03*
X13890000Y-7110000D03*
X14200000Y-7950000D03*
X13750000Y-9410000D03*
X15470000Y-10850000D03*
D14*
%TO.N,+3.3V*%
X13930000Y-9290000D03*
D13*
X14690000Y-9500000D03*
X14690000Y-9270000D03*
X13780000Y-9890000D03*
D14*
X13890000Y-7230000D03*
D13*
X14690000Y-9390000D03*
X13760000Y-9140000D03*
%TO.N,/CC2*%
X14760000Y-10860000D03*
X14890000Y-10860000D03*
%TO.N,/USB_D+*%
X14677744Y-10934924D03*
X14561000Y-10940000D03*
%TO.N,/~{RTS}*%
X14140000Y-10080000D03*
X13940000Y-10130000D03*
%TO.N,Net-(U1-VDD)*%
X14710000Y-10510000D03*
X14940000Y-10580000D03*
%TO.N,/GPIO0*%
X15555000Y-9255000D03*
X14970000Y-10760000D03*
X15712048Y-10217952D03*
X14350000Y-10760000D03*
X15580000Y-10020000D03*
X15620000Y-10670000D03*
%TO.N,/GPIO13*%
X13720000Y-8910000D03*
X14140000Y-8740000D03*
%TO.N,/GPIO15*%
X15410000Y-10240000D03*
X15170000Y-9430000D03*
%TO.N,/GPIO2*%
X15260000Y-9370000D03*
X15460000Y-10090000D03*
%TO.N,/GPIO4*%
X15610000Y-9730000D03*
X15610000Y-9470000D03*
%TO.N,/GPIO3*%
X14580000Y-8670000D03*
X14220000Y-10240000D03*
%TO.N,/GPIO1*%
X14520000Y-8620000D03*
X14190000Y-10160000D03*
%TD*%
%TO.N,/CC2*%
D15*
X14760000Y-10860000D02*
X14890000Y-10860000D01*
%TO.N,/USB_D+*%
X14566076Y-10934924D02*
X14561000Y-10940000D01*
X14677744Y-10934924D02*
X14566076Y-10934924D01*
%TO.N,/~{RTS}*%
X13990000Y-10080000D02*
X13940000Y-10130000D01*
X14140000Y-10080000D02*
X13990000Y-10080000D01*
%TO.N,Net-(U1-VDD)*%
X14780000Y-10580000D02*
X14710000Y-10510000D01*
X14940000Y-10580000D02*
X14780000Y-10580000D01*
%TO.N,/GPIO0*%
X15620000Y-10310000D02*
X15620000Y-10670000D01*
X15712048Y-10217952D02*
X15620000Y-10310000D01*
X15570000Y-10020000D02*
X15580000Y-10020000D01*
X15555000Y-9255000D02*
X15555000Y-10005000D01*
X14350000Y-10760000D02*
X14970000Y-10760000D01*
X15555000Y-10005000D02*
X15570000Y-10020000D01*
%TO.N,/GPIO13*%
X13890000Y-8740000D02*
X14140000Y-8740000D01*
X13720000Y-8910000D02*
X13890000Y-8740000D01*
%TO.N,/GPIO15*%
X15410000Y-10240000D02*
X15350000Y-10180000D01*
X15350000Y-10180000D02*
X15350000Y-9610000D01*
X15350000Y-9610000D02*
X15170000Y-9430000D01*
%TO.N,/GPIO2*%
X15460000Y-10090000D02*
X15460000Y-9570000D01*
X15460000Y-9570000D02*
X15260000Y-9370000D01*
%TO.N,/GPIO4*%
X15610000Y-9470000D02*
X15610000Y-9730000D01*
%TO.N,/GPIO3*%
X14580000Y-8670000D02*
X14580000Y-9880000D01*
X14580000Y-9880000D02*
X14220000Y-10240000D01*
%TO.N,/GPIO1*%
X14520000Y-9830000D02*
X14190000Y-10160000D01*
X14520000Y-8620000D02*
X14520000Y-9830000D01*
%TD*%
%TA.AperFunction,Conductor*%
%TO.N,GND*%
G36*
X15956237Y-6986213D02*
G01*
X15959833Y-6991163D01*
X15960318Y-6994222D01*
X15960318Y-7228187D01*
X15958427Y-7234006D01*
X15953477Y-7237603D01*
X15947359Y-7237603D01*
X15944918Y-7236419D01*
X15933023Y-7228471D01*
X15933022Y-7228470D01*
X15916635Y-7221683D01*
X15899237Y-7218222D01*
X15899237Y-7218222D01*
X15801499Y-7218222D01*
X15801499Y-7218222D01*
X15784101Y-7221683D01*
X15784101Y-7221683D01*
X15767713Y-7228470D01*
X15767713Y-7228470D01*
X15752964Y-7238325D01*
X15740421Y-7250868D01*
X15730566Y-7265617D01*
X15730566Y-7265617D01*
X15723779Y-7282005D01*
X15723779Y-7282005D01*
X15720318Y-7299403D01*
X15720318Y-7317141D01*
X15723779Y-7334538D01*
X15723779Y-7334539D01*
X15730566Y-7350926D01*
X15730566Y-7350926D01*
X15740421Y-7365675D01*
X15740422Y-7365675D01*
X15752964Y-7378218D01*
X15767713Y-7388073D01*
X15784101Y-7394861D01*
X15801499Y-7398322D01*
X15801499Y-7398322D01*
X15899237Y-7398322D01*
X15899237Y-7398322D01*
X15916635Y-7394861D01*
X15933023Y-7388073D01*
X15944918Y-7380125D01*
X15950806Y-7378464D01*
X15956547Y-7380582D01*
X15959946Y-7385669D01*
X15960318Y-7388357D01*
X15960318Y-7482187D01*
X15958427Y-7488006D01*
X15953477Y-7491603D01*
X15947359Y-7491603D01*
X15944918Y-7490419D01*
X15933023Y-7482471D01*
X15933022Y-7482470D01*
X15916635Y-7475683D01*
X15899237Y-7472222D01*
X15899237Y-7472222D01*
X15801499Y-7472222D01*
X15801499Y-7472222D01*
X15784101Y-7475683D01*
X15784101Y-7475683D01*
X15767713Y-7482470D01*
X15767713Y-7482470D01*
X15752964Y-7492325D01*
X15740421Y-7504868D01*
X15730566Y-7519617D01*
X15730566Y-7519617D01*
X15723779Y-7536005D01*
X15723779Y-7536005D01*
X15720318Y-7553403D01*
X15720318Y-7571141D01*
X15723779Y-7588538D01*
X15723779Y-7588539D01*
X15730566Y-7604926D01*
X15730566Y-7604926D01*
X15740421Y-7619675D01*
X15740422Y-7619675D01*
X15752964Y-7632218D01*
X15767713Y-7642073D01*
X15784101Y-7648861D01*
X15801499Y-7652322D01*
X15801499Y-7652322D01*
X15899237Y-7652322D01*
X15899237Y-7652322D01*
X15916635Y-7648861D01*
X15933023Y-7642073D01*
X15944918Y-7634125D01*
X15950806Y-7632464D01*
X15956547Y-7634582D01*
X15959946Y-7639669D01*
X15960318Y-7642357D01*
X15960318Y-7736187D01*
X15958427Y-7742006D01*
X15953477Y-7745603D01*
X15947359Y-7745603D01*
X15944918Y-7744419D01*
X15933023Y-7736471D01*
X15933022Y-7736470D01*
X15916635Y-7729683D01*
X15899237Y-7726222D01*
X15899237Y-7726222D01*
X15801499Y-7726222D01*
X15801499Y-7726222D01*
X15784101Y-7729683D01*
X15784101Y-7729683D01*
X15767713Y-7736470D01*
X15767713Y-7736470D01*
X15752964Y-7746325D01*
X15740421Y-7758868D01*
X15730566Y-7773617D01*
X15730566Y-7773617D01*
X15723779Y-7790005D01*
X15723779Y-7790005D01*
X15720318Y-7807403D01*
X15720318Y-7825141D01*
X15723779Y-7842538D01*
X15723779Y-7842539D01*
X15730566Y-7858926D01*
X15730566Y-7858926D01*
X15740421Y-7873675D01*
X15740422Y-7873675D01*
X15752964Y-7886218D01*
X15767713Y-7896073D01*
X15784101Y-7902861D01*
X15801499Y-7906322D01*
X15801499Y-7906322D01*
X15899237Y-7906322D01*
X15899237Y-7906322D01*
X15916635Y-7902861D01*
X15933023Y-7896073D01*
X15944918Y-7888125D01*
X15950806Y-7886464D01*
X15956547Y-7888582D01*
X15959946Y-7893669D01*
X15960318Y-7896357D01*
X15960318Y-7990187D01*
X15958427Y-7996006D01*
X15953477Y-7999603D01*
X15947359Y-7999603D01*
X15944918Y-7998419D01*
X15933023Y-7990471D01*
X15933022Y-7990470D01*
X15916635Y-7983683D01*
X15899237Y-7980222D01*
X15899237Y-7980222D01*
X15801499Y-7980222D01*
X15801499Y-7980222D01*
X15784101Y-7983683D01*
X15784101Y-7983683D01*
X15767713Y-7990470D01*
X15767713Y-7990470D01*
X15752964Y-8000325D01*
X15740421Y-8012868D01*
X15730566Y-8027617D01*
X15730566Y-8027617D01*
X15723779Y-8044005D01*
X15723779Y-8044005D01*
X15720318Y-8061403D01*
X15720318Y-8079141D01*
X15723779Y-8096538D01*
X15723779Y-8096539D01*
X15730566Y-8112926D01*
X15730566Y-8112926D01*
X15740421Y-8127675D01*
X15740422Y-8127675D01*
X15752964Y-8140218D01*
X15767713Y-8150073D01*
X15784101Y-8156861D01*
X15801499Y-8160322D01*
X15801499Y-8160322D01*
X15899237Y-8160322D01*
X15899237Y-8160322D01*
X15916635Y-8156861D01*
X15933023Y-8150073D01*
X15944918Y-8142125D01*
X15950806Y-8140464D01*
X15956547Y-8142582D01*
X15959946Y-8147669D01*
X15960318Y-8150357D01*
X15960318Y-8244187D01*
X15958427Y-8250006D01*
X15953477Y-8253603D01*
X15947359Y-8253603D01*
X15944918Y-8252419D01*
X15933023Y-8244471D01*
X15933022Y-8244470D01*
X15916635Y-8237683D01*
X15899237Y-8234222D01*
X15899237Y-8234222D01*
X15801499Y-8234222D01*
X15801499Y-8234222D01*
X15784101Y-8237683D01*
X15784101Y-8237683D01*
X15767713Y-8244470D01*
X15767713Y-8244470D01*
X15752964Y-8254325D01*
X15740421Y-8266868D01*
X15730566Y-8281617D01*
X15730566Y-8281617D01*
X15723779Y-8298005D01*
X15723779Y-8298005D01*
X15720318Y-8315403D01*
X15720318Y-8333141D01*
X15723779Y-8350538D01*
X15723779Y-8350539D01*
X15730566Y-8366926D01*
X15730566Y-8366926D01*
X15740421Y-8381675D01*
X15740422Y-8381675D01*
X15752964Y-8394218D01*
X15767713Y-8404073D01*
X15784101Y-8410861D01*
X15801499Y-8414322D01*
X15801499Y-8414322D01*
X15899237Y-8414322D01*
X15899237Y-8414322D01*
X15916635Y-8410861D01*
X15933023Y-8404073D01*
X15944918Y-8396125D01*
X15950806Y-8394464D01*
X15956547Y-8396582D01*
X15959946Y-8401669D01*
X15960318Y-8404357D01*
X15960318Y-8752187D01*
X15958427Y-8758006D01*
X15953477Y-8761603D01*
X15947359Y-8761603D01*
X15944918Y-8760419D01*
X15933023Y-8752471D01*
X15933022Y-8752471D01*
X15916635Y-8745683D01*
X15899237Y-8742222D01*
X15899237Y-8742222D01*
X15801499Y-8742222D01*
X15801499Y-8742222D01*
X15784101Y-8745683D01*
X15784101Y-8745683D01*
X15767713Y-8752471D01*
X15767713Y-8752471D01*
X15752964Y-8762326D01*
X15740421Y-8774869D01*
X15730566Y-8789617D01*
X15730566Y-8789618D01*
X15723779Y-8806005D01*
X15723779Y-8806005D01*
X15720318Y-8823403D01*
X15720318Y-8841141D01*
X15723779Y-8858539D01*
X15723779Y-8858539D01*
X15730566Y-8874926D01*
X15730566Y-8874927D01*
X15740421Y-8889675D01*
X15740422Y-8889676D01*
X15752964Y-8902218D01*
X15767713Y-8912073D01*
X15784101Y-8918861D01*
X15801499Y-8922322D01*
X15801499Y-8922322D01*
X15899237Y-8922322D01*
X15899237Y-8922322D01*
X15916635Y-8918861D01*
X15933023Y-8912073D01*
X15944918Y-8904125D01*
X15950806Y-8902464D01*
X15956547Y-8904582D01*
X15959946Y-8909669D01*
X15960318Y-8912357D01*
X15960318Y-9006187D01*
X15958427Y-9012006D01*
X15953477Y-9015603D01*
X15947359Y-9015603D01*
X15944918Y-9014419D01*
X15933023Y-9006471D01*
X15933022Y-9006471D01*
X15916635Y-8999683D01*
X15899237Y-8996222D01*
X15899237Y-8996222D01*
X15801499Y-8996222D01*
X15801499Y-8996222D01*
X15784101Y-8999683D01*
X15784101Y-8999683D01*
X15767713Y-9006471D01*
X15767713Y-9006471D01*
X15752964Y-9016326D01*
X15740421Y-9028869D01*
X15730566Y-9043617D01*
X15730566Y-9043618D01*
X15723779Y-9060005D01*
X15723779Y-9060005D01*
X15720318Y-9077403D01*
X15720318Y-9095141D01*
X15723779Y-9112539D01*
X15723779Y-9112539D01*
X15730566Y-9128926D01*
X15730566Y-9128927D01*
X15733123Y-9132753D01*
X15740422Y-9143676D01*
X15752964Y-9156218D01*
X15767713Y-9166073D01*
X15784101Y-9172861D01*
X15801499Y-9176322D01*
X15801499Y-9176322D01*
X15899237Y-9176322D01*
X15899237Y-9176322D01*
X15916635Y-9172861D01*
X15933023Y-9166073D01*
X15944918Y-9158125D01*
X15950806Y-9156464D01*
X15956547Y-9158582D01*
X15959946Y-9163669D01*
X15960318Y-9166357D01*
X15960318Y-9260187D01*
X15958427Y-9266006D01*
X15953477Y-9269603D01*
X15947359Y-9269603D01*
X15944918Y-9268419D01*
X15933023Y-9260471D01*
X15933022Y-9260471D01*
X15916635Y-9253683D01*
X15899237Y-9250222D01*
X15899237Y-9250222D01*
X15801499Y-9250222D01*
X15801499Y-9250222D01*
X15784101Y-9253683D01*
X15784101Y-9253683D01*
X15767713Y-9260471D01*
X15767713Y-9260471D01*
X15752964Y-9270326D01*
X15740421Y-9282869D01*
X15730566Y-9297617D01*
X15730566Y-9297618D01*
X15723779Y-9314005D01*
X15723779Y-9314005D01*
X15720318Y-9331403D01*
X15720318Y-9349141D01*
X15721722Y-9356199D01*
X15723643Y-9365859D01*
X15723779Y-9366539D01*
X15723779Y-9366539D01*
X15730566Y-9382926D01*
X15730566Y-9382927D01*
X15740136Y-9397248D01*
X15740422Y-9397676D01*
X15752964Y-9410218D01*
X15767713Y-9420073D01*
X15784101Y-9426861D01*
X15801499Y-9430322D01*
X15801499Y-9430322D01*
X15899237Y-9430322D01*
X15899237Y-9430322D01*
X15916635Y-9426861D01*
X15933023Y-9420073D01*
X15944918Y-9412125D01*
X15950806Y-9410464D01*
X15956547Y-9412582D01*
X15959946Y-9417669D01*
X15960318Y-9420357D01*
X15960318Y-9514187D01*
X15958427Y-9520006D01*
X15953477Y-9523603D01*
X15947359Y-9523603D01*
X15944918Y-9522419D01*
X15933023Y-9514471D01*
X15933022Y-9514471D01*
X15916635Y-9507683D01*
X15899237Y-9504222D01*
X15899237Y-9504222D01*
X15801499Y-9504222D01*
X15801499Y-9504222D01*
X15784101Y-9507683D01*
X15784101Y-9507683D01*
X15767713Y-9514471D01*
X15767713Y-9514471D01*
X15752964Y-9524326D01*
X15740421Y-9536869D01*
X15730566Y-9551617D01*
X15730566Y-9551618D01*
X15723779Y-9568005D01*
X15723779Y-9568005D01*
X15720318Y-9585403D01*
X15720318Y-9603141D01*
X15723779Y-9620539D01*
X15723779Y-9620539D01*
X15730566Y-9636926D01*
X15730566Y-9636927D01*
X15740418Y-9651670D01*
X15740422Y-9651676D01*
X15752964Y-9664218D01*
X15767713Y-9674073D01*
X15784101Y-9680861D01*
X15801499Y-9684322D01*
X15801499Y-9684322D01*
X15899237Y-9684322D01*
X15899237Y-9684322D01*
X15916635Y-9680861D01*
X15933023Y-9674073D01*
X15944918Y-9666125D01*
X15950806Y-9664464D01*
X15956547Y-9666582D01*
X15959946Y-9671669D01*
X15960318Y-9674357D01*
X15960318Y-9768187D01*
X15958427Y-9774006D01*
X15953477Y-9777603D01*
X15947359Y-9777603D01*
X15944918Y-9776419D01*
X15933023Y-9768471D01*
X15933022Y-9768471D01*
X15916635Y-9761683D01*
X15899237Y-9758222D01*
X15899237Y-9758222D01*
X15801499Y-9758222D01*
X15801499Y-9758222D01*
X15784101Y-9761683D01*
X15784101Y-9761683D01*
X15767713Y-9768471D01*
X15767713Y-9768471D01*
X15752964Y-9778326D01*
X15740421Y-9790869D01*
X15730566Y-9805617D01*
X15730566Y-9805618D01*
X15723779Y-9822005D01*
X15723779Y-9822005D01*
X15720318Y-9839403D01*
X15720318Y-9857141D01*
X15723779Y-9874539D01*
X15723779Y-9874539D01*
X15730566Y-9890926D01*
X15730566Y-9890927D01*
X15740421Y-9905675D01*
X15740422Y-9905676D01*
X15752964Y-9918218D01*
X15767713Y-9928073D01*
X15784101Y-9934861D01*
X15801499Y-9938322D01*
X15801499Y-9938322D01*
X15899237Y-9938322D01*
X15899237Y-9938322D01*
X15916635Y-9934861D01*
X15933023Y-9928073D01*
X15944918Y-9920125D01*
X15950806Y-9918464D01*
X15956547Y-9920582D01*
X15959946Y-9925669D01*
X15960318Y-9928357D01*
X15960318Y-10022187D01*
X15958427Y-10028006D01*
X15953477Y-10031603D01*
X15947359Y-10031603D01*
X15944918Y-10030419D01*
X15933023Y-10022471D01*
X15933022Y-10022471D01*
X15916635Y-10015683D01*
X15899237Y-10012222D01*
X15899237Y-10012222D01*
X15801499Y-10012222D01*
X15801499Y-10012222D01*
X15784101Y-10015683D01*
X15784101Y-10015683D01*
X15767713Y-10022471D01*
X15767713Y-10022471D01*
X15752964Y-10032326D01*
X15740421Y-10044869D01*
X15730566Y-10059617D01*
X15730566Y-10059618D01*
X15723779Y-10076005D01*
X15723779Y-10076005D01*
X15720318Y-10093403D01*
X15720318Y-10111141D01*
X15723779Y-10128539D01*
X15723779Y-10128539D01*
X15729064Y-10141298D01*
X15730567Y-10144927D01*
X15731516Y-10146348D01*
X15733041Y-10148630D01*
X15734702Y-10154519D01*
X15732584Y-10160259D01*
X15727497Y-10163659D01*
X15722247Y-10163693D01*
X15719295Y-10162902D01*
X15704800Y-10162902D01*
X15701444Y-10163802D01*
X15690799Y-10166654D01*
X15678247Y-10173901D01*
X15667997Y-10184151D01*
X15660750Y-10196703D01*
X15656998Y-10210705D01*
X15656998Y-10212262D01*
X15655107Y-10218081D01*
X15654098Y-10219262D01*
X15587952Y-10285409D01*
X15582679Y-10294541D01*
X15582679Y-10294541D01*
X15582679Y-10294541D01*
X15579950Y-10304727D01*
X15579950Y-10628097D01*
X15578059Y-10633916D01*
X15577051Y-10635097D01*
X15575949Y-10636198D01*
X15575949Y-10636199D01*
X15568702Y-10648751D01*
X15568702Y-10648752D01*
X15564950Y-10662753D01*
X15564950Y-10677248D01*
X15566257Y-10682125D01*
X15568702Y-10691249D01*
X15575949Y-10703801D01*
X15575949Y-10703801D01*
X15575949Y-10703802D01*
X15586198Y-10714051D01*
X15586199Y-10714051D01*
X15586199Y-10714051D01*
X15598751Y-10721298D01*
X15598751Y-10721298D01*
X15598751Y-10721298D01*
X15612752Y-10725050D01*
X15612753Y-10725050D01*
X15627247Y-10725050D01*
X15627247Y-10725050D01*
X15641248Y-10721298D01*
X15641249Y-10721298D01*
X15641249Y-10721298D01*
X15653801Y-10714051D01*
X15653801Y-10714051D01*
X15653801Y-10714051D01*
X15664051Y-10703802D01*
X15668058Y-10696861D01*
X15671298Y-10691249D01*
X15671298Y-10691249D01*
X15671298Y-10691249D01*
X15675050Y-10677248D01*
X15675050Y-10662753D01*
X15671298Y-10648752D01*
X15671298Y-10648751D01*
X15671298Y-10648751D01*
X15664051Y-10636199D01*
X15664051Y-10636198D01*
X15662949Y-10635097D01*
X15660172Y-10629645D01*
X15660050Y-10628097D01*
X15660050Y-10330690D01*
X15661941Y-10324871D01*
X15662950Y-10323690D01*
X15710738Y-10275902D01*
X15716189Y-10273124D01*
X15717738Y-10273002D01*
X15719295Y-10273002D01*
X15719295Y-10273002D01*
X15733296Y-10269250D01*
X15733297Y-10269250D01*
X15733297Y-10269250D01*
X15745849Y-10262003D01*
X15745849Y-10262003D01*
X15745849Y-10262003D01*
X15756099Y-10251754D01*
X15756099Y-10251753D01*
X15763346Y-10239201D01*
X15763346Y-10239201D01*
X15763346Y-10239201D01*
X15767098Y-10225200D01*
X15767098Y-10210705D01*
X15763587Y-10197603D01*
X15763908Y-10191493D01*
X15767758Y-10186738D01*
X15773668Y-10185155D01*
X15776938Y-10185894D01*
X15784101Y-10188861D01*
X15801499Y-10192322D01*
X15801499Y-10192322D01*
X15899237Y-10192322D01*
X15899237Y-10192322D01*
X15916635Y-10188861D01*
X15933023Y-10182073D01*
X15944918Y-10174125D01*
X15950806Y-10172464D01*
X15956547Y-10174582D01*
X15959946Y-10179669D01*
X15960318Y-10182357D01*
X15960318Y-10276187D01*
X15958427Y-10282006D01*
X15953477Y-10285603D01*
X15947359Y-10285603D01*
X15944918Y-10284419D01*
X15933023Y-10276471D01*
X15933022Y-10276471D01*
X15916635Y-10269683D01*
X15899237Y-10266222D01*
X15899237Y-10266222D01*
X15801499Y-10266222D01*
X15801499Y-10266222D01*
X15784101Y-10269683D01*
X15784101Y-10269683D01*
X15767713Y-10276471D01*
X15767713Y-10276471D01*
X15752964Y-10286326D01*
X15740421Y-10298869D01*
X15730566Y-10313617D01*
X15730566Y-10313618D01*
X15723779Y-10330005D01*
X15723779Y-10330005D01*
X15720318Y-10347403D01*
X15720318Y-10365141D01*
X15723779Y-10382539D01*
X15723779Y-10382539D01*
X15730566Y-10398926D01*
X15730566Y-10398927D01*
X15740421Y-10413675D01*
X15740422Y-10413676D01*
X15752964Y-10426218D01*
X15767713Y-10436073D01*
X15784101Y-10442861D01*
X15801499Y-10446322D01*
X15801499Y-10446322D01*
X15899237Y-10446322D01*
X15899237Y-10446322D01*
X15916635Y-10442861D01*
X15933023Y-10436073D01*
X15944918Y-10428125D01*
X15950806Y-10426464D01*
X15956547Y-10428582D01*
X15959946Y-10433669D01*
X15960318Y-10436357D01*
X15960318Y-10530187D01*
X15958427Y-10536006D01*
X15953477Y-10539603D01*
X15947359Y-10539603D01*
X15944918Y-10538419D01*
X15933023Y-10530471D01*
X15933022Y-10530471D01*
X15916635Y-10523683D01*
X15899237Y-10520222D01*
X15899237Y-10520222D01*
X15801499Y-10520222D01*
X15801499Y-10520222D01*
X15784101Y-10523683D01*
X15784101Y-10523683D01*
X15767713Y-10530471D01*
X15767713Y-10530471D01*
X15752964Y-10540326D01*
X15740421Y-10552869D01*
X15730566Y-10567617D01*
X15730566Y-10567618D01*
X15723779Y-10584005D01*
X15723779Y-10584005D01*
X15720318Y-10601403D01*
X15720318Y-10619141D01*
X15721295Y-10624051D01*
X15723711Y-10636199D01*
X15723779Y-10636539D01*
X15723779Y-10636539D01*
X15730566Y-10652926D01*
X15730566Y-10652927D01*
X15740421Y-10667675D01*
X15740422Y-10667676D01*
X15752964Y-10680218D01*
X15767713Y-10690073D01*
X15784101Y-10696861D01*
X15801499Y-10700322D01*
X15801499Y-10700322D01*
X15899237Y-10700322D01*
X15899237Y-10700322D01*
X15916635Y-10696861D01*
X15933023Y-10690073D01*
X15944918Y-10682125D01*
X15950806Y-10680464D01*
X15956547Y-10682582D01*
X15959946Y-10687669D01*
X15960318Y-10690357D01*
X15960318Y-10784187D01*
X15958427Y-10790006D01*
X15953477Y-10793603D01*
X15947359Y-10793603D01*
X15944918Y-10792419D01*
X15933023Y-10784471D01*
X15933022Y-10784471D01*
X15916635Y-10777683D01*
X15899237Y-10774222D01*
X15899237Y-10774222D01*
X15801499Y-10774222D01*
X15801499Y-10774222D01*
X15784101Y-10777683D01*
X15784101Y-10777683D01*
X15767713Y-10784471D01*
X15767713Y-10784471D01*
X15752964Y-10794326D01*
X15740421Y-10806869D01*
X15730566Y-10821617D01*
X15730566Y-10821618D01*
X15723779Y-10838005D01*
X15723779Y-10838005D01*
X15720318Y-10855403D01*
X15720318Y-10873141D01*
X15723779Y-10890539D01*
X15723779Y-10890539D01*
X15730566Y-10906926D01*
X15730566Y-10906927D01*
X15740421Y-10921675D01*
X15740422Y-10921676D01*
X15752964Y-10934218D01*
X15767713Y-10944073D01*
X15784101Y-10950861D01*
X15801499Y-10954322D01*
X15801499Y-10954322D01*
X15899237Y-10954322D01*
X15899237Y-10954322D01*
X15916635Y-10950861D01*
X15933023Y-10944073D01*
X15944918Y-10936125D01*
X15950806Y-10934464D01*
X15956547Y-10936582D01*
X15959946Y-10941669D01*
X15960318Y-10944357D01*
X15960318Y-11038187D01*
X15958427Y-11044006D01*
X15953477Y-11047603D01*
X15947359Y-11047603D01*
X15944918Y-11046419D01*
X15933023Y-11038471D01*
X15933022Y-11038471D01*
X15916635Y-11031683D01*
X15899237Y-11028222D01*
X15899237Y-11028222D01*
X15801499Y-11028222D01*
X15801499Y-11028222D01*
X15784101Y-11031683D01*
X15784101Y-11031683D01*
X15767713Y-11038471D01*
X15767713Y-11038471D01*
X15752964Y-11048326D01*
X15740421Y-11060869D01*
X15730566Y-11075617D01*
X15730566Y-11075618D01*
X15723779Y-11092005D01*
X15723779Y-11092005D01*
X15720318Y-11109403D01*
X15720318Y-11127141D01*
X15723779Y-11144539D01*
X15723779Y-11144539D01*
X15730566Y-11160926D01*
X15730566Y-11160927D01*
X15740421Y-11175675D01*
X15740422Y-11175676D01*
X15752964Y-11188218D01*
X15767713Y-11198073D01*
X15767713Y-11198073D01*
X15767713Y-11198073D01*
X15771426Y-11199611D01*
X15784101Y-11204861D01*
X15801499Y-11208322D01*
X15801499Y-11208322D01*
X15899237Y-11208322D01*
X15899237Y-11208322D01*
X15916635Y-11204861D01*
X15933023Y-11198073D01*
X15944918Y-11190125D01*
X15950806Y-11188464D01*
X15956547Y-11190582D01*
X15959946Y-11195669D01*
X15960318Y-11198357D01*
X15960318Y-11292161D01*
X15958427Y-11297980D01*
X15953477Y-11301577D01*
X15947359Y-11301577D01*
X15944918Y-11300393D01*
X15932654Y-11292198D01*
X15916267Y-11285411D01*
X15898869Y-11281950D01*
X15898869Y-11281950D01*
X15801131Y-11281950D01*
X15801131Y-11281950D01*
X15783733Y-11285411D01*
X15783733Y-11285411D01*
X15767345Y-11292198D01*
X15767345Y-11292198D01*
X15752596Y-11302053D01*
X15740053Y-11314596D01*
X15730198Y-11329345D01*
X15730198Y-11329345D01*
X15723411Y-11345733D01*
X15723411Y-11345733D01*
X15719950Y-11363131D01*
X15719950Y-11380869D01*
X15723411Y-11398266D01*
X15723411Y-11398267D01*
X15730198Y-11414654D01*
X15730198Y-11414654D01*
X15730380Y-11414927D01*
X15740054Y-11429403D01*
X15752596Y-11441946D01*
X15767345Y-11451801D01*
X15767345Y-11451801D01*
X15767345Y-11451801D01*
X15771058Y-11453339D01*
X15783733Y-11458589D01*
X15801131Y-11462050D01*
X15801131Y-11462050D01*
X15898869Y-11462050D01*
X15898869Y-11462050D01*
X15916267Y-11458589D01*
X15932655Y-11451801D01*
X15944918Y-11443607D01*
X15950806Y-11441946D01*
X15956547Y-11444064D01*
X15959946Y-11449151D01*
X15960318Y-11451839D01*
X15960318Y-11546161D01*
X15958427Y-11551980D01*
X15953477Y-11555577D01*
X15947359Y-11555577D01*
X15944918Y-11554393D01*
X15932654Y-11546198D01*
X15916267Y-11539411D01*
X15898869Y-11535950D01*
X15898869Y-11535950D01*
X15801131Y-11535950D01*
X15801131Y-11535950D01*
X15783733Y-11539411D01*
X15783733Y-11539411D01*
X15767345Y-11546198D01*
X15767345Y-11546198D01*
X15752596Y-11556053D01*
X15740053Y-11568596D01*
X15730198Y-11583345D01*
X15730198Y-11583345D01*
X15723411Y-11599733D01*
X15723411Y-11599733D01*
X15719950Y-11617131D01*
X15719950Y-11634869D01*
X15723411Y-11652266D01*
X15723411Y-11652267D01*
X15723523Y-11652539D01*
X15730199Y-11668655D01*
X15736589Y-11678218D01*
X15738329Y-11680822D01*
X15739989Y-11686711D01*
X15737872Y-11692451D01*
X15732784Y-11695850D01*
X15730097Y-11696222D01*
X13430453Y-11696222D01*
X13424634Y-11694331D01*
X13421037Y-11689381D01*
X13421037Y-11683263D01*
X13422221Y-11680822D01*
X13430169Y-11668926D01*
X13430169Y-11668926D01*
X13436957Y-11652539D01*
X13440418Y-11635141D01*
X13440418Y-11617403D01*
X13436957Y-11600005D01*
X13430169Y-11583617D01*
X13430169Y-11583617D01*
X13420314Y-11568868D01*
X13407771Y-11556325D01*
X13393022Y-11546470D01*
X13376635Y-11539683D01*
X13359237Y-11536222D01*
X13359237Y-11536222D01*
X13261499Y-11536222D01*
X13261499Y-11536222D01*
X13244101Y-11539683D01*
X13244101Y-11539683D01*
X13227714Y-11546470D01*
X13215818Y-11554419D01*
X13209929Y-11556080D01*
X13204189Y-11553962D01*
X13200790Y-11548874D01*
X13200418Y-11546187D01*
X13200418Y-11452357D01*
X13202309Y-11446538D01*
X13207259Y-11442941D01*
X13213377Y-11442941D01*
X13215818Y-11444125D01*
X13227713Y-11452073D01*
X13244101Y-11458861D01*
X13261499Y-11462322D01*
X13261499Y-11462322D01*
X13359237Y-11462322D01*
X13359237Y-11462322D01*
X13376635Y-11458861D01*
X13393023Y-11452073D01*
X13407771Y-11442218D01*
X13420314Y-11429675D01*
X13430169Y-11414927D01*
X13436957Y-11398539D01*
X13440418Y-11381141D01*
X13440418Y-11363403D01*
X13436957Y-11346005D01*
X13430169Y-11329617D01*
X13430169Y-11329617D01*
X13420314Y-11314868D01*
X13407771Y-11302325D01*
X13393022Y-11292470D01*
X13376635Y-11285683D01*
X13359237Y-11282222D01*
X13359237Y-11282222D01*
X13261499Y-11282222D01*
X13261499Y-11282222D01*
X13244101Y-11285683D01*
X13244101Y-11285683D01*
X13227714Y-11292470D01*
X13215818Y-11300419D01*
X13209929Y-11302080D01*
X13204189Y-11299962D01*
X13200790Y-11294874D01*
X13200418Y-11292187D01*
X13200418Y-11198357D01*
X13202309Y-11192538D01*
X13207259Y-11188941D01*
X13213377Y-11188941D01*
X13215818Y-11190125D01*
X13217535Y-11191273D01*
X13227713Y-11198073D01*
X13227713Y-11198073D01*
X13227713Y-11198073D01*
X13231426Y-11199611D01*
X13244101Y-11204861D01*
X13261499Y-11208322D01*
X13261499Y-11208322D01*
X13359237Y-11208322D01*
X13359237Y-11208322D01*
X13376635Y-11204861D01*
X13393023Y-11198073D01*
X13407771Y-11188218D01*
X13420314Y-11175676D01*
X13430169Y-11160927D01*
X13436957Y-11144539D01*
X13437247Y-11143082D01*
X14244450Y-11143082D01*
X14244450Y-11156918D01*
X14248031Y-11170284D01*
X14254949Y-11182267D01*
X14264733Y-11192050D01*
X14276716Y-11198969D01*
X14290082Y-11202550D01*
X14290082Y-11202550D01*
X14303918Y-11202550D01*
X14303918Y-11202550D01*
X14317284Y-11198969D01*
X14329266Y-11192050D01*
X14339050Y-11182267D01*
X14345969Y-11170284D01*
X14349550Y-11156918D01*
X14349550Y-11143082D01*
X14822450Y-11143082D01*
X14822450Y-11156918D01*
X14826031Y-11170284D01*
X14832949Y-11182267D01*
X14842733Y-11192050D01*
X14854716Y-11198969D01*
X14868082Y-11202550D01*
X14868082Y-11202550D01*
X14881918Y-11202550D01*
X14881918Y-11202550D01*
X14895284Y-11198969D01*
X14907266Y-11192050D01*
X14917050Y-11182267D01*
X14923969Y-11170284D01*
X14927550Y-11156918D01*
X14927550Y-11143082D01*
X14923969Y-11129716D01*
X14917050Y-11117734D01*
X14907266Y-11107950D01*
X14895284Y-11101031D01*
X14881918Y-11097450D01*
X14868082Y-11097450D01*
X14854716Y-11101031D01*
X14842733Y-11107950D01*
X14832949Y-11117734D01*
X14826031Y-11129716D01*
X14822450Y-11143082D01*
X14349550Y-11143082D01*
X14345969Y-11129716D01*
X14339050Y-11117734D01*
X14329266Y-11107950D01*
X14317284Y-11101031D01*
X14303918Y-11097450D01*
X14290082Y-11097450D01*
X14276716Y-11101031D01*
X14264733Y-11107950D01*
X14254949Y-11117734D01*
X14248031Y-11129716D01*
X14244450Y-11143082D01*
X13437247Y-11143082D01*
X13440418Y-11127141D01*
X13440418Y-11109403D01*
X13436957Y-11092005D01*
X13430169Y-11075618D01*
X13430169Y-11075617D01*
X13420314Y-11060869D01*
X13407771Y-11048326D01*
X13393022Y-11038471D01*
X13376635Y-11031683D01*
X13359237Y-11028222D01*
X13359237Y-11028222D01*
X13261499Y-11028222D01*
X13261499Y-11028222D01*
X13244101Y-11031683D01*
X13244101Y-11031683D01*
X13227714Y-11038471D01*
X13215818Y-11046419D01*
X13209929Y-11048080D01*
X13204189Y-11045962D01*
X13200790Y-11040874D01*
X13200418Y-11038187D01*
X13200418Y-10944357D01*
X13202309Y-10938538D01*
X13207259Y-10934941D01*
X13213377Y-10934941D01*
X13215818Y-10936125D01*
X13217535Y-10937273D01*
X13227713Y-10944073D01*
X13244101Y-10950861D01*
X13261499Y-10954322D01*
X13261499Y-10954322D01*
X13359237Y-10954322D01*
X13359237Y-10954322D01*
X13376635Y-10950861D01*
X13393023Y-10944073D01*
X13407771Y-10934218D01*
X13420314Y-10921676D01*
X13430169Y-10906927D01*
X13436957Y-10890539D01*
X13440418Y-10873141D01*
X13440418Y-10855403D01*
X13436957Y-10838005D01*
X13430169Y-10821618D01*
X13430169Y-10821617D01*
X13420314Y-10806869D01*
X13407771Y-10794326D01*
X13393022Y-10784471D01*
X13376635Y-10777683D01*
X13359237Y-10774222D01*
X13359237Y-10774222D01*
X13261499Y-10774222D01*
X13261499Y-10774222D01*
X13244101Y-10777683D01*
X13244101Y-10777683D01*
X13227714Y-10784471D01*
X13215818Y-10792419D01*
X13209929Y-10794080D01*
X13204189Y-10791962D01*
X13200790Y-10786874D01*
X13200418Y-10784187D01*
X13200418Y-10752753D01*
X14294950Y-10752753D01*
X14294950Y-10767247D01*
X14298702Y-10781249D01*
X14305949Y-10793801D01*
X14305949Y-10793801D01*
X14305949Y-10793802D01*
X14316198Y-10804051D01*
X14316199Y-10804051D01*
X14316199Y-10804051D01*
X14328751Y-10811298D01*
X14328751Y-10811298D01*
X14328751Y-10811298D01*
X14342752Y-10815050D01*
X14342753Y-10815050D01*
X14357247Y-10815050D01*
X14357247Y-10815050D01*
X14371248Y-10811298D01*
X14371249Y-10811298D01*
X14371249Y-10811298D01*
X14383801Y-10804051D01*
X14383801Y-10804051D01*
X14383801Y-10804051D01*
X14384903Y-10802949D01*
X14390354Y-10800172D01*
X14391903Y-10800050D01*
X14718197Y-10800050D01*
X14724016Y-10801941D01*
X14727612Y-10806891D01*
X14727612Y-10813009D01*
X14725197Y-10816950D01*
X14720530Y-10821617D01*
X14715949Y-10826199D01*
X14715949Y-10826199D01*
X14708702Y-10838751D01*
X14704950Y-10852753D01*
X14704950Y-10867248D01*
X14705701Y-10870050D01*
X14705380Y-10876160D01*
X14701530Y-10880915D01*
X14695620Y-10882498D01*
X14693576Y-10882174D01*
X14684991Y-10879874D01*
X14670496Y-10879874D01*
X14664323Y-10881528D01*
X14656495Y-10883626D01*
X14643943Y-10890873D01*
X14643943Y-10890873D01*
X14643942Y-10890873D01*
X14643942Y-10890873D01*
X14642841Y-10891975D01*
X14637390Y-10894752D01*
X14635841Y-10894874D01*
X14595592Y-10894874D01*
X14590642Y-10893548D01*
X14582249Y-10888702D01*
X14575248Y-10886826D01*
X14568247Y-10884950D01*
X14553752Y-10884950D01*
X14547579Y-10886604D01*
X14539751Y-10888702D01*
X14527199Y-10895949D01*
X14516949Y-10906199D01*
X14509702Y-10918751D01*
X14505950Y-10932753D01*
X14505950Y-10947247D01*
X14509702Y-10961249D01*
X14516949Y-10973801D01*
X14516949Y-10973801D01*
X14516949Y-10973802D01*
X14527198Y-10984051D01*
X14527199Y-10984051D01*
X14527199Y-10984051D01*
X14539751Y-10991298D01*
X14539751Y-10991298D01*
X14539751Y-10991298D01*
X14553752Y-10995050D01*
X14553753Y-10995050D01*
X14568247Y-10995050D01*
X14568247Y-10995050D01*
X14582248Y-10991298D01*
X14582249Y-10991298D01*
X14582249Y-10991298D01*
X14594801Y-10984051D01*
X14594801Y-10984051D01*
X14594801Y-10984051D01*
X14597890Y-10980962D01*
X14600979Y-10977874D01*
X14606430Y-10975096D01*
X14607979Y-10974974D01*
X14635841Y-10974974D01*
X14641660Y-10976865D01*
X14642841Y-10977873D01*
X14643942Y-10978975D01*
X14643943Y-10978975D01*
X14643943Y-10978975D01*
X14656495Y-10986222D01*
X14656495Y-10986222D01*
X14656495Y-10986223D01*
X14670496Y-10989974D01*
X14670497Y-10989974D01*
X14684991Y-10989974D01*
X14684991Y-10989974D01*
X14698992Y-10986223D01*
X14698993Y-10986222D01*
X14698993Y-10986222D01*
X14711545Y-10978975D01*
X14711545Y-10978975D01*
X14711545Y-10978975D01*
X14721795Y-10968726D01*
X14729042Y-10956173D01*
X14732794Y-10942172D01*
X14732794Y-10927677D01*
X14732043Y-10924875D01*
X14732363Y-10918765D01*
X14736214Y-10914010D01*
X14742124Y-10912426D01*
X14744168Y-10912750D01*
X14752752Y-10915050D01*
X14752752Y-10915050D01*
X14752752Y-10915050D01*
X14767247Y-10915050D01*
X14767247Y-10915050D01*
X14781248Y-10911298D01*
X14781249Y-10911298D01*
X14781249Y-10911298D01*
X14793801Y-10904051D01*
X14793801Y-10904051D01*
X14793801Y-10904051D01*
X14794903Y-10902949D01*
X14800354Y-10900172D01*
X14801903Y-10900050D01*
X14848097Y-10900050D01*
X14853916Y-10901941D01*
X14855097Y-10902949D01*
X14856198Y-10904051D01*
X14856199Y-10904051D01*
X14856199Y-10904051D01*
X14868751Y-10911298D01*
X14868751Y-10911298D01*
X14868751Y-10911298D01*
X14882752Y-10915050D01*
X14882753Y-10915050D01*
X14897247Y-10915050D01*
X14897247Y-10915050D01*
X14911248Y-10911298D01*
X14911249Y-10911298D01*
X14911249Y-10911298D01*
X14923801Y-10904051D01*
X14923801Y-10904051D01*
X14923801Y-10904051D01*
X14934051Y-10893802D01*
X14935935Y-10890539D01*
X14941298Y-10881249D01*
X14941298Y-10881249D01*
X14941298Y-10881249D01*
X14945050Y-10867248D01*
X14945050Y-10852753D01*
X14941298Y-10838752D01*
X14941298Y-10838751D01*
X14941298Y-10838751D01*
X14934051Y-10826199D01*
X14934051Y-10826199D01*
X14934051Y-10826199D01*
X14931888Y-10824036D01*
X14929111Y-10818584D01*
X14930068Y-10812541D01*
X14934394Y-10808215D01*
X14940437Y-10807258D01*
X14943839Y-10808462D01*
X14948751Y-10811298D01*
X14948751Y-10811298D01*
X14948751Y-10811298D01*
X14962752Y-10815050D01*
X14962753Y-10815050D01*
X14977247Y-10815050D01*
X14977247Y-10815050D01*
X14991248Y-10811298D01*
X14991249Y-10811298D01*
X14991249Y-10811298D01*
X15003801Y-10804051D01*
X15003801Y-10804051D01*
X15003801Y-10804051D01*
X15014051Y-10793802D01*
X15019438Y-10784471D01*
X15021298Y-10781249D01*
X15021298Y-10781249D01*
X15021298Y-10781249D01*
X15025050Y-10767248D01*
X15025050Y-10752753D01*
X15021298Y-10738752D01*
X15021298Y-10738751D01*
X15021298Y-10738751D01*
X15014051Y-10726199D01*
X15014051Y-10726199D01*
X15014051Y-10726199D01*
X15003801Y-10715949D01*
X15003801Y-10715949D01*
X15003801Y-10715949D01*
X14991249Y-10708702D01*
X14991249Y-10708702D01*
X14988290Y-10707909D01*
X14977247Y-10704950D01*
X14962752Y-10704950D01*
X14956579Y-10706604D01*
X14948751Y-10708702D01*
X14936199Y-10715949D01*
X14936199Y-10715949D01*
X14936198Y-10715949D01*
X14936198Y-10715949D01*
X14935097Y-10717051D01*
X14929646Y-10719828D01*
X14928097Y-10719950D01*
X14391903Y-10719950D01*
X14386084Y-10718059D01*
X14384903Y-10717051D01*
X14383801Y-10715949D01*
X14383801Y-10715949D01*
X14383801Y-10715949D01*
X14371249Y-10708702D01*
X14371249Y-10708702D01*
X14368290Y-10707909D01*
X14357247Y-10704950D01*
X14342752Y-10704950D01*
X14336579Y-10706604D01*
X14328751Y-10708702D01*
X14316199Y-10715949D01*
X14305949Y-10726199D01*
X14298702Y-10738751D01*
X14294950Y-10752753D01*
X13200418Y-10752753D01*
X13200418Y-10690357D01*
X13202309Y-10684538D01*
X13207259Y-10680941D01*
X13213377Y-10680941D01*
X13215818Y-10682125D01*
X13217535Y-10683273D01*
X13227713Y-10690073D01*
X13244101Y-10696861D01*
X13261499Y-10700322D01*
X13261499Y-10700322D01*
X13359237Y-10700322D01*
X13359237Y-10700322D01*
X13376635Y-10696861D01*
X13393023Y-10690073D01*
X13407771Y-10680218D01*
X13420314Y-10667676D01*
X13430169Y-10652927D01*
X13436957Y-10636539D01*
X13440418Y-10619141D01*
X13440418Y-10601403D01*
X13436957Y-10584005D01*
X13433563Y-10575811D01*
X13430169Y-10567618D01*
X13430169Y-10567617D01*
X13420314Y-10552869D01*
X13407771Y-10540326D01*
X13393022Y-10530471D01*
X13376635Y-10523683D01*
X13359237Y-10520222D01*
X13359237Y-10520222D01*
X13261499Y-10520222D01*
X13261499Y-10520222D01*
X13244101Y-10523683D01*
X13244101Y-10523683D01*
X13227714Y-10530471D01*
X13215818Y-10538419D01*
X13209929Y-10540080D01*
X13204189Y-10537962D01*
X13200790Y-10532874D01*
X13200418Y-10530187D01*
X13200418Y-10502753D01*
X14654950Y-10502753D01*
X14654950Y-10517247D01*
X14658702Y-10531249D01*
X14665949Y-10543801D01*
X14665949Y-10543801D01*
X14665949Y-10543802D01*
X14676198Y-10554051D01*
X14676199Y-10554051D01*
X14676199Y-10554051D01*
X14688751Y-10561298D01*
X14688751Y-10561298D01*
X14688751Y-10561298D01*
X14702752Y-10565050D01*
X14704310Y-10565050D01*
X14710129Y-10566941D01*
X14711310Y-10567950D01*
X14747952Y-10604591D01*
X14747952Y-10604591D01*
X14755409Y-10612048D01*
X14764541Y-10617321D01*
X14774727Y-10620050D01*
X14898097Y-10620050D01*
X14903916Y-10621941D01*
X14905097Y-10622949D01*
X14906198Y-10624051D01*
X14906199Y-10624051D01*
X14906199Y-10624051D01*
X14918751Y-10631298D01*
X14918751Y-10631298D01*
X14918751Y-10631298D01*
X14932752Y-10635050D01*
X14932753Y-10635050D01*
X14947247Y-10635050D01*
X14947247Y-10635050D01*
X14961248Y-10631298D01*
X14961249Y-10631298D01*
X14961249Y-10631298D01*
X14973801Y-10624051D01*
X14973801Y-10624051D01*
X14973801Y-10624051D01*
X14984051Y-10613802D01*
X14985063Y-10612048D01*
X14991298Y-10601249D01*
X14991298Y-10601249D01*
X14991298Y-10601249D01*
X14995050Y-10587248D01*
X14995050Y-10572753D01*
X14991298Y-10558752D01*
X14991298Y-10558751D01*
X14991298Y-10558751D01*
X14984051Y-10546199D01*
X14984051Y-10546199D01*
X14984051Y-10546199D01*
X14973801Y-10535949D01*
X14973801Y-10535949D01*
X14973801Y-10535949D01*
X14961249Y-10528702D01*
X14961249Y-10528702D01*
X14958290Y-10527909D01*
X14947247Y-10524950D01*
X14932752Y-10524950D01*
X14926579Y-10526604D01*
X14918751Y-10528702D01*
X14906199Y-10535949D01*
X14906199Y-10535949D01*
X14906198Y-10535949D01*
X14906198Y-10535949D01*
X14905097Y-10537051D01*
X14899646Y-10539828D01*
X14898097Y-10539950D01*
X14800690Y-10539950D01*
X14794871Y-10538059D01*
X14793690Y-10537050D01*
X14767950Y-10511310D01*
X14765172Y-10505859D01*
X14765050Y-10504310D01*
X14765050Y-10502753D01*
X14761298Y-10488752D01*
X14761298Y-10488751D01*
X14761298Y-10488751D01*
X14754051Y-10476199D01*
X14754051Y-10476199D01*
X14754051Y-10476199D01*
X14743801Y-10465949D01*
X14743801Y-10465949D01*
X14743801Y-10465949D01*
X14731249Y-10458702D01*
X14731249Y-10458702D01*
X14728290Y-10457909D01*
X14717247Y-10454950D01*
X14702752Y-10454950D01*
X14696579Y-10456604D01*
X14688751Y-10458702D01*
X14676199Y-10465949D01*
X14665949Y-10476199D01*
X14658702Y-10488751D01*
X14654950Y-10502753D01*
X13200418Y-10502753D01*
X13200418Y-10182357D01*
X13202309Y-10176538D01*
X13207259Y-10172941D01*
X13213377Y-10172941D01*
X13215818Y-10174125D01*
X13216719Y-10174727D01*
X13227713Y-10182073D01*
X13244101Y-10188861D01*
X13261499Y-10192322D01*
X13261499Y-10192322D01*
X13359237Y-10192322D01*
X13359237Y-10192322D01*
X13376635Y-10188861D01*
X13393023Y-10182073D01*
X13407771Y-10172218D01*
X13420314Y-10159676D01*
X13430169Y-10144927D01*
X13436957Y-10128539D01*
X13438108Y-10122753D01*
X13884950Y-10122753D01*
X13884950Y-10137248D01*
X13887008Y-10144926D01*
X13888702Y-10151249D01*
X13895949Y-10163801D01*
X13895949Y-10163801D01*
X13895949Y-10163802D01*
X13906198Y-10174051D01*
X13906199Y-10174051D01*
X13906199Y-10174051D01*
X13918751Y-10181298D01*
X13918751Y-10181298D01*
X13918751Y-10181298D01*
X13932752Y-10185050D01*
X13932753Y-10185050D01*
X13947247Y-10185050D01*
X13947247Y-10185050D01*
X13961248Y-10181298D01*
X13961249Y-10181298D01*
X13961249Y-10181298D01*
X13973801Y-10174051D01*
X13973801Y-10174051D01*
X13973801Y-10174051D01*
X13984051Y-10163802D01*
X13984051Y-10163801D01*
X13991298Y-10151249D01*
X13991298Y-10151249D01*
X13991298Y-10151249D01*
X13995050Y-10137248D01*
X13995050Y-10135690D01*
X13996941Y-10129871D01*
X13997950Y-10128690D01*
X14003690Y-10122950D01*
X14009141Y-10120172D01*
X14010690Y-10120050D01*
X14098097Y-10120050D01*
X14103916Y-10121941D01*
X14105097Y-10122949D01*
X14106198Y-10124051D01*
X14106199Y-10124051D01*
X14106199Y-10124051D01*
X14118751Y-10131298D01*
X14118751Y-10131298D01*
X14118751Y-10131298D01*
X14118751Y-10131298D01*
X14129666Y-10134223D01*
X14134797Y-10137555D01*
X14136990Y-10143267D01*
X14136666Y-10146348D01*
X14135353Y-10151249D01*
X14134950Y-10152753D01*
X14134950Y-10167248D01*
X14136773Y-10174051D01*
X14138702Y-10181249D01*
X14145949Y-10193801D01*
X14145949Y-10193801D01*
X14145949Y-10193802D01*
X14156198Y-10204051D01*
X14163859Y-10208474D01*
X14167953Y-10213021D01*
X14168593Y-10219106D01*
X14168472Y-10219609D01*
X14164950Y-10232753D01*
X14164950Y-10247247D01*
X14168702Y-10261249D01*
X14175949Y-10273801D01*
X14175949Y-10273801D01*
X14175949Y-10273802D01*
X14186198Y-10284051D01*
X14186199Y-10284051D01*
X14186199Y-10284051D01*
X14198751Y-10291298D01*
X14198751Y-10291298D01*
X14198751Y-10291298D01*
X14212752Y-10295050D01*
X14212753Y-10295050D01*
X14227247Y-10295050D01*
X14227247Y-10295050D01*
X14241248Y-10291298D01*
X14241249Y-10291298D01*
X14241249Y-10291298D01*
X14253801Y-10284051D01*
X14253801Y-10284051D01*
X14253801Y-10284051D01*
X14264051Y-10273802D01*
X14266679Y-10269250D01*
X14271298Y-10261249D01*
X14271298Y-10261249D01*
X14271298Y-10261249D01*
X14275050Y-10247248D01*
X14275050Y-10245690D01*
X14276941Y-10239871D01*
X14277949Y-10238690D01*
X14612048Y-9904591D01*
X14616288Y-9897248D01*
X14617320Y-9895459D01*
X14617320Y-9895459D01*
X14617321Y-9895459D01*
X14620050Y-9885273D01*
X14620050Y-9874727D01*
X14620050Y-9525890D01*
X14621941Y-9520071D01*
X14626891Y-9516475D01*
X14633009Y-9516475D01*
X14637959Y-9520071D01*
X14638524Y-9520940D01*
X14645949Y-9533801D01*
X14645949Y-9533801D01*
X14645949Y-9533802D01*
X14656198Y-9544051D01*
X14656199Y-9544051D01*
X14656199Y-9544051D01*
X14668751Y-9551298D01*
X14668751Y-9551298D01*
X14668751Y-9551298D01*
X14682752Y-9555050D01*
X14682753Y-9555050D01*
X14697247Y-9555050D01*
X14697247Y-9555050D01*
X14711248Y-9551298D01*
X14711249Y-9551298D01*
X14711249Y-9551298D01*
X14723801Y-9544051D01*
X14723801Y-9544051D01*
X14723801Y-9544051D01*
X14734051Y-9533802D01*
X14734051Y-9533801D01*
X14741298Y-9521249D01*
X14741298Y-9521249D01*
X14741298Y-9521249D01*
X14745050Y-9507248D01*
X14745050Y-9492753D01*
X14741298Y-9478752D01*
X14741298Y-9478751D01*
X14741298Y-9478751D01*
X14734051Y-9466199D01*
X14734051Y-9466199D01*
X14734051Y-9466199D01*
X14723801Y-9455949D01*
X14719687Y-9453574D01*
X14715593Y-9449027D01*
X14714953Y-9442942D01*
X14718013Y-9437643D01*
X14719687Y-9436426D01*
X14723801Y-9434051D01*
X14734051Y-9423802D01*
X14734656Y-9422753D01*
X15114950Y-9422753D01*
X15114950Y-9437248D01*
X15116476Y-9442942D01*
X15118702Y-9451249D01*
X15125949Y-9463801D01*
X15125949Y-9463801D01*
X15125949Y-9463802D01*
X15136198Y-9474051D01*
X15136199Y-9474051D01*
X15136199Y-9474051D01*
X15148751Y-9481298D01*
X15148751Y-9481298D01*
X15148751Y-9481298D01*
X15162752Y-9485050D01*
X15164310Y-9485050D01*
X15170129Y-9486941D01*
X15171310Y-9487950D01*
X15307050Y-9623690D01*
X15309828Y-9629141D01*
X15309950Y-9630690D01*
X15309950Y-10174727D01*
X15309950Y-10185273D01*
X15310912Y-10188861D01*
X15312679Y-10195459D01*
X15317952Y-10204591D01*
X15317952Y-10204591D01*
X15317952Y-10204591D01*
X15352050Y-10238690D01*
X15354828Y-10244141D01*
X15354950Y-10245690D01*
X15354950Y-10247247D01*
X15358702Y-10261249D01*
X15365949Y-10273801D01*
X15365949Y-10273801D01*
X15365949Y-10273802D01*
X15376198Y-10284051D01*
X15376199Y-10284051D01*
X15376199Y-10284051D01*
X15388751Y-10291298D01*
X15388751Y-10291298D01*
X15388751Y-10291298D01*
X15402752Y-10295050D01*
X15402753Y-10295050D01*
X15417247Y-10295050D01*
X15417247Y-10295050D01*
X15431248Y-10291298D01*
X15431249Y-10291298D01*
X15431249Y-10291298D01*
X15443801Y-10284051D01*
X15443801Y-10284051D01*
X15443801Y-10284051D01*
X15454051Y-10273802D01*
X15456679Y-10269250D01*
X15461298Y-10261249D01*
X15461298Y-10261249D01*
X15461298Y-10261249D01*
X15465050Y-10247248D01*
X15465050Y-10232753D01*
X15461298Y-10218752D01*
X15461298Y-10218751D01*
X15461298Y-10218751D01*
X15454051Y-10206199D01*
X15454051Y-10206199D01*
X15454051Y-10206199D01*
X15443801Y-10195949D01*
X15443801Y-10195949D01*
X15443801Y-10195949D01*
X15431249Y-10188702D01*
X15431249Y-10188702D01*
X15423921Y-10186738D01*
X15417247Y-10184950D01*
X15417247Y-10184950D01*
X15415690Y-10184950D01*
X15409871Y-10183059D01*
X15408690Y-10182050D01*
X15392950Y-10166310D01*
X15390172Y-10160859D01*
X15390050Y-10159310D01*
X15390050Y-10115890D01*
X15391941Y-10110071D01*
X15396891Y-10106475D01*
X15403009Y-10106475D01*
X15407959Y-10110071D01*
X15408524Y-10110940D01*
X15415949Y-10123801D01*
X15415949Y-10123801D01*
X15415949Y-10123802D01*
X15426198Y-10134051D01*
X15426199Y-10134051D01*
X15426199Y-10134051D01*
X15438751Y-10141298D01*
X15438751Y-10141298D01*
X15438751Y-10141298D01*
X15452752Y-10145050D01*
X15452753Y-10145050D01*
X15467247Y-10145050D01*
X15467247Y-10145050D01*
X15481248Y-10141298D01*
X15481249Y-10141298D01*
X15481249Y-10141298D01*
X15493801Y-10134051D01*
X15493801Y-10134051D01*
X15493801Y-10134051D01*
X15504051Y-10123802D01*
X15504051Y-10123801D01*
X15511298Y-10111249D01*
X15511298Y-10111249D01*
X15511298Y-10111249D01*
X15515050Y-10097248D01*
X15515050Y-10082753D01*
X15511298Y-10068752D01*
X15511298Y-10068751D01*
X15511298Y-10068751D01*
X15504051Y-10056199D01*
X15504051Y-10056198D01*
X15502949Y-10055097D01*
X15500172Y-10049645D01*
X15501129Y-10043602D01*
X15502172Y-10041972D01*
X15505416Y-10037852D01*
X15501743Y-10032408D01*
X15500056Y-10026527D01*
X15502148Y-10020777D01*
X15507220Y-10017355D01*
X15513335Y-10017568D01*
X15518523Y-10021921D01*
X15521599Y-10027248D01*
X15522952Y-10029591D01*
X15522952Y-10029591D01*
X15524663Y-10031303D01*
X15527226Y-10035741D01*
X15528702Y-10041249D01*
X15528702Y-10041249D01*
X15535949Y-10053801D01*
X15535949Y-10053801D01*
X15535949Y-10053802D01*
X15546198Y-10064051D01*
X15546199Y-10064051D01*
X15546199Y-10064051D01*
X15558751Y-10071298D01*
X15558751Y-10071298D01*
X15558751Y-10071298D01*
X15572752Y-10075050D01*
X15572753Y-10075050D01*
X15587247Y-10075050D01*
X15587247Y-10075050D01*
X15601248Y-10071298D01*
X15601249Y-10071298D01*
X15601249Y-10071298D01*
X15613801Y-10064051D01*
X15613801Y-10064051D01*
X15613801Y-10064051D01*
X15624051Y-10053802D01*
X15624977Y-10052198D01*
X15631298Y-10041249D01*
X15631298Y-10041249D01*
X15631298Y-10041249D01*
X15635050Y-10027248D01*
X15635050Y-10012753D01*
X15631298Y-9998752D01*
X15631298Y-9998751D01*
X15631298Y-9998751D01*
X15624051Y-9986199D01*
X15624051Y-9986199D01*
X15624051Y-9986199D01*
X15613801Y-9975949D01*
X15613801Y-9975949D01*
X15613801Y-9975949D01*
X15601249Y-9968702D01*
X15601161Y-9968666D01*
X15601110Y-9968621D01*
X15600687Y-9968377D01*
X15600732Y-9968299D01*
X15596509Y-9964692D01*
X15595050Y-9959519D01*
X15595050Y-9794950D01*
X15596941Y-9789131D01*
X15601891Y-9785535D01*
X15604950Y-9785050D01*
X15617247Y-9785050D01*
X15617247Y-9785050D01*
X15631248Y-9781298D01*
X15631249Y-9781298D01*
X15631249Y-9781298D01*
X15643801Y-9774051D01*
X15643801Y-9774051D01*
X15643801Y-9774051D01*
X15654051Y-9763802D01*
X15655274Y-9761683D01*
X15661298Y-9751249D01*
X15661298Y-9751249D01*
X15661298Y-9751249D01*
X15665050Y-9737248D01*
X15665050Y-9722753D01*
X15661298Y-9708752D01*
X15661298Y-9708751D01*
X15661298Y-9708751D01*
X15654051Y-9696199D01*
X15654051Y-9696198D01*
X15652949Y-9695097D01*
X15650172Y-9689645D01*
X15650050Y-9688097D01*
X15650050Y-9511903D01*
X15651941Y-9506084D01*
X15652949Y-9504903D01*
X15654051Y-9503802D01*
X15661298Y-9491249D01*
X15665050Y-9477248D01*
X15665050Y-9462753D01*
X15661298Y-9448752D01*
X15661298Y-9448751D01*
X15661298Y-9448751D01*
X15654051Y-9436199D01*
X15654051Y-9436199D01*
X15654051Y-9436199D01*
X15643801Y-9425949D01*
X15643801Y-9425949D01*
X15643801Y-9425949D01*
X15631249Y-9418702D01*
X15631249Y-9418702D01*
X15624950Y-9417014D01*
X15617247Y-9414950D01*
X15604950Y-9414950D01*
X15599131Y-9413059D01*
X15595534Y-9408109D01*
X15595050Y-9405050D01*
X15595050Y-9296903D01*
X15596941Y-9291084D01*
X15597949Y-9289903D01*
X15599051Y-9288802D01*
X15599051Y-9288801D01*
X15606298Y-9276249D01*
X15606298Y-9276249D01*
X15606298Y-9276249D01*
X15610050Y-9262248D01*
X15610050Y-9247753D01*
X15606298Y-9233752D01*
X15606298Y-9233751D01*
X15606298Y-9233751D01*
X15599051Y-9221199D01*
X15599051Y-9221199D01*
X15599051Y-9221199D01*
X15588801Y-9210949D01*
X15588801Y-9210949D01*
X15588801Y-9210949D01*
X15576249Y-9203702D01*
X15576249Y-9203702D01*
X15573290Y-9202909D01*
X15562247Y-9199950D01*
X15547752Y-9199950D01*
X15541579Y-9201604D01*
X15533751Y-9203702D01*
X15521199Y-9210949D01*
X15510949Y-9221199D01*
X15503702Y-9233751D01*
X15503702Y-9233752D01*
X15499950Y-9247753D01*
X15499950Y-9262248D01*
X15502302Y-9271025D01*
X15503702Y-9276249D01*
X15510949Y-9288801D01*
X15510949Y-9288801D01*
X15510949Y-9288802D01*
X15512050Y-9289903D01*
X15514828Y-9295354D01*
X15514950Y-9296903D01*
X15514950Y-9548129D01*
X15513059Y-9553948D01*
X15508109Y-9557544D01*
X15501991Y-9557544D01*
X15497041Y-9553948D01*
X15496476Y-9553079D01*
X15492048Y-9545409D01*
X15492048Y-9545409D01*
X15492048Y-9545409D01*
X15492048Y-9545409D01*
X15317950Y-9371310D01*
X15315172Y-9365859D01*
X15315050Y-9364310D01*
X15315050Y-9362753D01*
X15312986Y-9355050D01*
X15311298Y-9348752D01*
X15311298Y-9348751D01*
X15311298Y-9348751D01*
X15304051Y-9336199D01*
X15304051Y-9336199D01*
X15304051Y-9336199D01*
X15293801Y-9325949D01*
X15293801Y-9325949D01*
X15293801Y-9325949D01*
X15281249Y-9318702D01*
X15281249Y-9318702D01*
X15278290Y-9317909D01*
X15267247Y-9314950D01*
X15252752Y-9314950D01*
X15246579Y-9316604D01*
X15238751Y-9318702D01*
X15226199Y-9325949D01*
X15215949Y-9336199D01*
X15208702Y-9348751D01*
X15204950Y-9362753D01*
X15204950Y-9369561D01*
X15203059Y-9375380D01*
X15198109Y-9378976D01*
X15191991Y-9378976D01*
X15191262Y-9378707D01*
X15191250Y-9378702D01*
X15191248Y-9378702D01*
X15177247Y-9374950D01*
X15162752Y-9374950D01*
X15156579Y-9376604D01*
X15148751Y-9378702D01*
X15136199Y-9385949D01*
X15125949Y-9396199D01*
X15118702Y-9408751D01*
X15118032Y-9411249D01*
X15114950Y-9422753D01*
X14734656Y-9422753D01*
X14736995Y-9418702D01*
X14737889Y-9417154D01*
X14741298Y-9411249D01*
X14741298Y-9411249D01*
X14745050Y-9397248D01*
X14745050Y-9382753D01*
X14741298Y-9368752D01*
X14741298Y-9368751D01*
X14741298Y-9368751D01*
X14734051Y-9356199D01*
X14734051Y-9356199D01*
X14734051Y-9356199D01*
X14723801Y-9345949D01*
X14723801Y-9345949D01*
X14723801Y-9345949D01*
X14711027Y-9338574D01*
X14706933Y-9334027D01*
X14706293Y-9327942D01*
X14709352Y-9322643D01*
X14711027Y-9321426D01*
X14723801Y-9314051D01*
X14723801Y-9314051D01*
X14723801Y-9314051D01*
X14734051Y-9303802D01*
X14734051Y-9303801D01*
X14741298Y-9291249D01*
X14741298Y-9291249D01*
X14741298Y-9291249D01*
X14745050Y-9277248D01*
X14745050Y-9262753D01*
X14741298Y-9248752D01*
X14741298Y-9248751D01*
X14741298Y-9248751D01*
X14734051Y-9236199D01*
X14734051Y-9236199D01*
X14734051Y-9236199D01*
X14723801Y-9225949D01*
X14723801Y-9225949D01*
X14723801Y-9225949D01*
X14711249Y-9218702D01*
X14711249Y-9218702D01*
X14708290Y-9217909D01*
X14697247Y-9214950D01*
X14682752Y-9214950D01*
X14676579Y-9216604D01*
X14668751Y-9218702D01*
X14656199Y-9225949D01*
X14645949Y-9236199D01*
X14638524Y-9249060D01*
X14633977Y-9253154D01*
X14627892Y-9253793D01*
X14622593Y-9250734D01*
X14620104Y-9245144D01*
X14620050Y-9244110D01*
X14620050Y-8711903D01*
X14621941Y-8706084D01*
X14622949Y-8704903D01*
X14624051Y-8703802D01*
X14624051Y-8703801D01*
X14631298Y-8691249D01*
X14631298Y-8691249D01*
X14631298Y-8691249D01*
X14635050Y-8677248D01*
X14635050Y-8662753D01*
X14631298Y-8648752D01*
X14631298Y-8648751D01*
X14631298Y-8648751D01*
X14624051Y-8636199D01*
X14624051Y-8636199D01*
X14624051Y-8636199D01*
X14613801Y-8625949D01*
X14613801Y-8625949D01*
X14613801Y-8625949D01*
X14601249Y-8618702D01*
X14601249Y-8618702D01*
X14598290Y-8617909D01*
X14587247Y-8614950D01*
X14587247Y-8614950D01*
X14583235Y-8614950D01*
X14577416Y-8613059D01*
X14573820Y-8608109D01*
X14573673Y-8607615D01*
X14571298Y-8598752D01*
X14571298Y-8598751D01*
X14571298Y-8598751D01*
X14564051Y-8586199D01*
X14564051Y-8586199D01*
X14564051Y-8586199D01*
X14553801Y-8575949D01*
X14553801Y-8575949D01*
X14553801Y-8575949D01*
X14541249Y-8568702D01*
X14541249Y-8568702D01*
X14538290Y-8567909D01*
X14527247Y-8564950D01*
X14512752Y-8564950D01*
X14506579Y-8566604D01*
X14498751Y-8568702D01*
X14486199Y-8575949D01*
X14475949Y-8586199D01*
X14468702Y-8598751D01*
X14464950Y-8612753D01*
X14464950Y-8627248D01*
X14467909Y-8638290D01*
X14468702Y-8641249D01*
X14475949Y-8653801D01*
X14475949Y-8653801D01*
X14475949Y-8653802D01*
X14477050Y-8654903D01*
X14479828Y-8660354D01*
X14479950Y-8661903D01*
X14479950Y-9809310D01*
X14478059Y-9815129D01*
X14477050Y-9816310D01*
X14211950Y-10081410D01*
X14206499Y-10084188D01*
X14200455Y-10083231D01*
X14196129Y-10078904D01*
X14195050Y-10074410D01*
X14195050Y-10072753D01*
X14192734Y-10064110D01*
X14191298Y-10058752D01*
X14191298Y-10058751D01*
X14191298Y-10058751D01*
X14184051Y-10046199D01*
X14184051Y-10046199D01*
X14184051Y-10046199D01*
X14173801Y-10035949D01*
X14173801Y-10035949D01*
X14173801Y-10035949D01*
X14161249Y-10028702D01*
X14161249Y-10028702D01*
X14153132Y-10026527D01*
X14147247Y-10024950D01*
X14132752Y-10024950D01*
X14126867Y-10026527D01*
X14118751Y-10028702D01*
X14106199Y-10035949D01*
X14106199Y-10035949D01*
X14106198Y-10035949D01*
X14106198Y-10035949D01*
X14105097Y-10037051D01*
X14099646Y-10039828D01*
X14098097Y-10039950D01*
X13995273Y-10039950D01*
X13984727Y-10039950D01*
X13974541Y-10042679D01*
X13974541Y-10042679D01*
X13974541Y-10042679D01*
X13971230Y-10044591D01*
X13965408Y-10047952D01*
X13957952Y-10055408D01*
X13957952Y-10055409D01*
X13948216Y-10065144D01*
X13941310Y-10072050D01*
X13935859Y-10074828D01*
X13934310Y-10074950D01*
X13932752Y-10074950D01*
X13926579Y-10076604D01*
X13918751Y-10078702D01*
X13906199Y-10085949D01*
X13895949Y-10096199D01*
X13888702Y-10108751D01*
X13888061Y-10111141D01*
X13884950Y-10122753D01*
X13438108Y-10122753D01*
X13440418Y-10111141D01*
X13440418Y-10093403D01*
X13436957Y-10076005D01*
X13430169Y-10059618D01*
X13430169Y-10059617D01*
X13420314Y-10044869D01*
X13407771Y-10032326D01*
X13393022Y-10022471D01*
X13376635Y-10015683D01*
X13359237Y-10012222D01*
X13359237Y-10012222D01*
X13261499Y-10012222D01*
X13261499Y-10012222D01*
X13244101Y-10015683D01*
X13244101Y-10015683D01*
X13227714Y-10022471D01*
X13215818Y-10030419D01*
X13209929Y-10032080D01*
X13204189Y-10029962D01*
X13200790Y-10024874D01*
X13200418Y-10022187D01*
X13200418Y-9928357D01*
X13202309Y-9922538D01*
X13207259Y-9918941D01*
X13213377Y-9918941D01*
X13215818Y-9920125D01*
X13217535Y-9921273D01*
X13227713Y-9928073D01*
X13244101Y-9934861D01*
X13261499Y-9938322D01*
X13261499Y-9938322D01*
X13359237Y-9938322D01*
X13359237Y-9938322D01*
X13376635Y-9934861D01*
X13393023Y-9928073D01*
X13407771Y-9918218D01*
X13420314Y-9905676D01*
X13430169Y-9890927D01*
X13433555Y-9882753D01*
X13724950Y-9882753D01*
X13724950Y-9897247D01*
X13728702Y-9911249D01*
X13735949Y-9923801D01*
X13735949Y-9923801D01*
X13735949Y-9923802D01*
X13746198Y-9934051D01*
X13746199Y-9934051D01*
X13746199Y-9934051D01*
X13758751Y-9941298D01*
X13758751Y-9941298D01*
X13758751Y-9941298D01*
X13772752Y-9945050D01*
X13772753Y-9945050D01*
X13787247Y-9945050D01*
X13787247Y-9945050D01*
X13801248Y-9941298D01*
X13801249Y-9941298D01*
X13801249Y-9941298D01*
X13813801Y-9934051D01*
X13813801Y-9934051D01*
X13813801Y-9934051D01*
X13824051Y-9923802D01*
X13826857Y-9918941D01*
X13831298Y-9911249D01*
X13831298Y-9911249D01*
X13831298Y-9911249D01*
X13835050Y-9897248D01*
X13835050Y-9882753D01*
X13831298Y-9868752D01*
X13831298Y-9868751D01*
X13831298Y-9868751D01*
X13824051Y-9856199D01*
X13824051Y-9856199D01*
X13824051Y-9856199D01*
X13813801Y-9845949D01*
X13813801Y-9845949D01*
X13813801Y-9845949D01*
X13801249Y-9838702D01*
X13801249Y-9838702D01*
X13798290Y-9837909D01*
X13787247Y-9834950D01*
X13772752Y-9834950D01*
X13766579Y-9836604D01*
X13758751Y-9838702D01*
X13746199Y-9845949D01*
X13735949Y-9856199D01*
X13728702Y-9868751D01*
X13724950Y-9882753D01*
X13433555Y-9882753D01*
X13436957Y-9874539D01*
X13440418Y-9857141D01*
X13440418Y-9839403D01*
X13436957Y-9822005D01*
X13430169Y-9805618D01*
X13430169Y-9805617D01*
X13420314Y-9790869D01*
X13407771Y-9778326D01*
X13393022Y-9768471D01*
X13376635Y-9761683D01*
X13359237Y-9758222D01*
X13359237Y-9758222D01*
X13261499Y-9758222D01*
X13261499Y-9758222D01*
X13244101Y-9761683D01*
X13244101Y-9761683D01*
X13227714Y-9768471D01*
X13215818Y-9776419D01*
X13209929Y-9778080D01*
X13204189Y-9775962D01*
X13200790Y-9770874D01*
X13200418Y-9768187D01*
X13200418Y-9674357D01*
X13202309Y-9668538D01*
X13207259Y-9664941D01*
X13213377Y-9664941D01*
X13215818Y-9666125D01*
X13217535Y-9667273D01*
X13227713Y-9674073D01*
X13244101Y-9680861D01*
X13261499Y-9684322D01*
X13261499Y-9684322D01*
X13359237Y-9684322D01*
X13359237Y-9684322D01*
X13376635Y-9680861D01*
X13393023Y-9674073D01*
X13407771Y-9664218D01*
X13420314Y-9651676D01*
X13430169Y-9636927D01*
X13436957Y-9620539D01*
X13440418Y-9603141D01*
X13440418Y-9585403D01*
X13436957Y-9568005D01*
X13430169Y-9551618D01*
X13430169Y-9551617D01*
X13420314Y-9536869D01*
X13407771Y-9524326D01*
X13393022Y-9514471D01*
X13376635Y-9507683D01*
X13359237Y-9504222D01*
X13359237Y-9504222D01*
X13261499Y-9504222D01*
X13261499Y-9504222D01*
X13244101Y-9507683D01*
X13244101Y-9507683D01*
X13227714Y-9514471D01*
X13215818Y-9522419D01*
X13209929Y-9524080D01*
X13204189Y-9521962D01*
X13200790Y-9516874D01*
X13200418Y-9514187D01*
X13200418Y-9420357D01*
X13202309Y-9414538D01*
X13207259Y-9410941D01*
X13213377Y-9410941D01*
X13215818Y-9412125D01*
X13217216Y-9413059D01*
X13227713Y-9420073D01*
X13244101Y-9426861D01*
X13261499Y-9430322D01*
X13261499Y-9430322D01*
X13359237Y-9430322D01*
X13359237Y-9430322D01*
X13376635Y-9426861D01*
X13393023Y-9420073D01*
X13407771Y-9410218D01*
X13420314Y-9397676D01*
X13430169Y-9382927D01*
X13436957Y-9366539D01*
X13440418Y-9349141D01*
X13440418Y-9331403D01*
X13436957Y-9314005D01*
X13430169Y-9297618D01*
X13430169Y-9297617D01*
X13424278Y-9288801D01*
X13420798Y-9283593D01*
X13864950Y-9283593D01*
X13864950Y-9296407D01*
X13867450Y-9308974D01*
X13867450Y-9308975D01*
X13872353Y-9320813D01*
X13872354Y-9320813D01*
X13875785Y-9325949D01*
X13879472Y-9331467D01*
X13888533Y-9340528D01*
X13894885Y-9344772D01*
X13899187Y-9347646D01*
X13899187Y-9347646D01*
X13899187Y-9347647D01*
X13911026Y-9352550D01*
X13923593Y-9355050D01*
X13923593Y-9355050D01*
X13936407Y-9355050D01*
X13936407Y-9355050D01*
X13948974Y-9352550D01*
X13960813Y-9347647D01*
X13971467Y-9340528D01*
X13980528Y-9331467D01*
X13987646Y-9320813D01*
X13992550Y-9308974D01*
X13995050Y-9296407D01*
X13995050Y-9283593D01*
X13992550Y-9271026D01*
X13987646Y-9259187D01*
X13987646Y-9259187D01*
X13987646Y-9259187D01*
X13983615Y-9253154D01*
X13980528Y-9248533D01*
X13971467Y-9239472D01*
X13966567Y-9236199D01*
X13960813Y-9232354D01*
X13960812Y-9232353D01*
X13948975Y-9227450D01*
X13948974Y-9227450D01*
X13948974Y-9227450D01*
X13936407Y-9224950D01*
X13923593Y-9224950D01*
X13923593Y-9224950D01*
X13918572Y-9225949D01*
X13911026Y-9227450D01*
X13911025Y-9227450D01*
X13911025Y-9227450D01*
X13899187Y-9232353D01*
X13899187Y-9232354D01*
X13888533Y-9239472D01*
X13888533Y-9239473D01*
X13879473Y-9248533D01*
X13879472Y-9248533D01*
X13872354Y-9259187D01*
X13872353Y-9259187D01*
X13867450Y-9271025D01*
X13867450Y-9271026D01*
X13864950Y-9283593D01*
X13420798Y-9283593D01*
X13420314Y-9282869D01*
X13407771Y-9270326D01*
X13407403Y-9270080D01*
X13393022Y-9260471D01*
X13376635Y-9253683D01*
X13359237Y-9250222D01*
X13359237Y-9250222D01*
X13261499Y-9250222D01*
X13261499Y-9250222D01*
X13244101Y-9253683D01*
X13244101Y-9253683D01*
X13227714Y-9260471D01*
X13215818Y-9268419D01*
X13209929Y-9270080D01*
X13204189Y-9267962D01*
X13200790Y-9262874D01*
X13200418Y-9260187D01*
X13200418Y-9166357D01*
X13202309Y-9160538D01*
X13207259Y-9156941D01*
X13213377Y-9156941D01*
X13215818Y-9158125D01*
X13217535Y-9159273D01*
X13227713Y-9166073D01*
X13244101Y-9172861D01*
X13261499Y-9176322D01*
X13261499Y-9176322D01*
X13359237Y-9176322D01*
X13359237Y-9176322D01*
X13376635Y-9172861D01*
X13393023Y-9166073D01*
X13407771Y-9156218D01*
X13420314Y-9143676D01*
X13427613Y-9132753D01*
X13704950Y-9132753D01*
X13704950Y-9147248D01*
X13707865Y-9158125D01*
X13708702Y-9161249D01*
X13715949Y-9173801D01*
X13715949Y-9173801D01*
X13715949Y-9173802D01*
X13726198Y-9184051D01*
X13726199Y-9184051D01*
X13726199Y-9184051D01*
X13738751Y-9191298D01*
X13738751Y-9191298D01*
X13738751Y-9191298D01*
X13752752Y-9195050D01*
X13752753Y-9195050D01*
X13767247Y-9195050D01*
X13767247Y-9195050D01*
X13781248Y-9191298D01*
X13781249Y-9191298D01*
X13781249Y-9191298D01*
X13793801Y-9184051D01*
X13793801Y-9184051D01*
X13793801Y-9184051D01*
X13804051Y-9173802D01*
X13808349Y-9166357D01*
X13811298Y-9161249D01*
X13811298Y-9161249D01*
X13811298Y-9161249D01*
X13815050Y-9147248D01*
X13815050Y-9132753D01*
X13811298Y-9118752D01*
X13811298Y-9118751D01*
X13811298Y-9118751D01*
X13804051Y-9106199D01*
X13804051Y-9106199D01*
X13804051Y-9106199D01*
X13793801Y-9095949D01*
X13793801Y-9095949D01*
X13793801Y-9095949D01*
X13781249Y-9088702D01*
X13781249Y-9088702D01*
X13778290Y-9087909D01*
X13767247Y-9084950D01*
X13752752Y-9084950D01*
X13746579Y-9086604D01*
X13738751Y-9088702D01*
X13726199Y-9095949D01*
X13715949Y-9106199D01*
X13708702Y-9118751D01*
X13708702Y-9118752D01*
X13704950Y-9132753D01*
X13427613Y-9132753D01*
X13430169Y-9128927D01*
X13430189Y-9128880D01*
X13430423Y-9128315D01*
X13434384Y-9118751D01*
X13436957Y-9112539D01*
X13440418Y-9095141D01*
X13440418Y-9077403D01*
X13436957Y-9060005D01*
X13430169Y-9043618D01*
X13430169Y-9043617D01*
X13420314Y-9028869D01*
X13407771Y-9016326D01*
X13393022Y-9006471D01*
X13376635Y-8999683D01*
X13359237Y-8996222D01*
X13359237Y-8996222D01*
X13261499Y-8996222D01*
X13261499Y-8996222D01*
X13244101Y-8999683D01*
X13244101Y-8999683D01*
X13227714Y-9006471D01*
X13215818Y-9014419D01*
X13209929Y-9016080D01*
X13204189Y-9013962D01*
X13200790Y-9008874D01*
X13200418Y-9006187D01*
X13200418Y-8912357D01*
X13202309Y-8906538D01*
X13207259Y-8902941D01*
X13213377Y-8902941D01*
X13215818Y-8904125D01*
X13217535Y-8905273D01*
X13227713Y-8912073D01*
X13244101Y-8918861D01*
X13261499Y-8922322D01*
X13261499Y-8922322D01*
X13359237Y-8922322D01*
X13359237Y-8922322D01*
X13376635Y-8918861D01*
X13393023Y-8912073D01*
X13406972Y-8902753D01*
X13664950Y-8902753D01*
X13664950Y-8917248D01*
X13666310Y-8922322D01*
X13668702Y-8931249D01*
X13675949Y-8943801D01*
X13675949Y-8943801D01*
X13675949Y-8943802D01*
X13686198Y-8954051D01*
X13686199Y-8954051D01*
X13686199Y-8954051D01*
X13698751Y-8961298D01*
X13698751Y-8961298D01*
X13698751Y-8961298D01*
X13712752Y-8965050D01*
X13712753Y-8965050D01*
X13727247Y-8965050D01*
X13727247Y-8965050D01*
X13741248Y-8961298D01*
X13741249Y-8961298D01*
X13741249Y-8961298D01*
X13753801Y-8954051D01*
X13753801Y-8954051D01*
X13753801Y-8954051D01*
X13764051Y-8943802D01*
X13771298Y-8931249D01*
X13775050Y-8917248D01*
X13775050Y-8915690D01*
X13776941Y-8909871D01*
X13777950Y-8908690D01*
X13903690Y-8782950D01*
X13909141Y-8780172D01*
X13910690Y-8780050D01*
X14098097Y-8780050D01*
X14103916Y-8781941D01*
X14105097Y-8782949D01*
X14106198Y-8784051D01*
X14106199Y-8784051D01*
X14106199Y-8784051D01*
X14118751Y-8791298D01*
X14118751Y-8791298D01*
X14118751Y-8791298D01*
X14132752Y-8795050D01*
X14132753Y-8795050D01*
X14147247Y-8795050D01*
X14147247Y-8795050D01*
X14161248Y-8791298D01*
X14161249Y-8791298D01*
X14161249Y-8791298D01*
X14173801Y-8784051D01*
X14173801Y-8784051D01*
X14173801Y-8784051D01*
X14184051Y-8773802D01*
X14184051Y-8773801D01*
X14191298Y-8761249D01*
X14191298Y-8761249D01*
X14191298Y-8761249D01*
X14195050Y-8747248D01*
X14195050Y-8732753D01*
X14191298Y-8718752D01*
X14191298Y-8718751D01*
X14191298Y-8718751D01*
X14184051Y-8706199D01*
X14184051Y-8706199D01*
X14184051Y-8706199D01*
X14173801Y-8695949D01*
X14173801Y-8695949D01*
X14173801Y-8695949D01*
X14161249Y-8688702D01*
X14161249Y-8688702D01*
X14158290Y-8687909D01*
X14147247Y-8684950D01*
X14132752Y-8684950D01*
X14126579Y-8686604D01*
X14118751Y-8688702D01*
X14106199Y-8695949D01*
X14106199Y-8695949D01*
X14106198Y-8695949D01*
X14106198Y-8695949D01*
X14105097Y-8697051D01*
X14099646Y-8699828D01*
X14098097Y-8699950D01*
X13895273Y-8699950D01*
X13884727Y-8699950D01*
X13878493Y-8701620D01*
X13874541Y-8702679D01*
X13865409Y-8707952D01*
X13721310Y-8852050D01*
X13715859Y-8854828D01*
X13714310Y-8854950D01*
X13712752Y-8854950D01*
X13706579Y-8856604D01*
X13698751Y-8858702D01*
X13686199Y-8865949D01*
X13675949Y-8876199D01*
X13668702Y-8888751D01*
X13668455Y-8889670D01*
X13664950Y-8902753D01*
X13406972Y-8902753D01*
X13407771Y-8902218D01*
X13420314Y-8889676D01*
X13430169Y-8874927D01*
X13436957Y-8858539D01*
X13440418Y-8841141D01*
X13440418Y-8823403D01*
X13436957Y-8806005D01*
X13430866Y-8791298D01*
X13430169Y-8789618D01*
X13430169Y-8789617D01*
X13420314Y-8774869D01*
X13407771Y-8762326D01*
X13393022Y-8752471D01*
X13376635Y-8745683D01*
X13359237Y-8742222D01*
X13359237Y-8742222D01*
X13261499Y-8742222D01*
X13261499Y-8742222D01*
X13244101Y-8745683D01*
X13244101Y-8745683D01*
X13227714Y-8752471D01*
X13215818Y-8760419D01*
X13209929Y-8762080D01*
X13204189Y-8759962D01*
X13200790Y-8754874D01*
X13200418Y-8752187D01*
X13200418Y-8658357D01*
X13202309Y-8652538D01*
X13207259Y-8648941D01*
X13213377Y-8648941D01*
X13215818Y-8650125D01*
X13227713Y-8658073D01*
X13244101Y-8664861D01*
X13261499Y-8668322D01*
X13261499Y-8668322D01*
X13359237Y-8668322D01*
X13359237Y-8668322D01*
X13376635Y-8664861D01*
X13393023Y-8658073D01*
X13407771Y-8648218D01*
X13420314Y-8635676D01*
X13430169Y-8620927D01*
X13436957Y-8604539D01*
X13440418Y-8587141D01*
X13440418Y-8569403D01*
X13436957Y-8552005D01*
X13430169Y-8535618D01*
X13430169Y-8535617D01*
X13420314Y-8520869D01*
X13407771Y-8508326D01*
X13393022Y-8498471D01*
X13376635Y-8491683D01*
X13359237Y-8488222D01*
X13359237Y-8488222D01*
X13261499Y-8488222D01*
X13261499Y-8488222D01*
X13244101Y-8491683D01*
X13244101Y-8491683D01*
X13227714Y-8498471D01*
X13215818Y-8506419D01*
X13209929Y-8508080D01*
X13204189Y-8505962D01*
X13200790Y-8500874D01*
X13200418Y-8498187D01*
X13200418Y-8404357D01*
X13202309Y-8398538D01*
X13207259Y-8394941D01*
X13213377Y-8394941D01*
X13215818Y-8396125D01*
X13217535Y-8397273D01*
X13227713Y-8404073D01*
X13244101Y-8410861D01*
X13261499Y-8414322D01*
X13261499Y-8414322D01*
X13359237Y-8414322D01*
X13359237Y-8414322D01*
X13376635Y-8410861D01*
X13393023Y-8404073D01*
X13407771Y-8394218D01*
X13420314Y-8381675D01*
X13430169Y-8366927D01*
X13436957Y-8350539D01*
X13440418Y-8333141D01*
X13440418Y-8315403D01*
X13436957Y-8298005D01*
X13430169Y-8281617D01*
X13430169Y-8281617D01*
X13420314Y-8266868D01*
X13407771Y-8254325D01*
X13393022Y-8244470D01*
X13376635Y-8237683D01*
X13359237Y-8234222D01*
X13359237Y-8234222D01*
X13261499Y-8234222D01*
X13261499Y-8234222D01*
X13244101Y-8237683D01*
X13244101Y-8237683D01*
X13227714Y-8244470D01*
X13215818Y-8252419D01*
X13209929Y-8254080D01*
X13204189Y-8251962D01*
X13200790Y-8246874D01*
X13200418Y-8244187D01*
X13200418Y-8150357D01*
X13202309Y-8144538D01*
X13207259Y-8140941D01*
X13213377Y-8140941D01*
X13215818Y-8142125D01*
X13217535Y-8143273D01*
X13227713Y-8150073D01*
X13244101Y-8156861D01*
X13261499Y-8160322D01*
X13261499Y-8160322D01*
X13359237Y-8160322D01*
X13359237Y-8160322D01*
X13376635Y-8156861D01*
X13393023Y-8150073D01*
X13407771Y-8140218D01*
X13420314Y-8127675D01*
X13430169Y-8112927D01*
X13436957Y-8096539D01*
X13440418Y-8079141D01*
X13440418Y-8061403D01*
X13436957Y-8044005D01*
X13430169Y-8027617D01*
X13430169Y-8027617D01*
X13420314Y-8012868D01*
X13407771Y-8000325D01*
X13393022Y-7990470D01*
X13376635Y-7983683D01*
X13359237Y-7980222D01*
X13359237Y-7980222D01*
X13261499Y-7980222D01*
X13261499Y-7980222D01*
X13244101Y-7983683D01*
X13244101Y-7983683D01*
X13227714Y-7990470D01*
X13215818Y-7998419D01*
X13209929Y-8000080D01*
X13204189Y-7997962D01*
X13200790Y-7992874D01*
X13200418Y-7990187D01*
X13200418Y-7896357D01*
X13202309Y-7890538D01*
X13207259Y-7886941D01*
X13213377Y-7886941D01*
X13215818Y-7888125D01*
X13217535Y-7889273D01*
X13227713Y-7896073D01*
X13244101Y-7902861D01*
X13261499Y-7906322D01*
X13261499Y-7906322D01*
X13359237Y-7906322D01*
X13359237Y-7906322D01*
X13376635Y-7902861D01*
X13393023Y-7896073D01*
X13407771Y-7886218D01*
X13420314Y-7873675D01*
X13430169Y-7858927D01*
X13436957Y-7842539D01*
X13440418Y-7825141D01*
X13440418Y-7807403D01*
X13436957Y-7790005D01*
X13430169Y-7773617D01*
X13430169Y-7773617D01*
X13420314Y-7758868D01*
X13407771Y-7746325D01*
X13393022Y-7736470D01*
X13376635Y-7729683D01*
X13359237Y-7726222D01*
X13359237Y-7726222D01*
X13261499Y-7726222D01*
X13261499Y-7726222D01*
X13244101Y-7729683D01*
X13244101Y-7729683D01*
X13227714Y-7736470D01*
X13215818Y-7744419D01*
X13209929Y-7746080D01*
X13204189Y-7743962D01*
X13200790Y-7738874D01*
X13200418Y-7736187D01*
X13200418Y-7642357D01*
X13202309Y-7636538D01*
X13207259Y-7632941D01*
X13213377Y-7632941D01*
X13215818Y-7634125D01*
X13217535Y-7635273D01*
X13227713Y-7642073D01*
X13244101Y-7648861D01*
X13261499Y-7652322D01*
X13261499Y-7652322D01*
X13359237Y-7652322D01*
X13359237Y-7652322D01*
X13376635Y-7648861D01*
X13393023Y-7642073D01*
X13407771Y-7632218D01*
X13420314Y-7619675D01*
X13430169Y-7604927D01*
X13436957Y-7588539D01*
X13440418Y-7571141D01*
X13440418Y-7553403D01*
X13436957Y-7536005D01*
X13430169Y-7519617D01*
X13430169Y-7519617D01*
X13420314Y-7504868D01*
X13407771Y-7492325D01*
X13393022Y-7482470D01*
X13376635Y-7475683D01*
X13359237Y-7472222D01*
X13359237Y-7472222D01*
X13261499Y-7472222D01*
X13261499Y-7472222D01*
X13244101Y-7475683D01*
X13244101Y-7475683D01*
X13227714Y-7482470D01*
X13215818Y-7490419D01*
X13209929Y-7492080D01*
X13204189Y-7489962D01*
X13200790Y-7484874D01*
X13200418Y-7482187D01*
X13200418Y-7388357D01*
X13202309Y-7382538D01*
X13207259Y-7378941D01*
X13213377Y-7378941D01*
X13215818Y-7380125D01*
X13217535Y-7381273D01*
X13227713Y-7388073D01*
X13244101Y-7394861D01*
X13261499Y-7398322D01*
X13261499Y-7398322D01*
X13359237Y-7398322D01*
X13359237Y-7398322D01*
X13376635Y-7394861D01*
X13393023Y-7388073D01*
X13407771Y-7378218D01*
X13420314Y-7365675D01*
X13430169Y-7350927D01*
X13436957Y-7334539D01*
X13440418Y-7317141D01*
X13440418Y-7299403D01*
X13436957Y-7282005D01*
X13430169Y-7265617D01*
X13430169Y-7265617D01*
X13420314Y-7250868D01*
X13407771Y-7238325D01*
X13397314Y-7231338D01*
X13397314Y-7231338D01*
X13393023Y-7228471D01*
X13393022Y-7228470D01*
X13381247Y-7223593D01*
X13824950Y-7223593D01*
X13824950Y-7236407D01*
X13827450Y-7248974D01*
X13827450Y-7248975D01*
X13832353Y-7260812D01*
X13832354Y-7260813D01*
X13836636Y-7267223D01*
X13839472Y-7271467D01*
X13848533Y-7280528D01*
X13854885Y-7284772D01*
X13859187Y-7287646D01*
X13859187Y-7287646D01*
X13859187Y-7287646D01*
X13871026Y-7292550D01*
X13883593Y-7295050D01*
X13883593Y-7295050D01*
X13896407Y-7295050D01*
X13896407Y-7295050D01*
X13908974Y-7292550D01*
X13920813Y-7287646D01*
X13931467Y-7280528D01*
X13940528Y-7271467D01*
X13947646Y-7260813D01*
X13952550Y-7248974D01*
X13955050Y-7236407D01*
X13955050Y-7223593D01*
X13952550Y-7211026D01*
X13947646Y-7199187D01*
X13947646Y-7199187D01*
X13947646Y-7199187D01*
X13944772Y-7194885D01*
X13940528Y-7188533D01*
X13931467Y-7179472D01*
X13927223Y-7176636D01*
X13920813Y-7172354D01*
X13920812Y-7172353D01*
X13908975Y-7167450D01*
X13908974Y-7167450D01*
X13908974Y-7167450D01*
X13896407Y-7164950D01*
X13883593Y-7164950D01*
X13883593Y-7164950D01*
X13877309Y-7166200D01*
X13871026Y-7167450D01*
X13871025Y-7167450D01*
X13871025Y-7167450D01*
X13859187Y-7172353D01*
X13859187Y-7172354D01*
X13848533Y-7179472D01*
X13848533Y-7179473D01*
X13839473Y-7188533D01*
X13839472Y-7188533D01*
X13832354Y-7199187D01*
X13832353Y-7199187D01*
X13827450Y-7211025D01*
X13827450Y-7211026D01*
X13824950Y-7223593D01*
X13381247Y-7223593D01*
X13376635Y-7221683D01*
X13359237Y-7218222D01*
X13359237Y-7218222D01*
X13261499Y-7218222D01*
X13261499Y-7218222D01*
X13244101Y-7221683D01*
X13244101Y-7221683D01*
X13227714Y-7228470D01*
X13215818Y-7236419D01*
X13209929Y-7238080D01*
X13204189Y-7235962D01*
X13200790Y-7230874D01*
X13200418Y-7228187D01*
X13200418Y-7134357D01*
X13202309Y-7128538D01*
X13207259Y-7124941D01*
X13213377Y-7124941D01*
X13215818Y-7126125D01*
X13227713Y-7134073D01*
X13244101Y-7140861D01*
X13261499Y-7144322D01*
X13261499Y-7144322D01*
X13359237Y-7144322D01*
X13359237Y-7144322D01*
X13376635Y-7140861D01*
X13393023Y-7134073D01*
X13407771Y-7124218D01*
X13420314Y-7111675D01*
X13430169Y-7096927D01*
X13436957Y-7080539D01*
X13440418Y-7063141D01*
X13440418Y-7045403D01*
X13436957Y-7028005D01*
X13430169Y-7011617D01*
X13430169Y-7011617D01*
X13422221Y-6999722D01*
X13420560Y-6993833D01*
X13422678Y-6988093D01*
X13427765Y-6984694D01*
X13430453Y-6984322D01*
X15950418Y-6984322D01*
X15956237Y-6986213D01*
G37*
%TD.AperFunction*%
%TD*%
M02*
