%TF.GenerationSoftware,KiCad,Pcbnew,10.0.0*%
%TF.CreationDate,2026-04-10T18:52:41+02:00*%
%TF.ProjectId,Easyduino_ESP32,45617379-6475-4696-9e6f-5f4553503332,rev?*%
%TF.SameCoordinates,Original*%
%TF.FileFunction,Legend,Top*%
%TF.FilePolarity,Positive*%
%FSLAX45Y45*%
G04 Gerber Fmt 4.5, Leading zero omitted, Abs format (unit mm)*
G04 Created by KiCad (PCBNEW 10.0.0) date 2026-04-10 18:52:41*
%MOMM*%
%LPD*%
G01*
G04 APERTURE LIST*
%ADD10C,0.375000*%
%ADD11C,0.150000*%
%ADD12C,0.120000*%
%ADD13C,0.100000*%
G04 APERTURE END LIST*
D10*
X14328750Y-10420000D02*
G75*
G02*
X14291250Y-10420000I-18750J0D01*
G01*
X14291250Y-10420000D02*
G75*
G02*
X14328750Y-10420000I18750J0D01*
G01*
D11*
X13976535Y-9881603D02*
X13976535Y-9811603D01*
X13976535Y-9811603D02*
X14003202Y-9811603D01*
X14003202Y-9811603D02*
X14009868Y-9814937D01*
X14009868Y-9814937D02*
X14013202Y-9818270D01*
X14013202Y-9818270D02*
X14016535Y-9824937D01*
X14016535Y-9824937D02*
X14016535Y-9834937D01*
X14016535Y-9834937D02*
X14013202Y-9841603D01*
X14013202Y-9841603D02*
X14009868Y-9844937D01*
X14009868Y-9844937D02*
X14003202Y-9848270D01*
X14003202Y-9848270D02*
X13976535Y-9848270D01*
X14039868Y-9811603D02*
X14056535Y-9881603D01*
X14056535Y-9881603D02*
X14069868Y-9831603D01*
X14069868Y-9831603D02*
X14083202Y-9881603D01*
X14083202Y-9881603D02*
X14099868Y-9811603D01*
X14166535Y-9881603D02*
X14143202Y-9848270D01*
X14126535Y-9881603D02*
X14126535Y-9811603D01*
X14126535Y-9811603D02*
X14153202Y-9811603D01*
X14153202Y-9811603D02*
X14159868Y-9814937D01*
X14159868Y-9814937D02*
X14163202Y-9818270D01*
X14163202Y-9818270D02*
X14166535Y-9824937D01*
X14166535Y-9824937D02*
X14166535Y-9834937D01*
X14166535Y-9834937D02*
X14163202Y-9841603D01*
X14163202Y-9841603D02*
X14159868Y-9844937D01*
X14159868Y-9844937D02*
X14153202Y-9848270D01*
X14153202Y-9848270D02*
X14126535Y-9848270D01*
X13745132Y-10969937D02*
X13768465Y-10969937D01*
X13778465Y-11006603D02*
X13745132Y-11006603D01*
X13745132Y-11006603D02*
X13745132Y-10936603D01*
X13745132Y-10936603D02*
X13778465Y-10936603D01*
X13808465Y-11006603D02*
X13808465Y-10936603D01*
X13808465Y-10936603D02*
X13848465Y-11006603D01*
X13848465Y-11006603D02*
X13848465Y-10936603D01*
X15260132Y-10969937D02*
X15270132Y-10973270D01*
X15270132Y-10973270D02*
X15273465Y-10976603D01*
X15273465Y-10976603D02*
X15276798Y-10983270D01*
X15276798Y-10983270D02*
X15276798Y-10993270D01*
X15276798Y-10993270D02*
X15273465Y-10999937D01*
X15273465Y-10999937D02*
X15270132Y-11003270D01*
X15270132Y-11003270D02*
X15263465Y-11006603D01*
X15263465Y-11006603D02*
X15236798Y-11006603D01*
X15236798Y-11006603D02*
X15236798Y-10936603D01*
X15236798Y-10936603D02*
X15260132Y-10936603D01*
X15260132Y-10936603D02*
X15266798Y-10939937D01*
X15266798Y-10939937D02*
X15270132Y-10943270D01*
X15270132Y-10943270D02*
X15273465Y-10949937D01*
X15273465Y-10949937D02*
X15273465Y-10956603D01*
X15273465Y-10956603D02*
X15270132Y-10963270D01*
X15270132Y-10963270D02*
X15266798Y-10966603D01*
X15266798Y-10966603D02*
X15260132Y-10969937D01*
X15260132Y-10969937D02*
X15236798Y-10969937D01*
X15320132Y-10936603D02*
X15333465Y-10936603D01*
X15333465Y-10936603D02*
X15340132Y-10939937D01*
X15340132Y-10939937D02*
X15346798Y-10946603D01*
X15346798Y-10946603D02*
X15350132Y-10959937D01*
X15350132Y-10959937D02*
X15350132Y-10983270D01*
X15350132Y-10983270D02*
X15346798Y-10996603D01*
X15346798Y-10996603D02*
X15340132Y-11003270D01*
X15340132Y-11003270D02*
X15333465Y-11006603D01*
X15333465Y-11006603D02*
X15320132Y-11006603D01*
X15320132Y-11006603D02*
X15313465Y-11003270D01*
X15313465Y-11003270D02*
X15306798Y-10996603D01*
X15306798Y-10996603D02*
X15303465Y-10983270D01*
X15303465Y-10983270D02*
X15303465Y-10959937D01*
X15303465Y-10959937D02*
X15306798Y-10946603D01*
X15306798Y-10946603D02*
X15313465Y-10939937D01*
X15313465Y-10939937D02*
X15320132Y-10936603D01*
X15393465Y-10936603D02*
X15406798Y-10936603D01*
X15406798Y-10936603D02*
X15413465Y-10939937D01*
X15413465Y-10939937D02*
X15420132Y-10946603D01*
X15420132Y-10946603D02*
X15423465Y-10959937D01*
X15423465Y-10959937D02*
X15423465Y-10983270D01*
X15423465Y-10983270D02*
X15420132Y-10996603D01*
X15420132Y-10996603D02*
X15413465Y-11003270D01*
X15413465Y-11003270D02*
X15406798Y-11006603D01*
X15406798Y-11006603D02*
X15393465Y-11006603D01*
X15393465Y-11006603D02*
X15386798Y-11003270D01*
X15386798Y-11003270D02*
X15380132Y-10996603D01*
X15380132Y-10996603D02*
X15376798Y-10983270D01*
X15376798Y-10983270D02*
X15376798Y-10959937D01*
X15376798Y-10959937D02*
X15380132Y-10946603D01*
X15380132Y-10946603D02*
X15386798Y-10939937D01*
X15386798Y-10939937D02*
X15393465Y-10936603D01*
X15443465Y-10936603D02*
X15483465Y-10936603D01*
X15463465Y-11006603D02*
X15463465Y-10936603D01*
X14987259Y-10693388D02*
X15015450Y-10683127D01*
X15043655Y-10723030D02*
X15003383Y-10737688D01*
X15003383Y-10737688D02*
X14972601Y-10653115D01*
X14972601Y-10653115D02*
X15012874Y-10638457D01*
X15116146Y-10696645D02*
X15100022Y-10652345D01*
X15100022Y-10652345D02*
X15093063Y-10645757D01*
X15093063Y-10645757D02*
X15083543Y-10644661D01*
X15083543Y-10644661D02*
X15067434Y-10650524D01*
X15067434Y-10650524D02*
X15060845Y-10657483D01*
X15114680Y-10692618D02*
X15108092Y-10699577D01*
X15108092Y-10699577D02*
X15087955Y-10706906D01*
X15087955Y-10706906D02*
X15078435Y-10705810D01*
X15078435Y-10705810D02*
X15071476Y-10699221D01*
X15071476Y-10699221D02*
X15068545Y-10691167D01*
X15068545Y-10691167D02*
X15069640Y-10681647D01*
X15069640Y-10681647D02*
X15076229Y-10674688D01*
X15076229Y-10674688D02*
X15096365Y-10667359D01*
X15096365Y-10667359D02*
X15102954Y-10660400D01*
X15150926Y-10679426D02*
X15160446Y-10680521D01*
X15160446Y-10680521D02*
X15176555Y-10674658D01*
X15176555Y-10674658D02*
X15183144Y-10667699D01*
X15183144Y-10667699D02*
X15184239Y-10658179D01*
X15184239Y-10658179D02*
X15182773Y-10654152D01*
X15182773Y-10654152D02*
X15175815Y-10647563D01*
X15175815Y-10647563D02*
X15166294Y-10646467D01*
X15166294Y-10646467D02*
X15154213Y-10650865D01*
X15154213Y-10650865D02*
X15144692Y-10649769D01*
X15144692Y-10649769D02*
X15137733Y-10643180D01*
X15137733Y-10643180D02*
X15136268Y-10639153D01*
X15136268Y-10639153D02*
X15137363Y-10629633D01*
X15137363Y-10629633D02*
X15143952Y-10622674D01*
X15143952Y-10622674D02*
X15156034Y-10618277D01*
X15156034Y-10618277D02*
X15165554Y-10619372D01*
X15196306Y-10603619D02*
X15236964Y-10652671D01*
X15236579Y-10588961D02*
X15236964Y-10652671D01*
X15236964Y-10652671D02*
X15236238Y-10675739D01*
X15236238Y-10675739D02*
X15233677Y-10681232D01*
X15233677Y-10681232D02*
X15227088Y-10688191D01*
X15325563Y-10620424D02*
X15294781Y-10535851D01*
X15324097Y-10616396D02*
X15317509Y-10623355D01*
X15317509Y-10623355D02*
X15301400Y-10629218D01*
X15301400Y-10629218D02*
X15291879Y-10628123D01*
X15291879Y-10628123D02*
X15286386Y-10625561D01*
X15286386Y-10625561D02*
X15279427Y-10618973D01*
X15279427Y-10618973D02*
X15270633Y-10594809D01*
X15270633Y-10594809D02*
X15271728Y-10585289D01*
X15271728Y-10585289D02*
X15274290Y-10579796D01*
X15274290Y-10579796D02*
X15280878Y-10572837D01*
X15280878Y-10572837D02*
X15296988Y-10566974D01*
X15296988Y-10566974D02*
X15306508Y-10568069D01*
X15381560Y-10536192D02*
X15402081Y-10592573D01*
X15345315Y-10549384D02*
X15361438Y-10593684D01*
X15361438Y-10593684D02*
X15368397Y-10600273D01*
X15368397Y-10600273D02*
X15377918Y-10601368D01*
X15377918Y-10601368D02*
X15389999Y-10596971D01*
X15389999Y-10596971D02*
X15396588Y-10590012D01*
X15396588Y-10590012D02*
X15399149Y-10584519D01*
X15442354Y-10577915D02*
X15421832Y-10521534D01*
X15411572Y-10493343D02*
X15409010Y-10498836D01*
X15409010Y-10498836D02*
X15414503Y-10501398D01*
X15414503Y-10501398D02*
X15417065Y-10495904D01*
X15417065Y-10495904D02*
X15411572Y-10493343D01*
X15411572Y-10493343D02*
X15414503Y-10501398D01*
X15462105Y-10506876D02*
X15482626Y-10563257D01*
X15465037Y-10514930D02*
X15467598Y-10509437D01*
X15467598Y-10509437D02*
X15474187Y-10502478D01*
X15474187Y-10502478D02*
X15486268Y-10498081D01*
X15486268Y-10498081D02*
X15495789Y-10499177D01*
X15495789Y-10499177D02*
X15502748Y-10505765D01*
X15502748Y-10505765D02*
X15518871Y-10550065D01*
X15571226Y-10531010D02*
X15561705Y-10529914D01*
X15561705Y-10529914D02*
X15556212Y-10527353D01*
X15556212Y-10527353D02*
X15549254Y-10520764D01*
X15549254Y-10520764D02*
X15540459Y-10496600D01*
X15540459Y-10496600D02*
X15541554Y-10487080D01*
X15541554Y-10487080D02*
X15544116Y-10481587D01*
X15544116Y-10481587D02*
X15550705Y-10474628D01*
X15550705Y-10474628D02*
X15562786Y-10470231D01*
X15562786Y-10470231D02*
X15572307Y-10471326D01*
X15572307Y-10471326D02*
X15577800Y-10473888D01*
X15577800Y-10473888D02*
X15584759Y-10480477D01*
X15584759Y-10480477D02*
X15593553Y-10504640D01*
X15593553Y-10504640D02*
X15592458Y-10514160D01*
X15592458Y-10514160D02*
X15589896Y-10519653D01*
X15589896Y-10519653D02*
X15583308Y-10526612D01*
X15583308Y-10526612D02*
X15571226Y-10531010D01*
X15167259Y-10793388D02*
X15195450Y-10783127D01*
X15223655Y-10823030D02*
X15183383Y-10837688D01*
X15183383Y-10837688D02*
X15152601Y-10753115D01*
X15152601Y-10753115D02*
X15192874Y-10738457D01*
X15254408Y-10807276D02*
X15267955Y-10806906D01*
X15267955Y-10806906D02*
X15288092Y-10799577D01*
X15288092Y-10799577D02*
X15294680Y-10792618D01*
X15294680Y-10792618D02*
X15297242Y-10787125D01*
X15297242Y-10787125D02*
X15298337Y-10777605D01*
X15298337Y-10777605D02*
X15295406Y-10769550D01*
X15295406Y-10769550D02*
X15288447Y-10762961D01*
X15288447Y-10762961D02*
X15282954Y-10760400D01*
X15282954Y-10760400D02*
X15273434Y-10759304D01*
X15273434Y-10759304D02*
X15255859Y-10761140D01*
X15255859Y-10761140D02*
X15246338Y-10760045D01*
X15246338Y-10760045D02*
X15240845Y-10757483D01*
X15240845Y-10757483D02*
X15233887Y-10750894D01*
X15233887Y-10750894D02*
X15230955Y-10742840D01*
X15230955Y-10742840D02*
X15232051Y-10733320D01*
X15232051Y-10733320D02*
X15234612Y-10727827D01*
X15234612Y-10727827D02*
X15241201Y-10720868D01*
X15241201Y-10720868D02*
X15261337Y-10713539D01*
X15261337Y-10713539D02*
X15274885Y-10713169D01*
X15340446Y-10780521D02*
X15309664Y-10695949D01*
X15309664Y-10695949D02*
X15341882Y-10684223D01*
X15341882Y-10684223D02*
X15351402Y-10685318D01*
X15351402Y-10685318D02*
X15356895Y-10687880D01*
X15356895Y-10687880D02*
X15363854Y-10694468D01*
X15363854Y-10694468D02*
X15368252Y-10706550D01*
X15368252Y-10706550D02*
X15367156Y-10716071D01*
X15367156Y-10716071D02*
X15364595Y-10721564D01*
X15364595Y-10721564D02*
X15358006Y-10728522D01*
X15358006Y-10728522D02*
X15325788Y-10740249D01*
X15386182Y-10668099D02*
X15438536Y-10649043D01*
X15438536Y-10649043D02*
X15422072Y-10691522D01*
X15422072Y-10691522D02*
X15434154Y-10687125D01*
X15434154Y-10687125D02*
X15443674Y-10688220D01*
X15443674Y-10688220D02*
X15449167Y-10690782D01*
X15449167Y-10690782D02*
X15456126Y-10697370D01*
X15456126Y-10697370D02*
X15463455Y-10717507D01*
X15463455Y-10717507D02*
X15462359Y-10727027D01*
X15462359Y-10727027D02*
X15459798Y-10732520D01*
X15459798Y-10732520D02*
X15453209Y-10739479D01*
X15453209Y-10739479D02*
X15429045Y-10748274D01*
X15429045Y-10748274D02*
X15419525Y-10747178D01*
X15419525Y-10747178D02*
X15414032Y-10744617D01*
X15473686Y-10645372D02*
X15476247Y-10639878D01*
X15476247Y-10639878D02*
X15482836Y-10632920D01*
X15482836Y-10632920D02*
X15502972Y-10625591D01*
X15502972Y-10625591D02*
X15512493Y-10626686D01*
X15512493Y-10626686D02*
X15517986Y-10629248D01*
X15517986Y-10629248D02*
X15524944Y-10635836D01*
X15524944Y-10635836D02*
X15527876Y-10643891D01*
X15527876Y-10643891D02*
X15528246Y-10657438D01*
X15528246Y-10657438D02*
X15497509Y-10723355D01*
X15497509Y-10723355D02*
X15549863Y-10704300D01*
X13543770Y-6996297D02*
X13543770Y-7045821D01*
X13543770Y-7045821D02*
X13513294Y-7019154D01*
X13513294Y-7019154D02*
X13513294Y-7030583D01*
X13513294Y-7030583D02*
X13509485Y-7038202D01*
X13509485Y-7038202D02*
X13505675Y-7042011D01*
X13505675Y-7042011D02*
X13498056Y-7045821D01*
X13498056Y-7045821D02*
X13479008Y-7045821D01*
X13479008Y-7045821D02*
X13471389Y-7042011D01*
X13471389Y-7042011D02*
X13467580Y-7038202D01*
X13467580Y-7038202D02*
X13463770Y-7030583D01*
X13463770Y-7030583D02*
X13463770Y-7007725D01*
X13463770Y-7007725D02*
X13467580Y-7000106D01*
X13467580Y-7000106D02*
X13471389Y-6996297D01*
X13543770Y-7068678D02*
X13463770Y-7095345D01*
X13463770Y-7095345D02*
X13543770Y-7122011D01*
X13543770Y-7141059D02*
X13543770Y-7190583D01*
X13543770Y-7190583D02*
X13513294Y-7163916D01*
X13513294Y-7163916D02*
X13513294Y-7175344D01*
X13513294Y-7175344D02*
X13509485Y-7182964D01*
X13509485Y-7182964D02*
X13505675Y-7186773D01*
X13505675Y-7186773D02*
X13498056Y-7190583D01*
X13498056Y-7190583D02*
X13479008Y-7190583D01*
X13479008Y-7190583D02*
X13471389Y-7186773D01*
X13471389Y-7186773D02*
X13467580Y-7182964D01*
X13467580Y-7182964D02*
X13463770Y-7175344D01*
X13463770Y-7175344D02*
X13463770Y-7152487D01*
X13463770Y-7152487D02*
X13467580Y-7144868D01*
X13467580Y-7144868D02*
X13471389Y-7141059D01*
X13505675Y-7252989D02*
X13505675Y-7279655D01*
X13463770Y-7291084D02*
X13463770Y-7252989D01*
X13463770Y-7252989D02*
X13543770Y-7252989D01*
X13543770Y-7252989D02*
X13543770Y-7291084D01*
X13463770Y-7325370D02*
X13543770Y-7325370D01*
X13543770Y-7325370D02*
X13463770Y-7371084D01*
X13463770Y-7371084D02*
X13543770Y-7371084D01*
X13538397Y-7519868D02*
X13538397Y-7563202D01*
X13538397Y-7563202D02*
X13511730Y-7539868D01*
X13511730Y-7539868D02*
X13511730Y-7549868D01*
X13511730Y-7549868D02*
X13508397Y-7556535D01*
X13508397Y-7556535D02*
X13505063Y-7559868D01*
X13505063Y-7559868D02*
X13498397Y-7563202D01*
X13498397Y-7563202D02*
X13481730Y-7563202D01*
X13481730Y-7563202D02*
X13475063Y-7559868D01*
X13475063Y-7559868D02*
X13471730Y-7556535D01*
X13471730Y-7556535D02*
X13468397Y-7549868D01*
X13468397Y-7549868D02*
X13468397Y-7529868D01*
X13468397Y-7529868D02*
X13471730Y-7523202D01*
X13471730Y-7523202D02*
X13475063Y-7519868D01*
X13538397Y-7623202D02*
X13538397Y-7609868D01*
X13538397Y-7609868D02*
X13535063Y-7603202D01*
X13535063Y-7603202D02*
X13531730Y-7599868D01*
X13531730Y-7599868D02*
X13521730Y-7593202D01*
X13521730Y-7593202D02*
X13508397Y-7589868D01*
X13508397Y-7589868D02*
X13481730Y-7589868D01*
X13481730Y-7589868D02*
X13475063Y-7593202D01*
X13475063Y-7593202D02*
X13471730Y-7596535D01*
X13471730Y-7596535D02*
X13468397Y-7603202D01*
X13468397Y-7603202D02*
X13468397Y-7616535D01*
X13468397Y-7616535D02*
X13471730Y-7623202D01*
X13471730Y-7623202D02*
X13475063Y-7626535D01*
X13475063Y-7626535D02*
X13481730Y-7629868D01*
X13481730Y-7629868D02*
X13498397Y-7629868D01*
X13498397Y-7629868D02*
X13505063Y-7626535D01*
X13505063Y-7626535D02*
X13508397Y-7623202D01*
X13508397Y-7623202D02*
X13511730Y-7616535D01*
X13511730Y-7616535D02*
X13511730Y-7603202D01*
X13511730Y-7603202D02*
X13508397Y-7596535D01*
X13508397Y-7596535D02*
X13505063Y-7593202D01*
X13505063Y-7593202D02*
X13498397Y-7589868D01*
X13538397Y-7769868D02*
X13538397Y-7813202D01*
X13538397Y-7813202D02*
X13511730Y-7789868D01*
X13511730Y-7789868D02*
X13511730Y-7799868D01*
X13511730Y-7799868D02*
X13508397Y-7806535D01*
X13508397Y-7806535D02*
X13505063Y-7809868D01*
X13505063Y-7809868D02*
X13498397Y-7813202D01*
X13498397Y-7813202D02*
X13481730Y-7813202D01*
X13481730Y-7813202D02*
X13475063Y-7809868D01*
X13475063Y-7809868D02*
X13471730Y-7806535D01*
X13471730Y-7806535D02*
X13468397Y-7799868D01*
X13468397Y-7799868D02*
X13468397Y-7779868D01*
X13468397Y-7779868D02*
X13471730Y-7773202D01*
X13471730Y-7773202D02*
X13475063Y-7769868D01*
X13468397Y-7846535D02*
X13468397Y-7859868D01*
X13468397Y-7859868D02*
X13471730Y-7866535D01*
X13471730Y-7866535D02*
X13475063Y-7869868D01*
X13475063Y-7869868D02*
X13485063Y-7876535D01*
X13485063Y-7876535D02*
X13498397Y-7879868D01*
X13498397Y-7879868D02*
X13525063Y-7879868D01*
X13525063Y-7879868D02*
X13531730Y-7876535D01*
X13531730Y-7876535D02*
X13535063Y-7873202D01*
X13535063Y-7873202D02*
X13538397Y-7866535D01*
X13538397Y-7866535D02*
X13538397Y-7853202D01*
X13538397Y-7853202D02*
X13535063Y-7846535D01*
X13535063Y-7846535D02*
X13531730Y-7843202D01*
X13531730Y-7843202D02*
X13525063Y-7839868D01*
X13525063Y-7839868D02*
X13508397Y-7839868D01*
X13508397Y-7839868D02*
X13501730Y-7843202D01*
X13501730Y-7843202D02*
X13498397Y-7846535D01*
X13498397Y-7846535D02*
X13495063Y-7853202D01*
X13495063Y-7853202D02*
X13495063Y-7866535D01*
X13495063Y-7866535D02*
X13498397Y-7873202D01*
X13498397Y-7873202D02*
X13501730Y-7876535D01*
X13501730Y-7876535D02*
X13508397Y-7879868D01*
X13538397Y-8019868D02*
X13538397Y-8063202D01*
X13538397Y-8063202D02*
X13511730Y-8039868D01*
X13511730Y-8039868D02*
X13511730Y-8049868D01*
X13511730Y-8049868D02*
X13508397Y-8056535D01*
X13508397Y-8056535D02*
X13505063Y-8059868D01*
X13505063Y-8059868D02*
X13498397Y-8063202D01*
X13498397Y-8063202D02*
X13481730Y-8063202D01*
X13481730Y-8063202D02*
X13475063Y-8059868D01*
X13475063Y-8059868D02*
X13471730Y-8056535D01*
X13471730Y-8056535D02*
X13468397Y-8049868D01*
X13468397Y-8049868D02*
X13468397Y-8029868D01*
X13468397Y-8029868D02*
X13471730Y-8023202D01*
X13471730Y-8023202D02*
X13475063Y-8019868D01*
X13515063Y-8123202D02*
X13468397Y-8123202D01*
X13541730Y-8106535D02*
X13491730Y-8089868D01*
X13491730Y-8089868D02*
X13491730Y-8133202D01*
X13538397Y-8269868D02*
X13538397Y-8313202D01*
X13538397Y-8313202D02*
X13511730Y-8289868D01*
X13511730Y-8289868D02*
X13511730Y-8299868D01*
X13511730Y-8299868D02*
X13508397Y-8306535D01*
X13508397Y-8306535D02*
X13505063Y-8309868D01*
X13505063Y-8309868D02*
X13498397Y-8313202D01*
X13498397Y-8313202D02*
X13481730Y-8313202D01*
X13481730Y-8313202D02*
X13475063Y-8309868D01*
X13475063Y-8309868D02*
X13471730Y-8306535D01*
X13471730Y-8306535D02*
X13468397Y-8299868D01*
X13468397Y-8299868D02*
X13468397Y-8279868D01*
X13468397Y-8279868D02*
X13471730Y-8273202D01*
X13471730Y-8273202D02*
X13475063Y-8269868D01*
X13538397Y-8376535D02*
X13538397Y-8343202D01*
X13538397Y-8343202D02*
X13505063Y-8339868D01*
X13505063Y-8339868D02*
X13508397Y-8343202D01*
X13508397Y-8343202D02*
X13511730Y-8349868D01*
X13511730Y-8349868D02*
X13511730Y-8366535D01*
X13511730Y-8366535D02*
X13508397Y-8373202D01*
X13508397Y-8373202D02*
X13505063Y-8376535D01*
X13505063Y-8376535D02*
X13498397Y-8379868D01*
X13498397Y-8379868D02*
X13481730Y-8379868D01*
X13481730Y-8379868D02*
X13475063Y-8376535D01*
X13475063Y-8376535D02*
X13471730Y-8373202D01*
X13471730Y-8373202D02*
X13468397Y-8366535D01*
X13468397Y-8366535D02*
X13468397Y-8349868D01*
X13468397Y-8349868D02*
X13471730Y-8343202D01*
X13471730Y-8343202D02*
X13475063Y-8339868D01*
X13538397Y-8519868D02*
X13538397Y-8563202D01*
X13538397Y-8563202D02*
X13511730Y-8539868D01*
X13511730Y-8539868D02*
X13511730Y-8549868D01*
X13511730Y-8549868D02*
X13508397Y-8556535D01*
X13508397Y-8556535D02*
X13505063Y-8559868D01*
X13505063Y-8559868D02*
X13498397Y-8563202D01*
X13498397Y-8563202D02*
X13481730Y-8563202D01*
X13481730Y-8563202D02*
X13475063Y-8559868D01*
X13475063Y-8559868D02*
X13471730Y-8556535D01*
X13471730Y-8556535D02*
X13468397Y-8549868D01*
X13468397Y-8549868D02*
X13468397Y-8529868D01*
X13468397Y-8529868D02*
X13471730Y-8523202D01*
X13471730Y-8523202D02*
X13475063Y-8519868D01*
X13531730Y-8589868D02*
X13535063Y-8593202D01*
X13535063Y-8593202D02*
X13538397Y-8599868D01*
X13538397Y-8599868D02*
X13538397Y-8616535D01*
X13538397Y-8616535D02*
X13535063Y-8623202D01*
X13535063Y-8623202D02*
X13531730Y-8626535D01*
X13531730Y-8626535D02*
X13525063Y-8629868D01*
X13525063Y-8629868D02*
X13518397Y-8629868D01*
X13518397Y-8629868D02*
X13508397Y-8626535D01*
X13508397Y-8626535D02*
X13468397Y-8586535D01*
X13468397Y-8586535D02*
X13468397Y-8629868D01*
X13538397Y-8794868D02*
X13538397Y-8838202D01*
X13538397Y-8838202D02*
X13511730Y-8814868D01*
X13511730Y-8814868D02*
X13511730Y-8824868D01*
X13511730Y-8824868D02*
X13508397Y-8831535D01*
X13508397Y-8831535D02*
X13505063Y-8834868D01*
X13505063Y-8834868D02*
X13498397Y-8838202D01*
X13498397Y-8838202D02*
X13481730Y-8838202D01*
X13481730Y-8838202D02*
X13475063Y-8834868D01*
X13475063Y-8834868D02*
X13471730Y-8831535D01*
X13471730Y-8831535D02*
X13468397Y-8824868D01*
X13468397Y-8824868D02*
X13468397Y-8804868D01*
X13468397Y-8804868D02*
X13471730Y-8798202D01*
X13471730Y-8798202D02*
X13475063Y-8794868D01*
X13538397Y-8861535D02*
X13538397Y-8904868D01*
X13538397Y-8904868D02*
X13511730Y-8881535D01*
X13511730Y-8881535D02*
X13511730Y-8891535D01*
X13511730Y-8891535D02*
X13508397Y-8898202D01*
X13508397Y-8898202D02*
X13505063Y-8901535D01*
X13505063Y-8901535D02*
X13498397Y-8904868D01*
X13498397Y-8904868D02*
X13481730Y-8904868D01*
X13481730Y-8904868D02*
X13475063Y-8901535D01*
X13475063Y-8901535D02*
X13471730Y-8898202D01*
X13471730Y-8898202D02*
X13468397Y-8891535D01*
X13468397Y-8891535D02*
X13468397Y-8871535D01*
X13468397Y-8871535D02*
X13471730Y-8864868D01*
X13471730Y-8864868D02*
X13475063Y-8861535D01*
X13531730Y-9048202D02*
X13535063Y-9051535D01*
X13535063Y-9051535D02*
X13538397Y-9058202D01*
X13538397Y-9058202D02*
X13538397Y-9074868D01*
X13538397Y-9074868D02*
X13535063Y-9081535D01*
X13535063Y-9081535D02*
X13531730Y-9084868D01*
X13531730Y-9084868D02*
X13525063Y-9088202D01*
X13525063Y-9088202D02*
X13518397Y-9088202D01*
X13518397Y-9088202D02*
X13508397Y-9084868D01*
X13508397Y-9084868D02*
X13468397Y-9044868D01*
X13468397Y-9044868D02*
X13468397Y-9088202D01*
X13538397Y-9151535D02*
X13538397Y-9118202D01*
X13538397Y-9118202D02*
X13505063Y-9114868D01*
X13505063Y-9114868D02*
X13508397Y-9118202D01*
X13508397Y-9118202D02*
X13511730Y-9124868D01*
X13511730Y-9124868D02*
X13511730Y-9141535D01*
X13511730Y-9141535D02*
X13508397Y-9148202D01*
X13508397Y-9148202D02*
X13505063Y-9151535D01*
X13505063Y-9151535D02*
X13498397Y-9154868D01*
X13498397Y-9154868D02*
X13481730Y-9154868D01*
X13481730Y-9154868D02*
X13475063Y-9151535D01*
X13475063Y-9151535D02*
X13471730Y-9148202D01*
X13471730Y-9148202D02*
X13468397Y-9141535D01*
X13468397Y-9141535D02*
X13468397Y-9124868D01*
X13468397Y-9124868D02*
X13471730Y-9118202D01*
X13471730Y-9118202D02*
X13475063Y-9114868D01*
X13531730Y-9298202D02*
X13535063Y-9301535D01*
X13535063Y-9301535D02*
X13538397Y-9308202D01*
X13538397Y-9308202D02*
X13538397Y-9324868D01*
X13538397Y-9324868D02*
X13535063Y-9331535D01*
X13535063Y-9331535D02*
X13531730Y-9334868D01*
X13531730Y-9334868D02*
X13525063Y-9338202D01*
X13525063Y-9338202D02*
X13518397Y-9338202D01*
X13518397Y-9338202D02*
X13508397Y-9334868D01*
X13508397Y-9334868D02*
X13468397Y-9294868D01*
X13468397Y-9294868D02*
X13468397Y-9338202D01*
X13538397Y-9398202D02*
X13538397Y-9384868D01*
X13538397Y-9384868D02*
X13535063Y-9378202D01*
X13535063Y-9378202D02*
X13531730Y-9374868D01*
X13531730Y-9374868D02*
X13521730Y-9368202D01*
X13521730Y-9368202D02*
X13508397Y-9364868D01*
X13508397Y-9364868D02*
X13481730Y-9364868D01*
X13481730Y-9364868D02*
X13475063Y-9368202D01*
X13475063Y-9368202D02*
X13471730Y-9371535D01*
X13471730Y-9371535D02*
X13468397Y-9378202D01*
X13468397Y-9378202D02*
X13468397Y-9391535D01*
X13468397Y-9391535D02*
X13471730Y-9398202D01*
X13471730Y-9398202D02*
X13475063Y-9401535D01*
X13475063Y-9401535D02*
X13481730Y-9404868D01*
X13481730Y-9404868D02*
X13498397Y-9404868D01*
X13498397Y-9404868D02*
X13505063Y-9401535D01*
X13505063Y-9401535D02*
X13508397Y-9398202D01*
X13508397Y-9398202D02*
X13511730Y-9391535D01*
X13511730Y-9391535D02*
X13511730Y-9378202D01*
X13511730Y-9378202D02*
X13508397Y-9371535D01*
X13508397Y-9371535D02*
X13505063Y-9368202D01*
X13505063Y-9368202D02*
X13498397Y-9364868D01*
X13531730Y-9548202D02*
X13535063Y-9551535D01*
X13535063Y-9551535D02*
X13538397Y-9558202D01*
X13538397Y-9558202D02*
X13538397Y-9574868D01*
X13538397Y-9574868D02*
X13535063Y-9581535D01*
X13535063Y-9581535D02*
X13531730Y-9584868D01*
X13531730Y-9584868D02*
X13525063Y-9588202D01*
X13525063Y-9588202D02*
X13518397Y-9588202D01*
X13518397Y-9588202D02*
X13508397Y-9584868D01*
X13508397Y-9584868D02*
X13468397Y-9544868D01*
X13468397Y-9544868D02*
X13468397Y-9588202D01*
X13538397Y-9611535D02*
X13538397Y-9658202D01*
X13538397Y-9658202D02*
X13468397Y-9628202D01*
X13468397Y-9838202D02*
X13468397Y-9798202D01*
X13468397Y-9818202D02*
X13538397Y-9818202D01*
X13538397Y-9818202D02*
X13528397Y-9811535D01*
X13528397Y-9811535D02*
X13521730Y-9804868D01*
X13521730Y-9804868D02*
X13518397Y-9798202D01*
X13515063Y-9898202D02*
X13468397Y-9898202D01*
X13541730Y-9881535D02*
X13491730Y-9864868D01*
X13491730Y-9864868D02*
X13491730Y-9908202D01*
X13468397Y-10113202D02*
X13468397Y-10073202D01*
X13468397Y-10093202D02*
X13538397Y-10093202D01*
X13538397Y-10093202D02*
X13528397Y-10086535D01*
X13528397Y-10086535D02*
X13521730Y-10079868D01*
X13521730Y-10079868D02*
X13518397Y-10073202D01*
X13531730Y-10139868D02*
X13535063Y-10143202D01*
X13535063Y-10143202D02*
X13538397Y-10149868D01*
X13538397Y-10149868D02*
X13538397Y-10166535D01*
X13538397Y-10166535D02*
X13535063Y-10173202D01*
X13535063Y-10173202D02*
X13531730Y-10176535D01*
X13531730Y-10176535D02*
X13525063Y-10179868D01*
X13525063Y-10179868D02*
X13518397Y-10179868D01*
X13518397Y-10179868D02*
X13508397Y-10176535D01*
X13508397Y-10176535D02*
X13468397Y-10136535D01*
X13468397Y-10136535D02*
X13468397Y-10179868D01*
X13535063Y-10313202D02*
X13538397Y-10306535D01*
X13538397Y-10306535D02*
X13538397Y-10296535D01*
X13538397Y-10296535D02*
X13535063Y-10286535D01*
X13535063Y-10286535D02*
X13528397Y-10279868D01*
X13528397Y-10279868D02*
X13521730Y-10276535D01*
X13521730Y-10276535D02*
X13508397Y-10273202D01*
X13508397Y-10273202D02*
X13498397Y-10273202D01*
X13498397Y-10273202D02*
X13485063Y-10276535D01*
X13485063Y-10276535D02*
X13478397Y-10279868D01*
X13478397Y-10279868D02*
X13471730Y-10286535D01*
X13471730Y-10286535D02*
X13468397Y-10296535D01*
X13468397Y-10296535D02*
X13468397Y-10303202D01*
X13468397Y-10303202D02*
X13471730Y-10313202D01*
X13471730Y-10313202D02*
X13475063Y-10316535D01*
X13475063Y-10316535D02*
X13498397Y-10316535D01*
X13498397Y-10316535D02*
X13498397Y-10303202D01*
X13468397Y-10346535D02*
X13538397Y-10346535D01*
X13538397Y-10346535D02*
X13468397Y-10386535D01*
X13468397Y-10386535D02*
X13538397Y-10386535D01*
X13468397Y-10419868D02*
X13538397Y-10419868D01*
X13538397Y-10419868D02*
X13538397Y-10436535D01*
X13538397Y-10436535D02*
X13535063Y-10446535D01*
X13535063Y-10446535D02*
X13528397Y-10453202D01*
X13528397Y-10453202D02*
X13521730Y-10456535D01*
X13521730Y-10456535D02*
X13508397Y-10459868D01*
X13508397Y-10459868D02*
X13498397Y-10459868D01*
X13498397Y-10459868D02*
X13485063Y-10456535D01*
X13485063Y-10456535D02*
X13478397Y-10453202D01*
X13478397Y-10453202D02*
X13471730Y-10446535D01*
X13471730Y-10446535D02*
X13468397Y-10436535D01*
X13468397Y-10436535D02*
X13468397Y-10419868D01*
X13468397Y-10638202D02*
X13468397Y-10598202D01*
X13468397Y-10618202D02*
X13538397Y-10618202D01*
X13538397Y-10618202D02*
X13528397Y-10611535D01*
X13528397Y-10611535D02*
X13521730Y-10604868D01*
X13521730Y-10604868D02*
X13518397Y-10598202D01*
X13538397Y-10661535D02*
X13538397Y-10704868D01*
X13538397Y-10704868D02*
X13511730Y-10681535D01*
X13511730Y-10681535D02*
X13511730Y-10691535D01*
X13511730Y-10691535D02*
X13508397Y-10698202D01*
X13508397Y-10698202D02*
X13505063Y-10701535D01*
X13505063Y-10701535D02*
X13498397Y-10704868D01*
X13498397Y-10704868D02*
X13481730Y-10704868D01*
X13481730Y-10704868D02*
X13475063Y-10701535D01*
X13475063Y-10701535D02*
X13471730Y-10698202D01*
X13471730Y-10698202D02*
X13468397Y-10691535D01*
X13468397Y-10691535D02*
X13468397Y-10671535D01*
X13468397Y-10671535D02*
X13471730Y-10664868D01*
X13471730Y-10664868D02*
X13475063Y-10661535D01*
X13468397Y-10826535D02*
X13538397Y-10826535D01*
X13538397Y-10826535D02*
X13468397Y-10866535D01*
X13468397Y-10866535D02*
X13538397Y-10866535D01*
X13475063Y-10939868D02*
X13471730Y-10936535D01*
X13471730Y-10936535D02*
X13468397Y-10926535D01*
X13468397Y-10926535D02*
X13468397Y-10919868D01*
X13468397Y-10919868D02*
X13471730Y-10909868D01*
X13471730Y-10909868D02*
X13478397Y-10903202D01*
X13478397Y-10903202D02*
X13485063Y-10899868D01*
X13485063Y-10899868D02*
X13498397Y-10896535D01*
X13498397Y-10896535D02*
X13508397Y-10896535D01*
X13508397Y-10896535D02*
X13521730Y-10899868D01*
X13521730Y-10899868D02*
X13528397Y-10903202D01*
X13528397Y-10903202D02*
X13535063Y-10909868D01*
X13535063Y-10909868D02*
X13538397Y-10919868D01*
X13538397Y-10919868D02*
X13538397Y-10926535D01*
X13538397Y-10926535D02*
X13535063Y-10936535D01*
X13535063Y-10936535D02*
X13531730Y-10939868D01*
X13468397Y-11076535D02*
X13538397Y-11076535D01*
X13538397Y-11076535D02*
X13468397Y-11116535D01*
X13468397Y-11116535D02*
X13538397Y-11116535D01*
X13475063Y-11189868D02*
X13471730Y-11186535D01*
X13471730Y-11186535D02*
X13468397Y-11176535D01*
X13468397Y-11176535D02*
X13468397Y-11169868D01*
X13468397Y-11169868D02*
X13471730Y-11159868D01*
X13471730Y-11159868D02*
X13478397Y-11153202D01*
X13478397Y-11153202D02*
X13485063Y-11149868D01*
X13485063Y-11149868D02*
X13498397Y-11146535D01*
X13498397Y-11146535D02*
X13508397Y-11146535D01*
X13508397Y-11146535D02*
X13521730Y-11149868D01*
X13521730Y-11149868D02*
X13528397Y-11153202D01*
X13528397Y-11153202D02*
X13535063Y-11159868D01*
X13535063Y-11159868D02*
X13538397Y-11169868D01*
X13538397Y-11169868D02*
X13538397Y-11176535D01*
X13538397Y-11176535D02*
X13535063Y-11186535D01*
X13535063Y-11186535D02*
X13531730Y-11189868D01*
X13468397Y-11326535D02*
X13538397Y-11326535D01*
X13538397Y-11326535D02*
X13468397Y-11366535D01*
X13468397Y-11366535D02*
X13538397Y-11366535D01*
X13475063Y-11439868D02*
X13471730Y-11436535D01*
X13471730Y-11436535D02*
X13468397Y-11426535D01*
X13468397Y-11426535D02*
X13468397Y-11419868D01*
X13468397Y-11419868D02*
X13471730Y-11409868D01*
X13471730Y-11409868D02*
X13478397Y-11403202D01*
X13478397Y-11403202D02*
X13485063Y-11399868D01*
X13485063Y-11399868D02*
X13498397Y-11396535D01*
X13498397Y-11396535D02*
X13508397Y-11396535D01*
X13508397Y-11396535D02*
X13521730Y-11399868D01*
X13521730Y-11399868D02*
X13528397Y-11403202D01*
X13528397Y-11403202D02*
X13535063Y-11409868D01*
X13535063Y-11409868D02*
X13538397Y-11419868D01*
X13538397Y-11419868D02*
X13538397Y-11426535D01*
X13538397Y-11426535D02*
X13535063Y-11436535D01*
X13535063Y-11436535D02*
X13531730Y-11439868D01*
X13538397Y-11634868D02*
X13538397Y-11601535D01*
X13538397Y-11601535D02*
X13505063Y-11598202D01*
X13505063Y-11598202D02*
X13508397Y-11601535D01*
X13508397Y-11601535D02*
X13511730Y-11608202D01*
X13511730Y-11608202D02*
X13511730Y-11624868D01*
X13511730Y-11624868D02*
X13508397Y-11631535D01*
X13508397Y-11631535D02*
X13505063Y-11634868D01*
X13505063Y-11634868D02*
X13498397Y-11638202D01*
X13498397Y-11638202D02*
X13481730Y-11638202D01*
X13481730Y-11638202D02*
X13475063Y-11634868D01*
X13475063Y-11634868D02*
X13471730Y-11631535D01*
X13471730Y-11631535D02*
X13468397Y-11624868D01*
X13468397Y-11624868D02*
X13468397Y-11608202D01*
X13468397Y-11608202D02*
X13471730Y-11601535D01*
X13471730Y-11601535D02*
X13475063Y-11598202D01*
X13538397Y-11658202D02*
X13468397Y-11681535D01*
X13468397Y-11681535D02*
X13538397Y-11704868D01*
X15614937Y-7144868D02*
X15611603Y-7151535D01*
X15611603Y-7151535D02*
X15611603Y-7161535D01*
X15611603Y-7161535D02*
X15614937Y-7171535D01*
X15614937Y-7171535D02*
X15621603Y-7178202D01*
X15621603Y-7178202D02*
X15628270Y-7181535D01*
X15628270Y-7181535D02*
X15641603Y-7184868D01*
X15641603Y-7184868D02*
X15651603Y-7184868D01*
X15651603Y-7184868D02*
X15664937Y-7181535D01*
X15664937Y-7181535D02*
X15671603Y-7178202D01*
X15671603Y-7178202D02*
X15678270Y-7171535D01*
X15678270Y-7171535D02*
X15681603Y-7161535D01*
X15681603Y-7161535D02*
X15681603Y-7154868D01*
X15681603Y-7154868D02*
X15678270Y-7144868D01*
X15678270Y-7144868D02*
X15674937Y-7141535D01*
X15674937Y-7141535D02*
X15651603Y-7141535D01*
X15651603Y-7141535D02*
X15651603Y-7154868D01*
X15681603Y-7111535D02*
X15611603Y-7111535D01*
X15611603Y-7111535D02*
X15681603Y-7071535D01*
X15681603Y-7071535D02*
X15611603Y-7071535D01*
X15681603Y-7038202D02*
X15611603Y-7038202D01*
X15611603Y-7038202D02*
X15611603Y-7021535D01*
X15611603Y-7021535D02*
X15614937Y-7011535D01*
X15614937Y-7011535D02*
X15621603Y-7004868D01*
X15621603Y-7004868D02*
X15628270Y-7001535D01*
X15628270Y-7001535D02*
X15641603Y-6998202D01*
X15641603Y-6998202D02*
X15651603Y-6998202D01*
X15651603Y-6998202D02*
X15664937Y-7001535D01*
X15664937Y-7001535D02*
X15671603Y-7004868D01*
X15671603Y-7004868D02*
X15678270Y-7011535D01*
X15678270Y-7011535D02*
X15681603Y-7021535D01*
X15681603Y-7021535D02*
X15681603Y-7038202D01*
X15618270Y-7379868D02*
X15614937Y-7376535D01*
X15614937Y-7376535D02*
X15611603Y-7369868D01*
X15611603Y-7369868D02*
X15611603Y-7353202D01*
X15611603Y-7353202D02*
X15614937Y-7346535D01*
X15614937Y-7346535D02*
X15618270Y-7343202D01*
X15618270Y-7343202D02*
X15624937Y-7339868D01*
X15624937Y-7339868D02*
X15631603Y-7339868D01*
X15631603Y-7339868D02*
X15641603Y-7343202D01*
X15641603Y-7343202D02*
X15681603Y-7383202D01*
X15681603Y-7383202D02*
X15681603Y-7339868D01*
X15611603Y-7316535D02*
X15611603Y-7273202D01*
X15611603Y-7273202D02*
X15638270Y-7296535D01*
X15638270Y-7296535D02*
X15638270Y-7286535D01*
X15638270Y-7286535D02*
X15641603Y-7279868D01*
X15641603Y-7279868D02*
X15644937Y-7276535D01*
X15644937Y-7276535D02*
X15651603Y-7273202D01*
X15651603Y-7273202D02*
X15668270Y-7273202D01*
X15668270Y-7273202D02*
X15674937Y-7276535D01*
X15674937Y-7276535D02*
X15678270Y-7279868D01*
X15678270Y-7279868D02*
X15681603Y-7286535D01*
X15681603Y-7286535D02*
X15681603Y-7306535D01*
X15681603Y-7306535D02*
X15678270Y-7313202D01*
X15678270Y-7313202D02*
X15674937Y-7316535D01*
X15618270Y-7629868D02*
X15614937Y-7626535D01*
X15614937Y-7626535D02*
X15611603Y-7619868D01*
X15611603Y-7619868D02*
X15611603Y-7603202D01*
X15611603Y-7603202D02*
X15614937Y-7596535D01*
X15614937Y-7596535D02*
X15618270Y-7593202D01*
X15618270Y-7593202D02*
X15624937Y-7589868D01*
X15624937Y-7589868D02*
X15631603Y-7589868D01*
X15631603Y-7589868D02*
X15641603Y-7593202D01*
X15641603Y-7593202D02*
X15681603Y-7633202D01*
X15681603Y-7633202D02*
X15681603Y-7589868D01*
X15618270Y-7563202D02*
X15614937Y-7559868D01*
X15614937Y-7559868D02*
X15611603Y-7553202D01*
X15611603Y-7553202D02*
X15611603Y-7536535D01*
X15611603Y-7536535D02*
X15614937Y-7529868D01*
X15614937Y-7529868D02*
X15618270Y-7526535D01*
X15618270Y-7526535D02*
X15624937Y-7523202D01*
X15624937Y-7523202D02*
X15631603Y-7523202D01*
X15631603Y-7523202D02*
X15641603Y-7526535D01*
X15641603Y-7526535D02*
X15681603Y-7566535D01*
X15681603Y-7566535D02*
X15681603Y-7523202D01*
X15681603Y-7798202D02*
X15681603Y-7838202D01*
X15681603Y-7818202D02*
X15611603Y-7818202D01*
X15611603Y-7818202D02*
X15621603Y-7824868D01*
X15621603Y-7824868D02*
X15628270Y-7831535D01*
X15628270Y-7831535D02*
X15631603Y-7838202D01*
X15611603Y-8116535D02*
X15611603Y-8073202D01*
X15611603Y-8073202D02*
X15638270Y-8096535D01*
X15638270Y-8096535D02*
X15638270Y-8086535D01*
X15638270Y-8086535D02*
X15641603Y-8079868D01*
X15641603Y-8079868D02*
X15644937Y-8076535D01*
X15644937Y-8076535D02*
X15651603Y-8073202D01*
X15651603Y-8073202D02*
X15668270Y-8073202D01*
X15668270Y-8073202D02*
X15674937Y-8076535D01*
X15674937Y-8076535D02*
X15678270Y-8079868D01*
X15678270Y-8079868D02*
X15681603Y-8086535D01*
X15681603Y-8086535D02*
X15681603Y-8106535D01*
X15681603Y-8106535D02*
X15678270Y-8113202D01*
X15678270Y-8113202D02*
X15674937Y-8116535D01*
X15618270Y-8379868D02*
X15614937Y-8376535D01*
X15614937Y-8376535D02*
X15611603Y-8369868D01*
X15611603Y-8369868D02*
X15611603Y-8353202D01*
X15611603Y-8353202D02*
X15614937Y-8346535D01*
X15614937Y-8346535D02*
X15618270Y-8343202D01*
X15618270Y-8343202D02*
X15624937Y-8339868D01*
X15624937Y-8339868D02*
X15631603Y-8339868D01*
X15631603Y-8339868D02*
X15641603Y-8343202D01*
X15641603Y-8343202D02*
X15681603Y-8383202D01*
X15681603Y-8383202D02*
X15681603Y-8339868D01*
X15681603Y-8273202D02*
X15681603Y-8313202D01*
X15681603Y-8293202D02*
X15611603Y-8293202D01*
X15611603Y-8293202D02*
X15621603Y-8299868D01*
X15621603Y-8299868D02*
X15628270Y-8306535D01*
X15628270Y-8306535D02*
X15631603Y-8313202D01*
X15614937Y-8619868D02*
X15611603Y-8626535D01*
X15611603Y-8626535D02*
X15611603Y-8636535D01*
X15611603Y-8636535D02*
X15614937Y-8646535D01*
X15614937Y-8646535D02*
X15621603Y-8653202D01*
X15621603Y-8653202D02*
X15628270Y-8656535D01*
X15628270Y-8656535D02*
X15641603Y-8659868D01*
X15641603Y-8659868D02*
X15651603Y-8659868D01*
X15651603Y-8659868D02*
X15664937Y-8656535D01*
X15664937Y-8656535D02*
X15671603Y-8653202D01*
X15671603Y-8653202D02*
X15678270Y-8646535D01*
X15678270Y-8646535D02*
X15681603Y-8636535D01*
X15681603Y-8636535D02*
X15681603Y-8629868D01*
X15681603Y-8629868D02*
X15678270Y-8619868D01*
X15678270Y-8619868D02*
X15674937Y-8616535D01*
X15674937Y-8616535D02*
X15651603Y-8616535D01*
X15651603Y-8616535D02*
X15651603Y-8629868D01*
X15681603Y-8586535D02*
X15611603Y-8586535D01*
X15611603Y-8586535D02*
X15681603Y-8546535D01*
X15681603Y-8546535D02*
X15611603Y-8546535D01*
X15681603Y-8513202D02*
X15611603Y-8513202D01*
X15611603Y-8513202D02*
X15611603Y-8496535D01*
X15611603Y-8496535D02*
X15614937Y-8486535D01*
X15614937Y-8486535D02*
X15621603Y-8479868D01*
X15621603Y-8479868D02*
X15628270Y-8476535D01*
X15628270Y-8476535D02*
X15641603Y-8473202D01*
X15641603Y-8473202D02*
X15651603Y-8473202D01*
X15651603Y-8473202D02*
X15664937Y-8476535D01*
X15664937Y-8476535D02*
X15671603Y-8479868D01*
X15671603Y-8479868D02*
X15678270Y-8486535D01*
X15678270Y-8486535D02*
X15681603Y-8496535D01*
X15681603Y-8496535D02*
X15681603Y-8513202D01*
X15681603Y-8864868D02*
X15681603Y-8904868D01*
X15681603Y-8884868D02*
X15611603Y-8884868D01*
X15611603Y-8884868D02*
X15621603Y-8891535D01*
X15621603Y-8891535D02*
X15628270Y-8898202D01*
X15628270Y-8898202D02*
X15631603Y-8904868D01*
X15681603Y-8831535D02*
X15681603Y-8818202D01*
X15681603Y-8818202D02*
X15678270Y-8811535D01*
X15678270Y-8811535D02*
X15674937Y-8808202D01*
X15674937Y-8808202D02*
X15664937Y-8801535D01*
X15664937Y-8801535D02*
X15651603Y-8798202D01*
X15651603Y-8798202D02*
X15624937Y-8798202D01*
X15624937Y-8798202D02*
X15618270Y-8801535D01*
X15618270Y-8801535D02*
X15614937Y-8804868D01*
X15614937Y-8804868D02*
X15611603Y-8811535D01*
X15611603Y-8811535D02*
X15611603Y-8824868D01*
X15611603Y-8824868D02*
X15614937Y-8831535D01*
X15614937Y-8831535D02*
X15618270Y-8834868D01*
X15618270Y-8834868D02*
X15624937Y-8838202D01*
X15624937Y-8838202D02*
X15641603Y-8838202D01*
X15641603Y-8838202D02*
X15648270Y-8834868D01*
X15648270Y-8834868D02*
X15651603Y-8831535D01*
X15651603Y-8831535D02*
X15654937Y-8824868D01*
X15654937Y-8824868D02*
X15654937Y-8811535D01*
X15654937Y-8811535D02*
X15651603Y-8804868D01*
X15651603Y-8804868D02*
X15648270Y-8801535D01*
X15648270Y-8801535D02*
X15641603Y-8798202D01*
X15681603Y-9114868D02*
X15681603Y-9154868D01*
X15681603Y-9134868D02*
X15611603Y-9134868D01*
X15611603Y-9134868D02*
X15621603Y-9141535D01*
X15621603Y-9141535D02*
X15628270Y-9148202D01*
X15628270Y-9148202D02*
X15631603Y-9154868D01*
X15641603Y-9074868D02*
X15638270Y-9081535D01*
X15638270Y-9081535D02*
X15634937Y-9084868D01*
X15634937Y-9084868D02*
X15628270Y-9088202D01*
X15628270Y-9088202D02*
X15624937Y-9088202D01*
X15624937Y-9088202D02*
X15618270Y-9084868D01*
X15618270Y-9084868D02*
X15614937Y-9081535D01*
X15614937Y-9081535D02*
X15611603Y-9074868D01*
X15611603Y-9074868D02*
X15611603Y-9061535D01*
X15611603Y-9061535D02*
X15614937Y-9054868D01*
X15614937Y-9054868D02*
X15618270Y-9051535D01*
X15618270Y-9051535D02*
X15624937Y-9048202D01*
X15624937Y-9048202D02*
X15628270Y-9048202D01*
X15628270Y-9048202D02*
X15634937Y-9051535D01*
X15634937Y-9051535D02*
X15638270Y-9054868D01*
X15638270Y-9054868D02*
X15641603Y-9061535D01*
X15641603Y-9061535D02*
X15641603Y-9074868D01*
X15641603Y-9074868D02*
X15644937Y-9081535D01*
X15644937Y-9081535D02*
X15648270Y-9084868D01*
X15648270Y-9084868D02*
X15654937Y-9088202D01*
X15654937Y-9088202D02*
X15668270Y-9088202D01*
X15668270Y-9088202D02*
X15674937Y-9084868D01*
X15674937Y-9084868D02*
X15678270Y-9081535D01*
X15678270Y-9081535D02*
X15681603Y-9074868D01*
X15681603Y-9074868D02*
X15681603Y-9061535D01*
X15681603Y-9061535D02*
X15678270Y-9054868D01*
X15678270Y-9054868D02*
X15674937Y-9051535D01*
X15674937Y-9051535D02*
X15668270Y-9048202D01*
X15668270Y-9048202D02*
X15654937Y-9048202D01*
X15654937Y-9048202D02*
X15648270Y-9051535D01*
X15648270Y-9051535D02*
X15644937Y-9054868D01*
X15644937Y-9054868D02*
X15641603Y-9061535D01*
X15611603Y-9326535D02*
X15611603Y-9359868D01*
X15611603Y-9359868D02*
X15644937Y-9363202D01*
X15644937Y-9363202D02*
X15641603Y-9359868D01*
X15641603Y-9359868D02*
X15638270Y-9353202D01*
X15638270Y-9353202D02*
X15638270Y-9336535D01*
X15638270Y-9336535D02*
X15641603Y-9329868D01*
X15641603Y-9329868D02*
X15644937Y-9326535D01*
X15644937Y-9326535D02*
X15651603Y-9323202D01*
X15651603Y-9323202D02*
X15668270Y-9323202D01*
X15668270Y-9323202D02*
X15674937Y-9326535D01*
X15674937Y-9326535D02*
X15678270Y-9329868D01*
X15678270Y-9329868D02*
X15681603Y-9336535D01*
X15681603Y-9336535D02*
X15681603Y-9353202D01*
X15681603Y-9353202D02*
X15678270Y-9359868D01*
X15678270Y-9359868D02*
X15674937Y-9363202D01*
X15681603Y-9614868D02*
X15681603Y-9654868D01*
X15681603Y-9634868D02*
X15611603Y-9634868D01*
X15611603Y-9634868D02*
X15621603Y-9641535D01*
X15621603Y-9641535D02*
X15628270Y-9648202D01*
X15628270Y-9648202D02*
X15631603Y-9654868D01*
X15611603Y-9591535D02*
X15611603Y-9544868D01*
X15611603Y-9544868D02*
X15681603Y-9574868D01*
X15681603Y-9864868D02*
X15681603Y-9904868D01*
X15681603Y-9884868D02*
X15611603Y-9884868D01*
X15611603Y-9884868D02*
X15621603Y-9891535D01*
X15621603Y-9891535D02*
X15628270Y-9898202D01*
X15628270Y-9898202D02*
X15631603Y-9904868D01*
X15611603Y-9804868D02*
X15611603Y-9818202D01*
X15611603Y-9818202D02*
X15614937Y-9824868D01*
X15614937Y-9824868D02*
X15618270Y-9828202D01*
X15618270Y-9828202D02*
X15628270Y-9834868D01*
X15628270Y-9834868D02*
X15641603Y-9838202D01*
X15641603Y-9838202D02*
X15668270Y-9838202D01*
X15668270Y-9838202D02*
X15674937Y-9834868D01*
X15674937Y-9834868D02*
X15678270Y-9831535D01*
X15678270Y-9831535D02*
X15681603Y-9824868D01*
X15681603Y-9824868D02*
X15681603Y-9811535D01*
X15681603Y-9811535D02*
X15678270Y-9804868D01*
X15678270Y-9804868D02*
X15674937Y-9801535D01*
X15674937Y-9801535D02*
X15668270Y-9798202D01*
X15668270Y-9798202D02*
X15651603Y-9798202D01*
X15651603Y-9798202D02*
X15644937Y-9801535D01*
X15644937Y-9801535D02*
X15641603Y-9804868D01*
X15641603Y-9804868D02*
X15638270Y-9811535D01*
X15638270Y-9811535D02*
X15638270Y-9824868D01*
X15638270Y-9824868D02*
X15641603Y-9831535D01*
X15641603Y-9831535D02*
X15644937Y-9834868D01*
X15644937Y-9834868D02*
X15651603Y-9838202D01*
X15634937Y-10104868D02*
X15681603Y-10104868D01*
X15608270Y-10121535D02*
X15658270Y-10138202D01*
X15658270Y-10138202D02*
X15658270Y-10094868D01*
X15611603Y-10371535D02*
X15611603Y-10364868D01*
X15611603Y-10364868D02*
X15614937Y-10358202D01*
X15614937Y-10358202D02*
X15618270Y-10354868D01*
X15618270Y-10354868D02*
X15624937Y-10351535D01*
X15624937Y-10351535D02*
X15638270Y-10348202D01*
X15638270Y-10348202D02*
X15654937Y-10348202D01*
X15654937Y-10348202D02*
X15668270Y-10351535D01*
X15668270Y-10351535D02*
X15674937Y-10354868D01*
X15674937Y-10354868D02*
X15678270Y-10358202D01*
X15678270Y-10358202D02*
X15681603Y-10364868D01*
X15681603Y-10364868D02*
X15681603Y-10371535D01*
X15681603Y-10371535D02*
X15678270Y-10378202D01*
X15678270Y-10378202D02*
X15674937Y-10381535D01*
X15674937Y-10381535D02*
X15668270Y-10384868D01*
X15668270Y-10384868D02*
X15654937Y-10388202D01*
X15654937Y-10388202D02*
X15638270Y-10388202D01*
X15638270Y-10388202D02*
X15624937Y-10384868D01*
X15624937Y-10384868D02*
X15618270Y-10381535D01*
X15618270Y-10381535D02*
X15614937Y-10378202D01*
X15614937Y-10378202D02*
X15611603Y-10371535D01*
X15618270Y-10638202D02*
X15614937Y-10634868D01*
X15614937Y-10634868D02*
X15611603Y-10628202D01*
X15611603Y-10628202D02*
X15611603Y-10611535D01*
X15611603Y-10611535D02*
X15614937Y-10604868D01*
X15614937Y-10604868D02*
X15618270Y-10601535D01*
X15618270Y-10601535D02*
X15624937Y-10598202D01*
X15624937Y-10598202D02*
X15631603Y-10598202D01*
X15631603Y-10598202D02*
X15641603Y-10601535D01*
X15641603Y-10601535D02*
X15681603Y-10641535D01*
X15681603Y-10641535D02*
X15681603Y-10598202D01*
X15681603Y-10889868D02*
X15681603Y-10929868D01*
X15681603Y-10909868D02*
X15611603Y-10909868D01*
X15611603Y-10909868D02*
X15621603Y-10916535D01*
X15621603Y-10916535D02*
X15628270Y-10923202D01*
X15628270Y-10923202D02*
X15631603Y-10929868D01*
X15611603Y-10826535D02*
X15611603Y-10859868D01*
X15611603Y-10859868D02*
X15644937Y-10863202D01*
X15644937Y-10863202D02*
X15641603Y-10859868D01*
X15641603Y-10859868D02*
X15638270Y-10853202D01*
X15638270Y-10853202D02*
X15638270Y-10836535D01*
X15638270Y-10836535D02*
X15641603Y-10829868D01*
X15641603Y-10829868D02*
X15644937Y-10826535D01*
X15644937Y-10826535D02*
X15651603Y-10823202D01*
X15651603Y-10823202D02*
X15668270Y-10823202D01*
X15668270Y-10823202D02*
X15674937Y-10826535D01*
X15674937Y-10826535D02*
X15678270Y-10829868D01*
X15678270Y-10829868D02*
X15681603Y-10836535D01*
X15681603Y-10836535D02*
X15681603Y-10853202D01*
X15681603Y-10853202D02*
X15678270Y-10859868D01*
X15678270Y-10859868D02*
X15674937Y-10863202D01*
X15681603Y-11186535D02*
X15611603Y-11186535D01*
X15611603Y-11186535D02*
X15681603Y-11146535D01*
X15681603Y-11146535D02*
X15611603Y-11146535D01*
X15674937Y-11073202D02*
X15678270Y-11076535D01*
X15678270Y-11076535D02*
X15681603Y-11086535D01*
X15681603Y-11086535D02*
X15681603Y-11093202D01*
X15681603Y-11093202D02*
X15678270Y-11103202D01*
X15678270Y-11103202D02*
X15671603Y-11109868D01*
X15671603Y-11109868D02*
X15664937Y-11113202D01*
X15664937Y-11113202D02*
X15651603Y-11116535D01*
X15651603Y-11116535D02*
X15641603Y-11116535D01*
X15641603Y-11116535D02*
X15628270Y-11113202D01*
X15628270Y-11113202D02*
X15621603Y-11109868D01*
X15621603Y-11109868D02*
X15614937Y-11103202D01*
X15614937Y-11103202D02*
X15611603Y-11093202D01*
X15611603Y-11093202D02*
X15611603Y-11086535D01*
X15611603Y-11086535D02*
X15614937Y-11076535D01*
X15614937Y-11076535D02*
X15618270Y-11073202D01*
X15681603Y-11436535D02*
X15611603Y-11436535D01*
X15611603Y-11436535D02*
X15681603Y-11396535D01*
X15681603Y-11396535D02*
X15611603Y-11396535D01*
X15674937Y-11323202D02*
X15678270Y-11326535D01*
X15678270Y-11326535D02*
X15681603Y-11336535D01*
X15681603Y-11336535D02*
X15681603Y-11343202D01*
X15681603Y-11343202D02*
X15678270Y-11353202D01*
X15678270Y-11353202D02*
X15671603Y-11359868D01*
X15671603Y-11359868D02*
X15664937Y-11363202D01*
X15664937Y-11363202D02*
X15651603Y-11366535D01*
X15651603Y-11366535D02*
X15641603Y-11366535D01*
X15641603Y-11366535D02*
X15628270Y-11363202D01*
X15628270Y-11363202D02*
X15621603Y-11359868D01*
X15621603Y-11359868D02*
X15614937Y-11353202D01*
X15614937Y-11353202D02*
X15611603Y-11343202D01*
X15611603Y-11343202D02*
X15611603Y-11336535D01*
X15611603Y-11336535D02*
X15614937Y-11326535D01*
X15614937Y-11326535D02*
X15618270Y-11323202D01*
X15681603Y-11686535D02*
X15611603Y-11686535D01*
X15611603Y-11686535D02*
X15681603Y-11646535D01*
X15681603Y-11646535D02*
X15611603Y-11646535D01*
X15674937Y-11573202D02*
X15678270Y-11576535D01*
X15678270Y-11576535D02*
X15681603Y-11586535D01*
X15681603Y-11586535D02*
X15681603Y-11593202D01*
X15681603Y-11593202D02*
X15678270Y-11603202D01*
X15678270Y-11603202D02*
X15671603Y-11609868D01*
X15671603Y-11609868D02*
X15664937Y-11613202D01*
X15664937Y-11613202D02*
X15651603Y-11616535D01*
X15651603Y-11616535D02*
X15641603Y-11616535D01*
X15641603Y-11616535D02*
X15628270Y-11613202D01*
X15628270Y-11613202D02*
X15621603Y-11609868D01*
X15621603Y-11609868D02*
X15614937Y-11603202D01*
X15614937Y-11603202D02*
X15611603Y-11593202D01*
X15611603Y-11593202D02*
X15611603Y-11586535D01*
X15611603Y-11586535D02*
X15614937Y-11576535D01*
X15614937Y-11576535D02*
X15618270Y-11573202D01*
%TO.C,C7*%
D12*
X15344500Y-9557500D02*
X15344500Y-9949500D01*
X15344500Y-9949500D02*
X15535500Y-9949500D01*
X15535500Y-9949500D02*
X15535500Y-9557500D01*
%TO.C,C6*%
X13714000Y-9259216D02*
X13714000Y-9280784D01*
X13786000Y-9259216D02*
X13786000Y-9280784D01*
%TO.C,R3*%
X14995636Y-10822000D02*
X15026364Y-10822000D01*
X14995636Y-10898000D02*
X15026364Y-10898000D01*
%TO.C,R2*%
X14326364Y-10822000D02*
X14295636Y-10822000D01*
X14326364Y-10898000D02*
X14295636Y-10898000D01*
%TO.C,C4*%
X13707216Y-9634000D02*
X13728784Y-9634000D01*
X13707216Y-9706000D02*
X13728784Y-9706000D01*
%TO.C,U3*%
X14400000Y-9059000D02*
X14776000Y-9059000D01*
X14400000Y-9741000D02*
X14776000Y-9741000D01*
X14776000Y-9059000D02*
X14776000Y-9185000D01*
X14776000Y-9741000D02*
X14776000Y-9615000D01*
X14272000Y-9069000D02*
X14248000Y-9036000D01*
X14296000Y-9036000D01*
X14272000Y-9069000D01*
G36*
X14272000Y-9069000D02*
G01*
X14248000Y-9036000D01*
X14296000Y-9036000D01*
X14272000Y-9069000D01*
G37*
%TO.C,R5*%
X14132000Y-10575636D02*
X14132000Y-10606364D01*
X14208000Y-10575636D02*
X14208000Y-10606364D01*
%TO.C,Q1*%
X13769000Y-10012500D02*
X13769000Y-10227500D01*
X13860000Y-10227500D02*
X13769000Y-10227500D01*
X14091000Y-10067500D02*
X14091000Y-10227500D01*
X14091000Y-10227500D02*
X14000000Y-10227500D01*
X14119000Y-10041500D02*
X14086000Y-10017500D01*
X14119000Y-9993500D01*
X14119000Y-10041500D01*
G36*
X14119000Y-10041500D02*
G01*
X14086000Y-10017500D01*
X14119000Y-9993500D01*
X14119000Y-10041500D01*
G37*
%TO.C,C2*%
X15104000Y-10361216D02*
X15104000Y-10382784D01*
X15176000Y-10361216D02*
X15176000Y-10382784D01*
%TO.C,C9*%
X13757216Y-10804000D02*
X13778784Y-10804000D01*
X13757216Y-10876000D02*
X13778784Y-10876000D01*
%TO.C,C3*%
X15234000Y-10378784D02*
X15234000Y-10357216D01*
X15306000Y-10378784D02*
X15306000Y-10357216D01*
%TO.C,SW2*%
X15194000Y-11103000D02*
X15224000Y-11103000D01*
X15194000Y-11517000D02*
X15194000Y-11103000D01*
X15224000Y-11517000D02*
X15194000Y-11517000D01*
X15478000Y-11103000D02*
X15508000Y-11103000D01*
X15508000Y-11103000D02*
X15508000Y-11517000D01*
X15508000Y-11517000D02*
X15478000Y-11517000D01*
%TO.C,SW1*%
X13643000Y-11103000D02*
X13673000Y-11103000D01*
X13643000Y-11517000D02*
X13643000Y-11103000D01*
X13673000Y-11517000D02*
X13643000Y-11517000D01*
X13927000Y-11103000D02*
X13957000Y-11103000D01*
X13957000Y-11103000D02*
X13957000Y-11517000D01*
X13957000Y-11517000D02*
X13927000Y-11517000D01*
%TO.C,C5*%
X15084500Y-9480500D02*
X15084500Y-9872500D01*
X15275500Y-9480500D02*
X15084500Y-9480500D01*
X15275500Y-9872500D02*
X15275500Y-9480500D01*
%TO.C,D1*%
X14515000Y-10851000D02*
X14645000Y-10851000D01*
X14645000Y-10539000D02*
X14518000Y-10539000D01*
X14480000Y-10544000D02*
X14456000Y-10511000D01*
X14504000Y-10511000D01*
X14480000Y-10544000D01*
G36*
X14480000Y-10544000D02*
G01*
X14456000Y-10511000D01*
X14504000Y-10511000D01*
X14480000Y-10544000D01*
G37*
%TO.C,C8*%
X13834500Y-9055500D02*
X13834500Y-9447500D01*
X14025500Y-9055500D02*
X13834500Y-9055500D01*
X14025500Y-9447500D02*
X14025500Y-9055500D01*
%TO.C,R1*%
X13736364Y-9762000D02*
X13705636Y-9762000D01*
X13736364Y-9838000D02*
X13705636Y-9838000D01*
%TO.C,C1*%
X14974000Y-10357216D02*
X14974000Y-10378784D01*
X15046000Y-10357216D02*
X15046000Y-10378784D01*
%TO.C,R4*%
X14132000Y-10374364D02*
X14132000Y-10343636D01*
X14208000Y-10374364D02*
X14208000Y-10343636D01*
%TO.C,Q2*%
X13769000Y-10452500D02*
X13860000Y-10452500D01*
X13769000Y-10612500D02*
X13769000Y-10452500D01*
X14000000Y-10452500D02*
X14091000Y-10452500D01*
X14091000Y-10667500D02*
X14091000Y-10452500D01*
X13774000Y-10662500D02*
X13741000Y-10686500D01*
X13741000Y-10638500D01*
X13774000Y-10662500D01*
G36*
X13774000Y-10662500D02*
G01*
X13741000Y-10686500D01*
X13741000Y-10638500D01*
X13774000Y-10662500D01*
G37*
%TO.C,U2*%
X13686000Y-8831000D02*
X13686000Y-8906000D01*
X13686000Y-8906000D02*
X13761000Y-8906000D01*
X13761000Y-8906000D02*
X13936000Y-8906000D01*
X15411000Y-8906000D02*
X15236000Y-8906000D01*
X15486000Y-8831000D02*
X15486000Y-8906000D01*
X15486000Y-8906000D02*
X15411000Y-8906000D01*
%TO.C,C10*%
X15337216Y-10814000D02*
X15358784Y-10814000D01*
X15337216Y-10886000D02*
X15358784Y-10886000D01*
%TO.C,U1*%
X14309000Y-9904000D02*
X14381500Y-9904000D01*
X14309000Y-9976500D02*
X14309000Y-9904000D01*
X14758500Y-9904000D02*
X14831000Y-9904000D01*
X14831000Y-9904000D02*
X14831000Y-9976500D01*
X14831000Y-10353500D02*
X14831000Y-10426000D01*
X14831000Y-10426000D02*
X14758500Y-10426000D01*
%TO.C,D2*%
D13*
X13925000Y-9797500D02*
G75*
G02*
X13915000Y-9797500I-5000J0D01*
G01*
X13915000Y-9797500D02*
G75*
G02*
X13925000Y-9797500I5000J0D01*
G01*
%TO.C,R6*%
D12*
X14002000Y-9706364D02*
X14002000Y-9675636D01*
X14078000Y-9706364D02*
X14078000Y-9675636D01*
%TD*%
M02*
