%TF.GenerationSoftware,KiCad,Pcbnew,10.0.0*%
%TF.CreationDate,2026-04-21T19:31:45+02:00*%
%TF.ProjectId,Easyduino_ESP32,45617379-6475-4696-9e6f-5f4553503332,rev?*%
%TF.SameCoordinates,Original*%
%TF.FileFunction,Copper,L1,Top*%
%TF.FilePolarity,Positive*%
%FSLAX45Y45*%
G04 Gerber Fmt 4.5, Leading zero omitted, Abs format (unit mm)*
G04 Created by KiCad (PCBNEW 10.0.0) date 2026-04-21 19:31:45*
%MOMM*%
%LPD*%
G01*
G04 APERTURE LIST*
G04 Aperture macros list*
%AMRoundRect*
0 Rectangle with rounded corners*
0 $1 Rounding radius*
0 $2 $3 $4 $5 $6 $7 $8 $9 X,Y pos of 4 corners*
0 Add a 4 corners polygon primitive as box body*
4,1,4,$2,$3,$4,$5,$6,$7,$8,$9,$2,$3,0*
0 Add four circle primitives for the rounded corners*
1,1,$1+$1,$2,$3*
1,1,$1+$1,$4,$5*
1,1,$1+$1,$6,$7*
1,1,$1+$1,$8,$9*
0 Add four rect primitives between the rounded corners*
20,1,$1+$1,$2,$3,$4,$5,0*
20,1,$1+$1,$4,$5,$6,$7,0*
20,1,$1+$1,$6,$7,$8,$9,0*
20,1,$1+$1,$8,$9,$2,$3,0*%
G04 Aperture macros list end*
%TA.AperFunction,SMDPad,CuDef*%
%ADD10RoundRect,0.135000X-0.135000X-0.185000X0.135000X-0.185000X0.135000X0.185000X-0.135000X0.185000X0*%
%TD*%
%TA.AperFunction,SMDPad,CuDef*%
%ADD11RoundRect,0.250000X0.445000X-0.457500X0.445000X0.457500X-0.445000X0.457500X-0.445000X-0.457500X0*%
%TD*%
%TA.AperFunction,SMDPad,CuDef*%
%ADD12RoundRect,0.140000X-0.170000X0.140000X-0.170000X-0.140000X0.170000X-0.140000X0.170000X0.140000X0*%
%TD*%
%TA.AperFunction,SMDPad,CuDef*%
%ADD13RoundRect,0.135000X0.135000X0.185000X-0.135000X0.185000X-0.135000X-0.185000X0.135000X-0.185000X0*%
%TD*%
%TA.AperFunction,SMDPad,CuDef*%
%ADD14RoundRect,0.150000X-0.150000X-0.470000X0.150000X-0.470000X0.150000X0.470000X-0.150000X0.470000X0*%
%TD*%
%TA.AperFunction,SMDPad,CuDef*%
%ADD15RoundRect,0.075000X-0.075000X-0.545000X0.075000X-0.545000X0.075000X0.545000X-0.075000X0.545000X0*%
%TD*%
%TA.AperFunction,ComponentPad*%
%ADD16O,1.000000X2.100000*%
%TD*%
%TA.AperFunction,ComponentPad*%
%ADD17O,1.000000X1.800000*%
%TD*%
%TA.AperFunction,SMDPad,CuDef*%
%ADD18RoundRect,0.140000X-0.140000X-0.170000X0.140000X-0.170000X0.140000X0.170000X-0.140000X0.170000X0*%
%TD*%
%TA.AperFunction,SMDPad,CuDef*%
%ADD19RoundRect,0.375000X-0.625000X-0.375000X0.625000X-0.375000X0.625000X0.375000X-0.625000X0.375000X0*%
%TD*%
%TA.AperFunction,SMDPad,CuDef*%
%ADD20RoundRect,0.500000X-0.500000X-1.400000X0.500000X-1.400000X0.500000X1.400000X-0.500000X1.400000X0*%
%TD*%
%TA.AperFunction,SMDPad,CuDef*%
%ADD21RoundRect,0.135000X-0.185000X0.135000X-0.185000X-0.135000X0.185000X-0.135000X0.185000X0.135000X0*%
%TD*%
%TA.AperFunction,SMDPad,CuDef*%
%ADD22RoundRect,0.175000X-0.175000X0.325000X-0.175000X-0.325000X0.175000X-0.325000X0.175000X0.325000X0*%
%TD*%
%TA.AperFunction,SMDPad,CuDef*%
%ADD23RoundRect,0.140000X0.170000X-0.140000X0.170000X0.140000X-0.170000X0.140000X-0.170000X-0.140000X0*%
%TD*%
%TA.AperFunction,SMDPad,CuDef*%
%ADD24RoundRect,0.200000X0.800000X-0.200000X0.800000X0.200000X-0.800000X0.200000X-0.800000X-0.200000X0*%
%TD*%
%TA.AperFunction,ComponentPad*%
%ADD25O,2.000000X1.200000*%
%TD*%
%TA.AperFunction,SMDPad,CuDef*%
%ADD26RoundRect,0.250000X-0.445000X0.457500X-0.445000X-0.457500X0.445000X-0.457500X0.445000X0.457500X0*%
%TD*%
%TA.AperFunction,SMDPad,CuDef*%
%ADD27RoundRect,0.175000X-0.175000X-0.325000X0.175000X-0.325000X0.175000X0.325000X-0.175000X0.325000X0*%
%TD*%
%TA.AperFunction,SMDPad,CuDef*%
%ADD28RoundRect,0.150000X-0.200000X-0.150000X0.200000X-0.150000X0.200000X0.150000X-0.200000X0.150000X0*%
%TD*%
%TA.AperFunction,SMDPad,CuDef*%
%ADD29RoundRect,0.135000X0.185000X-0.135000X0.185000X0.135000X-0.185000X0.135000X-0.185000X-0.135000X0*%
%TD*%
%TA.AperFunction,SMDPad,CuDef*%
%ADD30RoundRect,0.175000X0.175000X-0.325000X0.175000X0.325000X-0.175000X0.325000X-0.175000X-0.325000X0*%
%TD*%
%TA.AperFunction,SMDPad,CuDef*%
%ADD31R,1.500000X0.900000*%
%TD*%
%TA.AperFunction,SMDPad,CuDef*%
%ADD32R,0.900000X1.500000*%
%TD*%
%TA.AperFunction,SMDPad,CuDef*%
%ADD33R,0.900000X0.900000*%
%TD*%
%TA.AperFunction,SMDPad,CuDef*%
%ADD34RoundRect,0.062500X0.062500X-0.337500X0.062500X0.337500X-0.062500X0.337500X-0.062500X-0.337500X0*%
%TD*%
%TA.AperFunction,SMDPad,CuDef*%
%ADD35RoundRect,0.062500X0.337500X-0.062500X0.337500X0.062500X-0.337500X0.062500X-0.337500X-0.062500X0*%
%TD*%
%TA.AperFunction,HeatsinkPad*%
%ADD36R,3.350000X3.350000*%
%TD*%
%TA.AperFunction,SMDPad,CuDef*%
%ADD37RoundRect,0.147500X0.172500X-0.147500X0.172500X0.147500X-0.172500X0.147500X-0.172500X-0.147500X0*%
%TD*%
%TA.AperFunction,ViaPad*%
%ADD38C,0.500000*%
%TD*%
%TA.AperFunction,ViaPad*%
%ADD39C,0.700000*%
%TD*%
%TA.AperFunction,Conductor*%
%ADD40C,0.200000*%
%TD*%
%TA.AperFunction,Conductor*%
%ADD41C,0.300000*%
%TD*%
%TA.AperFunction,Conductor*%
%ADD42C,0.150000*%
%TD*%
%TA.AperFunction,Conductor*%
%ADD43C,0.400000*%
%TD*%
%TA.AperFunction,Conductor*%
%ADD44C,0.500000*%
%TD*%
G04 APERTURE END LIST*
D10*
%TO.P,R8,1*%
%TO.N,/~{RST}*%
X14979000Y-10230000D03*
%TO.P,R8,2*%
%TO.N,VBUS*%
X15081000Y-10230000D03*
%TD*%
%TO.P,R7,2*%
%TO.N,GND*%
X15081000Y-10130000D03*
%TO.P,R7,1*%
%TO.N,/~{SUSPEND}*%
X14979000Y-10130000D03*
%TD*%
D11*
%TO.P,C7,1*%
%TO.N,VBUS*%
X15440000Y-9852750D03*
%TO.P,C7,2*%
%TO.N,GND*%
X15440000Y-9582250D03*
%TD*%
D12*
%TO.P,C6,1*%
%TO.N,+3.3V*%
X13750000Y-9222000D03*
%TO.P,C6,2*%
%TO.N,GND*%
X13750000Y-9318000D03*
%TD*%
D10*
%TO.P,R3,1*%
%TO.N,/CC2*%
X14960000Y-10860000D03*
%TO.P,R3,2*%
%TO.N,GND*%
X15062000Y-10860000D03*
%TD*%
D13*
%TO.P,R2,1*%
%TO.N,/CC1*%
X14362000Y-10860000D03*
%TO.P,R2,2*%
%TO.N,GND*%
X14260000Y-10860000D03*
%TD*%
D14*
%TO.P,J1,A1,GND_A1*%
%TO.N,GND*%
X14266000Y-11038000D03*
%TO.P,J1,A4,VBUS_A4*%
%TO.N,VBUS*%
X14346000Y-11038000D03*
D15*
%TO.P,J1,A5,CC1_A5*%
%TO.N,/CC1*%
X14461000Y-11038000D03*
%TO.P,J1,A6,D+_A6*%
%TO.N,/USB_D+*%
X14561000Y-11038000D03*
%TO.P,J1,A7,D-_A7*%
%TO.N,/USB_D-*%
X14611000Y-11038000D03*
%TO.P,J1,A8,SBU1_A8*%
%TO.N,unconnected-(J1-SBU1-PadA8)*%
X14711000Y-11038000D03*
D14*
%TO.P,J1,A9,VBUS_A9*%
%TO.N,VBUS*%
X14826000Y-11038000D03*
%TO.P,J1,A12,GND_A12*%
%TO.N,GND*%
X14906000Y-11038000D03*
%TO.P,J1,B1,GND_B1*%
X14906000Y-11038000D03*
%TO.P,J1,B4,VBUS_B4*%
%TO.N,VBUS*%
X14826000Y-11038000D03*
D15*
%TO.P,J1,B5,CC2_B5*%
%TO.N,/CC2*%
X14761000Y-11038000D03*
%TO.P,J1,B6,D+_B6*%
%TO.N,/USB_D+*%
X14661000Y-11038000D03*
%TO.P,J1,B7,D-_B7*%
%TO.N,/USB_D-*%
X14511000Y-11038000D03*
%TO.P,J1,B8,SBU2_B8*%
%TO.N,unconnected-(J1-SBU2-PadB8)*%
X14411000Y-11038000D03*
D14*
%TO.P,J1,B9,VBUS_B9*%
%TO.N,VBUS*%
X14346000Y-11038000D03*
%TO.P,J1,B12,GND_B12*%
%TO.N,GND*%
X14266000Y-11038000D03*
D16*
%TO.P,J1,SH,SHIELD_SH*%
X14154000Y-11098000D03*
D17*
X14154000Y-11518000D03*
D16*
X15018000Y-11098000D03*
D17*
X15018000Y-11518000D03*
%TD*%
D18*
%TO.P,C4,1*%
%TO.N,/EN*%
X13670000Y-9670000D03*
%TO.P,C4,2*%
%TO.N,GND*%
X13766000Y-9670000D03*
%TD*%
D19*
%TO.P,U3,1,GND_1*%
%TO.N,GND*%
X14270000Y-9170000D03*
%TO.P,U3,2,VO_2*%
%TO.N,+3.3V*%
X14270000Y-9400000D03*
D20*
X14900000Y-9400000D03*
D19*
%TO.P,U3,3,VI_3*%
%TO.N,VBUS*%
X14270000Y-9630000D03*
%TD*%
D21*
%TO.P,R5,1*%
%TO.N,/~{RTS}*%
X14170000Y-10540000D03*
%TO.P,R5,2*%
%TO.N,Net-(Q2-B)*%
X14170000Y-10642000D03*
%TD*%
D22*
%TO.P,Q1,1,B_1*%
%TO.N,Net-(Q1-B)*%
X14025000Y-10000000D03*
%TO.P,Q1,2,C_2*%
%TO.N,/EN*%
X13835000Y-10000000D03*
%TO.P,Q1,3,E_3*%
%TO.N,/~{RTS}*%
X13930000Y-10240000D03*
%TD*%
D12*
%TO.P,C2,1*%
%TO.N,VBUS*%
X15140000Y-10324000D03*
%TO.P,C2,2*%
%TO.N,GND*%
X15140000Y-10420000D03*
%TD*%
D18*
%TO.P,C9,1*%
%TO.N,/EN*%
X13720000Y-10840000D03*
%TO.P,C9,2*%
%TO.N,GND*%
X13816000Y-10840000D03*
%TD*%
D23*
%TO.P,C3,1*%
%TO.N,Net-(U1-VDD)*%
X15270000Y-10416000D03*
%TO.P,C3,2*%
%TO.N,GND*%
X15270000Y-10320000D03*
%TD*%
D24*
%TO.P,SW2,1,1_1*%
%TO.N,GND*%
X15351000Y-11520000D03*
%TO.P,SW2,2,2_2*%
%TO.N,/GPIO0*%
X15351000Y-11100000D03*
%TD*%
D25*
%TO.P,U4,1,3V3_1*%
%TO.N,+3.3V*%
X13310368Y-7054272D03*
%TO.P,U4,2,CHIP_PU_2*%
%TO.N,/EN*%
X13310368Y-7308272D03*
%TO.P,U4,3,SENSOR_VP/GPIO36/ADC1_CH0_3*%
%TO.N,/GPIO36*%
X13310368Y-7562272D03*
%TO.P,U4,4,SENSOR_VN/GPIO39/ADC1_CH3_4*%
%TO.N,/GPIO39*%
X13310368Y-7816272D03*
%TO.P,U4,5,VDET_1/GPIO34/ADC1_CH6_5*%
%TO.N,/GPIO34*%
X13310368Y-8070272D03*
%TO.P,U4,6,VDET_2/GPIO35/ADC1_CH7_6*%
%TO.N,/GPIO35*%
X13310368Y-8324272D03*
%TO.P,U4,7,32K_XP/GPIO32/ADC1_CH4_7*%
%TO.N,/GPIO32*%
X13310368Y-8578272D03*
%TO.P,U4,8,32K_XN/GPIO33/ADC1_CH5_8*%
%TO.N,/GPIO33*%
X13310368Y-8832272D03*
%TO.P,U4,9,DAC_1/ADC2_CH8/GPIO25_9*%
%TO.N,/GPIO25*%
X13310368Y-9086272D03*
%TO.P,U4,10,DAC_2/ADC2_CH9/GPIO26_10*%
%TO.N,/GPIO26*%
X13310368Y-9340272D03*
%TO.P,U4,11,ADC2_CH7/GPIO27_11*%
%TO.N,/GPIO27*%
X13310368Y-9594272D03*
%TO.P,U4,12,MTMS/GPIO14/ADC2_CH6_12*%
%TO.N,/GPIO14*%
X13310368Y-9848272D03*
%TO.P,U4,13,\u002AMTDI/GPIO12/ADC2_CH5_13*%
%TO.N,/GPIO12*%
X13310368Y-10102272D03*
%TO.P,U4,14,GND_14*%
%TO.N,GND*%
X13310368Y-10356272D03*
%TO.P,U4,15,MTCK/GPIO13/ADC2_CH4_15*%
%TO.N,/GPIO13*%
X13310368Y-10610272D03*
%TO.P,U4,16,SD_DATA2/GPIO9_16*%
%TO.N,unconnected-(U4-SD_DATA2{slash}GPIO9-Pad16)*%
X13310368Y-10864272D03*
%TO.P,U4,17,SD_DATA3/GPIO10_17*%
%TO.N,unconnected-(U4-SD_DATA3{slash}GPIO10-Pad17)*%
X13310368Y-11118272D03*
%TO.P,U4,18,CMD_18*%
%TO.N,unconnected-(U4-CMD-Pad18)*%
X13310368Y-11372272D03*
%TO.P,U4,19,5V_19*%
%TO.N,VBUS*%
X13310368Y-11626272D03*
%TO.P,U4,20,SD_CLK/GPIO6_20*%
%TO.N,unconnected-(U4-SD_CLK{slash}GPIO6-Pad20)*%
X15850000Y-11626000D03*
%TO.P,U4,21,SD_DATA0/GPIO7_21*%
%TO.N,unconnected-(U4-SD_DATA0{slash}GPIO7-Pad21)*%
X15850000Y-11372000D03*
%TO.P,U4,22,SD_DATA1/GPIO8_22*%
%TO.N,unconnected-(U4-SD_DATA1{slash}GPIO8-Pad22)*%
X15850368Y-11118272D03*
%TO.P,U4,23,\u002AMTDO/GPIO15/ADC2_CH3_23*%
%TO.N,/GPIO15*%
X15850368Y-10864272D03*
%TO.P,U4,24,ADC2_CH2/\u002AGPIO2_24*%
%TO.N,/GPIO2*%
X15850368Y-10610272D03*
%TO.P,U4,25,\u002AGPIO0/BOOT/ADC2_CH1_25*%
%TO.N,/GPIO0*%
X15850368Y-10356272D03*
%TO.P,U4,26,ADC2_CH0/GPIO4_26*%
%TO.N,/GPIO4*%
X15850368Y-10102272D03*
%TO.P,U4,27,GPIO16_27*%
%TO.N,/GPIO16*%
X15850368Y-9848272D03*
%TO.P,U4,28,GPIO17_28*%
%TO.N,/GPIO17*%
X15850368Y-9594272D03*
%TO.P,U4,29,\u002AGPIO5_29*%
%TO.N,/GPIO5*%
X15850368Y-9340272D03*
%TO.P,U4,30,GPIO18_30*%
%TO.N,/GPIO18*%
X15850368Y-9086272D03*
%TO.P,U4,31,GPIO19_31*%
%TO.N,/GPIO19*%
X15850368Y-8832272D03*
%TO.P,U4,32,GND_32*%
%TO.N,GND*%
X15850368Y-8578272D03*
%TO.P,U4,33,GPIO21_33*%
%TO.N,/GPIO21*%
X15850368Y-8324272D03*
%TO.P,U4,34,U0RXD/GPIO3_34*%
%TO.N,/GPIO3*%
X15850368Y-8070272D03*
%TO.P,U4,35,U0TXD/GPIO1_35*%
%TO.N,/GPIO1*%
X15850368Y-7816272D03*
%TO.P,U4,36,GPIO22_36*%
%TO.N,/GPIO22*%
X15850368Y-7562272D03*
%TO.P,U4,37,GPIO23_37*%
%TO.N,/GPIO23*%
X15850368Y-7308272D03*
%TO.P,U4,38,GND_38*%
%TO.N,GND*%
X15850368Y-7054272D03*
%TD*%
D24*
%TO.P,SW1,1,1_1*%
%TO.N,GND*%
X13800000Y-11520000D03*
%TO.P,SW1,2,2_2*%
%TO.N,/EN*%
X13800000Y-11100000D03*
%TD*%
D26*
%TO.P,C5,1*%
%TO.N,+3.3V*%
X15180000Y-9577250D03*
%TO.P,C5,2*%
%TO.N,GND*%
X15180000Y-9847750D03*
%TD*%
D27*
%TO.P,D1,1,A_1*%
%TO.N,GND*%
X14480000Y-10620000D03*
D28*
%TO.P,D1,2,K_2*%
%TO.N,/USB_D+*%
X14480000Y-10790000D03*
%TO.P,D1,3,K_3*%
%TO.N,/USB_D-*%
X14680000Y-10790000D03*
%TO.P,D1,4,K_4*%
%TO.N,VBUS*%
X14680000Y-10600000D03*
%TD*%
D26*
%TO.P,C8,1*%
%TO.N,+3.3V*%
X13930000Y-9152250D03*
%TO.P,C8,2*%
%TO.N,GND*%
X13930000Y-9422750D03*
%TD*%
D13*
%TO.P,R1,1*%
%TO.N,+3.3V*%
X13772000Y-9800000D03*
%TO.P,R1,2*%
%TO.N,/EN*%
X13670000Y-9800000D03*
%TD*%
D12*
%TO.P,C1,1*%
%TO.N,VBUS*%
X15010000Y-10320000D03*
%TO.P,C1,2*%
%TO.N,GND*%
X15010000Y-10416000D03*
%TD*%
D29*
%TO.P,R4,1*%
%TO.N,/~{DTR}*%
X14170000Y-10410000D03*
%TO.P,R4,2*%
%TO.N,Net-(Q1-B)*%
X14170000Y-10308000D03*
%TD*%
D30*
%TO.P,Q2,1,B_1*%
%TO.N,Net-(Q2-B)*%
X13835000Y-10680000D03*
%TO.P,Q2,2,C_2*%
%TO.N,/GPIO0*%
X14025000Y-10680000D03*
%TO.P,Q2,3,E_3*%
%TO.N,/~{DTR}*%
X13930000Y-10440000D03*
%TD*%
D31*
%TO.P,U2,1,GND_1*%
%TO.N,GND*%
X13711000Y-7105000D03*
%TO.P,U2,2,3V3_2*%
%TO.N,+3.3V*%
X13711000Y-7232000D03*
%TO.P,U2,3,EN/CHIP_PU_3*%
%TO.N,/EN*%
X13711000Y-7359000D03*
%TO.P,U2,4,SENSOR_VP/GPIO36/ADC1_CH0_4*%
%TO.N,/GPIO36*%
X13711000Y-7486000D03*
%TO.P,U2,5,SENSOR_VN/GPIO39/ADC1_CH3_5*%
%TO.N,/GPIO39*%
X13711000Y-7613000D03*
%TO.P,U2,6,GPIO34/ADC1_CH6_6*%
%TO.N,/GPIO34*%
X13711000Y-7740000D03*
%TO.P,U2,7,GPIO35/ADC1_CH7_7*%
%TO.N,/GPIO35*%
X13711000Y-7867000D03*
%TO.P,U2,8,32K_XP/GPIO32/ADC1_CH4_8*%
%TO.N,/GPIO32*%
X13711000Y-7994000D03*
%TO.P,U2,9,32K_XN/GPIO33/ADC1_CH5_9*%
%TO.N,/GPIO33*%
X13711000Y-8121000D03*
%TO.P,U2,10,DAC_1/ADC2_CH8/GPIO25_10*%
%TO.N,/GPIO25*%
X13711000Y-8248000D03*
%TO.P,U2,11,DAC_2/ADC2_CH9/GPIO26_11*%
%TO.N,/GPIO26*%
X13711000Y-8375000D03*
%TO.P,U2,12,ADC2_CH7/GPIO27_12*%
%TO.N,/GPIO27*%
X13711000Y-8502000D03*
%TO.P,U2,13,MTMS/GPIO14/ADC2_CH6_13*%
%TO.N,/GPIO14*%
X13711000Y-8629000D03*
%TO.P,U2,14,MTDI/GPIO12/ADC2_CH5_14*%
%TO.N,/GPIO12*%
X13711000Y-8756000D03*
D32*
%TO.P,U2,15,GND_15*%
%TO.N,GND*%
X14014000Y-8881000D03*
%TO.P,U2,16,MTCK/GPIO13/ADC2_CH4_16*%
%TO.N,/GPIO13*%
X14141000Y-8881000D03*
%TO.P,U2,17,NC_17*%
%TO.N,unconnected-(U2-NC-Pad17)*%
X14268000Y-8881000D03*
%TO.P,U2,18,NC_18*%
%TO.N,unconnected-(U2-NC-Pad18)*%
X14395000Y-8881000D03*
%TO.P,U2,19,NC_19*%
%TO.N,unconnected-(U2-NC-Pad19)*%
X14522000Y-8881000D03*
%TO.P,U2,20,NC_20*%
%TO.N,unconnected-(U2-NC-Pad20)*%
X14649000Y-8881000D03*
%TO.P,U2,21,NC_21*%
%TO.N,unconnected-(U2-NC-Pad21)*%
X14776000Y-8881000D03*
%TO.P,U2,22,NC_22*%
%TO.N,unconnected-(U2-NC-Pad22)*%
X14903000Y-8881000D03*
%TO.P,U2,23,MTDO/GPIO15/ADC2_CH3_23*%
%TO.N,/GPIO15*%
X15030000Y-8881000D03*
%TO.P,U2,24,ADC2_CH2/GPIO2_24*%
%TO.N,/GPIO2*%
X15157000Y-8881000D03*
D31*
%TO.P,U2,25,GPIO0/BOOT/ADC2_CH1_25*%
%TO.N,/GPIO0*%
X15461000Y-8756000D03*
%TO.P,U2,26,ADC2_CH0/GPIO4_26*%
%TO.N,/GPIO4*%
X15461000Y-8629000D03*
%TO.P,U2,27,GPIO16_27*%
%TO.N,/GPIO16*%
X15461000Y-8502000D03*
%TO.P,U2,28,GPIO17_28*%
%TO.N,/GPIO17*%
X15461000Y-8375000D03*
%TO.P,U2,29,GPIO5_29*%
%TO.N,/GPIO5*%
X15461000Y-8248000D03*
%TO.P,U2,30,GPIO18_30*%
%TO.N,/GPIO18*%
X15461000Y-8121000D03*
%TO.P,U2,31,GPIO19_31*%
%TO.N,/GPIO19*%
X15461000Y-7994000D03*
%TO.P,U2,32,NC_32*%
%TO.N,unconnected-(U2-NC-Pad32)*%
X15461000Y-7867000D03*
%TO.P,U2,33,GPIO21_33*%
%TO.N,/GPIO21*%
X15461000Y-7740000D03*
%TO.P,U2,34,U0RXD/GPIO3_34*%
%TO.N,/GPIO3*%
X15461000Y-7613000D03*
%TO.P,U2,35,U0TXD/GPIO1_35*%
%TO.N,/GPIO1*%
X15461000Y-7486000D03*
%TO.P,U2,36,GPIO22_36*%
%TO.N,/GPIO22*%
X15461000Y-7359000D03*
%TO.P,U2,37,GPIO23_37*%
%TO.N,/GPIO23*%
X15461000Y-7232000D03*
%TO.P,U2,38,GND_38*%
%TO.N,GND*%
X15461000Y-7105000D03*
D33*
%TO.P,U2,39,GND_THERMAL_39*%
X14296000Y-7737000D03*
X14296000Y-7877000D03*
X14296000Y-8017000D03*
X14436000Y-7737000D03*
X14436000Y-7877000D03*
X14436000Y-8017000D03*
X14576000Y-7737000D03*
X14576000Y-7877000D03*
X14576000Y-8017000D03*
%TD*%
D18*
%TO.P,C10,1*%
%TO.N,/GPIO0*%
X15300000Y-10850000D03*
%TO.P,C10,2*%
%TO.N,GND*%
X15396000Y-10850000D03*
%TD*%
D34*
%TO.P,U1,1,~{DCD}_1*%
%TO.N,unconnected-(U1-~{DCD}-Pad1)*%
X14420000Y-10410000D03*
%TO.P,U1,2,~{RI}/CLK_2*%
%TO.N,unconnected-(U1-~{RI}{slash}CLK-Pad2)*%
X14470000Y-10410000D03*
%TO.P,U1,3,GND_3*%
%TO.N,GND*%
X14520000Y-10410000D03*
%TO.P,U1,4,D+_4*%
%TO.N,/USB_D+*%
X14570000Y-10410000D03*
%TO.P,U1,5,D-_5*%
%TO.N,/USB_D-*%
X14620000Y-10410000D03*
%TO.P,U1,6,VDD_6*%
%TO.N,Net-(U1-VDD)*%
X14670000Y-10410000D03*
%TO.P,U1,7,VREGIN_7*%
%TO.N,VBUS*%
X14720000Y-10410000D03*
D35*
%TO.P,U1,8,VBUS_8*%
X14815000Y-10315000D03*
%TO.P,U1,9,~{RST}_9*%
%TO.N,/~{RST}*%
X14815000Y-10265000D03*
%TO.P,U1,10,NC_10*%
%TO.N,unconnected-(U1-NC-Pad10)*%
X14815000Y-10215000D03*
%TO.P,U1,11,~{SUSPEND}_11*%
%TO.N,/~{SUSPEND}*%
X14815000Y-10165000D03*
%TO.P,U1,12,SUSPEND_12*%
%TO.N,unconnected-(U1-SUSPEND-Pad12)*%
X14815000Y-10115000D03*
%TO.P,U1,13,CHREN_13*%
%TO.N,unconnected-(U1-CHREN-Pad13)*%
X14815000Y-10065000D03*
%TO.P,U1,14,CHR1_14*%
%TO.N,unconnected-(U1-CHR1-Pad14)*%
X14815000Y-10015000D03*
D34*
%TO.P,U1,15,CHR0_15*%
%TO.N,unconnected-(U1-CHR0-Pad15)*%
X14720000Y-9920000D03*
%TO.P,U1,16,~{WAKEUP}/GPIO.3_16*%
%TO.N,unconnected-(U1-~{WAKEUP}{slash}GPIO.3-Pad16)*%
X14670000Y-9920000D03*
%TO.P,U1,17,RS485/GPIO.2_17*%
%TO.N,unconnected-(U1-RS485{slash}GPIO.2-Pad17)*%
X14620000Y-9920000D03*
%TO.P,U1,18,~{RXT}/GPIO.1_18*%
%TO.N,unconnected-(U1-~{RXT}{slash}GPIO.1-Pad18)*%
X14570000Y-9920000D03*
%TO.P,U1,19,~{TXT}/GPIO.0_19*%
%TO.N,unconnected-(U1-~{TXT}{slash}GPIO.0-Pad19)*%
X14520000Y-9920000D03*
%TO.P,U1,20,GPIO.6_20*%
%TO.N,unconnected-(U1-GPIO.6-Pad20)*%
X14470000Y-9920000D03*
%TO.P,U1,21,GPIO.5_21*%
%TO.N,unconnected-(U1-GPIO.5-Pad21)*%
X14420000Y-9920000D03*
D35*
%TO.P,U1,22,GPIO.4_22*%
%TO.N,unconnected-(U1-GPIO.4-Pad22)*%
X14325000Y-10015000D03*
%TO.P,U1,23,~{CTS}_23*%
%TO.N,unconnected-(U1-~{CTS}-Pad23)*%
X14325000Y-10065000D03*
%TO.P,U1,24,~{RTS}_24*%
%TO.N,/~{RTS}*%
X14325000Y-10115000D03*
%TO.P,U1,25,RXD_25*%
%TO.N,/GPIO1*%
X14325000Y-10165000D03*
%TO.P,U1,26,TXD_26*%
%TO.N,/GPIO3*%
X14325000Y-10215000D03*
%TO.P,U1,27,~{DSR}_27*%
%TO.N,unconnected-(U1-~{DSR}-Pad27)*%
X14325000Y-10265000D03*
%TO.P,U1,28,~{DTR}_28*%
%TO.N,/~{DTR}*%
X14325000Y-10315000D03*
D36*
%TO.P,U1,29,GND_29*%
%TO.N,GND*%
X14570000Y-10165000D03*
%TD*%
D37*
%TO.P,D2,1,K_1*%
%TO.N,GND*%
X13920000Y-9737000D03*
%TO.P,D2,2,A_2*%
%TO.N,Net-(D2-A)*%
X13920000Y-9640000D03*
%TD*%
D29*
%TO.P,R6,1*%
%TO.N,Net-(D2-A)*%
X14040000Y-9742000D03*
%TO.P,R6,2*%
%TO.N,VBUS*%
X14040000Y-9640000D03*
%TD*%
D38*
%TO.N,GND*%
X15150000Y-10130000D03*
X14400000Y-10520000D03*
X15140000Y-10500000D03*
X13800000Y-11650000D03*
X14020000Y-9020000D03*
X14670000Y-7810000D03*
X13770000Y-9580000D03*
X14160000Y-10870000D03*
X14200000Y-7810000D03*
X14510000Y-8110000D03*
X13920000Y-9860000D03*
X15350000Y-11650000D03*
X14510000Y-7650000D03*
X15000000Y-9850000D03*
X15430000Y-9390000D03*
X14390000Y-10620000D03*
X13880000Y-10850000D03*
X14110000Y-9170000D03*
X13930000Y-9560000D03*
X14120000Y-10930000D03*
X15270000Y-10240000D03*
X14670000Y-7950000D03*
X14370000Y-8110000D03*
X15140000Y-10860000D03*
X15010000Y-10500000D03*
X15120000Y-10930000D03*
X14370000Y-7650000D03*
X13890000Y-7110000D03*
X14200000Y-7950000D03*
X13750000Y-9410000D03*
X15470000Y-10850000D03*
D39*
%TO.N,+3.3V*%
X13930000Y-9290000D03*
D38*
X14690000Y-9500000D03*
X14690000Y-9270000D03*
X13780000Y-9890000D03*
D39*
X13890000Y-7230000D03*
D38*
X14690000Y-9390000D03*
X13760000Y-9140000D03*
%TO.N,/CC2*%
X14760000Y-10860000D03*
X14890000Y-10860000D03*
%TO.N,/USB_D+*%
X14677744Y-10934924D03*
X14561000Y-10940000D03*
%TO.N,/~{RTS}*%
X14140000Y-10080000D03*
X13940000Y-10130000D03*
%TO.N,Net-(U1-VDD)*%
X14710000Y-10510000D03*
X14940000Y-10580000D03*
%TO.N,/GPIO0*%
X15555000Y-9255000D03*
X14970000Y-10760000D03*
X15712048Y-10217952D03*
X14350000Y-10760000D03*
X15580000Y-10020000D03*
X15620000Y-10670000D03*
%TO.N,/GPIO13*%
X13720000Y-8910000D03*
X14140000Y-8740000D03*
%TO.N,/GPIO15*%
X15410000Y-10240000D03*
X15170000Y-9430000D03*
%TO.N,/GPIO2*%
X15260000Y-9370000D03*
X15460000Y-10090000D03*
%TO.N,/GPIO4*%
X15610000Y-9730000D03*
X15610000Y-9470000D03*
%TO.N,/GPIO3*%
X14580000Y-8670000D03*
X14220000Y-10240000D03*
%TO.N,/GPIO1*%
X14520000Y-8620000D03*
X14190000Y-10160000D03*
%TD*%
%TO.N,GND*%
D40*
X15081000Y-10130000D02*
X15150000Y-10130000D01*
%TO.N,VBUS*%
D41*
X14620000Y-9640000D02*
X14610000Y-9630000D01*
X14630000Y-9640000D02*
X14620000Y-9640000D01*
X14990000Y-10000000D02*
X14630000Y-9640000D01*
X14610000Y-9630000D02*
X14270000Y-9630000D01*
X15330000Y-10040000D02*
X15290000Y-10000000D01*
X15330000Y-10040000D02*
X15440000Y-9930000D01*
X15290000Y-10000000D02*
X14990000Y-10000000D01*
X15440000Y-9930000D02*
X15440000Y-9852750D01*
X15140000Y-10230000D02*
X15330000Y-10040000D01*
X15140000Y-10230000D02*
X15140000Y-10324000D01*
X15081000Y-10230000D02*
X15140000Y-10230000D01*
X14826000Y-11038000D02*
X14826000Y-10746000D01*
X14417459Y-11175000D02*
X14754541Y-11175000D01*
%TO.N,/~{SUSPEND}*%
D42*
X14930000Y-10130000D02*
X14979000Y-10130000D01*
X14895000Y-10165000D02*
X14930000Y-10130000D01*
X14815000Y-10165000D02*
X14895000Y-10165000D01*
%TO.N,/~{RST}*%
D40*
X14895000Y-10265000D02*
X14930000Y-10230000D01*
X14815000Y-10265000D02*
X14895000Y-10265000D01*
X14930000Y-10230000D02*
X14979000Y-10230000D01*
%TO.N,VBUS*%
D43*
X13310368Y-11626272D02*
X13576640Y-11360000D01*
D41*
X14754541Y-11175000D02*
X14826000Y-11103541D01*
X14830000Y-10440000D02*
X14830000Y-10330000D01*
D43*
X15430000Y-9875000D02*
X15440000Y-9865000D01*
D40*
X14815000Y-10315000D02*
X14824000Y-10324000D01*
X14050000Y-9630000D02*
X14270000Y-9630000D01*
D41*
X14346000Y-11103541D02*
X14417459Y-11175000D01*
D40*
X14824000Y-10324000D02*
X15140000Y-10324000D01*
D41*
X14680000Y-10600000D02*
X14750000Y-10600000D01*
X14830000Y-10330000D02*
X14815000Y-10315000D01*
X14830000Y-10440000D02*
X14800000Y-10410000D01*
X14750000Y-10600000D02*
X14830000Y-10520000D01*
D43*
X14470000Y-11360000D02*
X14590000Y-11240000D01*
X13576640Y-11360000D02*
X14470000Y-11360000D01*
D41*
X14800000Y-10410000D02*
X14720000Y-10410000D01*
X14346000Y-11038000D02*
X14346000Y-11103541D01*
X14826000Y-10746000D02*
X14680000Y-10600000D01*
D40*
X14040000Y-9640000D02*
X14050000Y-9630000D01*
D41*
X14826000Y-11103541D02*
X14826000Y-11038000D01*
D43*
X14590000Y-11240000D02*
X14590000Y-11180000D01*
D41*
X14830000Y-10520000D02*
X14830000Y-10440000D01*
%TO.N,GND*%
D40*
X15440000Y-9570000D02*
X15440000Y-9400000D01*
X15270000Y-10320000D02*
X15270000Y-10240000D01*
X13920000Y-9737000D02*
X13920000Y-9860000D01*
D43*
X13885000Y-7105000D02*
X13890000Y-7110000D01*
D40*
X13750000Y-9318000D02*
X13750000Y-9410000D01*
X13816000Y-10850000D02*
X13880000Y-10850000D01*
X14451265Y-10520000D02*
X14520000Y-10451265D01*
D43*
X15351000Y-11649000D02*
X15350000Y-11650000D01*
X15351000Y-11520000D02*
X15351000Y-11649000D01*
D40*
X15010000Y-10416000D02*
X15010000Y-10500000D01*
X14266000Y-10976000D02*
X14266000Y-11038000D01*
X14906000Y-11016000D02*
X15062000Y-10860000D01*
D43*
X13800000Y-11520000D02*
X13800000Y-11650000D01*
X14480000Y-10620000D02*
X14390000Y-10620000D01*
D40*
X14906000Y-11038000D02*
X14906000Y-11016000D01*
X13930000Y-9435000D02*
X13930000Y-9560000D01*
D44*
X15461000Y-7105000D02*
X15799640Y-7105000D01*
D40*
X14400000Y-10520000D02*
X14451265Y-10520000D01*
X15180000Y-9860000D02*
X15010000Y-9860000D01*
X15010000Y-9860000D02*
X15000000Y-9850000D01*
X14014000Y-8881000D02*
X14014000Y-9014000D01*
X13766000Y-9584000D02*
X13770000Y-9580000D01*
X15062000Y-10860000D02*
X15140000Y-10860000D01*
D44*
X15799640Y-7105000D02*
X15850368Y-7054272D01*
D43*
X14270000Y-9170000D02*
X14110000Y-9170000D01*
D40*
X14014000Y-9014000D02*
X14020000Y-9020000D01*
X15396000Y-10850000D02*
X15470000Y-10850000D01*
X13766000Y-9670000D02*
X13766000Y-9584000D01*
X14520000Y-10451265D02*
X14520000Y-10410000D01*
X15440000Y-9400000D02*
X15430000Y-9390000D01*
X15140000Y-10420000D02*
X15140000Y-10500000D01*
X14160000Y-10870000D02*
X14266000Y-10976000D01*
X14520000Y-10215000D02*
X14520000Y-10410000D01*
X14570000Y-10165000D02*
X14520000Y-10215000D01*
X14250000Y-10870000D02*
X14260000Y-10860000D01*
D43*
X13711000Y-7105000D02*
X13885000Y-7105000D01*
D40*
X14160000Y-10870000D02*
X14250000Y-10870000D01*
%TO.N,+3.3V*%
D41*
X13772000Y-9800000D02*
X13772000Y-9882000D01*
X13750000Y-9150000D02*
X13760000Y-9140000D01*
X13772000Y-9882000D02*
X13780000Y-9890000D01*
D44*
X13711000Y-7232000D02*
X13888000Y-7232000D01*
X13930000Y-9140000D02*
X13930000Y-9290000D01*
D41*
X13750000Y-9222000D02*
X13750000Y-9150000D01*
D44*
X13888000Y-7232000D02*
X13890000Y-7230000D01*
%TO.N,/CC2*%
D40*
X14761000Y-11038000D02*
X14761000Y-10861000D01*
X14890000Y-10860000D02*
X14960000Y-10860000D01*
X14761000Y-10861000D02*
X14760000Y-10860000D01*
%TO.N,/CC1*%
X14362000Y-10860000D02*
X14410000Y-10860000D01*
X14461000Y-10911000D02*
X14461000Y-11038000D01*
X14410000Y-10860000D02*
X14461000Y-10911000D01*
%TO.N,/USB_D+*%
X14480000Y-10795000D02*
X14480000Y-10790000D01*
X14480000Y-10770000D02*
X14480000Y-10790000D01*
X14661000Y-10951668D02*
X14677744Y-10934924D01*
X14561000Y-10940000D02*
X14561000Y-11038000D01*
X14661000Y-11038000D02*
X14661000Y-10951668D01*
X14570000Y-10410000D02*
X14572500Y-10412500D01*
X14561000Y-10921000D02*
X14562500Y-10919500D01*
X14570000Y-10410000D02*
X14577500Y-10417500D01*
X14561000Y-10921000D02*
X14561000Y-10940000D01*
X14562500Y-10877500D02*
X14480000Y-10795000D01*
X14577500Y-10417500D02*
X14577500Y-10672500D01*
X14577500Y-10672500D02*
X14480000Y-10770000D01*
X14562500Y-10919500D02*
X14562500Y-10877500D01*
%TO.N,/USB_D-*%
X14620000Y-10410000D02*
X14612500Y-10417500D01*
X14680000Y-10737500D02*
X14612500Y-10670000D01*
X14612500Y-10417500D02*
X14612500Y-10670000D01*
X14611000Y-11038000D02*
X14611000Y-10919289D01*
X14620000Y-10410000D02*
X14617500Y-10412500D01*
X14611000Y-11125000D02*
X14611000Y-11038000D01*
X14601000Y-11135000D02*
X14611000Y-11125000D01*
X14511000Y-11038000D02*
X14511000Y-11125000D01*
X14521000Y-11135000D02*
X14601000Y-11135000D01*
X14680000Y-10790000D02*
X14680000Y-10737500D01*
X14680000Y-10795000D02*
X14680000Y-10790000D01*
X14597500Y-10905789D02*
X14597500Y-10877500D01*
X14611000Y-10919289D02*
X14597500Y-10905789D01*
X14597500Y-10877500D02*
X14680000Y-10795000D01*
X14511000Y-11125000D02*
X14521000Y-11135000D01*
%TO.N,/EN*%
X13720000Y-9980000D02*
X13720000Y-9990000D01*
X13670000Y-9930000D02*
X13720000Y-9980000D01*
X13830000Y-7425000D02*
X13830000Y-8980000D01*
X13764000Y-7359000D02*
X13830000Y-7425000D01*
X13711000Y-7359000D02*
X13361096Y-7359000D01*
X13720000Y-9990000D02*
X13720000Y-10020000D01*
X13740000Y-10000000D02*
X13720000Y-9980000D01*
X13720000Y-10020000D02*
X13720000Y-11020000D01*
X13711000Y-7359000D02*
X13764000Y-7359000D01*
X13361096Y-7359000D02*
X13310368Y-7308272D01*
X13730000Y-10000000D02*
X13740000Y-10000000D01*
X13740000Y-10000000D02*
X13835000Y-10000000D01*
X13740000Y-10000000D02*
X13720000Y-10020000D01*
X13720000Y-11020000D02*
X13800000Y-11100000D01*
X13670000Y-9140000D02*
X13670000Y-9930000D01*
X13830000Y-8980000D02*
X13670000Y-9140000D01*
%TO.N,/~{RTS}*%
X13940000Y-10230000D02*
X13930000Y-10240000D01*
X14317500Y-10107500D02*
X14207500Y-10107500D01*
X13885000Y-10540000D02*
X13820000Y-10475000D01*
X13940000Y-10130000D02*
X13940000Y-10230000D01*
X13820000Y-10475000D02*
X13820000Y-10280000D01*
X14180000Y-10080000D02*
X14140000Y-10080000D01*
X14325000Y-10115000D02*
X14317500Y-10107500D01*
X13820000Y-10280000D02*
X13860000Y-10240000D01*
X13860000Y-10240000D02*
X13930000Y-10240000D01*
X14207500Y-10107500D02*
X14180000Y-10080000D01*
X14170000Y-10540000D02*
X13885000Y-10540000D01*
%TO.N,Net-(Q2-B)*%
X14170000Y-10642000D02*
X14128000Y-10600000D01*
X13915000Y-10600000D02*
X13835000Y-10680000D01*
X14128000Y-10600000D02*
X13915000Y-10600000D01*
%TO.N,Net-(Q1-B)*%
X14025000Y-10163000D02*
X14025000Y-10000000D01*
X14170000Y-10308000D02*
X14025000Y-10163000D01*
%TO.N,Net-(U1-VDD)*%
X14940000Y-10580000D02*
X15250000Y-10580000D01*
X14670000Y-10470000D02*
X14670000Y-10410000D01*
X15270000Y-10560000D02*
X15270000Y-10416000D01*
X14710000Y-10510000D02*
X14670000Y-10470000D01*
X15250000Y-10580000D02*
X15270000Y-10560000D01*
%TO.N,/GPIO0*%
X15351000Y-10951000D02*
X15300000Y-10900000D01*
X14105000Y-10760000D02*
X14350000Y-10760000D01*
X14970000Y-10760000D02*
X15210000Y-10760000D01*
X15210000Y-10760000D02*
X15300000Y-10850000D01*
X15351000Y-10951000D02*
X15351000Y-11100000D01*
X15300000Y-10900000D02*
X15300000Y-10850000D01*
X15461000Y-9161000D02*
X15461000Y-8756000D01*
X15620000Y-10670000D02*
X15480000Y-10670000D01*
X15480000Y-10670000D02*
X15300000Y-10850000D01*
X15580000Y-10020000D02*
X15580000Y-10085904D01*
X15580000Y-10085904D02*
X15850368Y-10356272D01*
X14025000Y-10680000D02*
X14105000Y-10760000D01*
X15555000Y-9255000D02*
X15461000Y-9161000D01*
%TO.N,/GPIO36*%
X13386640Y-7486000D02*
X13310368Y-7562272D01*
X13711000Y-7486000D02*
X13386640Y-7486000D01*
%TO.N,/GPIO39*%
X13711000Y-7613000D02*
X13607000Y-7613000D01*
X13403728Y-7816272D02*
X13310368Y-7816272D01*
X13607000Y-7613000D02*
X13403728Y-7816272D01*
%TO.N,/GPIO34*%
X13310368Y-8045632D02*
X13310368Y-8070272D01*
X13616000Y-7740000D02*
X13310368Y-8045632D01*
X13711000Y-7740000D02*
X13616000Y-7740000D01*
%TO.N,/GPIO35*%
X13616000Y-7867000D02*
X13440368Y-8042632D01*
X13440368Y-8042632D02*
X13440368Y-8194272D01*
X13711000Y-7867000D02*
X13616000Y-7867000D01*
X13440368Y-8194272D02*
X13310368Y-8324272D01*
%TO.N,/GPIO32*%
X13626000Y-7994000D02*
X13480368Y-8139632D01*
X13480368Y-8139632D02*
X13480368Y-8408272D01*
X13711000Y-7994000D02*
X13626000Y-7994000D01*
X13480368Y-8408272D02*
X13310368Y-8578272D01*
%TO.N,/GPIO33*%
X13520368Y-8229632D02*
X13520368Y-8424841D01*
X13440368Y-8540993D02*
X13440368Y-8615551D01*
X13440000Y-8615919D02*
X13440000Y-8702640D01*
X13440000Y-8702640D02*
X13310368Y-8832272D01*
X13629000Y-8121000D02*
X13520368Y-8229632D01*
X13520368Y-8424841D02*
X13440000Y-8505209D01*
X13711000Y-8121000D02*
X13629000Y-8121000D01*
X13440000Y-8540625D02*
X13440368Y-8540993D01*
X13440000Y-8505209D02*
X13440000Y-8540625D01*
X13440368Y-8615551D02*
X13440000Y-8615919D01*
%TO.N,/GPIO25*%
X13480000Y-8521777D02*
X13480000Y-8524056D01*
X13480368Y-8632120D02*
X13480000Y-8632488D01*
X13480000Y-8524056D02*
X13480368Y-8524424D01*
X13480368Y-8524424D02*
X13480368Y-8632120D01*
X13440368Y-8794993D02*
X13440368Y-8956272D01*
X13711000Y-8248000D02*
X13616000Y-8248000D01*
X13480000Y-8632488D02*
X13480000Y-8719209D01*
X13616000Y-8248000D02*
X13560368Y-8303632D01*
X13480000Y-8719209D02*
X13440000Y-8759209D01*
X13560368Y-8303632D02*
X13560368Y-8441409D01*
X13440000Y-8794625D02*
X13440368Y-8794993D01*
X13440000Y-8759209D02*
X13440000Y-8794625D01*
X13560368Y-8441409D02*
X13480000Y-8521777D01*
X13440368Y-8956272D02*
X13310368Y-9086272D01*
%TO.N,/GPIO26*%
X13520000Y-8735777D02*
X13480368Y-8775409D01*
X13480368Y-8972841D02*
X13450000Y-9003209D01*
X13450000Y-9003209D02*
X13450000Y-9200640D01*
X13450000Y-9200640D02*
X13310368Y-9340272D01*
X13480368Y-8775409D02*
X13480368Y-8972841D01*
X13616000Y-8375000D02*
X13600368Y-8390632D01*
X13520000Y-8649056D02*
X13520000Y-8735777D01*
X13600368Y-8457978D02*
X13520368Y-8537978D01*
X13600368Y-8390632D02*
X13600368Y-8457978D01*
X13711000Y-8375000D02*
X13616000Y-8375000D01*
X13520368Y-8648688D02*
X13520000Y-8649056D01*
X13520368Y-8537978D02*
X13520368Y-8648688D01*
%TO.N,/GPIO27*%
X13560000Y-8665625D02*
X13560000Y-8752346D01*
X13560368Y-8665257D02*
X13560000Y-8665625D01*
X13490000Y-9414640D02*
X13310368Y-9594272D01*
X13658000Y-8502000D02*
X13560368Y-8599632D01*
X13520368Y-8989409D02*
X13490000Y-9019777D01*
X13560368Y-8599632D02*
X13560368Y-8665257D01*
X13711000Y-8502000D02*
X13658000Y-8502000D01*
X13520368Y-8791978D02*
X13520368Y-8989409D01*
X13490000Y-9019777D02*
X13490000Y-9414640D01*
X13560000Y-8752346D02*
X13520368Y-8791978D01*
%TO.N,/GPIO14*%
X13530000Y-9628640D02*
X13310368Y-9848272D01*
X13653193Y-8629000D02*
X13600000Y-8682193D01*
X13600000Y-8800368D02*
X13560368Y-8840000D01*
X13600000Y-8682193D02*
X13600000Y-8800368D01*
X13530000Y-9050000D02*
X13530000Y-9628640D01*
X13560368Y-8840000D02*
X13560368Y-9019632D01*
X13560368Y-9019632D02*
X13530000Y-9050000D01*
X13711000Y-8629000D02*
X13653193Y-8629000D01*
%TO.N,/GPIO12*%
X13600368Y-8866632D02*
X13600368Y-9036201D01*
X13570000Y-9066569D02*
X13570000Y-9645209D01*
X13470000Y-9942640D02*
X13310368Y-10102272D01*
X13570000Y-9645209D02*
X13470000Y-9745209D01*
X13600368Y-9036201D02*
X13570000Y-9066569D01*
X13711000Y-8756000D02*
X13600368Y-8866632D01*
X13470000Y-9745209D02*
X13470000Y-9942640D01*
%TO.N,/GPIO13*%
X13612000Y-9081137D02*
X13720000Y-8973137D01*
X13310368Y-10610272D02*
X13612000Y-10308640D01*
X14140000Y-8880000D02*
X14141000Y-8881000D01*
X13720000Y-8973137D02*
X13720000Y-8910000D01*
X14140000Y-8740000D02*
X14140000Y-8880000D01*
X13612000Y-10308640D02*
X13612000Y-9081137D01*
%TO.N,/GPIO15*%
X15850368Y-10790368D02*
X15850368Y-10864272D01*
X15030000Y-8881000D02*
X15030000Y-9290000D01*
X15410000Y-10350000D02*
X15850368Y-10790368D01*
X15030000Y-9290000D02*
X15170000Y-9430000D01*
X15410000Y-10240000D02*
X15410000Y-10350000D01*
%TO.N,/GPIO2*%
X15260000Y-9370000D02*
X15157000Y-9267000D01*
X15157000Y-9267000D02*
X15157000Y-8881000D01*
X15850368Y-10610272D02*
X15850368Y-10540368D01*
X15460000Y-10150000D02*
X15460000Y-10090000D01*
X15850368Y-10540368D02*
X15460000Y-10150000D01*
%TO.N,/GPIO4*%
X15610000Y-9390000D02*
X15610000Y-9470000D01*
X15610000Y-9730000D02*
X15610000Y-9861904D01*
X15366000Y-8629000D02*
X15320000Y-8675000D01*
X15320000Y-9100000D02*
X15610000Y-9390000D01*
X15320000Y-8675000D02*
X15320000Y-9100000D01*
X15610000Y-9861904D02*
X15850368Y-10102272D01*
X15461000Y-8629000D02*
X15366000Y-8629000D01*
%TO.N,/GPIO16*%
X15366000Y-8502000D02*
X15250000Y-8618000D01*
X15555000Y-9425000D02*
X15555000Y-9492782D01*
X15250000Y-9120000D02*
X15555000Y-9425000D01*
X15250000Y-8618000D02*
X15250000Y-9120000D01*
X15555000Y-9492782D02*
X15850368Y-9788150D01*
X15461000Y-8502000D02*
X15366000Y-8502000D01*
X15850368Y-9788150D02*
X15850368Y-9848272D01*
%TO.N,/GPIO17*%
X15663799Y-9223800D02*
X15720000Y-9280000D01*
X15663799Y-9040000D02*
X15663799Y-9223800D01*
X15565000Y-8375000D02*
X15600000Y-8410000D01*
X15720000Y-9463904D02*
X15850368Y-9594272D01*
X15600000Y-8792769D02*
X15623432Y-8816201D01*
X15623432Y-8816201D02*
X15623432Y-8999632D01*
X15600000Y-8410000D02*
X15600000Y-8792769D01*
X15720000Y-9280000D02*
X15720000Y-9463904D01*
X15461000Y-8375000D02*
X15565000Y-8375000D01*
X15623432Y-8999632D02*
X15663799Y-9040000D01*
%TO.N,/GPIO5*%
X15703799Y-8996272D02*
X15703799Y-9193704D01*
X15663431Y-8799632D02*
X15663431Y-8955904D01*
X15703799Y-9193704D02*
X15850368Y-9340272D01*
X15663431Y-8955904D02*
X15703799Y-8996272D01*
X15640000Y-8306569D02*
X15640000Y-8776201D01*
X15581431Y-8248000D02*
X15640000Y-8306569D01*
X15461000Y-8248000D02*
X15581431Y-8248000D01*
X15640000Y-8776201D02*
X15663431Y-8799632D01*
%TO.N,/GPIO18*%
X15720368Y-8956272D02*
X15850368Y-9086272D01*
X15720368Y-8800000D02*
X15720368Y-8956272D01*
X15515000Y-8120000D02*
X15590000Y-8120000D01*
X15590000Y-8120000D02*
X15630000Y-8160000D01*
X15461000Y-8121000D02*
X15514000Y-8121000D01*
X15630000Y-8240000D02*
X15680000Y-8290000D01*
X15630000Y-8160000D02*
X15630000Y-8240000D01*
X15680000Y-8759632D02*
X15720368Y-8800000D01*
X15514000Y-8121000D02*
X15515000Y-8120000D01*
X15680000Y-8290000D02*
X15680000Y-8759632D01*
%TO.N,/GPIO19*%
X15670000Y-8200473D02*
X15720000Y-8250473D01*
X15720000Y-8701904D02*
X15850368Y-8832272D01*
X15720000Y-8250473D02*
X15720000Y-8701904D01*
X15461000Y-7994000D02*
X15544000Y-7994000D01*
X15670000Y-8120000D02*
X15670000Y-8200473D01*
X15544000Y-7994000D02*
X15670000Y-8120000D01*
%TO.N,/GPIO21*%
X15660000Y-7844000D02*
X15660000Y-7916569D01*
X15461000Y-7740000D02*
X15556000Y-7740000D01*
X15660000Y-7916569D02*
X15710000Y-7966569D01*
X15710000Y-8183904D02*
X15850368Y-8324272D01*
X15710000Y-7966569D02*
X15710000Y-8183904D01*
X15556000Y-7740000D02*
X15660000Y-7844000D01*
%TO.N,/GPIO3*%
X14220000Y-10240000D02*
X14245000Y-10215000D01*
X15556000Y-7613000D02*
X15700000Y-7757000D01*
X15366000Y-7613000D02*
X15290000Y-7689000D01*
X15461000Y-7613000D02*
X15366000Y-7613000D01*
X14600000Y-8670000D02*
X14580000Y-8670000D01*
X15461000Y-7613000D02*
X15556000Y-7613000D01*
X15700000Y-7757000D02*
X15700000Y-7900000D01*
X15700000Y-7900000D02*
X15850368Y-8050368D01*
X15290000Y-7980000D02*
X14600000Y-8670000D01*
X15850368Y-8050368D02*
X15850368Y-8070272D01*
X15290000Y-7689000D02*
X15290000Y-7980000D01*
X14245000Y-10215000D02*
X14325000Y-10215000D01*
%TO.N,/GPIO1*%
X15250000Y-7644000D02*
X15408000Y-7486000D01*
X15556000Y-7486000D02*
X15850368Y-7780368D01*
X15408000Y-7486000D02*
X15461000Y-7486000D01*
X14520000Y-8620000D02*
X15250000Y-7890000D01*
X15850368Y-7780368D02*
X15850368Y-7816272D01*
X15250000Y-7890000D02*
X15250000Y-7644000D01*
X15461000Y-7486000D02*
X15556000Y-7486000D01*
X14325000Y-10165000D02*
X14195000Y-10165000D01*
X14195000Y-10165000D02*
X14190000Y-10160000D01*
%TO.N,/GPIO22*%
X15647096Y-7359000D02*
X15850368Y-7562272D01*
X15461000Y-7359000D02*
X15647096Y-7359000D01*
%TO.N,/GPIO23*%
X15461000Y-7232000D02*
X15774096Y-7232000D01*
X15774096Y-7232000D02*
X15850368Y-7308272D01*
%TO.N,/~{DTR}*%
X14170000Y-10410000D02*
X14140000Y-10440000D01*
X14265000Y-10315000D02*
X14170000Y-10410000D01*
X14140000Y-10440000D02*
X13930000Y-10440000D01*
X14325000Y-10315000D02*
X14265000Y-10315000D01*
%TO.N,Net-(D2-A)*%
X14040000Y-9742000D02*
X14022000Y-9742000D01*
X14022000Y-9742000D02*
X13920000Y-9640000D01*
%TD*%
%TA.AperFunction,Conductor*%
%TO.N,+3.3V*%
G36*
X14985869Y-9161891D02*
G01*
X14989465Y-9166841D01*
X14989950Y-9169900D01*
X14989950Y-9295538D01*
X14990000Y-9296301D01*
X14990000Y-9480000D01*
X15143850Y-9480000D01*
X15148113Y-9481142D01*
X15148152Y-9481050D01*
X15148751Y-9481298D01*
X15148751Y-9481298D01*
X15148751Y-9481298D01*
X15162752Y-9485050D01*
X15162753Y-9485050D01*
X15177247Y-9485050D01*
X15177247Y-9485050D01*
X15191248Y-9481298D01*
X15191249Y-9481298D01*
X15191249Y-9481298D01*
X15191848Y-9481050D01*
X15191886Y-9481142D01*
X15196150Y-9480000D01*
X15300100Y-9480000D01*
X15305919Y-9481891D01*
X15309515Y-9486841D01*
X15310000Y-9489900D01*
X15310000Y-9630100D01*
X15308109Y-9635919D01*
X15303159Y-9639516D01*
X15300100Y-9640000D01*
X14697811Y-9640000D01*
X14691992Y-9638109D01*
X14690811Y-9637100D01*
X14657661Y-9603951D01*
X14657661Y-9603951D01*
X14647389Y-9598020D01*
X14647389Y-9598020D01*
X14644967Y-9597371D01*
X14644967Y-9597371D01*
X14642221Y-9596635D01*
X14642220Y-9596635D01*
X14638200Y-9594314D01*
X14638176Y-9594346D01*
X14637933Y-9594160D01*
X14637784Y-9594073D01*
X14637661Y-9593951D01*
X14637661Y-9593951D01*
X14637661Y-9593951D01*
X14627389Y-9588020D01*
X14627389Y-9588020D01*
X14624967Y-9587371D01*
X14624967Y-9587371D01*
X14615931Y-9584950D01*
X14615931Y-9584950D01*
X14579900Y-9584950D01*
X14574081Y-9583059D01*
X14573960Y-9582970D01*
X14490000Y-9520000D01*
X14490000Y-9520000D01*
X14490000Y-9520000D01*
X14149900Y-9520000D01*
X14144081Y-9518109D01*
X14140484Y-9513159D01*
X14140000Y-9510100D01*
X14140000Y-9299900D01*
X14141891Y-9294081D01*
X14146841Y-9290485D01*
X14149900Y-9290000D01*
X14490000Y-9290000D01*
X14573669Y-9226018D01*
X14657338Y-9162036D01*
X14663109Y-9160003D01*
X14663351Y-9160000D01*
X14980050Y-9160000D01*
X14985869Y-9161891D01*
G37*
%TD.AperFunction*%
%TD*%
%TA.AperFunction,Conductor*%
%TO.N,GND*%
G36*
X15686240Y-10685336D02*
G01*
X15691944Y-10688583D01*
X15767828Y-10764468D01*
X15769943Y-10767293D01*
X15770609Y-10768511D01*
X15772094Y-10775339D01*
X15769652Y-10781885D01*
X15769652Y-10781886D01*
X15768992Y-10782767D01*
X15765955Y-10785646D01*
X15762548Y-10787922D01*
X15752965Y-10794325D01*
X15752963Y-10794326D01*
X15740422Y-10806868D01*
X15740422Y-10806868D01*
X15740422Y-10806868D01*
X15730567Y-10821616D01*
X15730566Y-10821617D01*
X15730566Y-10821619D01*
X15723779Y-10838004D01*
X15723778Y-10838007D01*
X15723778Y-10838007D01*
X15720318Y-10855402D01*
X15720318Y-10873142D01*
X15723778Y-10890537D01*
X15723778Y-10890537D01*
X15723779Y-10890540D01*
X15730566Y-10906925D01*
X15730566Y-10906926D01*
X15730567Y-10906928D01*
X15740422Y-10921676D01*
X15740422Y-10921676D01*
X15740422Y-10921676D01*
X15752963Y-10934218D01*
X15752964Y-10934218D01*
X15752964Y-10934218D01*
X15767713Y-10944073D01*
X15767714Y-10944074D01*
X15779632Y-10949010D01*
X15784101Y-10950861D01*
X15784102Y-10950861D01*
X15784102Y-10950862D01*
X15800736Y-10954170D01*
X15801008Y-10954242D01*
X15801499Y-10954322D01*
X15899237Y-10954322D01*
X15899649Y-10954322D01*
X15900435Y-10954084D01*
X15905036Y-10953168D01*
X15905036Y-10953168D01*
X15916633Y-10950862D01*
X15916633Y-10950862D01*
X15916634Y-10950862D01*
X15916634Y-10950861D01*
X15916635Y-10950861D01*
X15917041Y-10950693D01*
X15917751Y-10950399D01*
X15917755Y-10950397D01*
X15931197Y-10944829D01*
X15933022Y-10944074D01*
X15933022Y-10944074D01*
X15933023Y-10944073D01*
X15933023Y-10944073D01*
X15933257Y-10943976D01*
X15933258Y-10943976D01*
X15934184Y-10943592D01*
X15935073Y-10942704D01*
X15937126Y-10941332D01*
X15938739Y-10940254D01*
X15939546Y-10939714D01*
X15942730Y-10938191D01*
X15943560Y-10937931D01*
X15944030Y-10937784D01*
X15951016Y-10937660D01*
X15956960Y-10941332D01*
X15959827Y-10946873D01*
X15960010Y-10947678D01*
X15960318Y-10950423D01*
X15960318Y-11031727D01*
X15959815Y-11035221D01*
X15959431Y-11036528D01*
X15955654Y-11042406D01*
X15949298Y-11045308D01*
X15943097Y-11044613D01*
X15942326Y-11044317D01*
X15939874Y-11043048D01*
X15933024Y-11038471D01*
X15933023Y-11038471D01*
X15933023Y-11038471D01*
X15933022Y-11038470D01*
X15916636Y-11031683D01*
X15916633Y-11031682D01*
X15916633Y-11031682D01*
X15899238Y-11028222D01*
X15899237Y-11028222D01*
X15899237Y-11028222D01*
X15801499Y-11028222D01*
X15801499Y-11028222D01*
X15801498Y-11028222D01*
X15784103Y-11031682D01*
X15784102Y-11031682D01*
X15784100Y-11031683D01*
X15767715Y-11038470D01*
X15767713Y-11038471D01*
X15767712Y-11038471D01*
X15752964Y-11048326D01*
X15752964Y-11048326D01*
X15752963Y-11048326D01*
X15740422Y-11060868D01*
X15740422Y-11060868D01*
X15740422Y-11060868D01*
X15730567Y-11075616D01*
X15730566Y-11075617D01*
X15730566Y-11075619D01*
X15723779Y-11092004D01*
X15723778Y-11092007D01*
X15723778Y-11092007D01*
X15720318Y-11109402D01*
X15720318Y-11127142D01*
X15723778Y-11144537D01*
X15723778Y-11144537D01*
X15723779Y-11144540D01*
X15730566Y-11160925D01*
X15730566Y-11160926D01*
X15730567Y-11160928D01*
X15740422Y-11175676D01*
X15740422Y-11175676D01*
X15740422Y-11175676D01*
X15752963Y-11188218D01*
X15752964Y-11188218D01*
X15752964Y-11188218D01*
X15767713Y-11198073D01*
X15767714Y-11198074D01*
X15778521Y-11202550D01*
X15784101Y-11204861D01*
X15784102Y-11204861D01*
X15784102Y-11204862D01*
X15800736Y-11208170D01*
X15801008Y-11208242D01*
X15801499Y-11208322D01*
X15899237Y-11208322D01*
X15899649Y-11208322D01*
X15900435Y-11208084D01*
X15905036Y-11207168D01*
X15905036Y-11207168D01*
X15906886Y-11206800D01*
X15916634Y-11204862D01*
X15916634Y-11204861D01*
X15916635Y-11204861D01*
X15930621Y-11199068D01*
X15933022Y-11198074D01*
X15933022Y-11198073D01*
X15933023Y-11198073D01*
X15933023Y-11198073D01*
X15933257Y-11197976D01*
X15933257Y-11197976D01*
X15933258Y-11197976D01*
X15934184Y-11197592D01*
X15935072Y-11196704D01*
X15937944Y-11194785D01*
X15939547Y-11193714D01*
X15942730Y-11192191D01*
X15944030Y-11191784D01*
X15951016Y-11191659D01*
X15956960Y-11195331D01*
X15959827Y-11200873D01*
X15960010Y-11201678D01*
X15960318Y-11204423D01*
X15960318Y-11285701D01*
X15959815Y-11289195D01*
X15959431Y-11290502D01*
X15955654Y-11296379D01*
X15949298Y-11299281D01*
X15943097Y-11298586D01*
X15942326Y-11298291D01*
X15939874Y-11297022D01*
X15932656Y-11292199D01*
X15932655Y-11292199D01*
X15932655Y-11292199D01*
X15932654Y-11292198D01*
X15916268Y-11285411D01*
X15916265Y-11285410D01*
X15916265Y-11285410D01*
X15898870Y-11281950D01*
X15898869Y-11281950D01*
X15898869Y-11281950D01*
X15801131Y-11281950D01*
X15801131Y-11281950D01*
X15801130Y-11281950D01*
X15783735Y-11285410D01*
X15783734Y-11285410D01*
X15783732Y-11285411D01*
X15767347Y-11292198D01*
X15767345Y-11292198D01*
X15767344Y-11292199D01*
X15752596Y-11302054D01*
X15752596Y-11302054D01*
X15752595Y-11302054D01*
X15740054Y-11314595D01*
X15740054Y-11314596D01*
X15740054Y-11314596D01*
X15730199Y-11329344D01*
X15730198Y-11329345D01*
X15730198Y-11329347D01*
X15723411Y-11345732D01*
X15723411Y-11345732D01*
X15723410Y-11345734D01*
X15723410Y-11345735D01*
X15719950Y-11363130D01*
X15719950Y-11380870D01*
X15723410Y-11398265D01*
X15723410Y-11398265D01*
X15723411Y-11398268D01*
X15730198Y-11414653D01*
X15730198Y-11414654D01*
X15730199Y-11414656D01*
X15740054Y-11429404D01*
X15740054Y-11429404D01*
X15740054Y-11429404D01*
X15752595Y-11441946D01*
X15752596Y-11441946D01*
X15752596Y-11441946D01*
X15767345Y-11451801D01*
X15767346Y-11451802D01*
X15770958Y-11453298D01*
X15779514Y-11456842D01*
X15779518Y-11456843D01*
X15779636Y-11456892D01*
X15783733Y-11458589D01*
X15783734Y-11458589D01*
X15783734Y-11458590D01*
X15800368Y-11461898D01*
X15800640Y-11461970D01*
X15801131Y-11462050D01*
X15898869Y-11462050D01*
X15899281Y-11462050D01*
X15900067Y-11461812D01*
X15904668Y-11460896D01*
X15904668Y-11460896D01*
X15916265Y-11458590D01*
X15916265Y-11458590D01*
X15916266Y-11458590D01*
X15916266Y-11458589D01*
X15916267Y-11458589D01*
X15916593Y-11458454D01*
X15917383Y-11458127D01*
X15917387Y-11458125D01*
X15932655Y-11451801D01*
X15939546Y-11447196D01*
X15942730Y-11445673D01*
X15943338Y-11445483D01*
X15944030Y-11445266D01*
X15951016Y-11445142D01*
X15956960Y-11448814D01*
X15959827Y-11454355D01*
X15960010Y-11455160D01*
X15960318Y-11457905D01*
X15960318Y-11539701D01*
X15959815Y-11543195D01*
X15959431Y-11544502D01*
X15955654Y-11550379D01*
X15949298Y-11553281D01*
X15943097Y-11552586D01*
X15942326Y-11552291D01*
X15939874Y-11551022D01*
X15932656Y-11546199D01*
X15932655Y-11546199D01*
X15932655Y-11546199D01*
X15932654Y-11546198D01*
X15916268Y-11539411D01*
X15916265Y-11539410D01*
X15916265Y-11539410D01*
X15898870Y-11535950D01*
X15898869Y-11535950D01*
X15898869Y-11535950D01*
X15801131Y-11535950D01*
X15801131Y-11535950D01*
X15801130Y-11535950D01*
X15783735Y-11539410D01*
X15783734Y-11539410D01*
X15783732Y-11539411D01*
X15767347Y-11546198D01*
X15767345Y-11546198D01*
X15767344Y-11546199D01*
X15752596Y-11556054D01*
X15752596Y-11556054D01*
X15752595Y-11556054D01*
X15740054Y-11568595D01*
X15740054Y-11568596D01*
X15740054Y-11568596D01*
X15730199Y-11583344D01*
X15730198Y-11583345D01*
X15730198Y-11583347D01*
X15723411Y-11599732D01*
X15723410Y-11599734D01*
X15723410Y-11599735D01*
X15719950Y-11617130D01*
X15719950Y-11634870D01*
X15723410Y-11652265D01*
X15723410Y-11652265D01*
X15723411Y-11652268D01*
X15730198Y-11668653D01*
X15730198Y-11668654D01*
X15730199Y-11668655D01*
X15734740Y-11675451D01*
X15736263Y-11678635D01*
X15736670Y-11679935D01*
X15736794Y-11686920D01*
X15733122Y-11692865D01*
X15727581Y-11695732D01*
X15727331Y-11695788D01*
X15726775Y-11695914D01*
X15724031Y-11696222D01*
X13436913Y-11696222D01*
X13433419Y-11695720D01*
X13432112Y-11695336D01*
X13426234Y-11691558D01*
X13423332Y-11685202D01*
X13424027Y-11679001D01*
X13424323Y-11678229D01*
X13425591Y-11675778D01*
X13430169Y-11668927D01*
X13436957Y-11652539D01*
X13440418Y-11635141D01*
X13440418Y-11617403D01*
X13440418Y-11617403D01*
X13440418Y-11617392D01*
X13440411Y-11617361D01*
X13440392Y-11617274D01*
X13436958Y-11600006D01*
X13436957Y-11600005D01*
X13436845Y-11599733D01*
X13435561Y-11596635D01*
X13435561Y-11596635D01*
X13432158Y-11588418D01*
X13431285Y-11584998D01*
X13431118Y-11583443D01*
X13432358Y-11576568D01*
X13432968Y-11575350D01*
X13435288Y-11572133D01*
X13592479Y-11414942D01*
X13595304Y-11412827D01*
X13597613Y-11411567D01*
X13603556Y-11410050D01*
X14476589Y-11410050D01*
X14476589Y-11410050D01*
X14489319Y-11406639D01*
X14500731Y-11400050D01*
X14618987Y-11281794D01*
X14618988Y-11281794D01*
X14620731Y-11280050D01*
X14620731Y-11280050D01*
X14630050Y-11270731D01*
X14636639Y-11259319D01*
X14640050Y-11246589D01*
X14640050Y-11234233D01*
X14640552Y-11230739D01*
X14640993Y-11229239D01*
X14644767Y-11223364D01*
X14644904Y-11223246D01*
X14650392Y-11220498D01*
X14651148Y-11220333D01*
X14653783Y-11220050D01*
X14760471Y-11220050D01*
X14760471Y-11220050D01*
X14769508Y-11217629D01*
X14771929Y-11216980D01*
X14782202Y-11211049D01*
X14812223Y-11181028D01*
X14815047Y-11178914D01*
X14816265Y-11178248D01*
X14823093Y-11176763D01*
X14829639Y-11179205D01*
X14829639Y-11179205D01*
X14830517Y-11179862D01*
X14832213Y-11181589D01*
X14832243Y-11181560D01*
X14832949Y-11182267D01*
X14842733Y-11192050D01*
X14842734Y-11192051D01*
X14842734Y-11192051D01*
X14847468Y-11194784D01*
X14854716Y-11198969D01*
X14868082Y-11202550D01*
X14868082Y-11202550D01*
X14881918Y-11202550D01*
X14881918Y-11202550D01*
X14895284Y-11198969D01*
X14907266Y-11192050D01*
X14917050Y-11182267D01*
X14923969Y-11170284D01*
X14927550Y-11156918D01*
X14927550Y-11143082D01*
X14923969Y-11129716D01*
X14917050Y-11117734D01*
X14907266Y-11107950D01*
X14907266Y-11107949D01*
X14907266Y-11107949D01*
X14896550Y-11101762D01*
X14896406Y-11101674D01*
X14896259Y-11101511D01*
X14896025Y-11101332D01*
X14894388Y-11100500D01*
X14892383Y-11099278D01*
X14887683Y-11094108D01*
X14887683Y-11094107D01*
X14887296Y-11093310D01*
X14886050Y-11087893D01*
X14886050Y-10985573D01*
X14885943Y-10984430D01*
X14885765Y-10982530D01*
X14885765Y-10982530D01*
X14881279Y-10969712D01*
X14881279Y-10969712D01*
X14874531Y-10960569D01*
X14872861Y-10957459D01*
X14871802Y-10954561D01*
X14871050Y-10950307D01*
X14871050Y-10929233D01*
X14871552Y-10925739D01*
X14871889Y-10924592D01*
X14871993Y-10924239D01*
X14875767Y-10918364D01*
X14875904Y-10918246D01*
X14881392Y-10915498D01*
X14882148Y-10915333D01*
X14884783Y-10915050D01*
X14897247Y-10915050D01*
X14897247Y-10915050D01*
X14908420Y-10912056D01*
X14911924Y-10911637D01*
X14914297Y-10911694D01*
X14919643Y-10913048D01*
X14919809Y-10913133D01*
X14921530Y-10914197D01*
X14925921Y-10917438D01*
X14929674Y-10918752D01*
X14938312Y-10921774D01*
X14939078Y-10921846D01*
X14941254Y-10922050D01*
X14978746Y-10922050D01*
X14981688Y-10921774D01*
X14994079Y-10917438D01*
X15004642Y-10909642D01*
X15012438Y-10899079D01*
X15014733Y-10892522D01*
X15016774Y-10886688D01*
X15016774Y-10886688D01*
X15016800Y-10886409D01*
X15017050Y-10883746D01*
X15017050Y-10836254D01*
X15016774Y-10833312D01*
X15012438Y-10820921D01*
X15012438Y-10820920D01*
X15012004Y-10820099D01*
X15012049Y-10820075D01*
X15011009Y-10818138D01*
X15010569Y-10816935D01*
X15010118Y-10809962D01*
X15013509Y-10803853D01*
X15019191Y-10800656D01*
X15020109Y-10800425D01*
X15023134Y-10800050D01*
X15186491Y-10800050D01*
X15189985Y-10800552D01*
X15192509Y-10801293D01*
X15197784Y-10804423D01*
X15237057Y-10843697D01*
X15239172Y-10846522D01*
X15240433Y-10848831D01*
X15241950Y-10854774D01*
X15241950Y-10872307D01*
X15242228Y-10875279D01*
X15242229Y-10875280D01*
X15242229Y-10875281D01*
X15242229Y-10875282D01*
X15242229Y-10875283D01*
X15246220Y-10886688D01*
X15246615Y-10887815D01*
X15246615Y-10887816D01*
X15253446Y-10897071D01*
X15254500Y-10898500D01*
X15254500Y-10898500D01*
X15255157Y-10899157D01*
X15255112Y-10899202D01*
X15256618Y-10900688D01*
X15258397Y-10903030D01*
X15260498Y-10907319D01*
X15262679Y-10915459D01*
X15265316Y-10920025D01*
X15267952Y-10924591D01*
X15267952Y-10924592D01*
X15306057Y-10962697D01*
X15308172Y-10965522D01*
X15309433Y-10967831D01*
X15310950Y-10973774D01*
X15310950Y-11015767D01*
X15310447Y-11019261D01*
X15310007Y-11020761D01*
X15306233Y-11026636D01*
X15306096Y-11026754D01*
X15300610Y-11029502D01*
X15299854Y-11029666D01*
X15297217Y-11029950D01*
X15266213Y-11029950D01*
X15266213Y-11029950D01*
X15266142Y-11029955D01*
X15265998Y-11029973D01*
X15260252Y-11030591D01*
X15248796Y-11034864D01*
X15247199Y-11035459D01*
X15246767Y-11035620D01*
X15246766Y-11035621D01*
X15235246Y-11044245D01*
X15235245Y-11044246D01*
X15226620Y-11055767D01*
X15226620Y-11055767D01*
X15226620Y-11055767D01*
X15221591Y-11069251D01*
X15221591Y-11069252D01*
X15220950Y-11075212D01*
X15220950Y-11075212D01*
X15220950Y-11075214D01*
X15220950Y-11124788D01*
X15220966Y-11124981D01*
X15220988Y-11125145D01*
X15221591Y-11130748D01*
X15224369Y-11138197D01*
X15226620Y-11144233D01*
X15226621Y-11144234D01*
X15230909Y-11149962D01*
X15235245Y-11155754D01*
X15235246Y-11155755D01*
X15238142Y-11157923D01*
X15246766Y-11164379D01*
X15246767Y-11164380D01*
X15260252Y-11169409D01*
X15260252Y-11169409D01*
X15260944Y-11169484D01*
X15266213Y-11170050D01*
X15435787Y-11170050D01*
X15441748Y-11169409D01*
X15455233Y-11164380D01*
X15466755Y-11155755D01*
X15475380Y-11144233D01*
X15480409Y-11130748D01*
X15481050Y-11124787D01*
X15481050Y-11075213D01*
X15480409Y-11069252D01*
X15480409Y-11069251D01*
X15477284Y-11060874D01*
X15477284Y-11060874D01*
X15475380Y-11055768D01*
X15475380Y-11055767D01*
X15475380Y-11055767D01*
X15475379Y-11055766D01*
X15467999Y-11045908D01*
X15466755Y-11044246D01*
X15466754Y-11044245D01*
X15459563Y-11038862D01*
X15455233Y-11035621D01*
X15455233Y-11035620D01*
X15455233Y-11035620D01*
X15455233Y-11035620D01*
X15441748Y-11030591D01*
X15441748Y-11030591D01*
X15435788Y-11029950D01*
X15435788Y-11029950D01*
X15435787Y-11029950D01*
X15435786Y-11029950D01*
X15435684Y-11029950D01*
X15405233Y-11029950D01*
X15401739Y-11029448D01*
X15400239Y-11029007D01*
X15394364Y-11025233D01*
X15394246Y-11025096D01*
X15391498Y-11019608D01*
X15391333Y-11018852D01*
X15391050Y-11016217D01*
X15391050Y-10945728D01*
X15391050Y-10945727D01*
X15388797Y-10937321D01*
X15388797Y-10937321D01*
X15388321Y-10935541D01*
X15388321Y-10935541D01*
X15383048Y-10926409D01*
X15357840Y-10901201D01*
X15355725Y-10898376D01*
X15355338Y-10897667D01*
X15354943Y-10896943D01*
X15353450Y-10890242D01*
X15353538Y-10888792D01*
X15354211Y-10885455D01*
X15357771Y-10875282D01*
X15357771Y-10875282D01*
X15357771Y-10875282D01*
X15357906Y-10873842D01*
X15357972Y-10873141D01*
X15357972Y-10873141D01*
X15357972Y-10873139D01*
X15358050Y-10872308D01*
X15358050Y-10872307D01*
X15358050Y-10855508D01*
X15358552Y-10852015D01*
X15359293Y-10849491D01*
X15362423Y-10844216D01*
X15491697Y-10714942D01*
X15494522Y-10712828D01*
X15496831Y-10711567D01*
X15502774Y-10710050D01*
X15575278Y-10710050D01*
X15578772Y-10710552D01*
X15581296Y-10711293D01*
X15585259Y-10713645D01*
X15585388Y-10713467D01*
X15586198Y-10714051D01*
X15586198Y-10714051D01*
X15586199Y-10714051D01*
X15586199Y-10714051D01*
X15586199Y-10714051D01*
X15586267Y-10714101D01*
X15586518Y-10714235D01*
X15598751Y-10721298D01*
X15598751Y-10721298D01*
X15598751Y-10721298D01*
X15612752Y-10725050D01*
X15612753Y-10725050D01*
X15627247Y-10725050D01*
X15627247Y-10725050D01*
X15641248Y-10721298D01*
X15653801Y-10714051D01*
X15664051Y-10703802D01*
X15668058Y-10696861D01*
X15669478Y-10694401D01*
X15670161Y-10693219D01*
X15670161Y-10693218D01*
X15671243Y-10691640D01*
X15671992Y-10690710D01*
X15673012Y-10689444D01*
X15678750Y-10685458D01*
X15685732Y-10685207D01*
X15686240Y-10685336D01*
G37*
%TD.AperFunction*%
%TA.AperFunction,Conductor*%
G36*
X13669919Y-9988043D02*
G01*
X13670617Y-9988362D01*
X13672059Y-9989612D01*
X13672213Y-9989407D01*
X13673734Y-9990548D01*
X13675513Y-9992604D01*
X13675897Y-9992937D01*
X13675947Y-9993105D01*
X13677172Y-9994522D01*
X13678433Y-9996831D01*
X13679950Y-10002774D01*
X13679950Y-10779435D01*
X13679447Y-10782929D01*
X13678813Y-10785090D01*
X13675962Y-10790076D01*
X13675686Y-10790371D01*
X13675156Y-10790842D01*
X13675157Y-10790843D01*
X13674500Y-10791500D01*
X13670557Y-10796842D01*
X13670557Y-10796842D01*
X13669954Y-10797660D01*
X13666615Y-10802184D01*
X13662229Y-10814717D01*
X13662229Y-10814718D01*
X13662228Y-10814721D01*
X13661950Y-10817692D01*
X13661950Y-10862307D01*
X13662228Y-10865279D01*
X13662229Y-10865282D01*
X13662229Y-10865283D01*
X13664979Y-10873142D01*
X13665728Y-10875282D01*
X13666615Y-10877816D01*
X13674500Y-10888500D01*
X13674913Y-10888805D01*
X13676477Y-10890864D01*
X13677353Y-10892018D01*
X13679672Y-10897270D01*
X13679745Y-10897667D01*
X13679950Y-10899913D01*
X13679950Y-11014727D01*
X13679950Y-11025273D01*
X13681375Y-11030591D01*
X13682676Y-11035448D01*
X13683028Y-11037332D01*
X13683274Y-11039622D01*
X13682314Y-11045896D01*
X13681925Y-11046790D01*
X13680483Y-11049271D01*
X13675620Y-11055767D01*
X13675620Y-11055767D01*
X13670591Y-11069251D01*
X13670591Y-11069252D01*
X13669950Y-11075212D01*
X13669950Y-11075212D01*
X13669950Y-11075214D01*
X13669950Y-11124788D01*
X13669966Y-11124981D01*
X13669988Y-11125145D01*
X13670591Y-11130748D01*
X13673369Y-11138197D01*
X13675620Y-11144233D01*
X13675621Y-11144234D01*
X13679909Y-11149962D01*
X13684245Y-11155754D01*
X13684246Y-11155755D01*
X13687142Y-11157923D01*
X13695766Y-11164379D01*
X13695767Y-11164380D01*
X13709252Y-11169409D01*
X13709252Y-11169409D01*
X13709944Y-11169484D01*
X13715213Y-11170050D01*
X13884787Y-11170050D01*
X13890748Y-11169409D01*
X13904233Y-11164380D01*
X13915755Y-11155755D01*
X13924380Y-11144233D01*
X13929409Y-11130748D01*
X13930050Y-11124787D01*
X13930050Y-11075213D01*
X13929409Y-11069252D01*
X13929409Y-11069251D01*
X13926284Y-11060874D01*
X13926284Y-11060874D01*
X13924380Y-11055768D01*
X13924380Y-11055767D01*
X13924380Y-11055767D01*
X13924379Y-11055766D01*
X13916999Y-11045908D01*
X13915755Y-11044246D01*
X13915754Y-11044245D01*
X13908563Y-11038862D01*
X13904233Y-11035621D01*
X13904233Y-11035620D01*
X13904233Y-11035620D01*
X13904233Y-11035620D01*
X13890748Y-11030591D01*
X13890748Y-11030591D01*
X13884788Y-11029950D01*
X13884788Y-11029950D01*
X13884787Y-11029950D01*
X13884786Y-11029950D01*
X13884684Y-11029950D01*
X13793508Y-11029950D01*
X13790015Y-11029448D01*
X13787491Y-11028707D01*
X13782216Y-11025577D01*
X13764943Y-11008303D01*
X13762827Y-11005478D01*
X13761567Y-11003169D01*
X13760050Y-10997226D01*
X13760050Y-10900565D01*
X13760552Y-10897071D01*
X13761187Y-10894911D01*
X13764036Y-10889926D01*
X13764312Y-10889631D01*
X13764844Y-10889158D01*
X13764843Y-10889157D01*
X13765499Y-10888500D01*
X13765500Y-10888500D01*
X13773385Y-10877816D01*
X13776056Y-10870184D01*
X13777771Y-10865283D01*
X13777771Y-10865282D01*
X13777771Y-10865282D01*
X13777926Y-10863629D01*
X13778050Y-10862307D01*
X13778050Y-10817693D01*
X13777825Y-10815294D01*
X13777825Y-10815294D01*
X13777771Y-10814718D01*
X13777771Y-10814718D01*
X13777771Y-10814717D01*
X13777771Y-10814717D01*
X13777766Y-10814669D01*
X13777671Y-10814369D01*
X13777657Y-10814321D01*
X13777511Y-10813974D01*
X13774128Y-10804308D01*
X13774128Y-10804307D01*
X13773385Y-10802185D01*
X13773385Y-10802184D01*
X13765500Y-10791500D01*
X13765342Y-10791342D01*
X13764234Y-10790073D01*
X13762646Y-10787981D01*
X13760327Y-10782725D01*
X13760254Y-10782329D01*
X13760050Y-10780087D01*
X13760050Y-10754140D01*
X13760552Y-10750648D01*
X13760718Y-10750082D01*
X13760871Y-10749562D01*
X13764648Y-10743684D01*
X13771003Y-10740781D01*
X13777919Y-10741775D01*
X13778229Y-10741917D01*
X13783004Y-10745765D01*
X13783531Y-10746468D01*
X13783531Y-10746469D01*
X13794477Y-10754663D01*
X13794477Y-10754663D01*
X13794477Y-10754663D01*
X13807289Y-10759441D01*
X13812951Y-10760050D01*
X13857048Y-10760050D01*
X13862711Y-10759441D01*
X13875523Y-10754663D01*
X13886469Y-10746469D01*
X13894663Y-10735523D01*
X13899441Y-10722711D01*
X13899738Y-10719950D01*
X13900050Y-10717050D01*
X13900050Y-10717049D01*
X13900050Y-10717049D01*
X13900050Y-10678508D01*
X13900552Y-10675015D01*
X13901293Y-10672491D01*
X13904423Y-10667217D01*
X13926697Y-10644942D01*
X13929522Y-10642828D01*
X13931831Y-10641567D01*
X13937774Y-10640050D01*
X13945767Y-10640050D01*
X13949261Y-10640552D01*
X13950760Y-10640993D01*
X13956635Y-10644767D01*
X13956754Y-10644904D01*
X13959502Y-10650390D01*
X13959666Y-10651146D01*
X13959950Y-10653783D01*
X13959950Y-10717048D01*
X13959950Y-10717049D01*
X13960559Y-10722711D01*
X13963259Y-10729950D01*
X13965337Y-10735523D01*
X13973531Y-10746469D01*
X13981398Y-10752357D01*
X13982970Y-10753534D01*
X13984477Y-10754663D01*
X13997289Y-10759441D01*
X14002951Y-10760050D01*
X14041492Y-10760050D01*
X14044985Y-10760552D01*
X14047257Y-10761219D01*
X14047509Y-10761293D01*
X14052783Y-10764423D01*
X14080409Y-10792048D01*
X14089541Y-10797321D01*
X14099727Y-10800050D01*
X14110273Y-10800050D01*
X14298619Y-10800050D01*
X14302112Y-10800552D01*
X14303342Y-10800913D01*
X14309220Y-10804690D01*
X14312122Y-10811046D01*
X14311321Y-10817517D01*
X14310962Y-10818392D01*
X14309906Y-10820270D01*
X14309562Y-10820921D01*
X14305226Y-10833312D01*
X14305188Y-10833532D01*
X14305172Y-10833889D01*
X14304950Y-10836254D01*
X14304950Y-10883745D01*
X14304950Y-10883746D01*
X14305226Y-10886687D01*
X14305226Y-10886689D01*
X14309562Y-10899079D01*
X14309652Y-10899202D01*
X14310446Y-10900278D01*
X14317358Y-10909642D01*
X14319602Y-10911298D01*
X14320718Y-10912123D01*
X14320719Y-10912123D01*
X14327920Y-10917438D01*
X14327920Y-10917438D01*
X14335465Y-10920078D01*
X14335466Y-10920078D01*
X14338835Y-10921257D01*
X14341966Y-10922885D01*
X14342582Y-10923327D01*
X14346882Y-10928834D01*
X14347522Y-10935791D01*
X14344299Y-10941991D01*
X14338543Y-10945385D01*
X14337988Y-10945533D01*
X14334800Y-10945950D01*
X14325573Y-10945950D01*
X14323707Y-10946125D01*
X14323107Y-10946181D01*
X14322750Y-10946198D01*
X14322530Y-10946235D01*
X14309712Y-10950721D01*
X14298785Y-10958785D01*
X14290721Y-10969712D01*
X14286235Y-10982530D01*
X14286198Y-10982750D01*
X14286181Y-10983107D01*
X14285950Y-10985573D01*
X14285950Y-11087259D01*
X14285447Y-11090754D01*
X14285007Y-11092253D01*
X14281230Y-11098130D01*
X14280454Y-11098802D01*
X14277155Y-11100764D01*
X14277178Y-11100813D01*
X14276715Y-11101032D01*
X14264735Y-11107949D01*
X14264734Y-11107949D01*
X14264733Y-11107950D01*
X14264732Y-11107950D01*
X14254950Y-11117732D01*
X14254950Y-11117733D01*
X14254949Y-11117734D01*
X14254948Y-11117735D01*
X14248032Y-11129715D01*
X14248031Y-11129716D01*
X14248031Y-11129718D01*
X14247755Y-11130748D01*
X14244450Y-11143082D01*
X14244450Y-11156918D01*
X14245524Y-11160928D01*
X14246449Y-11164380D01*
X14246449Y-11164380D01*
X14248031Y-11170283D01*
X14248032Y-11170285D01*
X14254949Y-11182266D01*
X14254949Y-11182266D01*
X14254949Y-11182266D01*
X14254949Y-11182266D01*
X14254949Y-11182267D01*
X14264733Y-11192050D01*
X14264734Y-11192051D01*
X14264734Y-11192051D01*
X14269468Y-11194784D01*
X14276716Y-11198969D01*
X14290082Y-11202550D01*
X14290082Y-11202550D01*
X14303918Y-11202550D01*
X14303918Y-11202550D01*
X14317284Y-11198969D01*
X14329266Y-11192050D01*
X14338274Y-11183043D01*
X14338476Y-11182846D01*
X14339664Y-11181713D01*
X14339664Y-11181713D01*
X14341305Y-11180148D01*
X14347514Y-11176947D01*
X14354470Y-11177610D01*
X14355107Y-11177865D01*
X14355260Y-11177926D01*
X14359419Y-11180670D01*
X14389798Y-11211049D01*
X14389867Y-11211098D01*
X14390117Y-11211233D01*
X14400070Y-11216979D01*
X14400071Y-11216980D01*
X14411528Y-11220050D01*
X14507449Y-11220050D01*
X14510942Y-11220552D01*
X14512027Y-11220871D01*
X14517906Y-11224648D01*
X14520808Y-11231003D01*
X14519815Y-11237919D01*
X14519814Y-11237920D01*
X14519496Y-11238617D01*
X14516984Y-11242234D01*
X14479169Y-11280050D01*
X14454161Y-11305057D01*
X14451336Y-11307172D01*
X14449027Y-11308433D01*
X14443084Y-11309950D01*
X13570051Y-11309950D01*
X13557321Y-11313361D01*
X13557321Y-11313361D01*
X13545910Y-11319949D01*
X13545908Y-11319950D01*
X13545908Y-11319951D01*
X13459583Y-11406275D01*
X13454388Y-11409381D01*
X13453313Y-11409704D01*
X13453312Y-11409699D01*
X13452456Y-11410166D01*
X13445487Y-11409666D01*
X13439895Y-11405478D01*
X13438204Y-11402380D01*
X13438122Y-11402161D01*
X13437579Y-11395411D01*
X13440418Y-11381141D01*
X13440418Y-11363403D01*
X13440418Y-11363403D01*
X13440418Y-11363392D01*
X13440411Y-11363361D01*
X13440392Y-11363274D01*
X13436958Y-11346006D01*
X13436957Y-11346005D01*
X13436845Y-11345733D01*
X13435260Y-11341908D01*
X13435260Y-11341908D01*
X13435260Y-11341908D01*
X13430170Y-11329619D01*
X13430170Y-11329618D01*
X13430169Y-11329617D01*
X13420314Y-11314868D01*
X13420314Y-11314868D01*
X13420314Y-11314867D01*
X13407772Y-11302326D01*
X13407772Y-11302326D01*
X13407772Y-11302326D01*
X13393024Y-11292471D01*
X13393024Y-11292471D01*
X13393023Y-11292471D01*
X13393022Y-11292470D01*
X13392368Y-11292199D01*
X13376636Y-11285683D01*
X13376633Y-11285682D01*
X13376633Y-11285682D01*
X13359238Y-11282222D01*
X13359237Y-11282222D01*
X13359237Y-11282222D01*
X13261499Y-11282222D01*
X13261499Y-11282222D01*
X13261498Y-11282222D01*
X13244103Y-11285682D01*
X13244102Y-11285682D01*
X13244100Y-11285683D01*
X13227715Y-11292470D01*
X13227713Y-11292470D01*
X13227712Y-11292471D01*
X13221189Y-11296830D01*
X13218005Y-11298353D01*
X13216706Y-11298760D01*
X13209720Y-11298884D01*
X13203776Y-11295212D01*
X13200908Y-11289669D01*
X13200725Y-11288864D01*
X13200418Y-11286121D01*
X13200418Y-11204817D01*
X13200920Y-11201323D01*
X13201304Y-11200017D01*
X13205081Y-11194139D01*
X13211437Y-11191236D01*
X13217639Y-11191931D01*
X13218411Y-11192227D01*
X13220862Y-11193495D01*
X13227713Y-11198073D01*
X13227713Y-11198073D01*
X13227713Y-11198073D01*
X13227713Y-11198073D01*
X13227714Y-11198074D01*
X13238521Y-11202550D01*
X13244101Y-11204861D01*
X13244102Y-11204861D01*
X13244102Y-11204862D01*
X13260736Y-11208170D01*
X13261008Y-11208242D01*
X13261499Y-11208322D01*
X13359237Y-11208322D01*
X13359649Y-11208322D01*
X13360435Y-11208084D01*
X13365036Y-11207168D01*
X13365036Y-11207168D01*
X13366886Y-11206800D01*
X13376634Y-11204862D01*
X13376634Y-11204861D01*
X13376635Y-11204861D01*
X13390621Y-11199068D01*
X13393022Y-11198074D01*
X13393022Y-11198073D01*
X13393023Y-11198073D01*
X13393023Y-11198073D01*
X13393258Y-11197976D01*
X13393258Y-11197976D01*
X13394184Y-11197592D01*
X13395072Y-11196704D01*
X13407771Y-11188218D01*
X13420314Y-11175676D01*
X13430169Y-11160927D01*
X13432312Y-11155755D01*
X13436957Y-11144539D01*
X13436957Y-11144539D01*
X13436957Y-11144539D01*
X13436957Y-11144539D01*
X13437018Y-11144233D01*
X13440418Y-11127142D01*
X13440418Y-11127141D01*
X13440418Y-11109403D01*
X13440418Y-11109402D01*
X13436958Y-11092006D01*
X13436957Y-11092005D01*
X13430170Y-11075618D01*
X13430169Y-11075617D01*
X13420314Y-11060869D01*
X13420314Y-11060868D01*
X13420314Y-11060868D01*
X13407772Y-11048326D01*
X13407772Y-11048326D01*
X13407772Y-11048326D01*
X13393024Y-11038471D01*
X13393024Y-11038471D01*
X13393023Y-11038471D01*
X13393022Y-11038470D01*
X13393021Y-11038470D01*
X13376636Y-11031683D01*
X13376633Y-11031682D01*
X13376633Y-11031682D01*
X13359238Y-11028222D01*
X13359237Y-11028222D01*
X13359237Y-11028222D01*
X13261499Y-11028222D01*
X13261499Y-11028222D01*
X13261498Y-11028222D01*
X13244103Y-11031682D01*
X13244102Y-11031682D01*
X13244100Y-11031683D01*
X13227715Y-11038470D01*
X13227713Y-11038471D01*
X13227712Y-11038471D01*
X13221189Y-11042830D01*
X13218005Y-11044353D01*
X13216706Y-11044760D01*
X13209720Y-11044884D01*
X13203776Y-11041212D01*
X13200908Y-11035669D01*
X13200725Y-11034864D01*
X13200418Y-11032121D01*
X13200418Y-10950817D01*
X13200920Y-10947323D01*
X13201304Y-10946017D01*
X13205081Y-10940139D01*
X13211437Y-10937236D01*
X13217639Y-10937931D01*
X13218411Y-10938227D01*
X13220862Y-10939495D01*
X13227713Y-10944073D01*
X13227713Y-10944073D01*
X13227713Y-10944073D01*
X13227713Y-10944073D01*
X13227714Y-10944074D01*
X13239632Y-10949010D01*
X13244101Y-10950861D01*
X13244102Y-10950861D01*
X13244102Y-10950862D01*
X13260736Y-10954170D01*
X13261008Y-10954242D01*
X13261499Y-10954322D01*
X13359237Y-10954322D01*
X13359649Y-10954322D01*
X13360435Y-10954084D01*
X13365036Y-10953168D01*
X13365036Y-10953168D01*
X13376633Y-10950862D01*
X13376633Y-10950862D01*
X13376634Y-10950862D01*
X13376634Y-10950861D01*
X13376635Y-10950861D01*
X13377041Y-10950693D01*
X13377751Y-10950399D01*
X13377755Y-10950397D01*
X13391197Y-10944829D01*
X13393022Y-10944074D01*
X13393022Y-10944074D01*
X13393023Y-10944073D01*
X13393023Y-10944073D01*
X13393257Y-10943976D01*
X13393258Y-10943976D01*
X13394184Y-10943592D01*
X13395072Y-10942704D01*
X13407771Y-10934218D01*
X13420314Y-10921676D01*
X13430169Y-10906927D01*
X13431783Y-10903030D01*
X13436957Y-10890539D01*
X13436957Y-10890539D01*
X13437012Y-10890262D01*
X13437302Y-10888805D01*
X13437363Y-10888500D01*
X13440418Y-10873142D01*
X13440418Y-10873141D01*
X13440418Y-10855403D01*
X13440418Y-10855402D01*
X13436958Y-10838006D01*
X13436957Y-10838005D01*
X13436232Y-10836254D01*
X13433945Y-10830732D01*
X13430170Y-10821618D01*
X13430169Y-10821617D01*
X13420314Y-10806869D01*
X13420314Y-10806868D01*
X13420314Y-10806868D01*
X13407772Y-10794326D01*
X13407772Y-10794326D01*
X13407771Y-10794325D01*
X13393024Y-10784471D01*
X13393024Y-10784471D01*
X13393023Y-10784471D01*
X13393022Y-10784470D01*
X13393021Y-10784470D01*
X13376636Y-10777683D01*
X13376633Y-10777682D01*
X13376633Y-10777682D01*
X13359238Y-10774222D01*
X13359237Y-10774222D01*
X13359237Y-10774222D01*
X13261499Y-10774222D01*
X13261499Y-10774222D01*
X13261498Y-10774222D01*
X13244103Y-10777682D01*
X13244102Y-10777682D01*
X13244100Y-10777683D01*
X13227715Y-10784470D01*
X13227713Y-10784471D01*
X13227712Y-10784471D01*
X13221189Y-10788830D01*
X13218005Y-10790353D01*
X13216706Y-10790760D01*
X13209720Y-10790884D01*
X13203776Y-10787212D01*
X13200908Y-10781669D01*
X13200725Y-10780864D01*
X13200418Y-10778121D01*
X13200418Y-10696817D01*
X13200920Y-10693323D01*
X13201304Y-10692017D01*
X13205081Y-10686139D01*
X13211437Y-10683236D01*
X13217639Y-10683931D01*
X13218411Y-10684227D01*
X13220862Y-10685495D01*
X13227713Y-10690073D01*
X13227713Y-10690073D01*
X13227713Y-10690073D01*
X13227713Y-10690073D01*
X13227714Y-10690074D01*
X13238251Y-10694438D01*
X13244101Y-10696861D01*
X13244102Y-10696861D01*
X13244102Y-10696862D01*
X13260736Y-10700170D01*
X13261008Y-10700242D01*
X13261499Y-10700322D01*
X13359237Y-10700322D01*
X13359649Y-10700322D01*
X13360435Y-10700084D01*
X13367019Y-10698774D01*
X13376634Y-10696862D01*
X13376634Y-10696861D01*
X13376634Y-10696861D01*
X13376635Y-10696861D01*
X13376953Y-10696729D01*
X13377751Y-10696399D01*
X13377756Y-10696397D01*
X13393022Y-10690074D01*
X13393022Y-10690074D01*
X13393023Y-10690073D01*
X13407771Y-10680218D01*
X13420314Y-10667676D01*
X13430169Y-10652927D01*
X13436957Y-10636539D01*
X13436957Y-10636538D01*
X13436958Y-10636538D01*
X13437497Y-10633824D01*
X13437725Y-10632679D01*
X13440237Y-10620050D01*
X13440418Y-10619141D01*
X13440418Y-10601403D01*
X13440418Y-10601403D01*
X13440418Y-10601402D01*
X13436958Y-10584006D01*
X13436957Y-10584005D01*
X13433417Y-10575459D01*
X13430170Y-10567619D01*
X13430169Y-10567618D01*
X13430169Y-10567617D01*
X13428599Y-10565268D01*
X13427076Y-10562084D01*
X13426609Y-10560593D01*
X13426484Y-10553607D01*
X13426679Y-10552897D01*
X13429868Y-10547410D01*
X13634847Y-10342432D01*
X13634847Y-10342432D01*
X13636591Y-10340688D01*
X13636591Y-10340688D01*
X13644048Y-10333231D01*
X13649321Y-10324099D01*
X13650346Y-10320273D01*
X13652050Y-10313913D01*
X13652050Y-10303367D01*
X13652050Y-10302608D01*
X13652050Y-10302439D01*
X13652050Y-10302432D01*
X13652050Y-10000408D01*
X13652552Y-9996916D01*
X13652871Y-9995830D01*
X13656648Y-9989952D01*
X13663003Y-9987049D01*
X13669919Y-9988043D01*
G37*
%TD.AperFunction*%
%TA.AperFunction,Conductor*%
G36*
X15214919Y-9143043D02*
G01*
X15215617Y-9143362D01*
X15219234Y-9145874D01*
X15510057Y-9436697D01*
X15512172Y-9439522D01*
X15512833Y-9440733D01*
X15513243Y-9441483D01*
X15513433Y-9441831D01*
X15514950Y-9447774D01*
X15514950Y-9487509D01*
X15514950Y-9498055D01*
X15515351Y-9499551D01*
X15517679Y-9508241D01*
X15518412Y-9509510D01*
X15519043Y-9510604D01*
X15519044Y-9510604D01*
X15522951Y-9517372D01*
X15522952Y-9517373D01*
X15759567Y-9753988D01*
X15761682Y-9756813D01*
X15761772Y-9756979D01*
X15762347Y-9758031D01*
X15763832Y-9764859D01*
X15761391Y-9771405D01*
X15761390Y-9771406D01*
X15760730Y-9772287D01*
X15757693Y-9775166D01*
X15756326Y-9776079D01*
X15752965Y-9778325D01*
X15752964Y-9778326D01*
X15752964Y-9778326D01*
X15752963Y-9778327D01*
X15740422Y-9790868D01*
X15740422Y-9790868D01*
X15740422Y-9790868D01*
X15730567Y-9805616D01*
X15730566Y-9805617D01*
X15730566Y-9805619D01*
X15723779Y-9822004D01*
X15723778Y-9822007D01*
X15723778Y-9822007D01*
X15720318Y-9839402D01*
X15720318Y-9839402D01*
X15720318Y-9857142D01*
X15723778Y-9874537D01*
X15723778Y-9874537D01*
X15723779Y-9874540D01*
X15730566Y-9890925D01*
X15730685Y-9891173D01*
X15731807Y-9894896D01*
X15731914Y-9895686D01*
X15731719Y-9895713D01*
X15732187Y-9897207D01*
X15730337Y-9903945D01*
X15725138Y-9908613D01*
X15718241Y-9909729D01*
X15714837Y-9908794D01*
X15714675Y-9908724D01*
X15710859Y-9906123D01*
X15654943Y-9850207D01*
X15652827Y-9847382D01*
X15651567Y-9845073D01*
X15650050Y-9839130D01*
X15650050Y-9774722D01*
X15650552Y-9771228D01*
X15651293Y-9768704D01*
X15653738Y-9764585D01*
X15653556Y-9764446D01*
X15654050Y-9763802D01*
X15654051Y-9763802D01*
X15661298Y-9751249D01*
X15665050Y-9737248D01*
X15665050Y-9722753D01*
X15661298Y-9708752D01*
X15660819Y-9707921D01*
X15658510Y-9703923D01*
X15654051Y-9696199D01*
X15654051Y-9696198D01*
X15654049Y-9696197D01*
X15643803Y-9685951D01*
X15643801Y-9685949D01*
X15643801Y-9685949D01*
X15643170Y-9685584D01*
X15631249Y-9678702D01*
X15631249Y-9678702D01*
X15628429Y-9677946D01*
X15627351Y-9677657D01*
X15627350Y-9677657D01*
X15617989Y-9675149D01*
X15617247Y-9674950D01*
X15617247Y-9674950D01*
X15602752Y-9674950D01*
X15591571Y-9677946D01*
X15591570Y-9677946D01*
X15588751Y-9678702D01*
X15588751Y-9678702D01*
X15576199Y-9685949D01*
X15576198Y-9685949D01*
X15576197Y-9685951D01*
X15565950Y-9696197D01*
X15565949Y-9696198D01*
X15565948Y-9696199D01*
X15558702Y-9708751D01*
X15558699Y-9708758D01*
X15558675Y-9708851D01*
X15555402Y-9721065D01*
X15554950Y-9722753D01*
X15554950Y-9737248D01*
X15557977Y-9748545D01*
X15557977Y-9748545D01*
X15558702Y-9751249D01*
X15558702Y-9751249D01*
X15565948Y-9763801D01*
X15566253Y-9764237D01*
X15566212Y-9764266D01*
X15567016Y-9765449D01*
X15568433Y-9768044D01*
X15569950Y-9773987D01*
X15569950Y-9867177D01*
X15572679Y-9877363D01*
X15575315Y-9881929D01*
X15575822Y-9882806D01*
X15577952Y-9886495D01*
X15577952Y-9886496D01*
X15730324Y-10038867D01*
X15732439Y-10041693D01*
X15733188Y-10043065D01*
X15734674Y-10049892D01*
X15734621Y-10050625D01*
X15732563Y-10056629D01*
X15730567Y-10059617D01*
X15730566Y-10059618D01*
X15723779Y-10076004D01*
X15723778Y-10076007D01*
X15723778Y-10076007D01*
X15720318Y-10093402D01*
X15720318Y-10111142D01*
X15723778Y-10128537D01*
X15723778Y-10128537D01*
X15723779Y-10128540D01*
X15729944Y-10143423D01*
X15730252Y-10146288D01*
X15731144Y-10148242D01*
X15730150Y-10155158D01*
X15725574Y-10160439D01*
X15718870Y-10162407D01*
X15715377Y-10161905D01*
X15714539Y-10161659D01*
X15709264Y-10158529D01*
X15624943Y-10074207D01*
X15622828Y-10071382D01*
X15621870Y-10069629D01*
X15620385Y-10062802D01*
X15620856Y-10060194D01*
X15621293Y-10058704D01*
X15623738Y-10054585D01*
X15623556Y-10054446D01*
X15624050Y-10053802D01*
X15624051Y-10053802D01*
X15631298Y-10041249D01*
X15635050Y-10027248D01*
X15635050Y-10012753D01*
X15631298Y-9998752D01*
X15631008Y-9998249D01*
X15631008Y-9998248D01*
X15631008Y-9998248D01*
X15626037Y-9989639D01*
X15624051Y-9986199D01*
X15624051Y-9986198D01*
X15624049Y-9986197D01*
X15613803Y-9975951D01*
X15613801Y-9975949D01*
X15613801Y-9975949D01*
X15608424Y-9972845D01*
X15605581Y-9969862D01*
X15600101Y-9968394D01*
X15600101Y-9968394D01*
X15592554Y-9966372D01*
X15587247Y-9964950D01*
X15587247Y-9964950D01*
X15572752Y-9964950D01*
X15559899Y-9968394D01*
X15559899Y-9968394D01*
X15559134Y-9968599D01*
X15558751Y-9968702D01*
X15546199Y-9975949D01*
X15546198Y-9975949D01*
X15546197Y-9975951D01*
X15535950Y-9986197D01*
X15535949Y-9986198D01*
X15535948Y-9986199D01*
X15528702Y-9998751D01*
X15528699Y-9998758D01*
X15528675Y-9998851D01*
X15525620Y-10010254D01*
X15524950Y-10012753D01*
X15524950Y-10027248D01*
X15525103Y-10027820D01*
X15527826Y-10037981D01*
X15528701Y-10041248D01*
X15528702Y-10041249D01*
X15535948Y-10053801D01*
X15536253Y-10054237D01*
X15536058Y-10054372D01*
X15536709Y-10055876D01*
X15537236Y-10056244D01*
X15539884Y-10062710D01*
X15539950Y-10063987D01*
X15539950Y-10091177D01*
X15540977Y-10095009D01*
X15540977Y-10095009D01*
X15542679Y-10101363D01*
X15544383Y-10104314D01*
X15544383Y-10104314D01*
X15547951Y-10110495D01*
X15547952Y-10110496D01*
X15652105Y-10214649D01*
X15654220Y-10217474D01*
X15655395Y-10219625D01*
X15655481Y-10219783D01*
X15656665Y-10224423D01*
X15656892Y-10224394D01*
X15656998Y-10225199D01*
X15660749Y-10239200D01*
X15660750Y-10239201D01*
X15660750Y-10239201D01*
X15664114Y-10245028D01*
X15667811Y-10251432D01*
X15667997Y-10251753D01*
X15678246Y-10262003D01*
X15678315Y-10262053D01*
X15678566Y-10262187D01*
X15690455Y-10269052D01*
X15690757Y-10269239D01*
X15690799Y-10269250D01*
X15690799Y-10269250D01*
X15704800Y-10273002D01*
X15704801Y-10273002D01*
X15704811Y-10273005D01*
X15706668Y-10273397D01*
X15709557Y-10274246D01*
X15714832Y-10277375D01*
X15730324Y-10292867D01*
X15732439Y-10295693D01*
X15733188Y-10297065D01*
X15734674Y-10303892D01*
X15734621Y-10304625D01*
X15732563Y-10310629D01*
X15730567Y-10313617D01*
X15730566Y-10313618D01*
X15724137Y-10329140D01*
X15723667Y-10330145D01*
X15722343Y-10332674D01*
X15717491Y-10337701D01*
X15710691Y-10339306D01*
X15704746Y-10337414D01*
X15704047Y-10336974D01*
X15701891Y-10335252D01*
X15507058Y-10140419D01*
X15504943Y-10137593D01*
X15504193Y-10136221D01*
X15502708Y-10129394D01*
X15502772Y-10128510D01*
X15504401Y-10123195D01*
X15511298Y-10111249D01*
X15515050Y-10097248D01*
X15515050Y-10082753D01*
X15511298Y-10068752D01*
X15510995Y-10068226D01*
X15510492Y-10067355D01*
X15504051Y-10056199D01*
X15504051Y-10056198D01*
X15504049Y-10056197D01*
X15493803Y-10045951D01*
X15493801Y-10045949D01*
X15493801Y-10045949D01*
X15488887Y-10043112D01*
X15488424Y-10042844D01*
X15485581Y-10039862D01*
X15480101Y-10038394D01*
X15480101Y-10038394D01*
X15471647Y-10036129D01*
X15467247Y-10034950D01*
X15467247Y-10034950D01*
X15452752Y-10034950D01*
X15439899Y-10038394D01*
X15439899Y-10038394D01*
X15439134Y-10038599D01*
X15438751Y-10038702D01*
X15426199Y-10045949D01*
X15426198Y-10045949D01*
X15426197Y-10045951D01*
X15415950Y-10056197D01*
X15415949Y-10056198D01*
X15415948Y-10056199D01*
X15408702Y-10068751D01*
X15408378Y-10069553D01*
X15408232Y-10069494D01*
X15405190Y-10074677D01*
X15403711Y-10075664D01*
X15405108Y-10079174D01*
X15405056Y-10081947D01*
X15404950Y-10082752D01*
X15404950Y-10082753D01*
X15404950Y-10097248D01*
X15408673Y-10111141D01*
X15408692Y-10111214D01*
X15408702Y-10111249D01*
X15415948Y-10123801D01*
X15416253Y-10124237D01*
X15416212Y-10124266D01*
X15417016Y-10125449D01*
X15418433Y-10128044D01*
X15419950Y-10133987D01*
X15419950Y-10144727D01*
X15419950Y-10155273D01*
X15421804Y-10162190D01*
X15422679Y-10165459D01*
X15422848Y-10165866D01*
X15422819Y-10165877D01*
X15423590Y-10167983D01*
X15423941Y-10169431D01*
X15423609Y-10176410D01*
X15419562Y-10182097D01*
X15419435Y-10182197D01*
X15414110Y-10184631D01*
X15413618Y-10184726D01*
X15411271Y-10184950D01*
X15402752Y-10184950D01*
X15390450Y-10188246D01*
X15390450Y-10188246D01*
X15388751Y-10188702D01*
X15388751Y-10188702D01*
X15376199Y-10195949D01*
X15376198Y-10195949D01*
X15376197Y-10195951D01*
X15365950Y-10206197D01*
X15365949Y-10206198D01*
X15365948Y-10206199D01*
X15358702Y-10218751D01*
X15358699Y-10218758D01*
X15358675Y-10218851D01*
X15355083Y-10232254D01*
X15354950Y-10232753D01*
X15354950Y-10247248D01*
X15356157Y-10251754D01*
X15358701Y-10261248D01*
X15358702Y-10261249D01*
X15358702Y-10261249D01*
X15363597Y-10269727D01*
X15365948Y-10273801D01*
X15366253Y-10274237D01*
X15366212Y-10274266D01*
X15367016Y-10275449D01*
X15368433Y-10278044D01*
X15369950Y-10283987D01*
X15369950Y-10355273D01*
X15370594Y-10357675D01*
X15370594Y-10357676D01*
X15370768Y-10358327D01*
X15372679Y-10365459D01*
X15375066Y-10369593D01*
X15377952Y-10374591D01*
X15377952Y-10374592D01*
X15600851Y-10597491D01*
X15602967Y-10600316D01*
X15603662Y-10601589D01*
X15605147Y-10608417D01*
X15603384Y-10613957D01*
X15603105Y-10614418D01*
X15598699Y-10618732D01*
X15586198Y-10625949D01*
X15585554Y-10626444D01*
X15585503Y-10626377D01*
X15585430Y-10626484D01*
X15583426Y-10627670D01*
X15582442Y-10628323D01*
X15581756Y-10628601D01*
X15581540Y-10628660D01*
X15581334Y-10628773D01*
X15580678Y-10629039D01*
X15578870Y-10629221D01*
X15576013Y-10629950D01*
X15474727Y-10629950D01*
X15464541Y-10632679D01*
X15464541Y-10632680D01*
X15455409Y-10637952D01*
X15455408Y-10637952D01*
X15310029Y-10783332D01*
X15307203Y-10785447D01*
X15305831Y-10786196D01*
X15299005Y-10787681D01*
X15298824Y-10787669D01*
X15293004Y-10785732D01*
X15292353Y-10785313D01*
X15290289Y-10783650D01*
X15234591Y-10727952D01*
X15234591Y-10727952D01*
X15229565Y-10725050D01*
X15225459Y-10722679D01*
X15220304Y-10721298D01*
X15220304Y-10721298D01*
X15215273Y-10719950D01*
X15215273Y-10719950D01*
X15215273Y-10719950D01*
X15014722Y-10719950D01*
X15011228Y-10719448D01*
X15008680Y-10718699D01*
X15004264Y-10716213D01*
X15004237Y-10716253D01*
X15004033Y-10716110D01*
X15004017Y-10716129D01*
X15003815Y-10715961D01*
X15003812Y-10715959D01*
X15003801Y-10715949D01*
X15003801Y-10715949D01*
X15000836Y-10714237D01*
X14998424Y-10712844D01*
X14995581Y-10709862D01*
X14990080Y-10708389D01*
X14990080Y-10708389D01*
X14979521Y-10705559D01*
X14977247Y-10704950D01*
X14977247Y-10704950D01*
X14962752Y-10704950D01*
X14949920Y-10708388D01*
X14949920Y-10708389D01*
X14948751Y-10708702D01*
X14948751Y-10708702D01*
X14936199Y-10715949D01*
X14936198Y-10715949D01*
X14936197Y-10715951D01*
X14925950Y-10726197D01*
X14925949Y-10726198D01*
X14925948Y-10726199D01*
X14918702Y-10738751D01*
X14918699Y-10738758D01*
X14918675Y-10738851D01*
X14915805Y-10749562D01*
X14914950Y-10752753D01*
X14914950Y-10767248D01*
X14917118Y-10775339D01*
X14918702Y-10781249D01*
X14918702Y-10781249D01*
X14922834Y-10788406D01*
X14922957Y-10788619D01*
X14924269Y-10791896D01*
X14924535Y-10792995D01*
X14924203Y-10799974D01*
X14920150Y-10805665D01*
X14913664Y-10808262D01*
X14912899Y-10808335D01*
X14908512Y-10807968D01*
X14901859Y-10806186D01*
X14901859Y-10806186D01*
X14897248Y-10804950D01*
X14897247Y-10804950D01*
X14885233Y-10804950D01*
X14881739Y-10804448D01*
X14880239Y-10804007D01*
X14874364Y-10800233D01*
X14874246Y-10800096D01*
X14871498Y-10794608D01*
X14871333Y-10793852D01*
X14871050Y-10791217D01*
X14871050Y-10740069D01*
X14871050Y-10740069D01*
X14868911Y-10732088D01*
X14868339Y-10729950D01*
X14868339Y-10729950D01*
X14867980Y-10728611D01*
X14862049Y-10718339D01*
X14862049Y-10718339D01*
X14862049Y-10718338D01*
X14862048Y-10718338D01*
X14788739Y-10645029D01*
X14786624Y-10642203D01*
X14785875Y-10640831D01*
X14784389Y-10634005D01*
X14784402Y-10633824D01*
X14786339Y-10628004D01*
X14786758Y-10627353D01*
X14788420Y-10625290D01*
X14801662Y-10612048D01*
X14833960Y-10579751D01*
X14840958Y-10572753D01*
X14884950Y-10572753D01*
X14884950Y-10587248D01*
X14885632Y-10589792D01*
X14887998Y-10598624D01*
X14887998Y-10598625D01*
X14888354Y-10599950D01*
X14888702Y-10601249D01*
X14895891Y-10613701D01*
X14895938Y-10613790D01*
X14906198Y-10624051D01*
X14906267Y-10624101D01*
X14906518Y-10624235D01*
X14918407Y-10631100D01*
X14918709Y-10631287D01*
X14918751Y-10631298D01*
X14918751Y-10631298D01*
X14932752Y-10635050D01*
X14932753Y-10635050D01*
X14947247Y-10635050D01*
X14947247Y-10635050D01*
X14961248Y-10631298D01*
X14973801Y-10624051D01*
X14973801Y-10624051D01*
X14973810Y-10624046D01*
X14975401Y-10623010D01*
X14978044Y-10621567D01*
X14983987Y-10620050D01*
X15255272Y-10620050D01*
X15255273Y-10620050D01*
X15265459Y-10617321D01*
X15274591Y-10612048D01*
X15292847Y-10593792D01*
X15292847Y-10593792D01*
X15294591Y-10592048D01*
X15294591Y-10592048D01*
X15302048Y-10584591D01*
X15307321Y-10575459D01*
X15307690Y-10574080D01*
X15307690Y-10574080D01*
X15307690Y-10574079D01*
X15308046Y-10572753D01*
X15308235Y-10572048D01*
X15310050Y-10565273D01*
X15310050Y-10554727D01*
X15310050Y-10553968D01*
X15310050Y-10553799D01*
X15310050Y-10553792D01*
X15310050Y-10475779D01*
X15310552Y-10472286D01*
X15311187Y-10470125D01*
X15314038Y-10465138D01*
X15314314Y-10464843D01*
X15316010Y-10463337D01*
X15316060Y-10463301D01*
X15318500Y-10461500D01*
X15319831Y-10459696D01*
X15326385Y-10450816D01*
X15327590Y-10447371D01*
X15330771Y-10438283D01*
X15330771Y-10438282D01*
X15330771Y-10438282D01*
X15330978Y-10436074D01*
X15330978Y-10436073D01*
X15330978Y-10436073D01*
X15331050Y-10435307D01*
X15331050Y-10396693D01*
X15330771Y-10393719D01*
X15330771Y-10393718D01*
X15330771Y-10393718D01*
X15330771Y-10393717D01*
X15330728Y-10393596D01*
X15330709Y-10393442D01*
X15330511Y-10392974D01*
X15330105Y-10391816D01*
X15326421Y-10381288D01*
X15326387Y-10381187D01*
X15325552Y-10380056D01*
X15318500Y-10370500D01*
X15307816Y-10362615D01*
X15307815Y-10362615D01*
X15307577Y-10362531D01*
X15295283Y-10358229D01*
X15295282Y-10358229D01*
X15295278Y-10358229D01*
X15292307Y-10357950D01*
X15292307Y-10357950D01*
X15292307Y-10357950D01*
X15247693Y-10357950D01*
X15247693Y-10357950D01*
X15247693Y-10357950D01*
X15244721Y-10358229D01*
X15244717Y-10358229D01*
X15244717Y-10358229D01*
X15232184Y-10362615D01*
X15232184Y-10362615D01*
X15221500Y-10370500D01*
X15213615Y-10381184D01*
X15213615Y-10381185D01*
X15209229Y-10393717D01*
X15209229Y-10393718D01*
X15209228Y-10393721D01*
X15208950Y-10396692D01*
X15208950Y-10435307D01*
X15209228Y-10438279D01*
X15209229Y-10438282D01*
X15209229Y-10438283D01*
X15212042Y-10446322D01*
X15212908Y-10448795D01*
X15213615Y-10450816D01*
X15221500Y-10461500D01*
X15223954Y-10463311D01*
X15224913Y-10464019D01*
X15226677Y-10466342D01*
X15227353Y-10467232D01*
X15229672Y-10472487D01*
X15229682Y-10472541D01*
X15229745Y-10472883D01*
X15229950Y-10475127D01*
X15229950Y-10525767D01*
X15229447Y-10529261D01*
X15229007Y-10530761D01*
X15225233Y-10536636D01*
X15225096Y-10536754D01*
X15219610Y-10539502D01*
X15218854Y-10539666D01*
X15216217Y-10539950D01*
X14984722Y-10539950D01*
X14981228Y-10539448D01*
X14978680Y-10538699D01*
X14974264Y-10536213D01*
X14974237Y-10536253D01*
X14974033Y-10536110D01*
X14974017Y-10536129D01*
X14973815Y-10535961D01*
X14973812Y-10535959D01*
X14973801Y-10535949D01*
X14973801Y-10535949D01*
X14968424Y-10532845D01*
X14965581Y-10529862D01*
X14960101Y-10528394D01*
X14960101Y-10528394D01*
X14950908Y-10525931D01*
X14947247Y-10524950D01*
X14947247Y-10524950D01*
X14932752Y-10524950D01*
X14919899Y-10528394D01*
X14919899Y-10528394D01*
X14919134Y-10528599D01*
X14918751Y-10528702D01*
X14906199Y-10535949D01*
X14906198Y-10535949D01*
X14906197Y-10535951D01*
X14895950Y-10546197D01*
X14895949Y-10546198D01*
X14895948Y-10546199D01*
X14888702Y-10558751D01*
X14888699Y-10558758D01*
X14888675Y-10558851D01*
X14885139Y-10572047D01*
X14884950Y-10572753D01*
X14840958Y-10572753D01*
X14850539Y-10563172D01*
X14856593Y-10557118D01*
X14866049Y-10547661D01*
X14871980Y-10537389D01*
X14873625Y-10531249D01*
X14875050Y-10525931D01*
X14875050Y-10434069D01*
X14875050Y-10378233D01*
X14875552Y-10374739D01*
X14875596Y-10374591D01*
X14875993Y-10373239D01*
X14879767Y-10367364D01*
X14879904Y-10367246D01*
X14885392Y-10364498D01*
X14886148Y-10364333D01*
X14888783Y-10364050D01*
X14953672Y-10364050D01*
X14957166Y-10364552D01*
X14960127Y-10365422D01*
X14963997Y-10367342D01*
X14972184Y-10373385D01*
X14975631Y-10374591D01*
X14983974Y-10377511D01*
X14983974Y-10377511D01*
X14984320Y-10377657D01*
X14984369Y-10377671D01*
X14984669Y-10377766D01*
X14984718Y-10377771D01*
X14984718Y-10377771D01*
X14986204Y-10377910D01*
X14986206Y-10377911D01*
X14986206Y-10377911D01*
X14987316Y-10378015D01*
X14987691Y-10378050D01*
X14987693Y-10378050D01*
X14987693Y-10378050D01*
X15032306Y-10378050D01*
X15032307Y-10378050D01*
X15033629Y-10377926D01*
X15033629Y-10377926D01*
X15033630Y-10377926D01*
X15034707Y-10377825D01*
X15035169Y-10377803D01*
X15035281Y-10377771D01*
X15035282Y-10377771D01*
X15035282Y-10377771D01*
X15035283Y-10377771D01*
X15035284Y-10377770D01*
X15035629Y-10377672D01*
X15035629Y-10377672D01*
X15035630Y-10377672D01*
X15035679Y-10377657D01*
X15036024Y-10377511D01*
X15040571Y-10375920D01*
X15047816Y-10373385D01*
X15055747Y-10367531D01*
X15058856Y-10365861D01*
X15061755Y-10364802D01*
X15066009Y-10364050D01*
X15079435Y-10364050D01*
X15082928Y-10364552D01*
X15085089Y-10365187D01*
X15090076Y-10368038D01*
X15090370Y-10368313D01*
X15090842Y-10368844D01*
X15090843Y-10368843D01*
X15091500Y-10369500D01*
X15100917Y-10376450D01*
X15102184Y-10377385D01*
X15104084Y-10378050D01*
X15113975Y-10381511D01*
X15114321Y-10381657D01*
X15114369Y-10381671D01*
X15114669Y-10381766D01*
X15114718Y-10381771D01*
X15114718Y-10381771D01*
X15116204Y-10381910D01*
X15116206Y-10381911D01*
X15116206Y-10381911D01*
X15117693Y-10382050D01*
X15117693Y-10382050D01*
X15162306Y-10382050D01*
X15162307Y-10382050D01*
X15163629Y-10381926D01*
X15163629Y-10381926D01*
X15163630Y-10381926D01*
X15164707Y-10381825D01*
X15165168Y-10381803D01*
X15165281Y-10381771D01*
X15165282Y-10381771D01*
X15165282Y-10381771D01*
X15165283Y-10381771D01*
X15165284Y-10381770D01*
X15165629Y-10381672D01*
X15165629Y-10381672D01*
X15165678Y-10381658D01*
X15166024Y-10381511D01*
X15170184Y-10380056D01*
X15177816Y-10377385D01*
X15188500Y-10369500D01*
X15196385Y-10358816D01*
X15199056Y-10351184D01*
X15200511Y-10347024D01*
X15200657Y-10346678D01*
X15200672Y-10346629D01*
X15200766Y-10346331D01*
X15200825Y-10345706D01*
X15200825Y-10345706D01*
X15201050Y-10343307D01*
X15201050Y-10304694D01*
X15201050Y-10304693D01*
X15201043Y-10304625D01*
X15200926Y-10303367D01*
X15200854Y-10302608D01*
X15200838Y-10302436D01*
X15200825Y-10302293D01*
X15200803Y-10301831D01*
X15200771Y-10301717D01*
X15200771Y-10301717D01*
X15200770Y-10301716D01*
X15200672Y-10301371D01*
X15200672Y-10301371D01*
X15200671Y-10301370D01*
X15200657Y-10301321D01*
X15200511Y-10300974D01*
X15199805Y-10298957D01*
X15196422Y-10289291D01*
X15196387Y-10289187D01*
X15192048Y-10283308D01*
X15189318Y-10279609D01*
X15188412Y-10278189D01*
X15187790Y-10277049D01*
X15186567Y-10274808D01*
X15185050Y-10268866D01*
X15185050Y-10255579D01*
X15185552Y-10252086D01*
X15185650Y-10251754D01*
X15186293Y-10249562D01*
X15189423Y-10244287D01*
X15274960Y-10158750D01*
X15366049Y-10067661D01*
X15366049Y-10067661D01*
X15367793Y-10065918D01*
X15367793Y-10065917D01*
X15475268Y-9958442D01*
X15478093Y-9956328D01*
X15480402Y-9955067D01*
X15486345Y-9953550D01*
X15488810Y-9953550D01*
X15488810Y-9953550D01*
X15497656Y-9952488D01*
X15511734Y-9946936D01*
X15523792Y-9937792D01*
X15532936Y-9925734D01*
X15538488Y-9911656D01*
X15539550Y-9902810D01*
X15539550Y-9802690D01*
X15538488Y-9793844D01*
X15532936Y-9779766D01*
X15532936Y-9779766D01*
X15532936Y-9779766D01*
X15532563Y-9779274D01*
X15532532Y-9779214D01*
X15532424Y-9779090D01*
X15523792Y-9767708D01*
X15511734Y-9758564D01*
X15511734Y-9758564D01*
X15500130Y-9753988D01*
X15497656Y-9753012D01*
X15493715Y-9752539D01*
X15493093Y-9752464D01*
X15493092Y-9752464D01*
X15490322Y-9752132D01*
X15488810Y-9751950D01*
X15488810Y-9751950D01*
X15391190Y-9751950D01*
X15391190Y-9751950D01*
X15390156Y-9752074D01*
X15387285Y-9752419D01*
X15387285Y-9752419D01*
X15386692Y-9752490D01*
X15382344Y-9753012D01*
X15368265Y-9758564D01*
X15356208Y-9767708D01*
X15347064Y-9779765D01*
X15347064Y-9779766D01*
X15341512Y-9793844D01*
X15340920Y-9798774D01*
X15340450Y-9802690D01*
X15340450Y-9902810D01*
X15340794Y-9905675D01*
X15340794Y-9905676D01*
X15341512Y-9911656D01*
X15341512Y-9911656D01*
X15341512Y-9911656D01*
X15347064Y-9925734D01*
X15353898Y-9934746D01*
X15355608Y-9937833D01*
X15356163Y-9939294D01*
X15356705Y-9946260D01*
X15356705Y-9946262D01*
X15356576Y-9946872D01*
X15353265Y-9953024D01*
X15353212Y-9953078D01*
X15340029Y-9966261D01*
X15337203Y-9968376D01*
X15335831Y-9969125D01*
X15329005Y-9970610D01*
X15328824Y-9970597D01*
X15323004Y-9968661D01*
X15322353Y-9968242D01*
X15320289Y-9966579D01*
X15317662Y-9963951D01*
X15317661Y-9963951D01*
X15313492Y-9961544D01*
X15307388Y-9958020D01*
X15304309Y-9957195D01*
X15304309Y-9957195D01*
X15304309Y-9957195D01*
X15300120Y-9956072D01*
X15300120Y-9956072D01*
X15295931Y-9954950D01*
X15295931Y-9954950D01*
X15295931Y-9954950D01*
X15015580Y-9954950D01*
X15012086Y-9954448D01*
X15009562Y-9953707D01*
X15004287Y-9950577D01*
X14745428Y-9691718D01*
X14742080Y-9685586D01*
X14742578Y-9678617D01*
X14746765Y-9673023D01*
X14753312Y-9670582D01*
X14754196Y-9670550D01*
X15103602Y-9670550D01*
X15107552Y-9671196D01*
X15107962Y-9671334D01*
X15108559Y-9671552D01*
X15122344Y-9676988D01*
X15131190Y-9678050D01*
X15131190Y-9678050D01*
X15228810Y-9678050D01*
X15228810Y-9678050D01*
X15237656Y-9676988D01*
X15251734Y-9671436D01*
X15251734Y-9671436D01*
X15251789Y-9671415D01*
X15256338Y-9670550D01*
X15300099Y-9670550D01*
X15300100Y-9670550D01*
X15304879Y-9670174D01*
X15307938Y-9669689D01*
X15310975Y-9669049D01*
X15321116Y-9664231D01*
X15326066Y-9660635D01*
X15331792Y-9655218D01*
X15337164Y-9645359D01*
X15337389Y-9644669D01*
X15339055Y-9639541D01*
X15339055Y-9639541D01*
X15339055Y-9639540D01*
X15340550Y-9630100D01*
X15340550Y-9489900D01*
X15340174Y-9485121D01*
X15339689Y-9482062D01*
X15339049Y-9479025D01*
X15334231Y-9468884D01*
X15334231Y-9468883D01*
X15334230Y-9468883D01*
X15330635Y-9463934D01*
X15330635Y-9463934D01*
X15330634Y-9463934D01*
X15325218Y-9458208D01*
X15325217Y-9458208D01*
X15315360Y-9452836D01*
X15315359Y-9452836D01*
X15309540Y-9450945D01*
X15309541Y-9450945D01*
X15302460Y-9449824D01*
X15300100Y-9449450D01*
X15300100Y-9449450D01*
X15249627Y-9449450D01*
X15242923Y-9447482D01*
X15238348Y-9442201D01*
X15237353Y-9435285D01*
X15240256Y-9428930D01*
X15246134Y-9425152D01*
X15248249Y-9424727D01*
X15250575Y-9424467D01*
X15252752Y-9425050D01*
X15252753Y-9425050D01*
X15267247Y-9425050D01*
X15267247Y-9425050D01*
X15281248Y-9421298D01*
X15293801Y-9414051D01*
X15304051Y-9403802D01*
X15311298Y-9391249D01*
X15315050Y-9377248D01*
X15315050Y-9362753D01*
X15311298Y-9348752D01*
X15311298Y-9348751D01*
X15311298Y-9348751D01*
X15310660Y-9347646D01*
X15310660Y-9347646D01*
X15304051Y-9336199D01*
X15304051Y-9336198D01*
X15304049Y-9336197D01*
X15293803Y-9325951D01*
X15293801Y-9325949D01*
X15293801Y-9325949D01*
X15288424Y-9322845D01*
X15285581Y-9319862D01*
X15280101Y-9318394D01*
X15280101Y-9318394D01*
X15274810Y-9316977D01*
X15267247Y-9314950D01*
X15267247Y-9314950D01*
X15267238Y-9314948D01*
X15265379Y-9314555D01*
X15262491Y-9313707D01*
X15257216Y-9310577D01*
X15201943Y-9255303D01*
X15199827Y-9252478D01*
X15198567Y-9250169D01*
X15197050Y-9244226D01*
X15197050Y-9155408D01*
X15197552Y-9151916D01*
X15197871Y-9150830D01*
X15201648Y-9144952D01*
X15208003Y-9142049D01*
X15214919Y-9143043D01*
G37*
%TD.AperFunction*%
%TA.AperFunction,Conductor*%
G36*
X14287181Y-10357459D02*
G01*
X14287805Y-10357550D01*
X14362195Y-10357550D01*
X14362195Y-10357550D01*
X14362391Y-10357521D01*
X14362953Y-10357491D01*
X14363416Y-10357601D01*
X14365360Y-10357596D01*
X14366735Y-10357791D01*
X14369451Y-10359025D01*
X14369753Y-10359096D01*
X14369866Y-10359214D01*
X14373096Y-10360681D01*
X14376884Y-10366552D01*
X14377102Y-10367287D01*
X14377465Y-10372356D01*
X14377482Y-10372357D01*
X14377473Y-10372480D01*
X14377481Y-10372590D01*
X14377450Y-10372805D01*
X14377450Y-10447195D01*
X14378478Y-10454251D01*
X14378478Y-10454251D01*
X14378478Y-10454251D01*
X14379000Y-10455319D01*
X14379000Y-10455319D01*
X14381338Y-10460102D01*
X14382480Y-10462438D01*
X14382480Y-10462438D01*
X14382480Y-10462438D01*
X14383799Y-10465135D01*
X14383799Y-10465135D01*
X14392365Y-10473701D01*
X14403207Y-10479002D01*
X14403207Y-10479002D01*
X14403249Y-10479022D01*
X14403321Y-10479057D01*
X14403625Y-10479114D01*
X14404137Y-10479151D01*
X14410305Y-10480050D01*
X14429695Y-10480050D01*
X14429695Y-10480050D01*
X14432517Y-10479639D01*
X14436751Y-10479022D01*
X14437952Y-10478435D01*
X14441311Y-10477352D01*
X14441943Y-10477244D01*
X14443613Y-10476959D01*
X14449193Y-10477284D01*
X14449437Y-10477355D01*
X14451390Y-10478113D01*
X14453249Y-10479022D01*
X14460305Y-10480050D01*
X14479695Y-10480050D01*
X14479695Y-10480050D01*
X14482517Y-10479639D01*
X14486751Y-10479022D01*
X14497635Y-10473701D01*
X14506201Y-10465135D01*
X14506201Y-10465135D01*
X14508297Y-10460847D01*
X14508553Y-10460416D01*
X14508891Y-10460102D01*
X14510062Y-10458380D01*
X14510975Y-10457381D01*
X14513377Y-10455925D01*
X14513667Y-10455655D01*
X14513888Y-10455616D01*
X14516950Y-10453759D01*
X14523935Y-10453943D01*
X14529223Y-10457314D01*
X14529572Y-10457690D01*
X14531618Y-10460674D01*
X14533799Y-10465135D01*
X14533799Y-10465135D01*
X14533799Y-10465135D01*
X14534396Y-10465971D01*
X14534344Y-10466008D01*
X14535649Y-10468304D01*
X14535907Y-10468698D01*
X14536223Y-10469500D01*
X14536248Y-10469603D01*
X14536304Y-10469707D01*
X14536588Y-10470427D01*
X14536749Y-10472226D01*
X14537450Y-10474970D01*
X14537450Y-10648992D01*
X14536948Y-10652485D01*
X14536206Y-10655009D01*
X14533077Y-10660284D01*
X14468303Y-10725057D01*
X14465478Y-10727172D01*
X14463169Y-10728433D01*
X14457226Y-10729950D01*
X14454573Y-10729950D01*
X14452707Y-10730125D01*
X14452107Y-10730181D01*
X14451750Y-10730198D01*
X14451530Y-10730235D01*
X14438712Y-10734721D01*
X14437625Y-10735523D01*
X14429153Y-10741775D01*
X14428280Y-10742420D01*
X14427785Y-10742785D01*
X14427785Y-10742785D01*
X14425495Y-10745888D01*
X14423016Y-10748401D01*
X14422294Y-10748949D01*
X14422051Y-10749134D01*
X14415521Y-10751620D01*
X14408684Y-10750181D01*
X14403835Y-10745494D01*
X14403504Y-10744926D01*
X14403313Y-10744598D01*
X14402054Y-10741571D01*
X14401298Y-10738752D01*
X14398721Y-10734287D01*
X14394051Y-10726199D01*
X14394051Y-10726198D01*
X14394049Y-10726197D01*
X14383803Y-10715951D01*
X14383801Y-10715949D01*
X14383801Y-10715949D01*
X14380836Y-10714237D01*
X14378424Y-10712844D01*
X14375581Y-10709862D01*
X14370080Y-10708389D01*
X14370080Y-10708389D01*
X14359521Y-10705559D01*
X14357247Y-10704950D01*
X14357247Y-10704950D01*
X14342752Y-10704950D01*
X14329920Y-10708388D01*
X14329920Y-10708389D01*
X14328751Y-10708702D01*
X14328751Y-10708702D01*
X14316199Y-10715949D01*
X14315763Y-10716253D01*
X14315734Y-10716212D01*
X14314551Y-10717016D01*
X14311956Y-10718433D01*
X14306013Y-10719950D01*
X14210935Y-10719950D01*
X14207440Y-10719448D01*
X14206714Y-10719234D01*
X14200836Y-10715456D01*
X14197934Y-10709101D01*
X14198929Y-10702185D01*
X14203240Y-10697080D01*
X14203714Y-10696758D01*
X14206586Y-10695310D01*
X14207377Y-10695034D01*
X14209079Y-10694438D01*
X14219642Y-10686642D01*
X14227438Y-10676079D01*
X14230381Y-10667670D01*
X14231774Y-10663688D01*
X14231774Y-10663688D01*
X14232050Y-10660746D01*
X14232050Y-10623254D01*
X14231774Y-10620312D01*
X14231682Y-10620050D01*
X14231364Y-10619141D01*
X14231364Y-10619141D01*
X14228322Y-10610447D01*
X14227612Y-10608417D01*
X14227438Y-10607921D01*
X14221443Y-10599798D01*
X14219773Y-10596689D01*
X14219637Y-10596318D01*
X14219236Y-10595220D01*
X14218785Y-10588249D01*
X14219003Y-10587278D01*
X14221124Y-10582634D01*
X14223252Y-10579751D01*
X14227438Y-10574079D01*
X14231255Y-10563172D01*
X14231774Y-10561688D01*
X14231774Y-10561688D01*
X14232050Y-10558746D01*
X14232050Y-10521254D01*
X14231774Y-10518312D01*
X14227438Y-10505921D01*
X14222767Y-10499592D01*
X14219642Y-10495358D01*
X14210691Y-10488752D01*
X14209079Y-10487562D01*
X14209079Y-10487562D01*
X14208310Y-10487293D01*
X14205179Y-10485665D01*
X14204260Y-10485006D01*
X14199960Y-10479499D01*
X14199319Y-10472541D01*
X14202542Y-10466342D01*
X14202828Y-10466045D01*
X14207677Y-10462929D01*
X14209079Y-10462438D01*
X14219642Y-10454642D01*
X14227438Y-10444079D01*
X14230941Y-10434069D01*
X14231774Y-10431688D01*
X14231774Y-10431688D01*
X14231864Y-10430724D01*
X14232050Y-10428746D01*
X14232050Y-10411508D01*
X14232552Y-10408015D01*
X14233293Y-10405491D01*
X14236423Y-10400216D01*
X14274538Y-10362101D01*
X14275086Y-10361691D01*
X14275071Y-10361674D01*
X14275318Y-10361445D01*
X14276207Y-10360852D01*
X14277367Y-10359984D01*
X14277575Y-10359871D01*
X14277603Y-10359922D01*
X14278630Y-10359238D01*
X14279247Y-10358957D01*
X14279450Y-10358847D01*
X14286277Y-10357361D01*
X14287181Y-10357459D01*
G37*
%TD.AperFunction*%
%TA.AperFunction,Conductor*%
G36*
X13566713Y-9720626D02*
G01*
X13570900Y-9726219D01*
X13570900Y-9726219D01*
X13571168Y-9726938D01*
X13571950Y-9731271D01*
X13571950Y-10285132D01*
X13571448Y-10288625D01*
X13570706Y-10291149D01*
X13567577Y-10296424D01*
X13348671Y-10515329D01*
X13345846Y-10517444D01*
X13343537Y-10518705D01*
X13337594Y-10520222D01*
X13261498Y-10520222D01*
X13244103Y-10523682D01*
X13244102Y-10523682D01*
X13244100Y-10523683D01*
X13227715Y-10530470D01*
X13227713Y-10530471D01*
X13227712Y-10530471D01*
X13221189Y-10534830D01*
X13218005Y-10536353D01*
X13216706Y-10536760D01*
X13209720Y-10536884D01*
X13203776Y-10533212D01*
X13200908Y-10527669D01*
X13200725Y-10526864D01*
X13200418Y-10524121D01*
X13200418Y-10188817D01*
X13200920Y-10185323D01*
X13201304Y-10184017D01*
X13205081Y-10178139D01*
X13211437Y-10175236D01*
X13217639Y-10175931D01*
X13218411Y-10176227D01*
X13220862Y-10177495D01*
X13227713Y-10182073D01*
X13227713Y-10182073D01*
X13227714Y-10182074D01*
X13233703Y-10184554D01*
X13244101Y-10188861D01*
X13244101Y-10188861D01*
X13244102Y-10188861D01*
X13244102Y-10188862D01*
X13260736Y-10192170D01*
X13261008Y-10192242D01*
X13261499Y-10192322D01*
X13359237Y-10192322D01*
X13359649Y-10192322D01*
X13360435Y-10192084D01*
X13365036Y-10191168D01*
X13365036Y-10191168D01*
X13376633Y-10188862D01*
X13376633Y-10188862D01*
X13376634Y-10188862D01*
X13376634Y-10188861D01*
X13376635Y-10188861D01*
X13376953Y-10188729D01*
X13377751Y-10188399D01*
X13377756Y-10188397D01*
X13393022Y-10182074D01*
X13393022Y-10182074D01*
X13393023Y-10182073D01*
X13407771Y-10172218D01*
X13420314Y-10159676D01*
X13430169Y-10144927D01*
X13430682Y-10143689D01*
X13430792Y-10143423D01*
X13436957Y-10128539D01*
X13437104Y-10127802D01*
X13440396Y-10111249D01*
X13440418Y-10111141D01*
X13440418Y-10093403D01*
X13440418Y-10093403D01*
X13440418Y-10093402D01*
X13436958Y-10076006D01*
X13436957Y-10076005D01*
X13436815Y-10075662D01*
X13434119Y-10069154D01*
X13430169Y-10059618D01*
X13430169Y-10059617D01*
X13430169Y-10059617D01*
X13428389Y-10056953D01*
X13428198Y-10056626D01*
X13428098Y-10056219D01*
X13427076Y-10054085D01*
X13426609Y-10052592D01*
X13426563Y-10050012D01*
X13426521Y-10049843D01*
X13426558Y-10049735D01*
X13426484Y-10045607D01*
X13426679Y-10044897D01*
X13429868Y-10039411D01*
X13502048Y-9967231D01*
X13505041Y-9962048D01*
X13507321Y-9958099D01*
X13510050Y-9947913D01*
X13510050Y-9768717D01*
X13510552Y-9765224D01*
X13511293Y-9762699D01*
X13514423Y-9757425D01*
X13549521Y-9722326D01*
X13552346Y-9720212D01*
X13553339Y-9719670D01*
X13560166Y-9718184D01*
X13566713Y-9720626D01*
G37*
%TD.AperFunction*%
%TA.AperFunction,Conductor*%
G36*
X14699193Y-9987284D02*
G01*
X14699437Y-9987355D01*
X14701390Y-9988113D01*
X14703249Y-9989022D01*
X14710305Y-9990050D01*
X14729695Y-9990050D01*
X14729695Y-9990050D01*
X14729889Y-9990022D01*
X14730454Y-9989991D01*
X14730917Y-9990101D01*
X14732860Y-9990096D01*
X14734235Y-9990291D01*
X14736952Y-9991526D01*
X14737254Y-9991597D01*
X14737367Y-9991714D01*
X14740596Y-9993181D01*
X14744384Y-9999052D01*
X14744385Y-9999052D01*
X14744598Y-9999775D01*
X14744820Y-10004677D01*
X14745010Y-10004696D01*
X14744950Y-10005305D01*
X14744950Y-10024695D01*
X14745699Y-10029840D01*
X14745699Y-10029840D01*
X14745978Y-10031751D01*
X14745978Y-10031751D01*
X14746957Y-10033755D01*
X14747231Y-10034605D01*
X14747242Y-10035051D01*
X14747648Y-10036312D01*
X14748041Y-10038614D01*
X14747715Y-10044195D01*
X14747644Y-10044439D01*
X14746887Y-10046390D01*
X14745978Y-10048249D01*
X14745978Y-10048249D01*
X14745978Y-10048249D01*
X14745471Y-10051731D01*
X14744950Y-10055305D01*
X14744950Y-10055305D01*
X14744950Y-10055306D01*
X14744950Y-10074695D01*
X14745699Y-10079840D01*
X14745699Y-10079840D01*
X14745978Y-10081751D01*
X14745978Y-10081751D01*
X14746957Y-10083755D01*
X14747231Y-10084605D01*
X14747242Y-10085051D01*
X14747648Y-10086312D01*
X14748041Y-10088614D01*
X14747715Y-10094197D01*
X14747644Y-10094440D01*
X14746887Y-10096388D01*
X14746468Y-10097246D01*
X14746468Y-10097247D01*
X14745978Y-10098249D01*
X14745978Y-10098249D01*
X14745978Y-10098249D01*
X14744950Y-10105305D01*
X14744950Y-10105306D01*
X14744950Y-10105306D01*
X14744950Y-10124695D01*
X14745699Y-10129840D01*
X14745699Y-10129840D01*
X14745978Y-10131751D01*
X14745978Y-10131751D01*
X14746957Y-10133755D01*
X14747231Y-10134605D01*
X14747242Y-10135051D01*
X14747648Y-10136312D01*
X14748041Y-10138614D01*
X14747715Y-10144197D01*
X14747643Y-10144441D01*
X14746887Y-10146390D01*
X14745978Y-10148249D01*
X14745978Y-10148249D01*
X14745978Y-10148249D01*
X14744950Y-10155305D01*
X14744950Y-10155305D01*
X14744950Y-10155306D01*
X14744950Y-10174695D01*
X14745699Y-10179840D01*
X14745699Y-10179840D01*
X14745978Y-10181751D01*
X14745978Y-10181751D01*
X14746957Y-10183755D01*
X14747231Y-10184605D01*
X14747242Y-10185051D01*
X14747648Y-10186312D01*
X14748041Y-10188614D01*
X14747715Y-10194195D01*
X14747644Y-10194439D01*
X14746887Y-10196390D01*
X14745978Y-10198249D01*
X14745978Y-10198249D01*
X14745978Y-10198249D01*
X14745439Y-10201950D01*
X14744950Y-10205305D01*
X14744950Y-10205305D01*
X14744950Y-10205306D01*
X14744950Y-10224695D01*
X14745699Y-10229840D01*
X14745699Y-10229840D01*
X14745978Y-10231751D01*
X14745978Y-10231751D01*
X14746957Y-10233755D01*
X14747231Y-10234605D01*
X14747242Y-10235051D01*
X14747648Y-10236312D01*
X14748041Y-10238614D01*
X14747715Y-10244197D01*
X14747644Y-10244440D01*
X14746887Y-10246388D01*
X14746468Y-10247246D01*
X14746468Y-10247247D01*
X14745978Y-10248249D01*
X14745978Y-10248249D01*
X14745978Y-10248249D01*
X14744950Y-10255305D01*
X14744950Y-10255305D01*
X14744950Y-10255306D01*
X14744950Y-10274695D01*
X14745699Y-10279840D01*
X14745699Y-10279840D01*
X14745978Y-10281751D01*
X14745978Y-10281751D01*
X14746957Y-10283755D01*
X14747231Y-10284605D01*
X14747242Y-10285051D01*
X14747648Y-10286312D01*
X14748041Y-10288614D01*
X14747715Y-10294195D01*
X14747644Y-10294439D01*
X14746887Y-10296390D01*
X14745978Y-10298249D01*
X14745978Y-10298249D01*
X14745978Y-10298249D01*
X14745473Y-10301718D01*
X14744950Y-10305305D01*
X14744950Y-10305305D01*
X14744950Y-10305306D01*
X14744950Y-10324696D01*
X14744982Y-10325143D01*
X14744899Y-10325149D01*
X14744904Y-10327862D01*
X14744709Y-10329235D01*
X14741818Y-10335596D01*
X14735947Y-10339385D01*
X14735947Y-10339385D01*
X14735212Y-10339602D01*
X14730144Y-10339965D01*
X14730143Y-10339982D01*
X14730019Y-10339973D01*
X14729910Y-10339981D01*
X14729695Y-10339950D01*
X14729695Y-10339950D01*
X14729694Y-10339950D01*
X14710305Y-10339950D01*
X14710305Y-10339950D01*
X14705160Y-10340700D01*
X14705160Y-10340700D01*
X14703249Y-10340978D01*
X14703249Y-10340978D01*
X14701246Y-10341957D01*
X14700395Y-10342231D01*
X14699949Y-10342242D01*
X14698689Y-10342648D01*
X14696386Y-10343041D01*
X14690806Y-10342716D01*
X14690562Y-10342644D01*
X14688610Y-10341887D01*
X14686800Y-10341002D01*
X14686752Y-10340978D01*
X14686750Y-10340978D01*
X14686740Y-10340976D01*
X14682054Y-10340294D01*
X14679695Y-10339950D01*
X14679695Y-10339950D01*
X14660305Y-10339950D01*
X14655160Y-10340700D01*
X14655160Y-10340700D01*
X14653249Y-10340978D01*
X14653249Y-10340978D01*
X14651246Y-10341957D01*
X14650395Y-10342231D01*
X14649949Y-10342242D01*
X14648689Y-10342648D01*
X14646386Y-10343041D01*
X14640806Y-10342716D01*
X14640562Y-10342644D01*
X14638610Y-10341887D01*
X14636800Y-10341002D01*
X14636752Y-10340978D01*
X14636750Y-10340978D01*
X14636740Y-10340976D01*
X14632054Y-10340294D01*
X14629695Y-10339950D01*
X14629695Y-10339950D01*
X14610305Y-10339950D01*
X14605160Y-10340700D01*
X14605160Y-10340700D01*
X14603249Y-10340978D01*
X14603249Y-10340978D01*
X14601246Y-10341957D01*
X14600395Y-10342231D01*
X14599949Y-10342242D01*
X14598689Y-10342648D01*
X14596386Y-10343041D01*
X14590806Y-10342716D01*
X14590562Y-10342644D01*
X14588610Y-10341887D01*
X14586800Y-10341002D01*
X14586752Y-10340978D01*
X14586750Y-10340978D01*
X14586740Y-10340976D01*
X14582054Y-10340294D01*
X14579695Y-10339950D01*
X14579695Y-10339950D01*
X14560305Y-10339950D01*
X14560305Y-10339950D01*
X14553260Y-10340976D01*
X14553249Y-10340978D01*
X14542365Y-10346299D01*
X14533799Y-10354865D01*
X14533799Y-10354865D01*
X14531923Y-10358702D01*
X14529937Y-10361620D01*
X14529104Y-10362531D01*
X14523129Y-10366153D01*
X14516145Y-10365969D01*
X14510579Y-10362288D01*
X14509918Y-10361526D01*
X14508150Y-10358852D01*
X14506369Y-10355209D01*
X14506225Y-10354889D01*
X14506201Y-10354865D01*
X14497635Y-10346299D01*
X14497600Y-10346282D01*
X14486751Y-10340978D01*
X14486751Y-10340978D01*
X14484761Y-10340688D01*
X14484761Y-10340688D01*
X14482734Y-10340393D01*
X14479695Y-10339950D01*
X14479695Y-10339950D01*
X14460305Y-10339950D01*
X14455160Y-10340700D01*
X14455160Y-10340700D01*
X14453249Y-10340978D01*
X14453249Y-10340978D01*
X14451246Y-10341957D01*
X14450395Y-10342231D01*
X14449949Y-10342242D01*
X14448689Y-10342648D01*
X14446386Y-10343041D01*
X14440806Y-10342716D01*
X14440562Y-10342644D01*
X14438610Y-10341887D01*
X14436800Y-10341002D01*
X14436752Y-10340978D01*
X14436750Y-10340978D01*
X14436740Y-10340976D01*
X14432054Y-10340294D01*
X14429695Y-10339950D01*
X14429695Y-10339950D01*
X14410304Y-10339950D01*
X14409857Y-10339982D01*
X14409851Y-10339900D01*
X14407138Y-10339904D01*
X14405764Y-10339709D01*
X14399403Y-10336818D01*
X14395615Y-10330948D01*
X14395604Y-10330910D01*
X14395398Y-10330213D01*
X14395036Y-10325144D01*
X14395018Y-10325142D01*
X14395027Y-10325017D01*
X14395019Y-10324908D01*
X14395050Y-10324695D01*
X14395050Y-10305305D01*
X14394767Y-10303367D01*
X14394315Y-10300261D01*
X14394022Y-10298249D01*
X14392970Y-10296098D01*
X14392674Y-10295084D01*
X14392674Y-10294689D01*
X14392352Y-10293689D01*
X14391958Y-10291387D01*
X14392284Y-10285804D01*
X14392356Y-10285561D01*
X14393113Y-10283609D01*
X14393514Y-10282789D01*
X14394022Y-10281751D01*
X14395050Y-10274695D01*
X14395050Y-10255305D01*
X14394532Y-10251753D01*
X14394022Y-10248249D01*
X14394022Y-10248249D01*
X14393042Y-10246245D01*
X14392769Y-10245395D01*
X14392758Y-10244949D01*
X14392352Y-10243689D01*
X14391958Y-10241387D01*
X14392284Y-10235804D01*
X14392356Y-10235561D01*
X14393113Y-10233609D01*
X14393776Y-10232254D01*
X14394022Y-10231751D01*
X14395050Y-10224695D01*
X14395050Y-10205305D01*
X14394707Y-10202952D01*
X14394667Y-10202679D01*
X14394270Y-10199950D01*
X14394093Y-10198737D01*
X14394022Y-10198249D01*
X14393075Y-10196312D01*
X14392815Y-10195535D01*
X14392798Y-10195073D01*
X14392352Y-10193689D01*
X14391958Y-10191387D01*
X14392284Y-10185804D01*
X14392356Y-10185561D01*
X14393113Y-10183609D01*
X14394022Y-10181751D01*
X14395050Y-10174695D01*
X14395050Y-10155305D01*
X14394678Y-10152753D01*
X14394022Y-10148249D01*
X14394022Y-10148249D01*
X14393042Y-10146245D01*
X14392769Y-10145395D01*
X14392758Y-10144949D01*
X14392352Y-10143689D01*
X14391958Y-10141387D01*
X14392284Y-10135804D01*
X14392356Y-10135561D01*
X14393113Y-10133609D01*
X14393355Y-10133115D01*
X14394022Y-10131751D01*
X14395050Y-10124695D01*
X14395050Y-10105305D01*
X14394022Y-10098249D01*
X14393918Y-10098036D01*
X14393435Y-10097048D01*
X14392352Y-10093689D01*
X14391958Y-10091387D01*
X14392284Y-10085804D01*
X14392356Y-10085561D01*
X14393113Y-10083609D01*
X14393532Y-10082753D01*
X14394022Y-10081751D01*
X14395050Y-10074695D01*
X14395050Y-10055305D01*
X14394831Y-10053802D01*
X14394529Y-10051731D01*
X14394151Y-10049138D01*
X14394117Y-10048659D01*
X14394022Y-10048249D01*
X14393435Y-10047048D01*
X14392352Y-10043689D01*
X14391958Y-10041387D01*
X14392284Y-10035804D01*
X14392356Y-10035561D01*
X14393113Y-10033609D01*
X14393487Y-10032845D01*
X14394022Y-10031751D01*
X14395050Y-10024695D01*
X14395050Y-10005305D01*
X14395050Y-10005305D01*
X14395050Y-10005305D01*
X14395017Y-10004857D01*
X14395102Y-10004851D01*
X14395096Y-10002139D01*
X14395291Y-10000765D01*
X14398181Y-9994404D01*
X14404051Y-9990615D01*
X14404788Y-9990398D01*
X14409856Y-9990036D01*
X14409857Y-9990018D01*
X14409982Y-9990027D01*
X14410091Y-9990019D01*
X14410305Y-9990050D01*
X14429695Y-9990050D01*
X14429695Y-9990050D01*
X14432517Y-9989639D01*
X14436751Y-9989022D01*
X14437952Y-9988435D01*
X14441311Y-9987352D01*
X14441943Y-9987244D01*
X14443613Y-9986959D01*
X14449193Y-9987284D01*
X14449437Y-9987355D01*
X14451390Y-9988113D01*
X14453249Y-9989022D01*
X14460305Y-9990050D01*
X14479695Y-9990050D01*
X14479695Y-9990050D01*
X14482517Y-9989639D01*
X14486751Y-9989022D01*
X14487952Y-9988435D01*
X14491311Y-9987352D01*
X14491943Y-9987244D01*
X14493613Y-9986959D01*
X14499193Y-9987284D01*
X14499437Y-9987355D01*
X14501390Y-9988113D01*
X14503249Y-9989022D01*
X14510305Y-9990050D01*
X14529695Y-9990050D01*
X14529695Y-9990050D01*
X14532517Y-9989639D01*
X14536751Y-9989022D01*
X14537952Y-9988435D01*
X14541311Y-9987352D01*
X14541943Y-9987244D01*
X14543613Y-9986959D01*
X14549193Y-9987284D01*
X14549437Y-9987355D01*
X14551390Y-9988113D01*
X14553249Y-9989022D01*
X14560305Y-9990050D01*
X14579695Y-9990050D01*
X14579695Y-9990050D01*
X14582517Y-9989639D01*
X14586751Y-9989022D01*
X14587952Y-9988435D01*
X14591311Y-9987352D01*
X14591943Y-9987244D01*
X14593613Y-9986959D01*
X14599193Y-9987284D01*
X14599437Y-9987355D01*
X14601390Y-9988113D01*
X14603249Y-9989022D01*
X14610305Y-9990050D01*
X14629695Y-9990050D01*
X14629695Y-9990050D01*
X14632517Y-9989639D01*
X14636751Y-9989022D01*
X14637952Y-9988435D01*
X14641311Y-9987352D01*
X14641943Y-9987244D01*
X14643613Y-9986959D01*
X14649193Y-9987284D01*
X14649437Y-9987355D01*
X14651390Y-9988113D01*
X14653249Y-9989022D01*
X14660305Y-9990050D01*
X14679695Y-9990050D01*
X14679695Y-9990050D01*
X14682517Y-9989639D01*
X14686751Y-9989022D01*
X14687952Y-9988435D01*
X14691311Y-9987352D01*
X14691943Y-9987244D01*
X14693613Y-9986959D01*
X14699193Y-9987284D01*
G37*
%TD.AperFunction*%
%TA.AperFunction,Conductor*%
G36*
X15949629Y-6984824D02*
G01*
X15951128Y-6985265D01*
X15957003Y-6989039D01*
X15957122Y-6989176D01*
X15959870Y-6994664D01*
X15960035Y-6995419D01*
X15960318Y-6998055D01*
X15960318Y-7221727D01*
X15959815Y-7225221D01*
X15959432Y-7226527D01*
X15955654Y-7232405D01*
X15949298Y-7235307D01*
X15943098Y-7234613D01*
X15942419Y-7234353D01*
X15942326Y-7234317D01*
X15939874Y-7233048D01*
X15933024Y-7228471D01*
X15933023Y-7228471D01*
X15933023Y-7228471D01*
X15933022Y-7228470D01*
X15916636Y-7221683D01*
X15916633Y-7221682D01*
X15916633Y-7221682D01*
X15899238Y-7218222D01*
X15899237Y-7218222D01*
X15899237Y-7218222D01*
X15823876Y-7218222D01*
X15820383Y-7217720D01*
X15817859Y-7216978D01*
X15812584Y-7213849D01*
X15798687Y-7199952D01*
X15798687Y-7199952D01*
X15796266Y-7198554D01*
X15794121Y-7197315D01*
X15794121Y-7197316D01*
X15789555Y-7194679D01*
X15784462Y-7193315D01*
X15784462Y-7193314D01*
X15779369Y-7191950D01*
X15779369Y-7191950D01*
X15779369Y-7191950D01*
X15579972Y-7191950D01*
X15576478Y-7191447D01*
X15574978Y-7191007D01*
X15569102Y-7187231D01*
X15568735Y-7186808D01*
X15566160Y-7182013D01*
X15566132Y-7181910D01*
X15565760Y-7180012D01*
X15565758Y-7180001D01*
X15565525Y-7179473D01*
X15561221Y-7169723D01*
X15553276Y-7161779D01*
X15553276Y-7161779D01*
X15549988Y-7160327D01*
X15542999Y-7157241D01*
X15542999Y-7157241D01*
X15540487Y-7156950D01*
X15540486Y-7156950D01*
X15381514Y-7156950D01*
X15381513Y-7156950D01*
X15381511Y-7156950D01*
X15379725Y-7157157D01*
X15379001Y-7157241D01*
X15379001Y-7157241D01*
X15379000Y-7157241D01*
X15378956Y-7157255D01*
X15378730Y-7157361D01*
X15368724Y-7161779D01*
X15360779Y-7169723D01*
X15356241Y-7180000D01*
X15356184Y-7180271D01*
X15356159Y-7180712D01*
X15355950Y-7182513D01*
X15355950Y-7281485D01*
X15355950Y-7281489D01*
X15356243Y-7284010D01*
X15356329Y-7284197D01*
X15358388Y-7288860D01*
X15359339Y-7292259D01*
X15359669Y-7294775D01*
X15358717Y-7301393D01*
X15356241Y-7307000D01*
X15356184Y-7307271D01*
X15356159Y-7307712D01*
X15355950Y-7309513D01*
X15355950Y-7408485D01*
X15355950Y-7408489D01*
X15356243Y-7411010D01*
X15356329Y-7411197D01*
X15358388Y-7415860D01*
X15359339Y-7419259D01*
X15359669Y-7421775D01*
X15358717Y-7428393D01*
X15356241Y-7434000D01*
X15356184Y-7434271D01*
X15356159Y-7434712D01*
X15355950Y-7436513D01*
X15355950Y-7474491D01*
X15355448Y-7477985D01*
X15354706Y-7480509D01*
X15351577Y-7485784D01*
X15217953Y-7619408D01*
X15217952Y-7619408D01*
X15217951Y-7619410D01*
X15212135Y-7629483D01*
X15212041Y-7630924D01*
X15209950Y-7638727D01*
X15209950Y-7866491D01*
X15209448Y-7869985D01*
X15208706Y-7872509D01*
X15205577Y-7877784D01*
X14523303Y-8560057D01*
X14520478Y-8562172D01*
X14518169Y-8563433D01*
X14513529Y-8564618D01*
X14513558Y-8564844D01*
X14512752Y-8564950D01*
X14499899Y-8568394D01*
X14499899Y-8568394D01*
X14499134Y-8568599D01*
X14498751Y-8568702D01*
X14486199Y-8575949D01*
X14486198Y-8575949D01*
X14486197Y-8575951D01*
X14475950Y-8586197D01*
X14475949Y-8586198D01*
X14475948Y-8586199D01*
X14468702Y-8598751D01*
X14468699Y-8598758D01*
X14468675Y-8598851D01*
X14465298Y-8611454D01*
X14464950Y-8612753D01*
X14464950Y-8627248D01*
X14467207Y-8635670D01*
X14467207Y-8635670D01*
X14468702Y-8641249D01*
X14468702Y-8641249D01*
X14475763Y-8653480D01*
X14475949Y-8653801D01*
X14486198Y-8664051D01*
X14486267Y-8664101D01*
X14486518Y-8664235D01*
X14498407Y-8671100D01*
X14498709Y-8671287D01*
X14498751Y-8671298D01*
X14498751Y-8671298D01*
X14512752Y-8675050D01*
X14513063Y-8675050D01*
X14516557Y-8675552D01*
X14518057Y-8675993D01*
X14523934Y-8679770D01*
X14524515Y-8680440D01*
X14527121Y-8685351D01*
X14528019Y-8688701D01*
X14528019Y-8688702D01*
X14528019Y-8688702D01*
X14528702Y-8691249D01*
X14535763Y-8703480D01*
X14535949Y-8703801D01*
X14546198Y-8714051D01*
X14546267Y-8714101D01*
X14546518Y-8714235D01*
X14558407Y-8721100D01*
X14558709Y-8721287D01*
X14558751Y-8721298D01*
X14558751Y-8721298D01*
X14572752Y-8725050D01*
X14572753Y-8725050D01*
X14587247Y-8725050D01*
X14587247Y-8725050D01*
X14601248Y-8721298D01*
X14613801Y-8714051D01*
X14624051Y-8703802D01*
X14624486Y-8703048D01*
X14625386Y-8701700D01*
X14626368Y-8700421D01*
X14627436Y-8699203D01*
X15312847Y-8013792D01*
X15312848Y-8013792D01*
X15314591Y-8012048D01*
X15314591Y-8012048D01*
X15322048Y-8004591D01*
X15327321Y-7995459D01*
X15330050Y-7985273D01*
X15330050Y-7974727D01*
X15330050Y-7973968D01*
X15330050Y-7973799D01*
X15330050Y-7973792D01*
X15330050Y-7712508D01*
X15331409Y-7707879D01*
X15331820Y-7705209D01*
X15336448Y-7699974D01*
X15337103Y-7699590D01*
X15337338Y-7699461D01*
X15344165Y-7697975D01*
X15350712Y-7700416D01*
X15354899Y-7706009D01*
X15355168Y-7706728D01*
X15355950Y-7711063D01*
X15355950Y-7789485D01*
X15355950Y-7789489D01*
X15356243Y-7792010D01*
X15356329Y-7792197D01*
X15358388Y-7796860D01*
X15359339Y-7800259D01*
X15359669Y-7802775D01*
X15358717Y-7809393D01*
X15356241Y-7815000D01*
X15356184Y-7815271D01*
X15356159Y-7815712D01*
X15355950Y-7817513D01*
X15355950Y-7916485D01*
X15355950Y-7916489D01*
X15356056Y-7917401D01*
X15356108Y-7917847D01*
X15356159Y-7918288D01*
X15356245Y-7919033D01*
X15356378Y-7919329D01*
X15357031Y-7920905D01*
X15357177Y-7921119D01*
X15357990Y-7922959D01*
X15358388Y-7923860D01*
X15359339Y-7927259D01*
X15359669Y-7929775D01*
X15358717Y-7936393D01*
X15356241Y-7942000D01*
X15356184Y-7942271D01*
X15356159Y-7942712D01*
X15355950Y-7944513D01*
X15355950Y-8043485D01*
X15355950Y-8043489D01*
X15356243Y-8046010D01*
X15356329Y-8046197D01*
X15358388Y-8050860D01*
X15359339Y-8054259D01*
X15359669Y-8056775D01*
X15358717Y-8063393D01*
X15356241Y-8069000D01*
X15356184Y-8069271D01*
X15356159Y-8069712D01*
X15355950Y-8071513D01*
X15355950Y-8170485D01*
X15355950Y-8170489D01*
X15356243Y-8173010D01*
X15356329Y-8173197D01*
X15358388Y-8177860D01*
X15359339Y-8181259D01*
X15359669Y-8183775D01*
X15358717Y-8190393D01*
X15356241Y-8196000D01*
X15356184Y-8196271D01*
X15356159Y-8196712D01*
X15355950Y-8198513D01*
X15355950Y-8297485D01*
X15355950Y-8297489D01*
X15356243Y-8300010D01*
X15356329Y-8300197D01*
X15358388Y-8304860D01*
X15359339Y-8308259D01*
X15359669Y-8310775D01*
X15358717Y-8317393D01*
X15356241Y-8323000D01*
X15356184Y-8323271D01*
X15356159Y-8323712D01*
X15355950Y-8325513D01*
X15355950Y-8424485D01*
X15355950Y-8424489D01*
X15356243Y-8427010D01*
X15356329Y-8427197D01*
X15358388Y-8431860D01*
X15359339Y-8435259D01*
X15359669Y-8437775D01*
X15358717Y-8444393D01*
X15356241Y-8450001D01*
X15355950Y-8452513D01*
X15355950Y-8453428D01*
X15355712Y-8454527D01*
X15355803Y-8455102D01*
X15354853Y-8458501D01*
X15354853Y-8458502D01*
X15354842Y-8458551D01*
X15354537Y-8459223D01*
X15354529Y-8459237D01*
X15354525Y-8459250D01*
X15354428Y-8459463D01*
X15353422Y-8460631D01*
X15351342Y-8463156D01*
X15351573Y-8463398D01*
X15350823Y-8464113D01*
X15348466Y-8465877D01*
X15341409Y-8469952D01*
X15341408Y-8469952D01*
X15217953Y-8593408D01*
X15217952Y-8593408D01*
X15217952Y-8593408D01*
X15212679Y-8602541D01*
X15210340Y-8611272D01*
X15210339Y-8611274D01*
X15209950Y-8612727D01*
X15209950Y-8761767D01*
X15209447Y-8765261D01*
X15209007Y-8766761D01*
X15205233Y-8772636D01*
X15205096Y-8772754D01*
X15199610Y-8775502D01*
X15198854Y-8775666D01*
X15196217Y-8775950D01*
X15107514Y-8775950D01*
X15107513Y-8775950D01*
X15107511Y-8775950D01*
X15105725Y-8776157D01*
X15105001Y-8776241D01*
X15105001Y-8776241D01*
X15105000Y-8776241D01*
X15104956Y-8776255D01*
X15104730Y-8776361D01*
X15100139Y-8778388D01*
X15096741Y-8779340D01*
X15094225Y-8779669D01*
X15087607Y-8778717D01*
X15081999Y-8776242D01*
X15081999Y-8776242D01*
X15079487Y-8775950D01*
X15079486Y-8775950D01*
X14980514Y-8775950D01*
X14980513Y-8775950D01*
X14980511Y-8775950D01*
X14978725Y-8776157D01*
X14978001Y-8776241D01*
X14978001Y-8776241D01*
X14978000Y-8776241D01*
X14977956Y-8776255D01*
X14977730Y-8776361D01*
X14973139Y-8778388D01*
X14969741Y-8779340D01*
X14967225Y-8779669D01*
X14960607Y-8778717D01*
X14954999Y-8776242D01*
X14954999Y-8776242D01*
X14952487Y-8775950D01*
X14952486Y-8775950D01*
X14853514Y-8775950D01*
X14853513Y-8775950D01*
X14853511Y-8775950D01*
X14851725Y-8776157D01*
X14851001Y-8776241D01*
X14851001Y-8776241D01*
X14851000Y-8776241D01*
X14850956Y-8776255D01*
X14850730Y-8776361D01*
X14846139Y-8778388D01*
X14842741Y-8779340D01*
X14840225Y-8779669D01*
X14833607Y-8778717D01*
X14827999Y-8776242D01*
X14827999Y-8776242D01*
X14825487Y-8775950D01*
X14825486Y-8775950D01*
X14726514Y-8775950D01*
X14726513Y-8775950D01*
X14726511Y-8775950D01*
X14724725Y-8776157D01*
X14724001Y-8776241D01*
X14724001Y-8776241D01*
X14724000Y-8776241D01*
X14723956Y-8776255D01*
X14723730Y-8776361D01*
X14719139Y-8778388D01*
X14715741Y-8779340D01*
X14713225Y-8779669D01*
X14706607Y-8778717D01*
X14700999Y-8776242D01*
X14700999Y-8776242D01*
X14698487Y-8775950D01*
X14698486Y-8775950D01*
X14599514Y-8775950D01*
X14599513Y-8775950D01*
X14599511Y-8775950D01*
X14597725Y-8776157D01*
X14597001Y-8776241D01*
X14597001Y-8776241D01*
X14597000Y-8776241D01*
X14596956Y-8776255D01*
X14596730Y-8776361D01*
X14592139Y-8778388D01*
X14588741Y-8779340D01*
X14586225Y-8779669D01*
X14579607Y-8778717D01*
X14573999Y-8776242D01*
X14573999Y-8776242D01*
X14571487Y-8775950D01*
X14571486Y-8775950D01*
X14472514Y-8775950D01*
X14472513Y-8775950D01*
X14472511Y-8775950D01*
X14470725Y-8776157D01*
X14470001Y-8776241D01*
X14470001Y-8776241D01*
X14470000Y-8776241D01*
X14469956Y-8776255D01*
X14469730Y-8776361D01*
X14465139Y-8778388D01*
X14461741Y-8779340D01*
X14459225Y-8779669D01*
X14452607Y-8778717D01*
X14446999Y-8776242D01*
X14446999Y-8776242D01*
X14444487Y-8775950D01*
X14444486Y-8775950D01*
X14345514Y-8775950D01*
X14345513Y-8775950D01*
X14345511Y-8775950D01*
X14343725Y-8776157D01*
X14343001Y-8776241D01*
X14343001Y-8776241D01*
X14343000Y-8776241D01*
X14342956Y-8776255D01*
X14342730Y-8776361D01*
X14338139Y-8778388D01*
X14334741Y-8779340D01*
X14332225Y-8779669D01*
X14325607Y-8778717D01*
X14319999Y-8776242D01*
X14319999Y-8776242D01*
X14317487Y-8775950D01*
X14317486Y-8775950D01*
X14218514Y-8775950D01*
X14218513Y-8775950D01*
X14218511Y-8775950D01*
X14216725Y-8776157D01*
X14216001Y-8776241D01*
X14216001Y-8776241D01*
X14216000Y-8776241D01*
X14215956Y-8776255D01*
X14215730Y-8776361D01*
X14211139Y-8778388D01*
X14207741Y-8779339D01*
X14205394Y-8779647D01*
X14198491Y-8778566D01*
X14195782Y-8776824D01*
X14194907Y-8776086D01*
X14191056Y-8770256D01*
X14190913Y-8763475D01*
X14191268Y-8762116D01*
X14191268Y-8762116D01*
X14192017Y-8759254D01*
X14192002Y-8759173D01*
X14192350Y-8757324D01*
X14195050Y-8747248D01*
X14195050Y-8732753D01*
X14191298Y-8718752D01*
X14188584Y-8714051D01*
X14184051Y-8706199D01*
X14184051Y-8706198D01*
X14184049Y-8706197D01*
X14173803Y-8695951D01*
X14173801Y-8695949D01*
X14173801Y-8695949D01*
X14168424Y-8692845D01*
X14165581Y-8689862D01*
X14160101Y-8688394D01*
X14160101Y-8688394D01*
X14153674Y-8686672D01*
X14147247Y-8684950D01*
X14147247Y-8684950D01*
X14132752Y-8684950D01*
X14119899Y-8688394D01*
X14119899Y-8688394D01*
X14119134Y-8688599D01*
X14118751Y-8688702D01*
X14106199Y-8695949D01*
X14106198Y-8695949D01*
X14106197Y-8695951D01*
X14095950Y-8706197D01*
X14095949Y-8706198D01*
X14095948Y-8706199D01*
X14088702Y-8718751D01*
X14088699Y-8718758D01*
X14088675Y-8718851D01*
X14084950Y-8732753D01*
X14084950Y-8747248D01*
X14087404Y-8756406D01*
X14087783Y-8757820D01*
X14087783Y-8757820D01*
X14088979Y-8762283D01*
X14089052Y-8762570D01*
X14089518Y-8764490D01*
X14089185Y-8771469D01*
X14085301Y-8777024D01*
X14084319Y-8777824D01*
X14081494Y-8779556D01*
X14078723Y-8780779D01*
X14070779Y-8788723D01*
X14066241Y-8799001D01*
X14066184Y-8799271D01*
X14066159Y-8799712D01*
X14065950Y-8801513D01*
X14065950Y-8960485D01*
X14065950Y-8960489D01*
X14066241Y-8962999D01*
X14066255Y-8963044D01*
X14066361Y-8963270D01*
X14070779Y-8973276D01*
X14070779Y-8973276D01*
X14070779Y-8973277D01*
X14078723Y-8981221D01*
X14089001Y-8985759D01*
X14091513Y-8986050D01*
X14190486Y-8986050D01*
X14190488Y-8986050D01*
X14190488Y-8986050D01*
X14190489Y-8986050D01*
X14190502Y-8986049D01*
X14190574Y-8986040D01*
X14192999Y-8985759D01*
X14192999Y-8985759D01*
X14192999Y-8985759D01*
X14192999Y-8985759D01*
X14192999Y-8985758D01*
X14193567Y-8985693D01*
X14193568Y-8985693D01*
X14194151Y-8985625D01*
X14195459Y-8984672D01*
X14197861Y-8983612D01*
X14201259Y-8982660D01*
X14203775Y-8982331D01*
X14210393Y-8983282D01*
X14215050Y-8985339D01*
X14216001Y-8985759D01*
X14218513Y-8986050D01*
X14317486Y-8986050D01*
X14317488Y-8986050D01*
X14317488Y-8986050D01*
X14317489Y-8986050D01*
X14317502Y-8986049D01*
X14317574Y-8986040D01*
X14319999Y-8985759D01*
X14319999Y-8985759D01*
X14319999Y-8985759D01*
X14319999Y-8985759D01*
X14319999Y-8985758D01*
X14320567Y-8985693D01*
X14320568Y-8985693D01*
X14321151Y-8985625D01*
X14322459Y-8984672D01*
X14324861Y-8983612D01*
X14328259Y-8982660D01*
X14330775Y-8982331D01*
X14337393Y-8983282D01*
X14342050Y-8985339D01*
X14343001Y-8985759D01*
X14345513Y-8986050D01*
X14444486Y-8986050D01*
X14444488Y-8986050D01*
X14444488Y-8986050D01*
X14444489Y-8986050D01*
X14444502Y-8986049D01*
X14444574Y-8986040D01*
X14446999Y-8985759D01*
X14446999Y-8985759D01*
X14446999Y-8985759D01*
X14446999Y-8985759D01*
X14446999Y-8985758D01*
X14447567Y-8985693D01*
X14447568Y-8985693D01*
X14448151Y-8985625D01*
X14449459Y-8984672D01*
X14451861Y-8983612D01*
X14455259Y-8982660D01*
X14457775Y-8982331D01*
X14464393Y-8983282D01*
X14469050Y-8985339D01*
X14470001Y-8985759D01*
X14472513Y-8986050D01*
X14571486Y-8986050D01*
X14571488Y-8986050D01*
X14571488Y-8986050D01*
X14571489Y-8986050D01*
X14571502Y-8986049D01*
X14571574Y-8986040D01*
X14573999Y-8985759D01*
X14573999Y-8985759D01*
X14573999Y-8985759D01*
X14573999Y-8985759D01*
X14573999Y-8985758D01*
X14574567Y-8985693D01*
X14574568Y-8985693D01*
X14575151Y-8985625D01*
X14576459Y-8984672D01*
X14578861Y-8983612D01*
X14582259Y-8982660D01*
X14584775Y-8982331D01*
X14591393Y-8983282D01*
X14596050Y-8985339D01*
X14597001Y-8985759D01*
X14599513Y-8986050D01*
X14698486Y-8986050D01*
X14698488Y-8986050D01*
X14698488Y-8986050D01*
X14698489Y-8986050D01*
X14698502Y-8986049D01*
X14698574Y-8986040D01*
X14700999Y-8985759D01*
X14700999Y-8985759D01*
X14700999Y-8985759D01*
X14700999Y-8985759D01*
X14700999Y-8985758D01*
X14701567Y-8985693D01*
X14701568Y-8985693D01*
X14702151Y-8985625D01*
X14703459Y-8984672D01*
X14705861Y-8983612D01*
X14709259Y-8982660D01*
X14711775Y-8982331D01*
X14718393Y-8983282D01*
X14723050Y-8985339D01*
X14724001Y-8985759D01*
X14726513Y-8986050D01*
X14825486Y-8986050D01*
X14825488Y-8986050D01*
X14825488Y-8986050D01*
X14825489Y-8986050D01*
X14825502Y-8986049D01*
X14825574Y-8986040D01*
X14827999Y-8985759D01*
X14827999Y-8985759D01*
X14827999Y-8985759D01*
X14827999Y-8985759D01*
X14827999Y-8985758D01*
X14828567Y-8985693D01*
X14828568Y-8985693D01*
X14829151Y-8985625D01*
X14830459Y-8984672D01*
X14832861Y-8983612D01*
X14836259Y-8982660D01*
X14838775Y-8982331D01*
X14845393Y-8983282D01*
X14850050Y-8985339D01*
X14851001Y-8985759D01*
X14853513Y-8986050D01*
X14952486Y-8986050D01*
X14952488Y-8986050D01*
X14952488Y-8986050D01*
X14952489Y-8986050D01*
X14952502Y-8986049D01*
X14952574Y-8986040D01*
X14954999Y-8985759D01*
X14954999Y-8985759D01*
X14954999Y-8985759D01*
X14954999Y-8985759D01*
X14954999Y-8985758D01*
X14955567Y-8985693D01*
X14955568Y-8985693D01*
X14956151Y-8985625D01*
X14957459Y-8984672D01*
X14959861Y-8983612D01*
X14963259Y-8982660D01*
X14965775Y-8982331D01*
X14972393Y-8983282D01*
X14978001Y-8985759D01*
X14978001Y-8985759D01*
X14978901Y-8986003D01*
X14978882Y-8986071D01*
X14979136Y-8986158D01*
X14979545Y-8986135D01*
X14982833Y-8987419D01*
X14982889Y-8987450D01*
X14982993Y-8987486D01*
X14983424Y-8987749D01*
X14983450Y-8987768D01*
X14983466Y-8987775D01*
X14983691Y-8987912D01*
X14985909Y-8990354D01*
X14987625Y-8992124D01*
X14987755Y-8992036D01*
X14987784Y-8992079D01*
X14987923Y-8992431D01*
X14988205Y-8992721D01*
X14988205Y-8992722D01*
X14988477Y-8993239D01*
X14988419Y-8993269D01*
X14988540Y-8993985D01*
X14989780Y-8997114D01*
X14989797Y-8997219D01*
X14989950Y-8999162D01*
X14989950Y-9117050D01*
X14987981Y-9123754D01*
X14982701Y-9128329D01*
X14977550Y-9129450D01*
X14663358Y-9129450D01*
X14663351Y-9129450D01*
X14662974Y-9129452D01*
X14662825Y-9129454D01*
X14662731Y-9129455D01*
X14652958Y-9131189D01*
X14647187Y-9133221D01*
X14638780Y-9137768D01*
X14638780Y-9137769D01*
X14482992Y-9256900D01*
X14476471Y-9259409D01*
X14475460Y-9259450D01*
X14149899Y-9259450D01*
X14145122Y-9259826D01*
X14145122Y-9259826D01*
X14145121Y-9259826D01*
X14145121Y-9259826D01*
X14144423Y-9259937D01*
X14142062Y-9260311D01*
X14139024Y-9260951D01*
X14139024Y-9260952D01*
X14128884Y-9265769D01*
X14128883Y-9265770D01*
X14123934Y-9269365D01*
X14118208Y-9274783D01*
X14112836Y-9284640D01*
X14112836Y-9284641D01*
X14110945Y-9290459D01*
X14109450Y-9299900D01*
X14109450Y-9510101D01*
X14109826Y-9514878D01*
X14109826Y-9514878D01*
X14110310Y-9517937D01*
X14110951Y-9520976D01*
X14110951Y-9520976D01*
X14115769Y-9531116D01*
X14115770Y-9531117D01*
X14119365Y-9536066D01*
X14119365Y-9536066D01*
X14119365Y-9536066D01*
X14124782Y-9541792D01*
X14124782Y-9541792D01*
X14134640Y-9547164D01*
X14134641Y-9547164D01*
X14137749Y-9548174D01*
X14138503Y-9548689D01*
X14139251Y-9548810D01*
X14141077Y-9550450D01*
X14143516Y-9552118D01*
X14143872Y-9552958D01*
X14144450Y-9553478D01*
X14145117Y-9555905D01*
X14146236Y-9558554D01*
X14146136Y-9559613D01*
X14146301Y-9560215D01*
X14145803Y-9563121D01*
X14145751Y-9563672D01*
X14145490Y-9564504D01*
X14145449Y-9564573D01*
X14145448Y-9564574D01*
X14141023Y-9578776D01*
X14141019Y-9578782D01*
X14140176Y-9580820D01*
X14139070Y-9582935D01*
X14134219Y-9587962D01*
X14133581Y-9588325D01*
X14127444Y-9589950D01*
X14088178Y-9589950D01*
X14084685Y-9589448D01*
X14081296Y-9588453D01*
X14079503Y-9587727D01*
X14079496Y-9587743D01*
X14079080Y-9587562D01*
X14079079Y-9587562D01*
X14079079Y-9587562D01*
X14079079Y-9587562D01*
X14066688Y-9583226D01*
X14066688Y-9583226D01*
X14065511Y-9583115D01*
X14063746Y-9582950D01*
X14063745Y-9582950D01*
X14016255Y-9582950D01*
X14016255Y-9582950D01*
X14015326Y-9583037D01*
X14013313Y-9583226D01*
X14013311Y-9583226D01*
X14000921Y-9587562D01*
X13993345Y-9593153D01*
X13993239Y-9593230D01*
X13989566Y-9595881D01*
X13989532Y-9595846D01*
X13987946Y-9597050D01*
X13987823Y-9597139D01*
X13984664Y-9598255D01*
X13981534Y-9599446D01*
X13981382Y-9599414D01*
X13981235Y-9599466D01*
X13977973Y-9598697D01*
X13974697Y-9598007D01*
X13974696Y-9598006D01*
X13974045Y-9597657D01*
X13969939Y-9594098D01*
X13969286Y-9593214D01*
X13965238Y-9590226D01*
X13965238Y-9590226D01*
X13958420Y-9585194D01*
X13952007Y-9582950D01*
X13945673Y-9580734D01*
X13945673Y-9580734D01*
X13945672Y-9580734D01*
X13945672Y-9580734D01*
X13942647Y-9580450D01*
X13942647Y-9580450D01*
X13897354Y-9580450D01*
X13894327Y-9580734D01*
X13894327Y-9580734D01*
X13894326Y-9580734D01*
X13894326Y-9580734D01*
X13881580Y-9585194D01*
X13870714Y-9593214D01*
X13862694Y-9604080D01*
X13858234Y-9616827D01*
X13858234Y-9616827D01*
X13858233Y-9616828D01*
X13857950Y-9619853D01*
X13857950Y-9619853D01*
X13857950Y-9660146D01*
X13858234Y-9663172D01*
X13858234Y-9663173D01*
X13862050Y-9674079D01*
X13862694Y-9675920D01*
X13870714Y-9686786D01*
X13881580Y-9694806D01*
X13894327Y-9699266D01*
X13897354Y-9699550D01*
X13915991Y-9699550D01*
X13919485Y-9700052D01*
X13922009Y-9700793D01*
X13927283Y-9703923D01*
X13973057Y-9749697D01*
X13975172Y-9752522D01*
X13976433Y-9754831D01*
X13977869Y-9760458D01*
X13977936Y-9760455D01*
X13977950Y-9760743D01*
X13978226Y-9763688D01*
X13978226Y-9763688D01*
X13978226Y-9763688D01*
X13978226Y-9763689D01*
X13982458Y-9775784D01*
X13982562Y-9776079D01*
X13990358Y-9786642D01*
X13995639Y-9790540D01*
X14000921Y-9794438D01*
X14005051Y-9795883D01*
X14013312Y-9798774D01*
X14014080Y-9798846D01*
X14014079Y-9798846D01*
X14014081Y-9798846D01*
X14016254Y-9799050D01*
X14063746Y-9799050D01*
X14066688Y-9798774D01*
X14079079Y-9794438D01*
X14089642Y-9786642D01*
X14097438Y-9776079D01*
X14100367Y-9767708D01*
X14101774Y-9763688D01*
X14101774Y-9763688D01*
X14101962Y-9761683D01*
X14101962Y-9761683D01*
X14101962Y-9761683D01*
X14101962Y-9761681D01*
X14102050Y-9760746D01*
X14102050Y-9723254D01*
X14101774Y-9720312D01*
X14097438Y-9707921D01*
X14091443Y-9699798D01*
X14089773Y-9696689D01*
X14089594Y-9696199D01*
X14089236Y-9695220D01*
X14088785Y-9688249D01*
X14089003Y-9687278D01*
X14091124Y-9682634D01*
X14095636Y-9676521D01*
X14098115Y-9674008D01*
X14099908Y-9672647D01*
X14105163Y-9670327D01*
X14105560Y-9670254D01*
X14107803Y-9670050D01*
X14126676Y-9670050D01*
X14130170Y-9670552D01*
X14131670Y-9670993D01*
X14137547Y-9674770D01*
X14138086Y-9675391D01*
X14140514Y-9679700D01*
X14141447Y-9682589D01*
X14141486Y-9682711D01*
X14145448Y-9695425D01*
X14145449Y-9695428D01*
X14153935Y-9709465D01*
X14153935Y-9709465D01*
X14153935Y-9709466D01*
X14165534Y-9721064D01*
X14165535Y-9721065D01*
X14165535Y-9721065D01*
X14165535Y-9721065D01*
X14179572Y-9729551D01*
X14179572Y-9729551D01*
X14179573Y-9729551D01*
X14179573Y-9729551D01*
X14195234Y-9734432D01*
X14202041Y-9735050D01*
X14202041Y-9735050D01*
X14337959Y-9735050D01*
X14337959Y-9735050D01*
X14344766Y-9734432D01*
X14360427Y-9729551D01*
X14365939Y-9726219D01*
X14374465Y-9721065D01*
X14374465Y-9721065D01*
X14374465Y-9721065D01*
X14386065Y-9709465D01*
X14392175Y-9699358D01*
X14394551Y-9695427D01*
X14394551Y-9695427D01*
X14394551Y-9695427D01*
X14394551Y-9695427D01*
X14394557Y-9695417D01*
X14394606Y-9695250D01*
X14397656Y-9685463D01*
X14399175Y-9682277D01*
X14399373Y-9681980D01*
X14400041Y-9680976D01*
X14405396Y-9676489D01*
X14405397Y-9676488D01*
X14406316Y-9676087D01*
X14411280Y-9675050D01*
X14585653Y-9675050D01*
X14588863Y-9675473D01*
X14591909Y-9676289D01*
X14594899Y-9677527D01*
X14597509Y-9679034D01*
X14597565Y-9679067D01*
X14597566Y-9679067D01*
X14597566Y-9679067D01*
X14602266Y-9681781D01*
X14602568Y-9681968D01*
X14602611Y-9681980D01*
X14602611Y-9681980D01*
X14605555Y-9682769D01*
X14608545Y-9684007D01*
X14608952Y-9684242D01*
X14611276Y-9685584D01*
X14613844Y-9687555D01*
X14688989Y-9762700D01*
X14764029Y-9837739D01*
X14767377Y-9843872D01*
X14767300Y-9844951D01*
X14773645Y-9847482D01*
X14774760Y-9848471D01*
X14885268Y-9958979D01*
X14887383Y-9961803D01*
X14887676Y-9962339D01*
X14889046Y-9968636D01*
X14893921Y-9969095D01*
X14893991Y-9969123D01*
X14898160Y-9971870D01*
X14962339Y-10036049D01*
X14972611Y-10041980D01*
X14975033Y-10042629D01*
X14976834Y-10043111D01*
X14976835Y-10043112D01*
X14980078Y-10044501D01*
X14980450Y-10044727D01*
X14980598Y-10044818D01*
X14981798Y-10046137D01*
X14982800Y-10046748D01*
X14983312Y-10047802D01*
X14985298Y-10049987D01*
X14985789Y-10052902D01*
X14985852Y-10053033D01*
X14985835Y-10053177D01*
X14986458Y-10056877D01*
X14983708Y-10063300D01*
X14977922Y-10067217D01*
X14977922Y-10067217D01*
X14977473Y-10067361D01*
X14973696Y-10067950D01*
X14960255Y-10067950D01*
X14959326Y-10068037D01*
X14957313Y-10068226D01*
X14957311Y-10068226D01*
X14944921Y-10072562D01*
X14944920Y-10072562D01*
X14934358Y-10080357D01*
X14934357Y-10080358D01*
X14929161Y-10087399D01*
X14926682Y-10089911D01*
X14924340Y-10091690D01*
X14920061Y-10093788D01*
X14919973Y-10093812D01*
X14919964Y-10093814D01*
X14915506Y-10095009D01*
X14914092Y-10095825D01*
X14906944Y-10099952D01*
X14905639Y-10101257D01*
X14902813Y-10103373D01*
X14901594Y-10104038D01*
X14894766Y-10105523D01*
X14888715Y-10103433D01*
X14888482Y-10103276D01*
X14888481Y-10103275D01*
X14888481Y-10103275D01*
X14888241Y-10103113D01*
X14884037Y-10098280D01*
X14884022Y-10098249D01*
X14884022Y-10098249D01*
X14883426Y-10097030D01*
X14882337Y-10093634D01*
X14882060Y-10091982D01*
X14881959Y-10091388D01*
X14882283Y-10085808D01*
X14882355Y-10085563D01*
X14883113Y-10083609D01*
X14884022Y-10081751D01*
X14885050Y-10074695D01*
X14885050Y-10055305D01*
X14884831Y-10053802D01*
X14884529Y-10051731D01*
X14884151Y-10049138D01*
X14884117Y-10048659D01*
X14884022Y-10048249D01*
X14883435Y-10047048D01*
X14882352Y-10043689D01*
X14881958Y-10041387D01*
X14882284Y-10035804D01*
X14882356Y-10035561D01*
X14883113Y-10033609D01*
X14883487Y-10032845D01*
X14884022Y-10031751D01*
X14885050Y-10024695D01*
X14885050Y-10005305D01*
X14884846Y-10003904D01*
X14884336Y-10000408D01*
X14884151Y-9999138D01*
X14884117Y-9998659D01*
X14884022Y-9998249D01*
X14884022Y-9998249D01*
X14878701Y-9987365D01*
X14878495Y-9986944D01*
X14877923Y-9985569D01*
X14877615Y-9984683D01*
X14877394Y-9980169D01*
X14874165Y-9980401D01*
X14874035Y-9980373D01*
X14870598Y-9979018D01*
X14870595Y-9979024D01*
X14870522Y-9978988D01*
X14870316Y-9978907D01*
X14870135Y-9978799D01*
X14870135Y-9978799D01*
X14864309Y-9975951D01*
X14859251Y-9973478D01*
X14859251Y-9973478D01*
X14857487Y-9973221D01*
X14855723Y-9972964D01*
X14852195Y-9972450D01*
X14852194Y-9972450D01*
X14777804Y-9972450D01*
X14777357Y-9972482D01*
X14777351Y-9972400D01*
X14774638Y-9972404D01*
X14773264Y-9972209D01*
X14766903Y-9969318D01*
X14763115Y-9963448D01*
X14762898Y-9962713D01*
X14762536Y-9957644D01*
X14762518Y-9957642D01*
X14762527Y-9957517D01*
X14762519Y-9957408D01*
X14762550Y-9957195D01*
X14762550Y-9882805D01*
X14762542Y-9882753D01*
X14761757Y-9877363D01*
X14761651Y-9876638D01*
X14761617Y-9876159D01*
X14761522Y-9875749D01*
X14756201Y-9864865D01*
X14755901Y-9864444D01*
X14753787Y-9858363D01*
X14749318Y-9857391D01*
X14748055Y-9856599D01*
X14747634Y-9856299D01*
X14740972Y-9853041D01*
X14736751Y-9850978D01*
X14736751Y-9850978D01*
X14736751Y-9850978D01*
X14734987Y-9850721D01*
X14733223Y-9850464D01*
X14729695Y-9849950D01*
X14729694Y-9849950D01*
X14710305Y-9849950D01*
X14705160Y-9850700D01*
X14705160Y-9850700D01*
X14703249Y-9850978D01*
X14703249Y-9850978D01*
X14701246Y-9851957D01*
X14700395Y-9852231D01*
X14699949Y-9852242D01*
X14698689Y-9852648D01*
X14696386Y-9853041D01*
X14690806Y-9852716D01*
X14690562Y-9852644D01*
X14688610Y-9851887D01*
X14686800Y-9851002D01*
X14686752Y-9850978D01*
X14686750Y-9850978D01*
X14686740Y-9850976D01*
X14682054Y-9850294D01*
X14679695Y-9849950D01*
X14679695Y-9849950D01*
X14660305Y-9849950D01*
X14655160Y-9850700D01*
X14655160Y-9850700D01*
X14653249Y-9850978D01*
X14653249Y-9850978D01*
X14651246Y-9851957D01*
X14650395Y-9852231D01*
X14649949Y-9852242D01*
X14648689Y-9852648D01*
X14646386Y-9853041D01*
X14640806Y-9852716D01*
X14640562Y-9852644D01*
X14638610Y-9851887D01*
X14636800Y-9851002D01*
X14636752Y-9850978D01*
X14636750Y-9850978D01*
X14636740Y-9850976D01*
X14632054Y-9850294D01*
X14629695Y-9849950D01*
X14629695Y-9849950D01*
X14610305Y-9849950D01*
X14605160Y-9850700D01*
X14605160Y-9850700D01*
X14603249Y-9850978D01*
X14603249Y-9850978D01*
X14601246Y-9851957D01*
X14600395Y-9852231D01*
X14599949Y-9852242D01*
X14598689Y-9852648D01*
X14596386Y-9853041D01*
X14590806Y-9852716D01*
X14590562Y-9852644D01*
X14588610Y-9851887D01*
X14586800Y-9851002D01*
X14586752Y-9850978D01*
X14586750Y-9850978D01*
X14586740Y-9850976D01*
X14582054Y-9850294D01*
X14579695Y-9849950D01*
X14579695Y-9849950D01*
X14560305Y-9849950D01*
X14555160Y-9850700D01*
X14555160Y-9850700D01*
X14553249Y-9850978D01*
X14553249Y-9850978D01*
X14551246Y-9851957D01*
X14550395Y-9852231D01*
X14549949Y-9852242D01*
X14548689Y-9852648D01*
X14546386Y-9853041D01*
X14540806Y-9852716D01*
X14540562Y-9852644D01*
X14538610Y-9851887D01*
X14536800Y-9851002D01*
X14536752Y-9850978D01*
X14536750Y-9850978D01*
X14536740Y-9850976D01*
X14532054Y-9850294D01*
X14529695Y-9849950D01*
X14529695Y-9849950D01*
X14510305Y-9849950D01*
X14505160Y-9850700D01*
X14505160Y-9850700D01*
X14503249Y-9850978D01*
X14503249Y-9850978D01*
X14501246Y-9851957D01*
X14500395Y-9852231D01*
X14499949Y-9852242D01*
X14498689Y-9852648D01*
X14496386Y-9853041D01*
X14490806Y-9852716D01*
X14490562Y-9852644D01*
X14488610Y-9851887D01*
X14486800Y-9851002D01*
X14486752Y-9850978D01*
X14486750Y-9850978D01*
X14486740Y-9850976D01*
X14482054Y-9850294D01*
X14479695Y-9849950D01*
X14479695Y-9849950D01*
X14460305Y-9849950D01*
X14455160Y-9850700D01*
X14455160Y-9850700D01*
X14453249Y-9850978D01*
X14453249Y-9850978D01*
X14451246Y-9851957D01*
X14450395Y-9852231D01*
X14449949Y-9852242D01*
X14448689Y-9852648D01*
X14446386Y-9853041D01*
X14440806Y-9852716D01*
X14440562Y-9852644D01*
X14438610Y-9851887D01*
X14436800Y-9851002D01*
X14436752Y-9850978D01*
X14436750Y-9850978D01*
X14436740Y-9850976D01*
X14432054Y-9850294D01*
X14429695Y-9849950D01*
X14429695Y-9849950D01*
X14410305Y-9849950D01*
X14410305Y-9849950D01*
X14403260Y-9850976D01*
X14403249Y-9850978D01*
X14392365Y-9856299D01*
X14383799Y-9864865D01*
X14383799Y-9864865D01*
X14378478Y-9875749D01*
X14378478Y-9875749D01*
X14378243Y-9877363D01*
X14378243Y-9877363D01*
X14377450Y-9882805D01*
X14377450Y-9882806D01*
X14377450Y-9882806D01*
X14377450Y-9957195D01*
X14377482Y-9957642D01*
X14377399Y-9957648D01*
X14377404Y-9960361D01*
X14377209Y-9961736D01*
X14374318Y-9968097D01*
X14368447Y-9971885D01*
X14368447Y-9971885D01*
X14367712Y-9972102D01*
X14362644Y-9972465D01*
X14362643Y-9972482D01*
X14362519Y-9972473D01*
X14362410Y-9972481D01*
X14362195Y-9972450D01*
X14362195Y-9972450D01*
X14362194Y-9972450D01*
X14287805Y-9972450D01*
X14280749Y-9973478D01*
X14269865Y-9978799D01*
X14261299Y-9987365D01*
X14261299Y-9987365D01*
X14255978Y-9998249D01*
X14255978Y-9998249D01*
X14255923Y-9998625D01*
X14255905Y-9998751D01*
X14255905Y-9998751D01*
X14255523Y-10001373D01*
X14254950Y-10005305D01*
X14254950Y-10005305D01*
X14254950Y-10024695D01*
X14255699Y-10029840D01*
X14255699Y-10029840D01*
X14255978Y-10031751D01*
X14255978Y-10031751D01*
X14256957Y-10033755D01*
X14257231Y-10034605D01*
X14257242Y-10035051D01*
X14257648Y-10036312D01*
X14258032Y-10038559D01*
X14258054Y-10038686D01*
X14257241Y-10045626D01*
X14256971Y-10046218D01*
X14255978Y-10048249D01*
X14255978Y-10048249D01*
X14254891Y-10055712D01*
X14253808Y-10059272D01*
X14253598Y-10059710D01*
X14253564Y-10059770D01*
X14253555Y-10059802D01*
X14253402Y-10060120D01*
X14251232Y-10062538D01*
X14249162Y-10065044D01*
X14249031Y-10065132D01*
X14248824Y-10065221D01*
X14248735Y-10065320D01*
X14248338Y-10065429D01*
X14244722Y-10066977D01*
X14243978Y-10067139D01*
X14243854Y-10067166D01*
X14241216Y-10067450D01*
X14231008Y-10067450D01*
X14227515Y-10066948D01*
X14224991Y-10066206D01*
X14219716Y-10063077D01*
X14204591Y-10047952D01*
X14204591Y-10047952D01*
X14200250Y-10045446D01*
X14195459Y-10042679D01*
X14190119Y-10041249D01*
X14185273Y-10039950D01*
X14185273Y-10039950D01*
X14182939Y-10039950D01*
X14181035Y-10039391D01*
X14181034Y-10039391D01*
X14178680Y-10038699D01*
X14174264Y-10036213D01*
X14174237Y-10036253D01*
X14174033Y-10036110D01*
X14174017Y-10036129D01*
X14173815Y-10035961D01*
X14173812Y-10035959D01*
X14173801Y-10035949D01*
X14173801Y-10035949D01*
X14168424Y-10032845D01*
X14165581Y-10029862D01*
X14160101Y-10028394D01*
X14160101Y-10028394D01*
X14152680Y-10026406D01*
X14147247Y-10024950D01*
X14147247Y-10024950D01*
X14132752Y-10024950D01*
X14119899Y-10028394D01*
X14119899Y-10028394D01*
X14119084Y-10028613D01*
X14118751Y-10028702D01*
X14118751Y-10028702D01*
X14110193Y-10033642D01*
X14106918Y-10034954D01*
X14105569Y-10035281D01*
X14098590Y-10034949D01*
X14092899Y-10030897D01*
X14092797Y-10030768D01*
X14090368Y-10025448D01*
X14090274Y-10024956D01*
X14090050Y-10022611D01*
X14090050Y-9962952D01*
X14090050Y-9962952D01*
X14089441Y-9957289D01*
X14089406Y-9957195D01*
X14088382Y-9954448D01*
X14086549Y-9949534D01*
X14085228Y-9945994D01*
X14084663Y-9944477D01*
X14084662Y-9944477D01*
X14080589Y-9939035D01*
X14076469Y-9933531D01*
X14076468Y-9933531D01*
X14076468Y-9933531D01*
X14069032Y-9927964D01*
X14069032Y-9927964D01*
X14067957Y-9927160D01*
X14065523Y-9925337D01*
X14065523Y-9925337D01*
X14052926Y-9920639D01*
X14052791Y-9920578D01*
X14052516Y-9920513D01*
X14052051Y-9920488D01*
X14051114Y-9920387D01*
X14047049Y-9919950D01*
X14047049Y-9919950D01*
X14002952Y-9919950D01*
X14002949Y-9919950D01*
X14002917Y-9919954D01*
X13997288Y-9920559D01*
X13984477Y-9925337D01*
X13984477Y-9925337D01*
X13973531Y-9933531D01*
X13965337Y-9944477D01*
X13965337Y-9944477D01*
X13964056Y-9947912D01*
X13964056Y-9947913D01*
X13960595Y-9957191D01*
X13960594Y-9957194D01*
X13960559Y-9957289D01*
X13960558Y-9957290D01*
X13959950Y-9962949D01*
X13959950Y-9962950D01*
X13959950Y-10037048D01*
X13959950Y-10037049D01*
X13960202Y-10039391D01*
X13960559Y-10042712D01*
X13961817Y-10046085D01*
X13964695Y-10053802D01*
X13965337Y-10055523D01*
X13965337Y-10055523D01*
X13965338Y-10055523D01*
X13965530Y-10055780D01*
X13967220Y-10058876D01*
X13967616Y-10059935D01*
X13968115Y-10066904D01*
X13964767Y-10073037D01*
X13958635Y-10076386D01*
X13958634Y-10076387D01*
X13958248Y-10076470D01*
X13952403Y-10076331D01*
X13950605Y-10075850D01*
X13949903Y-10075662D01*
X13949903Y-10075662D01*
X13947248Y-10074950D01*
X13947247Y-10074950D01*
X13932752Y-10074950D01*
X13919899Y-10078394D01*
X13919899Y-10078394D01*
X13919134Y-10078599D01*
X13918751Y-10078702D01*
X13906199Y-10085949D01*
X13906198Y-10085949D01*
X13906197Y-10085951D01*
X13895950Y-10096197D01*
X13895949Y-10096198D01*
X13895948Y-10096199D01*
X13888702Y-10108751D01*
X13888699Y-10108758D01*
X13888675Y-10108851D01*
X13887348Y-10113802D01*
X13884950Y-10122753D01*
X13884950Y-10137248D01*
X13885462Y-10139158D01*
X13887898Y-10148249D01*
X13888702Y-10151249D01*
X13888909Y-10151749D01*
X13889503Y-10153569D01*
X13889901Y-10155211D01*
X13889569Y-10162190D01*
X13889569Y-10162190D01*
X13889382Y-10162730D01*
X13886533Y-10167340D01*
X13886474Y-10167401D01*
X13885035Y-10168662D01*
X13878532Y-10173531D01*
X13878531Y-10173531D01*
X13878531Y-10173532D01*
X13876867Y-10175755D01*
X13870337Y-10184477D01*
X13868198Y-10190213D01*
X13866506Y-10193311D01*
X13865570Y-10194562D01*
X13859977Y-10198749D01*
X13859649Y-10198871D01*
X13858853Y-10199168D01*
X13855523Y-10199769D01*
X13855533Y-10199844D01*
X13854727Y-10199950D01*
X13845666Y-10202378D01*
X13845354Y-10202462D01*
X13845354Y-10202462D01*
X13845353Y-10202462D01*
X13844721Y-10202631D01*
X13844550Y-10202674D01*
X13844541Y-10202679D01*
X13836105Y-10207550D01*
X13836105Y-10207550D01*
X13835697Y-10207786D01*
X13835409Y-10207952D01*
X13835408Y-10207952D01*
X13787953Y-10255408D01*
X13787952Y-10255409D01*
X13784080Y-10262115D01*
X13781453Y-10264729D01*
X13780420Y-10266255D01*
X13779539Y-10266633D01*
X13779486Y-10266685D01*
X13778595Y-10267194D01*
X13778523Y-10267068D01*
X13773998Y-10269007D01*
X13767107Y-10267850D01*
X13762424Y-10263891D01*
X13762389Y-10263841D01*
X13760258Y-10258697D01*
X13760221Y-10258475D01*
X13760050Y-10256423D01*
X13760050Y-10074140D01*
X13760552Y-10070648D01*
X13760871Y-10069562D01*
X13764648Y-10063684D01*
X13771003Y-10060781D01*
X13777919Y-10061775D01*
X13778229Y-10061917D01*
X13783004Y-10065765D01*
X13783531Y-10066468D01*
X13783531Y-10066469D01*
X13794477Y-10074663D01*
X13794477Y-10074663D01*
X13794477Y-10074663D01*
X13807289Y-10079441D01*
X13812951Y-10080050D01*
X13857048Y-10080050D01*
X13862711Y-10079441D01*
X13875523Y-10074663D01*
X13886469Y-10066469D01*
X13894663Y-10055523D01*
X13899441Y-10042711D01*
X13899950Y-10037982D01*
X13899990Y-10037603D01*
X13900003Y-10037518D01*
X13900044Y-10037112D01*
X13900050Y-10037051D01*
X13900050Y-10037049D01*
X13900050Y-10037049D01*
X13900050Y-9962952D01*
X13899441Y-9957289D01*
X13899406Y-9957195D01*
X13898382Y-9954448D01*
X13896549Y-9949534D01*
X13895228Y-9945994D01*
X13894663Y-9944477D01*
X13894662Y-9944477D01*
X13890589Y-9939035D01*
X13886469Y-9933531D01*
X13886468Y-9933531D01*
X13886468Y-9933531D01*
X13879032Y-9927964D01*
X13879032Y-9927964D01*
X13877957Y-9927160D01*
X13875523Y-9925337D01*
X13875523Y-9925337D01*
X13862926Y-9920639D01*
X13862791Y-9920578D01*
X13862516Y-9920513D01*
X13862050Y-9920488D01*
X13857051Y-9919950D01*
X13857050Y-9919950D01*
X13857048Y-9919950D01*
X13846910Y-9919950D01*
X13843416Y-9919448D01*
X13842084Y-9919057D01*
X13836206Y-9915279D01*
X13833304Y-9908924D01*
X13833183Y-9908083D01*
X13833480Y-9903108D01*
X13835050Y-9897248D01*
X13835050Y-9897247D01*
X13835050Y-9882753D01*
X13835050Y-9882753D01*
X13831298Y-9868752D01*
X13831298Y-9868751D01*
X13831298Y-9868751D01*
X13830389Y-9867177D01*
X13830389Y-9867176D01*
X13826124Y-9859789D01*
X13826022Y-9859370D01*
X13826012Y-9859376D01*
X13822946Y-9853760D01*
X13821461Y-9846934D01*
X13821507Y-9846290D01*
X13822468Y-9843684D01*
X13822558Y-9842433D01*
X13823725Y-9840278D01*
X13823897Y-9839812D01*
X13824198Y-9839405D01*
X13824199Y-9839404D01*
X13824200Y-9839402D01*
X13824438Y-9839079D01*
X13825883Y-9834949D01*
X13828774Y-9826688D01*
X13828774Y-9826688D01*
X13828774Y-9826688D01*
X13828811Y-9826468D01*
X13828828Y-9826110D01*
X13829050Y-9823746D01*
X13829050Y-9776254D01*
X13828774Y-9773312D01*
X13824438Y-9760921D01*
X13818601Y-9753012D01*
X13816642Y-9750358D01*
X13808620Y-9744437D01*
X13808620Y-9744437D01*
X13808620Y-9744437D01*
X13806079Y-9742562D01*
X13793688Y-9738226D01*
X13793688Y-9738226D01*
X13792511Y-9738115D01*
X13790746Y-9737950D01*
X13790745Y-9737950D01*
X13753255Y-9737950D01*
X13753255Y-9737950D01*
X13752326Y-9738037D01*
X13750313Y-9738226D01*
X13750311Y-9738226D01*
X13737921Y-9742562D01*
X13731248Y-9747487D01*
X13728139Y-9749157D01*
X13726935Y-9749597D01*
X13719963Y-9750048D01*
X13713853Y-9746658D01*
X13710655Y-9740974D01*
X13710424Y-9740057D01*
X13710050Y-9737032D01*
X13710050Y-9730565D01*
X13710552Y-9727071D01*
X13710802Y-9726219D01*
X13711187Y-9724911D01*
X13714036Y-9719926D01*
X13714312Y-9719631D01*
X13714844Y-9719158D01*
X13714843Y-9719157D01*
X13715499Y-9718500D01*
X13715500Y-9718500D01*
X13723385Y-9707816D01*
X13725589Y-9701518D01*
X13726693Y-9698363D01*
X13726693Y-9698363D01*
X13727450Y-9696199D01*
X13727511Y-9696025D01*
X13727657Y-9695679D01*
X13727671Y-9695630D01*
X13727766Y-9695331D01*
X13727771Y-9695282D01*
X13727771Y-9695282D01*
X13728050Y-9692307D01*
X13728050Y-9647693D01*
X13727771Y-9644718D01*
X13727771Y-9644718D01*
X13727771Y-9644717D01*
X13727771Y-9644717D01*
X13727766Y-9644669D01*
X13727671Y-9644369D01*
X13727657Y-9644321D01*
X13727511Y-9643974D01*
X13726372Y-9640720D01*
X13723422Y-9632291D01*
X13723387Y-9632187D01*
X13715500Y-9621500D01*
X13715342Y-9621342D01*
X13714234Y-9620073D01*
X13712646Y-9617981D01*
X13710327Y-9612725D01*
X13710254Y-9612329D01*
X13710050Y-9610087D01*
X13710050Y-9293751D01*
X13710552Y-9290258D01*
X13710943Y-9288926D01*
X13714721Y-9283048D01*
X13721076Y-9280145D01*
X13722633Y-9279921D01*
X13725555Y-9279850D01*
X13727693Y-9280050D01*
X13727693Y-9280050D01*
X13772306Y-9280050D01*
X13772307Y-9280050D01*
X13773629Y-9279926D01*
X13773629Y-9279926D01*
X13773630Y-9279926D01*
X13774707Y-9279825D01*
X13775168Y-9279803D01*
X13775281Y-9279771D01*
X13775282Y-9279771D01*
X13775282Y-9279771D01*
X13775283Y-9279771D01*
X13775284Y-9279770D01*
X13775629Y-9279672D01*
X13775629Y-9279672D01*
X13775678Y-9279658D01*
X13776024Y-9279511D01*
X13780184Y-9278056D01*
X13787816Y-9275385D01*
X13798500Y-9267500D01*
X13806385Y-9256816D01*
X13808266Y-9251440D01*
X13809207Y-9248752D01*
X13810511Y-9245026D01*
X13810657Y-9244679D01*
X13810671Y-9244630D01*
X13810766Y-9244331D01*
X13810771Y-9244282D01*
X13810771Y-9244282D01*
X13810926Y-9242629D01*
X13811050Y-9241307D01*
X13811050Y-9226296D01*
X13812200Y-9222378D01*
X13812969Y-9219244D01*
X13818039Y-9214435D01*
X13824903Y-9213131D01*
X13831383Y-9215745D01*
X13833812Y-9218306D01*
X13834120Y-9218741D01*
X13835535Y-9221358D01*
X13837064Y-9225234D01*
X13837064Y-9225234D01*
X13846208Y-9237292D01*
X13858265Y-9246436D01*
X13858266Y-9246436D01*
X13860340Y-9247254D01*
X13861522Y-9247720D01*
X13864588Y-9249469D01*
X13865822Y-9250429D01*
X13869904Y-9256099D01*
X13869947Y-9256222D01*
X13870470Y-9262431D01*
X13870323Y-9263289D01*
X13869558Y-9265936D01*
X13867774Y-9270244D01*
X13867773Y-9270245D01*
X13867450Y-9271026D01*
X13867450Y-9271026D01*
X13867450Y-9271026D01*
X13867450Y-9271026D01*
X13867410Y-9271227D01*
X13867409Y-9271229D01*
X13867407Y-9271240D01*
X13864950Y-9283592D01*
X13864950Y-9291970D01*
X13864424Y-9293762D01*
X13867449Y-9308973D01*
X13867449Y-9308973D01*
X13867450Y-9308975D01*
X13872353Y-9320812D01*
X13872353Y-9320813D01*
X13879472Y-9331467D01*
X13879472Y-9331467D01*
X13879473Y-9331468D01*
X13888532Y-9340527D01*
X13888533Y-9340527D01*
X13888533Y-9340528D01*
X13899187Y-9347646D01*
X13899187Y-9347646D01*
X13899187Y-9347647D01*
X13910536Y-9352347D01*
X13910595Y-9352372D01*
X13910614Y-9352388D01*
X13910905Y-9352526D01*
X13911025Y-9352550D01*
X13911026Y-9352550D01*
X13911026Y-9352550D01*
X13911026Y-9352550D01*
X13911026Y-9352550D01*
X13920790Y-9354492D01*
X13923593Y-9355050D01*
X13936407Y-9355050D01*
X13936407Y-9355050D01*
X13944861Y-9353368D01*
X13948974Y-9352550D01*
X13960813Y-9347647D01*
X13971467Y-9340528D01*
X13980528Y-9331467D01*
X13987646Y-9320813D01*
X13992550Y-9308974D01*
X13993579Y-9303801D01*
X13994964Y-9296839D01*
X13995050Y-9296407D01*
X13995050Y-9283593D01*
X13992788Y-9272223D01*
X13992788Y-9272223D01*
X13992657Y-9271565D01*
X13992621Y-9271382D01*
X13992621Y-9271380D01*
X13992526Y-9270906D01*
X13992318Y-9270465D01*
X13990752Y-9266685D01*
X13990752Y-9266685D01*
X13990593Y-9266302D01*
X13990593Y-9266301D01*
X13989721Y-9262883D01*
X13989554Y-9261328D01*
X13989870Y-9259574D01*
X13989847Y-9259355D01*
X13989945Y-9259158D01*
X13990794Y-9254453D01*
X13990852Y-9254338D01*
X13994953Y-9249646D01*
X13995673Y-9249155D01*
X13998107Y-9247866D01*
X14001734Y-9246436D01*
X14013792Y-9237292D01*
X14022936Y-9225234D01*
X14028488Y-9211156D01*
X14029550Y-9202310D01*
X14029550Y-9102190D01*
X14028488Y-9093344D01*
X14022936Y-9079266D01*
X14022936Y-9079266D01*
X14022936Y-9079266D01*
X14022563Y-9078774D01*
X14022532Y-9078714D01*
X14022424Y-9078590D01*
X14013792Y-9067208D01*
X14001734Y-9058064D01*
X14001734Y-9058064D01*
X13988785Y-9052957D01*
X13987656Y-9052512D01*
X13983715Y-9052039D01*
X13983093Y-9051964D01*
X13983092Y-9051964D01*
X13980322Y-9051632D01*
X13978810Y-9051450D01*
X13978810Y-9051450D01*
X13881190Y-9051450D01*
X13881190Y-9051450D01*
X13880156Y-9051574D01*
X13877285Y-9051919D01*
X13877285Y-9051919D01*
X13876692Y-9051990D01*
X13872344Y-9052512D01*
X13858265Y-9058064D01*
X13846208Y-9067208D01*
X13837064Y-9079265D01*
X13831512Y-9093344D01*
X13831245Y-9095570D01*
X13831199Y-9095949D01*
X13830450Y-9102190D01*
X13830450Y-9102190D01*
X13830450Y-9103863D01*
X13829482Y-9107441D01*
X13829352Y-9109275D01*
X13828778Y-9110042D01*
X13828759Y-9110114D01*
X13828241Y-9111001D01*
X13828116Y-9110928D01*
X13825167Y-9114871D01*
X13818622Y-9117316D01*
X13812585Y-9116230D01*
X13812529Y-9116204D01*
X13808113Y-9112817D01*
X13807970Y-9112644D01*
X13806794Y-9110949D01*
X13806270Y-9110042D01*
X13805311Y-9108381D01*
X13804051Y-9106199D01*
X13793801Y-9095949D01*
X13793462Y-9095689D01*
X13792038Y-9094409D01*
X13790957Y-9093275D01*
X13787755Y-9087065D01*
X13788418Y-9080110D01*
X13788735Y-9079320D01*
X13791478Y-9075161D01*
X13852847Y-9013792D01*
X13852848Y-9013792D01*
X13854591Y-9012048D01*
X13854591Y-9012048D01*
X13862048Y-9004591D01*
X13867321Y-8995459D01*
X13868083Y-8992612D01*
X13868856Y-8989728D01*
X13868856Y-8989727D01*
X13869067Y-8988942D01*
X13869067Y-8988941D01*
X13869067Y-8988940D01*
X13869159Y-8988596D01*
X13869160Y-8988596D01*
X13870050Y-8985273D01*
X13870050Y-8974727D01*
X13870050Y-8973968D01*
X13870050Y-8973966D01*
X13870050Y-7419727D01*
X13870050Y-7419727D01*
X13867321Y-7409541D01*
X13867321Y-7409541D01*
X13862048Y-7400409D01*
X13820942Y-7359303D01*
X13818827Y-7356478D01*
X13817567Y-7354169D01*
X13816050Y-7348226D01*
X13816050Y-7309514D01*
X13816050Y-7309514D01*
X13816050Y-7309512D01*
X13815759Y-7307001D01*
X13815758Y-7307001D01*
X13815758Y-7307001D01*
X13815356Y-7306089D01*
X13814404Y-7302691D01*
X13814224Y-7301315D01*
X13815306Y-7294412D01*
X13819947Y-7289190D01*
X13820355Y-7288935D01*
X13826927Y-7287050D01*
X13854059Y-7287050D01*
X13856478Y-7287288D01*
X13858828Y-7287755D01*
X13861154Y-7288461D01*
X13870465Y-7292318D01*
X13870905Y-7292526D01*
X13871026Y-7292550D01*
X13871026Y-7292550D01*
X13873043Y-7292951D01*
X13883593Y-7295050D01*
X13896407Y-7295050D01*
X13896407Y-7295050D01*
X13904861Y-7293368D01*
X13908974Y-7292550D01*
X13920813Y-7287646D01*
X13931467Y-7280528D01*
X13931467Y-7280527D01*
X13931467Y-7280527D01*
X13940527Y-7271467D01*
X13940528Y-7271467D01*
X13947646Y-7260813D01*
X13952550Y-7248974D01*
X13954668Y-7238326D01*
X13954668Y-7238326D01*
X13955050Y-7236407D01*
X13955050Y-7223592D01*
X13952529Y-7210922D01*
X13952372Y-7210595D01*
X13952347Y-7210536D01*
X13947646Y-7199187D01*
X13947646Y-7199187D01*
X13947646Y-7199187D01*
X13940528Y-7188533D01*
X13940527Y-7188533D01*
X13940527Y-7188532D01*
X13931468Y-7179473D01*
X13931467Y-7179472D01*
X13931467Y-7179472D01*
X13920813Y-7172353D01*
X13920813Y-7172353D01*
X13920812Y-7172353D01*
X13908975Y-7167450D01*
X13908973Y-7167449D01*
X13908972Y-7167449D01*
X13896407Y-7164950D01*
X13896407Y-7164950D01*
X13896407Y-7164950D01*
X13883593Y-7164950D01*
X13883593Y-7164950D01*
X13883593Y-7164950D01*
X13871027Y-7167449D01*
X13871026Y-7167449D01*
X13871024Y-7167450D01*
X13859188Y-7172353D01*
X13859187Y-7172353D01*
X13856918Y-7173870D01*
X13853734Y-7175393D01*
X13850571Y-7176383D01*
X13846866Y-7176950D01*
X13824274Y-7176950D01*
X13820780Y-7176448D01*
X13819280Y-7176007D01*
X13813403Y-7172230D01*
X13811062Y-7169528D01*
X13811058Y-7169524D01*
X13811006Y-7169463D01*
X13810112Y-7168432D01*
X13809902Y-7168340D01*
X13809114Y-7167617D01*
X13806447Y-7164950D01*
X13803276Y-7161779D01*
X13799988Y-7160327D01*
X13792999Y-7157241D01*
X13792999Y-7157241D01*
X13790487Y-7156950D01*
X13790486Y-7156950D01*
X13631514Y-7156950D01*
X13631513Y-7156950D01*
X13631511Y-7156950D01*
X13629725Y-7157157D01*
X13629001Y-7157241D01*
X13629001Y-7157241D01*
X13629000Y-7157241D01*
X13628956Y-7157255D01*
X13628730Y-7157361D01*
X13618724Y-7161779D01*
X13610779Y-7169723D01*
X13606241Y-7180000D01*
X13606184Y-7180271D01*
X13606159Y-7180712D01*
X13605950Y-7182513D01*
X13605950Y-7281485D01*
X13605950Y-7281489D01*
X13606243Y-7284010D01*
X13606329Y-7284197D01*
X13608388Y-7288860D01*
X13609339Y-7292259D01*
X13609669Y-7294775D01*
X13608717Y-7301393D01*
X13606241Y-7307001D01*
X13605997Y-7307901D01*
X13605929Y-7307883D01*
X13605841Y-7308137D01*
X13605864Y-7308547D01*
X13604580Y-7311835D01*
X13604549Y-7311890D01*
X13604513Y-7311994D01*
X13604250Y-7312425D01*
X13604232Y-7312450D01*
X13604225Y-7312466D01*
X13604087Y-7312692D01*
X13601652Y-7314903D01*
X13599871Y-7316630D01*
X13599958Y-7316758D01*
X13599915Y-7316788D01*
X13599566Y-7316926D01*
X13599278Y-7317205D01*
X13598761Y-7317477D01*
X13598731Y-7317420D01*
X13598017Y-7317539D01*
X13594884Y-7318780D01*
X13594778Y-7318797D01*
X13592838Y-7318950D01*
X13454601Y-7318950D01*
X13451107Y-7318447D01*
X13449607Y-7318007D01*
X13443732Y-7314233D01*
X13443614Y-7314096D01*
X13440866Y-7308608D01*
X13440701Y-7307852D01*
X13440418Y-7305217D01*
X13440418Y-7299384D01*
X13440375Y-7299189D01*
X13436958Y-7282006D01*
X13436957Y-7282005D01*
X13436698Y-7281380D01*
X13436345Y-7280527D01*
X13436345Y-7280527D01*
X13433649Y-7274018D01*
X13433649Y-7274018D01*
X13430170Y-7265618D01*
X13430169Y-7265618D01*
X13430169Y-7265617D01*
X13420314Y-7250868D01*
X13420314Y-7250868D01*
X13420314Y-7250867D01*
X13407772Y-7238326D01*
X13407772Y-7238326D01*
X13393024Y-7228471D01*
X13393024Y-7228471D01*
X13393023Y-7228471D01*
X13393022Y-7228470D01*
X13393021Y-7228470D01*
X13376636Y-7221683D01*
X13376633Y-7221682D01*
X13376633Y-7221682D01*
X13359238Y-7218222D01*
X13359237Y-7218222D01*
X13359237Y-7218222D01*
X13261499Y-7218222D01*
X13261499Y-7218222D01*
X13261498Y-7218222D01*
X13244103Y-7221682D01*
X13244102Y-7221682D01*
X13244100Y-7221683D01*
X13227715Y-7228470D01*
X13227713Y-7228470D01*
X13227712Y-7228471D01*
X13221189Y-7232830D01*
X13218005Y-7234353D01*
X13216706Y-7234760D01*
X13209720Y-7234884D01*
X13203776Y-7231212D01*
X13200908Y-7225669D01*
X13200725Y-7224864D01*
X13200418Y-7222121D01*
X13200418Y-7140817D01*
X13200920Y-7137323D01*
X13201304Y-7136017D01*
X13205081Y-7130139D01*
X13211437Y-7127236D01*
X13217639Y-7127931D01*
X13218411Y-7128227D01*
X13220862Y-7129495D01*
X13227713Y-7134073D01*
X13227713Y-7134073D01*
X13227713Y-7134073D01*
X13227713Y-7134073D01*
X13227714Y-7134074D01*
X13239689Y-7139034D01*
X13244101Y-7140861D01*
X13244102Y-7140861D01*
X13244102Y-7140862D01*
X13260736Y-7144170D01*
X13261008Y-7144242D01*
X13261499Y-7144322D01*
X13359237Y-7144322D01*
X13359649Y-7144322D01*
X13360435Y-7144084D01*
X13365036Y-7143168D01*
X13365036Y-7143168D01*
X13376633Y-7140862D01*
X13376633Y-7140862D01*
X13376634Y-7140862D01*
X13376634Y-7140861D01*
X13376635Y-7140861D01*
X13376953Y-7140729D01*
X13377751Y-7140399D01*
X13377756Y-7140397D01*
X13393022Y-7134074D01*
X13393022Y-7134073D01*
X13393023Y-7134073D01*
X13407771Y-7124218D01*
X13420314Y-7111675D01*
X13430169Y-7096927D01*
X13436957Y-7080539D01*
X13440418Y-7063141D01*
X13440418Y-7045403D01*
X13440418Y-7045403D01*
X13440418Y-7045384D01*
X13440375Y-7045189D01*
X13436958Y-7028006D01*
X13436957Y-7028005D01*
X13430170Y-7011618D01*
X13430169Y-7011617D01*
X13425810Y-7005093D01*
X13424287Y-7001909D01*
X13423880Y-7000610D01*
X13423755Y-6993624D01*
X13427427Y-6987680D01*
X13432970Y-6984812D01*
X13433503Y-6984691D01*
X13433776Y-6984629D01*
X13436519Y-6984322D01*
X15946135Y-6984322D01*
X15949629Y-6984824D01*
G37*
%TD.AperFunction*%
%TA.AperFunction,Conductor*%
G36*
X15233013Y-10045552D02*
G01*
X15234098Y-10045871D01*
X15239976Y-10049648D01*
X15242879Y-10056003D01*
X15241885Y-10062919D01*
X15241885Y-10062919D01*
X15241567Y-10063617D01*
X15239055Y-10067234D01*
X15134615Y-10171674D01*
X15131790Y-10173789D01*
X15130417Y-10174539D01*
X15123592Y-10176024D01*
X15122948Y-10175978D01*
X15116468Y-10173587D01*
X15115079Y-10172562D01*
X15112543Y-10171674D01*
X15102688Y-10168226D01*
X15102688Y-10168226D01*
X15101511Y-10168115D01*
X15099746Y-10167950D01*
X15099745Y-10167950D01*
X15062255Y-10167950D01*
X15062255Y-10167950D01*
X15061326Y-10168037D01*
X15059313Y-10168226D01*
X15059311Y-10168226D01*
X15053725Y-10170181D01*
X15050262Y-10170860D01*
X15049327Y-10170908D01*
X15048876Y-10170931D01*
X15042081Y-10169307D01*
X15037242Y-10164267D01*
X15037203Y-10164193D01*
X15035812Y-10158353D01*
X15035822Y-10157450D01*
X15035822Y-10157450D01*
X15035832Y-10156527D01*
X15035885Y-10155500D01*
X15035904Y-10155305D01*
X15035904Y-10155305D01*
X15036050Y-10153746D01*
X15036050Y-10106254D01*
X15035774Y-10103312D01*
X15031438Y-10090921D01*
X15027540Y-10085639D01*
X15023642Y-10080358D01*
X15023642Y-10080357D01*
X15016486Y-10075076D01*
X15016315Y-10074950D01*
X15013079Y-10072562D01*
X15013079Y-10072562D01*
X15013079Y-10072562D01*
X15005023Y-10069743D01*
X15001694Y-10067355D01*
X14998927Y-10065475D01*
X14996189Y-10059047D01*
X14997360Y-10052159D01*
X15002069Y-10046997D01*
X15005316Y-10045614D01*
X15005871Y-10045467D01*
X15009058Y-10045050D01*
X15229520Y-10045050D01*
X15233013Y-10045552D01*
G37*
%TD.AperFunction*%
%TA.AperFunction,Conductor*%
G36*
X15956960Y-8401332D02*
G01*
X15959827Y-8406873D01*
X15960010Y-8407678D01*
X15960318Y-8410423D01*
X15960318Y-8745727D01*
X15959815Y-8749221D01*
X15959431Y-8750528D01*
X15955654Y-8756406D01*
X15949298Y-8759308D01*
X15943097Y-8758613D01*
X15942326Y-8758317D01*
X15939874Y-8757048D01*
X15933024Y-8752471D01*
X15933023Y-8752471D01*
X15933023Y-8752471D01*
X15933022Y-8752470D01*
X15916636Y-8745683D01*
X15916633Y-8745682D01*
X15916633Y-8745682D01*
X15899238Y-8742222D01*
X15899237Y-8742222D01*
X15899237Y-8742222D01*
X15823876Y-8742222D01*
X15820383Y-8741720D01*
X15817859Y-8740979D01*
X15812584Y-8737849D01*
X15764943Y-8690207D01*
X15762827Y-8687382D01*
X15761567Y-8685073D01*
X15760050Y-8679130D01*
X15760050Y-8421240D01*
X15760552Y-8417747D01*
X15760943Y-8416415D01*
X15764721Y-8410537D01*
X15771076Y-8407634D01*
X15771595Y-8407560D01*
X15778105Y-8408377D01*
X15784101Y-8410861D01*
X15784101Y-8410861D01*
X15784102Y-8410861D01*
X15784102Y-8410862D01*
X15800736Y-8414170D01*
X15801008Y-8414242D01*
X15801499Y-8414322D01*
X15899237Y-8414322D01*
X15899649Y-8414322D01*
X15900435Y-8414084D01*
X15905036Y-8413168D01*
X15905036Y-8413168D01*
X15916633Y-8410862D01*
X15916633Y-8410862D01*
X15916634Y-8410862D01*
X15916634Y-8410861D01*
X15916635Y-8410861D01*
X15916953Y-8410729D01*
X15917751Y-8410399D01*
X15917756Y-8410397D01*
X15933022Y-8404074D01*
X15933022Y-8404074D01*
X15933023Y-8404073D01*
X15937944Y-8400785D01*
X15939547Y-8399714D01*
X15942730Y-8398191D01*
X15944030Y-8397784D01*
X15951016Y-8397660D01*
X15956960Y-8401332D01*
G37*
%TD.AperFunction*%
%TD*%
M02*
