%TF.GenerationSoftware,KiCad,Pcbnew,10.0.0*%
%TF.CreationDate,2026-04-11T10:01:36+02:00*%
%TF.ProjectId,Easyduino_Atmega,45617379-6475-4696-9e6f-5f41746d6567,rev?*%
%TF.SameCoordinates,Original*%
%TF.FileFunction,Soldermask,Bot*%
%TF.FilePolarity,Negative*%
%FSLAX45Y45*%
G04 Gerber Fmt 4.5, Leading zero omitted, Abs format (unit mm)*
G04 Created by KiCad (PCBNEW 10.0.0) date 2026-04-11 10:01:36*
%MOMM*%
%LPD*%
G01*
G04 APERTURE LIST*
%ADD10R,1.700000X1.700000*%
%ADD11C,1.700000*%
%ADD12O,1.700000X1.700000*%
%ADD13C,0.650000*%
%ADD14O,2.100000X1.000000*%
%ADD15O,1.800000X1.000000*%
%ADD16C,3.200000*%
%ADD17C,1.600000*%
%ADD18O,1.600000X1.600000*%
G04 APERTURE END LIST*
D10*
%TO.C,J2*%
X11650000Y-10370000D03*
D11*
X11650000Y-10624000D03*
%TD*%
%TO.C,J3*%
X17010000Y-8396000D03*
D12*
X17264000Y-8396000D03*
X17010000Y-8650000D03*
X17264000Y-8650000D03*
X17010000Y-8904000D03*
X17264000Y-8904000D03*
%TD*%
D13*
%TO.C,J1*%
X11238000Y-7786000D03*
X11238000Y-8364000D03*
D14*
X11290000Y-7643000D03*
D15*
X10870000Y-7643000D03*
D14*
X11290000Y-8507000D03*
D15*
X10870000Y-8507000D03*
%TD*%
D16*
%TO.C,A1*%
X12018000Y-11124000D03*
X12145000Y-6298000D03*
X17225000Y-7822000D03*
X17225000Y-10616000D03*
D17*
X13415000Y-11124000D03*
D18*
X13669000Y-11124000D03*
X13923000Y-11124000D03*
X14177000Y-11124000D03*
X14431000Y-11124000D03*
X14685000Y-11124000D03*
X14939000Y-11124000D03*
X15193000Y-11124000D03*
X15701000Y-11124000D03*
X15955000Y-11124000D03*
X16209000Y-11124000D03*
X16463000Y-11124000D03*
X16717000Y-11124000D03*
X16971000Y-11124000D03*
X16971000Y-6298000D03*
X16717000Y-6298000D03*
X16463000Y-6298000D03*
X16209000Y-6298000D03*
X15955000Y-6298000D03*
X15701000Y-6298000D03*
X15447000Y-6298000D03*
X15193000Y-6298000D03*
X14787000Y-6298000D03*
X14533000Y-6298000D03*
X14279000Y-6298000D03*
X14025000Y-6298000D03*
X13771000Y-6298000D03*
X13517000Y-6298000D03*
X13263000Y-6298000D03*
X13009000Y-6298000D03*
X12755000Y-6298000D03*
X12501000Y-6298000D03*
%TD*%
M02*
