%TF.GenerationSoftware,KiCad,Pcbnew,10.0.0*%
%TF.CreationDate,2026-04-11T10:01:36+02:00*%
%TF.ProjectId,Easyduino_Atmega,45617379-6475-4696-9e6f-5f41746d6567,rev?*%
%TF.SameCoordinates,Original*%
%TF.FileFunction,Copper,L2,Inr*%
%TF.FilePolarity,Positive*%
%FSLAX45Y45*%
G04 Gerber Fmt 4.5, Leading zero omitted, Abs format (unit mm)*
G04 Created by KiCad (PCBNEW 10.0.0) date 2026-04-11 10:01:36*
%MOMM*%
%LPD*%
G01*
G04 APERTURE LIST*
%TA.AperFunction,ComponentPad*%
%ADD10R,1.700000X1.700000*%
%TD*%
%TA.AperFunction,ComponentPad*%
%ADD11C,1.700000*%
%TD*%
%TA.AperFunction,ComponentPad*%
%ADD12O,1.700000X1.700000*%
%TD*%
%TA.AperFunction,ComponentPad*%
%ADD13O,2.100000X1.000000*%
%TD*%
%TA.AperFunction,ComponentPad*%
%ADD14O,1.800000X1.000000*%
%TD*%
%TA.AperFunction,ComponentPad*%
%ADD15C,1.600000*%
%TD*%
%TA.AperFunction,ComponentPad*%
%ADD16O,1.600000X1.600000*%
%TD*%
%TA.AperFunction,ViaPad*%
%ADD17C,0.500000*%
%TD*%
%TA.AperFunction,ViaPad*%
%ADD18C,0.700000*%
%TD*%
G04 APERTURE END LIST*
D10*
%TO.N,/Vin*%
%TO.C,J2*%
X11650000Y-10370000D03*
D11*
%TO.N,GND*%
X11650000Y-10624000D03*
%TD*%
%TO.N,/PB4*%
%TO.C,J3*%
X17010000Y-8396000D03*
D12*
%TO.N,+5V*%
X17264000Y-8396000D03*
%TO.N,/PB5*%
X17010000Y-8650000D03*
%TO.N,/PB3*%
X17264000Y-8650000D03*
%TO.N,/PC6*%
X17010000Y-8904000D03*
%TO.N,GND*%
X17264000Y-8904000D03*
%TD*%
D13*
%TO.N,GND*%
%TO.C,J1*%
X11290000Y-7643000D03*
D14*
X10870000Y-7643000D03*
D13*
X11290000Y-8507000D03*
D14*
X10870000Y-8507000D03*
%TD*%
D15*
%TO.N,unconnected-(A1-NC-Pad1)*%
%TO.C,A1*%
X13415000Y-11124000D03*
D16*
%TO.N,+5V*%
X13669000Y-11124000D03*
%TO.N,/PC6*%
X13923000Y-11124000D03*
%TO.N,+3.3V*%
X14177000Y-11124000D03*
%TO.N,+5V*%
X14431000Y-11124000D03*
%TO.N,GND*%
X14685000Y-11124000D03*
X14939000Y-11124000D03*
%TO.N,VCC*%
X15193000Y-11124000D03*
%TO.N,/PC0*%
X15701000Y-11124000D03*
%TO.N,/PC1*%
X15955000Y-11124000D03*
%TO.N,/PC2*%
X16209000Y-11124000D03*
%TO.N,/PC3*%
X16463000Y-11124000D03*
%TO.N,/PC4*%
X16717000Y-11124000D03*
%TO.N,/PC5*%
X16971000Y-11124000D03*
%TO.N,/PD0*%
X16971000Y-6298000D03*
%TO.N,/PD1*%
X16717000Y-6298000D03*
%TO.N,/PD2*%
X16463000Y-6298000D03*
%TO.N,/PD3*%
X16209000Y-6298000D03*
%TO.N,/PD4*%
X15955000Y-6298000D03*
%TO.N,/PD5*%
X15701000Y-6298000D03*
%TO.N,/PD6*%
X15447000Y-6298000D03*
%TO.N,/PD7*%
X15193000Y-6298000D03*
%TO.N,/PB0*%
X14787000Y-6298000D03*
%TO.N,/PB1*%
X14533000Y-6298000D03*
%TO.N,/PB2*%
X14279000Y-6298000D03*
%TO.N,/PB3*%
X14025000Y-6298000D03*
%TO.N,/PB4*%
X13771000Y-6298000D03*
%TO.N,/PB5*%
X13517000Y-6298000D03*
%TO.N,GND*%
X13263000Y-6298000D03*
%TO.N,/AREF*%
X13009000Y-6298000D03*
%TO.N,/PC4*%
X12755000Y-6298000D03*
%TO.N,/PC5*%
X12501000Y-6298000D03*
%TD*%
D17*
%TO.N,+5V*%
X12190000Y-8865000D03*
X15640000Y-8605000D03*
X11600000Y-9580000D03*
X13210000Y-9810000D03*
X13790000Y-8627000D03*
X11965000Y-6980000D03*
X12070000Y-9090000D03*
X12260000Y-9400000D03*
X12280000Y-9660000D03*
X12880000Y-9855000D03*
X12370000Y-8980000D03*
X12440000Y-9090000D03*
X11905000Y-9405000D03*
X11905000Y-9645000D03*
X15620000Y-8960000D03*
X12560000Y-9780000D03*
X11610000Y-9500000D03*
%TO.N,GND*%
X15620000Y-9120000D03*
X11495000Y-7725000D03*
X15700000Y-9800000D03*
X14150000Y-7870000D03*
X11750000Y-7410000D03*
X12685000Y-10240000D03*
X11295000Y-9240000D03*
X14740000Y-10270000D03*
X14130000Y-9760000D03*
X13920000Y-8880000D03*
X13790000Y-8443000D03*
X16340000Y-6130000D03*
X11275000Y-6665000D03*
X10900000Y-9600000D03*
X12040000Y-7925000D03*
X15625000Y-8870000D03*
X10900000Y-7300000D03*
X16700000Y-7600000D03*
X16100000Y-8000000D03*
X14160000Y-6130000D03*
X12015000Y-7765000D03*
X11540000Y-6450000D03*
X13310000Y-10125000D03*
X12600000Y-10700000D03*
X12345000Y-8380000D03*
X10895000Y-10975000D03*
X15530000Y-8232450D03*
X16340000Y-11290000D03*
X12980000Y-8465000D03*
X11680000Y-8440000D03*
X10900000Y-9000000D03*
X13200000Y-10700000D03*
X13220000Y-9300000D03*
X16200000Y-9800000D03*
X15730000Y-8202450D03*
X15470000Y-7490000D03*
X12925000Y-9340000D03*
X11295000Y-9325000D03*
X11620000Y-9270000D03*
X16700000Y-9300000D03*
X11490000Y-8510000D03*
X15800000Y-7100000D03*
X15450000Y-11100000D03*
X12400000Y-6110000D03*
X13900000Y-7200000D03*
X10895000Y-10830000D03*
X15900000Y-9000000D03*
X11495000Y-7805000D03*
X12855000Y-9490000D03*
X14040000Y-11290000D03*
X12840000Y-11220000D03*
X15000000Y-6400000D03*
X13220000Y-9375000D03*
X16700000Y-10300000D03*
X12800000Y-7000000D03*
X16700000Y-8000000D03*
X11490000Y-8590000D03*
X11895000Y-10710000D03*
X15960000Y-8582500D03*
X13070000Y-9095000D03*
X16160000Y-8552500D03*
X11620000Y-9345000D03*
X12035000Y-8280000D03*
X16700000Y-9800000D03*
X12925000Y-9260000D03*
X11895000Y-10620000D03*
X11005000Y-6450000D03*
X11395000Y-10855000D03*
X10895000Y-10740000D03*
X13400000Y-9150000D03*
X10895000Y-10650000D03*
%TO.N,/Vbus_f*%
X12125000Y-8205000D03*
X12345000Y-7910000D03*
%TO.N,/PC6*%
X14780000Y-9110000D03*
X12565000Y-7585000D03*
X14787500Y-8822500D03*
D18*
%TO.N,+3.3V*%
X13700000Y-10465000D03*
X13695000Y-10250000D03*
D17*
%TO.N,/PB3*%
X14660000Y-8620000D03*
%TO.N,/PB4*%
X14500000Y-8545000D03*
%TO.N,/PB5*%
X14520000Y-8615000D03*
%TO.N,/PC4*%
X14560000Y-8910050D03*
X13460000Y-7930000D03*
%TO.N,/PC5*%
X14705000Y-8895000D03*
X13435000Y-7780000D03*
%TO.N,/PD0*%
X14865000Y-9010000D03*
X13500000Y-8835000D03*
%TO.N,/PD1*%
X14945000Y-9010000D03*
X13495000Y-8745000D03*
%TD*%
%TA.AperFunction,Conductor*%
%TO.N,GND*%
G36*
X17046532Y-6071050D02*
G01*
X17051642Y-6071050D01*
X17052934Y-6071135D01*
X17053568Y-6071218D01*
X17058302Y-6073179D01*
X17058809Y-6073568D01*
X17059782Y-6074421D01*
X17063396Y-6078035D01*
X17063396Y-6078035D01*
X17063396Y-6078035D01*
X17194577Y-6209216D01*
X17195431Y-6210190D01*
X17195821Y-6210698D01*
X17197782Y-6215432D01*
X17197854Y-6215979D01*
X17197865Y-6216068D01*
X17197950Y-6217360D01*
X17197950Y-7311924D01*
X17197950Y-7311926D01*
X17197950Y-7316324D01*
X17197950Y-7325377D01*
X17197950Y-7325377D01*
X17200168Y-7339376D01*
X17204548Y-7352856D01*
X17210983Y-7365486D01*
X17219313Y-7376952D01*
X17219314Y-7376953D01*
X17220168Y-7377807D01*
X17220597Y-7378236D01*
X17220597Y-7378236D01*
X17372311Y-7529950D01*
X17448577Y-7606216D01*
X17449431Y-7607190D01*
X17449821Y-7607698D01*
X17451782Y-7612432D01*
X17451865Y-7613068D01*
X17451950Y-7614360D01*
X17451950Y-10842924D01*
X17451950Y-10842926D01*
X17451950Y-10848642D01*
X17451865Y-10849934D01*
X17451782Y-10850568D01*
X17449821Y-10855302D01*
X17449432Y-10855809D01*
X17448578Y-10856783D01*
X17444965Y-10860396D01*
X17444965Y-10860396D01*
X17444964Y-10860396D01*
X17224616Y-11080745D01*
X17219313Y-11086047D01*
X17219313Y-11086047D01*
X17210983Y-11097513D01*
X17210982Y-11097515D01*
X17204547Y-11110144D01*
X17200167Y-11123624D01*
X17197950Y-11137624D01*
X17197950Y-11141404D01*
X17197950Y-11339697D01*
X17197612Y-11342260D01*
X17197326Y-11343327D01*
X17193993Y-11348458D01*
X17190327Y-11350326D01*
X17189554Y-11350533D01*
X17189260Y-11350612D01*
X17186697Y-11350950D01*
X10659303Y-11350950D01*
X10656741Y-11350612D01*
X10655673Y-11350326D01*
X10650542Y-11346994D01*
X10648673Y-11343326D01*
X10648387Y-11342259D01*
X10648050Y-11339697D01*
X10648050Y-11111871D01*
X11832950Y-11111871D01*
X11832950Y-11136129D01*
X11836116Y-11160178D01*
X11836116Y-11160179D01*
X11842394Y-11183609D01*
X11842395Y-11183611D01*
X11851677Y-11206020D01*
X11851677Y-11206021D01*
X11851678Y-11206021D01*
X11863205Y-11225987D01*
X11863807Y-11227029D01*
X11878573Y-11246273D01*
X11878573Y-11246273D01*
X11878573Y-11246274D01*
X11895726Y-11263426D01*
X11895727Y-11263427D01*
X11895727Y-11263427D01*
X11914971Y-11278193D01*
X11914971Y-11278194D01*
X11935979Y-11290322D01*
X11958390Y-11299605D01*
X11981821Y-11305884D01*
X12005871Y-11309050D01*
X12005871Y-11309050D01*
X12030129Y-11309050D01*
X12030129Y-11309050D01*
X12054179Y-11305884D01*
X12077610Y-11299605D01*
X12100021Y-11290322D01*
X12121029Y-11278194D01*
X12140274Y-11263426D01*
X12157426Y-11246274D01*
X12172194Y-11227029D01*
X12184322Y-11206021D01*
X12193605Y-11183610D01*
X12199884Y-11160179D01*
X12203050Y-11136129D01*
X12203050Y-11115339D01*
X13304950Y-11115339D01*
X13304950Y-11132661D01*
X13307660Y-11149770D01*
X13307660Y-11149771D01*
X13313012Y-11166244D01*
X13313012Y-11166244D01*
X13313013Y-11166244D01*
X13313013Y-11166245D01*
X13320877Y-11181679D01*
X13331059Y-11195693D01*
X13343307Y-11207941D01*
X13357321Y-11218123D01*
X13372755Y-11225987D01*
X13372756Y-11225987D01*
X13372756Y-11225987D01*
X13372756Y-11225988D01*
X13389229Y-11231340D01*
X13389230Y-11231340D01*
X13406339Y-11234050D01*
X13406339Y-11234050D01*
X13423661Y-11234050D01*
X13440770Y-11231340D01*
X13440771Y-11231340D01*
X13457244Y-11225988D01*
X13457244Y-11225987D01*
X13457244Y-11225987D01*
X13472679Y-11218123D01*
X13486693Y-11207941D01*
X13498941Y-11195693D01*
X13509123Y-11181679D01*
X13516987Y-11166245D01*
X13516987Y-11166244D01*
X13516988Y-11166244D01*
X13522340Y-11149771D01*
X13522340Y-11149770D01*
X13525050Y-11132661D01*
X13525050Y-11115339D01*
X13558950Y-11115339D01*
X13558950Y-11132661D01*
X13561660Y-11149770D01*
X13561660Y-11149771D01*
X13567012Y-11166244D01*
X13567012Y-11166244D01*
X13567013Y-11166244D01*
X13567013Y-11166245D01*
X13574877Y-11181679D01*
X13585059Y-11195693D01*
X13597307Y-11207941D01*
X13611321Y-11218123D01*
X13626755Y-11225987D01*
X13626756Y-11225987D01*
X13626756Y-11225987D01*
X13626756Y-11225988D01*
X13643229Y-11231340D01*
X13643230Y-11231340D01*
X13660339Y-11234050D01*
X13660339Y-11234050D01*
X13677661Y-11234050D01*
X13694770Y-11231340D01*
X13694771Y-11231340D01*
X13711244Y-11225988D01*
X13711244Y-11225987D01*
X13711244Y-11225987D01*
X13726679Y-11218123D01*
X13740693Y-11207941D01*
X13752941Y-11195693D01*
X13763123Y-11181679D01*
X13770987Y-11166245D01*
X13770987Y-11166244D01*
X13770988Y-11166244D01*
X13776340Y-11149771D01*
X13776340Y-11149770D01*
X13779050Y-11132661D01*
X13779050Y-11115339D01*
X13812950Y-11115339D01*
X13812950Y-11132661D01*
X13815660Y-11149770D01*
X13815660Y-11149771D01*
X13821012Y-11166244D01*
X13821012Y-11166244D01*
X13821013Y-11166244D01*
X13821013Y-11166245D01*
X13828877Y-11181679D01*
X13839059Y-11195693D01*
X13851307Y-11207941D01*
X13865321Y-11218123D01*
X13880755Y-11225987D01*
X13880756Y-11225987D01*
X13880756Y-11225987D01*
X13880756Y-11225988D01*
X13897229Y-11231340D01*
X13897230Y-11231340D01*
X13914339Y-11234050D01*
X13914339Y-11234050D01*
X13931661Y-11234050D01*
X13948770Y-11231340D01*
X13948771Y-11231340D01*
X13965244Y-11225988D01*
X13965244Y-11225987D01*
X13965244Y-11225987D01*
X13980679Y-11218123D01*
X13994693Y-11207941D01*
X14006941Y-11195693D01*
X14017123Y-11181679D01*
X14024987Y-11166245D01*
X14024987Y-11166244D01*
X14024988Y-11166244D01*
X14030340Y-11149771D01*
X14030340Y-11149770D01*
X14033050Y-11132661D01*
X14033050Y-11115339D01*
X14066950Y-11115339D01*
X14066950Y-11132661D01*
X14069660Y-11149770D01*
X14069660Y-11149771D01*
X14075012Y-11166244D01*
X14075012Y-11166244D01*
X14075013Y-11166244D01*
X14075013Y-11166245D01*
X14082877Y-11181679D01*
X14093059Y-11195693D01*
X14105307Y-11207941D01*
X14119321Y-11218123D01*
X14134755Y-11225987D01*
X14134756Y-11225987D01*
X14134756Y-11225987D01*
X14134756Y-11225988D01*
X14151229Y-11231340D01*
X14151230Y-11231340D01*
X14168339Y-11234050D01*
X14168339Y-11234050D01*
X14185661Y-11234050D01*
X14202770Y-11231340D01*
X14202771Y-11231340D01*
X14219244Y-11225988D01*
X14219244Y-11225987D01*
X14219244Y-11225987D01*
X14234679Y-11218123D01*
X14248693Y-11207941D01*
X14260941Y-11195693D01*
X14271123Y-11181679D01*
X14278987Y-11166245D01*
X14278987Y-11166244D01*
X14278988Y-11166244D01*
X14284340Y-11149771D01*
X14284340Y-11149770D01*
X14287050Y-11132661D01*
X14287050Y-11115339D01*
X14320950Y-11115339D01*
X14320950Y-11132661D01*
X14323660Y-11149770D01*
X14323660Y-11149771D01*
X14329012Y-11166244D01*
X14329012Y-11166244D01*
X14329013Y-11166244D01*
X14329013Y-11166245D01*
X14336877Y-11181679D01*
X14347059Y-11195693D01*
X14359307Y-11207941D01*
X14373321Y-11218123D01*
X14388755Y-11225987D01*
X14388756Y-11225987D01*
X14388756Y-11225987D01*
X14388756Y-11225988D01*
X14405229Y-11231340D01*
X14405230Y-11231340D01*
X14422339Y-11234050D01*
X14422339Y-11234050D01*
X14439661Y-11234050D01*
X14456770Y-11231340D01*
X14456771Y-11231340D01*
X14473244Y-11225988D01*
X14473244Y-11225987D01*
X14473244Y-11225987D01*
X14488679Y-11218123D01*
X14502693Y-11207941D01*
X14514941Y-11195693D01*
X14525123Y-11181679D01*
X14532987Y-11166245D01*
X14532987Y-11166244D01*
X14532988Y-11166244D01*
X14538340Y-11149771D01*
X14538340Y-11149770D01*
X14541050Y-11132661D01*
X14541050Y-11115339D01*
X15082950Y-11115339D01*
X15082950Y-11132661D01*
X15085660Y-11149770D01*
X15085660Y-11149771D01*
X15091012Y-11166244D01*
X15091012Y-11166244D01*
X15091013Y-11166244D01*
X15091013Y-11166245D01*
X15098877Y-11181679D01*
X15109059Y-11195693D01*
X15121307Y-11207941D01*
X15135321Y-11218123D01*
X15150755Y-11225987D01*
X15150756Y-11225987D01*
X15150756Y-11225987D01*
X15150756Y-11225988D01*
X15167229Y-11231340D01*
X15167230Y-11231340D01*
X15184339Y-11234050D01*
X15184339Y-11234050D01*
X15201661Y-11234050D01*
X15218770Y-11231340D01*
X15218771Y-11231340D01*
X15235244Y-11225988D01*
X15235244Y-11225987D01*
X15235244Y-11225987D01*
X15250679Y-11218123D01*
X15264693Y-11207941D01*
X15276941Y-11195693D01*
X15287123Y-11181679D01*
X15294987Y-11166245D01*
X15294987Y-11166244D01*
X15294988Y-11166244D01*
X15300340Y-11149771D01*
X15300340Y-11149770D01*
X15303050Y-11132661D01*
X15303050Y-11115339D01*
X15590950Y-11115339D01*
X15590950Y-11132661D01*
X15593660Y-11149770D01*
X15593660Y-11149771D01*
X15599012Y-11166244D01*
X15599012Y-11166244D01*
X15599013Y-11166244D01*
X15599013Y-11166245D01*
X15606877Y-11181679D01*
X15617059Y-11195693D01*
X15629307Y-11207941D01*
X15643321Y-11218123D01*
X15658755Y-11225987D01*
X15658756Y-11225987D01*
X15658756Y-11225987D01*
X15658756Y-11225988D01*
X15675229Y-11231340D01*
X15675230Y-11231340D01*
X15692339Y-11234050D01*
X15692339Y-11234050D01*
X15709661Y-11234050D01*
X15726770Y-11231340D01*
X15726771Y-11231340D01*
X15743244Y-11225988D01*
X15743244Y-11225987D01*
X15743244Y-11225987D01*
X15758679Y-11218123D01*
X15772693Y-11207941D01*
X15784941Y-11195693D01*
X15795123Y-11181679D01*
X15802987Y-11166245D01*
X15802987Y-11166244D01*
X15802988Y-11166244D01*
X15808340Y-11149771D01*
X15808340Y-11149770D01*
X15811050Y-11132661D01*
X15811050Y-11115339D01*
X15844950Y-11115339D01*
X15844950Y-11132661D01*
X15847660Y-11149770D01*
X15847660Y-11149771D01*
X15853012Y-11166244D01*
X15853012Y-11166244D01*
X15853013Y-11166244D01*
X15853013Y-11166245D01*
X15860877Y-11181679D01*
X15871059Y-11195693D01*
X15883307Y-11207941D01*
X15897321Y-11218123D01*
X15912755Y-11225987D01*
X15912756Y-11225987D01*
X15912756Y-11225987D01*
X15912756Y-11225988D01*
X15929229Y-11231340D01*
X15929230Y-11231340D01*
X15946339Y-11234050D01*
X15946339Y-11234050D01*
X15963661Y-11234050D01*
X15980770Y-11231340D01*
X15980771Y-11231340D01*
X15997244Y-11225988D01*
X15997244Y-11225987D01*
X15997244Y-11225987D01*
X16012679Y-11218123D01*
X16026693Y-11207941D01*
X16038941Y-11195693D01*
X16049123Y-11181679D01*
X16056987Y-11166245D01*
X16056987Y-11166244D01*
X16056988Y-11166244D01*
X16062340Y-11149771D01*
X16062340Y-11149770D01*
X16065050Y-11132661D01*
X16065050Y-11115339D01*
X16098950Y-11115339D01*
X16098950Y-11132661D01*
X16101660Y-11149770D01*
X16101660Y-11149771D01*
X16107012Y-11166244D01*
X16107012Y-11166244D01*
X16107013Y-11166244D01*
X16107013Y-11166245D01*
X16114877Y-11181679D01*
X16125059Y-11195693D01*
X16137307Y-11207941D01*
X16151321Y-11218123D01*
X16166755Y-11225987D01*
X16166756Y-11225987D01*
X16166756Y-11225987D01*
X16166756Y-11225988D01*
X16183229Y-11231340D01*
X16183230Y-11231340D01*
X16200339Y-11234050D01*
X16200339Y-11234050D01*
X16217661Y-11234050D01*
X16234770Y-11231340D01*
X16234771Y-11231340D01*
X16251244Y-11225988D01*
X16251244Y-11225987D01*
X16251244Y-11225987D01*
X16266679Y-11218123D01*
X16280693Y-11207941D01*
X16292941Y-11195693D01*
X16303123Y-11181679D01*
X16310987Y-11166245D01*
X16310987Y-11166244D01*
X16310988Y-11166244D01*
X16316340Y-11149771D01*
X16316340Y-11149770D01*
X16319050Y-11132661D01*
X16319050Y-11115339D01*
X16352950Y-11115339D01*
X16352950Y-11132661D01*
X16355660Y-11149770D01*
X16355660Y-11149771D01*
X16361012Y-11166244D01*
X16361012Y-11166244D01*
X16361013Y-11166244D01*
X16361013Y-11166245D01*
X16368877Y-11181679D01*
X16379059Y-11195693D01*
X16391307Y-11207941D01*
X16405321Y-11218123D01*
X16420755Y-11225987D01*
X16420756Y-11225987D01*
X16420756Y-11225987D01*
X16420756Y-11225988D01*
X16437229Y-11231340D01*
X16437230Y-11231340D01*
X16454339Y-11234050D01*
X16454339Y-11234050D01*
X16471661Y-11234050D01*
X16488770Y-11231340D01*
X16488771Y-11231340D01*
X16505244Y-11225988D01*
X16505244Y-11225987D01*
X16505244Y-11225987D01*
X16520679Y-11218123D01*
X16534693Y-11207941D01*
X16546941Y-11195693D01*
X16557123Y-11181679D01*
X16564987Y-11166245D01*
X16564987Y-11166244D01*
X16564988Y-11166244D01*
X16570340Y-11149771D01*
X16570340Y-11149770D01*
X16573050Y-11132661D01*
X16573050Y-11115339D01*
X16606950Y-11115339D01*
X16606950Y-11132661D01*
X16609660Y-11149770D01*
X16609660Y-11149771D01*
X16615012Y-11166244D01*
X16615012Y-11166244D01*
X16615013Y-11166244D01*
X16615013Y-11166245D01*
X16622877Y-11181679D01*
X16633059Y-11195693D01*
X16645307Y-11207941D01*
X16659321Y-11218123D01*
X16674755Y-11225987D01*
X16674756Y-11225987D01*
X16674756Y-11225987D01*
X16674756Y-11225988D01*
X16691229Y-11231340D01*
X16691230Y-11231340D01*
X16708339Y-11234050D01*
X16708339Y-11234050D01*
X16725661Y-11234050D01*
X16742770Y-11231340D01*
X16742771Y-11231340D01*
X16759244Y-11225988D01*
X16759244Y-11225987D01*
X16759244Y-11225987D01*
X16774679Y-11218123D01*
X16788693Y-11207941D01*
X16800941Y-11195693D01*
X16811123Y-11181679D01*
X16818987Y-11166245D01*
X16818987Y-11166244D01*
X16818988Y-11166244D01*
X16824340Y-11149771D01*
X16824340Y-11149770D01*
X16827050Y-11132661D01*
X16827050Y-11115339D01*
X16860950Y-11115339D01*
X16860950Y-11132661D01*
X16863660Y-11149770D01*
X16863660Y-11149771D01*
X16869012Y-11166244D01*
X16869013Y-11166244D01*
X16869013Y-11166244D01*
X16869013Y-11166245D01*
X16876877Y-11181679D01*
X16887059Y-11195693D01*
X16899307Y-11207941D01*
X16913321Y-11218123D01*
X16928756Y-11225987D01*
X16928756Y-11225987D01*
X16928756Y-11225987D01*
X16928756Y-11225988D01*
X16945229Y-11231340D01*
X16945230Y-11231340D01*
X16962339Y-11234050D01*
X16962339Y-11234050D01*
X16979661Y-11234050D01*
X16996770Y-11231340D01*
X16996771Y-11231340D01*
X17013244Y-11225988D01*
X17013244Y-11225987D01*
X17013245Y-11225987D01*
X17028679Y-11218123D01*
X17042693Y-11207941D01*
X17054941Y-11195693D01*
X17065123Y-11181679D01*
X17072987Y-11166245D01*
X17072987Y-11166244D01*
X17072988Y-11166244D01*
X17078340Y-11149771D01*
X17078340Y-11149770D01*
X17081050Y-11132661D01*
X17081050Y-11115339D01*
X17078340Y-11098230D01*
X17078340Y-11098229D01*
X17072988Y-11081756D01*
X17072987Y-11081756D01*
X17072987Y-11081756D01*
X17072987Y-11081756D01*
X17065123Y-11066321D01*
X17054941Y-11052307D01*
X17042693Y-11040059D01*
X17028679Y-11029877D01*
X17028679Y-11029877D01*
X17028679Y-11029877D01*
X17013244Y-11022013D01*
X17013244Y-11022012D01*
X16996771Y-11016660D01*
X16996770Y-11016660D01*
X16979661Y-11013950D01*
X16979661Y-11013950D01*
X16962339Y-11013950D01*
X16962339Y-11013950D01*
X16945230Y-11016660D01*
X16945229Y-11016660D01*
X16928756Y-11022012D01*
X16928756Y-11022013D01*
X16913321Y-11029877D01*
X16899307Y-11040059D01*
X16887059Y-11052307D01*
X16876877Y-11066321D01*
X16869013Y-11081756D01*
X16869012Y-11081756D01*
X16863660Y-11098229D01*
X16863660Y-11098230D01*
X16860950Y-11115339D01*
X16827050Y-11115339D01*
X16824340Y-11098230D01*
X16824340Y-11098229D01*
X16818988Y-11081756D01*
X16818987Y-11081756D01*
X16818987Y-11081756D01*
X16818987Y-11081756D01*
X16811123Y-11066321D01*
X16800941Y-11052307D01*
X16788693Y-11040059D01*
X16774679Y-11029877D01*
X16774679Y-11029877D01*
X16774678Y-11029877D01*
X16759244Y-11022013D01*
X16759244Y-11022012D01*
X16742771Y-11016660D01*
X16742770Y-11016660D01*
X16725661Y-11013950D01*
X16725661Y-11013950D01*
X16708339Y-11013950D01*
X16708339Y-11013950D01*
X16691230Y-11016660D01*
X16691229Y-11016660D01*
X16674756Y-11022012D01*
X16674756Y-11022013D01*
X16659321Y-11029877D01*
X16645307Y-11040059D01*
X16633058Y-11052307D01*
X16622877Y-11066321D01*
X16615012Y-11081756D01*
X16615012Y-11081756D01*
X16609660Y-11098229D01*
X16609660Y-11098230D01*
X16606950Y-11115339D01*
X16573050Y-11115339D01*
X16570340Y-11098230D01*
X16570340Y-11098229D01*
X16564988Y-11081756D01*
X16564987Y-11081756D01*
X16564987Y-11081756D01*
X16564987Y-11081756D01*
X16557123Y-11066321D01*
X16546941Y-11052307D01*
X16534693Y-11040059D01*
X16520679Y-11029877D01*
X16520679Y-11029877D01*
X16520678Y-11029877D01*
X16505244Y-11022013D01*
X16505244Y-11022012D01*
X16488771Y-11016660D01*
X16488770Y-11016660D01*
X16471661Y-11013950D01*
X16471661Y-11013950D01*
X16454339Y-11013950D01*
X16454339Y-11013950D01*
X16437230Y-11016660D01*
X16437229Y-11016660D01*
X16420756Y-11022012D01*
X16420756Y-11022013D01*
X16405321Y-11029877D01*
X16391307Y-11040059D01*
X16379058Y-11052307D01*
X16368877Y-11066321D01*
X16361012Y-11081756D01*
X16361012Y-11081756D01*
X16355660Y-11098229D01*
X16355660Y-11098230D01*
X16352950Y-11115339D01*
X16319050Y-11115339D01*
X16316340Y-11098230D01*
X16316340Y-11098229D01*
X16310988Y-11081756D01*
X16310987Y-11081756D01*
X16310987Y-11081756D01*
X16310987Y-11081756D01*
X16303123Y-11066321D01*
X16292941Y-11052307D01*
X16280693Y-11040059D01*
X16266679Y-11029877D01*
X16266679Y-11029877D01*
X16266678Y-11029877D01*
X16251244Y-11022013D01*
X16251244Y-11022012D01*
X16234771Y-11016660D01*
X16234770Y-11016660D01*
X16217661Y-11013950D01*
X16217661Y-11013950D01*
X16200339Y-11013950D01*
X16200339Y-11013950D01*
X16183230Y-11016660D01*
X16183229Y-11016660D01*
X16166756Y-11022012D01*
X16166756Y-11022013D01*
X16151321Y-11029877D01*
X16137307Y-11040059D01*
X16125058Y-11052307D01*
X16114877Y-11066321D01*
X16107012Y-11081756D01*
X16107012Y-11081756D01*
X16101660Y-11098229D01*
X16101660Y-11098230D01*
X16098950Y-11115339D01*
X16065050Y-11115339D01*
X16062340Y-11098230D01*
X16062340Y-11098229D01*
X16056988Y-11081756D01*
X16056987Y-11081756D01*
X16056987Y-11081756D01*
X16056987Y-11081756D01*
X16049123Y-11066321D01*
X16038941Y-11052307D01*
X16026693Y-11040059D01*
X16012679Y-11029877D01*
X16012679Y-11029877D01*
X16012678Y-11029877D01*
X15997244Y-11022013D01*
X15997244Y-11022012D01*
X15980771Y-11016660D01*
X15980770Y-11016660D01*
X15963661Y-11013950D01*
X15963661Y-11013950D01*
X15946339Y-11013950D01*
X15946339Y-11013950D01*
X15929230Y-11016660D01*
X15929229Y-11016660D01*
X15912756Y-11022012D01*
X15912756Y-11022013D01*
X15897321Y-11029877D01*
X15883307Y-11040059D01*
X15871058Y-11052307D01*
X15860877Y-11066321D01*
X15853012Y-11081756D01*
X15853012Y-11081756D01*
X15847660Y-11098229D01*
X15847660Y-11098230D01*
X15844950Y-11115339D01*
X15811050Y-11115339D01*
X15808340Y-11098230D01*
X15808340Y-11098229D01*
X15802988Y-11081756D01*
X15802987Y-11081756D01*
X15802987Y-11081756D01*
X15802987Y-11081756D01*
X15795123Y-11066321D01*
X15784941Y-11052307D01*
X15772693Y-11040059D01*
X15758679Y-11029877D01*
X15758679Y-11029877D01*
X15758678Y-11029877D01*
X15743244Y-11022013D01*
X15743244Y-11022012D01*
X15726771Y-11016660D01*
X15726770Y-11016660D01*
X15709661Y-11013950D01*
X15709661Y-11013950D01*
X15692339Y-11013950D01*
X15692339Y-11013950D01*
X15675230Y-11016660D01*
X15675229Y-11016660D01*
X15658756Y-11022012D01*
X15658756Y-11022013D01*
X15643321Y-11029877D01*
X15629307Y-11040059D01*
X15617058Y-11052307D01*
X15606877Y-11066321D01*
X15599012Y-11081756D01*
X15599012Y-11081756D01*
X15593660Y-11098229D01*
X15593660Y-11098230D01*
X15590950Y-11115339D01*
X15303050Y-11115339D01*
X15300340Y-11098230D01*
X15300340Y-11098229D01*
X15294988Y-11081756D01*
X15294987Y-11081756D01*
X15294987Y-11081756D01*
X15294987Y-11081756D01*
X15287123Y-11066321D01*
X15276941Y-11052307D01*
X15264693Y-11040059D01*
X15250679Y-11029877D01*
X15250679Y-11029877D01*
X15250678Y-11029877D01*
X15235244Y-11022013D01*
X15235244Y-11022012D01*
X15218771Y-11016660D01*
X15218770Y-11016660D01*
X15201661Y-11013950D01*
X15201661Y-11013950D01*
X15184339Y-11013950D01*
X15184339Y-11013950D01*
X15167230Y-11016660D01*
X15167229Y-11016660D01*
X15150756Y-11022012D01*
X15150756Y-11022013D01*
X15135321Y-11029877D01*
X15121307Y-11040059D01*
X15109058Y-11052307D01*
X15098877Y-11066321D01*
X15091012Y-11081756D01*
X15091012Y-11081756D01*
X15085660Y-11098229D01*
X15085660Y-11098230D01*
X15082950Y-11115339D01*
X14541050Y-11115339D01*
X14538340Y-11098230D01*
X14538340Y-11098229D01*
X14532988Y-11081756D01*
X14532987Y-11081756D01*
X14532987Y-11081756D01*
X14532987Y-11081756D01*
X14525123Y-11066321D01*
X14514941Y-11052307D01*
X14502693Y-11040059D01*
X14488679Y-11029877D01*
X14488679Y-11029877D01*
X14488678Y-11029877D01*
X14473244Y-11022013D01*
X14473244Y-11022012D01*
X14456771Y-11016660D01*
X14456770Y-11016660D01*
X14439661Y-11013950D01*
X14439661Y-11013950D01*
X14422339Y-11013950D01*
X14422339Y-11013950D01*
X14405230Y-11016660D01*
X14405229Y-11016660D01*
X14388756Y-11022012D01*
X14388756Y-11022013D01*
X14373321Y-11029877D01*
X14359307Y-11040059D01*
X14347058Y-11052307D01*
X14336877Y-11066321D01*
X14329012Y-11081756D01*
X14329012Y-11081756D01*
X14323660Y-11098229D01*
X14323660Y-11098230D01*
X14320950Y-11115339D01*
X14287050Y-11115339D01*
X14284340Y-11098230D01*
X14284340Y-11098229D01*
X14278988Y-11081756D01*
X14278987Y-11081756D01*
X14278987Y-11081756D01*
X14278987Y-11081756D01*
X14271123Y-11066321D01*
X14260941Y-11052307D01*
X14248693Y-11040059D01*
X14234679Y-11029877D01*
X14234679Y-11029877D01*
X14234678Y-11029877D01*
X14219244Y-11022013D01*
X14219244Y-11022012D01*
X14202771Y-11016660D01*
X14202770Y-11016660D01*
X14185661Y-11013950D01*
X14185661Y-11013950D01*
X14168339Y-11013950D01*
X14168339Y-11013950D01*
X14151230Y-11016660D01*
X14151229Y-11016660D01*
X14134756Y-11022012D01*
X14134756Y-11022013D01*
X14119321Y-11029877D01*
X14105307Y-11040059D01*
X14093058Y-11052307D01*
X14082877Y-11066321D01*
X14075012Y-11081756D01*
X14075012Y-11081756D01*
X14069660Y-11098229D01*
X14069660Y-11098230D01*
X14066950Y-11115339D01*
X14033050Y-11115339D01*
X14030340Y-11098230D01*
X14030340Y-11098229D01*
X14024988Y-11081756D01*
X14024987Y-11081756D01*
X14024987Y-11081756D01*
X14024987Y-11081756D01*
X14017123Y-11066321D01*
X14006941Y-11052307D01*
X13994693Y-11040059D01*
X13980679Y-11029877D01*
X13980679Y-11029877D01*
X13980678Y-11029877D01*
X13965244Y-11022013D01*
X13965244Y-11022012D01*
X13948771Y-11016660D01*
X13948770Y-11016660D01*
X13931661Y-11013950D01*
X13931661Y-11013950D01*
X13914339Y-11013950D01*
X13914339Y-11013950D01*
X13897230Y-11016660D01*
X13897229Y-11016660D01*
X13880756Y-11022012D01*
X13880756Y-11022013D01*
X13865321Y-11029877D01*
X13851307Y-11040059D01*
X13839058Y-11052307D01*
X13828877Y-11066321D01*
X13821012Y-11081756D01*
X13821012Y-11081756D01*
X13815660Y-11098229D01*
X13815660Y-11098230D01*
X13812950Y-11115339D01*
X13779050Y-11115339D01*
X13776340Y-11098230D01*
X13776340Y-11098229D01*
X13770988Y-11081756D01*
X13770987Y-11081756D01*
X13770987Y-11081756D01*
X13770987Y-11081756D01*
X13763123Y-11066321D01*
X13752941Y-11052307D01*
X13740693Y-11040059D01*
X13726679Y-11029877D01*
X13726679Y-11029877D01*
X13726678Y-11029877D01*
X13711244Y-11022013D01*
X13711244Y-11022012D01*
X13694771Y-11016660D01*
X13694770Y-11016660D01*
X13677661Y-11013950D01*
X13677661Y-11013950D01*
X13660339Y-11013950D01*
X13660339Y-11013950D01*
X13643230Y-11016660D01*
X13643229Y-11016660D01*
X13626756Y-11022012D01*
X13626756Y-11022013D01*
X13611321Y-11029877D01*
X13597307Y-11040059D01*
X13585058Y-11052307D01*
X13574877Y-11066321D01*
X13567012Y-11081756D01*
X13567012Y-11081756D01*
X13561660Y-11098229D01*
X13561660Y-11098230D01*
X13558950Y-11115339D01*
X13525050Y-11115339D01*
X13522340Y-11098230D01*
X13522340Y-11098229D01*
X13516988Y-11081756D01*
X13516987Y-11081756D01*
X13516987Y-11081756D01*
X13516987Y-11081756D01*
X13509123Y-11066321D01*
X13498941Y-11052307D01*
X13486693Y-11040059D01*
X13472679Y-11029877D01*
X13472679Y-11029877D01*
X13472678Y-11029877D01*
X13457244Y-11022013D01*
X13457244Y-11022012D01*
X13440771Y-11016660D01*
X13440770Y-11016660D01*
X13423661Y-11013950D01*
X13423661Y-11013950D01*
X13406339Y-11013950D01*
X13406339Y-11013950D01*
X13389230Y-11016660D01*
X13389229Y-11016660D01*
X13372756Y-11022012D01*
X13372756Y-11022013D01*
X13357321Y-11029877D01*
X13343307Y-11040059D01*
X13331058Y-11052307D01*
X13320877Y-11066321D01*
X13313012Y-11081756D01*
X13313012Y-11081756D01*
X13307660Y-11098229D01*
X13307660Y-11098230D01*
X13304950Y-11115339D01*
X12203050Y-11115339D01*
X12203050Y-11111871D01*
X12199884Y-11087821D01*
X12193605Y-11064390D01*
X12184322Y-11041979D01*
X12172194Y-11020971D01*
X12168885Y-11016660D01*
X12157427Y-11001727D01*
X12157427Y-11001727D01*
X12157426Y-11001726D01*
X12140274Y-10984574D01*
X12140273Y-10984573D01*
X12140273Y-10984573D01*
X12121029Y-10969807D01*
X12121029Y-10969806D01*
X12100021Y-10957678D01*
X12100021Y-10957677D01*
X12100020Y-10957677D01*
X12077610Y-10948395D01*
X12077610Y-10948395D01*
X12077610Y-10948395D01*
X12054179Y-10942116D01*
X12054179Y-10942116D01*
X12054178Y-10942116D01*
X12030129Y-10938950D01*
X12030129Y-10938950D01*
X12005871Y-10938950D01*
X12005871Y-10938950D01*
X11981822Y-10942116D01*
X11981821Y-10942116D01*
X11958391Y-10948394D01*
X11958389Y-10948395D01*
X11935979Y-10957677D01*
X11914971Y-10969807D01*
X11895727Y-10984573D01*
X11878573Y-11001727D01*
X11863807Y-11020971D01*
X11851677Y-11041980D01*
X11842395Y-11064389D01*
X11842394Y-11064391D01*
X11836116Y-11087821D01*
X11836116Y-11087822D01*
X11832950Y-11111871D01*
X10648050Y-11111871D01*
X10648050Y-10603871D01*
X17039950Y-10603871D01*
X17039950Y-10628129D01*
X17043116Y-10652178D01*
X17043116Y-10652179D01*
X17049394Y-10675609D01*
X17049395Y-10675611D01*
X17058677Y-10698020D01*
X17058677Y-10698021D01*
X17058678Y-10698021D01*
X17070806Y-10719029D01*
X17070807Y-10719029D01*
X17085573Y-10738273D01*
X17085573Y-10738273D01*
X17085574Y-10738274D01*
X17102726Y-10755427D01*
X17102727Y-10755427D01*
X17102727Y-10755427D01*
X17121971Y-10770193D01*
X17121971Y-10770194D01*
X17142979Y-10782322D01*
X17165390Y-10791605D01*
X17188821Y-10797884D01*
X17212871Y-10801050D01*
X17212871Y-10801050D01*
X17237129Y-10801050D01*
X17237129Y-10801050D01*
X17261179Y-10797884D01*
X17284610Y-10791605D01*
X17307021Y-10782322D01*
X17328029Y-10770194D01*
X17347274Y-10755427D01*
X17364427Y-10738274D01*
X17379194Y-10719029D01*
X17391322Y-10698021D01*
X17400605Y-10675610D01*
X17406884Y-10652179D01*
X17410050Y-10628129D01*
X17410050Y-10603871D01*
X17406884Y-10579821D01*
X17400605Y-10556390D01*
X17391322Y-10533979D01*
X17379194Y-10512971D01*
X17366028Y-10495813D01*
X17364427Y-10493727D01*
X17364427Y-10493727D01*
X17364427Y-10493726D01*
X17347274Y-10476574D01*
X17347273Y-10476573D01*
X17347273Y-10476573D01*
X17328029Y-10461807D01*
X17328029Y-10461806D01*
X17307021Y-10449678D01*
X17307021Y-10449677D01*
X17307020Y-10449677D01*
X17284611Y-10440395D01*
X17284610Y-10440395D01*
X17284610Y-10440395D01*
X17261179Y-10434116D01*
X17261179Y-10434116D01*
X17261178Y-10434116D01*
X17237129Y-10430950D01*
X17237129Y-10430950D01*
X17212871Y-10430950D01*
X17212871Y-10430950D01*
X17188822Y-10434116D01*
X17188821Y-10434116D01*
X17165391Y-10440394D01*
X17165389Y-10440395D01*
X17142980Y-10449677D01*
X17121971Y-10461807D01*
X17102727Y-10476573D01*
X17085573Y-10493727D01*
X17070807Y-10512971D01*
X17058677Y-10533980D01*
X17049395Y-10556389D01*
X17049394Y-10556391D01*
X17043116Y-10579821D01*
X17043116Y-10579822D01*
X17039950Y-10603871D01*
X10648050Y-10603871D01*
X10648050Y-10280513D01*
X11534950Y-10280513D01*
X11534950Y-10459486D01*
X11534950Y-10459486D01*
X11535241Y-10461999D01*
X11537776Y-10467739D01*
X11539779Y-10472277D01*
X11547723Y-10480221D01*
X11558001Y-10484759D01*
X11560513Y-10485050D01*
X11739486Y-10485050D01*
X11741999Y-10484759D01*
X11752276Y-10480221D01*
X11760221Y-10472277D01*
X11764758Y-10461999D01*
X11765050Y-10459487D01*
X11765050Y-10458593D01*
X13634950Y-10458593D01*
X13634950Y-10471407D01*
X13637450Y-10483974D01*
X13637450Y-10483975D01*
X13642353Y-10495813D01*
X13642354Y-10495813D01*
X13646636Y-10502223D01*
X13649472Y-10506467D01*
X13658533Y-10515528D01*
X13664885Y-10519772D01*
X13669187Y-10522646D01*
X13669187Y-10522646D01*
X13669187Y-10522647D01*
X13681026Y-10527550D01*
X13693593Y-10530050D01*
X13693593Y-10530050D01*
X13706407Y-10530050D01*
X13706407Y-10530050D01*
X13718974Y-10527550D01*
X13730813Y-10522647D01*
X13741467Y-10515528D01*
X13750528Y-10506467D01*
X13757646Y-10495813D01*
X13762550Y-10483974D01*
X13765050Y-10471407D01*
X13765050Y-10458593D01*
X13762550Y-10446026D01*
X13757646Y-10434187D01*
X13757646Y-10434187D01*
X13757646Y-10434187D01*
X13754772Y-10429885D01*
X13750528Y-10423533D01*
X13741467Y-10414472D01*
X13737223Y-10411637D01*
X13730813Y-10407354D01*
X13730812Y-10407353D01*
X13718975Y-10402450D01*
X13718974Y-10402450D01*
X13718974Y-10402450D01*
X13706407Y-10399950D01*
X13693593Y-10399950D01*
X13693593Y-10399950D01*
X13687309Y-10401200D01*
X13681026Y-10402450D01*
X13681025Y-10402450D01*
X13681025Y-10402450D01*
X13669187Y-10407353D01*
X13669187Y-10407354D01*
X13658533Y-10414472D01*
X13658533Y-10414473D01*
X13649473Y-10423533D01*
X13649472Y-10423533D01*
X13642354Y-10434187D01*
X13642353Y-10434187D01*
X13637450Y-10446025D01*
X13637450Y-10446026D01*
X13634950Y-10458593D01*
X11765050Y-10458593D01*
X11765050Y-10280514D01*
X11764758Y-10278001D01*
X11760221Y-10267724D01*
X11752276Y-10259779D01*
X11741999Y-10255242D01*
X11741999Y-10255241D01*
X11741999Y-10255241D01*
X11739487Y-10254950D01*
X11560514Y-10254950D01*
X11560514Y-10254950D01*
X11558001Y-10255241D01*
X11547723Y-10259779D01*
X11539779Y-10267724D01*
X11535241Y-10278001D01*
X11534950Y-10280513D01*
X10648050Y-10280513D01*
X10648050Y-10243593D01*
X13629950Y-10243593D01*
X13629950Y-10256407D01*
X13632450Y-10268974D01*
X13632450Y-10268975D01*
X13637353Y-10280813D01*
X13637354Y-10280813D01*
X13641636Y-10287223D01*
X13644472Y-10291467D01*
X13653533Y-10300528D01*
X13659885Y-10304772D01*
X13664187Y-10307646D01*
X13664187Y-10307646D01*
X13664187Y-10307647D01*
X13676026Y-10312550D01*
X13688593Y-10315050D01*
X13688593Y-10315050D01*
X13701407Y-10315050D01*
X13701407Y-10315050D01*
X13713974Y-10312550D01*
X13725813Y-10307647D01*
X13736467Y-10300528D01*
X13745528Y-10291467D01*
X13752646Y-10280813D01*
X13757550Y-10268974D01*
X13760050Y-10256407D01*
X13760050Y-10243593D01*
X13757550Y-10231026D01*
X13752646Y-10219187D01*
X13752646Y-10219187D01*
X13752646Y-10219187D01*
X13749772Y-10214885D01*
X13745528Y-10208533D01*
X13736467Y-10199472D01*
X13732223Y-10196637D01*
X13725813Y-10192354D01*
X13725812Y-10192353D01*
X13713975Y-10187450D01*
X13713974Y-10187450D01*
X13713974Y-10187450D01*
X13701407Y-10184950D01*
X13688593Y-10184950D01*
X13688593Y-10184950D01*
X13682309Y-10186200D01*
X13676026Y-10187450D01*
X13676025Y-10187450D01*
X13676025Y-10187450D01*
X13664187Y-10192353D01*
X13664187Y-10192354D01*
X13653533Y-10199472D01*
X13653533Y-10199473D01*
X13644473Y-10208533D01*
X13644472Y-10208533D01*
X13637354Y-10219187D01*
X13637353Y-10219187D01*
X13632450Y-10231025D01*
X13632450Y-10231026D01*
X13629950Y-10243593D01*
X10648050Y-10243593D01*
X10648050Y-9847753D01*
X12824950Y-9847753D01*
X12824950Y-9862248D01*
X12827909Y-9873290D01*
X12828702Y-9876249D01*
X12835949Y-9888801D01*
X12835949Y-9888801D01*
X12835949Y-9888802D01*
X12846198Y-9899051D01*
X12846199Y-9899051D01*
X12846199Y-9899051D01*
X12858751Y-9906298D01*
X12858751Y-9906298D01*
X12858751Y-9906298D01*
X12872752Y-9910050D01*
X12872753Y-9910050D01*
X12887247Y-9910050D01*
X12887247Y-9910050D01*
X12901248Y-9906298D01*
X12901249Y-9906298D01*
X12901249Y-9906298D01*
X12913801Y-9899051D01*
X12913801Y-9899051D01*
X12913801Y-9899051D01*
X12924051Y-9888802D01*
X12931298Y-9876249D01*
X12935050Y-9862248D01*
X12935050Y-9847753D01*
X12931298Y-9833752D01*
X12931298Y-9833751D01*
X12931298Y-9833751D01*
X12924051Y-9821199D01*
X12924051Y-9821199D01*
X12924051Y-9821199D01*
X12913801Y-9810949D01*
X12913801Y-9810949D01*
X12913331Y-9810677D01*
X12913330Y-9810677D01*
X12901249Y-9803702D01*
X12901249Y-9803702D01*
X12898290Y-9802909D01*
X12897707Y-9802753D01*
X13154950Y-9802753D01*
X13154950Y-9817247D01*
X13158702Y-9831249D01*
X13165949Y-9843801D01*
X13165949Y-9843801D01*
X13165949Y-9843802D01*
X13176198Y-9854051D01*
X13176199Y-9854051D01*
X13176199Y-9854051D01*
X13188751Y-9861298D01*
X13188751Y-9861298D01*
X13188751Y-9861298D01*
X13202752Y-9865050D01*
X13202753Y-9865050D01*
X13217247Y-9865050D01*
X13217247Y-9865050D01*
X13231248Y-9861298D01*
X13231249Y-9861298D01*
X13231249Y-9861298D01*
X13243801Y-9854051D01*
X13243801Y-9854051D01*
X13243801Y-9854051D01*
X13254051Y-9843802D01*
X13261298Y-9831249D01*
X13265050Y-9817248D01*
X13265050Y-9802753D01*
X13261298Y-9788752D01*
X13261298Y-9788751D01*
X13261298Y-9788751D01*
X13254051Y-9776199D01*
X13254051Y-9776199D01*
X13254051Y-9776199D01*
X13243801Y-9765949D01*
X13243801Y-9765949D01*
X13243801Y-9765949D01*
X13231249Y-9758702D01*
X13231249Y-9758702D01*
X13228290Y-9757909D01*
X13217247Y-9754950D01*
X13202752Y-9754950D01*
X13196579Y-9756604D01*
X13188751Y-9758702D01*
X13176199Y-9765949D01*
X13165949Y-9776199D01*
X13158702Y-9788751D01*
X13154950Y-9802753D01*
X12897707Y-9802753D01*
X12887247Y-9799950D01*
X12872752Y-9799950D01*
X12867906Y-9801249D01*
X12858751Y-9803702D01*
X12846199Y-9810949D01*
X12835949Y-9821199D01*
X12828702Y-9833751D01*
X12826009Y-9843801D01*
X12824950Y-9847753D01*
X10648050Y-9847753D01*
X10648050Y-9772753D01*
X12504950Y-9772753D01*
X12504950Y-9787247D01*
X12508702Y-9801249D01*
X12515949Y-9813801D01*
X12515949Y-9813801D01*
X12515949Y-9813802D01*
X12526198Y-9824051D01*
X12526199Y-9824051D01*
X12526199Y-9824051D01*
X12538751Y-9831298D01*
X12538751Y-9831298D01*
X12538751Y-9831298D01*
X12552752Y-9835050D01*
X12552753Y-9835050D01*
X12567247Y-9835050D01*
X12567247Y-9835050D01*
X12581248Y-9831298D01*
X12581249Y-9831298D01*
X12581249Y-9831298D01*
X12593801Y-9824051D01*
X12593801Y-9824051D01*
X12593801Y-9824051D01*
X12604051Y-9813802D01*
X12604051Y-9813801D01*
X12611298Y-9801249D01*
X12611298Y-9801249D01*
X12611298Y-9801249D01*
X12615050Y-9787248D01*
X12615050Y-9772753D01*
X12611298Y-9758752D01*
X12611298Y-9758751D01*
X12611298Y-9758751D01*
X12604051Y-9746199D01*
X12604051Y-9746199D01*
X12604051Y-9746199D01*
X12593801Y-9735949D01*
X12593801Y-9735949D01*
X12593801Y-9735949D01*
X12581249Y-9728702D01*
X12581249Y-9728702D01*
X12578290Y-9727909D01*
X12567247Y-9724950D01*
X12552752Y-9724950D01*
X12546579Y-9726604D01*
X12538751Y-9728702D01*
X12526199Y-9735949D01*
X12515949Y-9746199D01*
X12508702Y-9758751D01*
X12504950Y-9772753D01*
X10648050Y-9772753D01*
X10648050Y-9637753D01*
X11849950Y-9637753D01*
X11849950Y-9652247D01*
X11853702Y-9666249D01*
X11860949Y-9678801D01*
X11860949Y-9678801D01*
X11860949Y-9678802D01*
X11871198Y-9689051D01*
X11871199Y-9689051D01*
X11871199Y-9689051D01*
X11883751Y-9696298D01*
X11883751Y-9696298D01*
X11883751Y-9696298D01*
X11897752Y-9700050D01*
X11897753Y-9700050D01*
X11912247Y-9700050D01*
X11912247Y-9700050D01*
X11926248Y-9696298D01*
X11926249Y-9696298D01*
X11926249Y-9696298D01*
X11938801Y-9689051D01*
X11938801Y-9689051D01*
X11938801Y-9689051D01*
X11949051Y-9678802D01*
X11949051Y-9678801D01*
X11956298Y-9666249D01*
X11956298Y-9666249D01*
X11956298Y-9666249D01*
X11959915Y-9652753D01*
X12224950Y-9652753D01*
X12224950Y-9667247D01*
X12228702Y-9681249D01*
X12235949Y-9693801D01*
X12235949Y-9693801D01*
X12235949Y-9693802D01*
X12246198Y-9704051D01*
X12246199Y-9704051D01*
X12246199Y-9704051D01*
X12258751Y-9711298D01*
X12258751Y-9711298D01*
X12258751Y-9711298D01*
X12272752Y-9715050D01*
X12272753Y-9715050D01*
X12287247Y-9715050D01*
X12287247Y-9715050D01*
X12301248Y-9711298D01*
X12301249Y-9711298D01*
X12301249Y-9711298D01*
X12313801Y-9704051D01*
X12313801Y-9704051D01*
X12313801Y-9704051D01*
X12324051Y-9693802D01*
X12331298Y-9681249D01*
X12335050Y-9667248D01*
X12335050Y-9652753D01*
X12331298Y-9638752D01*
X12331298Y-9638751D01*
X12331298Y-9638751D01*
X12324051Y-9626199D01*
X12324051Y-9626199D01*
X12324051Y-9626199D01*
X12313801Y-9615949D01*
X12313801Y-9615949D01*
X12313801Y-9615949D01*
X12301249Y-9608702D01*
X12301249Y-9608702D01*
X12298290Y-9607909D01*
X12287247Y-9604950D01*
X12272752Y-9604950D01*
X12266579Y-9606604D01*
X12258751Y-9608702D01*
X12246199Y-9615949D01*
X12235949Y-9626199D01*
X12228702Y-9638751D01*
X12224950Y-9652753D01*
X11959915Y-9652753D01*
X11960050Y-9652248D01*
X11960050Y-9637753D01*
X11956298Y-9623752D01*
X11956298Y-9623751D01*
X11956298Y-9623751D01*
X11949051Y-9611199D01*
X11949051Y-9611199D01*
X11949051Y-9611199D01*
X11938801Y-9600949D01*
X11938801Y-9600949D01*
X11938801Y-9600949D01*
X11926249Y-9593702D01*
X11926249Y-9593702D01*
X11923290Y-9592909D01*
X11912247Y-9589950D01*
X11897752Y-9589950D01*
X11891579Y-9591604D01*
X11883751Y-9593702D01*
X11871199Y-9600949D01*
X11860949Y-9611199D01*
X11853702Y-9623751D01*
X11849950Y-9637753D01*
X10648050Y-9637753D01*
X10648050Y-9572753D01*
X11544950Y-9572753D01*
X11544950Y-9587248D01*
X11546679Y-9593702D01*
X11548702Y-9601249D01*
X11555949Y-9613801D01*
X11555949Y-9613801D01*
X11555949Y-9613802D01*
X11566198Y-9624051D01*
X11566199Y-9624051D01*
X11566199Y-9624051D01*
X11578751Y-9631298D01*
X11578751Y-9631298D01*
X11578751Y-9631298D01*
X11592752Y-9635050D01*
X11592753Y-9635050D01*
X11607247Y-9635050D01*
X11607247Y-9635050D01*
X11621248Y-9631298D01*
X11621249Y-9631298D01*
X11621249Y-9631298D01*
X11626044Y-9628530D01*
X11633801Y-9624051D01*
X11633801Y-9624051D01*
X11633801Y-9624051D01*
X11644051Y-9613802D01*
X11645553Y-9611199D01*
X11651298Y-9601249D01*
X11651298Y-9601249D01*
X11651298Y-9601249D01*
X11655050Y-9587248D01*
X11655050Y-9572753D01*
X11651298Y-9558752D01*
X11646972Y-9551258D01*
X11645700Y-9545273D01*
X11648188Y-9539683D01*
X11648543Y-9539309D01*
X11654051Y-9533802D01*
X11654051Y-9533801D01*
X11661298Y-9521249D01*
X11661298Y-9521249D01*
X11661298Y-9521249D01*
X11665050Y-9507248D01*
X11665050Y-9492753D01*
X11661298Y-9478752D01*
X11661298Y-9478751D01*
X11661298Y-9478751D01*
X11654051Y-9466199D01*
X11654051Y-9466199D01*
X11654051Y-9466199D01*
X11643801Y-9455949D01*
X11643801Y-9455949D01*
X11643801Y-9455949D01*
X11631249Y-9448702D01*
X11631249Y-9448702D01*
X11628290Y-9447909D01*
X11617247Y-9444950D01*
X11602752Y-9444950D01*
X11596579Y-9446604D01*
X11588751Y-9448702D01*
X11576199Y-9455949D01*
X11565949Y-9466199D01*
X11558702Y-9478751D01*
X11554950Y-9492753D01*
X11554950Y-9507247D01*
X11558702Y-9521249D01*
X11563028Y-9528742D01*
X11564300Y-9534727D01*
X11561812Y-9540317D01*
X11561455Y-9540693D01*
X11555949Y-9546198D01*
X11555949Y-9546199D01*
X11548702Y-9558751D01*
X11548702Y-9558752D01*
X11544950Y-9572753D01*
X10648050Y-9572753D01*
X10648050Y-9397753D01*
X11849950Y-9397753D01*
X11849950Y-9412248D01*
X11852909Y-9423290D01*
X11853702Y-9426249D01*
X11860949Y-9438801D01*
X11860949Y-9438801D01*
X11860949Y-9438802D01*
X11871198Y-9449051D01*
X11871199Y-9449051D01*
X11871199Y-9449051D01*
X11883751Y-9456298D01*
X11883751Y-9456298D01*
X11883751Y-9456298D01*
X11897752Y-9460050D01*
X11897753Y-9460050D01*
X11912247Y-9460050D01*
X11912247Y-9460050D01*
X11926248Y-9456298D01*
X11926249Y-9456298D01*
X11926249Y-9456298D01*
X11938801Y-9449051D01*
X11938801Y-9449051D01*
X11938801Y-9449051D01*
X11949051Y-9438802D01*
X11951938Y-9433802D01*
X11956298Y-9426249D01*
X11956298Y-9426249D01*
X11956298Y-9426249D01*
X11960050Y-9412248D01*
X11960050Y-9397753D01*
X11958710Y-9392753D01*
X12204950Y-9392753D01*
X12204950Y-9407247D01*
X12208702Y-9421249D01*
X12215949Y-9433801D01*
X12215949Y-9433801D01*
X12215949Y-9433802D01*
X12226198Y-9444051D01*
X12226199Y-9444051D01*
X12226199Y-9444051D01*
X12238751Y-9451298D01*
X12238751Y-9451298D01*
X12238751Y-9451298D01*
X12252752Y-9455050D01*
X12252753Y-9455050D01*
X12267247Y-9455050D01*
X12267247Y-9455050D01*
X12281248Y-9451298D01*
X12281249Y-9451298D01*
X12281249Y-9451298D01*
X12293801Y-9444051D01*
X12293801Y-9444051D01*
X12293801Y-9444051D01*
X12304051Y-9433802D01*
X12308411Y-9426249D01*
X12311298Y-9421249D01*
X12311298Y-9421249D01*
X12311298Y-9421249D01*
X12315050Y-9407248D01*
X12315050Y-9392753D01*
X12311298Y-9378752D01*
X12311298Y-9378751D01*
X12311298Y-9378751D01*
X12304051Y-9366199D01*
X12304051Y-9366199D01*
X12304051Y-9366199D01*
X12293801Y-9355949D01*
X12293801Y-9355949D01*
X12293801Y-9355949D01*
X12281249Y-9348702D01*
X12281249Y-9348702D01*
X12278290Y-9347909D01*
X12267247Y-9344950D01*
X12252752Y-9344950D01*
X12246579Y-9346604D01*
X12238751Y-9348702D01*
X12226199Y-9355949D01*
X12215949Y-9366199D01*
X12208702Y-9378751D01*
X12204950Y-9392753D01*
X11958710Y-9392753D01*
X11956298Y-9383752D01*
X11956298Y-9383751D01*
X11956298Y-9383751D01*
X11949051Y-9371199D01*
X11949051Y-9371199D01*
X11949051Y-9371199D01*
X11938801Y-9360949D01*
X11938801Y-9360949D01*
X11938801Y-9360949D01*
X11926249Y-9353702D01*
X11926249Y-9353702D01*
X11923290Y-9352909D01*
X11912247Y-9349950D01*
X11897752Y-9349950D01*
X11891579Y-9351604D01*
X11883751Y-9353702D01*
X11871199Y-9360949D01*
X11860949Y-9371199D01*
X11853702Y-9383751D01*
X11850777Y-9394666D01*
X11849950Y-9397753D01*
X10648050Y-9397753D01*
X10648050Y-9082753D01*
X12014950Y-9082753D01*
X12014950Y-9097248D01*
X12016425Y-9102753D01*
X12018702Y-9111249D01*
X12025949Y-9123801D01*
X12025949Y-9123801D01*
X12025949Y-9123802D01*
X12036198Y-9134051D01*
X12036199Y-9134051D01*
X12036199Y-9134051D01*
X12048751Y-9141298D01*
X12048751Y-9141298D01*
X12048751Y-9141298D01*
X12062752Y-9145050D01*
X12062753Y-9145050D01*
X12077247Y-9145050D01*
X12077247Y-9145050D01*
X12091248Y-9141298D01*
X12091249Y-9141298D01*
X12091249Y-9141298D01*
X12103801Y-9134051D01*
X12103801Y-9134051D01*
X12103801Y-9134051D01*
X12114051Y-9123802D01*
X12121298Y-9111249D01*
X12125050Y-9097248D01*
X12125050Y-9082753D01*
X12384950Y-9082753D01*
X12384950Y-9097248D01*
X12386425Y-9102753D01*
X12388702Y-9111249D01*
X12395949Y-9123801D01*
X12395949Y-9123801D01*
X12395949Y-9123802D01*
X12406198Y-9134051D01*
X12406199Y-9134051D01*
X12406199Y-9134051D01*
X12418751Y-9141298D01*
X12418751Y-9141298D01*
X12418751Y-9141298D01*
X12432752Y-9145050D01*
X12432753Y-9145050D01*
X12447247Y-9145050D01*
X12447247Y-9145050D01*
X12461248Y-9141298D01*
X12461249Y-9141298D01*
X12461249Y-9141298D01*
X12473801Y-9134051D01*
X12473801Y-9134051D01*
X12473801Y-9134051D01*
X12484051Y-9123802D01*
X12491298Y-9111249D01*
X12493575Y-9102753D01*
X14724950Y-9102753D01*
X14724950Y-9117247D01*
X14728702Y-9131249D01*
X14735949Y-9143801D01*
X14735949Y-9143801D01*
X14735949Y-9143802D01*
X14746198Y-9154051D01*
X14746199Y-9154051D01*
X14746199Y-9154051D01*
X14758751Y-9161298D01*
X14758751Y-9161298D01*
X14758751Y-9161298D01*
X14772752Y-9165050D01*
X14772753Y-9165050D01*
X14787247Y-9165050D01*
X14787247Y-9165050D01*
X14801248Y-9161298D01*
X14801249Y-9161298D01*
X14801249Y-9161298D01*
X14813801Y-9154051D01*
X14813801Y-9154051D01*
X14813801Y-9154051D01*
X14824051Y-9143802D01*
X14829680Y-9134051D01*
X14831298Y-9131249D01*
X14831298Y-9131249D01*
X14831298Y-9131249D01*
X14835050Y-9117248D01*
X14835050Y-9102753D01*
X14831298Y-9088752D01*
X14831298Y-9088751D01*
X14831298Y-9088751D01*
X14824051Y-9076199D01*
X14824051Y-9076199D01*
X14824051Y-9076199D01*
X14813801Y-9065949D01*
X14813801Y-9065949D01*
X14813801Y-9065949D01*
X14801249Y-9058702D01*
X14801249Y-9058702D01*
X14798290Y-9057909D01*
X14787247Y-9054950D01*
X14772752Y-9054950D01*
X14768093Y-9056199D01*
X14758751Y-9058702D01*
X14746199Y-9065949D01*
X14735949Y-9076199D01*
X14728702Y-9088751D01*
X14724950Y-9102753D01*
X12493575Y-9102753D01*
X12495050Y-9097248D01*
X12495050Y-9082753D01*
X12491298Y-9068752D01*
X12491298Y-9068751D01*
X12491298Y-9068751D01*
X12484051Y-9056199D01*
X12484051Y-9056199D01*
X12484051Y-9056199D01*
X12473801Y-9045949D01*
X12473801Y-9045949D01*
X12473801Y-9045949D01*
X12461249Y-9038702D01*
X12461249Y-9038702D01*
X12458290Y-9037909D01*
X12447247Y-9034950D01*
X12432752Y-9034950D01*
X12426579Y-9036604D01*
X12418751Y-9038702D01*
X12406199Y-9045949D01*
X12395949Y-9056199D01*
X12388702Y-9068751D01*
X12384950Y-9082753D01*
X12125050Y-9082753D01*
X12121298Y-9068752D01*
X12121298Y-9068751D01*
X12121298Y-9068751D01*
X12114051Y-9056199D01*
X12114051Y-9056199D01*
X12114051Y-9056199D01*
X12103801Y-9045949D01*
X12103801Y-9045949D01*
X12103801Y-9045949D01*
X12091249Y-9038702D01*
X12091249Y-9038702D01*
X12088290Y-9037909D01*
X12077247Y-9034950D01*
X12062752Y-9034950D01*
X12056579Y-9036604D01*
X12048751Y-9038702D01*
X12036199Y-9045949D01*
X12025949Y-9056199D01*
X12018702Y-9068751D01*
X12014950Y-9082753D01*
X10648050Y-9082753D01*
X10648050Y-8972753D01*
X12314950Y-8972753D01*
X12314950Y-8987247D01*
X12318702Y-9001249D01*
X12325949Y-9013801D01*
X12325949Y-9013801D01*
X12325949Y-9013802D01*
X12336198Y-9024051D01*
X12336199Y-9024051D01*
X12336199Y-9024051D01*
X12348751Y-9031298D01*
X12348751Y-9031298D01*
X12348751Y-9031298D01*
X12362752Y-9035050D01*
X12362753Y-9035050D01*
X12377247Y-9035050D01*
X12377247Y-9035050D01*
X12391248Y-9031298D01*
X12391249Y-9031298D01*
X12391249Y-9031298D01*
X12403801Y-9024051D01*
X12403801Y-9024051D01*
X12403801Y-9024051D01*
X12414051Y-9013802D01*
X12419680Y-9004051D01*
X12420430Y-9002753D01*
X14809950Y-9002753D01*
X14809950Y-9017247D01*
X14813702Y-9031249D01*
X14820949Y-9043801D01*
X14820949Y-9043801D01*
X14820949Y-9043802D01*
X14831198Y-9054051D01*
X14831199Y-9054051D01*
X14831199Y-9054051D01*
X14843751Y-9061298D01*
X14843751Y-9061298D01*
X14843751Y-9061298D01*
X14857752Y-9065050D01*
X14857753Y-9065050D01*
X14872247Y-9065050D01*
X14872247Y-9065050D01*
X14886248Y-9061298D01*
X14886249Y-9061298D01*
X14886249Y-9061298D01*
X14892525Y-9057675D01*
X14898801Y-9054051D01*
X14898802Y-9054050D01*
X14898973Y-9053919D01*
X14899119Y-9053867D01*
X14899363Y-9053727D01*
X14899390Y-9053772D01*
X14904741Y-9051877D01*
X14910607Y-9053614D01*
X14911027Y-9053919D01*
X14911199Y-9054051D01*
X14923751Y-9061298D01*
X14923751Y-9061298D01*
X14923751Y-9061298D01*
X14937752Y-9065050D01*
X14937753Y-9065050D01*
X14952247Y-9065050D01*
X14952247Y-9065050D01*
X14966248Y-9061298D01*
X14966249Y-9061298D01*
X14966249Y-9061298D01*
X14978801Y-9054051D01*
X14978801Y-9054051D01*
X14978801Y-9054051D01*
X14989051Y-9043802D01*
X14991995Y-9038702D01*
X14996298Y-9031249D01*
X14996298Y-9031249D01*
X14996298Y-9031249D01*
X15000050Y-9017248D01*
X15000050Y-9002753D01*
X14996298Y-8988752D01*
X14996298Y-8988751D01*
X14996298Y-8988751D01*
X14989051Y-8976199D01*
X14989051Y-8976199D01*
X14989051Y-8976199D01*
X14978801Y-8965949D01*
X14978801Y-8965949D01*
X14978801Y-8965949D01*
X14969671Y-8960677D01*
X14969670Y-8960677D01*
X14966249Y-8958702D01*
X14959248Y-8956826D01*
X14952247Y-8954950D01*
X14937752Y-8954950D01*
X14931579Y-8956604D01*
X14923751Y-8958702D01*
X14911198Y-8965949D01*
X14911026Y-8966081D01*
X14910880Y-8966133D01*
X14910636Y-8966274D01*
X14910610Y-8966228D01*
X14905258Y-8968123D01*
X14899392Y-8966385D01*
X14898974Y-8966081D01*
X14898802Y-8965949D01*
X14886249Y-8958702D01*
X14886249Y-8958702D01*
X14883290Y-8957909D01*
X14872247Y-8954950D01*
X14857752Y-8954950D01*
X14851579Y-8956604D01*
X14843751Y-8958702D01*
X14831199Y-8965949D01*
X14820949Y-8976199D01*
X14813702Y-8988751D01*
X14809950Y-9002753D01*
X12420430Y-9002753D01*
X12421298Y-9001249D01*
X12421298Y-9001249D01*
X12421298Y-9001249D01*
X12425050Y-8987248D01*
X12425050Y-8972753D01*
X12421298Y-8958752D01*
X12421298Y-8958751D01*
X12421298Y-8958751D01*
X12414051Y-8946199D01*
X12414051Y-8946199D01*
X12414051Y-8946199D01*
X12403801Y-8935949D01*
X12403801Y-8935949D01*
X12403801Y-8935949D01*
X12391249Y-8928702D01*
X12391249Y-8928702D01*
X12388290Y-8927909D01*
X12377247Y-8924950D01*
X12362752Y-8924950D01*
X12358093Y-8926199D01*
X12348751Y-8928702D01*
X12336199Y-8935949D01*
X12325949Y-8946199D01*
X12318702Y-8958751D01*
X12314950Y-8972753D01*
X10648050Y-8972753D01*
X10648050Y-8857753D01*
X12134950Y-8857753D01*
X12134950Y-8872248D01*
X12136239Y-8877059D01*
X12138702Y-8886249D01*
X12145949Y-8898801D01*
X12145949Y-8898801D01*
X12145949Y-8898802D01*
X12156198Y-8909051D01*
X12156199Y-8909051D01*
X12156199Y-8909051D01*
X12168751Y-8916298D01*
X12168751Y-8916298D01*
X12168751Y-8916298D01*
X12182752Y-8920050D01*
X12182753Y-8920050D01*
X12197247Y-8920050D01*
X12197247Y-8920050D01*
X12211248Y-8916298D01*
X12211249Y-8916298D01*
X12211249Y-8916298D01*
X12223801Y-8909051D01*
X12223801Y-8909051D01*
X12223801Y-8909051D01*
X12230050Y-8902803D01*
X14504950Y-8902803D01*
X14504950Y-8917298D01*
X14507000Y-8924950D01*
X14508702Y-8931299D01*
X14515949Y-8943851D01*
X14515949Y-8943851D01*
X14515949Y-8943852D01*
X14526198Y-8954101D01*
X14526199Y-8954101D01*
X14526199Y-8954101D01*
X14538751Y-8961348D01*
X14538751Y-8961348D01*
X14538751Y-8961348D01*
X14552752Y-8965100D01*
X14552753Y-8965100D01*
X14567247Y-8965100D01*
X14567247Y-8965100D01*
X14581248Y-8961348D01*
X14581249Y-8961348D01*
X14581249Y-8961348D01*
X14593801Y-8954101D01*
X14593801Y-8954101D01*
X14593801Y-8954101D01*
X14595150Y-8952753D01*
X15564950Y-8952753D01*
X15564950Y-8967248D01*
X15567909Y-8978290D01*
X15568702Y-8981249D01*
X15575949Y-8993801D01*
X15575949Y-8993801D01*
X15575949Y-8993802D01*
X15586198Y-9004051D01*
X15586199Y-9004051D01*
X15586199Y-9004051D01*
X15598751Y-9011298D01*
X15598751Y-9011298D01*
X15598751Y-9011298D01*
X15612752Y-9015050D01*
X15612753Y-9015050D01*
X15627247Y-9015050D01*
X15627247Y-9015050D01*
X15641248Y-9011298D01*
X15641249Y-9011298D01*
X15641249Y-9011298D01*
X15653801Y-9004051D01*
X15653801Y-9004051D01*
X15653801Y-9004051D01*
X15664051Y-8993802D01*
X15671298Y-8981249D01*
X15675050Y-8967248D01*
X15675050Y-8952753D01*
X15671298Y-8938752D01*
X15671298Y-8938751D01*
X15671298Y-8938751D01*
X15664051Y-8926199D01*
X15664051Y-8926199D01*
X15664051Y-8926199D01*
X15653801Y-8915949D01*
X15653801Y-8915949D01*
X15653801Y-8915949D01*
X15641249Y-8908702D01*
X15641249Y-8908702D01*
X15638290Y-8907909D01*
X15627247Y-8904950D01*
X15612752Y-8904950D01*
X15606579Y-8906604D01*
X15598751Y-8908702D01*
X15586199Y-8915949D01*
X15575949Y-8926199D01*
X15568702Y-8938751D01*
X15566679Y-8946298D01*
X15564950Y-8952753D01*
X14595150Y-8952753D01*
X14604051Y-8943852D01*
X14606822Y-8939051D01*
X14611298Y-8931299D01*
X14611298Y-8931299D01*
X14611298Y-8931299D01*
X14615050Y-8917298D01*
X14615050Y-8902803D01*
X14611298Y-8888802D01*
X14610693Y-8887753D01*
X14649950Y-8887753D01*
X14649950Y-8902248D01*
X14651679Y-8908702D01*
X14653702Y-8916249D01*
X14660949Y-8928801D01*
X14660949Y-8928801D01*
X14660949Y-8928802D01*
X14671198Y-8939051D01*
X14671199Y-8939051D01*
X14671199Y-8939051D01*
X14683751Y-8946298D01*
X14683751Y-8946298D01*
X14683751Y-8946298D01*
X14697752Y-8950050D01*
X14697753Y-8950050D01*
X14712247Y-8950050D01*
X14712247Y-8950050D01*
X14726248Y-8946298D01*
X14726249Y-8946298D01*
X14726249Y-8946298D01*
X14738801Y-8939051D01*
X14738801Y-8939051D01*
X14738801Y-8939051D01*
X14749051Y-8928802D01*
X14750553Y-8926199D01*
X14756298Y-8916249D01*
X14756298Y-8916249D01*
X14756298Y-8916249D01*
X14760050Y-8902248D01*
X14760050Y-8894945D01*
X16894950Y-8894945D01*
X16894950Y-8913055D01*
X16897783Y-8930941D01*
X16903379Y-8948164D01*
X16910097Y-8961348D01*
X16911600Y-8964299D01*
X16922245Y-8978950D01*
X16935050Y-8991755D01*
X16949701Y-9002400D01*
X16965836Y-9010621D01*
X16983059Y-9016217D01*
X16989564Y-9017247D01*
X17000945Y-9019050D01*
X17000945Y-9019050D01*
X17019055Y-9019050D01*
X17027998Y-9017634D01*
X17036941Y-9016217D01*
X17054164Y-9010621D01*
X17070299Y-9002400D01*
X17084950Y-8991755D01*
X17097755Y-8978950D01*
X17108400Y-8964299D01*
X17116621Y-8948164D01*
X17122217Y-8930941D01*
X17123634Y-8921998D01*
X17125050Y-8913055D01*
X17125050Y-8894945D01*
X17122533Y-8879051D01*
X17122217Y-8877059D01*
X17116621Y-8859836D01*
X17108400Y-8843701D01*
X17097755Y-8829050D01*
X17084950Y-8816245D01*
X17070299Y-8805600D01*
X17070299Y-8805600D01*
X17070299Y-8805600D01*
X17054164Y-8797379D01*
X17036941Y-8791783D01*
X17019055Y-8788950D01*
X17019055Y-8788950D01*
X17000945Y-8788950D01*
X17000945Y-8788950D01*
X16983059Y-8791783D01*
X16965836Y-8797379D01*
X16949701Y-8805600D01*
X16942375Y-8810923D01*
X16935050Y-8816245D01*
X16922245Y-8829050D01*
X16921267Y-8830396D01*
X16911600Y-8843701D01*
X16903379Y-8859836D01*
X16897783Y-8877059D01*
X16894950Y-8894945D01*
X14760050Y-8894945D01*
X14760050Y-8887753D01*
X14759980Y-8887492D01*
X14759990Y-8887299D01*
X14759965Y-8887109D01*
X14760000Y-8887104D01*
X14760300Y-8881382D01*
X14764151Y-8876627D01*
X14770061Y-8875043D01*
X14772105Y-8875367D01*
X14780252Y-8877550D01*
X14780252Y-8877550D01*
X14780252Y-8877550D01*
X14794747Y-8877550D01*
X14794747Y-8877550D01*
X14808748Y-8873798D01*
X14808749Y-8873798D01*
X14808749Y-8873798D01*
X14821301Y-8866551D01*
X14821301Y-8866551D01*
X14821301Y-8866551D01*
X14831551Y-8856302D01*
X14834641Y-8850949D01*
X14838798Y-8843749D01*
X14838798Y-8843749D01*
X14838798Y-8843749D01*
X14842550Y-8829748D01*
X14842550Y-8815253D01*
X14838798Y-8801252D01*
X14838798Y-8801251D01*
X14838798Y-8801251D01*
X14831551Y-8788699D01*
X14831551Y-8788699D01*
X14831551Y-8788699D01*
X14821301Y-8778449D01*
X14821301Y-8778449D01*
X14821301Y-8778449D01*
X14808749Y-8771202D01*
X14808749Y-8771202D01*
X14805790Y-8770409D01*
X14794747Y-8767450D01*
X14780252Y-8767450D01*
X14774079Y-8769104D01*
X14766251Y-8771202D01*
X14753699Y-8778449D01*
X14743449Y-8788699D01*
X14736202Y-8801251D01*
X14732450Y-8815253D01*
X14732450Y-8829748D01*
X14732520Y-8830009D01*
X14732510Y-8830202D01*
X14732535Y-8830391D01*
X14732500Y-8830396D01*
X14732199Y-8836119D01*
X14728349Y-8840874D01*
X14722438Y-8842457D01*
X14720395Y-8842133D01*
X14712247Y-8839950D01*
X14697752Y-8839950D01*
X14694306Y-8840874D01*
X14683751Y-8843702D01*
X14671199Y-8850949D01*
X14660949Y-8861199D01*
X14653702Y-8873751D01*
X14652684Y-8877550D01*
X14649950Y-8887753D01*
X14610693Y-8887753D01*
X14610542Y-8887492D01*
X14604051Y-8876249D01*
X14604051Y-8876249D01*
X14604051Y-8876249D01*
X14593801Y-8865999D01*
X14593801Y-8865999D01*
X14593801Y-8865999D01*
X14581249Y-8858752D01*
X14581249Y-8858752D01*
X14578290Y-8857959D01*
X14567247Y-8855000D01*
X14552752Y-8855000D01*
X14548093Y-8856249D01*
X14538751Y-8858752D01*
X14526199Y-8865999D01*
X14515949Y-8876249D01*
X14508702Y-8888801D01*
X14506022Y-8898802D01*
X14504950Y-8902803D01*
X12230050Y-8902803D01*
X12234051Y-8898802D01*
X12240692Y-8887299D01*
X12241298Y-8886249D01*
X12241298Y-8886249D01*
X12241298Y-8886249D01*
X12245050Y-8872248D01*
X12245050Y-8857753D01*
X12241298Y-8843752D01*
X12241298Y-8843751D01*
X12241298Y-8843751D01*
X12234051Y-8831199D01*
X12234051Y-8831199D01*
X12234051Y-8831199D01*
X12223801Y-8820949D01*
X12223801Y-8820949D01*
X12223801Y-8820949D01*
X12211249Y-8813702D01*
X12211249Y-8813702D01*
X12208290Y-8812909D01*
X12197247Y-8809950D01*
X12182752Y-8809950D01*
X12176579Y-8811604D01*
X12168751Y-8813702D01*
X12156199Y-8820949D01*
X12145949Y-8831199D01*
X12138702Y-8843751D01*
X12138702Y-8843752D01*
X12134950Y-8857753D01*
X10648050Y-8857753D01*
X10648050Y-8737753D01*
X13439950Y-8737753D01*
X13439950Y-8752247D01*
X13443702Y-8766249D01*
X13450949Y-8778801D01*
X13450949Y-8778801D01*
X13450949Y-8778802D01*
X13457647Y-8785500D01*
X13460425Y-8790951D01*
X13459468Y-8796994D01*
X13457647Y-8799500D01*
X13455949Y-8801198D01*
X13448702Y-8813751D01*
X13448702Y-8813752D01*
X13444950Y-8827753D01*
X13444950Y-8842248D01*
X13445340Y-8843702D01*
X13448702Y-8856249D01*
X13455949Y-8868801D01*
X13455949Y-8868801D01*
X13455949Y-8868802D01*
X13466198Y-8879051D01*
X13466199Y-8879051D01*
X13466199Y-8879051D01*
X13478751Y-8886298D01*
X13478751Y-8886298D01*
X13478751Y-8886298D01*
X13492752Y-8890050D01*
X13492753Y-8890050D01*
X13507247Y-8890050D01*
X13507247Y-8890050D01*
X13521248Y-8886298D01*
X13521249Y-8886298D01*
X13521249Y-8886298D01*
X13533801Y-8879051D01*
X13533801Y-8879051D01*
X13533801Y-8879051D01*
X13544051Y-8868802D01*
X13548440Y-8861199D01*
X13551298Y-8856249D01*
X13551298Y-8856249D01*
X13551298Y-8856249D01*
X13555050Y-8842248D01*
X13555050Y-8827753D01*
X13551298Y-8813752D01*
X13551298Y-8813751D01*
X13551298Y-8813751D01*
X13544051Y-8801199D01*
X13544051Y-8801198D01*
X13537353Y-8794500D01*
X13534575Y-8789049D01*
X13535532Y-8783005D01*
X13537353Y-8780500D01*
X13539051Y-8778802D01*
X13546298Y-8766249D01*
X13550050Y-8752248D01*
X13550050Y-8737753D01*
X13546298Y-8723752D01*
X13546298Y-8723751D01*
X13546298Y-8723751D01*
X13539051Y-8711199D01*
X13539051Y-8711199D01*
X13539051Y-8711199D01*
X13528801Y-8700949D01*
X13528801Y-8700949D01*
X13528801Y-8700949D01*
X13516249Y-8693702D01*
X13516249Y-8693702D01*
X13513290Y-8692909D01*
X13502247Y-8689950D01*
X13487752Y-8689950D01*
X13481579Y-8691604D01*
X13473751Y-8693702D01*
X13461199Y-8700949D01*
X13450949Y-8711199D01*
X13443702Y-8723751D01*
X13439950Y-8737753D01*
X10648050Y-8737753D01*
X10648050Y-8619753D01*
X13734950Y-8619753D01*
X13734950Y-8634248D01*
X13737909Y-8645290D01*
X13738702Y-8648249D01*
X13745949Y-8660801D01*
X13745949Y-8660801D01*
X13745949Y-8660802D01*
X13756198Y-8671051D01*
X13756199Y-8671051D01*
X13756199Y-8671051D01*
X13768751Y-8678298D01*
X13768751Y-8678298D01*
X13768751Y-8678298D01*
X13782752Y-8682050D01*
X13782753Y-8682050D01*
X13797247Y-8682050D01*
X13797247Y-8682050D01*
X13811248Y-8678298D01*
X13811249Y-8678298D01*
X13811249Y-8678298D01*
X13823801Y-8671051D01*
X13823801Y-8671051D01*
X13823801Y-8671051D01*
X13834051Y-8660802D01*
X13835059Y-8659055D01*
X13841298Y-8648249D01*
X13841298Y-8648249D01*
X13841298Y-8648249D01*
X13845050Y-8634248D01*
X13845050Y-8619753D01*
X13841298Y-8605752D01*
X13841298Y-8605751D01*
X13841298Y-8605751D01*
X13834051Y-8593199D01*
X13834051Y-8593199D01*
X13834051Y-8593199D01*
X13823801Y-8582949D01*
X13823801Y-8582949D01*
X13823801Y-8582949D01*
X13811249Y-8575702D01*
X13811249Y-8575702D01*
X13808290Y-8574909D01*
X13797247Y-8571950D01*
X13782752Y-8571950D01*
X13776579Y-8573604D01*
X13768751Y-8575702D01*
X13756199Y-8582949D01*
X13745949Y-8593199D01*
X13738702Y-8605751D01*
X13734950Y-8619753D01*
X10648050Y-8619753D01*
X10648050Y-8537753D01*
X14444950Y-8537753D01*
X14444950Y-8552248D01*
X14445340Y-8553702D01*
X14448702Y-8566249D01*
X14455949Y-8578801D01*
X14455949Y-8578801D01*
X14455949Y-8578802D01*
X14465124Y-8587977D01*
X14467902Y-8593428D01*
X14467687Y-8597539D01*
X14464950Y-8607753D01*
X14464950Y-8622247D01*
X14468702Y-8636249D01*
X14475949Y-8648801D01*
X14475949Y-8648801D01*
X14475949Y-8648802D01*
X14486198Y-8659051D01*
X14486199Y-8659051D01*
X14486199Y-8659051D01*
X14498751Y-8666298D01*
X14498751Y-8666298D01*
X14498751Y-8666298D01*
X14512752Y-8670050D01*
X14512753Y-8670050D01*
X14527247Y-8670050D01*
X14527247Y-8670050D01*
X14541248Y-8666298D01*
X14541249Y-8666298D01*
X14541249Y-8666298D01*
X14553801Y-8659051D01*
X14553801Y-8659051D01*
X14553801Y-8659051D01*
X14564051Y-8648802D01*
X14564051Y-8648801D01*
X14571298Y-8636249D01*
X14571298Y-8636249D01*
X14571298Y-8636249D01*
X14575050Y-8622248D01*
X14575050Y-8612753D01*
X14604950Y-8612753D01*
X14604950Y-8627248D01*
X14607909Y-8638290D01*
X14608702Y-8641249D01*
X14615949Y-8653801D01*
X14615949Y-8653801D01*
X14615949Y-8653802D01*
X14626198Y-8664051D01*
X14626199Y-8664051D01*
X14626199Y-8664051D01*
X14638751Y-8671298D01*
X14638751Y-8671298D01*
X14638751Y-8671298D01*
X14652752Y-8675050D01*
X14652753Y-8675050D01*
X14667247Y-8675050D01*
X14667247Y-8675050D01*
X14681248Y-8671298D01*
X14681249Y-8671298D01*
X14681249Y-8671298D01*
X14693801Y-8664051D01*
X14693801Y-8664051D01*
X14693801Y-8664051D01*
X14704051Y-8653802D01*
X14706938Y-8648802D01*
X14711298Y-8641249D01*
X14711298Y-8641249D01*
X14711298Y-8641249D01*
X14715050Y-8627248D01*
X14715050Y-8612753D01*
X14711298Y-8598752D01*
X14711298Y-8598751D01*
X14710722Y-8597753D01*
X15584950Y-8597753D01*
X15584950Y-8612247D01*
X15588702Y-8626249D01*
X15595949Y-8638801D01*
X15595949Y-8638801D01*
X15595949Y-8638802D01*
X15606198Y-8649051D01*
X15606199Y-8649051D01*
X15606199Y-8649051D01*
X15618751Y-8656298D01*
X15618751Y-8656298D01*
X15618751Y-8656298D01*
X15632752Y-8660050D01*
X15632753Y-8660050D01*
X15647247Y-8660050D01*
X15647247Y-8660050D01*
X15661248Y-8656298D01*
X15661249Y-8656298D01*
X15661249Y-8656298D01*
X15673801Y-8649051D01*
X15673801Y-8649051D01*
X15673801Y-8649051D01*
X15681907Y-8640945D01*
X16894950Y-8640945D01*
X16894950Y-8659055D01*
X16897783Y-8676941D01*
X16903379Y-8694164D01*
X16906836Y-8700949D01*
X16911600Y-8710299D01*
X16922245Y-8724950D01*
X16935050Y-8737755D01*
X16949701Y-8748400D01*
X16965836Y-8756621D01*
X16983059Y-8762217D01*
X16990214Y-8763350D01*
X17000945Y-8765050D01*
X17000945Y-8765050D01*
X17019055Y-8765050D01*
X17027998Y-8763634D01*
X17036941Y-8762217D01*
X17054164Y-8756621D01*
X17070299Y-8748400D01*
X17084950Y-8737755D01*
X17097755Y-8724950D01*
X17108400Y-8710299D01*
X17116621Y-8694164D01*
X17122217Y-8676941D01*
X17124259Y-8664051D01*
X17125050Y-8659055D01*
X17125050Y-8640945D01*
X17148950Y-8640945D01*
X17148950Y-8659055D01*
X17151783Y-8676941D01*
X17157379Y-8694164D01*
X17160836Y-8700949D01*
X17165600Y-8710299D01*
X17176245Y-8724950D01*
X17189050Y-8737755D01*
X17203701Y-8748400D01*
X17219836Y-8756621D01*
X17237059Y-8762217D01*
X17244214Y-8763350D01*
X17254945Y-8765050D01*
X17254945Y-8765050D01*
X17273055Y-8765050D01*
X17281998Y-8763634D01*
X17290941Y-8762217D01*
X17308164Y-8756621D01*
X17324299Y-8748400D01*
X17338950Y-8737755D01*
X17351755Y-8724950D01*
X17362400Y-8710299D01*
X17370621Y-8694164D01*
X17376217Y-8676941D01*
X17378259Y-8664051D01*
X17379050Y-8659055D01*
X17379050Y-8640945D01*
X17376881Y-8627248D01*
X17376217Y-8623059D01*
X17370621Y-8605836D01*
X17362400Y-8589701D01*
X17351755Y-8575050D01*
X17338950Y-8562245D01*
X17324299Y-8551600D01*
X17324299Y-8551600D01*
X17324299Y-8551600D01*
X17308164Y-8543379D01*
X17290941Y-8537783D01*
X17273055Y-8534950D01*
X17273055Y-8534950D01*
X17254945Y-8534950D01*
X17254945Y-8534950D01*
X17237059Y-8537783D01*
X17219836Y-8543379D01*
X17203701Y-8551600D01*
X17196375Y-8556923D01*
X17189050Y-8562245D01*
X17176245Y-8575050D01*
X17175592Y-8575949D01*
X17165600Y-8589701D01*
X17157379Y-8605836D01*
X17151783Y-8623059D01*
X17148950Y-8640945D01*
X17125050Y-8640945D01*
X17122881Y-8627248D01*
X17122217Y-8623059D01*
X17116621Y-8605836D01*
X17108400Y-8589701D01*
X17097755Y-8575050D01*
X17084950Y-8562245D01*
X17070299Y-8551600D01*
X17070299Y-8551600D01*
X17070299Y-8551600D01*
X17054164Y-8543379D01*
X17036941Y-8537783D01*
X17019055Y-8534950D01*
X17019055Y-8534950D01*
X17000945Y-8534950D01*
X17000945Y-8534950D01*
X16983059Y-8537783D01*
X16965836Y-8543379D01*
X16949701Y-8551600D01*
X16942375Y-8556923D01*
X16935050Y-8562245D01*
X16922245Y-8575050D01*
X16921592Y-8575949D01*
X16911600Y-8589701D01*
X16903379Y-8605836D01*
X16897783Y-8623059D01*
X16894950Y-8640945D01*
X15681907Y-8640945D01*
X15684051Y-8638802D01*
X15685195Y-8636819D01*
X15685896Y-8635606D01*
X15690722Y-8627247D01*
X15691298Y-8626249D01*
X15695050Y-8612248D01*
X15695050Y-8597753D01*
X15691298Y-8583752D01*
X15691298Y-8583751D01*
X15691298Y-8583751D01*
X15684051Y-8571199D01*
X15684051Y-8571199D01*
X15684051Y-8571199D01*
X15673801Y-8560949D01*
X15673801Y-8560949D01*
X15673801Y-8560949D01*
X15661249Y-8553702D01*
X15661249Y-8553702D01*
X15653407Y-8551600D01*
X15647247Y-8549950D01*
X15632752Y-8549950D01*
X15626594Y-8551600D01*
X15618751Y-8553702D01*
X15606199Y-8560949D01*
X15595949Y-8571199D01*
X15588702Y-8583751D01*
X15584950Y-8597753D01*
X14710722Y-8597753D01*
X14704051Y-8586199D01*
X14704051Y-8586199D01*
X14704051Y-8586199D01*
X14693801Y-8575949D01*
X14693801Y-8575949D01*
X14693801Y-8575949D01*
X14681249Y-8568702D01*
X14681249Y-8568702D01*
X14673299Y-8566572D01*
X14667247Y-8564950D01*
X14652752Y-8564950D01*
X14647906Y-8566249D01*
X14638751Y-8568702D01*
X14626199Y-8575949D01*
X14615949Y-8586199D01*
X14608702Y-8598751D01*
X14605085Y-8612247D01*
X14604950Y-8612753D01*
X14575050Y-8612753D01*
X14575050Y-8607753D01*
X14571298Y-8593752D01*
X14571298Y-8593751D01*
X14571298Y-8593751D01*
X14564051Y-8581199D01*
X14564051Y-8581199D01*
X14564051Y-8581199D01*
X14554875Y-8572023D01*
X14552098Y-8566572D01*
X14552313Y-8562461D01*
X14554660Y-8553702D01*
X14555050Y-8552248D01*
X14555050Y-8537753D01*
X14551298Y-8523752D01*
X14551298Y-8523751D01*
X14551298Y-8523751D01*
X14544051Y-8511199D01*
X14544051Y-8511199D01*
X14544051Y-8511199D01*
X14533801Y-8500949D01*
X14533801Y-8500949D01*
X14533801Y-8500949D01*
X14521249Y-8493702D01*
X14521249Y-8493702D01*
X14518290Y-8492909D01*
X14507247Y-8489950D01*
X14492752Y-8489950D01*
X14486579Y-8491604D01*
X14478751Y-8493702D01*
X14466199Y-8500949D01*
X14455949Y-8511199D01*
X14448702Y-8523751D01*
X14448702Y-8523752D01*
X14444950Y-8537753D01*
X10648050Y-8537753D01*
X10648050Y-8356423D01*
X11180450Y-8356423D01*
X11180450Y-8371577D01*
X11183777Y-8383994D01*
X11184372Y-8386214D01*
X11191948Y-8399336D01*
X11191948Y-8399336D01*
X11191948Y-8399337D01*
X11202663Y-8410052D01*
X11202664Y-8410052D01*
X11202664Y-8410052D01*
X11215786Y-8417628D01*
X11215786Y-8417628D01*
X11215786Y-8417628D01*
X11215786Y-8417628D01*
X11230423Y-8421550D01*
X11230424Y-8421550D01*
X11245576Y-8421550D01*
X11245577Y-8421550D01*
X11260213Y-8417628D01*
X11260214Y-8417628D01*
X11260214Y-8417628D01*
X11273336Y-8410052D01*
X11273336Y-8410052D01*
X11273336Y-8410052D01*
X11284051Y-8399337D01*
X11291206Y-8386945D01*
X16894950Y-8386945D01*
X16894950Y-8405055D01*
X16897783Y-8422941D01*
X16897783Y-8422941D01*
X16903379Y-8440164D01*
X16911600Y-8456299D01*
X16922245Y-8470950D01*
X16935050Y-8483755D01*
X16949701Y-8494400D01*
X16965836Y-8502621D01*
X16983059Y-8508217D01*
X16990214Y-8509350D01*
X17000945Y-8511050D01*
X17000945Y-8511050D01*
X17019055Y-8511050D01*
X17027998Y-8509634D01*
X17036941Y-8508217D01*
X17054164Y-8502621D01*
X17070299Y-8494400D01*
X17084950Y-8483755D01*
X17097755Y-8470950D01*
X17108400Y-8456299D01*
X17116621Y-8440164D01*
X17122217Y-8422941D01*
X17125050Y-8405055D01*
X17125050Y-8386945D01*
X17125050Y-8386945D01*
X17148950Y-8386945D01*
X17148950Y-8405055D01*
X17151783Y-8422941D01*
X17151783Y-8422941D01*
X17157379Y-8440164D01*
X17165600Y-8456299D01*
X17176245Y-8470950D01*
X17189050Y-8483755D01*
X17203701Y-8494400D01*
X17219836Y-8502621D01*
X17237059Y-8508217D01*
X17244214Y-8509350D01*
X17254945Y-8511050D01*
X17254945Y-8511050D01*
X17273055Y-8511050D01*
X17281998Y-8509634D01*
X17290941Y-8508217D01*
X17308164Y-8502621D01*
X17324299Y-8494400D01*
X17338950Y-8483755D01*
X17351755Y-8470950D01*
X17362400Y-8456299D01*
X17370621Y-8440164D01*
X17376217Y-8422941D01*
X17379050Y-8405055D01*
X17379050Y-8386945D01*
X17379050Y-8386945D01*
X17376217Y-8369059D01*
X17376217Y-8369059D01*
X17370621Y-8351836D01*
X17362400Y-8335701D01*
X17351755Y-8321050D01*
X17338950Y-8308245D01*
X17324299Y-8297600D01*
X17324299Y-8297600D01*
X17324299Y-8297600D01*
X17308164Y-8289379D01*
X17290941Y-8283783D01*
X17273055Y-8280950D01*
X17273055Y-8280950D01*
X17254945Y-8280950D01*
X17254945Y-8280950D01*
X17237059Y-8283783D01*
X17219836Y-8289379D01*
X17203701Y-8297600D01*
X17196375Y-8302922D01*
X17189050Y-8308245D01*
X17176245Y-8321050D01*
X17170923Y-8328375D01*
X17165600Y-8335701D01*
X17157379Y-8351836D01*
X17151783Y-8369059D01*
X17148950Y-8386945D01*
X17125050Y-8386945D01*
X17122217Y-8369059D01*
X17122217Y-8369059D01*
X17116621Y-8351836D01*
X17108400Y-8335701D01*
X17097755Y-8321050D01*
X17084950Y-8308245D01*
X17070299Y-8297600D01*
X17070299Y-8297600D01*
X17070299Y-8297600D01*
X17054164Y-8289379D01*
X17036941Y-8283783D01*
X17019055Y-8280950D01*
X17019055Y-8280950D01*
X17000945Y-8280950D01*
X17000945Y-8280950D01*
X16983059Y-8283783D01*
X16965836Y-8289379D01*
X16949701Y-8297600D01*
X16942375Y-8302922D01*
X16935050Y-8308245D01*
X16922245Y-8321050D01*
X16916923Y-8328375D01*
X16911600Y-8335701D01*
X16903379Y-8351836D01*
X16897783Y-8369059D01*
X16894950Y-8386945D01*
X11291206Y-8386945D01*
X11291628Y-8386213D01*
X11295550Y-8371577D01*
X11295550Y-8356423D01*
X11291628Y-8341786D01*
X11291628Y-8341786D01*
X11291628Y-8341786D01*
X11284052Y-8328664D01*
X11284052Y-8328664D01*
X11284051Y-8328663D01*
X11273336Y-8317948D01*
X11273336Y-8317948D01*
X11273336Y-8317948D01*
X11260214Y-8310372D01*
X11260214Y-8310372D01*
X11252275Y-8308245D01*
X11245577Y-8306450D01*
X11230423Y-8306450D01*
X11223725Y-8308245D01*
X11215786Y-8310372D01*
X11202664Y-8317948D01*
X11191948Y-8328664D01*
X11184372Y-8341786D01*
X11184372Y-8341786D01*
X11180450Y-8356423D01*
X10648050Y-8356423D01*
X10648050Y-8197752D01*
X12069950Y-8197752D01*
X12069950Y-8212247D01*
X12073702Y-8226249D01*
X12080949Y-8238801D01*
X12080949Y-8238801D01*
X12080949Y-8238801D01*
X12091198Y-8249051D01*
X12091199Y-8249051D01*
X12091199Y-8249051D01*
X12103751Y-8256298D01*
X12103751Y-8256298D01*
X12103751Y-8256298D01*
X12117752Y-8260050D01*
X12117753Y-8260050D01*
X12132247Y-8260050D01*
X12132247Y-8260050D01*
X12146248Y-8256298D01*
X12146249Y-8256298D01*
X12146249Y-8256298D01*
X12158801Y-8249051D01*
X12158801Y-8249051D01*
X12158801Y-8249051D01*
X12169051Y-8238801D01*
X12176298Y-8226248D01*
X12180050Y-8212247D01*
X12180050Y-8197752D01*
X12176298Y-8183751D01*
X12176298Y-8183751D01*
X12176298Y-8183751D01*
X12169051Y-8171199D01*
X12169051Y-8171199D01*
X12169051Y-8171198D01*
X12158801Y-8160949D01*
X12158801Y-8160949D01*
X12158801Y-8160949D01*
X12146249Y-8153702D01*
X12146249Y-8153702D01*
X12143290Y-8152909D01*
X12132247Y-8149950D01*
X12117752Y-8149950D01*
X12111579Y-8151604D01*
X12103751Y-8153702D01*
X12091199Y-8160949D01*
X12080949Y-8171199D01*
X12073702Y-8183751D01*
X12069950Y-8197752D01*
X10648050Y-8197752D01*
X10648050Y-7902752D01*
X12289950Y-7902752D01*
X12289950Y-7917247D01*
X12292035Y-7925029D01*
X12293702Y-7931249D01*
X12300949Y-7943801D01*
X12300949Y-7943801D01*
X12300949Y-7943801D01*
X12311198Y-7954051D01*
X12311199Y-7954051D01*
X12311199Y-7954051D01*
X12323751Y-7961298D01*
X12323751Y-7961298D01*
X12323751Y-7961298D01*
X12337752Y-7965050D01*
X12337753Y-7965050D01*
X12352247Y-7965050D01*
X12352247Y-7965050D01*
X12366248Y-7961298D01*
X12366249Y-7961298D01*
X12366249Y-7961298D01*
X12378801Y-7954051D01*
X12378801Y-7954051D01*
X12378801Y-7954051D01*
X12389051Y-7943801D01*
X12396298Y-7931248D01*
X12398575Y-7922752D01*
X13404950Y-7922752D01*
X13404950Y-7937247D01*
X13408702Y-7951249D01*
X13415949Y-7963801D01*
X13415949Y-7963801D01*
X13415949Y-7963801D01*
X13426198Y-7974051D01*
X13426199Y-7974051D01*
X13426199Y-7974051D01*
X13438751Y-7981298D01*
X13438751Y-7981298D01*
X13438751Y-7981298D01*
X13452752Y-7985050D01*
X13452753Y-7985050D01*
X13467247Y-7985050D01*
X13467247Y-7985050D01*
X13481248Y-7981298D01*
X13481249Y-7981298D01*
X13481249Y-7981298D01*
X13493801Y-7974051D01*
X13493801Y-7974051D01*
X13493801Y-7974051D01*
X13504051Y-7963801D01*
X13509680Y-7954051D01*
X13511298Y-7951249D01*
X13511298Y-7951249D01*
X13511298Y-7951248D01*
X13515050Y-7937247D01*
X13515050Y-7922752D01*
X13511298Y-7908751D01*
X13511298Y-7908751D01*
X13511298Y-7908751D01*
X13504051Y-7896199D01*
X13504051Y-7896199D01*
X13504051Y-7896198D01*
X13493801Y-7885949D01*
X13493801Y-7885949D01*
X13493801Y-7885949D01*
X13481249Y-7878702D01*
X13481249Y-7878702D01*
X13478290Y-7877909D01*
X13467247Y-7874950D01*
X13452752Y-7874950D01*
X13448093Y-7876198D01*
X13438751Y-7878702D01*
X13426199Y-7885949D01*
X13415949Y-7896199D01*
X13408702Y-7908751D01*
X13404950Y-7922752D01*
X12398575Y-7922752D01*
X12400050Y-7917247D01*
X12400050Y-7902752D01*
X12396298Y-7888751D01*
X12396298Y-7888751D01*
X12396298Y-7888751D01*
X12389051Y-7876199D01*
X12389051Y-7876199D01*
X12389051Y-7876198D01*
X12378801Y-7865949D01*
X12378801Y-7865949D01*
X12378801Y-7865949D01*
X12366249Y-7858702D01*
X12366249Y-7858702D01*
X12363290Y-7857909D01*
X12352247Y-7854950D01*
X12337752Y-7854950D01*
X12331579Y-7856604D01*
X12323751Y-7858702D01*
X12311199Y-7865949D01*
X12300949Y-7876199D01*
X12293702Y-7888751D01*
X12289950Y-7902752D01*
X10648050Y-7902752D01*
X10648050Y-7778423D01*
X11180450Y-7778423D01*
X11180450Y-7793577D01*
X11182506Y-7801248D01*
X11184372Y-7808214D01*
X11191948Y-7821336D01*
X11191948Y-7821336D01*
X11191948Y-7821336D01*
X11202663Y-7832051D01*
X11202664Y-7832052D01*
X11202664Y-7832052D01*
X11215786Y-7839628D01*
X11215786Y-7839628D01*
X11215786Y-7839628D01*
X11215786Y-7839628D01*
X11230423Y-7843550D01*
X11230424Y-7843550D01*
X11245576Y-7843550D01*
X11245577Y-7843550D01*
X11260213Y-7839628D01*
X11260214Y-7839628D01*
X11260214Y-7839628D01*
X11273336Y-7832052D01*
X11273336Y-7832052D01*
X11273336Y-7832051D01*
X11284051Y-7821336D01*
X11288402Y-7813801D01*
X11291628Y-7808214D01*
X11291628Y-7808214D01*
X11291628Y-7808213D01*
X11295550Y-7793577D01*
X11295550Y-7778423D01*
X11294030Y-7772752D01*
X13379950Y-7772752D01*
X13379950Y-7787247D01*
X13381646Y-7793577D01*
X13383702Y-7801249D01*
X13390949Y-7813801D01*
X13390949Y-7813801D01*
X13390949Y-7813801D01*
X13401198Y-7824051D01*
X13401199Y-7824051D01*
X13401199Y-7824051D01*
X13413751Y-7831298D01*
X13413751Y-7831298D01*
X13413751Y-7831298D01*
X13427752Y-7835050D01*
X13427753Y-7835050D01*
X13442247Y-7835050D01*
X13442247Y-7835050D01*
X13456248Y-7831298D01*
X13456249Y-7831298D01*
X13456249Y-7831298D01*
X13468801Y-7824051D01*
X13468801Y-7824051D01*
X13468801Y-7824051D01*
X13479051Y-7813801D01*
X13481320Y-7809871D01*
X17039950Y-7809871D01*
X17039950Y-7834129D01*
X17043116Y-7858178D01*
X17043116Y-7858179D01*
X17049394Y-7881609D01*
X17049395Y-7881610D01*
X17058677Y-7904020D01*
X17058677Y-7904021D01*
X17058678Y-7904021D01*
X17070806Y-7925029D01*
X17070807Y-7925029D01*
X17085573Y-7944273D01*
X17085573Y-7944273D01*
X17085574Y-7944274D01*
X17102726Y-7961426D01*
X17102727Y-7961427D01*
X17102727Y-7961427D01*
X17121971Y-7976193D01*
X17121971Y-7976194D01*
X17142979Y-7988322D01*
X17165390Y-7997605D01*
X17188821Y-8003884D01*
X17212871Y-8007050D01*
X17212871Y-8007050D01*
X17237129Y-8007050D01*
X17237129Y-8007050D01*
X17261179Y-8003884D01*
X17284610Y-7997605D01*
X17307021Y-7988322D01*
X17328029Y-7976194D01*
X17347274Y-7961426D01*
X17364427Y-7944274D01*
X17379194Y-7925029D01*
X17391322Y-7904021D01*
X17400605Y-7881610D01*
X17406884Y-7858179D01*
X17410050Y-7834129D01*
X17410050Y-7809871D01*
X17406884Y-7785821D01*
X17400605Y-7762390D01*
X17391322Y-7739979D01*
X17379194Y-7718971D01*
X17364427Y-7699726D01*
X17347274Y-7682573D01*
X17347273Y-7682573D01*
X17347273Y-7682573D01*
X17328029Y-7667807D01*
X17328029Y-7667806D01*
X17307021Y-7655678D01*
X17307021Y-7655677D01*
X17307020Y-7655677D01*
X17284611Y-7646395D01*
X17284610Y-7646395D01*
X17284610Y-7646395D01*
X17261179Y-7640116D01*
X17261179Y-7640116D01*
X17261178Y-7640116D01*
X17237129Y-7636950D01*
X17237129Y-7636950D01*
X17212871Y-7636950D01*
X17212871Y-7636950D01*
X17188822Y-7640116D01*
X17188821Y-7640116D01*
X17165391Y-7646394D01*
X17165389Y-7646395D01*
X17142980Y-7655677D01*
X17121971Y-7667807D01*
X17102727Y-7682573D01*
X17085573Y-7699727D01*
X17070807Y-7718971D01*
X17058677Y-7739979D01*
X17049395Y-7762389D01*
X17049394Y-7762391D01*
X17043116Y-7785821D01*
X17043116Y-7785822D01*
X17039950Y-7809871D01*
X13481320Y-7809871D01*
X13482277Y-7808214D01*
X13484365Y-7804598D01*
X13484365Y-7804597D01*
X13485007Y-7803486D01*
X13486298Y-7801248D01*
X13490050Y-7787247D01*
X13490050Y-7772752D01*
X13486298Y-7758751D01*
X13486298Y-7758751D01*
X13486298Y-7758751D01*
X13479051Y-7746199D01*
X13479051Y-7746199D01*
X13479051Y-7746198D01*
X13468801Y-7735949D01*
X13468801Y-7735949D01*
X13468801Y-7735949D01*
X13456249Y-7728702D01*
X13456249Y-7728702D01*
X13453290Y-7727909D01*
X13442247Y-7724950D01*
X13427752Y-7724950D01*
X13421579Y-7726604D01*
X13413751Y-7728702D01*
X13401199Y-7735949D01*
X13390949Y-7746199D01*
X13383702Y-7758751D01*
X13379950Y-7772752D01*
X11294030Y-7772752D01*
X11291628Y-7763786D01*
X11291628Y-7763786D01*
X11284052Y-7750664D01*
X11284052Y-7750664D01*
X11284051Y-7750663D01*
X11273336Y-7739948D01*
X11273336Y-7739948D01*
X11273336Y-7739948D01*
X11260214Y-7732372D01*
X11260214Y-7732372D01*
X11254535Y-7730850D01*
X11245577Y-7728450D01*
X11230423Y-7728450D01*
X11221465Y-7730850D01*
X11215786Y-7732372D01*
X11202664Y-7739948D01*
X11191948Y-7750664D01*
X11184372Y-7763786D01*
X11184372Y-7763786D01*
X11180450Y-7778423D01*
X10648050Y-7778423D01*
X10648050Y-7577752D01*
X12509950Y-7577752D01*
X12509950Y-7592247D01*
X12513702Y-7606249D01*
X12520949Y-7618801D01*
X12520949Y-7618801D01*
X12520949Y-7618801D01*
X12531198Y-7629051D01*
X12531199Y-7629051D01*
X12531199Y-7629051D01*
X12543751Y-7636298D01*
X12543751Y-7636298D01*
X12543751Y-7636298D01*
X12557752Y-7640050D01*
X12557753Y-7640050D01*
X12572247Y-7640050D01*
X12572247Y-7640050D01*
X12586248Y-7636298D01*
X12586249Y-7636298D01*
X12586249Y-7636298D01*
X12598801Y-7629051D01*
X12598801Y-7629051D01*
X12598801Y-7629051D01*
X12609051Y-7618801D01*
X12609051Y-7618801D01*
X12616298Y-7606249D01*
X12616298Y-7606249D01*
X12616298Y-7606248D01*
X12620050Y-7592247D01*
X12620050Y-7577752D01*
X12616298Y-7563751D01*
X12616298Y-7563751D01*
X12616298Y-7563751D01*
X12609051Y-7551199D01*
X12609051Y-7551199D01*
X12609051Y-7551198D01*
X12598801Y-7540949D01*
X12598801Y-7540949D01*
X12598801Y-7540949D01*
X12586249Y-7533702D01*
X12586249Y-7533702D01*
X12583290Y-7532909D01*
X12572247Y-7529950D01*
X12557752Y-7529950D01*
X12551579Y-7531604D01*
X12543751Y-7533702D01*
X12531199Y-7540949D01*
X12520949Y-7551199D01*
X12513702Y-7563751D01*
X12509950Y-7577752D01*
X10648050Y-7577752D01*
X10648050Y-6972752D01*
X11909950Y-6972752D01*
X11909950Y-6987247D01*
X11913702Y-7001249D01*
X11920949Y-7013801D01*
X11920949Y-7013801D01*
X11920949Y-7013801D01*
X11931198Y-7024051D01*
X11931199Y-7024051D01*
X11931199Y-7024051D01*
X11943751Y-7031298D01*
X11943751Y-7031298D01*
X11943751Y-7031298D01*
X11957752Y-7035050D01*
X11957753Y-7035050D01*
X11972247Y-7035050D01*
X11972247Y-7035050D01*
X11986248Y-7031298D01*
X11986249Y-7031298D01*
X11986249Y-7031298D01*
X11998801Y-7024051D01*
X11998801Y-7024051D01*
X11998801Y-7024051D01*
X12009051Y-7013801D01*
X12016298Y-7001248D01*
X12020050Y-6987247D01*
X12020050Y-6972752D01*
X12016298Y-6958751D01*
X12016298Y-6958751D01*
X12016298Y-6958751D01*
X12009051Y-6946199D01*
X12009051Y-6946199D01*
X12009051Y-6946198D01*
X11998801Y-6935949D01*
X11998801Y-6935949D01*
X11998801Y-6935949D01*
X11986249Y-6928702D01*
X11986249Y-6928702D01*
X11983290Y-6927909D01*
X11972247Y-6924950D01*
X11957752Y-6924950D01*
X11951579Y-6926604D01*
X11943751Y-6928702D01*
X11931199Y-6935949D01*
X11920949Y-6946199D01*
X11913702Y-6958751D01*
X11909950Y-6972752D01*
X10648050Y-6972752D01*
X10648050Y-6285871D01*
X11959950Y-6285871D01*
X11959950Y-6310129D01*
X11963116Y-6334178D01*
X11963116Y-6334179D01*
X11969394Y-6357609D01*
X11969395Y-6357610D01*
X11978677Y-6380020D01*
X11978677Y-6380021D01*
X11978678Y-6380021D01*
X11990205Y-6399987D01*
X11990807Y-6401029D01*
X12005573Y-6420273D01*
X12005573Y-6420273D01*
X12005573Y-6420274D01*
X12022726Y-6437426D01*
X12022727Y-6437427D01*
X12022727Y-6437427D01*
X12041971Y-6452193D01*
X12041971Y-6452194D01*
X12062979Y-6464322D01*
X12085390Y-6473605D01*
X12108821Y-6479884D01*
X12132871Y-6483050D01*
X12132871Y-6483050D01*
X12157129Y-6483050D01*
X12157129Y-6483050D01*
X12181179Y-6479884D01*
X12204610Y-6473605D01*
X12227021Y-6464322D01*
X12248029Y-6452194D01*
X12267274Y-6437426D01*
X12284426Y-6420274D01*
X12299194Y-6401029D01*
X12311322Y-6380021D01*
X12320605Y-6357610D01*
X12326884Y-6334179D01*
X12330050Y-6310129D01*
X12330050Y-6289338D01*
X12390950Y-6289338D01*
X12390950Y-6306661D01*
X12393660Y-6323770D01*
X12393660Y-6323771D01*
X12399012Y-6340244D01*
X12399012Y-6340244D01*
X12399013Y-6340244D01*
X12399013Y-6340244D01*
X12406877Y-6355679D01*
X12417059Y-6369693D01*
X12429307Y-6381941D01*
X12443321Y-6392123D01*
X12458755Y-6399987D01*
X12458756Y-6399987D01*
X12458756Y-6399987D01*
X12458756Y-6399988D01*
X12475229Y-6405340D01*
X12475230Y-6405340D01*
X12492339Y-6408050D01*
X12492339Y-6408050D01*
X12509661Y-6408050D01*
X12526770Y-6405340D01*
X12526771Y-6405340D01*
X12543244Y-6399988D01*
X12543244Y-6399987D01*
X12543244Y-6399987D01*
X12558679Y-6392123D01*
X12572693Y-6381941D01*
X12584941Y-6369693D01*
X12595123Y-6355679D01*
X12602987Y-6340244D01*
X12602987Y-6340244D01*
X12602988Y-6340244D01*
X12608340Y-6323771D01*
X12608340Y-6323770D01*
X12611050Y-6306661D01*
X12611050Y-6289338D01*
X12644950Y-6289338D01*
X12644950Y-6306661D01*
X12647660Y-6323770D01*
X12647660Y-6323771D01*
X12653012Y-6340244D01*
X12653012Y-6340244D01*
X12653013Y-6340244D01*
X12653013Y-6340244D01*
X12660877Y-6355679D01*
X12671059Y-6369693D01*
X12683307Y-6381941D01*
X12697321Y-6392123D01*
X12712755Y-6399987D01*
X12712756Y-6399987D01*
X12712756Y-6399987D01*
X12712756Y-6399988D01*
X12729229Y-6405340D01*
X12729230Y-6405340D01*
X12746339Y-6408050D01*
X12746339Y-6408050D01*
X12763661Y-6408050D01*
X12780770Y-6405340D01*
X12780771Y-6405340D01*
X12797244Y-6399988D01*
X12797244Y-6399987D01*
X12797244Y-6399987D01*
X12812679Y-6392123D01*
X12826693Y-6381941D01*
X12838941Y-6369693D01*
X12849123Y-6355679D01*
X12856987Y-6340244D01*
X12856987Y-6340244D01*
X12856988Y-6340244D01*
X12862340Y-6323771D01*
X12862340Y-6323770D01*
X12865050Y-6306661D01*
X12865050Y-6289338D01*
X12898950Y-6289338D01*
X12898950Y-6306661D01*
X12901660Y-6323770D01*
X12901660Y-6323771D01*
X12907012Y-6340244D01*
X12907012Y-6340244D01*
X12907013Y-6340244D01*
X12907013Y-6340244D01*
X12914877Y-6355679D01*
X12925059Y-6369693D01*
X12937307Y-6381941D01*
X12951321Y-6392123D01*
X12966755Y-6399987D01*
X12966756Y-6399987D01*
X12966756Y-6399987D01*
X12966756Y-6399988D01*
X12983229Y-6405340D01*
X12983230Y-6405340D01*
X13000339Y-6408050D01*
X13000339Y-6408050D01*
X13017661Y-6408050D01*
X13034770Y-6405340D01*
X13034771Y-6405340D01*
X13051244Y-6399988D01*
X13051244Y-6399987D01*
X13051244Y-6399987D01*
X13066679Y-6392123D01*
X13080693Y-6381941D01*
X13092941Y-6369693D01*
X13103123Y-6355679D01*
X13110987Y-6340244D01*
X13110987Y-6340244D01*
X13110988Y-6340244D01*
X13116340Y-6323771D01*
X13116340Y-6323770D01*
X13119050Y-6306661D01*
X13119050Y-6289338D01*
X13406950Y-6289338D01*
X13406950Y-6306661D01*
X13409660Y-6323770D01*
X13409660Y-6323771D01*
X13415012Y-6340244D01*
X13415012Y-6340244D01*
X13415013Y-6340244D01*
X13415013Y-6340244D01*
X13422877Y-6355679D01*
X13433059Y-6369693D01*
X13445307Y-6381941D01*
X13459321Y-6392123D01*
X13474755Y-6399987D01*
X13474756Y-6399987D01*
X13474756Y-6399987D01*
X13474756Y-6399988D01*
X13491229Y-6405340D01*
X13491230Y-6405340D01*
X13508339Y-6408050D01*
X13508339Y-6408050D01*
X13525661Y-6408050D01*
X13542770Y-6405340D01*
X13542771Y-6405340D01*
X13559244Y-6399988D01*
X13559244Y-6399987D01*
X13559244Y-6399987D01*
X13574679Y-6392123D01*
X13588693Y-6381941D01*
X13600941Y-6369693D01*
X13611123Y-6355679D01*
X13618987Y-6340244D01*
X13618987Y-6340244D01*
X13618988Y-6340244D01*
X13624340Y-6323771D01*
X13624340Y-6323770D01*
X13627050Y-6306661D01*
X13627050Y-6289338D01*
X13660950Y-6289338D01*
X13660950Y-6306661D01*
X13663660Y-6323770D01*
X13663660Y-6323771D01*
X13669012Y-6340244D01*
X13669012Y-6340244D01*
X13669013Y-6340244D01*
X13669013Y-6340244D01*
X13676877Y-6355679D01*
X13687059Y-6369693D01*
X13699307Y-6381941D01*
X13713321Y-6392123D01*
X13728755Y-6399987D01*
X13728756Y-6399987D01*
X13728756Y-6399987D01*
X13728756Y-6399988D01*
X13745229Y-6405340D01*
X13745230Y-6405340D01*
X13762339Y-6408050D01*
X13762339Y-6408050D01*
X13779661Y-6408050D01*
X13796770Y-6405340D01*
X13796771Y-6405340D01*
X13813244Y-6399988D01*
X13813244Y-6399987D01*
X13813244Y-6399987D01*
X13828679Y-6392123D01*
X13842693Y-6381941D01*
X13854941Y-6369693D01*
X13865123Y-6355679D01*
X13872987Y-6340244D01*
X13872987Y-6340244D01*
X13872988Y-6340244D01*
X13878340Y-6323771D01*
X13878340Y-6323770D01*
X13881050Y-6306661D01*
X13881050Y-6289338D01*
X13914950Y-6289338D01*
X13914950Y-6306661D01*
X13917660Y-6323770D01*
X13917660Y-6323771D01*
X13923012Y-6340244D01*
X13923012Y-6340244D01*
X13923013Y-6340244D01*
X13923013Y-6340244D01*
X13930877Y-6355679D01*
X13941059Y-6369693D01*
X13953307Y-6381941D01*
X13967321Y-6392123D01*
X13982755Y-6399987D01*
X13982756Y-6399987D01*
X13982756Y-6399987D01*
X13982756Y-6399988D01*
X13999229Y-6405340D01*
X13999230Y-6405340D01*
X14016339Y-6408050D01*
X14016339Y-6408050D01*
X14033661Y-6408050D01*
X14050770Y-6405340D01*
X14050771Y-6405340D01*
X14067244Y-6399988D01*
X14067244Y-6399987D01*
X14067244Y-6399987D01*
X14082679Y-6392123D01*
X14096693Y-6381941D01*
X14108941Y-6369693D01*
X14119123Y-6355679D01*
X14126987Y-6340244D01*
X14126987Y-6340244D01*
X14126988Y-6340244D01*
X14132340Y-6323771D01*
X14132340Y-6323770D01*
X14135050Y-6306661D01*
X14135050Y-6289338D01*
X14168950Y-6289338D01*
X14168950Y-6306661D01*
X14171660Y-6323770D01*
X14171660Y-6323771D01*
X14177012Y-6340244D01*
X14177012Y-6340244D01*
X14177013Y-6340244D01*
X14177013Y-6340244D01*
X14184877Y-6355679D01*
X14195059Y-6369693D01*
X14207307Y-6381941D01*
X14221321Y-6392123D01*
X14236755Y-6399987D01*
X14236756Y-6399987D01*
X14236756Y-6399987D01*
X14236756Y-6399988D01*
X14253229Y-6405340D01*
X14253230Y-6405340D01*
X14270339Y-6408050D01*
X14270339Y-6408050D01*
X14287661Y-6408050D01*
X14304770Y-6405340D01*
X14304771Y-6405340D01*
X14321244Y-6399988D01*
X14321244Y-6399987D01*
X14321244Y-6399987D01*
X14336679Y-6392123D01*
X14350693Y-6381941D01*
X14362941Y-6369693D01*
X14373123Y-6355679D01*
X14380987Y-6340244D01*
X14380987Y-6340244D01*
X14380988Y-6340244D01*
X14386340Y-6323771D01*
X14386340Y-6323770D01*
X14389050Y-6306661D01*
X14389050Y-6289338D01*
X14422950Y-6289338D01*
X14422950Y-6306661D01*
X14425660Y-6323770D01*
X14425660Y-6323771D01*
X14431012Y-6340244D01*
X14431012Y-6340244D01*
X14431013Y-6340244D01*
X14431013Y-6340244D01*
X14438877Y-6355679D01*
X14449059Y-6369693D01*
X14461307Y-6381941D01*
X14475321Y-6392123D01*
X14490755Y-6399987D01*
X14490756Y-6399987D01*
X14490756Y-6399987D01*
X14490756Y-6399988D01*
X14507229Y-6405340D01*
X14507230Y-6405340D01*
X14524339Y-6408050D01*
X14524339Y-6408050D01*
X14541661Y-6408050D01*
X14558770Y-6405340D01*
X14558771Y-6405340D01*
X14575244Y-6399988D01*
X14575244Y-6399987D01*
X14575244Y-6399987D01*
X14590679Y-6392123D01*
X14604693Y-6381941D01*
X14616941Y-6369693D01*
X14627123Y-6355679D01*
X14634987Y-6340244D01*
X14634987Y-6340244D01*
X14634988Y-6340244D01*
X14640340Y-6323771D01*
X14640340Y-6323770D01*
X14643050Y-6306661D01*
X14643050Y-6289338D01*
X14676950Y-6289338D01*
X14676950Y-6306661D01*
X14679660Y-6323770D01*
X14679660Y-6323771D01*
X14685012Y-6340244D01*
X14685012Y-6340244D01*
X14685013Y-6340244D01*
X14685013Y-6340244D01*
X14692877Y-6355679D01*
X14703059Y-6369693D01*
X14715307Y-6381941D01*
X14729321Y-6392123D01*
X14744755Y-6399987D01*
X14744756Y-6399987D01*
X14744756Y-6399987D01*
X14744756Y-6399988D01*
X14761229Y-6405340D01*
X14761230Y-6405340D01*
X14778339Y-6408050D01*
X14778339Y-6408050D01*
X14795661Y-6408050D01*
X14812770Y-6405340D01*
X14812771Y-6405340D01*
X14829244Y-6399988D01*
X14829244Y-6399987D01*
X14829244Y-6399987D01*
X14844679Y-6392123D01*
X14858693Y-6381941D01*
X14870941Y-6369693D01*
X14881123Y-6355679D01*
X14888987Y-6340244D01*
X14888987Y-6340244D01*
X14888988Y-6340244D01*
X14894340Y-6323771D01*
X14894340Y-6323770D01*
X14897050Y-6306661D01*
X14897050Y-6289338D01*
X15082950Y-6289338D01*
X15082950Y-6306661D01*
X15085660Y-6323770D01*
X15085660Y-6323771D01*
X15091012Y-6340244D01*
X15091012Y-6340244D01*
X15091013Y-6340244D01*
X15091013Y-6340244D01*
X15098877Y-6355679D01*
X15109059Y-6369693D01*
X15121307Y-6381941D01*
X15135321Y-6392123D01*
X15150755Y-6399987D01*
X15150756Y-6399987D01*
X15150756Y-6399987D01*
X15150756Y-6399988D01*
X15167229Y-6405340D01*
X15167230Y-6405340D01*
X15184339Y-6408050D01*
X15184339Y-6408050D01*
X15201661Y-6408050D01*
X15218770Y-6405340D01*
X15218771Y-6405340D01*
X15235244Y-6399988D01*
X15235244Y-6399987D01*
X15235244Y-6399987D01*
X15250679Y-6392123D01*
X15264693Y-6381941D01*
X15276941Y-6369693D01*
X15287123Y-6355679D01*
X15294987Y-6340244D01*
X15294987Y-6340244D01*
X15294988Y-6340244D01*
X15300340Y-6323771D01*
X15300340Y-6323770D01*
X15303050Y-6306661D01*
X15303050Y-6289338D01*
X15336950Y-6289338D01*
X15336950Y-6306661D01*
X15339660Y-6323770D01*
X15339660Y-6323771D01*
X15345012Y-6340244D01*
X15345012Y-6340244D01*
X15345013Y-6340244D01*
X15345013Y-6340244D01*
X15352877Y-6355679D01*
X15363059Y-6369693D01*
X15375307Y-6381941D01*
X15389321Y-6392123D01*
X15404755Y-6399987D01*
X15404756Y-6399987D01*
X15404756Y-6399987D01*
X15404756Y-6399988D01*
X15421229Y-6405340D01*
X15421230Y-6405340D01*
X15438339Y-6408050D01*
X15438339Y-6408050D01*
X15455661Y-6408050D01*
X15472770Y-6405340D01*
X15472771Y-6405340D01*
X15489244Y-6399988D01*
X15489244Y-6399987D01*
X15489244Y-6399987D01*
X15504679Y-6392123D01*
X15518693Y-6381941D01*
X15530941Y-6369693D01*
X15541123Y-6355679D01*
X15548987Y-6340244D01*
X15548987Y-6340244D01*
X15548988Y-6340244D01*
X15554340Y-6323771D01*
X15554340Y-6323770D01*
X15557050Y-6306661D01*
X15557050Y-6289338D01*
X15590950Y-6289338D01*
X15590950Y-6306661D01*
X15593660Y-6323770D01*
X15593660Y-6323771D01*
X15599012Y-6340244D01*
X15599012Y-6340244D01*
X15599013Y-6340244D01*
X15599013Y-6340244D01*
X15606877Y-6355679D01*
X15617059Y-6369693D01*
X15629307Y-6381941D01*
X15643321Y-6392123D01*
X15658755Y-6399987D01*
X15658756Y-6399987D01*
X15658756Y-6399987D01*
X15658756Y-6399988D01*
X15675229Y-6405340D01*
X15675230Y-6405340D01*
X15692339Y-6408050D01*
X15692339Y-6408050D01*
X15709661Y-6408050D01*
X15726770Y-6405340D01*
X15726771Y-6405340D01*
X15743244Y-6399988D01*
X15743244Y-6399987D01*
X15743244Y-6399987D01*
X15758679Y-6392123D01*
X15772693Y-6381941D01*
X15784941Y-6369693D01*
X15795123Y-6355679D01*
X15802987Y-6340244D01*
X15802987Y-6340244D01*
X15802988Y-6340244D01*
X15808340Y-6323771D01*
X15808340Y-6323770D01*
X15811050Y-6306661D01*
X15811050Y-6289338D01*
X15844950Y-6289338D01*
X15844950Y-6306661D01*
X15847660Y-6323770D01*
X15847660Y-6323771D01*
X15853012Y-6340244D01*
X15853012Y-6340244D01*
X15853013Y-6340244D01*
X15853013Y-6340244D01*
X15860877Y-6355679D01*
X15871059Y-6369693D01*
X15883307Y-6381941D01*
X15897321Y-6392123D01*
X15912755Y-6399987D01*
X15912756Y-6399987D01*
X15912756Y-6399987D01*
X15912756Y-6399988D01*
X15929229Y-6405340D01*
X15929230Y-6405340D01*
X15946339Y-6408050D01*
X15946339Y-6408050D01*
X15963661Y-6408050D01*
X15980770Y-6405340D01*
X15980771Y-6405340D01*
X15997244Y-6399988D01*
X15997244Y-6399987D01*
X15997244Y-6399987D01*
X16012679Y-6392123D01*
X16026693Y-6381941D01*
X16038941Y-6369693D01*
X16049123Y-6355679D01*
X16056987Y-6340244D01*
X16056987Y-6340244D01*
X16056988Y-6340244D01*
X16062340Y-6323771D01*
X16062340Y-6323770D01*
X16065050Y-6306661D01*
X16065050Y-6289338D01*
X16098950Y-6289338D01*
X16098950Y-6306661D01*
X16101660Y-6323770D01*
X16101660Y-6323771D01*
X16107012Y-6340244D01*
X16107012Y-6340244D01*
X16107013Y-6340244D01*
X16107013Y-6340244D01*
X16114877Y-6355679D01*
X16125059Y-6369693D01*
X16137307Y-6381941D01*
X16151321Y-6392123D01*
X16166755Y-6399987D01*
X16166756Y-6399987D01*
X16166756Y-6399987D01*
X16166756Y-6399988D01*
X16183229Y-6405340D01*
X16183230Y-6405340D01*
X16200339Y-6408050D01*
X16200339Y-6408050D01*
X16217661Y-6408050D01*
X16234770Y-6405340D01*
X16234771Y-6405340D01*
X16251244Y-6399988D01*
X16251244Y-6399987D01*
X16251244Y-6399987D01*
X16266679Y-6392123D01*
X16280693Y-6381941D01*
X16292941Y-6369693D01*
X16303123Y-6355679D01*
X16310987Y-6340244D01*
X16310987Y-6340244D01*
X16310988Y-6340244D01*
X16316340Y-6323771D01*
X16316340Y-6323770D01*
X16319050Y-6306661D01*
X16319050Y-6289338D01*
X16352950Y-6289338D01*
X16352950Y-6306661D01*
X16355660Y-6323770D01*
X16355660Y-6323771D01*
X16361012Y-6340244D01*
X16361012Y-6340244D01*
X16361013Y-6340244D01*
X16361013Y-6340244D01*
X16368877Y-6355679D01*
X16379059Y-6369693D01*
X16391307Y-6381941D01*
X16405321Y-6392123D01*
X16420755Y-6399987D01*
X16420756Y-6399987D01*
X16420756Y-6399987D01*
X16420756Y-6399988D01*
X16437229Y-6405340D01*
X16437230Y-6405340D01*
X16454339Y-6408050D01*
X16454339Y-6408050D01*
X16471661Y-6408050D01*
X16488770Y-6405340D01*
X16488771Y-6405340D01*
X16505244Y-6399988D01*
X16505244Y-6399987D01*
X16505244Y-6399987D01*
X16520679Y-6392123D01*
X16534693Y-6381941D01*
X16546941Y-6369693D01*
X16557123Y-6355679D01*
X16564987Y-6340244D01*
X16564987Y-6340244D01*
X16564988Y-6340244D01*
X16570340Y-6323771D01*
X16570340Y-6323770D01*
X16573050Y-6306661D01*
X16573050Y-6289338D01*
X16606950Y-6289338D01*
X16606950Y-6306661D01*
X16609660Y-6323770D01*
X16609660Y-6323771D01*
X16615012Y-6340244D01*
X16615012Y-6340244D01*
X16615013Y-6340244D01*
X16615013Y-6340244D01*
X16622877Y-6355679D01*
X16633059Y-6369693D01*
X16645307Y-6381941D01*
X16659321Y-6392123D01*
X16674755Y-6399987D01*
X16674756Y-6399987D01*
X16674756Y-6399987D01*
X16674756Y-6399988D01*
X16691229Y-6405340D01*
X16691230Y-6405340D01*
X16708339Y-6408050D01*
X16708339Y-6408050D01*
X16725661Y-6408050D01*
X16742770Y-6405340D01*
X16742771Y-6405340D01*
X16759244Y-6399988D01*
X16759244Y-6399987D01*
X16759244Y-6399987D01*
X16774679Y-6392123D01*
X16788693Y-6381941D01*
X16800941Y-6369693D01*
X16811123Y-6355679D01*
X16818987Y-6340244D01*
X16818987Y-6340244D01*
X16818988Y-6340244D01*
X16824340Y-6323771D01*
X16824340Y-6323770D01*
X16827050Y-6306661D01*
X16827050Y-6289338D01*
X16860950Y-6289338D01*
X16860950Y-6306661D01*
X16863660Y-6323770D01*
X16863660Y-6323771D01*
X16869012Y-6340244D01*
X16869013Y-6340244D01*
X16869013Y-6340244D01*
X16869013Y-6340244D01*
X16876877Y-6355679D01*
X16887059Y-6369693D01*
X16899307Y-6381941D01*
X16913321Y-6392123D01*
X16928756Y-6399987D01*
X16928756Y-6399987D01*
X16928756Y-6399987D01*
X16928756Y-6399988D01*
X16945229Y-6405340D01*
X16945230Y-6405340D01*
X16962339Y-6408050D01*
X16962339Y-6408050D01*
X16979661Y-6408050D01*
X16996770Y-6405340D01*
X16996771Y-6405340D01*
X17013244Y-6399988D01*
X17013244Y-6399987D01*
X17013245Y-6399987D01*
X17028679Y-6392123D01*
X17042693Y-6381941D01*
X17054941Y-6369693D01*
X17065123Y-6355679D01*
X17072987Y-6340244D01*
X17072987Y-6340244D01*
X17072988Y-6340244D01*
X17078340Y-6323771D01*
X17078340Y-6323770D01*
X17081050Y-6306661D01*
X17081050Y-6289338D01*
X17078340Y-6272230D01*
X17078340Y-6272229D01*
X17072988Y-6255756D01*
X17072987Y-6255756D01*
X17072987Y-6255756D01*
X17072987Y-6255755D01*
X17065123Y-6240321D01*
X17054941Y-6226307D01*
X17042693Y-6214059D01*
X17028679Y-6203877D01*
X17028679Y-6203877D01*
X17028679Y-6203877D01*
X17013244Y-6196012D01*
X17013244Y-6196012D01*
X16996771Y-6190660D01*
X16996770Y-6190660D01*
X16979661Y-6187950D01*
X16979661Y-6187950D01*
X16962339Y-6187950D01*
X16962339Y-6187950D01*
X16945230Y-6190660D01*
X16945229Y-6190660D01*
X16928756Y-6196012D01*
X16928756Y-6196012D01*
X16913321Y-6203877D01*
X16899307Y-6214058D01*
X16887059Y-6226307D01*
X16876877Y-6240321D01*
X16869013Y-6255756D01*
X16869012Y-6255756D01*
X16863660Y-6272229D01*
X16863660Y-6272230D01*
X16860950Y-6289338D01*
X16827050Y-6289338D01*
X16824340Y-6272230D01*
X16824340Y-6272229D01*
X16818988Y-6255756D01*
X16818987Y-6255756D01*
X16818987Y-6255756D01*
X16818987Y-6255755D01*
X16811123Y-6240321D01*
X16800941Y-6226307D01*
X16788693Y-6214059D01*
X16774679Y-6203877D01*
X16774679Y-6203877D01*
X16774678Y-6203877D01*
X16759244Y-6196012D01*
X16759244Y-6196012D01*
X16742771Y-6190660D01*
X16742770Y-6190660D01*
X16725661Y-6187950D01*
X16725661Y-6187950D01*
X16708339Y-6187950D01*
X16708339Y-6187950D01*
X16691230Y-6190660D01*
X16691229Y-6190660D01*
X16674756Y-6196012D01*
X16674756Y-6196012D01*
X16659321Y-6203877D01*
X16645307Y-6214058D01*
X16633058Y-6226307D01*
X16622877Y-6240321D01*
X16615012Y-6255756D01*
X16615012Y-6255756D01*
X16609660Y-6272229D01*
X16609660Y-6272230D01*
X16606950Y-6289338D01*
X16573050Y-6289338D01*
X16570340Y-6272230D01*
X16570340Y-6272229D01*
X16564988Y-6255756D01*
X16564987Y-6255756D01*
X16564987Y-6255756D01*
X16564987Y-6255755D01*
X16557123Y-6240321D01*
X16546941Y-6226307D01*
X16534693Y-6214059D01*
X16520679Y-6203877D01*
X16520679Y-6203877D01*
X16520678Y-6203877D01*
X16505244Y-6196012D01*
X16505244Y-6196012D01*
X16488771Y-6190660D01*
X16488770Y-6190660D01*
X16471661Y-6187950D01*
X16471661Y-6187950D01*
X16454339Y-6187950D01*
X16454339Y-6187950D01*
X16437230Y-6190660D01*
X16437229Y-6190660D01*
X16420756Y-6196012D01*
X16420756Y-6196012D01*
X16405321Y-6203877D01*
X16391307Y-6214058D01*
X16379058Y-6226307D01*
X16368877Y-6240321D01*
X16361012Y-6255756D01*
X16361012Y-6255756D01*
X16355660Y-6272229D01*
X16355660Y-6272230D01*
X16352950Y-6289338D01*
X16319050Y-6289338D01*
X16316340Y-6272230D01*
X16316340Y-6272229D01*
X16310988Y-6255756D01*
X16310987Y-6255756D01*
X16310987Y-6255756D01*
X16310987Y-6255755D01*
X16303123Y-6240321D01*
X16292941Y-6226307D01*
X16280693Y-6214059D01*
X16266679Y-6203877D01*
X16266679Y-6203877D01*
X16266678Y-6203877D01*
X16251244Y-6196012D01*
X16251244Y-6196012D01*
X16234771Y-6190660D01*
X16234770Y-6190660D01*
X16217661Y-6187950D01*
X16217661Y-6187950D01*
X16200339Y-6187950D01*
X16200339Y-6187950D01*
X16183230Y-6190660D01*
X16183229Y-6190660D01*
X16166756Y-6196012D01*
X16166756Y-6196012D01*
X16151321Y-6203877D01*
X16137307Y-6214058D01*
X16125058Y-6226307D01*
X16114877Y-6240321D01*
X16107012Y-6255756D01*
X16107012Y-6255756D01*
X16101660Y-6272229D01*
X16101660Y-6272230D01*
X16098950Y-6289338D01*
X16065050Y-6289338D01*
X16062340Y-6272230D01*
X16062340Y-6272229D01*
X16056988Y-6255756D01*
X16056987Y-6255756D01*
X16056987Y-6255756D01*
X16056987Y-6255755D01*
X16049123Y-6240321D01*
X16038941Y-6226307D01*
X16026693Y-6214059D01*
X16012679Y-6203877D01*
X16012679Y-6203877D01*
X16012678Y-6203877D01*
X15997244Y-6196012D01*
X15997244Y-6196012D01*
X15980771Y-6190660D01*
X15980770Y-6190660D01*
X15963661Y-6187950D01*
X15963661Y-6187950D01*
X15946339Y-6187950D01*
X15946339Y-6187950D01*
X15929230Y-6190660D01*
X15929229Y-6190660D01*
X15912756Y-6196012D01*
X15912756Y-6196012D01*
X15897321Y-6203877D01*
X15883307Y-6214058D01*
X15871058Y-6226307D01*
X15860877Y-6240321D01*
X15853012Y-6255756D01*
X15853012Y-6255756D01*
X15847660Y-6272229D01*
X15847660Y-6272230D01*
X15844950Y-6289338D01*
X15811050Y-6289338D01*
X15808340Y-6272230D01*
X15808340Y-6272229D01*
X15802988Y-6255756D01*
X15802987Y-6255756D01*
X15802987Y-6255756D01*
X15802987Y-6255755D01*
X15795123Y-6240321D01*
X15784941Y-6226307D01*
X15772693Y-6214059D01*
X15758679Y-6203877D01*
X15758679Y-6203877D01*
X15758678Y-6203877D01*
X15743244Y-6196012D01*
X15743244Y-6196012D01*
X15726771Y-6190660D01*
X15726770Y-6190660D01*
X15709661Y-6187950D01*
X15709661Y-6187950D01*
X15692339Y-6187950D01*
X15692339Y-6187950D01*
X15675230Y-6190660D01*
X15675229Y-6190660D01*
X15658756Y-6196012D01*
X15658756Y-6196012D01*
X15643321Y-6203877D01*
X15629307Y-6214058D01*
X15617058Y-6226307D01*
X15606877Y-6240321D01*
X15599012Y-6255756D01*
X15599012Y-6255756D01*
X15593660Y-6272229D01*
X15593660Y-6272230D01*
X15590950Y-6289338D01*
X15557050Y-6289338D01*
X15554340Y-6272230D01*
X15554340Y-6272229D01*
X15548988Y-6255756D01*
X15548987Y-6255756D01*
X15548987Y-6255756D01*
X15548987Y-6255755D01*
X15541123Y-6240321D01*
X15530941Y-6226307D01*
X15518693Y-6214059D01*
X15504679Y-6203877D01*
X15504679Y-6203877D01*
X15504678Y-6203877D01*
X15489244Y-6196012D01*
X15489244Y-6196012D01*
X15472771Y-6190660D01*
X15472770Y-6190660D01*
X15455661Y-6187950D01*
X15455661Y-6187950D01*
X15438339Y-6187950D01*
X15438339Y-6187950D01*
X15421230Y-6190660D01*
X15421229Y-6190660D01*
X15404756Y-6196012D01*
X15404756Y-6196012D01*
X15389321Y-6203877D01*
X15375307Y-6214058D01*
X15363058Y-6226307D01*
X15352877Y-6240321D01*
X15345012Y-6255756D01*
X15345012Y-6255756D01*
X15339660Y-6272229D01*
X15339660Y-6272230D01*
X15336950Y-6289338D01*
X15303050Y-6289338D01*
X15300340Y-6272230D01*
X15300340Y-6272229D01*
X15294988Y-6255756D01*
X15294987Y-6255756D01*
X15294987Y-6255756D01*
X15294987Y-6255755D01*
X15287123Y-6240321D01*
X15276941Y-6226307D01*
X15264693Y-6214059D01*
X15250679Y-6203877D01*
X15250679Y-6203877D01*
X15250678Y-6203877D01*
X15235244Y-6196012D01*
X15235244Y-6196012D01*
X15218771Y-6190660D01*
X15218770Y-6190660D01*
X15201661Y-6187950D01*
X15201661Y-6187950D01*
X15184339Y-6187950D01*
X15184339Y-6187950D01*
X15167230Y-6190660D01*
X15167229Y-6190660D01*
X15150756Y-6196012D01*
X15150756Y-6196012D01*
X15135321Y-6203877D01*
X15121307Y-6214058D01*
X15109058Y-6226307D01*
X15098877Y-6240321D01*
X15091012Y-6255756D01*
X15091012Y-6255756D01*
X15085660Y-6272229D01*
X15085660Y-6272230D01*
X15082950Y-6289338D01*
X14897050Y-6289338D01*
X14894340Y-6272230D01*
X14894340Y-6272229D01*
X14888988Y-6255756D01*
X14888987Y-6255756D01*
X14888987Y-6255756D01*
X14888987Y-6255755D01*
X14881123Y-6240321D01*
X14870941Y-6226307D01*
X14858693Y-6214059D01*
X14844679Y-6203877D01*
X14844679Y-6203877D01*
X14844678Y-6203877D01*
X14829244Y-6196012D01*
X14829244Y-6196012D01*
X14812771Y-6190660D01*
X14812770Y-6190660D01*
X14795661Y-6187950D01*
X14795661Y-6187950D01*
X14778339Y-6187950D01*
X14778339Y-6187950D01*
X14761230Y-6190660D01*
X14761229Y-6190660D01*
X14744756Y-6196012D01*
X14744756Y-6196012D01*
X14729321Y-6203877D01*
X14715307Y-6214058D01*
X14703058Y-6226307D01*
X14692877Y-6240321D01*
X14685012Y-6255756D01*
X14685012Y-6255756D01*
X14679660Y-6272229D01*
X14679660Y-6272230D01*
X14676950Y-6289338D01*
X14643050Y-6289338D01*
X14640340Y-6272230D01*
X14640340Y-6272229D01*
X14634988Y-6255756D01*
X14634987Y-6255756D01*
X14634987Y-6255756D01*
X14634987Y-6255755D01*
X14627123Y-6240321D01*
X14616941Y-6226307D01*
X14604693Y-6214059D01*
X14590679Y-6203877D01*
X14590679Y-6203877D01*
X14590678Y-6203877D01*
X14575244Y-6196012D01*
X14575244Y-6196012D01*
X14558771Y-6190660D01*
X14558770Y-6190660D01*
X14541661Y-6187950D01*
X14541661Y-6187950D01*
X14524339Y-6187950D01*
X14524339Y-6187950D01*
X14507230Y-6190660D01*
X14507229Y-6190660D01*
X14490756Y-6196012D01*
X14490756Y-6196012D01*
X14475321Y-6203877D01*
X14461307Y-6214058D01*
X14449058Y-6226307D01*
X14438877Y-6240321D01*
X14431012Y-6255756D01*
X14431012Y-6255756D01*
X14425660Y-6272229D01*
X14425660Y-6272230D01*
X14422950Y-6289338D01*
X14389050Y-6289338D01*
X14386340Y-6272230D01*
X14386340Y-6272229D01*
X14380988Y-6255756D01*
X14380987Y-6255756D01*
X14380987Y-6255756D01*
X14380987Y-6255755D01*
X14373123Y-6240321D01*
X14362941Y-6226307D01*
X14350693Y-6214059D01*
X14336679Y-6203877D01*
X14336679Y-6203877D01*
X14336678Y-6203877D01*
X14321244Y-6196012D01*
X14321244Y-6196012D01*
X14304771Y-6190660D01*
X14304770Y-6190660D01*
X14287661Y-6187950D01*
X14287661Y-6187950D01*
X14270339Y-6187950D01*
X14270339Y-6187950D01*
X14253230Y-6190660D01*
X14253229Y-6190660D01*
X14236756Y-6196012D01*
X14236756Y-6196012D01*
X14221321Y-6203877D01*
X14207307Y-6214058D01*
X14195058Y-6226307D01*
X14184877Y-6240321D01*
X14177012Y-6255756D01*
X14177012Y-6255756D01*
X14171660Y-6272229D01*
X14171660Y-6272230D01*
X14168950Y-6289338D01*
X14135050Y-6289338D01*
X14132340Y-6272230D01*
X14132340Y-6272229D01*
X14126988Y-6255756D01*
X14126987Y-6255756D01*
X14126987Y-6255756D01*
X14126987Y-6255755D01*
X14119123Y-6240321D01*
X14108941Y-6226307D01*
X14096693Y-6214059D01*
X14082679Y-6203877D01*
X14082679Y-6203877D01*
X14082678Y-6203877D01*
X14067244Y-6196012D01*
X14067244Y-6196012D01*
X14050771Y-6190660D01*
X14050770Y-6190660D01*
X14033661Y-6187950D01*
X14033661Y-6187950D01*
X14016339Y-6187950D01*
X14016339Y-6187950D01*
X13999230Y-6190660D01*
X13999229Y-6190660D01*
X13982756Y-6196012D01*
X13982756Y-6196012D01*
X13967321Y-6203877D01*
X13953307Y-6214058D01*
X13941058Y-6226307D01*
X13930877Y-6240321D01*
X13923012Y-6255756D01*
X13923012Y-6255756D01*
X13917660Y-6272229D01*
X13917660Y-6272230D01*
X13914950Y-6289338D01*
X13881050Y-6289338D01*
X13878340Y-6272230D01*
X13878340Y-6272229D01*
X13872988Y-6255756D01*
X13872987Y-6255756D01*
X13872987Y-6255756D01*
X13872987Y-6255755D01*
X13865123Y-6240321D01*
X13854941Y-6226307D01*
X13842693Y-6214059D01*
X13828679Y-6203877D01*
X13828679Y-6203877D01*
X13828678Y-6203877D01*
X13813244Y-6196012D01*
X13813244Y-6196012D01*
X13796771Y-6190660D01*
X13796770Y-6190660D01*
X13779661Y-6187950D01*
X13779661Y-6187950D01*
X13762339Y-6187950D01*
X13762339Y-6187950D01*
X13745230Y-6190660D01*
X13745229Y-6190660D01*
X13728756Y-6196012D01*
X13728756Y-6196012D01*
X13713321Y-6203877D01*
X13699307Y-6214058D01*
X13687058Y-6226307D01*
X13676877Y-6240321D01*
X13669012Y-6255756D01*
X13669012Y-6255756D01*
X13663660Y-6272229D01*
X13663660Y-6272230D01*
X13660950Y-6289338D01*
X13627050Y-6289338D01*
X13624340Y-6272230D01*
X13624340Y-6272229D01*
X13618988Y-6255756D01*
X13618987Y-6255756D01*
X13618987Y-6255756D01*
X13618987Y-6255755D01*
X13611123Y-6240321D01*
X13600941Y-6226307D01*
X13588693Y-6214059D01*
X13574679Y-6203877D01*
X13574679Y-6203877D01*
X13574678Y-6203877D01*
X13559244Y-6196012D01*
X13559244Y-6196012D01*
X13542771Y-6190660D01*
X13542770Y-6190660D01*
X13525661Y-6187950D01*
X13525661Y-6187950D01*
X13508339Y-6187950D01*
X13508339Y-6187950D01*
X13491230Y-6190660D01*
X13491229Y-6190660D01*
X13474756Y-6196012D01*
X13474756Y-6196012D01*
X13459321Y-6203877D01*
X13445307Y-6214058D01*
X13433058Y-6226307D01*
X13422877Y-6240321D01*
X13415012Y-6255756D01*
X13415012Y-6255756D01*
X13409660Y-6272229D01*
X13409660Y-6272230D01*
X13406950Y-6289338D01*
X13119050Y-6289338D01*
X13116340Y-6272230D01*
X13116340Y-6272229D01*
X13110988Y-6255756D01*
X13110987Y-6255756D01*
X13110987Y-6255756D01*
X13110987Y-6255755D01*
X13103123Y-6240321D01*
X13092941Y-6226307D01*
X13080693Y-6214059D01*
X13066679Y-6203877D01*
X13066679Y-6203877D01*
X13066678Y-6203877D01*
X13051244Y-6196012D01*
X13051244Y-6196012D01*
X13034771Y-6190660D01*
X13034770Y-6190660D01*
X13017661Y-6187950D01*
X13017661Y-6187950D01*
X13000339Y-6187950D01*
X13000339Y-6187950D01*
X12983230Y-6190660D01*
X12983229Y-6190660D01*
X12966756Y-6196012D01*
X12966756Y-6196012D01*
X12951321Y-6203877D01*
X12937307Y-6214058D01*
X12925058Y-6226307D01*
X12914877Y-6240321D01*
X12907012Y-6255756D01*
X12907012Y-6255756D01*
X12901660Y-6272229D01*
X12901660Y-6272230D01*
X12898950Y-6289338D01*
X12865050Y-6289338D01*
X12862340Y-6272230D01*
X12862340Y-6272229D01*
X12856988Y-6255756D01*
X12856987Y-6255756D01*
X12856987Y-6255756D01*
X12856987Y-6255755D01*
X12849123Y-6240321D01*
X12838941Y-6226307D01*
X12826693Y-6214059D01*
X12812679Y-6203877D01*
X12812679Y-6203877D01*
X12812678Y-6203877D01*
X12797244Y-6196012D01*
X12797244Y-6196012D01*
X12780771Y-6190660D01*
X12780770Y-6190660D01*
X12763661Y-6187950D01*
X12763661Y-6187950D01*
X12746339Y-6187950D01*
X12746339Y-6187950D01*
X12729230Y-6190660D01*
X12729229Y-6190660D01*
X12712756Y-6196012D01*
X12712756Y-6196012D01*
X12697321Y-6203877D01*
X12683307Y-6214058D01*
X12671058Y-6226307D01*
X12660877Y-6240321D01*
X12653012Y-6255756D01*
X12653012Y-6255756D01*
X12647660Y-6272229D01*
X12647660Y-6272230D01*
X12644950Y-6289338D01*
X12611050Y-6289338D01*
X12608340Y-6272230D01*
X12608340Y-6272229D01*
X12602988Y-6255756D01*
X12602987Y-6255756D01*
X12602987Y-6255756D01*
X12602987Y-6255755D01*
X12595123Y-6240321D01*
X12584941Y-6226307D01*
X12572693Y-6214059D01*
X12558679Y-6203877D01*
X12558679Y-6203877D01*
X12558678Y-6203877D01*
X12543244Y-6196012D01*
X12543244Y-6196012D01*
X12526771Y-6190660D01*
X12526770Y-6190660D01*
X12509661Y-6187950D01*
X12509661Y-6187950D01*
X12492339Y-6187950D01*
X12492339Y-6187950D01*
X12475230Y-6190660D01*
X12475229Y-6190660D01*
X12458756Y-6196012D01*
X12458756Y-6196012D01*
X12443321Y-6203877D01*
X12429307Y-6214058D01*
X12417058Y-6226307D01*
X12406877Y-6240321D01*
X12399012Y-6255756D01*
X12399012Y-6255756D01*
X12393660Y-6272229D01*
X12393660Y-6272230D01*
X12390950Y-6289338D01*
X12330050Y-6289338D01*
X12330050Y-6285871D01*
X12326884Y-6261821D01*
X12320605Y-6238390D01*
X12311322Y-6215979D01*
X12299194Y-6194971D01*
X12295885Y-6190660D01*
X12284427Y-6175727D01*
X12284427Y-6175727D01*
X12284426Y-6175726D01*
X12267274Y-6158573D01*
X12267273Y-6158573D01*
X12267273Y-6158573D01*
X12248029Y-6143807D01*
X12248029Y-6143806D01*
X12227021Y-6131678D01*
X12227021Y-6131677D01*
X12227020Y-6131677D01*
X12204610Y-6122395D01*
X12204610Y-6122395D01*
X12204610Y-6122395D01*
X12181179Y-6116116D01*
X12181179Y-6116116D01*
X12181178Y-6116116D01*
X12157129Y-6112950D01*
X12157129Y-6112950D01*
X12132871Y-6112950D01*
X12132871Y-6112950D01*
X12108822Y-6116116D01*
X12108821Y-6116116D01*
X12085391Y-6122394D01*
X12085389Y-6122395D01*
X12062979Y-6131677D01*
X12041971Y-6143807D01*
X12022727Y-6158573D01*
X12005573Y-6175727D01*
X11990807Y-6194971D01*
X11978677Y-6215979D01*
X11969395Y-6238389D01*
X11969394Y-6238391D01*
X11963116Y-6261821D01*
X11963116Y-6261822D01*
X11959950Y-6285871D01*
X10648050Y-6285871D01*
X10648050Y-6082303D01*
X10648387Y-6079741D01*
X10648673Y-6078673D01*
X10652006Y-6073542D01*
X10655674Y-6071673D01*
X10656741Y-6071387D01*
X10659303Y-6071050D01*
X17046532Y-6071050D01*
X17046532Y-6071050D01*
G37*
%TD.AperFunction*%
%TD*%
M02*
