%TF.GenerationSoftware,KiCad,Pcbnew,10.0.0*%
%TF.CreationDate,2026-04-11T10:01:36+02:00*%
%TF.ProjectId,Easyduino_Atmega,45617379-6475-4696-9e6f-5f41746d6567,rev?*%
%TF.SameCoordinates,Original*%
%TF.FileFunction,Paste,Top*%
%TF.FilePolarity,Positive*%
%FSLAX45Y45*%
G04 Gerber Fmt 4.5, Leading zero omitted, Abs format (unit mm)*
G04 Created by KiCad (PCBNEW 10.0.0) date 2026-04-11 10:01:36*
%MOMM*%
%LPD*%
G01*
G04 APERTURE LIST*
G04 Aperture macros list*
%AMRoundRect*
0 Rectangle with rounded corners*
0 $1 Rounding radius*
0 $2 $3 $4 $5 $6 $7 $8 $9 X,Y pos of 4 corners*
0 Add a 4 corners polygon primitive as box body*
4,1,4,$2,$3,$4,$5,$6,$7,$8,$9,$2,$3,0*
0 Add four circle primitives for the rounded corners*
1,1,$1+$1,$2,$3*
1,1,$1+$1,$4,$5*
1,1,$1+$1,$6,$7*
1,1,$1+$1,$8,$9*
0 Add four rect primitives between the rounded corners*
20,1,$1+$1,$2,$3,$4,$5,0*
20,1,$1+$1,$4,$5,$6,$7,0*
20,1,$1+$1,$6,$7,$8,$9,0*
20,1,$1+$1,$8,$9,$2,$3,0*%
G04 Aperture macros list end*
%ADD10RoundRect,0.200000X0.200000X0.275000X-0.200000X0.275000X-0.200000X-0.275000X0.200000X-0.275000X0*%
%ADD11RoundRect,0.225000X-0.250000X0.225000X-0.250000X-0.225000X0.250000X-0.225000X0.250000X0.225000X0*%
%ADD12RoundRect,0.375000X-0.625000X-0.375000X0.625000X-0.375000X0.625000X0.375000X-0.625000X0.375000X0*%
%ADD13RoundRect,0.500000X-0.500000X-1.400000X0.500000X-1.400000X0.500000X1.400000X-0.500000X1.400000X0*%
%ADD14RoundRect,0.225000X0.225000X0.375000X-0.225000X0.375000X-0.225000X-0.375000X0.225000X-0.375000X0*%
%ADD15RoundRect,0.225000X0.250000X-0.225000X0.250000X0.225000X-0.250000X0.225000X-0.250000X-0.225000X0*%
%ADD16RoundRect,0.175000X-0.325000X0.175000X-0.325000X-0.175000X0.325000X-0.175000X0.325000X0.175000X0*%
%ADD17RoundRect,0.150000X-0.150000X0.200000X-0.150000X-0.200000X0.150000X-0.200000X0.150000X0.200000X0*%
%ADD18RoundRect,0.200000X-0.200000X-0.275000X0.200000X-0.275000X0.200000X0.275000X-0.200000X0.275000X0*%
%ADD19R,1.600000X1.400000*%
%ADD20RoundRect,0.137500X0.600000X0.137500X-0.600000X0.137500X-0.600000X-0.137500X0.600000X-0.137500X0*%
%ADD21RoundRect,0.137500X0.137500X0.600000X-0.137500X0.600000X-0.137500X-0.600000X0.137500X-0.600000X0*%
%ADD22RoundRect,0.225000X0.225000X0.250000X-0.225000X0.250000X-0.225000X-0.250000X0.225000X-0.250000X0*%
%ADD23RoundRect,0.150000X0.150000X-0.825000X0.150000X0.825000X-0.150000X0.825000X-0.150000X-0.825000X0*%
%ADD24RoundRect,0.250000X-0.457500X-0.445000X0.457500X-0.445000X0.457500X0.445000X-0.457500X0.445000X0*%
%ADD25RoundRect,0.250000X0.445000X-0.457500X0.445000X0.457500X-0.445000X0.457500X-0.445000X-0.457500X0*%
%ADD26RoundRect,0.250000X-0.375000X-0.625000X0.375000X-0.625000X0.375000X0.625000X-0.375000X0.625000X0*%
%ADD27RoundRect,0.218750X0.218750X0.256250X-0.218750X0.256250X-0.218750X-0.256250X0.218750X-0.256250X0*%
%ADD28R,1.240000X0.600000*%
%ADD29R,1.240000X0.300000*%
%ADD30RoundRect,0.250000X0.450000X0.350000X-0.450000X0.350000X-0.450000X-0.350000X0.450000X-0.350000X0*%
%ADD31RoundRect,0.225000X-0.225000X-0.250000X0.225000X-0.250000X0.225000X0.250000X-0.225000X0.250000X0*%
%ADD32RoundRect,0.218750X-0.218750X-0.256250X0.218750X-0.256250X0.218750X0.256250X-0.218750X0.256250X0*%
G04 APERTURE END LIST*
D10*
%TO.C,R1*%
X12230000Y-6980000D03*
X12065000Y-6980000D03*
%TD*%
D11*
%TO.C,C7*%
X14030000Y-8792500D03*
X14030000Y-8947500D03*
%TD*%
D12*
%TO.C,U3*%
X11455000Y-9310000D03*
X11455000Y-9540000D03*
D13*
X12085000Y-9540000D03*
D12*
X11455000Y-9770000D03*
%TD*%
D14*
%TO.C,D2*%
X12350000Y-10340000D03*
X12020000Y-10340000D03*
%TD*%
D15*
%TO.C,C3*%
X15530000Y-8807500D03*
X15530000Y-8652500D03*
%TD*%
%TO.C,C8*%
X16160000Y-8467500D03*
X16160000Y-8312500D03*
%TD*%
D16*
%TO.C,D1*%
X11930000Y-7925000D03*
D17*
X11760000Y-7925000D03*
X11760000Y-8125000D03*
X11950000Y-8125000D03*
%TD*%
D11*
%TO.C,C9*%
X15530000Y-8317500D03*
X15530000Y-8472500D03*
%TD*%
D18*
%TO.C,R5*%
X12060000Y-6780000D03*
X12225000Y-6780000D03*
%TD*%
D19*
%TO.C,SW1*%
X10875000Y-6450000D03*
X11675000Y-6450000D03*
X10875000Y-6900000D03*
X11675000Y-6900000D03*
%TD*%
D12*
%TO.C,U4*%
X13070000Y-9340000D03*
X13070000Y-9570000D03*
D13*
X13700000Y-9570000D03*
D12*
X13070000Y-9800000D03*
%TD*%
D20*
%TO.C,U2*%
X15161250Y-9110000D03*
X15161250Y-9030000D03*
X15161250Y-8950000D03*
X15161250Y-8870000D03*
X15161250Y-8790000D03*
X15161250Y-8710000D03*
X15161250Y-8630000D03*
X15161250Y-8550000D03*
D21*
X15025000Y-8413750D03*
X14945000Y-8413750D03*
X14865000Y-8413750D03*
X14785000Y-8413750D03*
X14705000Y-8413750D03*
X14625000Y-8413750D03*
X14545000Y-8413750D03*
X14465000Y-8413750D03*
D20*
X14328750Y-8550000D03*
X14328750Y-8630000D03*
X14328750Y-8710000D03*
X14328750Y-8790000D03*
X14328750Y-8870000D03*
X14328750Y-8950000D03*
X14328750Y-9030000D03*
X14328750Y-9110000D03*
D21*
X14465000Y-9246250D03*
X14545000Y-9246250D03*
X14625000Y-9246250D03*
X14705000Y-9246250D03*
X14785000Y-9246250D03*
X14865000Y-9246250D03*
X14945000Y-9246250D03*
X15025000Y-9246250D03*
%TD*%
D22*
%TO.C,C6*%
X12720000Y-7490000D03*
X12565000Y-7490000D03*
%TD*%
D23*
%TO.C,U1*%
X12346000Y-8230000D03*
X12473000Y-8230000D03*
X12600000Y-8230000D03*
X12727000Y-8230000D03*
X12854000Y-8230000D03*
X12981000Y-8230000D03*
X13108000Y-8230000D03*
X13235000Y-8230000D03*
X13235000Y-7735000D03*
X13108000Y-7735000D03*
X12981000Y-7735000D03*
X12854000Y-7735000D03*
X12727000Y-7735000D03*
X12600000Y-7735000D03*
X12473000Y-7735000D03*
X12346000Y-7735000D03*
%TD*%
D24*
%TO.C,C12*%
X13714750Y-10050000D03*
X13985250Y-10050000D03*
%TD*%
D22*
%TO.C,C5*%
X14034000Y-8443000D03*
X13879000Y-8443000D03*
%TD*%
D15*
%TO.C,C4*%
X15530000Y-9117500D03*
X15530000Y-8962500D03*
%TD*%
D14*
%TO.C,D3*%
X12075000Y-8955000D03*
X11745000Y-8955000D03*
%TD*%
D24*
%TO.C,C10*%
X12384750Y-10087500D03*
X12655250Y-10087500D03*
%TD*%
D18*
%TO.C,R6*%
X13645000Y-7750000D03*
X13810000Y-7750000D03*
%TD*%
D25*
%TO.C,C11*%
X12707500Y-9762750D03*
X12707500Y-9492250D03*
%TD*%
D18*
%TO.C,R7*%
X12465000Y-8990000D03*
X12630000Y-8990000D03*
%TD*%
D10*
%TO.C,R4*%
X12230000Y-7210000D03*
X12065000Y-7210000D03*
%TD*%
D26*
%TO.C,F1*%
X11702500Y-8665000D03*
X11982500Y-8665000D03*
%TD*%
D18*
%TO.C,R2*%
X11765000Y-7770000D03*
X11930000Y-7770000D03*
%TD*%
D27*
%TO.C,D5*%
X13070000Y-8990000D03*
X12912500Y-8990000D03*
%TD*%
D28*
%TO.C,J1*%
X11350000Y-7755000D03*
X11350000Y-7835000D03*
D29*
X11350000Y-7950000D03*
X11350000Y-8050000D03*
X11350000Y-8100000D03*
X11350000Y-8200000D03*
D28*
X11350000Y-8315000D03*
X11350000Y-8395000D03*
X11350000Y-8395000D03*
X11350000Y-8315000D03*
D29*
X11350000Y-8250000D03*
X11350000Y-8150000D03*
X11350000Y-8000000D03*
X11350000Y-7900000D03*
D28*
X11350000Y-7835000D03*
X11350000Y-7755000D03*
%TD*%
D22*
%TO.C,C1*%
X11932500Y-8440000D03*
X11777500Y-8440000D03*
%TD*%
D30*
%TO.C,Y1*%
X15955000Y-8307500D03*
X15735000Y-8307500D03*
X15735000Y-8477500D03*
X15955000Y-8477500D03*
%TD*%
D31*
%TO.C,C2*%
X12732500Y-8465000D03*
X12887500Y-8465000D03*
%TD*%
D18*
%TO.C,R3*%
X11775000Y-8280000D03*
X11940000Y-8280000D03*
%TD*%
D27*
%TO.C,D4*%
X14150000Y-7750000D03*
X13992500Y-7750000D03*
%TD*%
D32*
%TO.C,L1*%
X13878500Y-8627000D03*
X14036000Y-8627000D03*
%TD*%
M02*
