%TF.GenerationSoftware,KiCad,Pcbnew,10.0.0*%
%TF.CreationDate,2026-04-11T10:01:36+02:00*%
%TF.ProjectId,Easyduino_Atmega,45617379-6475-4696-9e6f-5f41746d6567,rev?*%
%TF.SameCoordinates,Original*%
%TF.FileFunction,Copper,L3,Inr*%
%TF.FilePolarity,Positive*%
%FSLAX45Y45*%
G04 Gerber Fmt 4.5, Leading zero omitted, Abs format (unit mm)*
G04 Created by KiCad (PCBNEW 10.0.0) date 2026-04-11 10:01:36*
%MOMM*%
%LPD*%
G01*
G04 APERTURE LIST*
%TA.AperFunction,ComponentPad*%
%ADD10R,1.700000X1.700000*%
%TD*%
%TA.AperFunction,ComponentPad*%
%ADD11C,1.700000*%
%TD*%
%TA.AperFunction,ComponentPad*%
%ADD12O,1.700000X1.700000*%
%TD*%
%TA.AperFunction,ComponentPad*%
%ADD13O,2.100000X1.000000*%
%TD*%
%TA.AperFunction,ComponentPad*%
%ADD14O,1.800000X1.000000*%
%TD*%
%TA.AperFunction,ComponentPad*%
%ADD15C,1.600000*%
%TD*%
%TA.AperFunction,ComponentPad*%
%ADD16O,1.600000X1.600000*%
%TD*%
%TA.AperFunction,ViaPad*%
%ADD17C,0.500000*%
%TD*%
%TA.AperFunction,ViaPad*%
%ADD18C,0.700000*%
%TD*%
G04 APERTURE END LIST*
D10*
%TO.N,/Vin*%
%TO.C,J2*%
X11650000Y-10370000D03*
D11*
%TO.N,GND*%
X11650000Y-10624000D03*
%TD*%
%TO.N,/PB4*%
%TO.C,J3*%
X17010000Y-8396000D03*
D12*
%TO.N,+5V*%
X17264000Y-8396000D03*
%TO.N,/PB5*%
X17010000Y-8650000D03*
%TO.N,/PB3*%
X17264000Y-8650000D03*
%TO.N,/PC6*%
X17010000Y-8904000D03*
%TO.N,GND*%
X17264000Y-8904000D03*
%TD*%
D13*
%TO.N,GND*%
%TO.C,J1*%
X11290000Y-7643000D03*
D14*
X10870000Y-7643000D03*
D13*
X11290000Y-8507000D03*
D14*
X10870000Y-8507000D03*
%TD*%
D15*
%TO.N,unconnected-(A1-NC-Pad1)*%
%TO.C,A1*%
X13415000Y-11124000D03*
D16*
%TO.N,+5V*%
X13669000Y-11124000D03*
%TO.N,/PC6*%
X13923000Y-11124000D03*
%TO.N,+3.3V*%
X14177000Y-11124000D03*
%TO.N,+5V*%
X14431000Y-11124000D03*
%TO.N,GND*%
X14685000Y-11124000D03*
X14939000Y-11124000D03*
%TO.N,VCC*%
X15193000Y-11124000D03*
%TO.N,/PC0*%
X15701000Y-11124000D03*
%TO.N,/PC1*%
X15955000Y-11124000D03*
%TO.N,/PC2*%
X16209000Y-11124000D03*
%TO.N,/PC3*%
X16463000Y-11124000D03*
%TO.N,/PC4*%
X16717000Y-11124000D03*
%TO.N,/PC5*%
X16971000Y-11124000D03*
%TO.N,/PD0*%
X16971000Y-6298000D03*
%TO.N,/PD1*%
X16717000Y-6298000D03*
%TO.N,/PD2*%
X16463000Y-6298000D03*
%TO.N,/PD3*%
X16209000Y-6298000D03*
%TO.N,/PD4*%
X15955000Y-6298000D03*
%TO.N,/PD5*%
X15701000Y-6298000D03*
%TO.N,/PD6*%
X15447000Y-6298000D03*
%TO.N,/PD7*%
X15193000Y-6298000D03*
%TO.N,/PB0*%
X14787000Y-6298000D03*
%TO.N,/PB1*%
X14533000Y-6298000D03*
%TO.N,/PB2*%
X14279000Y-6298000D03*
%TO.N,/PB3*%
X14025000Y-6298000D03*
%TO.N,/PB4*%
X13771000Y-6298000D03*
%TO.N,/PB5*%
X13517000Y-6298000D03*
%TO.N,GND*%
X13263000Y-6298000D03*
%TO.N,/AREF*%
X13009000Y-6298000D03*
%TO.N,/PC4*%
X12755000Y-6298000D03*
%TO.N,/PC5*%
X12501000Y-6298000D03*
%TD*%
D17*
%TO.N,+5V*%
X12190000Y-8865000D03*
X15640000Y-8605000D03*
X11600000Y-9580000D03*
X13210000Y-9810000D03*
X13790000Y-8627000D03*
X11965000Y-6980000D03*
X12070000Y-9090000D03*
X12260000Y-9400000D03*
X12280000Y-9660000D03*
X12880000Y-9855000D03*
X12370000Y-8980000D03*
X12440000Y-9090000D03*
X11905000Y-9405000D03*
X11905000Y-9645000D03*
X15620000Y-8960000D03*
X12560000Y-9780000D03*
X11610000Y-9500000D03*
%TO.N,GND*%
X15620000Y-9120000D03*
X11495000Y-7725000D03*
X15700000Y-9800000D03*
X14150000Y-7870000D03*
X11750000Y-7410000D03*
X12685000Y-10240000D03*
X11295000Y-9240000D03*
X14740000Y-10270000D03*
X14130000Y-9760000D03*
X13920000Y-8880000D03*
X13790000Y-8443000D03*
X16340000Y-6130000D03*
X11275000Y-6665000D03*
X10900000Y-9600000D03*
X12040000Y-7925000D03*
X15625000Y-8870000D03*
X10900000Y-7300000D03*
X16700000Y-7600000D03*
X16100000Y-8000000D03*
X14160000Y-6130000D03*
X12015000Y-7765000D03*
X11540000Y-6450000D03*
X13310000Y-10125000D03*
X12600000Y-10700000D03*
X12345000Y-8380000D03*
X10895000Y-10975000D03*
X15530000Y-8232450D03*
X16340000Y-11290000D03*
X12980000Y-8465000D03*
X11680000Y-8440000D03*
X10900000Y-9000000D03*
X13200000Y-10700000D03*
X13220000Y-9300000D03*
X16200000Y-9800000D03*
X15730000Y-8202450D03*
X15470000Y-7490000D03*
X12925000Y-9340000D03*
X11295000Y-9325000D03*
X11620000Y-9270000D03*
X16700000Y-9300000D03*
X11490000Y-8510000D03*
X15800000Y-7100000D03*
X15450000Y-11100000D03*
X12400000Y-6110000D03*
X13900000Y-7200000D03*
X10895000Y-10830000D03*
X15900000Y-9000000D03*
X11495000Y-7805000D03*
X12855000Y-9490000D03*
X14040000Y-11290000D03*
X12840000Y-11220000D03*
X15000000Y-6400000D03*
X13220000Y-9375000D03*
X16700000Y-10300000D03*
X12800000Y-7000000D03*
X16700000Y-8000000D03*
X11490000Y-8590000D03*
X11895000Y-10710000D03*
X15960000Y-8582500D03*
X13070000Y-9095000D03*
X16160000Y-8552500D03*
X11620000Y-9345000D03*
X12035000Y-8280000D03*
X16700000Y-9800000D03*
X12925000Y-9260000D03*
X11895000Y-10620000D03*
X11005000Y-6450000D03*
X11395000Y-10855000D03*
X10895000Y-10740000D03*
X13400000Y-9150000D03*
X10895000Y-10650000D03*
%TO.N,/Vbus_f*%
X12125000Y-8205000D03*
X12345000Y-7910000D03*
%TO.N,/PC6*%
X14780000Y-9110000D03*
X12565000Y-7585000D03*
X14787500Y-8822500D03*
D18*
%TO.N,+3.3V*%
X13700000Y-10465000D03*
X13695000Y-10250000D03*
D17*
%TO.N,/PB3*%
X14660000Y-8620000D03*
%TO.N,/PB4*%
X14500000Y-8545000D03*
%TO.N,/PB5*%
X14520000Y-8615000D03*
%TO.N,/PC4*%
X14560000Y-8910050D03*
X13460000Y-7930000D03*
%TO.N,/PC5*%
X14705000Y-8895000D03*
X13435000Y-7780000D03*
%TO.N,/PD0*%
X14865000Y-9010000D03*
X13500000Y-8835000D03*
%TO.N,/PD1*%
X14945000Y-9010000D03*
X13495000Y-8745000D03*
%TD*%
%TA.AperFunction,Conductor*%
%TO.N,+5V*%
G36*
X12347593Y-6072941D02*
G01*
X12351190Y-6077891D01*
X12351190Y-6084009D01*
X12350348Y-6085900D01*
X12348702Y-6088751D01*
X12344950Y-6102752D01*
X12344950Y-6117247D01*
X12348702Y-6131249D01*
X12355949Y-6143801D01*
X12355949Y-6143801D01*
X12355949Y-6143801D01*
X12366198Y-6154051D01*
X12366199Y-6154051D01*
X12366199Y-6154051D01*
X12378751Y-6161298D01*
X12378751Y-6161298D01*
X12378751Y-6161298D01*
X12392752Y-6165050D01*
X12392753Y-6165050D01*
X12407247Y-6165050D01*
X12407247Y-6165050D01*
X12421248Y-6161298D01*
X12421249Y-6161298D01*
X12421249Y-6161298D01*
X12433801Y-6154051D01*
X12433801Y-6154051D01*
X12433801Y-6154051D01*
X12444051Y-6143801D01*
X12451298Y-6131248D01*
X12455050Y-6117247D01*
X12455050Y-6102752D01*
X12451298Y-6088751D01*
X12450836Y-6087950D01*
X12449652Y-6085900D01*
X12448380Y-6079915D01*
X12450869Y-6074326D01*
X12456167Y-6071266D01*
X12458226Y-6071050D01*
X14117197Y-6071050D01*
X14123016Y-6072941D01*
X14126612Y-6077891D01*
X14126612Y-6084009D01*
X14124197Y-6087950D01*
X14115949Y-6096198D01*
X14115949Y-6096199D01*
X14115949Y-6096199D01*
X14108702Y-6108751D01*
X14104950Y-6122752D01*
X14104950Y-6137247D01*
X14108702Y-6151249D01*
X14115949Y-6163801D01*
X14115949Y-6163801D01*
X14115949Y-6163801D01*
X14126198Y-6174051D01*
X14126199Y-6174051D01*
X14126199Y-6174051D01*
X14138751Y-6181298D01*
X14138751Y-6181298D01*
X14138751Y-6181298D01*
X14152752Y-6185050D01*
X14152753Y-6185050D01*
X14167247Y-6185050D01*
X14167247Y-6185050D01*
X14181248Y-6181298D01*
X14181249Y-6181298D01*
X14181249Y-6181298D01*
X14193801Y-6174051D01*
X14193801Y-6174051D01*
X14193801Y-6174051D01*
X14204051Y-6163801D01*
X14207069Y-6158573D01*
X14211298Y-6151249D01*
X14211298Y-6151249D01*
X14211298Y-6151248D01*
X14215050Y-6137247D01*
X14215050Y-6122752D01*
X14211298Y-6108751D01*
X14211298Y-6108751D01*
X14211298Y-6108751D01*
X14204051Y-6096199D01*
X14204051Y-6096199D01*
X14204051Y-6096198D01*
X14195802Y-6087950D01*
X14193025Y-6082499D01*
X14193982Y-6076455D01*
X14198309Y-6072129D01*
X14202803Y-6071050D01*
X16297197Y-6071050D01*
X16303016Y-6072941D01*
X16306612Y-6077891D01*
X16306612Y-6084009D01*
X16304197Y-6087950D01*
X16295949Y-6096198D01*
X16295949Y-6096199D01*
X16295949Y-6096199D01*
X16288702Y-6108751D01*
X16284950Y-6122752D01*
X16284950Y-6137247D01*
X16288702Y-6151249D01*
X16295949Y-6163801D01*
X16295949Y-6163801D01*
X16295949Y-6163801D01*
X16306198Y-6174051D01*
X16306199Y-6174051D01*
X16306199Y-6174051D01*
X16318751Y-6181298D01*
X16318751Y-6181298D01*
X16318751Y-6181298D01*
X16332752Y-6185050D01*
X16332753Y-6185050D01*
X16347247Y-6185050D01*
X16347247Y-6185050D01*
X16361248Y-6181298D01*
X16361249Y-6181298D01*
X16361249Y-6181298D01*
X16373801Y-6174051D01*
X16373801Y-6174051D01*
X16373801Y-6174051D01*
X16384051Y-6163801D01*
X16387069Y-6158573D01*
X16391298Y-6151249D01*
X16391298Y-6151249D01*
X16391298Y-6151248D01*
X16395050Y-6137247D01*
X16395050Y-6122752D01*
X16391298Y-6108751D01*
X16391298Y-6108751D01*
X16391298Y-6108751D01*
X16384051Y-6096199D01*
X16384051Y-6096199D01*
X16384051Y-6096198D01*
X16375802Y-6087950D01*
X16373025Y-6082499D01*
X16373982Y-6076455D01*
X16378309Y-6072129D01*
X16382803Y-6071050D01*
X17046532Y-6071050D01*
X17046532Y-6071050D01*
X17051642Y-6071050D01*
X17052934Y-6071135D01*
X17053568Y-6071218D01*
X17058302Y-6073179D01*
X17058809Y-6073568D01*
X17059782Y-6074421D01*
X17063396Y-6078035D01*
X17063396Y-6078035D01*
X17063396Y-6078035D01*
X17194577Y-6209216D01*
X17195431Y-6210190D01*
X17195821Y-6210698D01*
X17197782Y-6215432D01*
X17197854Y-6215979D01*
X17197865Y-6216068D01*
X17197950Y-6217360D01*
X17197950Y-7311924D01*
X17197950Y-7311926D01*
X17197950Y-7316324D01*
X17197950Y-7325377D01*
X17197950Y-7325377D01*
X17200168Y-7339376D01*
X17201687Y-7344051D01*
X17204548Y-7352856D01*
X17210983Y-7365486D01*
X17219313Y-7376952D01*
X17219314Y-7376953D01*
X17220168Y-7377807D01*
X17220597Y-7378236D01*
X17220597Y-7378236D01*
X17339608Y-7497247D01*
X17448577Y-7606216D01*
X17449431Y-7607190D01*
X17449821Y-7607698D01*
X17451782Y-7612432D01*
X17451865Y-7613068D01*
X17451950Y-7614360D01*
X17451950Y-10842924D01*
X17451950Y-10842926D01*
X17451950Y-10848642D01*
X17451865Y-10849934D01*
X17451782Y-10850568D01*
X17449821Y-10855302D01*
X17449432Y-10855809D01*
X17448578Y-10856783D01*
X17444965Y-10860396D01*
X17444965Y-10860396D01*
X17444964Y-10860396D01*
X17224616Y-11080745D01*
X17219313Y-11086047D01*
X17219313Y-11086047D01*
X17210983Y-11097513D01*
X17210982Y-11097515D01*
X17204547Y-11110144D01*
X17200167Y-11123624D01*
X17197950Y-11137624D01*
X17197950Y-11141404D01*
X17197950Y-11339697D01*
X17197612Y-11342260D01*
X17197326Y-11343327D01*
X17193993Y-11348458D01*
X17190327Y-11350326D01*
X17189554Y-11350533D01*
X17189260Y-11350612D01*
X17186697Y-11350950D01*
X16380803Y-11350950D01*
X16374984Y-11349059D01*
X16371388Y-11344109D01*
X16371388Y-11337991D01*
X16373802Y-11334050D01*
X16384051Y-11323801D01*
X16391298Y-11311248D01*
X16395050Y-11297247D01*
X16395050Y-11282752D01*
X16391298Y-11268751D01*
X16391298Y-11268751D01*
X16391298Y-11268751D01*
X16384051Y-11256199D01*
X16384051Y-11256199D01*
X16384051Y-11256198D01*
X16373801Y-11245949D01*
X16373801Y-11245949D01*
X16373801Y-11245949D01*
X16361249Y-11238702D01*
X16361249Y-11238702D01*
X16358290Y-11237909D01*
X16347247Y-11234950D01*
X16332752Y-11234950D01*
X16326579Y-11236604D01*
X16318751Y-11238702D01*
X16306199Y-11245949D01*
X16295949Y-11256199D01*
X16288702Y-11268751D01*
X16287014Y-11275050D01*
X16284950Y-11282752D01*
X16284950Y-11297247D01*
X16287264Y-11305884D01*
X16288702Y-11311249D01*
X16295949Y-11323801D01*
X16295949Y-11323801D01*
X16295949Y-11323801D01*
X16306197Y-11334050D01*
X16308975Y-11339501D01*
X16308018Y-11345544D01*
X16303691Y-11349871D01*
X16299197Y-11350950D01*
X14080803Y-11350950D01*
X14074984Y-11349059D01*
X14071388Y-11344109D01*
X14071388Y-11337991D01*
X14073802Y-11334050D01*
X14084051Y-11323801D01*
X14091298Y-11311248D01*
X14095050Y-11297247D01*
X14095050Y-11282752D01*
X14091298Y-11268751D01*
X14091298Y-11268751D01*
X14091298Y-11268751D01*
X14084051Y-11256199D01*
X14084051Y-11256199D01*
X14084051Y-11256198D01*
X14073801Y-11245949D01*
X14073801Y-11245949D01*
X14073801Y-11245949D01*
X14061249Y-11238702D01*
X14061249Y-11238702D01*
X14058290Y-11237909D01*
X14047247Y-11234950D01*
X14032752Y-11234950D01*
X14026579Y-11236604D01*
X14018751Y-11238702D01*
X14006199Y-11245949D01*
X13995949Y-11256199D01*
X13988702Y-11268751D01*
X13987014Y-11275050D01*
X13984950Y-11282752D01*
X13984950Y-11297247D01*
X13987264Y-11305884D01*
X13988702Y-11311249D01*
X13995949Y-11323801D01*
X13995949Y-11323801D01*
X13995949Y-11323801D01*
X14006197Y-11334050D01*
X14008975Y-11339501D01*
X14008018Y-11345544D01*
X14003691Y-11349871D01*
X13999197Y-11350950D01*
X10659303Y-11350950D01*
X10656741Y-11350612D01*
X10655673Y-11350326D01*
X10650542Y-11346994D01*
X10648673Y-11343326D01*
X10648387Y-11342259D01*
X10648050Y-11339697D01*
X10648050Y-11111871D01*
X11832950Y-11111871D01*
X11832950Y-11136129D01*
X11836116Y-11160178D01*
X11836116Y-11160179D01*
X11836116Y-11160179D01*
X11840342Y-11175949D01*
X11842394Y-11183609D01*
X11842395Y-11183611D01*
X11851677Y-11206020D01*
X11851677Y-11206021D01*
X11851678Y-11206021D01*
X11863205Y-11225987D01*
X11863807Y-11227029D01*
X11878573Y-11246273D01*
X11878573Y-11246273D01*
X11878573Y-11246274D01*
X11895726Y-11263426D01*
X11895727Y-11263427D01*
X11895727Y-11263427D01*
X11896540Y-11264051D01*
X11914971Y-11278194D01*
X11935979Y-11290322D01*
X11958390Y-11299605D01*
X11981821Y-11305884D01*
X12005871Y-11309050D01*
X12005871Y-11309050D01*
X12030129Y-11309050D01*
X12030129Y-11309050D01*
X12054179Y-11305884D01*
X12077610Y-11299605D01*
X12100021Y-11290322D01*
X12121029Y-11278194D01*
X12140274Y-11263426D01*
X12157426Y-11246274D01*
X12172194Y-11227029D01*
X12180436Y-11212752D01*
X12784950Y-11212752D01*
X12784950Y-11227247D01*
X12787014Y-11234950D01*
X12788702Y-11241249D01*
X12795949Y-11253801D01*
X12795949Y-11253801D01*
X12795949Y-11253801D01*
X12806198Y-11264051D01*
X12806199Y-11264051D01*
X12806199Y-11264051D01*
X12818751Y-11271298D01*
X12818751Y-11271298D01*
X12818751Y-11271298D01*
X12832752Y-11275050D01*
X12832753Y-11275050D01*
X12847247Y-11275050D01*
X12847247Y-11275050D01*
X12861248Y-11271298D01*
X12861249Y-11271298D01*
X12861249Y-11271298D01*
X12873801Y-11264051D01*
X12873801Y-11264051D01*
X12873801Y-11264051D01*
X12884051Y-11253801D01*
X12884051Y-11253801D01*
X12891298Y-11241249D01*
X12891298Y-11241249D01*
X12891298Y-11241248D01*
X12895050Y-11227247D01*
X12895050Y-11212752D01*
X12891298Y-11198751D01*
X12891298Y-11198751D01*
X12891298Y-11198751D01*
X12884051Y-11186199D01*
X12884051Y-11186199D01*
X12884051Y-11186198D01*
X12873801Y-11175949D01*
X12873801Y-11175949D01*
X12873801Y-11175949D01*
X12861249Y-11168702D01*
X12861249Y-11168702D01*
X12858290Y-11167909D01*
X12847247Y-11164950D01*
X12832752Y-11164950D01*
X12827923Y-11166244D01*
X12818751Y-11168702D01*
X12806199Y-11175949D01*
X12795949Y-11186199D01*
X12788702Y-11198751D01*
X12788702Y-11198751D01*
X12784950Y-11212752D01*
X12180436Y-11212752D01*
X12184322Y-11206021D01*
X12184323Y-11206020D01*
X12187334Y-11198751D01*
X12193605Y-11183610D01*
X12199884Y-11160179D01*
X12203050Y-11136129D01*
X12203050Y-11115339D01*
X13304950Y-11115339D01*
X13304950Y-11132661D01*
X13307660Y-11149770D01*
X13307660Y-11149771D01*
X13313012Y-11166244D01*
X13313012Y-11166244D01*
X13313013Y-11166244D01*
X13313013Y-11166245D01*
X13320877Y-11181679D01*
X13331059Y-11195693D01*
X13343307Y-11207941D01*
X13357321Y-11218123D01*
X13372755Y-11225987D01*
X13372756Y-11225987D01*
X13372756Y-11225987D01*
X13372756Y-11225988D01*
X13389229Y-11231340D01*
X13389230Y-11231340D01*
X13406339Y-11234050D01*
X13406339Y-11234050D01*
X13423661Y-11234050D01*
X13440770Y-11231340D01*
X13440771Y-11231340D01*
X13457244Y-11225988D01*
X13457244Y-11225987D01*
X13457244Y-11225987D01*
X13472679Y-11218123D01*
X13486693Y-11207941D01*
X13498941Y-11195693D01*
X13509123Y-11181679D01*
X13516987Y-11166245D01*
X13516987Y-11166244D01*
X13516988Y-11166244D01*
X13522340Y-11149771D01*
X13522340Y-11149770D01*
X13525050Y-11132661D01*
X13525050Y-11115339D01*
X13812950Y-11115339D01*
X13812950Y-11132661D01*
X13815660Y-11149770D01*
X13815660Y-11149771D01*
X13821012Y-11166244D01*
X13821012Y-11166244D01*
X13821013Y-11166244D01*
X13821013Y-11166245D01*
X13828877Y-11181679D01*
X13839059Y-11195693D01*
X13851307Y-11207941D01*
X13865321Y-11218123D01*
X13880755Y-11225987D01*
X13880756Y-11225987D01*
X13880756Y-11225987D01*
X13880756Y-11225988D01*
X13897229Y-11231340D01*
X13897230Y-11231340D01*
X13914339Y-11234050D01*
X13914339Y-11234050D01*
X13931661Y-11234050D01*
X13948770Y-11231340D01*
X13948771Y-11231340D01*
X13965244Y-11225988D01*
X13965244Y-11225987D01*
X13965244Y-11225987D01*
X13980679Y-11218123D01*
X13994693Y-11207941D01*
X14006941Y-11195693D01*
X14017123Y-11181679D01*
X14024987Y-11166245D01*
X14024987Y-11166244D01*
X14024988Y-11166244D01*
X14030340Y-11149771D01*
X14030340Y-11149770D01*
X14033050Y-11132661D01*
X14033050Y-11115339D01*
X14066950Y-11115339D01*
X14066950Y-11132661D01*
X14069660Y-11149770D01*
X14069660Y-11149771D01*
X14075012Y-11166244D01*
X14075012Y-11166244D01*
X14075013Y-11166244D01*
X14075013Y-11166245D01*
X14082877Y-11181679D01*
X14093059Y-11195693D01*
X14105307Y-11207941D01*
X14119321Y-11218123D01*
X14134755Y-11225987D01*
X14134756Y-11225987D01*
X14134756Y-11225987D01*
X14134756Y-11225988D01*
X14151229Y-11231340D01*
X14151230Y-11231340D01*
X14168339Y-11234050D01*
X14168339Y-11234050D01*
X14185661Y-11234050D01*
X14202770Y-11231340D01*
X14202771Y-11231340D01*
X14219244Y-11225988D01*
X14219244Y-11225987D01*
X14219244Y-11225987D01*
X14234679Y-11218123D01*
X14248693Y-11207941D01*
X14260941Y-11195693D01*
X14271123Y-11181679D01*
X14278987Y-11166245D01*
X14278987Y-11166244D01*
X14278988Y-11166244D01*
X14284340Y-11149771D01*
X14284340Y-11149770D01*
X14287050Y-11132661D01*
X14287050Y-11115339D01*
X14574950Y-11115339D01*
X14574950Y-11132661D01*
X14577660Y-11149770D01*
X14577660Y-11149771D01*
X14583012Y-11166244D01*
X14583012Y-11166244D01*
X14583013Y-11166244D01*
X14583013Y-11166245D01*
X14590877Y-11181679D01*
X14601059Y-11195693D01*
X14613307Y-11207941D01*
X14627321Y-11218123D01*
X14642755Y-11225987D01*
X14642756Y-11225987D01*
X14642756Y-11225987D01*
X14642756Y-11225988D01*
X14659229Y-11231340D01*
X14659230Y-11231340D01*
X14676339Y-11234050D01*
X14676339Y-11234050D01*
X14693661Y-11234050D01*
X14710770Y-11231340D01*
X14710771Y-11231340D01*
X14727244Y-11225988D01*
X14727244Y-11225987D01*
X14727244Y-11225987D01*
X14742679Y-11218123D01*
X14756693Y-11207941D01*
X14768941Y-11195693D01*
X14779123Y-11181679D01*
X14786987Y-11166245D01*
X14786987Y-11166244D01*
X14786988Y-11166244D01*
X14792340Y-11149771D01*
X14792340Y-11149770D01*
X14795050Y-11132661D01*
X14795050Y-11115339D01*
X14828950Y-11115339D01*
X14828950Y-11132661D01*
X14831660Y-11149770D01*
X14831660Y-11149771D01*
X14837012Y-11166244D01*
X14837012Y-11166244D01*
X14837013Y-11166244D01*
X14837013Y-11166245D01*
X14844877Y-11181679D01*
X14855059Y-11195693D01*
X14867307Y-11207941D01*
X14881321Y-11218123D01*
X14896755Y-11225987D01*
X14896756Y-11225987D01*
X14896756Y-11225987D01*
X14896756Y-11225988D01*
X14913229Y-11231340D01*
X14913230Y-11231340D01*
X14930339Y-11234050D01*
X14930339Y-11234050D01*
X14947661Y-11234050D01*
X14964770Y-11231340D01*
X14964771Y-11231340D01*
X14981244Y-11225988D01*
X14981244Y-11225987D01*
X14981244Y-11225987D01*
X14996679Y-11218123D01*
X15010693Y-11207941D01*
X15022941Y-11195693D01*
X15033123Y-11181679D01*
X15040987Y-11166245D01*
X15040987Y-11166244D01*
X15040988Y-11166244D01*
X15046340Y-11149771D01*
X15046340Y-11149770D01*
X15049050Y-11132661D01*
X15049050Y-11115339D01*
X15082950Y-11115339D01*
X15082950Y-11132661D01*
X15085660Y-11149770D01*
X15085660Y-11149771D01*
X15091012Y-11166244D01*
X15091012Y-11166244D01*
X15091013Y-11166244D01*
X15091013Y-11166245D01*
X15098877Y-11181679D01*
X15109059Y-11195693D01*
X15121307Y-11207941D01*
X15135321Y-11218123D01*
X15150755Y-11225987D01*
X15150756Y-11225987D01*
X15150756Y-11225987D01*
X15150756Y-11225988D01*
X15167229Y-11231340D01*
X15167230Y-11231340D01*
X15184339Y-11234050D01*
X15184339Y-11234050D01*
X15201661Y-11234050D01*
X15218770Y-11231340D01*
X15218771Y-11231340D01*
X15235244Y-11225988D01*
X15235244Y-11225987D01*
X15235244Y-11225987D01*
X15250679Y-11218123D01*
X15264693Y-11207941D01*
X15276941Y-11195693D01*
X15287123Y-11181679D01*
X15294987Y-11166245D01*
X15294987Y-11166244D01*
X15294988Y-11166244D01*
X15300340Y-11149771D01*
X15300340Y-11149770D01*
X15303050Y-11132661D01*
X15303050Y-11115339D01*
X15300340Y-11098230D01*
X15299344Y-11095163D01*
X15299344Y-11095163D01*
X15298561Y-11092753D01*
X15394950Y-11092753D01*
X15394950Y-11107247D01*
X15398702Y-11121249D01*
X15405949Y-11133801D01*
X15405949Y-11133801D01*
X15405949Y-11133802D01*
X15416198Y-11144051D01*
X15416199Y-11144051D01*
X15416199Y-11144051D01*
X15428751Y-11151298D01*
X15428751Y-11151298D01*
X15428751Y-11151298D01*
X15442752Y-11155050D01*
X15442753Y-11155050D01*
X15457247Y-11155050D01*
X15457247Y-11155050D01*
X15471248Y-11151298D01*
X15471249Y-11151298D01*
X15471249Y-11151298D01*
X15483801Y-11144051D01*
X15483801Y-11144051D01*
X15483801Y-11144051D01*
X15494051Y-11133802D01*
X15501298Y-11121249D01*
X15502882Y-11115339D01*
X15590950Y-11115339D01*
X15590950Y-11132661D01*
X15593660Y-11149770D01*
X15593660Y-11149771D01*
X15599012Y-11166244D01*
X15599012Y-11166244D01*
X15599013Y-11166244D01*
X15599013Y-11166245D01*
X15606877Y-11181679D01*
X15617059Y-11195693D01*
X15629307Y-11207941D01*
X15643321Y-11218123D01*
X15658755Y-11225987D01*
X15658756Y-11225987D01*
X15658756Y-11225987D01*
X15658756Y-11225988D01*
X15675229Y-11231340D01*
X15675230Y-11231340D01*
X15692339Y-11234050D01*
X15692339Y-11234050D01*
X15709661Y-11234050D01*
X15726770Y-11231340D01*
X15726771Y-11231340D01*
X15743244Y-11225988D01*
X15743244Y-11225987D01*
X15743244Y-11225987D01*
X15758679Y-11218123D01*
X15772693Y-11207941D01*
X15784941Y-11195693D01*
X15795123Y-11181679D01*
X15802987Y-11166245D01*
X15802987Y-11166244D01*
X15802988Y-11166244D01*
X15808340Y-11149771D01*
X15808340Y-11149770D01*
X15811050Y-11132661D01*
X15811050Y-11115339D01*
X15844950Y-11115339D01*
X15844950Y-11132661D01*
X15847660Y-11149770D01*
X15847660Y-11149771D01*
X15853012Y-11166244D01*
X15853012Y-11166244D01*
X15853013Y-11166244D01*
X15853013Y-11166245D01*
X15860877Y-11181679D01*
X15871059Y-11195693D01*
X15883307Y-11207941D01*
X15897321Y-11218123D01*
X15912755Y-11225987D01*
X15912756Y-11225987D01*
X15912756Y-11225987D01*
X15912756Y-11225988D01*
X15929229Y-11231340D01*
X15929230Y-11231340D01*
X15946339Y-11234050D01*
X15946339Y-11234050D01*
X15963661Y-11234050D01*
X15980770Y-11231340D01*
X15980771Y-11231340D01*
X15997244Y-11225988D01*
X15997244Y-11225987D01*
X15997244Y-11225987D01*
X16012679Y-11218123D01*
X16026693Y-11207941D01*
X16038941Y-11195693D01*
X16049123Y-11181679D01*
X16056987Y-11166245D01*
X16056987Y-11166244D01*
X16056988Y-11166244D01*
X16062340Y-11149771D01*
X16062340Y-11149770D01*
X16065050Y-11132661D01*
X16065050Y-11115339D01*
X16098950Y-11115339D01*
X16098950Y-11132661D01*
X16101660Y-11149770D01*
X16101660Y-11149771D01*
X16107012Y-11166244D01*
X16107012Y-11166244D01*
X16107013Y-11166244D01*
X16107013Y-11166245D01*
X16114877Y-11181679D01*
X16125059Y-11195693D01*
X16137307Y-11207941D01*
X16151321Y-11218123D01*
X16166755Y-11225987D01*
X16166756Y-11225987D01*
X16166756Y-11225987D01*
X16166756Y-11225988D01*
X16183229Y-11231340D01*
X16183230Y-11231340D01*
X16200339Y-11234050D01*
X16200339Y-11234050D01*
X16217661Y-11234050D01*
X16234770Y-11231340D01*
X16234771Y-11231340D01*
X16251244Y-11225988D01*
X16251244Y-11225987D01*
X16251244Y-11225987D01*
X16266679Y-11218123D01*
X16280693Y-11207941D01*
X16292941Y-11195693D01*
X16303123Y-11181679D01*
X16310987Y-11166245D01*
X16310987Y-11166244D01*
X16310988Y-11166244D01*
X16316340Y-11149771D01*
X16316340Y-11149770D01*
X16319050Y-11132661D01*
X16319050Y-11115339D01*
X16352950Y-11115339D01*
X16352950Y-11132661D01*
X16355660Y-11149770D01*
X16355660Y-11149771D01*
X16361012Y-11166244D01*
X16361012Y-11166244D01*
X16361013Y-11166244D01*
X16361013Y-11166245D01*
X16368877Y-11181679D01*
X16379059Y-11195693D01*
X16391307Y-11207941D01*
X16405321Y-11218123D01*
X16420755Y-11225987D01*
X16420756Y-11225987D01*
X16420756Y-11225987D01*
X16420756Y-11225988D01*
X16437229Y-11231340D01*
X16437230Y-11231340D01*
X16454339Y-11234050D01*
X16454339Y-11234050D01*
X16471661Y-11234050D01*
X16488770Y-11231340D01*
X16488771Y-11231340D01*
X16505244Y-11225988D01*
X16505244Y-11225987D01*
X16505244Y-11225987D01*
X16520679Y-11218123D01*
X16534693Y-11207941D01*
X16546941Y-11195693D01*
X16557123Y-11181679D01*
X16564987Y-11166245D01*
X16564987Y-11166244D01*
X16564988Y-11166244D01*
X16570340Y-11149771D01*
X16570340Y-11149770D01*
X16573050Y-11132661D01*
X16573050Y-11115339D01*
X16606950Y-11115339D01*
X16606950Y-11132661D01*
X16609660Y-11149770D01*
X16609660Y-11149771D01*
X16615012Y-11166244D01*
X16615012Y-11166244D01*
X16615013Y-11166244D01*
X16615013Y-11166245D01*
X16622877Y-11181679D01*
X16633059Y-11195693D01*
X16645307Y-11207941D01*
X16659321Y-11218123D01*
X16674755Y-11225987D01*
X16674756Y-11225987D01*
X16674756Y-11225987D01*
X16674756Y-11225988D01*
X16691229Y-11231340D01*
X16691230Y-11231340D01*
X16708339Y-11234050D01*
X16708339Y-11234050D01*
X16725661Y-11234050D01*
X16742770Y-11231340D01*
X16742771Y-11231340D01*
X16759244Y-11225988D01*
X16759244Y-11225987D01*
X16759244Y-11225987D01*
X16774679Y-11218123D01*
X16788693Y-11207941D01*
X16800941Y-11195693D01*
X16811123Y-11181679D01*
X16818987Y-11166245D01*
X16818987Y-11166244D01*
X16818988Y-11166244D01*
X16824340Y-11149771D01*
X16824340Y-11149770D01*
X16827050Y-11132661D01*
X16827050Y-11115339D01*
X16860950Y-11115339D01*
X16860950Y-11132661D01*
X16863660Y-11149770D01*
X16863660Y-11149771D01*
X16869012Y-11166244D01*
X16869013Y-11166244D01*
X16869013Y-11166244D01*
X16869013Y-11166245D01*
X16876877Y-11181679D01*
X16887059Y-11195693D01*
X16899307Y-11207941D01*
X16913321Y-11218123D01*
X16928756Y-11225987D01*
X16928756Y-11225987D01*
X16928756Y-11225987D01*
X16928756Y-11225988D01*
X16945229Y-11231340D01*
X16945230Y-11231340D01*
X16962339Y-11234050D01*
X16962339Y-11234050D01*
X16979661Y-11234050D01*
X16996770Y-11231340D01*
X16996771Y-11231340D01*
X17013244Y-11225988D01*
X17013244Y-11225987D01*
X17013245Y-11225987D01*
X17028679Y-11218123D01*
X17042693Y-11207941D01*
X17054941Y-11195693D01*
X17065123Y-11181679D01*
X17072987Y-11166245D01*
X17072987Y-11166244D01*
X17072988Y-11166244D01*
X17078340Y-11149771D01*
X17078340Y-11149770D01*
X17081050Y-11132661D01*
X17081050Y-11115339D01*
X17078340Y-11098230D01*
X17078340Y-11098229D01*
X17072988Y-11081756D01*
X17072987Y-11081756D01*
X17072987Y-11081756D01*
X17072987Y-11081756D01*
X17065123Y-11066321D01*
X17054941Y-11052307D01*
X17042693Y-11040059D01*
X17028679Y-11029877D01*
X17028679Y-11029877D01*
X17028679Y-11029877D01*
X17013244Y-11022013D01*
X17013244Y-11022012D01*
X16996771Y-11016660D01*
X16996770Y-11016660D01*
X16979661Y-11013950D01*
X16979661Y-11013950D01*
X16962339Y-11013950D01*
X16962339Y-11013950D01*
X16945230Y-11016660D01*
X16945229Y-11016660D01*
X16928756Y-11022012D01*
X16928756Y-11022013D01*
X16913321Y-11029877D01*
X16899307Y-11040059D01*
X16887059Y-11052307D01*
X16876877Y-11066321D01*
X16869013Y-11081756D01*
X16869012Y-11081756D01*
X16863660Y-11098229D01*
X16863660Y-11098230D01*
X16860950Y-11115339D01*
X16827050Y-11115339D01*
X16824340Y-11098230D01*
X16824340Y-11098229D01*
X16818988Y-11081756D01*
X16818987Y-11081756D01*
X16818987Y-11081756D01*
X16818987Y-11081756D01*
X16811123Y-11066321D01*
X16800941Y-11052307D01*
X16788693Y-11040059D01*
X16774679Y-11029877D01*
X16774679Y-11029877D01*
X16774678Y-11029877D01*
X16759244Y-11022013D01*
X16759244Y-11022012D01*
X16742771Y-11016660D01*
X16742770Y-11016660D01*
X16725661Y-11013950D01*
X16725661Y-11013950D01*
X16708339Y-11013950D01*
X16708339Y-11013950D01*
X16691230Y-11016660D01*
X16691229Y-11016660D01*
X16674756Y-11022012D01*
X16674756Y-11022013D01*
X16659321Y-11029877D01*
X16645307Y-11040059D01*
X16633058Y-11052307D01*
X16622877Y-11066321D01*
X16615012Y-11081756D01*
X16615012Y-11081756D01*
X16609660Y-11098229D01*
X16609660Y-11098230D01*
X16606950Y-11115339D01*
X16573050Y-11115339D01*
X16570340Y-11098230D01*
X16570340Y-11098229D01*
X16564988Y-11081756D01*
X16564987Y-11081756D01*
X16564987Y-11081756D01*
X16564987Y-11081756D01*
X16557123Y-11066321D01*
X16546941Y-11052307D01*
X16534693Y-11040059D01*
X16520679Y-11029877D01*
X16520679Y-11029877D01*
X16520678Y-11029877D01*
X16505244Y-11022013D01*
X16505244Y-11022012D01*
X16488771Y-11016660D01*
X16488770Y-11016660D01*
X16471661Y-11013950D01*
X16471661Y-11013950D01*
X16454339Y-11013950D01*
X16454339Y-11013950D01*
X16437230Y-11016660D01*
X16437229Y-11016660D01*
X16420756Y-11022012D01*
X16420756Y-11022013D01*
X16405321Y-11029877D01*
X16391307Y-11040059D01*
X16379058Y-11052307D01*
X16368877Y-11066321D01*
X16361012Y-11081756D01*
X16361012Y-11081756D01*
X16355660Y-11098229D01*
X16355660Y-11098230D01*
X16352950Y-11115339D01*
X16319050Y-11115339D01*
X16316340Y-11098230D01*
X16316340Y-11098229D01*
X16310988Y-11081756D01*
X16310987Y-11081756D01*
X16310987Y-11081756D01*
X16310987Y-11081756D01*
X16303123Y-11066321D01*
X16292941Y-11052307D01*
X16280693Y-11040059D01*
X16266679Y-11029877D01*
X16266679Y-11029877D01*
X16266678Y-11029877D01*
X16251244Y-11022013D01*
X16251244Y-11022012D01*
X16234771Y-11016660D01*
X16234770Y-11016660D01*
X16217661Y-11013950D01*
X16217661Y-11013950D01*
X16200339Y-11013950D01*
X16200339Y-11013950D01*
X16183230Y-11016660D01*
X16183229Y-11016660D01*
X16166756Y-11022012D01*
X16166756Y-11022013D01*
X16151321Y-11029877D01*
X16137307Y-11040059D01*
X16125058Y-11052307D01*
X16114877Y-11066321D01*
X16107012Y-11081756D01*
X16107012Y-11081756D01*
X16101660Y-11098229D01*
X16101660Y-11098230D01*
X16098950Y-11115339D01*
X16065050Y-11115339D01*
X16062340Y-11098230D01*
X16062340Y-11098229D01*
X16056988Y-11081756D01*
X16056987Y-11081756D01*
X16056987Y-11081756D01*
X16056987Y-11081756D01*
X16049123Y-11066321D01*
X16038941Y-11052307D01*
X16026693Y-11040059D01*
X16012679Y-11029877D01*
X16012679Y-11029877D01*
X16012678Y-11029877D01*
X15997244Y-11022013D01*
X15997244Y-11022012D01*
X15980771Y-11016660D01*
X15980770Y-11016660D01*
X15963661Y-11013950D01*
X15963661Y-11013950D01*
X15946339Y-11013950D01*
X15946339Y-11013950D01*
X15929230Y-11016660D01*
X15929229Y-11016660D01*
X15912756Y-11022012D01*
X15912756Y-11022013D01*
X15897321Y-11029877D01*
X15883307Y-11040059D01*
X15871058Y-11052307D01*
X15860877Y-11066321D01*
X15853012Y-11081756D01*
X15853012Y-11081756D01*
X15847660Y-11098229D01*
X15847660Y-11098230D01*
X15844950Y-11115339D01*
X15811050Y-11115339D01*
X15808340Y-11098230D01*
X15808340Y-11098229D01*
X15802988Y-11081756D01*
X15802987Y-11081756D01*
X15802987Y-11081756D01*
X15802987Y-11081756D01*
X15795123Y-11066321D01*
X15784941Y-11052307D01*
X15772693Y-11040059D01*
X15758679Y-11029877D01*
X15758679Y-11029877D01*
X15758678Y-11029877D01*
X15743244Y-11022013D01*
X15743244Y-11022012D01*
X15726771Y-11016660D01*
X15726770Y-11016660D01*
X15709661Y-11013950D01*
X15709661Y-11013950D01*
X15692339Y-11013950D01*
X15692339Y-11013950D01*
X15675230Y-11016660D01*
X15675229Y-11016660D01*
X15658756Y-11022012D01*
X15658756Y-11022013D01*
X15643321Y-11029877D01*
X15629307Y-11040059D01*
X15617058Y-11052307D01*
X15606877Y-11066321D01*
X15599012Y-11081756D01*
X15599012Y-11081756D01*
X15593660Y-11098229D01*
X15593660Y-11098230D01*
X15590950Y-11115339D01*
X15502882Y-11115339D01*
X15503673Y-11112388D01*
X15503673Y-11112388D01*
X15505050Y-11107247D01*
X15505050Y-11092753D01*
X15503253Y-11086047D01*
X15501298Y-11078752D01*
X15501298Y-11078751D01*
X15501298Y-11078751D01*
X15494051Y-11066199D01*
X15494051Y-11066199D01*
X15494051Y-11066199D01*
X15483801Y-11055949D01*
X15483801Y-11055949D01*
X15483801Y-11055949D01*
X15471249Y-11048702D01*
X15471249Y-11048702D01*
X15468290Y-11047909D01*
X15457247Y-11044950D01*
X15442752Y-11044950D01*
X15436579Y-11046604D01*
X15428751Y-11048702D01*
X15416199Y-11055949D01*
X15405949Y-11066199D01*
X15398702Y-11078751D01*
X15394950Y-11092753D01*
X15298561Y-11092753D01*
X15294988Y-11081756D01*
X15294987Y-11081756D01*
X15294987Y-11081756D01*
X15294987Y-11081756D01*
X15287123Y-11066321D01*
X15276941Y-11052307D01*
X15264693Y-11040059D01*
X15250679Y-11029877D01*
X15250679Y-11029877D01*
X15250678Y-11029877D01*
X15235244Y-11022013D01*
X15235244Y-11022012D01*
X15218771Y-11016660D01*
X15218770Y-11016660D01*
X15201661Y-11013950D01*
X15201661Y-11013950D01*
X15184339Y-11013950D01*
X15184339Y-11013950D01*
X15167230Y-11016660D01*
X15167229Y-11016660D01*
X15150756Y-11022012D01*
X15150756Y-11022013D01*
X15135321Y-11029877D01*
X15121307Y-11040059D01*
X15109058Y-11052307D01*
X15098877Y-11066321D01*
X15091012Y-11081756D01*
X15091012Y-11081756D01*
X15085660Y-11098229D01*
X15085660Y-11098230D01*
X15082950Y-11115339D01*
X15049050Y-11115339D01*
X15046340Y-11098230D01*
X15046340Y-11098229D01*
X15040988Y-11081756D01*
X15040987Y-11081756D01*
X15040987Y-11081756D01*
X15040987Y-11081756D01*
X15033123Y-11066321D01*
X15022941Y-11052307D01*
X15010693Y-11040059D01*
X14996679Y-11029877D01*
X14996679Y-11029877D01*
X14996678Y-11029877D01*
X14981244Y-11022013D01*
X14981244Y-11022012D01*
X14964771Y-11016660D01*
X14964770Y-11016660D01*
X14947661Y-11013950D01*
X14947661Y-11013950D01*
X14930339Y-11013950D01*
X14930339Y-11013950D01*
X14913230Y-11016660D01*
X14913229Y-11016660D01*
X14896756Y-11022012D01*
X14896756Y-11022013D01*
X14881321Y-11029877D01*
X14867307Y-11040059D01*
X14855058Y-11052307D01*
X14844877Y-11066321D01*
X14837012Y-11081756D01*
X14837012Y-11081756D01*
X14831660Y-11098229D01*
X14831660Y-11098230D01*
X14828950Y-11115339D01*
X14795050Y-11115339D01*
X14792340Y-11098230D01*
X14792340Y-11098229D01*
X14786988Y-11081756D01*
X14786987Y-11081756D01*
X14786987Y-11081756D01*
X14786987Y-11081756D01*
X14779123Y-11066321D01*
X14768941Y-11052307D01*
X14756693Y-11040059D01*
X14742679Y-11029877D01*
X14742679Y-11029877D01*
X14742678Y-11029877D01*
X14727244Y-11022013D01*
X14727244Y-11022012D01*
X14710771Y-11016660D01*
X14710770Y-11016660D01*
X14693661Y-11013950D01*
X14693661Y-11013950D01*
X14676339Y-11013950D01*
X14676339Y-11013950D01*
X14659230Y-11016660D01*
X14659229Y-11016660D01*
X14642756Y-11022012D01*
X14642756Y-11022013D01*
X14627321Y-11029877D01*
X14613307Y-11040059D01*
X14601058Y-11052307D01*
X14590877Y-11066321D01*
X14583012Y-11081756D01*
X14583012Y-11081756D01*
X14577660Y-11098229D01*
X14577660Y-11098230D01*
X14574950Y-11115339D01*
X14287050Y-11115339D01*
X14284340Y-11098230D01*
X14284340Y-11098229D01*
X14278988Y-11081756D01*
X14278987Y-11081756D01*
X14278987Y-11081756D01*
X14278987Y-11081756D01*
X14271123Y-11066321D01*
X14260941Y-11052307D01*
X14248693Y-11040059D01*
X14234679Y-11029877D01*
X14234679Y-11029877D01*
X14234678Y-11029877D01*
X14219244Y-11022013D01*
X14219244Y-11022012D01*
X14202771Y-11016660D01*
X14202770Y-11016660D01*
X14185661Y-11013950D01*
X14185661Y-11013950D01*
X14168339Y-11013950D01*
X14168339Y-11013950D01*
X14151230Y-11016660D01*
X14151229Y-11016660D01*
X14134756Y-11022012D01*
X14134756Y-11022013D01*
X14119321Y-11029877D01*
X14105307Y-11040059D01*
X14093058Y-11052307D01*
X14082877Y-11066321D01*
X14075012Y-11081756D01*
X14075012Y-11081756D01*
X14069660Y-11098229D01*
X14069660Y-11098230D01*
X14066950Y-11115339D01*
X14033050Y-11115339D01*
X14030340Y-11098230D01*
X14030340Y-11098229D01*
X14024988Y-11081756D01*
X14024987Y-11081756D01*
X14024987Y-11081756D01*
X14024987Y-11081756D01*
X14017123Y-11066321D01*
X14006941Y-11052307D01*
X13994693Y-11040059D01*
X13980679Y-11029877D01*
X13980679Y-11029877D01*
X13980678Y-11029877D01*
X13965244Y-11022013D01*
X13965244Y-11022012D01*
X13948771Y-11016660D01*
X13948770Y-11016660D01*
X13931661Y-11013950D01*
X13931661Y-11013950D01*
X13914339Y-11013950D01*
X13914339Y-11013950D01*
X13897230Y-11016660D01*
X13897229Y-11016660D01*
X13880756Y-11022012D01*
X13880756Y-11022013D01*
X13865321Y-11029877D01*
X13851307Y-11040059D01*
X13839058Y-11052307D01*
X13828877Y-11066321D01*
X13821012Y-11081756D01*
X13821012Y-11081756D01*
X13815660Y-11098229D01*
X13815660Y-11098230D01*
X13812950Y-11115339D01*
X13525050Y-11115339D01*
X13522340Y-11098230D01*
X13522340Y-11098229D01*
X13516988Y-11081756D01*
X13516987Y-11081756D01*
X13516987Y-11081756D01*
X13516987Y-11081756D01*
X13509123Y-11066321D01*
X13498941Y-11052307D01*
X13486693Y-11040059D01*
X13472679Y-11029877D01*
X13472679Y-11029877D01*
X13472678Y-11029877D01*
X13457244Y-11022013D01*
X13457244Y-11022012D01*
X13440771Y-11016660D01*
X13440770Y-11016660D01*
X13423661Y-11013950D01*
X13423661Y-11013950D01*
X13406339Y-11013950D01*
X13406339Y-11013950D01*
X13389230Y-11016660D01*
X13389229Y-11016660D01*
X13372756Y-11022012D01*
X13372756Y-11022013D01*
X13357321Y-11029877D01*
X13343307Y-11040059D01*
X13331058Y-11052307D01*
X13320877Y-11066321D01*
X13313012Y-11081756D01*
X13313012Y-11081756D01*
X13307660Y-11098229D01*
X13307660Y-11098230D01*
X13304950Y-11115339D01*
X12203050Y-11115339D01*
X12203050Y-11111871D01*
X12199884Y-11087821D01*
X12193605Y-11064390D01*
X12184322Y-11041979D01*
X12172194Y-11020971D01*
X12168885Y-11016660D01*
X12157427Y-11001727D01*
X12157427Y-11001727D01*
X12157426Y-11001726D01*
X12140274Y-10984574D01*
X12140273Y-10984573D01*
X12140273Y-10984573D01*
X12121029Y-10969807D01*
X12117471Y-10967753D01*
X12100021Y-10957678D01*
X12100021Y-10957677D01*
X12100020Y-10957677D01*
X12077610Y-10948395D01*
X12077610Y-10948395D01*
X12077610Y-10948395D01*
X12054179Y-10942116D01*
X12054179Y-10942116D01*
X12054178Y-10942116D01*
X12030129Y-10938950D01*
X12030129Y-10938950D01*
X12005871Y-10938950D01*
X12005871Y-10938950D01*
X11981822Y-10942116D01*
X11981821Y-10942116D01*
X11958391Y-10948394D01*
X11958389Y-10948395D01*
X11935979Y-10957677D01*
X11914971Y-10969807D01*
X11895727Y-10984573D01*
X11878573Y-11001727D01*
X11863807Y-11020971D01*
X11851677Y-11041980D01*
X11842395Y-11064389D01*
X11842394Y-11064391D01*
X11836116Y-11087821D01*
X11836116Y-11087822D01*
X11832950Y-11111871D01*
X10648050Y-11111871D01*
X10648050Y-10967753D01*
X10839950Y-10967753D01*
X10839950Y-10982247D01*
X10843702Y-10996249D01*
X10850949Y-11008801D01*
X10850949Y-11008801D01*
X10850949Y-11008802D01*
X10861199Y-11019051D01*
X10861199Y-11019051D01*
X10861199Y-11019051D01*
X10873751Y-11026298D01*
X10873751Y-11026298D01*
X10873752Y-11026298D01*
X10887753Y-11030050D01*
X10887753Y-11030050D01*
X10902247Y-11030050D01*
X10902248Y-11030050D01*
X10916249Y-11026298D01*
X10916249Y-11026298D01*
X10916249Y-11026298D01*
X10928801Y-11019051D01*
X10928801Y-11019051D01*
X10928802Y-11019051D01*
X10939051Y-11008802D01*
X10943136Y-11001727D01*
X10946298Y-10996249D01*
X10946298Y-10996249D01*
X10946298Y-10996249D01*
X10950050Y-10982248D01*
X10950050Y-10967753D01*
X10946298Y-10953752D01*
X10946298Y-10953751D01*
X10946298Y-10953751D01*
X10939051Y-10941199D01*
X10939051Y-10941199D01*
X10939051Y-10941199D01*
X10928802Y-10930949D01*
X10928801Y-10930949D01*
X10928801Y-10930949D01*
X10916249Y-10923702D01*
X10916249Y-10923702D01*
X10913290Y-10922909D01*
X10902248Y-10919950D01*
X10887753Y-10919950D01*
X10881579Y-10921604D01*
X10873751Y-10923702D01*
X10861199Y-10930949D01*
X10850949Y-10941199D01*
X10843702Y-10953751D01*
X10839950Y-10967753D01*
X10648050Y-10967753D01*
X10648050Y-10642753D01*
X10839950Y-10642753D01*
X10839950Y-10657248D01*
X10842442Y-10666549D01*
X10843702Y-10671249D01*
X10850949Y-10683801D01*
X10850949Y-10683801D01*
X10850949Y-10683801D01*
X10850949Y-10683802D01*
X10855147Y-10688000D01*
X10857925Y-10693451D01*
X10856968Y-10699495D01*
X10855148Y-10702000D01*
X10850949Y-10706199D01*
X10850949Y-10706199D01*
X10850949Y-10706199D01*
X10843702Y-10718751D01*
X10840521Y-10730621D01*
X10839950Y-10732753D01*
X10839950Y-10747248D01*
X10841773Y-10754051D01*
X10843702Y-10761249D01*
X10850949Y-10773801D01*
X10850949Y-10773801D01*
X10850949Y-10773802D01*
X10855147Y-10778000D01*
X10857925Y-10783451D01*
X10856968Y-10789495D01*
X10855148Y-10792000D01*
X10850949Y-10796199D01*
X10850949Y-10796199D01*
X10850949Y-10796199D01*
X10843702Y-10808751D01*
X10843113Y-10810949D01*
X10839950Y-10822753D01*
X10839950Y-10837248D01*
X10842765Y-10847753D01*
X10843702Y-10851249D01*
X10850949Y-10863801D01*
X10850949Y-10863801D01*
X10850949Y-10863802D01*
X10861199Y-10874051D01*
X10861199Y-10874051D01*
X10861199Y-10874051D01*
X10873751Y-10881298D01*
X10873751Y-10881298D01*
X10873752Y-10881298D01*
X10887753Y-10885050D01*
X10887753Y-10885050D01*
X10902247Y-10885050D01*
X10902248Y-10885050D01*
X10916249Y-10881298D01*
X10916249Y-10881298D01*
X10916249Y-10881298D01*
X10928801Y-10874051D01*
X10928801Y-10874051D01*
X10928802Y-10874051D01*
X10939051Y-10863802D01*
X10946298Y-10851249D01*
X10947235Y-10847753D01*
X11339950Y-10847753D01*
X11339950Y-10862247D01*
X11343702Y-10876249D01*
X11350949Y-10888801D01*
X11350949Y-10888801D01*
X11350949Y-10888802D01*
X11361198Y-10899051D01*
X11361199Y-10899051D01*
X11361199Y-10899051D01*
X11373751Y-10906298D01*
X11373751Y-10906298D01*
X11373751Y-10906298D01*
X11387752Y-10910050D01*
X11387753Y-10910050D01*
X11402247Y-10910050D01*
X11402247Y-10910050D01*
X11416248Y-10906298D01*
X11416249Y-10906298D01*
X11416249Y-10906298D01*
X11428801Y-10899051D01*
X11428801Y-10899051D01*
X11428801Y-10899051D01*
X11439051Y-10888802D01*
X11439051Y-10888801D01*
X11446298Y-10876249D01*
X11446298Y-10876249D01*
X11446298Y-10876249D01*
X11450050Y-10862248D01*
X11450050Y-10847753D01*
X11446298Y-10833752D01*
X11446298Y-10833751D01*
X11446298Y-10833751D01*
X11439051Y-10821199D01*
X11439051Y-10821199D01*
X11439051Y-10821199D01*
X11428801Y-10810949D01*
X11428801Y-10810949D01*
X11428801Y-10810949D01*
X11416249Y-10803702D01*
X11416249Y-10803702D01*
X11413290Y-10802909D01*
X11402247Y-10799950D01*
X11387752Y-10799950D01*
X11383648Y-10801050D01*
X11373751Y-10803702D01*
X11361199Y-10810949D01*
X11350949Y-10821199D01*
X11343702Y-10833751D01*
X11339950Y-10847753D01*
X10947235Y-10847753D01*
X10950050Y-10837248D01*
X10950050Y-10822753D01*
X10946298Y-10808752D01*
X10946298Y-10808751D01*
X10946298Y-10808751D01*
X10939051Y-10796199D01*
X10939051Y-10796199D01*
X10939051Y-10796199D01*
X10934853Y-10792000D01*
X10932075Y-10786549D01*
X10933032Y-10780506D01*
X10934852Y-10778000D01*
X10939051Y-10773802D01*
X10946298Y-10761249D01*
X10950050Y-10747248D01*
X10950050Y-10732753D01*
X10946298Y-10718752D01*
X10946298Y-10718751D01*
X10946298Y-10718751D01*
X10939051Y-10706199D01*
X10939051Y-10706199D01*
X10939051Y-10706199D01*
X10934853Y-10702000D01*
X10932075Y-10696549D01*
X10933032Y-10690506D01*
X10934852Y-10688000D01*
X10939051Y-10683802D01*
X10939051Y-10683801D01*
X10939051Y-10683801D01*
X10946298Y-10671249D01*
X10946298Y-10671249D01*
X10946298Y-10671249D01*
X10950050Y-10657248D01*
X10950050Y-10642753D01*
X10946298Y-10628752D01*
X10946298Y-10628751D01*
X10946298Y-10628751D01*
X10940961Y-10619506D01*
X10939051Y-10616199D01*
X10939051Y-10616199D01*
X10939051Y-10616199D01*
X10937797Y-10614945D01*
X11534950Y-10614945D01*
X11534950Y-10633055D01*
X11537783Y-10650941D01*
X11543379Y-10668164D01*
X11547473Y-10676199D01*
X11551600Y-10684299D01*
X11562245Y-10698950D01*
X11575050Y-10711755D01*
X11589701Y-10722400D01*
X11605836Y-10730621D01*
X11623059Y-10736217D01*
X11630214Y-10737350D01*
X11640945Y-10739050D01*
X11640945Y-10739050D01*
X11659055Y-10739050D01*
X11667998Y-10737634D01*
X11676941Y-10736217D01*
X11694164Y-10730621D01*
X11710299Y-10722400D01*
X11724950Y-10711755D01*
X11737755Y-10698950D01*
X11748400Y-10684299D01*
X11756621Y-10668164D01*
X11762217Y-10650941D01*
X11765050Y-10633055D01*
X11765050Y-10614945D01*
X11765050Y-10614945D01*
X11764845Y-10613653D01*
X11764845Y-10613652D01*
X11764703Y-10612753D01*
X11839950Y-10612753D01*
X11839950Y-10627248D01*
X11840186Y-10628129D01*
X11843702Y-10641249D01*
X11850949Y-10653801D01*
X11850949Y-10653801D01*
X11850949Y-10653802D01*
X11855147Y-10658000D01*
X11857925Y-10663451D01*
X11856968Y-10669495D01*
X11855147Y-10672000D01*
X11851538Y-10675609D01*
X11850949Y-10676199D01*
X11850949Y-10676199D01*
X11843702Y-10688751D01*
X11842027Y-10695000D01*
X11839950Y-10702753D01*
X11839950Y-10717248D01*
X11842909Y-10728290D01*
X11843702Y-10731249D01*
X11850949Y-10743801D01*
X11850949Y-10743801D01*
X11850949Y-10743802D01*
X11861198Y-10754051D01*
X11861199Y-10754051D01*
X11861199Y-10754051D01*
X11873751Y-10761298D01*
X11873751Y-10761298D01*
X11873751Y-10761298D01*
X11887752Y-10765050D01*
X11887753Y-10765050D01*
X11902247Y-10765050D01*
X11902247Y-10765050D01*
X11916248Y-10761298D01*
X11916249Y-10761298D01*
X11916249Y-10761298D01*
X11928801Y-10754051D01*
X11928801Y-10754051D01*
X11928801Y-10754051D01*
X11939051Y-10743802D01*
X11942242Y-10738274D01*
X11946298Y-10731249D01*
X11946298Y-10731249D01*
X11946298Y-10731249D01*
X11950050Y-10717248D01*
X11950050Y-10702753D01*
X11947370Y-10692753D01*
X12544950Y-10692753D01*
X12544950Y-10707247D01*
X12548702Y-10721249D01*
X12555949Y-10733801D01*
X12555949Y-10733801D01*
X12555949Y-10733802D01*
X12566198Y-10744051D01*
X12566199Y-10744051D01*
X12566199Y-10744051D01*
X12578751Y-10751298D01*
X12578751Y-10751298D01*
X12578751Y-10751298D01*
X12592752Y-10755050D01*
X12592753Y-10755050D01*
X12607247Y-10755050D01*
X12607247Y-10755050D01*
X12621248Y-10751298D01*
X12621249Y-10751298D01*
X12621249Y-10751298D01*
X12633801Y-10744051D01*
X12633801Y-10744051D01*
X12633801Y-10744051D01*
X12644051Y-10733802D01*
X12644051Y-10733801D01*
X12651298Y-10721249D01*
X12651298Y-10721249D01*
X12651298Y-10721249D01*
X12655050Y-10707248D01*
X12655050Y-10692753D01*
X13144950Y-10692753D01*
X13144950Y-10707247D01*
X13148702Y-10721249D01*
X13155949Y-10733801D01*
X13155949Y-10733801D01*
X13155949Y-10733802D01*
X13166198Y-10744051D01*
X13166199Y-10744051D01*
X13166199Y-10744051D01*
X13178751Y-10751298D01*
X13178751Y-10751298D01*
X13178751Y-10751298D01*
X13192752Y-10755050D01*
X13192753Y-10755050D01*
X13207247Y-10755050D01*
X13207247Y-10755050D01*
X13221248Y-10751298D01*
X13221249Y-10751298D01*
X13221249Y-10751298D01*
X13233801Y-10744051D01*
X13233801Y-10744051D01*
X13233801Y-10744051D01*
X13244051Y-10733802D01*
X13244051Y-10733801D01*
X13251298Y-10721249D01*
X13251298Y-10721249D01*
X13251298Y-10721249D01*
X13255050Y-10707248D01*
X13255050Y-10692753D01*
X13251298Y-10678752D01*
X13251298Y-10678751D01*
X13251298Y-10678751D01*
X13244051Y-10666199D01*
X13244051Y-10666199D01*
X13244051Y-10666199D01*
X13233801Y-10655949D01*
X13233801Y-10655949D01*
X13233801Y-10655949D01*
X13221249Y-10648702D01*
X13221249Y-10648702D01*
X13218290Y-10647909D01*
X13207247Y-10644950D01*
X13192752Y-10644950D01*
X13186579Y-10646604D01*
X13178751Y-10648702D01*
X13166199Y-10655949D01*
X13155949Y-10666199D01*
X13148702Y-10678751D01*
X13144950Y-10692753D01*
X12655050Y-10692753D01*
X12651298Y-10678752D01*
X12651298Y-10678751D01*
X12651298Y-10678751D01*
X12644051Y-10666199D01*
X12644051Y-10666199D01*
X12644051Y-10666199D01*
X12633801Y-10655949D01*
X12633801Y-10655949D01*
X12633801Y-10655949D01*
X12621249Y-10648702D01*
X12621249Y-10648702D01*
X12618290Y-10647909D01*
X12607247Y-10644950D01*
X12592752Y-10644950D01*
X12586579Y-10646604D01*
X12578751Y-10648702D01*
X12566199Y-10655949D01*
X12555949Y-10666199D01*
X12548702Y-10678751D01*
X12544950Y-10692753D01*
X11947370Y-10692753D01*
X11946298Y-10688752D01*
X11946298Y-10688751D01*
X11946298Y-10688751D01*
X11939051Y-10676199D01*
X11939051Y-10676199D01*
X11939051Y-10676199D01*
X11934852Y-10672000D01*
X11932075Y-10666549D01*
X11933032Y-10660506D01*
X11934852Y-10658000D01*
X11939051Y-10653802D01*
X11940702Y-10650941D01*
X11946298Y-10641249D01*
X11946298Y-10641249D01*
X11946298Y-10641249D01*
X11950050Y-10627248D01*
X11950050Y-10612753D01*
X11947670Y-10603871D01*
X17039950Y-10603871D01*
X17039950Y-10628129D01*
X17043116Y-10652178D01*
X17043116Y-10652179D01*
X17049394Y-10675609D01*
X17049395Y-10675611D01*
X17058677Y-10698020D01*
X17058677Y-10698021D01*
X17058678Y-10698021D01*
X17070806Y-10719029D01*
X17070807Y-10719029D01*
X17085573Y-10738273D01*
X17085573Y-10738273D01*
X17085574Y-10738274D01*
X17102726Y-10755427D01*
X17102727Y-10755427D01*
X17102727Y-10755427D01*
X17110379Y-10761298D01*
X17121971Y-10770194D01*
X17142979Y-10782322D01*
X17165390Y-10791605D01*
X17188821Y-10797884D01*
X17212871Y-10801050D01*
X17212871Y-10801050D01*
X17237129Y-10801050D01*
X17237129Y-10801050D01*
X17261179Y-10797884D01*
X17284610Y-10791605D01*
X17307021Y-10782322D01*
X17328029Y-10770194D01*
X17347274Y-10755427D01*
X17364427Y-10738274D01*
X17379194Y-10719029D01*
X17391322Y-10698021D01*
X17400605Y-10675610D01*
X17406884Y-10652179D01*
X17410050Y-10628129D01*
X17410050Y-10603871D01*
X17406884Y-10579821D01*
X17400605Y-10556390D01*
X17392839Y-10537641D01*
X17391323Y-10533980D01*
X17391323Y-10533979D01*
X17391322Y-10533979D01*
X17379194Y-10512971D01*
X17366028Y-10495813D01*
X17364427Y-10493727D01*
X17364427Y-10493727D01*
X17364427Y-10493726D01*
X17347274Y-10476574D01*
X17347273Y-10476573D01*
X17347273Y-10476573D01*
X17328029Y-10461807D01*
X17328029Y-10461806D01*
X17307021Y-10449678D01*
X17307021Y-10449677D01*
X17307020Y-10449677D01*
X17284611Y-10440395D01*
X17284610Y-10440395D01*
X17284610Y-10440395D01*
X17261179Y-10434116D01*
X17261179Y-10434116D01*
X17261178Y-10434116D01*
X17237129Y-10430950D01*
X17237129Y-10430950D01*
X17212871Y-10430950D01*
X17212871Y-10430950D01*
X17188822Y-10434116D01*
X17188821Y-10434116D01*
X17165391Y-10440394D01*
X17165389Y-10440395D01*
X17142980Y-10449677D01*
X17121971Y-10461807D01*
X17102727Y-10476573D01*
X17085573Y-10493727D01*
X17070807Y-10512971D01*
X17058677Y-10533980D01*
X17049395Y-10556389D01*
X17049394Y-10556391D01*
X17043116Y-10579821D01*
X17043116Y-10579822D01*
X17039950Y-10603871D01*
X11947670Y-10603871D01*
X11946298Y-10598752D01*
X11946298Y-10598751D01*
X11946298Y-10598751D01*
X11939051Y-10586199D01*
X11939051Y-10586199D01*
X11939051Y-10586199D01*
X11928801Y-10575949D01*
X11928801Y-10575949D01*
X11928801Y-10575949D01*
X11916249Y-10568702D01*
X11916249Y-10568702D01*
X11913290Y-10567909D01*
X11902247Y-10564950D01*
X11887752Y-10564950D01*
X11881579Y-10566604D01*
X11873751Y-10568702D01*
X11861199Y-10575949D01*
X11850949Y-10586199D01*
X11843702Y-10598751D01*
X11839950Y-10612752D01*
X11839950Y-10612753D01*
X11764703Y-10612753D01*
X11762485Y-10598752D01*
X11762217Y-10597059D01*
X11756621Y-10579836D01*
X11748400Y-10563701D01*
X11737755Y-10549050D01*
X11724950Y-10536245D01*
X11710299Y-10525600D01*
X11710299Y-10525600D01*
X11710299Y-10525600D01*
X11694164Y-10517379D01*
X11676941Y-10511783D01*
X11659055Y-10508950D01*
X11659055Y-10508950D01*
X11640945Y-10508950D01*
X11640945Y-10508950D01*
X11623059Y-10511783D01*
X11605836Y-10517379D01*
X11589701Y-10525600D01*
X11583576Y-10530050D01*
X11575050Y-10536245D01*
X11562245Y-10549050D01*
X11556922Y-10556375D01*
X11551600Y-10563701D01*
X11543379Y-10579836D01*
X11537783Y-10597059D01*
X11534950Y-10614945D01*
X10937797Y-10614945D01*
X10928802Y-10605949D01*
X10928801Y-10605949D01*
X10928801Y-10605949D01*
X10916249Y-10598702D01*
X10916249Y-10598702D01*
X10910119Y-10597059D01*
X10902248Y-10594950D01*
X10887753Y-10594950D01*
X10881579Y-10596604D01*
X10873751Y-10598702D01*
X10861199Y-10605949D01*
X10850949Y-10616199D01*
X10843702Y-10628751D01*
X10843702Y-10628752D01*
X10839950Y-10642753D01*
X10648050Y-10642753D01*
X10648050Y-10280513D01*
X11534950Y-10280513D01*
X11534950Y-10459486D01*
X11534950Y-10459486D01*
X11535241Y-10461999D01*
X11537776Y-10467739D01*
X11539779Y-10472277D01*
X11547723Y-10480221D01*
X11558001Y-10484759D01*
X11560513Y-10485050D01*
X11739486Y-10485050D01*
X11741999Y-10484759D01*
X11752276Y-10480221D01*
X11760221Y-10472277D01*
X11764758Y-10461999D01*
X11765050Y-10459487D01*
X11765050Y-10458593D01*
X13634950Y-10458593D01*
X13634950Y-10471407D01*
X13637450Y-10483974D01*
X13637450Y-10483975D01*
X13642353Y-10495813D01*
X13642354Y-10495813D01*
X13646636Y-10502223D01*
X13649472Y-10506467D01*
X13658533Y-10515528D01*
X13664885Y-10519772D01*
X13669187Y-10522646D01*
X13669187Y-10522646D01*
X13669187Y-10522647D01*
X13681026Y-10527550D01*
X13693593Y-10530050D01*
X13693593Y-10530050D01*
X13706407Y-10530050D01*
X13706407Y-10530050D01*
X13718974Y-10527550D01*
X13730813Y-10522647D01*
X13741467Y-10515528D01*
X13750528Y-10506467D01*
X13757646Y-10495813D01*
X13762550Y-10483974D01*
X13765050Y-10471407D01*
X13765050Y-10458593D01*
X13762550Y-10446026D01*
X13757646Y-10434187D01*
X13757646Y-10434187D01*
X13757646Y-10434187D01*
X13754772Y-10429885D01*
X13750528Y-10423533D01*
X13741467Y-10414472D01*
X13737223Y-10411637D01*
X13730813Y-10407354D01*
X13730812Y-10407353D01*
X13718975Y-10402450D01*
X13718974Y-10402450D01*
X13718974Y-10402450D01*
X13706407Y-10399950D01*
X13693593Y-10399950D01*
X13693593Y-10399950D01*
X13687309Y-10401200D01*
X13681026Y-10402450D01*
X13681025Y-10402450D01*
X13681025Y-10402450D01*
X13669187Y-10407353D01*
X13669187Y-10407354D01*
X13658533Y-10414472D01*
X13658533Y-10414473D01*
X13649473Y-10423533D01*
X13649472Y-10423533D01*
X13642354Y-10434187D01*
X13642353Y-10434187D01*
X13637450Y-10446025D01*
X13637450Y-10446026D01*
X13634950Y-10458593D01*
X11765050Y-10458593D01*
X11765050Y-10280514D01*
X11764758Y-10278001D01*
X11760221Y-10267724D01*
X11752276Y-10259779D01*
X11741999Y-10255242D01*
X11741999Y-10255241D01*
X11741999Y-10255241D01*
X11739487Y-10254950D01*
X11560514Y-10254950D01*
X11560514Y-10254950D01*
X11558001Y-10255241D01*
X11547723Y-10259779D01*
X11539779Y-10267724D01*
X11535241Y-10278001D01*
X11534950Y-10280513D01*
X10648050Y-10280513D01*
X10648050Y-10232753D01*
X12629950Y-10232753D01*
X12629950Y-10247248D01*
X12630340Y-10248702D01*
X12633702Y-10261249D01*
X12640949Y-10273801D01*
X12640949Y-10273801D01*
X12640949Y-10273802D01*
X12651198Y-10284051D01*
X12651199Y-10284051D01*
X12651199Y-10284051D01*
X12663751Y-10291298D01*
X12663751Y-10291298D01*
X12663751Y-10291298D01*
X12677752Y-10295050D01*
X12677753Y-10295050D01*
X12692247Y-10295050D01*
X12692247Y-10295050D01*
X12706248Y-10291298D01*
X12706249Y-10291298D01*
X12706249Y-10291298D01*
X12718801Y-10284051D01*
X12718801Y-10284051D01*
X12718801Y-10284051D01*
X12729051Y-10273802D01*
X12731838Y-10268975D01*
X12736298Y-10261249D01*
X12736298Y-10261249D01*
X12736298Y-10261249D01*
X12740050Y-10247248D01*
X12740050Y-10243593D01*
X13629950Y-10243593D01*
X13629950Y-10256407D01*
X13632450Y-10268974D01*
X13632450Y-10268974D01*
X13632450Y-10268975D01*
X13637353Y-10280813D01*
X13637354Y-10280813D01*
X13641636Y-10287223D01*
X13644472Y-10291467D01*
X13653533Y-10300528D01*
X13659885Y-10304772D01*
X13664187Y-10307646D01*
X13664187Y-10307646D01*
X13664187Y-10307647D01*
X13676026Y-10312550D01*
X13688593Y-10315050D01*
X13688593Y-10315050D01*
X13701407Y-10315050D01*
X13701407Y-10315050D01*
X13713974Y-10312550D01*
X13725813Y-10307647D01*
X13736467Y-10300528D01*
X13745528Y-10291467D01*
X13752646Y-10280813D01*
X13757550Y-10268974D01*
X13758788Y-10262753D01*
X14684950Y-10262753D01*
X14684950Y-10277248D01*
X14685905Y-10280813D01*
X14688702Y-10291249D01*
X14695949Y-10303801D01*
X14695949Y-10303801D01*
X14695949Y-10303802D01*
X14706198Y-10314051D01*
X14706199Y-10314051D01*
X14706199Y-10314051D01*
X14718751Y-10321298D01*
X14718751Y-10321298D01*
X14718751Y-10321298D01*
X14732752Y-10325050D01*
X14732753Y-10325050D01*
X14747247Y-10325050D01*
X14747247Y-10325050D01*
X14761248Y-10321298D01*
X14761249Y-10321298D01*
X14761249Y-10321298D01*
X14773801Y-10314051D01*
X14773801Y-10314051D01*
X14773801Y-10314051D01*
X14784051Y-10303802D01*
X14790430Y-10292753D01*
X16644950Y-10292753D01*
X16644950Y-10307248D01*
X16646773Y-10314051D01*
X16648702Y-10321249D01*
X16655949Y-10333801D01*
X16655949Y-10333801D01*
X16655949Y-10333802D01*
X16666198Y-10344051D01*
X16666199Y-10344051D01*
X16666199Y-10344051D01*
X16678751Y-10351298D01*
X16678751Y-10351298D01*
X16678751Y-10351298D01*
X16692752Y-10355050D01*
X16692753Y-10355050D01*
X16707247Y-10355050D01*
X16707247Y-10355050D01*
X16721248Y-10351298D01*
X16721249Y-10351298D01*
X16721249Y-10351298D01*
X16733801Y-10344051D01*
X16733801Y-10344051D01*
X16733801Y-10344051D01*
X16744051Y-10333802D01*
X16751298Y-10321249D01*
X16755050Y-10307248D01*
X16755050Y-10292753D01*
X16751298Y-10278752D01*
X16751298Y-10278751D01*
X16751298Y-10278751D01*
X16744051Y-10266199D01*
X16744051Y-10266199D01*
X16744051Y-10266199D01*
X16733801Y-10255949D01*
X16733801Y-10255949D01*
X16733801Y-10255949D01*
X16721249Y-10248702D01*
X16721249Y-10248702D01*
X16715821Y-10247247D01*
X16707247Y-10244950D01*
X16692752Y-10244950D01*
X16686579Y-10246604D01*
X16678751Y-10248702D01*
X16666199Y-10255949D01*
X16655949Y-10266199D01*
X16648702Y-10278751D01*
X16648149Y-10280813D01*
X16644950Y-10292753D01*
X14790430Y-10292753D01*
X14791298Y-10291249D01*
X14791298Y-10291249D01*
X14791298Y-10291249D01*
X14795050Y-10277248D01*
X14795050Y-10262753D01*
X14791298Y-10248752D01*
X14791298Y-10248751D01*
X14791298Y-10248751D01*
X14784051Y-10236199D01*
X14784051Y-10236199D01*
X14784051Y-10236199D01*
X14773801Y-10225949D01*
X14773801Y-10225949D01*
X14773801Y-10225949D01*
X14761249Y-10218702D01*
X14761249Y-10218702D01*
X14758290Y-10217909D01*
X14747247Y-10214950D01*
X14732752Y-10214950D01*
X14726579Y-10216604D01*
X14718751Y-10218702D01*
X14706199Y-10225949D01*
X14695949Y-10236199D01*
X14688702Y-10248751D01*
X14688702Y-10248752D01*
X14684950Y-10262753D01*
X13758788Y-10262753D01*
X13760050Y-10256407D01*
X13760050Y-10243593D01*
X13757550Y-10231026D01*
X13752646Y-10219187D01*
X13752646Y-10219187D01*
X13752646Y-10219187D01*
X13749772Y-10214885D01*
X13745528Y-10208533D01*
X13736467Y-10199472D01*
X13731193Y-10195949D01*
X13725813Y-10192354D01*
X13725812Y-10192353D01*
X13713975Y-10187450D01*
X13713974Y-10187450D01*
X13713974Y-10187450D01*
X13701407Y-10184950D01*
X13688593Y-10184950D01*
X13688593Y-10184950D01*
X13682309Y-10186200D01*
X13676026Y-10187450D01*
X13676025Y-10187450D01*
X13676025Y-10187450D01*
X13664187Y-10192353D01*
X13664187Y-10192354D01*
X13653533Y-10199472D01*
X13653533Y-10199473D01*
X13644473Y-10208533D01*
X13644472Y-10208533D01*
X13637354Y-10219187D01*
X13637353Y-10219187D01*
X13632450Y-10231025D01*
X13632450Y-10231026D01*
X13632450Y-10231026D01*
X13629950Y-10243593D01*
X12740050Y-10243593D01*
X12740050Y-10232753D01*
X12736298Y-10218752D01*
X12736298Y-10218751D01*
X12736298Y-10218751D01*
X12729051Y-10206199D01*
X12729051Y-10206199D01*
X12729051Y-10206199D01*
X12718801Y-10195949D01*
X12718801Y-10195949D01*
X12718801Y-10195949D01*
X12706249Y-10188702D01*
X12706249Y-10188702D01*
X12701577Y-10187450D01*
X12692247Y-10184950D01*
X12677752Y-10184950D01*
X12671579Y-10186604D01*
X12663751Y-10188702D01*
X12651199Y-10195949D01*
X12640949Y-10206199D01*
X12633702Y-10218751D01*
X12633702Y-10218752D01*
X12629950Y-10232753D01*
X10648050Y-10232753D01*
X10648050Y-10117753D01*
X13254950Y-10117753D01*
X13254950Y-10132247D01*
X13258702Y-10146249D01*
X13265949Y-10158801D01*
X13265949Y-10158801D01*
X13265949Y-10158802D01*
X13276198Y-10169051D01*
X13276199Y-10169051D01*
X13276199Y-10169051D01*
X13288751Y-10176298D01*
X13288751Y-10176298D01*
X13288751Y-10176298D01*
X13302752Y-10180050D01*
X13302753Y-10180050D01*
X13317247Y-10180050D01*
X13317247Y-10180050D01*
X13331248Y-10176298D01*
X13331249Y-10176298D01*
X13331249Y-10176298D01*
X13343801Y-10169051D01*
X13343801Y-10169051D01*
X13343801Y-10169051D01*
X13354051Y-10158802D01*
X13361298Y-10146249D01*
X13365050Y-10132248D01*
X13365050Y-10117753D01*
X13361298Y-10103752D01*
X13361298Y-10103751D01*
X13361298Y-10103751D01*
X13354051Y-10091199D01*
X13354051Y-10091199D01*
X13354051Y-10091199D01*
X13343801Y-10080949D01*
X13343801Y-10080949D01*
X13343801Y-10080949D01*
X13331249Y-10073702D01*
X13331249Y-10073702D01*
X13328290Y-10072909D01*
X13317247Y-10069950D01*
X13302752Y-10069950D01*
X13296579Y-10071604D01*
X13288751Y-10073702D01*
X13276199Y-10080949D01*
X13265949Y-10091199D01*
X13258702Y-10103751D01*
X13254950Y-10117753D01*
X10648050Y-10117753D01*
X10648050Y-9752753D01*
X14074950Y-9752753D01*
X14074950Y-9767247D01*
X14078702Y-9781249D01*
X14085949Y-9793801D01*
X14085949Y-9793801D01*
X14085949Y-9793802D01*
X14096198Y-9804051D01*
X14096199Y-9804051D01*
X14096199Y-9804051D01*
X14108751Y-9811298D01*
X14108751Y-9811298D01*
X14108751Y-9811298D01*
X14122752Y-9815050D01*
X14122753Y-9815050D01*
X14137247Y-9815050D01*
X14137247Y-9815050D01*
X14151248Y-9811298D01*
X14151249Y-9811298D01*
X14151249Y-9811298D01*
X14163801Y-9804051D01*
X14163801Y-9804051D01*
X14163801Y-9804051D01*
X14174051Y-9793802D01*
X14174656Y-9792753D01*
X15644950Y-9792753D01*
X15644950Y-9807248D01*
X15647041Y-9815050D01*
X15648702Y-9821249D01*
X15655949Y-9833801D01*
X15655949Y-9833801D01*
X15655949Y-9833802D01*
X15666198Y-9844051D01*
X15666199Y-9844051D01*
X15666199Y-9844051D01*
X15678751Y-9851298D01*
X15678751Y-9851298D01*
X15678751Y-9851298D01*
X15692752Y-9855050D01*
X15692753Y-9855050D01*
X15707247Y-9855050D01*
X15707247Y-9855050D01*
X15721248Y-9851298D01*
X15721249Y-9851298D01*
X15721249Y-9851298D01*
X15733801Y-9844051D01*
X15733801Y-9844051D01*
X15733801Y-9844051D01*
X15744051Y-9833802D01*
X15751298Y-9821249D01*
X15755050Y-9807248D01*
X15755050Y-9792753D01*
X16144950Y-9792753D01*
X16144950Y-9807248D01*
X16147041Y-9815050D01*
X16148702Y-9821249D01*
X16155949Y-9833801D01*
X16155949Y-9833801D01*
X16155949Y-9833802D01*
X16166198Y-9844051D01*
X16166199Y-9844051D01*
X16166199Y-9844051D01*
X16178751Y-9851298D01*
X16178751Y-9851298D01*
X16178751Y-9851298D01*
X16192752Y-9855050D01*
X16192753Y-9855050D01*
X16207247Y-9855050D01*
X16207247Y-9855050D01*
X16221248Y-9851298D01*
X16221249Y-9851298D01*
X16221249Y-9851298D01*
X16233801Y-9844051D01*
X16233801Y-9844051D01*
X16233801Y-9844051D01*
X16244051Y-9833802D01*
X16251298Y-9821249D01*
X16255050Y-9807248D01*
X16255050Y-9792753D01*
X16644950Y-9792753D01*
X16644950Y-9807248D01*
X16647041Y-9815050D01*
X16648702Y-9821249D01*
X16655949Y-9833801D01*
X16655949Y-9833801D01*
X16655949Y-9833802D01*
X16666198Y-9844051D01*
X16666199Y-9844051D01*
X16666199Y-9844051D01*
X16678751Y-9851298D01*
X16678751Y-9851298D01*
X16678751Y-9851298D01*
X16692752Y-9855050D01*
X16692753Y-9855050D01*
X16707247Y-9855050D01*
X16707247Y-9855050D01*
X16721248Y-9851298D01*
X16721249Y-9851298D01*
X16721249Y-9851298D01*
X16733801Y-9844051D01*
X16733801Y-9844051D01*
X16733801Y-9844051D01*
X16744051Y-9833802D01*
X16751298Y-9821249D01*
X16755050Y-9807248D01*
X16755050Y-9792753D01*
X16751298Y-9778752D01*
X16751298Y-9778751D01*
X16751298Y-9778751D01*
X16744051Y-9766199D01*
X16744051Y-9766199D01*
X16744051Y-9766199D01*
X16733801Y-9755949D01*
X16733801Y-9755949D01*
X16733801Y-9755949D01*
X16721249Y-9748702D01*
X16721249Y-9748702D01*
X16718290Y-9747909D01*
X16707247Y-9744950D01*
X16692752Y-9744950D01*
X16686579Y-9746604D01*
X16678751Y-9748702D01*
X16666199Y-9755949D01*
X16655949Y-9766199D01*
X16648702Y-9778751D01*
X16648702Y-9778752D01*
X16644950Y-9792753D01*
X16255050Y-9792753D01*
X16251298Y-9778752D01*
X16251298Y-9778751D01*
X16251298Y-9778751D01*
X16244051Y-9766199D01*
X16244051Y-9766199D01*
X16244051Y-9766199D01*
X16233801Y-9755949D01*
X16233801Y-9755949D01*
X16233801Y-9755949D01*
X16221249Y-9748702D01*
X16221249Y-9748702D01*
X16218290Y-9747909D01*
X16207247Y-9744950D01*
X16192752Y-9744950D01*
X16186579Y-9746604D01*
X16178751Y-9748702D01*
X16166199Y-9755949D01*
X16155949Y-9766199D01*
X16148702Y-9778751D01*
X16148702Y-9778752D01*
X16144950Y-9792753D01*
X15755050Y-9792753D01*
X15751298Y-9778752D01*
X15751298Y-9778751D01*
X15751298Y-9778751D01*
X15744051Y-9766199D01*
X15744051Y-9766199D01*
X15744051Y-9766199D01*
X15733801Y-9755949D01*
X15733801Y-9755949D01*
X15733801Y-9755949D01*
X15721249Y-9748702D01*
X15721249Y-9748702D01*
X15718290Y-9747909D01*
X15707247Y-9744950D01*
X15692752Y-9744950D01*
X15686579Y-9746604D01*
X15678751Y-9748702D01*
X15666199Y-9755949D01*
X15655949Y-9766199D01*
X15648702Y-9778751D01*
X15648702Y-9778752D01*
X15644950Y-9792753D01*
X14174656Y-9792753D01*
X14176103Y-9790247D01*
X14177889Y-9787154D01*
X14179939Y-9783603D01*
X14181298Y-9781249D01*
X14185050Y-9767248D01*
X14185050Y-9752753D01*
X14181298Y-9738752D01*
X14181298Y-9738751D01*
X14181298Y-9738751D01*
X14174051Y-9726199D01*
X14174051Y-9726199D01*
X14174051Y-9726199D01*
X14163801Y-9715949D01*
X14163801Y-9715949D01*
X14163801Y-9715949D01*
X14151249Y-9708702D01*
X14151249Y-9708702D01*
X14148290Y-9707909D01*
X14137247Y-9704950D01*
X14122752Y-9704950D01*
X14116579Y-9706604D01*
X14108751Y-9708702D01*
X14096199Y-9715949D01*
X14085949Y-9726199D01*
X14078702Y-9738751D01*
X14074950Y-9752753D01*
X10648050Y-9752753D01*
X10648050Y-9592753D01*
X10844950Y-9592753D01*
X10844950Y-9607247D01*
X10848702Y-9621249D01*
X10855949Y-9633801D01*
X10855949Y-9633801D01*
X10855949Y-9633802D01*
X10866199Y-9644051D01*
X10866199Y-9644051D01*
X10866199Y-9644051D01*
X10878751Y-9651298D01*
X10878751Y-9651298D01*
X10878752Y-9651298D01*
X10892753Y-9655050D01*
X10892753Y-9655050D01*
X10907247Y-9655050D01*
X10907248Y-9655050D01*
X10921249Y-9651298D01*
X10921249Y-9651298D01*
X10921249Y-9651298D01*
X10933801Y-9644051D01*
X10933801Y-9644051D01*
X10933802Y-9644051D01*
X10944051Y-9633802D01*
X10951298Y-9621249D01*
X10955050Y-9607248D01*
X10955050Y-9592753D01*
X10951298Y-9578752D01*
X10951298Y-9578751D01*
X10951298Y-9578751D01*
X10944051Y-9566199D01*
X10944051Y-9566199D01*
X10944051Y-9566199D01*
X10933802Y-9555949D01*
X10933801Y-9555949D01*
X10933801Y-9555949D01*
X10921249Y-9548702D01*
X10921249Y-9548702D01*
X10918290Y-9547909D01*
X10907248Y-9544950D01*
X10892753Y-9544950D01*
X10886579Y-9546604D01*
X10878751Y-9548702D01*
X10866199Y-9555949D01*
X10855949Y-9566199D01*
X10848702Y-9578751D01*
X10844950Y-9592753D01*
X10648050Y-9592753D01*
X10648050Y-9482753D01*
X12799950Y-9482753D01*
X12799950Y-9497247D01*
X12803702Y-9511249D01*
X12810949Y-9523801D01*
X12810949Y-9523801D01*
X12810949Y-9523802D01*
X12821198Y-9534051D01*
X12821199Y-9534051D01*
X12821199Y-9534051D01*
X12833751Y-9541298D01*
X12833751Y-9541298D01*
X12833751Y-9541298D01*
X12847752Y-9545050D01*
X12847753Y-9545050D01*
X12862247Y-9545050D01*
X12862247Y-9545050D01*
X12876248Y-9541298D01*
X12876249Y-9541298D01*
X12876249Y-9541298D01*
X12888801Y-9534051D01*
X12888801Y-9534051D01*
X12888801Y-9534051D01*
X12899051Y-9523802D01*
X12906298Y-9511249D01*
X12910050Y-9497248D01*
X12910050Y-9482753D01*
X12906298Y-9468752D01*
X12906298Y-9468751D01*
X12906298Y-9468751D01*
X12899051Y-9456199D01*
X12899051Y-9456199D01*
X12899051Y-9456199D01*
X12888801Y-9445949D01*
X12888801Y-9445949D01*
X12888801Y-9445949D01*
X12876249Y-9438702D01*
X12876249Y-9438702D01*
X12873290Y-9437909D01*
X12862247Y-9434950D01*
X12847752Y-9434950D01*
X12841579Y-9436604D01*
X12833751Y-9438702D01*
X12821199Y-9445949D01*
X12810949Y-9456199D01*
X12803702Y-9468751D01*
X12799950Y-9482753D01*
X10648050Y-9482753D01*
X10648050Y-9232753D01*
X11239950Y-9232753D01*
X11239950Y-9247248D01*
X11242281Y-9255949D01*
X11243702Y-9261249D01*
X11250949Y-9273801D01*
X11250949Y-9273802D01*
X11252647Y-9275500D01*
X11255425Y-9280952D01*
X11254468Y-9286995D01*
X11252647Y-9289500D01*
X11250949Y-9291198D01*
X11250949Y-9291199D01*
X11243702Y-9303751D01*
X11241371Y-9312450D01*
X11239950Y-9317753D01*
X11239950Y-9332248D01*
X11241357Y-9337500D01*
X11243702Y-9346249D01*
X11250949Y-9358801D01*
X11250949Y-9358801D01*
X11250949Y-9358802D01*
X11261198Y-9369051D01*
X11261199Y-9369051D01*
X11261199Y-9369051D01*
X11273751Y-9376298D01*
X11273751Y-9376298D01*
X11273751Y-9376298D01*
X11287752Y-9380050D01*
X11287753Y-9380050D01*
X11302247Y-9380050D01*
X11302247Y-9380050D01*
X11316248Y-9376298D01*
X11316249Y-9376298D01*
X11316249Y-9376298D01*
X11328801Y-9369051D01*
X11328801Y-9369051D01*
X11328801Y-9369051D01*
X11339051Y-9358802D01*
X11339051Y-9358801D01*
X11346298Y-9346249D01*
X11346298Y-9346249D01*
X11346298Y-9346249D01*
X11350050Y-9332248D01*
X11350050Y-9317753D01*
X11346298Y-9303752D01*
X11346298Y-9303751D01*
X11346298Y-9303751D01*
X11339051Y-9291199D01*
X11339051Y-9291199D01*
X11339051Y-9291199D01*
X11337352Y-9289500D01*
X11334575Y-9284049D01*
X11335532Y-9278006D01*
X11337353Y-9275500D01*
X11339051Y-9273802D01*
X11345430Y-9262753D01*
X11564950Y-9262753D01*
X11564950Y-9277247D01*
X11568702Y-9291249D01*
X11575226Y-9302550D01*
X11576499Y-9308535D01*
X11575226Y-9312450D01*
X11568702Y-9323751D01*
X11566009Y-9333801D01*
X11564950Y-9337753D01*
X11564950Y-9352248D01*
X11567909Y-9363290D01*
X11568702Y-9366249D01*
X11575949Y-9378801D01*
X11575949Y-9378801D01*
X11575949Y-9378802D01*
X11586198Y-9389051D01*
X11586199Y-9389051D01*
X11586199Y-9389051D01*
X11598751Y-9396298D01*
X11598751Y-9396298D01*
X11598751Y-9396298D01*
X11612752Y-9400050D01*
X11612753Y-9400050D01*
X11627247Y-9400050D01*
X11627247Y-9400050D01*
X11641248Y-9396298D01*
X11641249Y-9396298D01*
X11641249Y-9396298D01*
X11653801Y-9389051D01*
X11653801Y-9389051D01*
X11653801Y-9389051D01*
X11664051Y-9378802D01*
X11666938Y-9373802D01*
X11671298Y-9366249D01*
X11671298Y-9366249D01*
X11671298Y-9366249D01*
X11675050Y-9352248D01*
X11675050Y-9337753D01*
X11671298Y-9323752D01*
X11671298Y-9323751D01*
X11671298Y-9323751D01*
X11664773Y-9312450D01*
X11663501Y-9306465D01*
X11664773Y-9302550D01*
X11671298Y-9291249D01*
X11671298Y-9291249D01*
X11671298Y-9291249D01*
X11675050Y-9277248D01*
X11675050Y-9262753D01*
X11672370Y-9252753D01*
X12869950Y-9252753D01*
X12869950Y-9267247D01*
X12873702Y-9281249D01*
X12880949Y-9293802D01*
X12881081Y-9293974D01*
X12881133Y-9294120D01*
X12881273Y-9294364D01*
X12881228Y-9294390D01*
X12883123Y-9299742D01*
X12881385Y-9305608D01*
X12881081Y-9306026D01*
X12880949Y-9306198D01*
X12873702Y-9318751D01*
X12873702Y-9318752D01*
X12869950Y-9332753D01*
X12869950Y-9347248D01*
X12871290Y-9352247D01*
X12873702Y-9361249D01*
X12880949Y-9373801D01*
X12880949Y-9373801D01*
X12880949Y-9373802D01*
X12891198Y-9384051D01*
X12891199Y-9384051D01*
X12891199Y-9384051D01*
X12903751Y-9391298D01*
X12903751Y-9391298D01*
X12903751Y-9391298D01*
X12917752Y-9395050D01*
X12917753Y-9395050D01*
X12932247Y-9395050D01*
X12932247Y-9395050D01*
X12946248Y-9391298D01*
X12946249Y-9391298D01*
X12946249Y-9391298D01*
X12958801Y-9384051D01*
X12958801Y-9384051D01*
X12958801Y-9384051D01*
X12969051Y-9373802D01*
X12973411Y-9366249D01*
X12976298Y-9361249D01*
X12976298Y-9361249D01*
X12976298Y-9361249D01*
X12980050Y-9347248D01*
X12980050Y-9332753D01*
X12976298Y-9318752D01*
X12976298Y-9318751D01*
X12976298Y-9318751D01*
X12969051Y-9306199D01*
X12968919Y-9306027D01*
X12968867Y-9305881D01*
X12968726Y-9305637D01*
X12968772Y-9305610D01*
X12966877Y-9300259D01*
X12968261Y-9294945D01*
X12968778Y-9294074D01*
X12969051Y-9293802D01*
X12969656Y-9292753D01*
X13164950Y-9292753D01*
X13164950Y-9307247D01*
X13168702Y-9321249D01*
X13175226Y-9332550D01*
X13176499Y-9338535D01*
X13175226Y-9342450D01*
X13168702Y-9353751D01*
X13164950Y-9367753D01*
X13164950Y-9382247D01*
X13168702Y-9396249D01*
X13175949Y-9408801D01*
X13175949Y-9408801D01*
X13175949Y-9408802D01*
X13186198Y-9419051D01*
X13186199Y-9419051D01*
X13186199Y-9419051D01*
X13198751Y-9426298D01*
X13198751Y-9426298D01*
X13198751Y-9426298D01*
X13212752Y-9430050D01*
X13212753Y-9430050D01*
X13227247Y-9430050D01*
X13227247Y-9430050D01*
X13241248Y-9426298D01*
X13241249Y-9426298D01*
X13241249Y-9426298D01*
X13253801Y-9419051D01*
X13253801Y-9419051D01*
X13253801Y-9419051D01*
X13264051Y-9408802D01*
X13271298Y-9396249D01*
X13275050Y-9382248D01*
X13275050Y-9367753D01*
X13271298Y-9353752D01*
X13271298Y-9353751D01*
X13271298Y-9353751D01*
X13264773Y-9342450D01*
X13263501Y-9336465D01*
X13264773Y-9332550D01*
X13271298Y-9321249D01*
X13271298Y-9321249D01*
X13271298Y-9321249D01*
X13275050Y-9307248D01*
X13275050Y-9292753D01*
X16644950Y-9292753D01*
X16644950Y-9307247D01*
X16648702Y-9321249D01*
X16655949Y-9333801D01*
X16655949Y-9333801D01*
X16655949Y-9333802D01*
X16666198Y-9344051D01*
X16666199Y-9344051D01*
X16666199Y-9344051D01*
X16678751Y-9351298D01*
X16678751Y-9351298D01*
X16678751Y-9351298D01*
X16692752Y-9355050D01*
X16692753Y-9355050D01*
X16707247Y-9355050D01*
X16707247Y-9355050D01*
X16721248Y-9351298D01*
X16721249Y-9351298D01*
X16721249Y-9351298D01*
X16733801Y-9344051D01*
X16733801Y-9344051D01*
X16733801Y-9344051D01*
X16744051Y-9333802D01*
X16744051Y-9333801D01*
X16751298Y-9321249D01*
X16751298Y-9321249D01*
X16751298Y-9321249D01*
X16755050Y-9307248D01*
X16755050Y-9292753D01*
X16751298Y-9278752D01*
X16751298Y-9278751D01*
X16751298Y-9278751D01*
X16744051Y-9266199D01*
X16744051Y-9266199D01*
X16744051Y-9266199D01*
X16733801Y-9255949D01*
X16733801Y-9255949D01*
X16733801Y-9255949D01*
X16721249Y-9248702D01*
X16721249Y-9248702D01*
X16715821Y-9247247D01*
X16707247Y-9244950D01*
X16692752Y-9244950D01*
X16686579Y-9246604D01*
X16678751Y-9248702D01*
X16666199Y-9255949D01*
X16655949Y-9266199D01*
X16648702Y-9278751D01*
X16644950Y-9292753D01*
X13275050Y-9292753D01*
X13271298Y-9278752D01*
X13271298Y-9278751D01*
X13271298Y-9278751D01*
X13264051Y-9266199D01*
X13264051Y-9266199D01*
X13264051Y-9266199D01*
X13253801Y-9255949D01*
X13253801Y-9255949D01*
X13253801Y-9255949D01*
X13241249Y-9248702D01*
X13241249Y-9248702D01*
X13235821Y-9247247D01*
X13227247Y-9244950D01*
X13212752Y-9244950D01*
X13206579Y-9246604D01*
X13198751Y-9248702D01*
X13186199Y-9255949D01*
X13175949Y-9266199D01*
X13168702Y-9278751D01*
X13164950Y-9292753D01*
X12969656Y-9292753D01*
X12976298Y-9281249D01*
X12980050Y-9267248D01*
X12980050Y-9252753D01*
X12976298Y-9238752D01*
X12976298Y-9238751D01*
X12976298Y-9238751D01*
X12969051Y-9226199D01*
X12969051Y-9226199D01*
X12969051Y-9226199D01*
X12958801Y-9215949D01*
X12958801Y-9215949D01*
X12958801Y-9215949D01*
X12946249Y-9208702D01*
X12946249Y-9208702D01*
X12943290Y-9207909D01*
X12932247Y-9204950D01*
X12917752Y-9204950D01*
X12913093Y-9206199D01*
X12903751Y-9208702D01*
X12891199Y-9215949D01*
X12880949Y-9226199D01*
X12873702Y-9238751D01*
X12869950Y-9252753D01*
X11672370Y-9252753D01*
X11671298Y-9248752D01*
X11671298Y-9248751D01*
X11671298Y-9248751D01*
X11664051Y-9236199D01*
X11664051Y-9236199D01*
X11664051Y-9236199D01*
X11653801Y-9225949D01*
X11653801Y-9225949D01*
X11653801Y-9225949D01*
X11641249Y-9218702D01*
X11641249Y-9218702D01*
X11630976Y-9215949D01*
X11627247Y-9214950D01*
X11612752Y-9214950D01*
X11609024Y-9215949D01*
X11598751Y-9218702D01*
X11586199Y-9225949D01*
X11575949Y-9236199D01*
X11568702Y-9248751D01*
X11564950Y-9262753D01*
X11345430Y-9262753D01*
X11345430Y-9262752D01*
X11346298Y-9261249D01*
X11346298Y-9261249D01*
X11346298Y-9261249D01*
X11350050Y-9247248D01*
X11350050Y-9232753D01*
X11346298Y-9218752D01*
X11346298Y-9218751D01*
X11346298Y-9218751D01*
X11339051Y-9206199D01*
X11339051Y-9206199D01*
X11339051Y-9206199D01*
X11328801Y-9195949D01*
X11328801Y-9195949D01*
X11328801Y-9195949D01*
X11316249Y-9188702D01*
X11316249Y-9188702D01*
X11313290Y-9187909D01*
X11302247Y-9184950D01*
X11287752Y-9184950D01*
X11281579Y-9186604D01*
X11273751Y-9188702D01*
X11261199Y-9195949D01*
X11250949Y-9206199D01*
X11243702Y-9218751D01*
X11239950Y-9232753D01*
X10648050Y-9232753D01*
X10648050Y-9087753D01*
X13014950Y-9087753D01*
X13014950Y-9102248D01*
X13015942Y-9105949D01*
X13018702Y-9116249D01*
X13025949Y-9128801D01*
X13025949Y-9128801D01*
X13025949Y-9128802D01*
X13036198Y-9139051D01*
X13036199Y-9139051D01*
X13036199Y-9139051D01*
X13048751Y-9146298D01*
X13048751Y-9146298D01*
X13048751Y-9146298D01*
X13062752Y-9150050D01*
X13062753Y-9150050D01*
X13077247Y-9150050D01*
X13077247Y-9150050D01*
X13091248Y-9146298D01*
X13091249Y-9146298D01*
X13091249Y-9146298D01*
X13097390Y-9142753D01*
X13344950Y-9142753D01*
X13344950Y-9157248D01*
X13346773Y-9164051D01*
X13348702Y-9171249D01*
X13355949Y-9183801D01*
X13355949Y-9183801D01*
X13355949Y-9183802D01*
X13366198Y-9194051D01*
X13366199Y-9194051D01*
X13366199Y-9194051D01*
X13378751Y-9201298D01*
X13378751Y-9201298D01*
X13378751Y-9201298D01*
X13392752Y-9205050D01*
X13392753Y-9205050D01*
X13407247Y-9205050D01*
X13407247Y-9205050D01*
X13421248Y-9201298D01*
X13421249Y-9201298D01*
X13421249Y-9201298D01*
X13433801Y-9194051D01*
X13433801Y-9194051D01*
X13433801Y-9194051D01*
X13444051Y-9183802D01*
X13451298Y-9171249D01*
X13455050Y-9157248D01*
X13455050Y-9142753D01*
X13451298Y-9128752D01*
X13451298Y-9128751D01*
X13451298Y-9128751D01*
X13444051Y-9116199D01*
X13444051Y-9116199D01*
X13444051Y-9116199D01*
X13433801Y-9105949D01*
X13433801Y-9105949D01*
X13433801Y-9105949D01*
X13428265Y-9102753D01*
X14724950Y-9102753D01*
X14724950Y-9117247D01*
X14728702Y-9131249D01*
X14735949Y-9143801D01*
X14735949Y-9143801D01*
X14735949Y-9143802D01*
X14746198Y-9154051D01*
X14746199Y-9154051D01*
X14746199Y-9154051D01*
X14758751Y-9161298D01*
X14758751Y-9161298D01*
X14758751Y-9161298D01*
X14772752Y-9165050D01*
X14772753Y-9165050D01*
X14787247Y-9165050D01*
X14787247Y-9165050D01*
X14801248Y-9161298D01*
X14801249Y-9161298D01*
X14801249Y-9161298D01*
X14813801Y-9154051D01*
X14813801Y-9154051D01*
X14813801Y-9154051D01*
X14824051Y-9143802D01*
X14824051Y-9143801D01*
X14831298Y-9131249D01*
X14831298Y-9131249D01*
X14831298Y-9131249D01*
X14835050Y-9117248D01*
X14835050Y-9112753D01*
X15564950Y-9112753D01*
X15564950Y-9127247D01*
X15568702Y-9141249D01*
X15575949Y-9153801D01*
X15575949Y-9153801D01*
X15575949Y-9153802D01*
X15586198Y-9164051D01*
X15586199Y-9164051D01*
X15586199Y-9164051D01*
X15598751Y-9171298D01*
X15598751Y-9171298D01*
X15598751Y-9171298D01*
X15612752Y-9175050D01*
X15612753Y-9175050D01*
X15627247Y-9175050D01*
X15627247Y-9175050D01*
X15641248Y-9171298D01*
X15641249Y-9171298D01*
X15641249Y-9171298D01*
X15653801Y-9164051D01*
X15653801Y-9164051D01*
X15653801Y-9164051D01*
X15664051Y-9153802D01*
X15664051Y-9153801D01*
X15671298Y-9141249D01*
X15671298Y-9141249D01*
X15671298Y-9141249D01*
X15675050Y-9127248D01*
X15675050Y-9112753D01*
X15671298Y-9098752D01*
X15671298Y-9098751D01*
X15671298Y-9098751D01*
X15664051Y-9086199D01*
X15664051Y-9086199D01*
X15664051Y-9086199D01*
X15653801Y-9075949D01*
X15653801Y-9075949D01*
X15653801Y-9075949D01*
X15641249Y-9068702D01*
X15641249Y-9068702D01*
X15630976Y-9065949D01*
X15627247Y-9064950D01*
X15612752Y-9064950D01*
X15609024Y-9065949D01*
X15598751Y-9068702D01*
X15586199Y-9075949D01*
X15575949Y-9086199D01*
X15568702Y-9098751D01*
X15564950Y-9112753D01*
X14835050Y-9112753D01*
X14835050Y-9102753D01*
X14831298Y-9088752D01*
X14831298Y-9088751D01*
X14831298Y-9088751D01*
X14824051Y-9076199D01*
X14824051Y-9076199D01*
X14824051Y-9076199D01*
X14813801Y-9065949D01*
X14813801Y-9065949D01*
X14813801Y-9065949D01*
X14801249Y-9058702D01*
X14801249Y-9058702D01*
X14798290Y-9057909D01*
X14787247Y-9054950D01*
X14772752Y-9054950D01*
X14766579Y-9056604D01*
X14758751Y-9058702D01*
X14746199Y-9065949D01*
X14735949Y-9076199D01*
X14728702Y-9088751D01*
X14724950Y-9102753D01*
X13428265Y-9102753D01*
X13421249Y-9098702D01*
X13421249Y-9098702D01*
X13418290Y-9097909D01*
X13407247Y-9094950D01*
X13392752Y-9094950D01*
X13386579Y-9096604D01*
X13378751Y-9098702D01*
X13366199Y-9105949D01*
X13355949Y-9116199D01*
X13348702Y-9128751D01*
X13345942Y-9139051D01*
X13344950Y-9142753D01*
X13097390Y-9142753D01*
X13103801Y-9139051D01*
X13103801Y-9139051D01*
X13103801Y-9139051D01*
X13114051Y-9128802D01*
X13114948Y-9127247D01*
X13121298Y-9116249D01*
X13121298Y-9116249D01*
X13121298Y-9116249D01*
X13125050Y-9102248D01*
X13125050Y-9087753D01*
X13121298Y-9073752D01*
X13121298Y-9073751D01*
X13121298Y-9073751D01*
X13114051Y-9061199D01*
X13114051Y-9061199D01*
X13114051Y-9061199D01*
X13103801Y-9050949D01*
X13103801Y-9050949D01*
X13103801Y-9050949D01*
X13091249Y-9043702D01*
X13091249Y-9043702D01*
X13088290Y-9042909D01*
X13077247Y-9039950D01*
X13062752Y-9039950D01*
X13056579Y-9041604D01*
X13048751Y-9043702D01*
X13036199Y-9050949D01*
X13025949Y-9061199D01*
X13018702Y-9073751D01*
X13018113Y-9075949D01*
X13014950Y-9087753D01*
X10648050Y-9087753D01*
X10648050Y-8992753D01*
X10844950Y-8992753D01*
X10844950Y-9007247D01*
X10848702Y-9021249D01*
X10855949Y-9033801D01*
X10855949Y-9033801D01*
X10855949Y-9033802D01*
X10866199Y-9044051D01*
X10866199Y-9044051D01*
X10866199Y-9044051D01*
X10878751Y-9051298D01*
X10878751Y-9051298D01*
X10878752Y-9051298D01*
X10892753Y-9055050D01*
X10892753Y-9055050D01*
X10907247Y-9055050D01*
X10907248Y-9055050D01*
X10921249Y-9051298D01*
X10921249Y-9051298D01*
X10921249Y-9051298D01*
X10933801Y-9044051D01*
X10933801Y-9044051D01*
X10933802Y-9044051D01*
X10944051Y-9033802D01*
X10944051Y-9033801D01*
X10951298Y-9021249D01*
X10951298Y-9021249D01*
X10951298Y-9021249D01*
X10955050Y-9007248D01*
X10955050Y-9002753D01*
X14809950Y-9002753D01*
X14809950Y-9017247D01*
X14813702Y-9031249D01*
X14820949Y-9043801D01*
X14820949Y-9043801D01*
X14820949Y-9043802D01*
X14831198Y-9054051D01*
X14831199Y-9054051D01*
X14831199Y-9054051D01*
X14843751Y-9061298D01*
X14843751Y-9061298D01*
X14843751Y-9061298D01*
X14857752Y-9065050D01*
X14857753Y-9065050D01*
X14872247Y-9065050D01*
X14872247Y-9065050D01*
X14886248Y-9061298D01*
X14886249Y-9061298D01*
X14886249Y-9061298D01*
X14897244Y-9054950D01*
X14898801Y-9054051D01*
X14898802Y-9054050D01*
X14898973Y-9053919D01*
X14899119Y-9053867D01*
X14899363Y-9053727D01*
X14899390Y-9053772D01*
X14904741Y-9051877D01*
X14910607Y-9053614D01*
X14911027Y-9053919D01*
X14911199Y-9054051D01*
X14923751Y-9061298D01*
X14923751Y-9061298D01*
X14923751Y-9061298D01*
X14937752Y-9065050D01*
X14937753Y-9065050D01*
X14952247Y-9065050D01*
X14952247Y-9065050D01*
X14966248Y-9061298D01*
X14966249Y-9061298D01*
X14966249Y-9061298D01*
X14978801Y-9054051D01*
X14978801Y-9054051D01*
X14978801Y-9054051D01*
X14989051Y-9043802D01*
X14996298Y-9031249D01*
X15000050Y-9017248D01*
X15000050Y-9002753D01*
X14997370Y-8992753D01*
X15844950Y-8992753D01*
X15844950Y-9007247D01*
X15848702Y-9021249D01*
X15855949Y-9033801D01*
X15855949Y-9033801D01*
X15855949Y-9033802D01*
X15866198Y-9044051D01*
X15866199Y-9044051D01*
X15866199Y-9044051D01*
X15878751Y-9051298D01*
X15878751Y-9051298D01*
X15878751Y-9051298D01*
X15892752Y-9055050D01*
X15892753Y-9055050D01*
X15907247Y-9055050D01*
X15907247Y-9055050D01*
X15921248Y-9051298D01*
X15921249Y-9051298D01*
X15921249Y-9051298D01*
X15933801Y-9044051D01*
X15933801Y-9044051D01*
X15933801Y-9044051D01*
X15944051Y-9033802D01*
X15944051Y-9033801D01*
X15951298Y-9021249D01*
X15951298Y-9021249D01*
X15951298Y-9021249D01*
X15955050Y-9007248D01*
X15955050Y-8992753D01*
X15951298Y-8978752D01*
X15951298Y-8978751D01*
X15951298Y-8978751D01*
X15944051Y-8966199D01*
X15944051Y-8966199D01*
X15944051Y-8966199D01*
X15933801Y-8955949D01*
X15933801Y-8955949D01*
X15933801Y-8955949D01*
X15921249Y-8948702D01*
X15921249Y-8948702D01*
X15912280Y-8946298D01*
X15907247Y-8944950D01*
X15892752Y-8944950D01*
X15887721Y-8946298D01*
X15878751Y-8948702D01*
X15866199Y-8955949D01*
X15855949Y-8966199D01*
X15848702Y-8978751D01*
X15844950Y-8992753D01*
X14997370Y-8992753D01*
X14996298Y-8988752D01*
X14996298Y-8988751D01*
X14996298Y-8988751D01*
X14989051Y-8976199D01*
X14989051Y-8976199D01*
X14989051Y-8976199D01*
X14978801Y-8965949D01*
X14978801Y-8965949D01*
X14978801Y-8965949D01*
X14966249Y-8958702D01*
X14966249Y-8958702D01*
X14955976Y-8955949D01*
X14952247Y-8954950D01*
X14937752Y-8954950D01*
X14934024Y-8955949D01*
X14923751Y-8958702D01*
X14911198Y-8965949D01*
X14911026Y-8966081D01*
X14910880Y-8966133D01*
X14910636Y-8966274D01*
X14910610Y-8966228D01*
X14905258Y-8968123D01*
X14899392Y-8966385D01*
X14898974Y-8966081D01*
X14898802Y-8965949D01*
X14886249Y-8958702D01*
X14886249Y-8958702D01*
X14875976Y-8955949D01*
X14872247Y-8954950D01*
X14857752Y-8954950D01*
X14854024Y-8955949D01*
X14843751Y-8958702D01*
X14831199Y-8965949D01*
X14820949Y-8976199D01*
X14813702Y-8988751D01*
X14809950Y-9002753D01*
X10955050Y-9002753D01*
X10955050Y-8992753D01*
X10951298Y-8978752D01*
X10951298Y-8978751D01*
X10951298Y-8978751D01*
X10944051Y-8966199D01*
X10944051Y-8966199D01*
X10944051Y-8966199D01*
X10933802Y-8955949D01*
X10933801Y-8955949D01*
X10933801Y-8955949D01*
X10921249Y-8948702D01*
X10921249Y-8948702D01*
X10912280Y-8946298D01*
X10907248Y-8944950D01*
X10892753Y-8944950D01*
X10887721Y-8946298D01*
X10878751Y-8948702D01*
X10866199Y-8955949D01*
X10855949Y-8966199D01*
X10848702Y-8978751D01*
X10844950Y-8992753D01*
X10648050Y-8992753D01*
X10648050Y-8737753D01*
X13439950Y-8737753D01*
X13439950Y-8752247D01*
X13443702Y-8766249D01*
X13450949Y-8778801D01*
X13450949Y-8778801D01*
X13450949Y-8778802D01*
X13457647Y-8785500D01*
X13460425Y-8790951D01*
X13459468Y-8796994D01*
X13457647Y-8799500D01*
X13455949Y-8801198D01*
X13448702Y-8813751D01*
X13448299Y-8815253D01*
X13444950Y-8827753D01*
X13444950Y-8842248D01*
X13445340Y-8843702D01*
X13448702Y-8856249D01*
X13455949Y-8868801D01*
X13455949Y-8868801D01*
X13455949Y-8868802D01*
X13466198Y-8879051D01*
X13466199Y-8879051D01*
X13466199Y-8879051D01*
X13478751Y-8886298D01*
X13478751Y-8886298D01*
X13478751Y-8886298D01*
X13492752Y-8890050D01*
X13492753Y-8890050D01*
X13507247Y-8890050D01*
X13507247Y-8890050D01*
X13521248Y-8886298D01*
X13521249Y-8886298D01*
X13521249Y-8886298D01*
X13533801Y-8879051D01*
X13533801Y-8879051D01*
X13533801Y-8879051D01*
X13540100Y-8872753D01*
X13864950Y-8872753D01*
X13864950Y-8887248D01*
X13866022Y-8891249D01*
X13868702Y-8901249D01*
X13875949Y-8913801D01*
X13875949Y-8913801D01*
X13875949Y-8913802D01*
X13886198Y-8924051D01*
X13886199Y-8924051D01*
X13886199Y-8924051D01*
X13898751Y-8931298D01*
X13898751Y-8931298D01*
X13898751Y-8931298D01*
X13912752Y-8935050D01*
X13912753Y-8935050D01*
X13927247Y-8935050D01*
X13927247Y-8935050D01*
X13941248Y-8931298D01*
X13941249Y-8931298D01*
X13941249Y-8931298D01*
X13953801Y-8924051D01*
X13953801Y-8924051D01*
X13953801Y-8924051D01*
X13964051Y-8913802D01*
X13970401Y-8902803D01*
X14504950Y-8902803D01*
X14504950Y-8917297D01*
X14508702Y-8931299D01*
X14515949Y-8943851D01*
X14515949Y-8943851D01*
X14515949Y-8943852D01*
X14526198Y-8954101D01*
X14526199Y-8954101D01*
X14526199Y-8954101D01*
X14538751Y-8961348D01*
X14538751Y-8961348D01*
X14538751Y-8961348D01*
X14552752Y-8965100D01*
X14552753Y-8965100D01*
X14567247Y-8965100D01*
X14567247Y-8965100D01*
X14581248Y-8961348D01*
X14581249Y-8961348D01*
X14581249Y-8961348D01*
X14593801Y-8954101D01*
X14593801Y-8954101D01*
X14593801Y-8954101D01*
X14604051Y-8943852D01*
X14606822Y-8939051D01*
X14611298Y-8931299D01*
X14611298Y-8931299D01*
X14611298Y-8931299D01*
X14615050Y-8917298D01*
X14615050Y-8902803D01*
X14611298Y-8888802D01*
X14610693Y-8887753D01*
X14649950Y-8887753D01*
X14649950Y-8902247D01*
X14653702Y-8916249D01*
X14660949Y-8928801D01*
X14660949Y-8928801D01*
X14660949Y-8928802D01*
X14671198Y-8939051D01*
X14671199Y-8939051D01*
X14671199Y-8939051D01*
X14683751Y-8946298D01*
X14683751Y-8946298D01*
X14683751Y-8946298D01*
X14697752Y-8950050D01*
X14697753Y-8950050D01*
X14712247Y-8950050D01*
X14712247Y-8950050D01*
X14726248Y-8946298D01*
X14726249Y-8946298D01*
X14726249Y-8946298D01*
X14738801Y-8939051D01*
X14738801Y-8939051D01*
X14738801Y-8939051D01*
X14749051Y-8928802D01*
X14749051Y-8928801D01*
X14756298Y-8916249D01*
X14756298Y-8916249D01*
X14756298Y-8916249D01*
X14760050Y-8902248D01*
X14760050Y-8887753D01*
X14759980Y-8887492D01*
X14759990Y-8887299D01*
X14759965Y-8887109D01*
X14760000Y-8887104D01*
X14760300Y-8881382D01*
X14764151Y-8876627D01*
X14770061Y-8875043D01*
X14772105Y-8875367D01*
X14780252Y-8877550D01*
X14780252Y-8877550D01*
X14780252Y-8877550D01*
X14794747Y-8877550D01*
X14794747Y-8877550D01*
X14808748Y-8873798D01*
X14808749Y-8873798D01*
X14808749Y-8873798D01*
X14821301Y-8866551D01*
X14821301Y-8866551D01*
X14821301Y-8866551D01*
X14825100Y-8862753D01*
X15569950Y-8862753D01*
X15569950Y-8877248D01*
X15570031Y-8877550D01*
X15573702Y-8891249D01*
X15580949Y-8903801D01*
X15580949Y-8903801D01*
X15580949Y-8903802D01*
X15591198Y-8914051D01*
X15591199Y-8914051D01*
X15591199Y-8914051D01*
X15603751Y-8921298D01*
X15603751Y-8921298D01*
X15603751Y-8921298D01*
X15617752Y-8925050D01*
X15617753Y-8925050D01*
X15632247Y-8925050D01*
X15632247Y-8925050D01*
X15646248Y-8921298D01*
X15646249Y-8921298D01*
X15646249Y-8921298D01*
X15658801Y-8914051D01*
X15658801Y-8914051D01*
X15658801Y-8914051D01*
X15669051Y-8903802D01*
X15669948Y-8902247D01*
X15674164Y-8894945D01*
X16894950Y-8894945D01*
X16894950Y-8913055D01*
X16897783Y-8930941D01*
X16903379Y-8948164D01*
X16910097Y-8961348D01*
X16911600Y-8964299D01*
X16922245Y-8978950D01*
X16935050Y-8991755D01*
X16949701Y-9002400D01*
X16965836Y-9010621D01*
X16983059Y-9016217D01*
X16989564Y-9017247D01*
X17000945Y-9019050D01*
X17000945Y-9019050D01*
X17019055Y-9019050D01*
X17027998Y-9017634D01*
X17036941Y-9016217D01*
X17054164Y-9010621D01*
X17070299Y-9002400D01*
X17084950Y-8991755D01*
X17097755Y-8978950D01*
X17108400Y-8964299D01*
X17116621Y-8948164D01*
X17122217Y-8930941D01*
X17123744Y-8921298D01*
X17125050Y-8913055D01*
X17125050Y-8894945D01*
X17148950Y-8894945D01*
X17148950Y-8913055D01*
X17151783Y-8930941D01*
X17157379Y-8948164D01*
X17164097Y-8961348D01*
X17165600Y-8964299D01*
X17176245Y-8978950D01*
X17189050Y-8991755D01*
X17203701Y-9002400D01*
X17219836Y-9010621D01*
X17237059Y-9016217D01*
X17243564Y-9017247D01*
X17254945Y-9019050D01*
X17254945Y-9019050D01*
X17273055Y-9019050D01*
X17281998Y-9017634D01*
X17290941Y-9016217D01*
X17308164Y-9010621D01*
X17324299Y-9002400D01*
X17338950Y-8991755D01*
X17351755Y-8978950D01*
X17362400Y-8964299D01*
X17370621Y-8948164D01*
X17376217Y-8930941D01*
X17377744Y-8921298D01*
X17379050Y-8913055D01*
X17379050Y-8894945D01*
X17376533Y-8879051D01*
X17376217Y-8877059D01*
X17370621Y-8859836D01*
X17362400Y-8843701D01*
X17351755Y-8829050D01*
X17338950Y-8816245D01*
X17324299Y-8805600D01*
X17324299Y-8805600D01*
X17324299Y-8805600D01*
X17308164Y-8797379D01*
X17290941Y-8791783D01*
X17273055Y-8788950D01*
X17273055Y-8788950D01*
X17254945Y-8788950D01*
X17254945Y-8788950D01*
X17237059Y-8791783D01*
X17219836Y-8797379D01*
X17203701Y-8805600D01*
X17196375Y-8810923D01*
X17189050Y-8816245D01*
X17176245Y-8829050D01*
X17175267Y-8830396D01*
X17165600Y-8843701D01*
X17157379Y-8859836D01*
X17151783Y-8877059D01*
X17148950Y-8894945D01*
X17125050Y-8894945D01*
X17122533Y-8879051D01*
X17122217Y-8877059D01*
X17116621Y-8859836D01*
X17108400Y-8843701D01*
X17097755Y-8829050D01*
X17084950Y-8816245D01*
X17070299Y-8805600D01*
X17070299Y-8805600D01*
X17070299Y-8805600D01*
X17054164Y-8797379D01*
X17036941Y-8791783D01*
X17019055Y-8788950D01*
X17019055Y-8788950D01*
X17000945Y-8788950D01*
X17000945Y-8788950D01*
X16983059Y-8791783D01*
X16965836Y-8797379D01*
X16949701Y-8805600D01*
X16942375Y-8810923D01*
X16935050Y-8816245D01*
X16922245Y-8829050D01*
X16921267Y-8830396D01*
X16911600Y-8843701D01*
X16903379Y-8859836D01*
X16897783Y-8877059D01*
X16894950Y-8894945D01*
X15674164Y-8894945D01*
X15676298Y-8891249D01*
X15676298Y-8891249D01*
X15676298Y-8891249D01*
X15680050Y-8877248D01*
X15680050Y-8862753D01*
X15676298Y-8848752D01*
X15676298Y-8848751D01*
X15676298Y-8848751D01*
X15669051Y-8836199D01*
X15669051Y-8836199D01*
X15669051Y-8836199D01*
X15658801Y-8825949D01*
X15658801Y-8825949D01*
X15658801Y-8825949D01*
X15646249Y-8818702D01*
X15646249Y-8818702D01*
X15643290Y-8817909D01*
X15632247Y-8814950D01*
X15617752Y-8814950D01*
X15616624Y-8815253D01*
X15603751Y-8818702D01*
X15591199Y-8825949D01*
X15580949Y-8836199D01*
X15573702Y-8848751D01*
X15570731Y-8859836D01*
X15569950Y-8862753D01*
X14825100Y-8862753D01*
X14831551Y-8856302D01*
X14834641Y-8850949D01*
X14838798Y-8843749D01*
X14838798Y-8843749D01*
X14838798Y-8843749D01*
X14842550Y-8829748D01*
X14842550Y-8815253D01*
X14838798Y-8801252D01*
X14838798Y-8801251D01*
X14838798Y-8801251D01*
X14831551Y-8788699D01*
X14831551Y-8788699D01*
X14831551Y-8788699D01*
X14821301Y-8778449D01*
X14821301Y-8778449D01*
X14821301Y-8778449D01*
X14808749Y-8771202D01*
X14808749Y-8771202D01*
X14805790Y-8770409D01*
X14794747Y-8767450D01*
X14780252Y-8767450D01*
X14774079Y-8769104D01*
X14766251Y-8771202D01*
X14753699Y-8778449D01*
X14743449Y-8788699D01*
X14736202Y-8801251D01*
X14732450Y-8815253D01*
X14732450Y-8829748D01*
X14732520Y-8830009D01*
X14732510Y-8830202D01*
X14732535Y-8830391D01*
X14732500Y-8830396D01*
X14732199Y-8836119D01*
X14728349Y-8840874D01*
X14722438Y-8842457D01*
X14720395Y-8842133D01*
X14712247Y-8839950D01*
X14697752Y-8839950D01*
X14694306Y-8840874D01*
X14683751Y-8843702D01*
X14671199Y-8850949D01*
X14660949Y-8861199D01*
X14653702Y-8873751D01*
X14649950Y-8887753D01*
X14610693Y-8887753D01*
X14610542Y-8887492D01*
X14604051Y-8876249D01*
X14604051Y-8876249D01*
X14604051Y-8876249D01*
X14593801Y-8865999D01*
X14593801Y-8865999D01*
X14593801Y-8865999D01*
X14581249Y-8858752D01*
X14581249Y-8858752D01*
X14572103Y-8856301D01*
X14567247Y-8855000D01*
X14552752Y-8855000D01*
X14548093Y-8856249D01*
X14538751Y-8858752D01*
X14526199Y-8865999D01*
X14515949Y-8876249D01*
X14508702Y-8888801D01*
X14504950Y-8902803D01*
X13970401Y-8902803D01*
X13971298Y-8901249D01*
X13971298Y-8901249D01*
X13971298Y-8901249D01*
X13975050Y-8887248D01*
X13975050Y-8872753D01*
X13971298Y-8858752D01*
X13971298Y-8858751D01*
X13971298Y-8858751D01*
X13964051Y-8846199D01*
X13964051Y-8846199D01*
X13964051Y-8846199D01*
X13953801Y-8835949D01*
X13953801Y-8835949D01*
X13953801Y-8835949D01*
X13941249Y-8828702D01*
X13941249Y-8828702D01*
X13938290Y-8827909D01*
X13927247Y-8824950D01*
X13912752Y-8824950D01*
X13909024Y-8825949D01*
X13898751Y-8828702D01*
X13886199Y-8835949D01*
X13875949Y-8846199D01*
X13868702Y-8858751D01*
X13866450Y-8867154D01*
X13864950Y-8872753D01*
X13540100Y-8872753D01*
X13544051Y-8868802D01*
X13544051Y-8868801D01*
X13545002Y-8867154D01*
X13551298Y-8856249D01*
X13551298Y-8856249D01*
X13551298Y-8856249D01*
X13555050Y-8842248D01*
X13555050Y-8827753D01*
X13551298Y-8813752D01*
X13551298Y-8813751D01*
X13551298Y-8813751D01*
X13544051Y-8801199D01*
X13544051Y-8801198D01*
X13537353Y-8794500D01*
X13534575Y-8789049D01*
X13535532Y-8783005D01*
X13537353Y-8780500D01*
X13539051Y-8778802D01*
X13546298Y-8766249D01*
X13550050Y-8752248D01*
X13550050Y-8737753D01*
X13546298Y-8723752D01*
X13546298Y-8723751D01*
X13546298Y-8723751D01*
X13539051Y-8711199D01*
X13539051Y-8711199D01*
X13539051Y-8711199D01*
X13528801Y-8700949D01*
X13528801Y-8700949D01*
X13528801Y-8700949D01*
X13516249Y-8693702D01*
X13516249Y-8693702D01*
X13513290Y-8692909D01*
X13502247Y-8689950D01*
X13487752Y-8689950D01*
X13481579Y-8691604D01*
X13473751Y-8693702D01*
X13461199Y-8700949D01*
X13450949Y-8711199D01*
X13443702Y-8723751D01*
X13439950Y-8737753D01*
X10648050Y-8737753D01*
X10648050Y-8499116D01*
X10749950Y-8499116D01*
X10749950Y-8514884D01*
X10753026Y-8530350D01*
X10753026Y-8530350D01*
X10759060Y-8544917D01*
X10759061Y-8544919D01*
X10762688Y-8550347D01*
X10767821Y-8558029D01*
X10778971Y-8569179D01*
X10785810Y-8573749D01*
X10792081Y-8577939D01*
X10792083Y-8577940D01*
X10794162Y-8578801D01*
X10806650Y-8583974D01*
X10822116Y-8587050D01*
X10822116Y-8587050D01*
X10917884Y-8587050D01*
X10917884Y-8587050D01*
X10933350Y-8583974D01*
X10947918Y-8577939D01*
X10961029Y-8569179D01*
X10972179Y-8558029D01*
X10980939Y-8544918D01*
X10986974Y-8530350D01*
X10990050Y-8514884D01*
X10990050Y-8499116D01*
X10990050Y-8499116D01*
X11154950Y-8499116D01*
X11154950Y-8514884D01*
X11158026Y-8530350D01*
X11158026Y-8530350D01*
X11164060Y-8544917D01*
X11164061Y-8544919D01*
X11167688Y-8550347D01*
X11172821Y-8558029D01*
X11183971Y-8569179D01*
X11190810Y-8573749D01*
X11197081Y-8577939D01*
X11197082Y-8577940D01*
X11199162Y-8578801D01*
X11211650Y-8583974D01*
X11227116Y-8587050D01*
X11227116Y-8587050D01*
X11352884Y-8587050D01*
X11352884Y-8587050D01*
X11368350Y-8583974D01*
X11382918Y-8577939D01*
X11396029Y-8569179D01*
X11407179Y-8558029D01*
X11415939Y-8544918D01*
X11421062Y-8532550D01*
X11425036Y-8527897D01*
X11430985Y-8526469D01*
X11436638Y-8528810D01*
X11438747Y-8531327D01*
X11438762Y-8531354D01*
X11445949Y-8543802D01*
X11446236Y-8544089D01*
X11446765Y-8544989D01*
X11447297Y-8547408D01*
X11448123Y-8549742D01*
X11447944Y-8550347D01*
X11448079Y-8550965D01*
X11447088Y-8553234D01*
X11446385Y-8555608D01*
X11446081Y-8556026D01*
X11445949Y-8556198D01*
X11438702Y-8568751D01*
X11434950Y-8582753D01*
X11434950Y-8597247D01*
X11438702Y-8611249D01*
X11445949Y-8623801D01*
X11445949Y-8623801D01*
X11445949Y-8623802D01*
X11456198Y-8634051D01*
X11456199Y-8634051D01*
X11456199Y-8634051D01*
X11468751Y-8641298D01*
X11468751Y-8641298D01*
X11468751Y-8641298D01*
X11482752Y-8645050D01*
X11482753Y-8645050D01*
X11497247Y-8645050D01*
X11497247Y-8645050D01*
X11511248Y-8641298D01*
X11511249Y-8641298D01*
X11511249Y-8641298D01*
X11523801Y-8634051D01*
X11523801Y-8634051D01*
X11523801Y-8634051D01*
X11534051Y-8623802D01*
X11534948Y-8622247D01*
X11541298Y-8611249D01*
X11541298Y-8611249D01*
X11541298Y-8611249D01*
X11545050Y-8597248D01*
X11545050Y-8582753D01*
X11541298Y-8568752D01*
X11541298Y-8568751D01*
X11541298Y-8568751D01*
X11534051Y-8556199D01*
X11533919Y-8556027D01*
X11533867Y-8555881D01*
X11533726Y-8555637D01*
X11533772Y-8555610D01*
X11531877Y-8550259D01*
X11533237Y-8544985D01*
X11533765Y-8544088D01*
X11534051Y-8543802D01*
X11537543Y-8537753D01*
X14444950Y-8537753D01*
X14444950Y-8552248D01*
X14447362Y-8561251D01*
X14448702Y-8566249D01*
X14455949Y-8578801D01*
X14455949Y-8578801D01*
X14455949Y-8578802D01*
X14465124Y-8587977D01*
X14467902Y-8593428D01*
X14467687Y-8597539D01*
X14466009Y-8603798D01*
X14464950Y-8607753D01*
X14464950Y-8622248D01*
X14467909Y-8633290D01*
X14468702Y-8636249D01*
X14475949Y-8648801D01*
X14475949Y-8648801D01*
X14475949Y-8648802D01*
X14486198Y-8659051D01*
X14486199Y-8659051D01*
X14486199Y-8659051D01*
X14498751Y-8666298D01*
X14498751Y-8666298D01*
X14498751Y-8666298D01*
X14512752Y-8670050D01*
X14512753Y-8670050D01*
X14527247Y-8670050D01*
X14527247Y-8670050D01*
X14541248Y-8666298D01*
X14541249Y-8666298D01*
X14541249Y-8666298D01*
X14553801Y-8659051D01*
X14553801Y-8659051D01*
X14553801Y-8659051D01*
X14564051Y-8648802D01*
X14564051Y-8648801D01*
X14571298Y-8636249D01*
X14571298Y-8636249D01*
X14571298Y-8636249D01*
X14575050Y-8622248D01*
X14575050Y-8612753D01*
X14604950Y-8612753D01*
X14604950Y-8627248D01*
X14607711Y-8637550D01*
X14608702Y-8641249D01*
X14615949Y-8653801D01*
X14615949Y-8653801D01*
X14615949Y-8653802D01*
X14626198Y-8664051D01*
X14626199Y-8664051D01*
X14626199Y-8664051D01*
X14638751Y-8671298D01*
X14638751Y-8671298D01*
X14638751Y-8671298D01*
X14652752Y-8675050D01*
X14652753Y-8675050D01*
X14667247Y-8675050D01*
X14667247Y-8675050D01*
X14681248Y-8671298D01*
X14681249Y-8671298D01*
X14681249Y-8671298D01*
X14693801Y-8664051D01*
X14693801Y-8664051D01*
X14693801Y-8664051D01*
X14704051Y-8653802D01*
X14706938Y-8648802D01*
X14711298Y-8641249D01*
X14711298Y-8641249D01*
X14711298Y-8641249D01*
X14711380Y-8640945D01*
X16894950Y-8640945D01*
X16894950Y-8659055D01*
X16897783Y-8676941D01*
X16903379Y-8694164D01*
X16906836Y-8700949D01*
X16911600Y-8710299D01*
X16922245Y-8724950D01*
X16935050Y-8737755D01*
X16949701Y-8748400D01*
X16965836Y-8756621D01*
X16983059Y-8762217D01*
X16990214Y-8763350D01*
X17000945Y-8765050D01*
X17000945Y-8765050D01*
X17019055Y-8765050D01*
X17027998Y-8763634D01*
X17036941Y-8762217D01*
X17054164Y-8756621D01*
X17070299Y-8748400D01*
X17084950Y-8737755D01*
X17097755Y-8724950D01*
X17108400Y-8710299D01*
X17116621Y-8694164D01*
X17122217Y-8676941D01*
X17125050Y-8659055D01*
X17125050Y-8640945D01*
X17125050Y-8640945D01*
X17148950Y-8640945D01*
X17148950Y-8659055D01*
X17151783Y-8676941D01*
X17157379Y-8694164D01*
X17160836Y-8700949D01*
X17165600Y-8710299D01*
X17176245Y-8724950D01*
X17189050Y-8737755D01*
X17203701Y-8748400D01*
X17219836Y-8756621D01*
X17237059Y-8762217D01*
X17244214Y-8763350D01*
X17254945Y-8765050D01*
X17254945Y-8765050D01*
X17273055Y-8765050D01*
X17281998Y-8763634D01*
X17290941Y-8762217D01*
X17308164Y-8756621D01*
X17324299Y-8748400D01*
X17338950Y-8737755D01*
X17351755Y-8724950D01*
X17362400Y-8710299D01*
X17370621Y-8694164D01*
X17376217Y-8676941D01*
X17379050Y-8659055D01*
X17379050Y-8640945D01*
X17379050Y-8640945D01*
X17376881Y-8627248D01*
X17376217Y-8623059D01*
X17370621Y-8605836D01*
X17362400Y-8589701D01*
X17351755Y-8575050D01*
X17338950Y-8562245D01*
X17324299Y-8551600D01*
X17324299Y-8551600D01*
X17324299Y-8551600D01*
X17308164Y-8543379D01*
X17290941Y-8537783D01*
X17273055Y-8534950D01*
X17273055Y-8534950D01*
X17254945Y-8534950D01*
X17254945Y-8534950D01*
X17237059Y-8537783D01*
X17219836Y-8543379D01*
X17203701Y-8551600D01*
X17197809Y-8555881D01*
X17189050Y-8562245D01*
X17176245Y-8575050D01*
X17173519Y-8578801D01*
X17165600Y-8589701D01*
X17157379Y-8605836D01*
X17151783Y-8623059D01*
X17148950Y-8640945D01*
X17125050Y-8640945D01*
X17122881Y-8627248D01*
X17122217Y-8623059D01*
X17116621Y-8605836D01*
X17108400Y-8589701D01*
X17097755Y-8575050D01*
X17084950Y-8562245D01*
X17070299Y-8551600D01*
X17070299Y-8551600D01*
X17070299Y-8551600D01*
X17054164Y-8543379D01*
X17036941Y-8537783D01*
X17019055Y-8534950D01*
X17019055Y-8534950D01*
X17000945Y-8534950D01*
X17000945Y-8534950D01*
X16983059Y-8537783D01*
X16965836Y-8543379D01*
X16949701Y-8551600D01*
X16943809Y-8555881D01*
X16935050Y-8562245D01*
X16922245Y-8575050D01*
X16919519Y-8578801D01*
X16911600Y-8589701D01*
X16903379Y-8605836D01*
X16897783Y-8623059D01*
X16894950Y-8640945D01*
X14711380Y-8640945D01*
X14715050Y-8627248D01*
X14715050Y-8612753D01*
X14711298Y-8598752D01*
X14711298Y-8598751D01*
X14711298Y-8598751D01*
X14704051Y-8586199D01*
X14704051Y-8586199D01*
X14704051Y-8586199D01*
X14693801Y-8575949D01*
X14693801Y-8575949D01*
X14693801Y-8575949D01*
X14692595Y-8575253D01*
X15904950Y-8575253D01*
X15904950Y-8589748D01*
X15907038Y-8597539D01*
X15908702Y-8603749D01*
X15915949Y-8616301D01*
X15915949Y-8616301D01*
X15915949Y-8616302D01*
X15926198Y-8626551D01*
X15926199Y-8626551D01*
X15926199Y-8626551D01*
X15938751Y-8633798D01*
X15938751Y-8633798D01*
X15938751Y-8633798D01*
X15952752Y-8637550D01*
X15952753Y-8637550D01*
X15967247Y-8637550D01*
X15967247Y-8637550D01*
X15981248Y-8633798D01*
X15993801Y-8626551D01*
X16004051Y-8616302D01*
X16011298Y-8603749D01*
X16015050Y-8589748D01*
X16015050Y-8575253D01*
X16011298Y-8561252D01*
X16008381Y-8556199D01*
X16004545Y-8549554D01*
X16004051Y-8548699D01*
X16004051Y-8548699D01*
X16000605Y-8545253D01*
X16104950Y-8545253D01*
X16104950Y-8559748D01*
X16105619Y-8562245D01*
X16108702Y-8573749D01*
X16115949Y-8586301D01*
X16115949Y-8586301D01*
X16115949Y-8586302D01*
X16126198Y-8596551D01*
X16126199Y-8596551D01*
X16126199Y-8596551D01*
X16138751Y-8603798D01*
X16138751Y-8603798D01*
X16138751Y-8603798D01*
X16152752Y-8607550D01*
X16152753Y-8607550D01*
X16167247Y-8607550D01*
X16167247Y-8607550D01*
X16181248Y-8603798D01*
X16181249Y-8603798D01*
X16181249Y-8603798D01*
X16193801Y-8596551D01*
X16193801Y-8596551D01*
X16193801Y-8596551D01*
X16204051Y-8586302D01*
X16206997Y-8581199D01*
X16211298Y-8573749D01*
X16211298Y-8573749D01*
X16211298Y-8573749D01*
X16215050Y-8559748D01*
X16215050Y-8545253D01*
X16211298Y-8531252D01*
X16211298Y-8531251D01*
X16211298Y-8531251D01*
X16204051Y-8518699D01*
X16204051Y-8518699D01*
X16204051Y-8518699D01*
X16193801Y-8508449D01*
X16193801Y-8508449D01*
X16193801Y-8508449D01*
X16181249Y-8501202D01*
X16181249Y-8501202D01*
X16178290Y-8500409D01*
X16167247Y-8497450D01*
X16152752Y-8497450D01*
X16147711Y-8498801D01*
X16138751Y-8501202D01*
X16126199Y-8508449D01*
X16115949Y-8518699D01*
X16108702Y-8531251D01*
X16108354Y-8532550D01*
X16104950Y-8545253D01*
X16000605Y-8545253D01*
X15993801Y-8538449D01*
X15993801Y-8538449D01*
X15993801Y-8538449D01*
X15981249Y-8531202D01*
X15981249Y-8531202D01*
X15978069Y-8530350D01*
X15967247Y-8527450D01*
X15952752Y-8527450D01*
X15946579Y-8529104D01*
X15938751Y-8531202D01*
X15926199Y-8538449D01*
X15915949Y-8548699D01*
X15908702Y-8561251D01*
X15906577Y-8569179D01*
X15904950Y-8575253D01*
X14692595Y-8575253D01*
X14681249Y-8568702D01*
X14681249Y-8568702D01*
X14673299Y-8566572D01*
X14667247Y-8564950D01*
X14652752Y-8564950D01*
X14647906Y-8566249D01*
X14638751Y-8568702D01*
X14626199Y-8575949D01*
X14615949Y-8586199D01*
X14608702Y-8598751D01*
X14605353Y-8611249D01*
X14604950Y-8612753D01*
X14575050Y-8612753D01*
X14575050Y-8607753D01*
X14571298Y-8593752D01*
X14571298Y-8593751D01*
X14571298Y-8593751D01*
X14564051Y-8581199D01*
X14564051Y-8581199D01*
X14564051Y-8581199D01*
X14554875Y-8572023D01*
X14552098Y-8566572D01*
X14552313Y-8562461D01*
X14552371Y-8562245D01*
X14555050Y-8552248D01*
X14555050Y-8537753D01*
X14551298Y-8523752D01*
X14551298Y-8523751D01*
X14551298Y-8523751D01*
X14544051Y-8511199D01*
X14544051Y-8511199D01*
X14544051Y-8511199D01*
X14533801Y-8500949D01*
X14533801Y-8500949D01*
X14533801Y-8500949D01*
X14521249Y-8493702D01*
X14521249Y-8493702D01*
X14512280Y-8491298D01*
X14507247Y-8489950D01*
X14492752Y-8489950D01*
X14487721Y-8491298D01*
X14478751Y-8493702D01*
X14466199Y-8500949D01*
X14455949Y-8511199D01*
X14448702Y-8523751D01*
X14446672Y-8531327D01*
X14444950Y-8537753D01*
X11537543Y-8537753D01*
X11541298Y-8531249D01*
X11545050Y-8517248D01*
X11545050Y-8502753D01*
X11541298Y-8488752D01*
X11541298Y-8488751D01*
X11541298Y-8488751D01*
X11534051Y-8476199D01*
X11534051Y-8476199D01*
X11534051Y-8476199D01*
X11523801Y-8465949D01*
X11523801Y-8465949D01*
X11523801Y-8465949D01*
X11511249Y-8458702D01*
X11511249Y-8458702D01*
X11508290Y-8457909D01*
X11497247Y-8454950D01*
X11482752Y-8454950D01*
X11477716Y-8456299D01*
X11468751Y-8458702D01*
X11456199Y-8465949D01*
X11445949Y-8476199D01*
X11440166Y-8486214D01*
X11435619Y-8490308D01*
X11429534Y-8490948D01*
X11424236Y-8487888D01*
X11422321Y-8484053D01*
X11422115Y-8484116D01*
X11421974Y-8483650D01*
X11415940Y-8469083D01*
X11415939Y-8469081D01*
X11410705Y-8461249D01*
X11407179Y-8455971D01*
X11396029Y-8444821D01*
X11396029Y-8444821D01*
X11389315Y-8440335D01*
X11382919Y-8436061D01*
X11382917Y-8436060D01*
X11374931Y-8432753D01*
X11624950Y-8432753D01*
X11624950Y-8447248D01*
X11627014Y-8454950D01*
X11628702Y-8461249D01*
X11635949Y-8473801D01*
X11635949Y-8473801D01*
X11635949Y-8473802D01*
X11646198Y-8484051D01*
X11646199Y-8484051D01*
X11646199Y-8484051D01*
X11658751Y-8491298D01*
X11658751Y-8491298D01*
X11658751Y-8491298D01*
X11672752Y-8495050D01*
X11672753Y-8495050D01*
X11687247Y-8495050D01*
X11687247Y-8495050D01*
X11701248Y-8491298D01*
X11701249Y-8491298D01*
X11701249Y-8491298D01*
X11713801Y-8484051D01*
X11713801Y-8484051D01*
X11713801Y-8484051D01*
X11724051Y-8473802D01*
X11731298Y-8461249D01*
X11732235Y-8457753D01*
X12924950Y-8457753D01*
X12924950Y-8472248D01*
X12926009Y-8476199D01*
X12928702Y-8486249D01*
X12935949Y-8498801D01*
X12935949Y-8498801D01*
X12935949Y-8498802D01*
X12946198Y-8509051D01*
X12946199Y-8509051D01*
X12946199Y-8509051D01*
X12958751Y-8516298D01*
X12958751Y-8516298D01*
X12958751Y-8516298D01*
X12972752Y-8520050D01*
X12972753Y-8520050D01*
X12987247Y-8520050D01*
X12987247Y-8520050D01*
X13001248Y-8516298D01*
X13001249Y-8516298D01*
X13001249Y-8516298D01*
X13013801Y-8509051D01*
X13013801Y-8509051D01*
X13013801Y-8509051D01*
X13024051Y-8498802D01*
X13024831Y-8497450D01*
X13031298Y-8486249D01*
X13031298Y-8486249D01*
X13031298Y-8486249D01*
X13035050Y-8472248D01*
X13035050Y-8457753D01*
X13031298Y-8443752D01*
X13031298Y-8443751D01*
X13031298Y-8443751D01*
X13029163Y-8440054D01*
X13026680Y-8435753D01*
X13734950Y-8435753D01*
X13734950Y-8450248D01*
X13736572Y-8456299D01*
X13738702Y-8464249D01*
X13745949Y-8476801D01*
X13745949Y-8476801D01*
X13745949Y-8476802D01*
X13756198Y-8487051D01*
X13756199Y-8487051D01*
X13756199Y-8487051D01*
X13768751Y-8494298D01*
X13768751Y-8494298D01*
X13768751Y-8494298D01*
X13782752Y-8498050D01*
X13782753Y-8498050D01*
X13797247Y-8498050D01*
X13797247Y-8498050D01*
X13811248Y-8494298D01*
X13811249Y-8494298D01*
X13811249Y-8494298D01*
X13823801Y-8487051D01*
X13823801Y-8487051D01*
X13823801Y-8487051D01*
X13834051Y-8476802D01*
X13834399Y-8476199D01*
X13841298Y-8464249D01*
X13841298Y-8464249D01*
X13841298Y-8464249D01*
X13845050Y-8450248D01*
X13845050Y-8435753D01*
X13841298Y-8421752D01*
X13841298Y-8421751D01*
X13841298Y-8421751D01*
X13834051Y-8409199D01*
X13834051Y-8409199D01*
X13834051Y-8409199D01*
X13823801Y-8398949D01*
X13823801Y-8398949D01*
X13823801Y-8398949D01*
X13817187Y-8395130D01*
X13811249Y-8391702D01*
X13811249Y-8391702D01*
X13808290Y-8390909D01*
X13797247Y-8387950D01*
X13782752Y-8387950D01*
X13776579Y-8389604D01*
X13768751Y-8391702D01*
X13756199Y-8398949D01*
X13745949Y-8409199D01*
X13738702Y-8421751D01*
X13735138Y-8435050D01*
X13734950Y-8435753D01*
X13026680Y-8435753D01*
X13024051Y-8431199D01*
X13024051Y-8431199D01*
X13024051Y-8431199D01*
X13013801Y-8420949D01*
X13013801Y-8420949D01*
X13013801Y-8420949D01*
X13001249Y-8413702D01*
X13001249Y-8413702D01*
X12998290Y-8412909D01*
X12987247Y-8409950D01*
X12972752Y-8409950D01*
X12966579Y-8411604D01*
X12958751Y-8413702D01*
X12946199Y-8420949D01*
X12935949Y-8431199D01*
X12928702Y-8443751D01*
X12927765Y-8447248D01*
X12924950Y-8457753D01*
X11732235Y-8457753D01*
X11735050Y-8447248D01*
X11735050Y-8432753D01*
X11731298Y-8418752D01*
X11731298Y-8418751D01*
X11731298Y-8418751D01*
X11724051Y-8406199D01*
X11724051Y-8406199D01*
X11724051Y-8406199D01*
X11713801Y-8395949D01*
X11713801Y-8395949D01*
X11713801Y-8395949D01*
X11701249Y-8388702D01*
X11701249Y-8388702D01*
X11694694Y-8386945D01*
X11687247Y-8384950D01*
X11672752Y-8384950D01*
X11668037Y-8386213D01*
X11658751Y-8388702D01*
X11646199Y-8395949D01*
X11635949Y-8406199D01*
X11628702Y-8418751D01*
X11628113Y-8420949D01*
X11624950Y-8432753D01*
X11374931Y-8432753D01*
X11368350Y-8430026D01*
X11352884Y-8426950D01*
X11352884Y-8426950D01*
X11280339Y-8426950D01*
X11274520Y-8425059D01*
X11270923Y-8420109D01*
X11270923Y-8413991D01*
X11273338Y-8410050D01*
X11284051Y-8399337D01*
X11286007Y-8395949D01*
X11291628Y-8386214D01*
X11291628Y-8386214D01*
X11291628Y-8386213D01*
X11295235Y-8372752D01*
X12289950Y-8372752D01*
X12289950Y-8387247D01*
X12290340Y-8388702D01*
X12293702Y-8401249D01*
X12300949Y-8413801D01*
X12300949Y-8413801D01*
X12300949Y-8413802D01*
X12311198Y-8424051D01*
X12311199Y-8424051D01*
X12311199Y-8424051D01*
X12323751Y-8431298D01*
X12323751Y-8431298D01*
X12323751Y-8431298D01*
X12337752Y-8435050D01*
X12337753Y-8435050D01*
X12352247Y-8435050D01*
X12352247Y-8435050D01*
X12366248Y-8431298D01*
X12366249Y-8431298D01*
X12366249Y-8431298D01*
X12378801Y-8424051D01*
X12378801Y-8424051D01*
X12378801Y-8424051D01*
X12389051Y-8413802D01*
X12394101Y-8405055D01*
X12396298Y-8401249D01*
X12396298Y-8401249D01*
X12396298Y-8401249D01*
X12400050Y-8387247D01*
X12400050Y-8386945D01*
X16894950Y-8386945D01*
X16894950Y-8405055D01*
X16897783Y-8422941D01*
X16903343Y-8440054D01*
X16903379Y-8440164D01*
X16911600Y-8456299D01*
X16922245Y-8470950D01*
X16935050Y-8483755D01*
X16949701Y-8494400D01*
X16965836Y-8502621D01*
X16983059Y-8508217D01*
X16990214Y-8509350D01*
X17000945Y-8511050D01*
X17000945Y-8511050D01*
X17019055Y-8511050D01*
X17027998Y-8509634D01*
X17036941Y-8508217D01*
X17054164Y-8502621D01*
X17070299Y-8494400D01*
X17084950Y-8483755D01*
X17097755Y-8470950D01*
X17108400Y-8456299D01*
X17116621Y-8440164D01*
X17122217Y-8422941D01*
X17124259Y-8410050D01*
X17125050Y-8405055D01*
X17125050Y-8386945D01*
X17122217Y-8369059D01*
X17122217Y-8369059D01*
X17116621Y-8351836D01*
X17108400Y-8335701D01*
X17097755Y-8321050D01*
X17084950Y-8308245D01*
X17070299Y-8297600D01*
X17070299Y-8297600D01*
X17070299Y-8297600D01*
X17054164Y-8289379D01*
X17036941Y-8283783D01*
X17019055Y-8280950D01*
X17019055Y-8280950D01*
X17000945Y-8280950D01*
X17000945Y-8280950D01*
X16983059Y-8283783D01*
X16965836Y-8289379D01*
X16949701Y-8297600D01*
X16944679Y-8301248D01*
X16935050Y-8308245D01*
X16922245Y-8321050D01*
X16916923Y-8328375D01*
X16911600Y-8335701D01*
X16903379Y-8351836D01*
X16897783Y-8369059D01*
X16894950Y-8386945D01*
X12400050Y-8386945D01*
X12400050Y-8372752D01*
X12396298Y-8358751D01*
X12396298Y-8358751D01*
X12396298Y-8358751D01*
X12389051Y-8346199D01*
X12389051Y-8346199D01*
X12389051Y-8346198D01*
X12378801Y-8335949D01*
X12378801Y-8335949D01*
X12378801Y-8335949D01*
X12366249Y-8328702D01*
X12366249Y-8328702D01*
X12363290Y-8327909D01*
X12352247Y-8324950D01*
X12337752Y-8324950D01*
X12331579Y-8326604D01*
X12323751Y-8328702D01*
X12311199Y-8335949D01*
X12300949Y-8346199D01*
X12293702Y-8358751D01*
X12290940Y-8369059D01*
X12289950Y-8372752D01*
X11295235Y-8372752D01*
X11295550Y-8371577D01*
X11295550Y-8356423D01*
X11291628Y-8341786D01*
X11291628Y-8341786D01*
X11291628Y-8341786D01*
X11284052Y-8328664D01*
X11284052Y-8328664D01*
X11284051Y-8328663D01*
X11273336Y-8317948D01*
X11273336Y-8317948D01*
X11273336Y-8317948D01*
X11260214Y-8310372D01*
X11260214Y-8310372D01*
X11252275Y-8308245D01*
X11245577Y-8306450D01*
X11230423Y-8306450D01*
X11223725Y-8308245D01*
X11215786Y-8310372D01*
X11202664Y-8317948D01*
X11191948Y-8328664D01*
X11184372Y-8341786D01*
X11184372Y-8341786D01*
X11180450Y-8356423D01*
X11180450Y-8371577D01*
X11180765Y-8372752D01*
X11184372Y-8386214D01*
X11191948Y-8399336D01*
X11191948Y-8399336D01*
X11191948Y-8399337D01*
X11202663Y-8410052D01*
X11209177Y-8413812D01*
X11213271Y-8418359D01*
X11213910Y-8424444D01*
X11210851Y-8429743D01*
X11208015Y-8431532D01*
X11197082Y-8436061D01*
X11197081Y-8436061D01*
X11183971Y-8444821D01*
X11183971Y-8444821D01*
X11172821Y-8455971D01*
X11172821Y-8455971D01*
X11164061Y-8469081D01*
X11164060Y-8469083D01*
X11158026Y-8483650D01*
X11158026Y-8483650D01*
X11154950Y-8499116D01*
X10990050Y-8499116D01*
X10986974Y-8483650D01*
X10984137Y-8476802D01*
X10980940Y-8469083D01*
X10980939Y-8469081D01*
X10975705Y-8461249D01*
X10972179Y-8455971D01*
X10961029Y-8444821D01*
X10955806Y-8441331D01*
X10947919Y-8436061D01*
X10947917Y-8436060D01*
X10933350Y-8430026D01*
X10917884Y-8426950D01*
X10917884Y-8426950D01*
X10822116Y-8426950D01*
X10822116Y-8426950D01*
X10806650Y-8430026D01*
X10806650Y-8430026D01*
X10792083Y-8436060D01*
X10792081Y-8436061D01*
X10778971Y-8444821D01*
X10778971Y-8444821D01*
X10767821Y-8455971D01*
X10767821Y-8455971D01*
X10759061Y-8469081D01*
X10759060Y-8469083D01*
X10753026Y-8483650D01*
X10753026Y-8483650D01*
X10749950Y-8499116D01*
X10648050Y-8499116D01*
X10648050Y-8272752D01*
X11979950Y-8272752D01*
X11979950Y-8287247D01*
X11983702Y-8301249D01*
X11990949Y-8313801D01*
X11990949Y-8313801D01*
X11990949Y-8313801D01*
X12001198Y-8324051D01*
X12001199Y-8324051D01*
X12001199Y-8324051D01*
X12013751Y-8331298D01*
X12013751Y-8331298D01*
X12013751Y-8331298D01*
X12027752Y-8335050D01*
X12027753Y-8335050D01*
X12042247Y-8335050D01*
X12042247Y-8335050D01*
X12056248Y-8331298D01*
X12056249Y-8331298D01*
X12056249Y-8331298D01*
X12068801Y-8324051D01*
X12068801Y-8324051D01*
X12068801Y-8324051D01*
X12079051Y-8313801D01*
X12086298Y-8301248D01*
X12090050Y-8287247D01*
X12090050Y-8272752D01*
X12088513Y-8267015D01*
X12088833Y-8260905D01*
X12092683Y-8256150D01*
X12098593Y-8254566D01*
X12103025Y-8255879D01*
X12103751Y-8256298D01*
X12117752Y-8260050D01*
X12117753Y-8260050D01*
X12132247Y-8260050D01*
X12132247Y-8260050D01*
X12146248Y-8256298D01*
X12146249Y-8256298D01*
X12146249Y-8256298D01*
X12158801Y-8249051D01*
X12158801Y-8249051D01*
X12158801Y-8249051D01*
X12169051Y-8238801D01*
X12170523Y-8236251D01*
X12176298Y-8226249D01*
X12176298Y-8226248D01*
X12176579Y-8225202D01*
X15474950Y-8225202D01*
X15474950Y-8239697D01*
X15478702Y-8253699D01*
X15485949Y-8266251D01*
X15485949Y-8266251D01*
X15485949Y-8266251D01*
X15496198Y-8276501D01*
X15496199Y-8276501D01*
X15496199Y-8276501D01*
X15508751Y-8283748D01*
X15508751Y-8283748D01*
X15508751Y-8283748D01*
X15522752Y-8287500D01*
X15522753Y-8287500D01*
X15537247Y-8287500D01*
X15537247Y-8287500D01*
X15551248Y-8283748D01*
X15551249Y-8283748D01*
X15551249Y-8283748D01*
X15563801Y-8276501D01*
X15563801Y-8276501D01*
X15563801Y-8276501D01*
X15574051Y-8266251D01*
X15577138Y-8260905D01*
X15581298Y-8253699D01*
X15581298Y-8253699D01*
X15581298Y-8253698D01*
X15585050Y-8239697D01*
X15585050Y-8225202D01*
X15581298Y-8211201D01*
X15574051Y-8198648D01*
X15570605Y-8195202D01*
X15674950Y-8195202D01*
X15674950Y-8209697D01*
X15675353Y-8211201D01*
X15678702Y-8223699D01*
X15685949Y-8236251D01*
X15685949Y-8236251D01*
X15685949Y-8236251D01*
X15696198Y-8246501D01*
X15696199Y-8246501D01*
X15696199Y-8246501D01*
X15708751Y-8253748D01*
X15708751Y-8253748D01*
X15708751Y-8253748D01*
X15722752Y-8257500D01*
X15722753Y-8257500D01*
X15737247Y-8257500D01*
X15737247Y-8257500D01*
X15751248Y-8253748D01*
X15751249Y-8253748D01*
X15751249Y-8253748D01*
X15763801Y-8246501D01*
X15763801Y-8246501D01*
X15763801Y-8246501D01*
X15774051Y-8236251D01*
X15774226Y-8235949D01*
X15781298Y-8223699D01*
X15781298Y-8223699D01*
X15781298Y-8223698D01*
X15785050Y-8209697D01*
X15785050Y-8195202D01*
X15781298Y-8181201D01*
X15781298Y-8181201D01*
X15781298Y-8181201D01*
X15774051Y-8168649D01*
X15774051Y-8168649D01*
X15774051Y-8168648D01*
X15763801Y-8158399D01*
X15763801Y-8158399D01*
X15763801Y-8158399D01*
X15751249Y-8151152D01*
X15751249Y-8151152D01*
X15746764Y-8149950D01*
X15737247Y-8147400D01*
X15722752Y-8147400D01*
X15716579Y-8149054D01*
X15708751Y-8151152D01*
X15696199Y-8158399D01*
X15685949Y-8168649D01*
X15678702Y-8181201D01*
X15678018Y-8183751D01*
X15674950Y-8195202D01*
X15570605Y-8195202D01*
X15563801Y-8188399D01*
X15563801Y-8188399D01*
X15563801Y-8188399D01*
X15551249Y-8181152D01*
X15551249Y-8181152D01*
X15548290Y-8180359D01*
X15537247Y-8177400D01*
X15522752Y-8177400D01*
X15516579Y-8179054D01*
X15508751Y-8181152D01*
X15496199Y-8188399D01*
X15485949Y-8198649D01*
X15478702Y-8211201D01*
X15474950Y-8225202D01*
X12176579Y-8225202D01*
X12177439Y-8221991D01*
X12177439Y-8221991D01*
X12180050Y-8212247D01*
X12180050Y-8197752D01*
X12177544Y-8188399D01*
X12176298Y-8183751D01*
X12176298Y-8183751D01*
X12176298Y-8183751D01*
X12169051Y-8171199D01*
X12169051Y-8171199D01*
X12169051Y-8171198D01*
X12158801Y-8160949D01*
X12158801Y-8160949D01*
X12158801Y-8160949D01*
X12146249Y-8153702D01*
X12146249Y-8153702D01*
X12143290Y-8152909D01*
X12132247Y-8149950D01*
X12117752Y-8149950D01*
X12111579Y-8151604D01*
X12103751Y-8153702D01*
X12091199Y-8160949D01*
X12080949Y-8171199D01*
X12073702Y-8183751D01*
X12069950Y-8197752D01*
X12069950Y-8212247D01*
X12071487Y-8217985D01*
X12071167Y-8224095D01*
X12067316Y-8228850D01*
X12061406Y-8230433D01*
X12056975Y-8229121D01*
X12056249Y-8228702D01*
X12056248Y-8228702D01*
X12042247Y-8224950D01*
X12027752Y-8224950D01*
X12022907Y-8226248D01*
X12013751Y-8228702D01*
X12001199Y-8235949D01*
X11990949Y-8246199D01*
X11983702Y-8258751D01*
X11979950Y-8272752D01*
X10648050Y-8272752D01*
X10648050Y-7992752D01*
X16044950Y-7992752D01*
X16044950Y-8007247D01*
X16048702Y-8021249D01*
X16055949Y-8033801D01*
X16055949Y-8033801D01*
X16055949Y-8033801D01*
X16066198Y-8044051D01*
X16066199Y-8044051D01*
X16066199Y-8044051D01*
X16078751Y-8051298D01*
X16078751Y-8051298D01*
X16078751Y-8051298D01*
X16092752Y-8055050D01*
X16092753Y-8055050D01*
X16107247Y-8055050D01*
X16107247Y-8055050D01*
X16121248Y-8051298D01*
X16121249Y-8051298D01*
X16121249Y-8051298D01*
X16133801Y-8044051D01*
X16133801Y-8044051D01*
X16133801Y-8044051D01*
X16144051Y-8033801D01*
X16151298Y-8021248D01*
X16155050Y-8007247D01*
X16155050Y-7992752D01*
X16644950Y-7992752D01*
X16644950Y-8007247D01*
X16648702Y-8021249D01*
X16655949Y-8033801D01*
X16655949Y-8033801D01*
X16655949Y-8033801D01*
X16666198Y-8044051D01*
X16666199Y-8044051D01*
X16666199Y-8044051D01*
X16678751Y-8051298D01*
X16678751Y-8051298D01*
X16678751Y-8051298D01*
X16692752Y-8055050D01*
X16692753Y-8055050D01*
X16707247Y-8055050D01*
X16707247Y-8055050D01*
X16721248Y-8051298D01*
X16721249Y-8051298D01*
X16721249Y-8051298D01*
X16733801Y-8044051D01*
X16733801Y-8044051D01*
X16733801Y-8044051D01*
X16744051Y-8033801D01*
X16751298Y-8021248D01*
X16755050Y-8007247D01*
X16755050Y-7992752D01*
X16751298Y-7978751D01*
X16751298Y-7978751D01*
X16751298Y-7978751D01*
X16744051Y-7966199D01*
X16744051Y-7966199D01*
X16744051Y-7966198D01*
X16733801Y-7955949D01*
X16733801Y-7955949D01*
X16733801Y-7955949D01*
X16721249Y-7948702D01*
X16721249Y-7948702D01*
X16718290Y-7947909D01*
X16707247Y-7944950D01*
X16692752Y-7944950D01*
X16687906Y-7946248D01*
X16678751Y-7948702D01*
X16666199Y-7955949D01*
X16655949Y-7966199D01*
X16648702Y-7978751D01*
X16644950Y-7992752D01*
X16155050Y-7992752D01*
X16151298Y-7978751D01*
X16151298Y-7978751D01*
X16151298Y-7978751D01*
X16144051Y-7966199D01*
X16144051Y-7966199D01*
X16144051Y-7966198D01*
X16133801Y-7955949D01*
X16133801Y-7955949D01*
X16133801Y-7955949D01*
X16121249Y-7948702D01*
X16121249Y-7948702D01*
X16118290Y-7947909D01*
X16107247Y-7944950D01*
X16092752Y-7944950D01*
X16087906Y-7946248D01*
X16078751Y-7948702D01*
X16066199Y-7955949D01*
X16055949Y-7966199D01*
X16048702Y-7978751D01*
X16044950Y-7992752D01*
X10648050Y-7992752D01*
X10648050Y-7917752D01*
X11984950Y-7917752D01*
X11984950Y-7932247D01*
X11988702Y-7946249D01*
X11995949Y-7958801D01*
X11995949Y-7958801D01*
X11995949Y-7958801D01*
X12006198Y-7969051D01*
X12006199Y-7969051D01*
X12006199Y-7969051D01*
X12018751Y-7976298D01*
X12018751Y-7976298D01*
X12018751Y-7976298D01*
X12032752Y-7980050D01*
X12032753Y-7980050D01*
X12047247Y-7980050D01*
X12047247Y-7980050D01*
X12061248Y-7976298D01*
X12061249Y-7976298D01*
X12061249Y-7976298D01*
X12073801Y-7969051D01*
X12073801Y-7969051D01*
X12073801Y-7969051D01*
X12084051Y-7958801D01*
X12084051Y-7958801D01*
X12091298Y-7946249D01*
X12091298Y-7946249D01*
X12091298Y-7946248D01*
X12095050Y-7932247D01*
X12095050Y-7917752D01*
X12091298Y-7903751D01*
X12091298Y-7903751D01*
X12090722Y-7902752D01*
X12289950Y-7902752D01*
X12289950Y-7917247D01*
X12292035Y-7925029D01*
X12293702Y-7931249D01*
X12300949Y-7943801D01*
X12300949Y-7943801D01*
X12300949Y-7943801D01*
X12311198Y-7954051D01*
X12311199Y-7954051D01*
X12311199Y-7954051D01*
X12323751Y-7961298D01*
X12323751Y-7961298D01*
X12323751Y-7961298D01*
X12337752Y-7965050D01*
X12337753Y-7965050D01*
X12352247Y-7965050D01*
X12352247Y-7965050D01*
X12366248Y-7961298D01*
X12366249Y-7961298D01*
X12366249Y-7961298D01*
X12378801Y-7954051D01*
X12378801Y-7954051D01*
X12378801Y-7954051D01*
X12389051Y-7943801D01*
X12392835Y-7937247D01*
X12396298Y-7931249D01*
X12396298Y-7931249D01*
X12396298Y-7931248D01*
X12398575Y-7922752D01*
X13404950Y-7922752D01*
X13404950Y-7937247D01*
X13407909Y-7948290D01*
X13408702Y-7951249D01*
X13415949Y-7963801D01*
X13415949Y-7963801D01*
X13415949Y-7963801D01*
X13426198Y-7974051D01*
X13426199Y-7974051D01*
X13426199Y-7974051D01*
X13438751Y-7981298D01*
X13438751Y-7981298D01*
X13438751Y-7981298D01*
X13452752Y-7985050D01*
X13452753Y-7985050D01*
X13467247Y-7985050D01*
X13467247Y-7985050D01*
X13481248Y-7981298D01*
X13481249Y-7981298D01*
X13481249Y-7981298D01*
X13493801Y-7974051D01*
X13493801Y-7974051D01*
X13493801Y-7974051D01*
X13504051Y-7963801D01*
X13506938Y-7958801D01*
X13511298Y-7951249D01*
X13511298Y-7951249D01*
X13511298Y-7951248D01*
X13515050Y-7937247D01*
X13515050Y-7922752D01*
X13511298Y-7908751D01*
X13511298Y-7908751D01*
X13511298Y-7908751D01*
X13504051Y-7896199D01*
X13504051Y-7896199D01*
X13504051Y-7896198D01*
X13493801Y-7885949D01*
X13493801Y-7885949D01*
X13493801Y-7885949D01*
X13481249Y-7878702D01*
X13481249Y-7878702D01*
X13475821Y-7877247D01*
X13467247Y-7874950D01*
X13452752Y-7874950D01*
X13448093Y-7876198D01*
X13438751Y-7878702D01*
X13426199Y-7885949D01*
X13415949Y-7896199D01*
X13408702Y-7908751D01*
X13405810Y-7919541D01*
X13404950Y-7922752D01*
X12398575Y-7922752D01*
X12400050Y-7917247D01*
X12400050Y-7902752D01*
X12396298Y-7888751D01*
X12396298Y-7888751D01*
X12396298Y-7888751D01*
X12389051Y-7876199D01*
X12389051Y-7876199D01*
X12389051Y-7876198D01*
X12378801Y-7865949D01*
X12378801Y-7865949D01*
X12378801Y-7865949D01*
X12373265Y-7862752D01*
X14094950Y-7862752D01*
X14094950Y-7877247D01*
X14096119Y-7881610D01*
X14098702Y-7891249D01*
X14105949Y-7903801D01*
X14105949Y-7903801D01*
X14105949Y-7903801D01*
X14116198Y-7914051D01*
X14116199Y-7914051D01*
X14116199Y-7914051D01*
X14128751Y-7921298D01*
X14128751Y-7921298D01*
X14128751Y-7921298D01*
X14142752Y-7925050D01*
X14142753Y-7925050D01*
X14157247Y-7925050D01*
X14157247Y-7925050D01*
X14171248Y-7921298D01*
X14171249Y-7921298D01*
X14171249Y-7921298D01*
X14183801Y-7914051D01*
X14183801Y-7914051D01*
X14183801Y-7914051D01*
X14194051Y-7903801D01*
X14194080Y-7903751D01*
X14201298Y-7891249D01*
X14201298Y-7891249D01*
X14201298Y-7891248D01*
X14205050Y-7877247D01*
X14205050Y-7862752D01*
X14201298Y-7848751D01*
X14201298Y-7848751D01*
X14201298Y-7848751D01*
X14194051Y-7836199D01*
X14194051Y-7836199D01*
X14194051Y-7836198D01*
X14183801Y-7825949D01*
X14183801Y-7825949D01*
X14183801Y-7825949D01*
X14171249Y-7818702D01*
X14171249Y-7818702D01*
X14171249Y-7818702D01*
X14171248Y-7818702D01*
X14157247Y-7814950D01*
X14142752Y-7814950D01*
X14137721Y-7816298D01*
X14128751Y-7818702D01*
X14116199Y-7825949D01*
X14105949Y-7836199D01*
X14098702Y-7848751D01*
X14098621Y-7849051D01*
X14094950Y-7862752D01*
X12373265Y-7862752D01*
X12366249Y-7858702D01*
X12366249Y-7858702D01*
X12357280Y-7856298D01*
X12352247Y-7854950D01*
X12337752Y-7854950D01*
X12332721Y-7856298D01*
X12323751Y-7858702D01*
X12311199Y-7865949D01*
X12300949Y-7876199D01*
X12293702Y-7888751D01*
X12289950Y-7902752D01*
X12090722Y-7902752D01*
X12084051Y-7891199D01*
X12084051Y-7891199D01*
X12084051Y-7891198D01*
X12073801Y-7880949D01*
X12073801Y-7880949D01*
X12073801Y-7880949D01*
X12061249Y-7873702D01*
X12061249Y-7873702D01*
X12058290Y-7872909D01*
X12047247Y-7869950D01*
X12032752Y-7869950D01*
X12026579Y-7871604D01*
X12018751Y-7873702D01*
X12006199Y-7880949D01*
X11995949Y-7891199D01*
X11988702Y-7903751D01*
X11984950Y-7917752D01*
X10648050Y-7917752D01*
X10648050Y-7635115D01*
X10749950Y-7635115D01*
X10749950Y-7650884D01*
X10753026Y-7666350D01*
X10753026Y-7666350D01*
X10759060Y-7680917D01*
X10759061Y-7680918D01*
X10760166Y-7682573D01*
X10767821Y-7694029D01*
X10778971Y-7705179D01*
X10786788Y-7710402D01*
X10792081Y-7713939D01*
X10792083Y-7713940D01*
X10797464Y-7716168D01*
X10806650Y-7719974D01*
X10822116Y-7723050D01*
X10822116Y-7723050D01*
X10917884Y-7723050D01*
X10917884Y-7723050D01*
X10933350Y-7719974D01*
X10947918Y-7713939D01*
X10961029Y-7705179D01*
X10972179Y-7694029D01*
X10980939Y-7680918D01*
X10986974Y-7666350D01*
X10990050Y-7650884D01*
X10990050Y-7635116D01*
X10990050Y-7635115D01*
X11154950Y-7635115D01*
X11154950Y-7650884D01*
X11158026Y-7666350D01*
X11158026Y-7666350D01*
X11164060Y-7680917D01*
X11164061Y-7680918D01*
X11165166Y-7682573D01*
X11172821Y-7694029D01*
X11183971Y-7705179D01*
X11191788Y-7710402D01*
X11197081Y-7713939D01*
X11197082Y-7713940D01*
X11208015Y-7718468D01*
X11212668Y-7722442D01*
X11214096Y-7728391D01*
X11211755Y-7734044D01*
X11209177Y-7736188D01*
X11202664Y-7739948D01*
X11191948Y-7750664D01*
X11184372Y-7763786D01*
X11182432Y-7771027D01*
X11180450Y-7778423D01*
X11180450Y-7793577D01*
X11181850Y-7798801D01*
X11184372Y-7808214D01*
X11191948Y-7821336D01*
X11191948Y-7821336D01*
X11191948Y-7821336D01*
X11202663Y-7832051D01*
X11202664Y-7832052D01*
X11202664Y-7832052D01*
X11215786Y-7839628D01*
X11215786Y-7839628D01*
X11215786Y-7839628D01*
X11215786Y-7839628D01*
X11230423Y-7843550D01*
X11230424Y-7843550D01*
X11245576Y-7843550D01*
X11245577Y-7843550D01*
X11260213Y-7839628D01*
X11260214Y-7839628D01*
X11260214Y-7839628D01*
X11273336Y-7832052D01*
X11273336Y-7832052D01*
X11273336Y-7832051D01*
X11284051Y-7821336D01*
X11288402Y-7813801D01*
X11291628Y-7808214D01*
X11291628Y-7808214D01*
X11291628Y-7808213D01*
X11295550Y-7793577D01*
X11295550Y-7778423D01*
X11291628Y-7763786D01*
X11291628Y-7763786D01*
X11291628Y-7763786D01*
X11284052Y-7750664D01*
X11284052Y-7750664D01*
X11284051Y-7750663D01*
X11273338Y-7739950D01*
X11270561Y-7734499D01*
X11271518Y-7728455D01*
X11275844Y-7724129D01*
X11280339Y-7723050D01*
X11352884Y-7723050D01*
X11352884Y-7723050D01*
X11368350Y-7719974D01*
X11373712Y-7717752D01*
X11439950Y-7717752D01*
X11439950Y-7732247D01*
X11442013Y-7739948D01*
X11443702Y-7746249D01*
X11450949Y-7758802D01*
X11451081Y-7758974D01*
X11451133Y-7759120D01*
X11451273Y-7759363D01*
X11451228Y-7759389D01*
X11453123Y-7764741D01*
X11451385Y-7770608D01*
X11451081Y-7771026D01*
X11450949Y-7771198D01*
X11443702Y-7783751D01*
X11442765Y-7787247D01*
X11439950Y-7797752D01*
X11439950Y-7812247D01*
X11442041Y-7820050D01*
X11443702Y-7826249D01*
X11450949Y-7838801D01*
X11450949Y-7838801D01*
X11450949Y-7838801D01*
X11461198Y-7849051D01*
X11461199Y-7849051D01*
X11461199Y-7849051D01*
X11473751Y-7856298D01*
X11473751Y-7856298D01*
X11473751Y-7856298D01*
X11487752Y-7860050D01*
X11487753Y-7860050D01*
X11502247Y-7860050D01*
X11502247Y-7860050D01*
X11516248Y-7856298D01*
X11516249Y-7856298D01*
X11516249Y-7856298D01*
X11528801Y-7849051D01*
X11528801Y-7849051D01*
X11528801Y-7849051D01*
X11539051Y-7838801D01*
X11540553Y-7836199D01*
X11546298Y-7826249D01*
X11546298Y-7826249D01*
X11546298Y-7826248D01*
X11550050Y-7812247D01*
X11550050Y-7797752D01*
X11546298Y-7783751D01*
X11546298Y-7783751D01*
X11546298Y-7783751D01*
X11539051Y-7771199D01*
X11538919Y-7771027D01*
X11538867Y-7770881D01*
X11538726Y-7770636D01*
X11538772Y-7770610D01*
X11536877Y-7765259D01*
X11538261Y-7759945D01*
X11538778Y-7759074D01*
X11539051Y-7758801D01*
X11539656Y-7757752D01*
X11959950Y-7757752D01*
X11959950Y-7772247D01*
X11961605Y-7778423D01*
X11963702Y-7786249D01*
X11970949Y-7798801D01*
X11970949Y-7798801D01*
X11970949Y-7798801D01*
X11981198Y-7809051D01*
X11981199Y-7809051D01*
X11981199Y-7809051D01*
X11993751Y-7816298D01*
X11993751Y-7816298D01*
X11993751Y-7816298D01*
X12007752Y-7820050D01*
X12007753Y-7820050D01*
X12022247Y-7820050D01*
X12022247Y-7820050D01*
X12036248Y-7816298D01*
X12036249Y-7816298D01*
X12036249Y-7816298D01*
X12048801Y-7809051D01*
X12048801Y-7809051D01*
X12048801Y-7809051D01*
X12059051Y-7798801D01*
X12059051Y-7798801D01*
X12066298Y-7786249D01*
X12066298Y-7786249D01*
X12066298Y-7786248D01*
X12069915Y-7772752D01*
X13379950Y-7772752D01*
X13379950Y-7787247D01*
X13381646Y-7793577D01*
X13383702Y-7801249D01*
X13390949Y-7813801D01*
X13390949Y-7813801D01*
X13390949Y-7813801D01*
X13401198Y-7824051D01*
X13401199Y-7824051D01*
X13401199Y-7824051D01*
X13413751Y-7831298D01*
X13413751Y-7831298D01*
X13413751Y-7831298D01*
X13427752Y-7835050D01*
X13427753Y-7835050D01*
X13442247Y-7835050D01*
X13442247Y-7835050D01*
X13456248Y-7831298D01*
X13456249Y-7831298D01*
X13456249Y-7831298D01*
X13468801Y-7824051D01*
X13468801Y-7824051D01*
X13468801Y-7824051D01*
X13479051Y-7813801D01*
X13481320Y-7809871D01*
X17039950Y-7809871D01*
X17039950Y-7834129D01*
X17043116Y-7858178D01*
X17043116Y-7858179D01*
X17049394Y-7881609D01*
X17049395Y-7881610D01*
X17058677Y-7904020D01*
X17058677Y-7904021D01*
X17058678Y-7904021D01*
X17070806Y-7925029D01*
X17070807Y-7925029D01*
X17085573Y-7944273D01*
X17085573Y-7944273D01*
X17085574Y-7944274D01*
X17102726Y-7961426D01*
X17102727Y-7961427D01*
X17102727Y-7961427D01*
X17121971Y-7976193D01*
X17121971Y-7976194D01*
X17142979Y-7988322D01*
X17165390Y-7997605D01*
X17188821Y-8003884D01*
X17212871Y-8007050D01*
X17212871Y-8007050D01*
X17237129Y-8007050D01*
X17237129Y-8007050D01*
X17261179Y-8003884D01*
X17284610Y-7997605D01*
X17307021Y-7988322D01*
X17328029Y-7976194D01*
X17347274Y-7961426D01*
X17364427Y-7944274D01*
X17379194Y-7925029D01*
X17391322Y-7904021D01*
X17400605Y-7881610D01*
X17406884Y-7858179D01*
X17410050Y-7834129D01*
X17410050Y-7809871D01*
X17406884Y-7785821D01*
X17400605Y-7762390D01*
X17391322Y-7739979D01*
X17379194Y-7718971D01*
X17375333Y-7713940D01*
X17364427Y-7699727D01*
X17364427Y-7699727D01*
X17364427Y-7699726D01*
X17347274Y-7682573D01*
X17347273Y-7682573D01*
X17347273Y-7682573D01*
X17328029Y-7667807D01*
X17328029Y-7667806D01*
X17307021Y-7655678D01*
X17307021Y-7655677D01*
X17307020Y-7655677D01*
X17284611Y-7646395D01*
X17284610Y-7646395D01*
X17284610Y-7646395D01*
X17261179Y-7640116D01*
X17261179Y-7640116D01*
X17261178Y-7640116D01*
X17237129Y-7636950D01*
X17237129Y-7636950D01*
X17212871Y-7636950D01*
X17212871Y-7636950D01*
X17188822Y-7640116D01*
X17188821Y-7640116D01*
X17165391Y-7646394D01*
X17165389Y-7646395D01*
X17142980Y-7655677D01*
X17121971Y-7667807D01*
X17102727Y-7682573D01*
X17085573Y-7699727D01*
X17070807Y-7718971D01*
X17058677Y-7739979D01*
X17049395Y-7762389D01*
X17049394Y-7762391D01*
X17043116Y-7785821D01*
X17043116Y-7785822D01*
X17039950Y-7809871D01*
X13481320Y-7809871D01*
X13482277Y-7808214D01*
X13486298Y-7801249D01*
X13486298Y-7801249D01*
X13486298Y-7801248D01*
X13490050Y-7787247D01*
X13490050Y-7772752D01*
X13486298Y-7758751D01*
X13486298Y-7758751D01*
X13486298Y-7758751D01*
X13479051Y-7746199D01*
X13479051Y-7746199D01*
X13479051Y-7746198D01*
X13468801Y-7735949D01*
X13468801Y-7735949D01*
X13468801Y-7735949D01*
X13456249Y-7728702D01*
X13456249Y-7728702D01*
X13453290Y-7727909D01*
X13442247Y-7724950D01*
X13427752Y-7724950D01*
X13421579Y-7726604D01*
X13413751Y-7728702D01*
X13401199Y-7735949D01*
X13390949Y-7746199D01*
X13383702Y-7758751D01*
X13380366Y-7771198D01*
X13379950Y-7772752D01*
X12069915Y-7772752D01*
X12070050Y-7772247D01*
X12070050Y-7757752D01*
X12066298Y-7743751D01*
X12066298Y-7743751D01*
X12066298Y-7743751D01*
X12059051Y-7731199D01*
X12059051Y-7731199D01*
X12059051Y-7731198D01*
X12048801Y-7720949D01*
X12048801Y-7720949D01*
X12048801Y-7720949D01*
X12036249Y-7713702D01*
X12036249Y-7713702D01*
X12033290Y-7712909D01*
X12022247Y-7709950D01*
X12007752Y-7709950D01*
X12001579Y-7711604D01*
X11993751Y-7713702D01*
X11981199Y-7720949D01*
X11970949Y-7731199D01*
X11963702Y-7743751D01*
X11963702Y-7743751D01*
X11959950Y-7757752D01*
X11539656Y-7757752D01*
X11546298Y-7746248D01*
X11550050Y-7732247D01*
X11550050Y-7717752D01*
X11546298Y-7703751D01*
X11546298Y-7703751D01*
X11546298Y-7703751D01*
X11539051Y-7691199D01*
X11539051Y-7691199D01*
X11539051Y-7691198D01*
X11528801Y-7680949D01*
X11528801Y-7680949D01*
X11528801Y-7680949D01*
X11516249Y-7673702D01*
X11516249Y-7673702D01*
X11513290Y-7672909D01*
X11502247Y-7669950D01*
X11487752Y-7669950D01*
X11481579Y-7671604D01*
X11473751Y-7673702D01*
X11461199Y-7680949D01*
X11450949Y-7691199D01*
X11443702Y-7703751D01*
X11443319Y-7705179D01*
X11439950Y-7717752D01*
X11373712Y-7717752D01*
X11382918Y-7713939D01*
X11382918Y-7713939D01*
X11382919Y-7713939D01*
X11390502Y-7708872D01*
X11392534Y-7707514D01*
X11396029Y-7705179D01*
X11407179Y-7694029D01*
X11415939Y-7680918D01*
X11421974Y-7666350D01*
X11425050Y-7650884D01*
X11425050Y-7635116D01*
X11421974Y-7619650D01*
X11418447Y-7611136D01*
X11415940Y-7605082D01*
X11415939Y-7605081D01*
X11412402Y-7599788D01*
X11407179Y-7591971D01*
X11396029Y-7580821D01*
X11391436Y-7577752D01*
X12509950Y-7577752D01*
X12509950Y-7592247D01*
X12513702Y-7606249D01*
X12520949Y-7618801D01*
X12520949Y-7618801D01*
X12520949Y-7618801D01*
X12531198Y-7629051D01*
X12531199Y-7629051D01*
X12531199Y-7629051D01*
X12543751Y-7636298D01*
X12543751Y-7636298D01*
X12543751Y-7636298D01*
X12557752Y-7640050D01*
X12557753Y-7640050D01*
X12572247Y-7640050D01*
X12572247Y-7640050D01*
X12586248Y-7636298D01*
X12586249Y-7636298D01*
X12586249Y-7636298D01*
X12598801Y-7629051D01*
X12598801Y-7629051D01*
X12598801Y-7629051D01*
X12609051Y-7618801D01*
X12609051Y-7618801D01*
X12616298Y-7606249D01*
X12616298Y-7606249D01*
X12616298Y-7606248D01*
X12619915Y-7592752D01*
X16644950Y-7592752D01*
X16644950Y-7607247D01*
X16646856Y-7614360D01*
X16648702Y-7621249D01*
X16655949Y-7633801D01*
X16655949Y-7633801D01*
X16655949Y-7633801D01*
X16666198Y-7644051D01*
X16666199Y-7644051D01*
X16666199Y-7644051D01*
X16678751Y-7651298D01*
X16678751Y-7651298D01*
X16678751Y-7651298D01*
X16692752Y-7655050D01*
X16692753Y-7655050D01*
X16707247Y-7655050D01*
X16707247Y-7655050D01*
X16721248Y-7651298D01*
X16721249Y-7651298D01*
X16721249Y-7651298D01*
X16733801Y-7644051D01*
X16733801Y-7644051D01*
X16733801Y-7644051D01*
X16744051Y-7633801D01*
X16751298Y-7621248D01*
X16755050Y-7607247D01*
X16755050Y-7592752D01*
X16751298Y-7578751D01*
X16751298Y-7578751D01*
X16751298Y-7578751D01*
X16744051Y-7566199D01*
X16744051Y-7566199D01*
X16744051Y-7566198D01*
X16733801Y-7555949D01*
X16733801Y-7555949D01*
X16733801Y-7555949D01*
X16721249Y-7548702D01*
X16721249Y-7548702D01*
X16718290Y-7547909D01*
X16707247Y-7544950D01*
X16692752Y-7544950D01*
X16688967Y-7545964D01*
X16678751Y-7548702D01*
X16666199Y-7555949D01*
X16655949Y-7566199D01*
X16648702Y-7578751D01*
X16645159Y-7591971D01*
X16644950Y-7592752D01*
X12619915Y-7592752D01*
X12620050Y-7592247D01*
X12620050Y-7577752D01*
X12616298Y-7563751D01*
X12616298Y-7563751D01*
X12616298Y-7563751D01*
X12609051Y-7551199D01*
X12609051Y-7551199D01*
X12609051Y-7551198D01*
X12598801Y-7540949D01*
X12598801Y-7540949D01*
X12598801Y-7540949D01*
X12586249Y-7533702D01*
X12586249Y-7533702D01*
X12583290Y-7532909D01*
X12572247Y-7529950D01*
X12557752Y-7529950D01*
X12551579Y-7531604D01*
X12543751Y-7533702D01*
X12531199Y-7540949D01*
X12520949Y-7551199D01*
X12513702Y-7563751D01*
X12509950Y-7577752D01*
X11391436Y-7577752D01*
X11390806Y-7577331D01*
X11382918Y-7572061D01*
X11382917Y-7572060D01*
X11368350Y-7566026D01*
X11352884Y-7562950D01*
X11352884Y-7562950D01*
X11227116Y-7562950D01*
X11227115Y-7562950D01*
X11211650Y-7566026D01*
X11211650Y-7566026D01*
X11197082Y-7572060D01*
X11197081Y-7572061D01*
X11183971Y-7580821D01*
X11183971Y-7580821D01*
X11172821Y-7591971D01*
X11172821Y-7591971D01*
X11164061Y-7605081D01*
X11164060Y-7605082D01*
X11158026Y-7619650D01*
X11158026Y-7619650D01*
X11154950Y-7635115D01*
X10990050Y-7635115D01*
X10986974Y-7619650D01*
X10983447Y-7611136D01*
X10980940Y-7605082D01*
X10980939Y-7605081D01*
X10977402Y-7599788D01*
X10972179Y-7591971D01*
X10961029Y-7580821D01*
X10955806Y-7577331D01*
X10947919Y-7572061D01*
X10947917Y-7572060D01*
X10933350Y-7566026D01*
X10917884Y-7562950D01*
X10917884Y-7562950D01*
X10822116Y-7562950D01*
X10822116Y-7562950D01*
X10806650Y-7566026D01*
X10806650Y-7566026D01*
X10792083Y-7572060D01*
X10792081Y-7572061D01*
X10778971Y-7580821D01*
X10778971Y-7580821D01*
X10767821Y-7591971D01*
X10767821Y-7591971D01*
X10759061Y-7605081D01*
X10759060Y-7605082D01*
X10753026Y-7619650D01*
X10753026Y-7619650D01*
X10749950Y-7635115D01*
X10648050Y-7635115D01*
X10648050Y-7482752D01*
X15414950Y-7482752D01*
X15414950Y-7497247D01*
X15418702Y-7511249D01*
X15425949Y-7523801D01*
X15425949Y-7523801D01*
X15425949Y-7523801D01*
X15436198Y-7534051D01*
X15436199Y-7534051D01*
X15436199Y-7534051D01*
X15448751Y-7541298D01*
X15448751Y-7541298D01*
X15448751Y-7541298D01*
X15462752Y-7545050D01*
X15462753Y-7545050D01*
X15477247Y-7545050D01*
X15477247Y-7545050D01*
X15491248Y-7541298D01*
X15491249Y-7541298D01*
X15491249Y-7541298D01*
X15503801Y-7534051D01*
X15503801Y-7534051D01*
X15503801Y-7534051D01*
X15514051Y-7523801D01*
X15521298Y-7511248D01*
X15525050Y-7497247D01*
X15525050Y-7482752D01*
X15521298Y-7468751D01*
X15521298Y-7468751D01*
X15521298Y-7468751D01*
X15514051Y-7456199D01*
X15514051Y-7456199D01*
X15514051Y-7456198D01*
X15503801Y-7445949D01*
X15503801Y-7445949D01*
X15503801Y-7445949D01*
X15491249Y-7438702D01*
X15491249Y-7438702D01*
X15488290Y-7437909D01*
X15477247Y-7434950D01*
X15462752Y-7434950D01*
X15456579Y-7436604D01*
X15448751Y-7438702D01*
X15436199Y-7445949D01*
X15425949Y-7456199D01*
X15418702Y-7468751D01*
X15414950Y-7482752D01*
X10648050Y-7482752D01*
X10648050Y-7402752D01*
X11694950Y-7402752D01*
X11694950Y-7417247D01*
X11698702Y-7431249D01*
X11705949Y-7443801D01*
X11705949Y-7443801D01*
X11705949Y-7443801D01*
X11716198Y-7454051D01*
X11716199Y-7454051D01*
X11716199Y-7454051D01*
X11728751Y-7461298D01*
X11728751Y-7461298D01*
X11728751Y-7461298D01*
X11742752Y-7465050D01*
X11742753Y-7465050D01*
X11757247Y-7465050D01*
X11757247Y-7465050D01*
X11771248Y-7461298D01*
X11771249Y-7461298D01*
X11771249Y-7461298D01*
X11783801Y-7454051D01*
X11783801Y-7454051D01*
X11783801Y-7454051D01*
X11794051Y-7443801D01*
X11796995Y-7438702D01*
X11801298Y-7431249D01*
X11801298Y-7431249D01*
X11801298Y-7431248D01*
X11805050Y-7417247D01*
X11805050Y-7402752D01*
X11801298Y-7388751D01*
X11801298Y-7388751D01*
X11801298Y-7388751D01*
X11794051Y-7376199D01*
X11794051Y-7376199D01*
X11794051Y-7376198D01*
X11783801Y-7365949D01*
X11783801Y-7365949D01*
X11783801Y-7365949D01*
X11771249Y-7358702D01*
X11771249Y-7358702D01*
X11768290Y-7357909D01*
X11757247Y-7354950D01*
X11742752Y-7354950D01*
X11736579Y-7356604D01*
X11728751Y-7358702D01*
X11716199Y-7365949D01*
X11705949Y-7376199D01*
X11698702Y-7388751D01*
X11694950Y-7402752D01*
X10648050Y-7402752D01*
X10648050Y-7292752D01*
X10844950Y-7292752D01*
X10844950Y-7307247D01*
X10848702Y-7321249D01*
X10855949Y-7333801D01*
X10855949Y-7333801D01*
X10855949Y-7333801D01*
X10866199Y-7344051D01*
X10866199Y-7344051D01*
X10866199Y-7344051D01*
X10878751Y-7351298D01*
X10878751Y-7351298D01*
X10878752Y-7351298D01*
X10892753Y-7355050D01*
X10892753Y-7355050D01*
X10907247Y-7355050D01*
X10907248Y-7355050D01*
X10921249Y-7351298D01*
X10921249Y-7351298D01*
X10921249Y-7351298D01*
X10933801Y-7344051D01*
X10933801Y-7344051D01*
X10933802Y-7344051D01*
X10944051Y-7333801D01*
X10951298Y-7321248D01*
X10955050Y-7307247D01*
X10955050Y-7292752D01*
X10951298Y-7278751D01*
X10951298Y-7278751D01*
X10951298Y-7278751D01*
X10944051Y-7266199D01*
X10944051Y-7266199D01*
X10944051Y-7266198D01*
X10933802Y-7255949D01*
X10933801Y-7255949D01*
X10933801Y-7255949D01*
X10921249Y-7248702D01*
X10921249Y-7248702D01*
X10918290Y-7247909D01*
X10907248Y-7244950D01*
X10892753Y-7244950D01*
X10886579Y-7246604D01*
X10878751Y-7248702D01*
X10866199Y-7255949D01*
X10855949Y-7266199D01*
X10848702Y-7278751D01*
X10844950Y-7292752D01*
X10648050Y-7292752D01*
X10648050Y-7192752D01*
X13844950Y-7192752D01*
X13844950Y-7207247D01*
X13848702Y-7221249D01*
X13855949Y-7233801D01*
X13855949Y-7233801D01*
X13855949Y-7233801D01*
X13866198Y-7244051D01*
X13866199Y-7244051D01*
X13866199Y-7244051D01*
X13878751Y-7251298D01*
X13878751Y-7251298D01*
X13878751Y-7251298D01*
X13892752Y-7255050D01*
X13892753Y-7255050D01*
X13907247Y-7255050D01*
X13907247Y-7255050D01*
X13921248Y-7251298D01*
X13921249Y-7251298D01*
X13921249Y-7251298D01*
X13933801Y-7244051D01*
X13933801Y-7244051D01*
X13933801Y-7244051D01*
X13944051Y-7233801D01*
X13951298Y-7221248D01*
X13955050Y-7207247D01*
X13955050Y-7192752D01*
X13951298Y-7178751D01*
X13951298Y-7178751D01*
X13951298Y-7178751D01*
X13944051Y-7166199D01*
X13944051Y-7166199D01*
X13944051Y-7166198D01*
X13933801Y-7155949D01*
X13933801Y-7155949D01*
X13933801Y-7155949D01*
X13921249Y-7148702D01*
X13921249Y-7148702D01*
X13918290Y-7147909D01*
X13907247Y-7144950D01*
X13892752Y-7144950D01*
X13886579Y-7146604D01*
X13878751Y-7148702D01*
X13866199Y-7155949D01*
X13855949Y-7166199D01*
X13848702Y-7178751D01*
X13844950Y-7192752D01*
X10648050Y-7192752D01*
X10648050Y-7092752D01*
X15744950Y-7092752D01*
X15744950Y-7107247D01*
X15748702Y-7121249D01*
X15755949Y-7133801D01*
X15755949Y-7133801D01*
X15755949Y-7133801D01*
X15766198Y-7144051D01*
X15766199Y-7144051D01*
X15766199Y-7144051D01*
X15778751Y-7151298D01*
X15778751Y-7151298D01*
X15778751Y-7151298D01*
X15792752Y-7155050D01*
X15792753Y-7155050D01*
X15807247Y-7155050D01*
X15807247Y-7155050D01*
X15821248Y-7151298D01*
X15821249Y-7151298D01*
X15821249Y-7151298D01*
X15833801Y-7144051D01*
X15833801Y-7144051D01*
X15833801Y-7144051D01*
X15844051Y-7133801D01*
X15851298Y-7121248D01*
X15855050Y-7107247D01*
X15855050Y-7092752D01*
X15851298Y-7078751D01*
X15851298Y-7078751D01*
X15851298Y-7078751D01*
X15844051Y-7066199D01*
X15844051Y-7066199D01*
X15844051Y-7066198D01*
X15833801Y-7055949D01*
X15833801Y-7055949D01*
X15833801Y-7055949D01*
X15821249Y-7048702D01*
X15821249Y-7048702D01*
X15818290Y-7047909D01*
X15807247Y-7044950D01*
X15792752Y-7044950D01*
X15786579Y-7046604D01*
X15778751Y-7048702D01*
X15766199Y-7055949D01*
X15755949Y-7066199D01*
X15748702Y-7078751D01*
X15744950Y-7092752D01*
X10648050Y-7092752D01*
X10648050Y-6992752D01*
X12744950Y-6992752D01*
X12744950Y-7007247D01*
X12748702Y-7021249D01*
X12755949Y-7033801D01*
X12755949Y-7033801D01*
X12755949Y-7033801D01*
X12766198Y-7044051D01*
X12766199Y-7044051D01*
X12766199Y-7044051D01*
X12778751Y-7051298D01*
X12778751Y-7051298D01*
X12778751Y-7051298D01*
X12792752Y-7055050D01*
X12792753Y-7055050D01*
X12807247Y-7055050D01*
X12807247Y-7055050D01*
X12821248Y-7051298D01*
X12821249Y-7051298D01*
X12821249Y-7051298D01*
X12833801Y-7044051D01*
X12833801Y-7044051D01*
X12833801Y-7044051D01*
X12844051Y-7033801D01*
X12851298Y-7021248D01*
X12855050Y-7007247D01*
X12855050Y-6992752D01*
X12851298Y-6978751D01*
X12851298Y-6978751D01*
X12851298Y-6978751D01*
X12844051Y-6966199D01*
X12844051Y-6966199D01*
X12844051Y-6966198D01*
X12833801Y-6955949D01*
X12833801Y-6955949D01*
X12833801Y-6955949D01*
X12821249Y-6948702D01*
X12821249Y-6948702D01*
X12818290Y-6947909D01*
X12807247Y-6944950D01*
X12792752Y-6944950D01*
X12786579Y-6946604D01*
X12778751Y-6948702D01*
X12766199Y-6955949D01*
X12755949Y-6966199D01*
X12748702Y-6978751D01*
X12744950Y-6992752D01*
X10648050Y-6992752D01*
X10648050Y-6657752D01*
X11219950Y-6657752D01*
X11219950Y-6672247D01*
X11223702Y-6686249D01*
X11230949Y-6698801D01*
X11230949Y-6698801D01*
X11230949Y-6698801D01*
X11241198Y-6709051D01*
X11241199Y-6709051D01*
X11241199Y-6709051D01*
X11253751Y-6716298D01*
X11253751Y-6716298D01*
X11253751Y-6716298D01*
X11267752Y-6720050D01*
X11267753Y-6720050D01*
X11282247Y-6720050D01*
X11282247Y-6720050D01*
X11296248Y-6716298D01*
X11296249Y-6716298D01*
X11296249Y-6716298D01*
X11308801Y-6709051D01*
X11308801Y-6709051D01*
X11308801Y-6709051D01*
X11319051Y-6698801D01*
X11326298Y-6686248D01*
X11330050Y-6672247D01*
X11330050Y-6657752D01*
X11326298Y-6643751D01*
X11326298Y-6643751D01*
X11326298Y-6643751D01*
X11319051Y-6631199D01*
X11319051Y-6631199D01*
X11319051Y-6631198D01*
X11308801Y-6620949D01*
X11308801Y-6620949D01*
X11308801Y-6620949D01*
X11296249Y-6613702D01*
X11296249Y-6613702D01*
X11293290Y-6612909D01*
X11282247Y-6609950D01*
X11267752Y-6609950D01*
X11261579Y-6611604D01*
X11253751Y-6613702D01*
X11241199Y-6620949D01*
X11230949Y-6631199D01*
X11223702Y-6643751D01*
X11219950Y-6657752D01*
X10648050Y-6657752D01*
X10648050Y-6442752D01*
X10949950Y-6442752D01*
X10949950Y-6457247D01*
X10953702Y-6471249D01*
X10960949Y-6483801D01*
X10960949Y-6483801D01*
X10960949Y-6483801D01*
X10971199Y-6494051D01*
X10971199Y-6494051D01*
X10971199Y-6494051D01*
X10983751Y-6501298D01*
X10983751Y-6501298D01*
X10983752Y-6501298D01*
X10997753Y-6505050D01*
X10997753Y-6505050D01*
X11012247Y-6505050D01*
X11012248Y-6505050D01*
X11026249Y-6501298D01*
X11026249Y-6501298D01*
X11026249Y-6501298D01*
X11038801Y-6494051D01*
X11038801Y-6494051D01*
X11038802Y-6494051D01*
X11049051Y-6483801D01*
X11049485Y-6483050D01*
X11056298Y-6471249D01*
X11056298Y-6471249D01*
X11056298Y-6471248D01*
X11060050Y-6457247D01*
X11060050Y-6442752D01*
X11484950Y-6442752D01*
X11484950Y-6457247D01*
X11488702Y-6471249D01*
X11495949Y-6483801D01*
X11495949Y-6483801D01*
X11495949Y-6483801D01*
X11506198Y-6494051D01*
X11506199Y-6494051D01*
X11506199Y-6494051D01*
X11518751Y-6501298D01*
X11518751Y-6501298D01*
X11518751Y-6501298D01*
X11532752Y-6505050D01*
X11532753Y-6505050D01*
X11547247Y-6505050D01*
X11547247Y-6505050D01*
X11561248Y-6501298D01*
X11561249Y-6501298D01*
X11561249Y-6501298D01*
X11573801Y-6494051D01*
X11573801Y-6494051D01*
X11573801Y-6494051D01*
X11584051Y-6483801D01*
X11584485Y-6483050D01*
X11591298Y-6471249D01*
X11591298Y-6471249D01*
X11591298Y-6471248D01*
X11595050Y-6457247D01*
X11595050Y-6442752D01*
X11591298Y-6428751D01*
X11591298Y-6428751D01*
X11591298Y-6428751D01*
X11584051Y-6416199D01*
X11584051Y-6416199D01*
X11584051Y-6416198D01*
X11573801Y-6405949D01*
X11573801Y-6405949D01*
X11573801Y-6405949D01*
X11561249Y-6398702D01*
X11561249Y-6398702D01*
X11558290Y-6397909D01*
X11547247Y-6394950D01*
X11532752Y-6394950D01*
X11526579Y-6396604D01*
X11518751Y-6398702D01*
X11506199Y-6405949D01*
X11495949Y-6416199D01*
X11488702Y-6428751D01*
X11484950Y-6442752D01*
X11060050Y-6442752D01*
X11056298Y-6428751D01*
X11056298Y-6428751D01*
X11056298Y-6428751D01*
X11049051Y-6416199D01*
X11049051Y-6416199D01*
X11049051Y-6416198D01*
X11038802Y-6405949D01*
X11038801Y-6405949D01*
X11038801Y-6405949D01*
X11026249Y-6398702D01*
X11026249Y-6398702D01*
X11023290Y-6397909D01*
X11012248Y-6394950D01*
X10997753Y-6394950D01*
X10991579Y-6396604D01*
X10983751Y-6398702D01*
X10971199Y-6405949D01*
X10960949Y-6416199D01*
X10953702Y-6428751D01*
X10949950Y-6442752D01*
X10648050Y-6442752D01*
X10648050Y-6285871D01*
X11959950Y-6285871D01*
X11959950Y-6310129D01*
X11963116Y-6334178D01*
X11963116Y-6334179D01*
X11969394Y-6357609D01*
X11969395Y-6357610D01*
X11978677Y-6380020D01*
X11978677Y-6380021D01*
X11978678Y-6380021D01*
X11990205Y-6399987D01*
X11990807Y-6401029D01*
X12005573Y-6420273D01*
X12005573Y-6420273D01*
X12005573Y-6420274D01*
X12022726Y-6437426D01*
X12022727Y-6437427D01*
X12022727Y-6437427D01*
X12041971Y-6452193D01*
X12041971Y-6452194D01*
X12062979Y-6464322D01*
X12085390Y-6473605D01*
X12108821Y-6479884D01*
X12132871Y-6483050D01*
X12132871Y-6483050D01*
X12157129Y-6483050D01*
X12157129Y-6483050D01*
X12181179Y-6479884D01*
X12204610Y-6473605D01*
X12227021Y-6464322D01*
X12248029Y-6452194D01*
X12267274Y-6437426D01*
X12284426Y-6420274D01*
X12299194Y-6401029D01*
X12311322Y-6380021D01*
X12320605Y-6357610D01*
X12326884Y-6334179D01*
X12330050Y-6310129D01*
X12330050Y-6289338D01*
X12390950Y-6289338D01*
X12390950Y-6306661D01*
X12393660Y-6323770D01*
X12393660Y-6323771D01*
X12399012Y-6340244D01*
X12399012Y-6340244D01*
X12403322Y-6348702D01*
X12406877Y-6355679D01*
X12417059Y-6369693D01*
X12429307Y-6381941D01*
X12443321Y-6392123D01*
X12458755Y-6399987D01*
X12458756Y-6399987D01*
X12458756Y-6399987D01*
X12458756Y-6399988D01*
X12475229Y-6405340D01*
X12475230Y-6405340D01*
X12492339Y-6408050D01*
X12492339Y-6408050D01*
X12509661Y-6408050D01*
X12526770Y-6405340D01*
X12526771Y-6405340D01*
X12543244Y-6399988D01*
X12543244Y-6399987D01*
X12543244Y-6399987D01*
X12558679Y-6392123D01*
X12572693Y-6381941D01*
X12584941Y-6369693D01*
X12595123Y-6355679D01*
X12602987Y-6340244D01*
X12602987Y-6340244D01*
X12602988Y-6340244D01*
X12608340Y-6323771D01*
X12608340Y-6323770D01*
X12611050Y-6306661D01*
X12611050Y-6289338D01*
X12644950Y-6289338D01*
X12644950Y-6306661D01*
X12647660Y-6323770D01*
X12647660Y-6323771D01*
X12653012Y-6340244D01*
X12653012Y-6340244D01*
X12657322Y-6348702D01*
X12660877Y-6355679D01*
X12671059Y-6369693D01*
X12683307Y-6381941D01*
X12697321Y-6392123D01*
X12712755Y-6399987D01*
X12712756Y-6399987D01*
X12712756Y-6399987D01*
X12712756Y-6399988D01*
X12729229Y-6405340D01*
X12729230Y-6405340D01*
X12746339Y-6408050D01*
X12746339Y-6408050D01*
X12763661Y-6408050D01*
X12780770Y-6405340D01*
X12780771Y-6405340D01*
X12797244Y-6399988D01*
X12797244Y-6399987D01*
X12797244Y-6399987D01*
X12812679Y-6392123D01*
X12826693Y-6381941D01*
X12838941Y-6369693D01*
X12849123Y-6355679D01*
X12856987Y-6340244D01*
X12856987Y-6340244D01*
X12856988Y-6340244D01*
X12862340Y-6323771D01*
X12862340Y-6323770D01*
X12865050Y-6306661D01*
X12865050Y-6289338D01*
X12898950Y-6289338D01*
X12898950Y-6306661D01*
X12901660Y-6323770D01*
X12901660Y-6323771D01*
X12907012Y-6340244D01*
X12907012Y-6340244D01*
X12911322Y-6348702D01*
X12914877Y-6355679D01*
X12925059Y-6369693D01*
X12937307Y-6381941D01*
X12951321Y-6392123D01*
X12966755Y-6399987D01*
X12966756Y-6399987D01*
X12966756Y-6399987D01*
X12966756Y-6399988D01*
X12983229Y-6405340D01*
X12983230Y-6405340D01*
X13000339Y-6408050D01*
X13000339Y-6408050D01*
X13017661Y-6408050D01*
X13034770Y-6405340D01*
X13034771Y-6405340D01*
X13051244Y-6399988D01*
X13051244Y-6399987D01*
X13051244Y-6399987D01*
X13066679Y-6392123D01*
X13080693Y-6381941D01*
X13092941Y-6369693D01*
X13103123Y-6355679D01*
X13110987Y-6340244D01*
X13110987Y-6340244D01*
X13110988Y-6340244D01*
X13116340Y-6323771D01*
X13116340Y-6323770D01*
X13119050Y-6306661D01*
X13119050Y-6289338D01*
X13152950Y-6289338D01*
X13152950Y-6306661D01*
X13155660Y-6323770D01*
X13155660Y-6323771D01*
X13161012Y-6340244D01*
X13161012Y-6340244D01*
X13165322Y-6348702D01*
X13168877Y-6355679D01*
X13179059Y-6369693D01*
X13191307Y-6381941D01*
X13205321Y-6392123D01*
X13220755Y-6399987D01*
X13220756Y-6399987D01*
X13220756Y-6399987D01*
X13220756Y-6399988D01*
X13237229Y-6405340D01*
X13237230Y-6405340D01*
X13254339Y-6408050D01*
X13254339Y-6408050D01*
X13271661Y-6408050D01*
X13288770Y-6405340D01*
X13288771Y-6405340D01*
X13305244Y-6399988D01*
X13305244Y-6399987D01*
X13305244Y-6399987D01*
X13320679Y-6392123D01*
X13334693Y-6381941D01*
X13346941Y-6369693D01*
X13357123Y-6355679D01*
X13364987Y-6340244D01*
X13364987Y-6340244D01*
X13364988Y-6340244D01*
X13370340Y-6323771D01*
X13370340Y-6323770D01*
X13373050Y-6306661D01*
X13373050Y-6289338D01*
X13406950Y-6289338D01*
X13406950Y-6306661D01*
X13409660Y-6323770D01*
X13409660Y-6323771D01*
X13415012Y-6340244D01*
X13415012Y-6340244D01*
X13419322Y-6348702D01*
X13422877Y-6355679D01*
X13433059Y-6369693D01*
X13445307Y-6381941D01*
X13459321Y-6392123D01*
X13474755Y-6399987D01*
X13474756Y-6399987D01*
X13474756Y-6399987D01*
X13474756Y-6399988D01*
X13491229Y-6405340D01*
X13491230Y-6405340D01*
X13508339Y-6408050D01*
X13508339Y-6408050D01*
X13525661Y-6408050D01*
X13542770Y-6405340D01*
X13542771Y-6405340D01*
X13559244Y-6399988D01*
X13559244Y-6399987D01*
X13559244Y-6399987D01*
X13574679Y-6392123D01*
X13588693Y-6381941D01*
X13600941Y-6369693D01*
X13611123Y-6355679D01*
X13618987Y-6340244D01*
X13618987Y-6340244D01*
X13618988Y-6340244D01*
X13624340Y-6323771D01*
X13624340Y-6323770D01*
X13627050Y-6306661D01*
X13627050Y-6289338D01*
X13660950Y-6289338D01*
X13660950Y-6306661D01*
X13663660Y-6323770D01*
X13663660Y-6323771D01*
X13669012Y-6340244D01*
X13669012Y-6340244D01*
X13673322Y-6348702D01*
X13676877Y-6355679D01*
X13687059Y-6369693D01*
X13699307Y-6381941D01*
X13713321Y-6392123D01*
X13728755Y-6399987D01*
X13728756Y-6399987D01*
X13728756Y-6399987D01*
X13728756Y-6399988D01*
X13745229Y-6405340D01*
X13745230Y-6405340D01*
X13762339Y-6408050D01*
X13762339Y-6408050D01*
X13779661Y-6408050D01*
X13796770Y-6405340D01*
X13796771Y-6405340D01*
X13813244Y-6399988D01*
X13813244Y-6399987D01*
X13813244Y-6399987D01*
X13828679Y-6392123D01*
X13842693Y-6381941D01*
X13854941Y-6369693D01*
X13865123Y-6355679D01*
X13872987Y-6340244D01*
X13872987Y-6340244D01*
X13872988Y-6340244D01*
X13878340Y-6323771D01*
X13878340Y-6323770D01*
X13881050Y-6306661D01*
X13881050Y-6289338D01*
X13914950Y-6289338D01*
X13914950Y-6306661D01*
X13917660Y-6323770D01*
X13917660Y-6323771D01*
X13923012Y-6340244D01*
X13923012Y-6340244D01*
X13927322Y-6348702D01*
X13930877Y-6355679D01*
X13941059Y-6369693D01*
X13953307Y-6381941D01*
X13967321Y-6392123D01*
X13982755Y-6399987D01*
X13982756Y-6399987D01*
X13982756Y-6399987D01*
X13982756Y-6399988D01*
X13999229Y-6405340D01*
X13999230Y-6405340D01*
X14016339Y-6408050D01*
X14016339Y-6408050D01*
X14033661Y-6408050D01*
X14050770Y-6405340D01*
X14050771Y-6405340D01*
X14067244Y-6399988D01*
X14067244Y-6399987D01*
X14067244Y-6399987D01*
X14082679Y-6392123D01*
X14096693Y-6381941D01*
X14108941Y-6369693D01*
X14119123Y-6355679D01*
X14126987Y-6340244D01*
X14126987Y-6340244D01*
X14126988Y-6340244D01*
X14132340Y-6323771D01*
X14132340Y-6323770D01*
X14135050Y-6306661D01*
X14135050Y-6289338D01*
X14168950Y-6289338D01*
X14168950Y-6306661D01*
X14171660Y-6323770D01*
X14171660Y-6323771D01*
X14177012Y-6340244D01*
X14177012Y-6340244D01*
X14181322Y-6348702D01*
X14184877Y-6355679D01*
X14195059Y-6369693D01*
X14207307Y-6381941D01*
X14221321Y-6392123D01*
X14236755Y-6399987D01*
X14236756Y-6399987D01*
X14236756Y-6399987D01*
X14236756Y-6399988D01*
X14253229Y-6405340D01*
X14253230Y-6405340D01*
X14270339Y-6408050D01*
X14270339Y-6408050D01*
X14287661Y-6408050D01*
X14304770Y-6405340D01*
X14304771Y-6405340D01*
X14321244Y-6399988D01*
X14321244Y-6399987D01*
X14321244Y-6399987D01*
X14336679Y-6392123D01*
X14350693Y-6381941D01*
X14362941Y-6369693D01*
X14373123Y-6355679D01*
X14380987Y-6340244D01*
X14380987Y-6340244D01*
X14380988Y-6340244D01*
X14386340Y-6323771D01*
X14386340Y-6323770D01*
X14389050Y-6306661D01*
X14389050Y-6289338D01*
X14422950Y-6289338D01*
X14422950Y-6306661D01*
X14425660Y-6323770D01*
X14425660Y-6323771D01*
X14431012Y-6340244D01*
X14431012Y-6340244D01*
X14435322Y-6348702D01*
X14438877Y-6355679D01*
X14449059Y-6369693D01*
X14461307Y-6381941D01*
X14475321Y-6392123D01*
X14490755Y-6399987D01*
X14490756Y-6399987D01*
X14490756Y-6399987D01*
X14490756Y-6399988D01*
X14507229Y-6405340D01*
X14507230Y-6405340D01*
X14524339Y-6408050D01*
X14524339Y-6408050D01*
X14541661Y-6408050D01*
X14558770Y-6405340D01*
X14558771Y-6405340D01*
X14575244Y-6399988D01*
X14575244Y-6399987D01*
X14575244Y-6399987D01*
X14590679Y-6392123D01*
X14604693Y-6381941D01*
X14616941Y-6369693D01*
X14627123Y-6355679D01*
X14634987Y-6340244D01*
X14634987Y-6340244D01*
X14634988Y-6340244D01*
X14640340Y-6323771D01*
X14640340Y-6323770D01*
X14643050Y-6306661D01*
X14643050Y-6289338D01*
X14676950Y-6289338D01*
X14676950Y-6306661D01*
X14679660Y-6323770D01*
X14679660Y-6323771D01*
X14685012Y-6340244D01*
X14685012Y-6340244D01*
X14689322Y-6348702D01*
X14692877Y-6355679D01*
X14703059Y-6369693D01*
X14715307Y-6381941D01*
X14729321Y-6392123D01*
X14744755Y-6399987D01*
X14744756Y-6399987D01*
X14744756Y-6399987D01*
X14744756Y-6399988D01*
X14761229Y-6405340D01*
X14761230Y-6405340D01*
X14778339Y-6408050D01*
X14778339Y-6408050D01*
X14795661Y-6408050D01*
X14812770Y-6405340D01*
X14812771Y-6405340D01*
X14829244Y-6399988D01*
X14829244Y-6399987D01*
X14829244Y-6399987D01*
X14843444Y-6392752D01*
X14944950Y-6392752D01*
X14944950Y-6407247D01*
X14947909Y-6418290D01*
X14948702Y-6421249D01*
X14955949Y-6433801D01*
X14955949Y-6433801D01*
X14955949Y-6433801D01*
X14966198Y-6444051D01*
X14966199Y-6444051D01*
X14966199Y-6444051D01*
X14978751Y-6451298D01*
X14978751Y-6451298D01*
X14978751Y-6451298D01*
X14992752Y-6455050D01*
X14992753Y-6455050D01*
X15007247Y-6455050D01*
X15007247Y-6455050D01*
X15021248Y-6451298D01*
X15021249Y-6451298D01*
X15021249Y-6451298D01*
X15033801Y-6444051D01*
X15033801Y-6444051D01*
X15033801Y-6444051D01*
X15044051Y-6433801D01*
X15051298Y-6421248D01*
X15055050Y-6407247D01*
X15055050Y-6392752D01*
X15051298Y-6378751D01*
X15051298Y-6378751D01*
X15051298Y-6378751D01*
X15044051Y-6366199D01*
X15044051Y-6366199D01*
X15044051Y-6366198D01*
X15033801Y-6355949D01*
X15033801Y-6355949D01*
X15033801Y-6355949D01*
X15021249Y-6348702D01*
X15021249Y-6348702D01*
X15018290Y-6347909D01*
X15007247Y-6344950D01*
X14992752Y-6344950D01*
X14986579Y-6346604D01*
X14978751Y-6348702D01*
X14966199Y-6355949D01*
X14955949Y-6366199D01*
X14948702Y-6378751D01*
X14947270Y-6384094D01*
X14944950Y-6392752D01*
X14843444Y-6392752D01*
X14844679Y-6392123D01*
X14858693Y-6381941D01*
X14870941Y-6369693D01*
X14881123Y-6355679D01*
X14888987Y-6340244D01*
X14888987Y-6340244D01*
X14888988Y-6340244D01*
X14894340Y-6323771D01*
X14894340Y-6323770D01*
X14897050Y-6306661D01*
X14897050Y-6289338D01*
X15082950Y-6289338D01*
X15082950Y-6306661D01*
X15085660Y-6323770D01*
X15085660Y-6323771D01*
X15091012Y-6340244D01*
X15091012Y-6340244D01*
X15095322Y-6348702D01*
X15098877Y-6355679D01*
X15109059Y-6369693D01*
X15121307Y-6381941D01*
X15135321Y-6392123D01*
X15150755Y-6399987D01*
X15150756Y-6399987D01*
X15150756Y-6399987D01*
X15150756Y-6399988D01*
X15167229Y-6405340D01*
X15167230Y-6405340D01*
X15184339Y-6408050D01*
X15184339Y-6408050D01*
X15201661Y-6408050D01*
X15218770Y-6405340D01*
X15218771Y-6405340D01*
X15235244Y-6399988D01*
X15235244Y-6399987D01*
X15235244Y-6399987D01*
X15250679Y-6392123D01*
X15264693Y-6381941D01*
X15276941Y-6369693D01*
X15287123Y-6355679D01*
X15294987Y-6340244D01*
X15294987Y-6340244D01*
X15294988Y-6340244D01*
X15300340Y-6323771D01*
X15300340Y-6323770D01*
X15303050Y-6306661D01*
X15303050Y-6289338D01*
X15336950Y-6289338D01*
X15336950Y-6306661D01*
X15339660Y-6323770D01*
X15339660Y-6323771D01*
X15345012Y-6340244D01*
X15345012Y-6340244D01*
X15349322Y-6348702D01*
X15352877Y-6355679D01*
X15363059Y-6369693D01*
X15375307Y-6381941D01*
X15389321Y-6392123D01*
X15404755Y-6399987D01*
X15404756Y-6399987D01*
X15404756Y-6399987D01*
X15404756Y-6399988D01*
X15421229Y-6405340D01*
X15421230Y-6405340D01*
X15438339Y-6408050D01*
X15438339Y-6408050D01*
X15455661Y-6408050D01*
X15472770Y-6405340D01*
X15472771Y-6405340D01*
X15489244Y-6399988D01*
X15489244Y-6399987D01*
X15489244Y-6399987D01*
X15504679Y-6392123D01*
X15518693Y-6381941D01*
X15530941Y-6369693D01*
X15541123Y-6355679D01*
X15548987Y-6340244D01*
X15548987Y-6340244D01*
X15548988Y-6340244D01*
X15554340Y-6323771D01*
X15554340Y-6323770D01*
X15557050Y-6306661D01*
X15557050Y-6289338D01*
X15590950Y-6289338D01*
X15590950Y-6306661D01*
X15593660Y-6323770D01*
X15593660Y-6323771D01*
X15599012Y-6340244D01*
X15599012Y-6340244D01*
X15603322Y-6348702D01*
X15606877Y-6355679D01*
X15617059Y-6369693D01*
X15629307Y-6381941D01*
X15643321Y-6392123D01*
X15658755Y-6399987D01*
X15658756Y-6399987D01*
X15658756Y-6399987D01*
X15658756Y-6399988D01*
X15675229Y-6405340D01*
X15675230Y-6405340D01*
X15692339Y-6408050D01*
X15692339Y-6408050D01*
X15709661Y-6408050D01*
X15726770Y-6405340D01*
X15726771Y-6405340D01*
X15743244Y-6399988D01*
X15743244Y-6399987D01*
X15743244Y-6399987D01*
X15758679Y-6392123D01*
X15772693Y-6381941D01*
X15784941Y-6369693D01*
X15795123Y-6355679D01*
X15802987Y-6340244D01*
X15802987Y-6340244D01*
X15802988Y-6340244D01*
X15808340Y-6323771D01*
X15808340Y-6323770D01*
X15811050Y-6306661D01*
X15811050Y-6289338D01*
X15844950Y-6289338D01*
X15844950Y-6306661D01*
X15847660Y-6323770D01*
X15847660Y-6323771D01*
X15853012Y-6340244D01*
X15853012Y-6340244D01*
X15857322Y-6348702D01*
X15860877Y-6355679D01*
X15871059Y-6369693D01*
X15883307Y-6381941D01*
X15897321Y-6392123D01*
X15912755Y-6399987D01*
X15912756Y-6399987D01*
X15912756Y-6399987D01*
X15912756Y-6399988D01*
X15929229Y-6405340D01*
X15929230Y-6405340D01*
X15946339Y-6408050D01*
X15946339Y-6408050D01*
X15963661Y-6408050D01*
X15980770Y-6405340D01*
X15980771Y-6405340D01*
X15997244Y-6399988D01*
X15997244Y-6399987D01*
X15997244Y-6399987D01*
X16012679Y-6392123D01*
X16026693Y-6381941D01*
X16038941Y-6369693D01*
X16049123Y-6355679D01*
X16056987Y-6340244D01*
X16056987Y-6340244D01*
X16056988Y-6340244D01*
X16062340Y-6323771D01*
X16062340Y-6323770D01*
X16065050Y-6306661D01*
X16065050Y-6289338D01*
X16098950Y-6289338D01*
X16098950Y-6306661D01*
X16101660Y-6323770D01*
X16101660Y-6323771D01*
X16107012Y-6340244D01*
X16107012Y-6340244D01*
X16111322Y-6348702D01*
X16114877Y-6355679D01*
X16125059Y-6369693D01*
X16137307Y-6381941D01*
X16151321Y-6392123D01*
X16166755Y-6399987D01*
X16166756Y-6399987D01*
X16166756Y-6399987D01*
X16166756Y-6399988D01*
X16183229Y-6405340D01*
X16183230Y-6405340D01*
X16200339Y-6408050D01*
X16200339Y-6408050D01*
X16217661Y-6408050D01*
X16234770Y-6405340D01*
X16234771Y-6405340D01*
X16251244Y-6399988D01*
X16251244Y-6399987D01*
X16251244Y-6399987D01*
X16266679Y-6392123D01*
X16280693Y-6381941D01*
X16292941Y-6369693D01*
X16303123Y-6355679D01*
X16310987Y-6340244D01*
X16310987Y-6340244D01*
X16310988Y-6340244D01*
X16316340Y-6323771D01*
X16316340Y-6323770D01*
X16319050Y-6306661D01*
X16319050Y-6289338D01*
X16352950Y-6289338D01*
X16352950Y-6306661D01*
X16355660Y-6323770D01*
X16355660Y-6323771D01*
X16361012Y-6340244D01*
X16361012Y-6340244D01*
X16365322Y-6348702D01*
X16368877Y-6355679D01*
X16379059Y-6369693D01*
X16391307Y-6381941D01*
X16405321Y-6392123D01*
X16420755Y-6399987D01*
X16420756Y-6399987D01*
X16420756Y-6399987D01*
X16420756Y-6399988D01*
X16437229Y-6405340D01*
X16437230Y-6405340D01*
X16454339Y-6408050D01*
X16454339Y-6408050D01*
X16471661Y-6408050D01*
X16488770Y-6405340D01*
X16488771Y-6405340D01*
X16505244Y-6399988D01*
X16505244Y-6399987D01*
X16505244Y-6399987D01*
X16520679Y-6392123D01*
X16534693Y-6381941D01*
X16546941Y-6369693D01*
X16557123Y-6355679D01*
X16564987Y-6340244D01*
X16564987Y-6340244D01*
X16564988Y-6340244D01*
X16570340Y-6323771D01*
X16570340Y-6323770D01*
X16573050Y-6306661D01*
X16573050Y-6289338D01*
X16606950Y-6289338D01*
X16606950Y-6306661D01*
X16609660Y-6323770D01*
X16609660Y-6323771D01*
X16615012Y-6340244D01*
X16615012Y-6340244D01*
X16619322Y-6348702D01*
X16622877Y-6355679D01*
X16633059Y-6369693D01*
X16645307Y-6381941D01*
X16659321Y-6392123D01*
X16674755Y-6399987D01*
X16674756Y-6399987D01*
X16674756Y-6399987D01*
X16674756Y-6399988D01*
X16691229Y-6405340D01*
X16691230Y-6405340D01*
X16708339Y-6408050D01*
X16708339Y-6408050D01*
X16725661Y-6408050D01*
X16742770Y-6405340D01*
X16742771Y-6405340D01*
X16759244Y-6399988D01*
X16759244Y-6399987D01*
X16759244Y-6399987D01*
X16774679Y-6392123D01*
X16788693Y-6381941D01*
X16800941Y-6369693D01*
X16811123Y-6355679D01*
X16818987Y-6340244D01*
X16818987Y-6340244D01*
X16818988Y-6340244D01*
X16824340Y-6323771D01*
X16824340Y-6323770D01*
X16827050Y-6306661D01*
X16827050Y-6289338D01*
X16860950Y-6289338D01*
X16860950Y-6306661D01*
X16863660Y-6323770D01*
X16863660Y-6323771D01*
X16869012Y-6340244D01*
X16869013Y-6340244D01*
X16873322Y-6348702D01*
X16876877Y-6355679D01*
X16887059Y-6369693D01*
X16899307Y-6381941D01*
X16913321Y-6392123D01*
X16928756Y-6399987D01*
X16928756Y-6399987D01*
X16928756Y-6399987D01*
X16928756Y-6399988D01*
X16945229Y-6405340D01*
X16945230Y-6405340D01*
X16962339Y-6408050D01*
X16962339Y-6408050D01*
X16979661Y-6408050D01*
X16996770Y-6405340D01*
X16996771Y-6405340D01*
X17013244Y-6399988D01*
X17013244Y-6399987D01*
X17013245Y-6399987D01*
X17028679Y-6392123D01*
X17042693Y-6381941D01*
X17054941Y-6369693D01*
X17065123Y-6355679D01*
X17072987Y-6340244D01*
X17072987Y-6340244D01*
X17072988Y-6340244D01*
X17078340Y-6323771D01*
X17078340Y-6323770D01*
X17081050Y-6306661D01*
X17081050Y-6289338D01*
X17078340Y-6272230D01*
X17078340Y-6272229D01*
X17072988Y-6255756D01*
X17072987Y-6255756D01*
X17072987Y-6255756D01*
X17072987Y-6255755D01*
X17065123Y-6240321D01*
X17054941Y-6226307D01*
X17042693Y-6214059D01*
X17028679Y-6203877D01*
X17028679Y-6203877D01*
X17028679Y-6203877D01*
X17013244Y-6196012D01*
X17013244Y-6196012D01*
X16996771Y-6190660D01*
X16996770Y-6190660D01*
X16979661Y-6187950D01*
X16979661Y-6187950D01*
X16962339Y-6187950D01*
X16962339Y-6187950D01*
X16945230Y-6190660D01*
X16945229Y-6190660D01*
X16928756Y-6196012D01*
X16928756Y-6196012D01*
X16913321Y-6203877D01*
X16899307Y-6214058D01*
X16887059Y-6226307D01*
X16876877Y-6240321D01*
X16869013Y-6255756D01*
X16869012Y-6255756D01*
X16863660Y-6272229D01*
X16863660Y-6272230D01*
X16860950Y-6289338D01*
X16827050Y-6289338D01*
X16824340Y-6272230D01*
X16824340Y-6272229D01*
X16818988Y-6255756D01*
X16818987Y-6255756D01*
X16818987Y-6255756D01*
X16818987Y-6255755D01*
X16811123Y-6240321D01*
X16800941Y-6226307D01*
X16788693Y-6214059D01*
X16774679Y-6203877D01*
X16774679Y-6203877D01*
X16774678Y-6203877D01*
X16759244Y-6196012D01*
X16759244Y-6196012D01*
X16742771Y-6190660D01*
X16742770Y-6190660D01*
X16725661Y-6187950D01*
X16725661Y-6187950D01*
X16708339Y-6187950D01*
X16708339Y-6187950D01*
X16691230Y-6190660D01*
X16691229Y-6190660D01*
X16674756Y-6196012D01*
X16674756Y-6196012D01*
X16659321Y-6203877D01*
X16645307Y-6214058D01*
X16633058Y-6226307D01*
X16622877Y-6240321D01*
X16615012Y-6255756D01*
X16615012Y-6255756D01*
X16609660Y-6272229D01*
X16609660Y-6272230D01*
X16606950Y-6289338D01*
X16573050Y-6289338D01*
X16570340Y-6272230D01*
X16570340Y-6272229D01*
X16564988Y-6255756D01*
X16564987Y-6255756D01*
X16564987Y-6255756D01*
X16564987Y-6255755D01*
X16557123Y-6240321D01*
X16546941Y-6226307D01*
X16534693Y-6214059D01*
X16520679Y-6203877D01*
X16520679Y-6203877D01*
X16520678Y-6203877D01*
X16505244Y-6196012D01*
X16505244Y-6196012D01*
X16488771Y-6190660D01*
X16488770Y-6190660D01*
X16471661Y-6187950D01*
X16471661Y-6187950D01*
X16454339Y-6187950D01*
X16454339Y-6187950D01*
X16437230Y-6190660D01*
X16437229Y-6190660D01*
X16420756Y-6196012D01*
X16420756Y-6196012D01*
X16405321Y-6203877D01*
X16391307Y-6214058D01*
X16379058Y-6226307D01*
X16368877Y-6240321D01*
X16361012Y-6255756D01*
X16361012Y-6255756D01*
X16355660Y-6272229D01*
X16355660Y-6272230D01*
X16352950Y-6289338D01*
X16319050Y-6289338D01*
X16316340Y-6272230D01*
X16316340Y-6272229D01*
X16310988Y-6255756D01*
X16310987Y-6255756D01*
X16310987Y-6255756D01*
X16310987Y-6255755D01*
X16303123Y-6240321D01*
X16292941Y-6226307D01*
X16280693Y-6214059D01*
X16266679Y-6203877D01*
X16266679Y-6203877D01*
X16266678Y-6203877D01*
X16251244Y-6196012D01*
X16251244Y-6196012D01*
X16234771Y-6190660D01*
X16234770Y-6190660D01*
X16217661Y-6187950D01*
X16217661Y-6187950D01*
X16200339Y-6187950D01*
X16200339Y-6187950D01*
X16183230Y-6190660D01*
X16183229Y-6190660D01*
X16166756Y-6196012D01*
X16166756Y-6196012D01*
X16151321Y-6203877D01*
X16137307Y-6214058D01*
X16125058Y-6226307D01*
X16114877Y-6240321D01*
X16107012Y-6255756D01*
X16107012Y-6255756D01*
X16101660Y-6272229D01*
X16101660Y-6272230D01*
X16098950Y-6289338D01*
X16065050Y-6289338D01*
X16062340Y-6272230D01*
X16062340Y-6272229D01*
X16056988Y-6255756D01*
X16056987Y-6255756D01*
X16056987Y-6255756D01*
X16056987Y-6255755D01*
X16049123Y-6240321D01*
X16038941Y-6226307D01*
X16026693Y-6214059D01*
X16012679Y-6203877D01*
X16012679Y-6203877D01*
X16012678Y-6203877D01*
X15997244Y-6196012D01*
X15997244Y-6196012D01*
X15980771Y-6190660D01*
X15980770Y-6190660D01*
X15963661Y-6187950D01*
X15963661Y-6187950D01*
X15946339Y-6187950D01*
X15946339Y-6187950D01*
X15929230Y-6190660D01*
X15929229Y-6190660D01*
X15912756Y-6196012D01*
X15912756Y-6196012D01*
X15897321Y-6203877D01*
X15883307Y-6214058D01*
X15871058Y-6226307D01*
X15860877Y-6240321D01*
X15853012Y-6255756D01*
X15853012Y-6255756D01*
X15847660Y-6272229D01*
X15847660Y-6272230D01*
X15844950Y-6289338D01*
X15811050Y-6289338D01*
X15808340Y-6272230D01*
X15808340Y-6272229D01*
X15802988Y-6255756D01*
X15802987Y-6255756D01*
X15802987Y-6255756D01*
X15802987Y-6255755D01*
X15795123Y-6240321D01*
X15784941Y-6226307D01*
X15772693Y-6214059D01*
X15758679Y-6203877D01*
X15758679Y-6203877D01*
X15758678Y-6203877D01*
X15743244Y-6196012D01*
X15743244Y-6196012D01*
X15726771Y-6190660D01*
X15726770Y-6190660D01*
X15709661Y-6187950D01*
X15709661Y-6187950D01*
X15692339Y-6187950D01*
X15692339Y-6187950D01*
X15675230Y-6190660D01*
X15675229Y-6190660D01*
X15658756Y-6196012D01*
X15658756Y-6196012D01*
X15643321Y-6203877D01*
X15629307Y-6214058D01*
X15617058Y-6226307D01*
X15606877Y-6240321D01*
X15599012Y-6255756D01*
X15599012Y-6255756D01*
X15593660Y-6272229D01*
X15593660Y-6272230D01*
X15590950Y-6289338D01*
X15557050Y-6289338D01*
X15554340Y-6272230D01*
X15554340Y-6272229D01*
X15548988Y-6255756D01*
X15548987Y-6255756D01*
X15548987Y-6255756D01*
X15548987Y-6255755D01*
X15541123Y-6240321D01*
X15530941Y-6226307D01*
X15518693Y-6214059D01*
X15504679Y-6203877D01*
X15504679Y-6203877D01*
X15504678Y-6203877D01*
X15489244Y-6196012D01*
X15489244Y-6196012D01*
X15472771Y-6190660D01*
X15472770Y-6190660D01*
X15455661Y-6187950D01*
X15455661Y-6187950D01*
X15438339Y-6187950D01*
X15438339Y-6187950D01*
X15421230Y-6190660D01*
X15421229Y-6190660D01*
X15404756Y-6196012D01*
X15404756Y-6196012D01*
X15389321Y-6203877D01*
X15375307Y-6214058D01*
X15363058Y-6226307D01*
X15352877Y-6240321D01*
X15345012Y-6255756D01*
X15345012Y-6255756D01*
X15339660Y-6272229D01*
X15339660Y-6272230D01*
X15336950Y-6289338D01*
X15303050Y-6289338D01*
X15300340Y-6272230D01*
X15300340Y-6272229D01*
X15294988Y-6255756D01*
X15294987Y-6255756D01*
X15294987Y-6255756D01*
X15294987Y-6255755D01*
X15287123Y-6240321D01*
X15276941Y-6226307D01*
X15264693Y-6214059D01*
X15250679Y-6203877D01*
X15250679Y-6203877D01*
X15250678Y-6203877D01*
X15235244Y-6196012D01*
X15235244Y-6196012D01*
X15218771Y-6190660D01*
X15218770Y-6190660D01*
X15201661Y-6187950D01*
X15201661Y-6187950D01*
X15184339Y-6187950D01*
X15184339Y-6187950D01*
X15167230Y-6190660D01*
X15167229Y-6190660D01*
X15150756Y-6196012D01*
X15150756Y-6196012D01*
X15135321Y-6203877D01*
X15121307Y-6214058D01*
X15109058Y-6226307D01*
X15098877Y-6240321D01*
X15091012Y-6255756D01*
X15091012Y-6255756D01*
X15085660Y-6272229D01*
X15085660Y-6272230D01*
X15082950Y-6289338D01*
X14897050Y-6289338D01*
X14894340Y-6272230D01*
X14894340Y-6272229D01*
X14888988Y-6255756D01*
X14888987Y-6255756D01*
X14888987Y-6255756D01*
X14888987Y-6255755D01*
X14881123Y-6240321D01*
X14870941Y-6226307D01*
X14858693Y-6214059D01*
X14844679Y-6203877D01*
X14844679Y-6203877D01*
X14844678Y-6203877D01*
X14829244Y-6196012D01*
X14829244Y-6196012D01*
X14812771Y-6190660D01*
X14812770Y-6190660D01*
X14795661Y-6187950D01*
X14795661Y-6187950D01*
X14778339Y-6187950D01*
X14778339Y-6187950D01*
X14761230Y-6190660D01*
X14761229Y-6190660D01*
X14744756Y-6196012D01*
X14744756Y-6196012D01*
X14729321Y-6203877D01*
X14715307Y-6214058D01*
X14703058Y-6226307D01*
X14692877Y-6240321D01*
X14685012Y-6255756D01*
X14685012Y-6255756D01*
X14679660Y-6272229D01*
X14679660Y-6272230D01*
X14676950Y-6289338D01*
X14643050Y-6289338D01*
X14640340Y-6272230D01*
X14640340Y-6272229D01*
X14634988Y-6255756D01*
X14634987Y-6255756D01*
X14634987Y-6255756D01*
X14634987Y-6255755D01*
X14627123Y-6240321D01*
X14616941Y-6226307D01*
X14604693Y-6214059D01*
X14590679Y-6203877D01*
X14590679Y-6203877D01*
X14590678Y-6203877D01*
X14575244Y-6196012D01*
X14575244Y-6196012D01*
X14558771Y-6190660D01*
X14558770Y-6190660D01*
X14541661Y-6187950D01*
X14541661Y-6187950D01*
X14524339Y-6187950D01*
X14524339Y-6187950D01*
X14507230Y-6190660D01*
X14507229Y-6190660D01*
X14490756Y-6196012D01*
X14490756Y-6196012D01*
X14475321Y-6203877D01*
X14461307Y-6214058D01*
X14449058Y-6226307D01*
X14438877Y-6240321D01*
X14431012Y-6255756D01*
X14431012Y-6255756D01*
X14425660Y-6272229D01*
X14425660Y-6272230D01*
X14422950Y-6289338D01*
X14389050Y-6289338D01*
X14386340Y-6272230D01*
X14386340Y-6272229D01*
X14380988Y-6255756D01*
X14380987Y-6255756D01*
X14380987Y-6255756D01*
X14380987Y-6255755D01*
X14373123Y-6240321D01*
X14362941Y-6226307D01*
X14350693Y-6214059D01*
X14336679Y-6203877D01*
X14336679Y-6203877D01*
X14336678Y-6203877D01*
X14321244Y-6196012D01*
X14321244Y-6196012D01*
X14304771Y-6190660D01*
X14304770Y-6190660D01*
X14287661Y-6187950D01*
X14287661Y-6187950D01*
X14270339Y-6187950D01*
X14270339Y-6187950D01*
X14253230Y-6190660D01*
X14253229Y-6190660D01*
X14236756Y-6196012D01*
X14236756Y-6196012D01*
X14221321Y-6203877D01*
X14207307Y-6214058D01*
X14195058Y-6226307D01*
X14184877Y-6240321D01*
X14177012Y-6255756D01*
X14177012Y-6255756D01*
X14171660Y-6272229D01*
X14171660Y-6272230D01*
X14168950Y-6289338D01*
X14135050Y-6289338D01*
X14132340Y-6272230D01*
X14132340Y-6272229D01*
X14126988Y-6255756D01*
X14126987Y-6255756D01*
X14126987Y-6255756D01*
X14126987Y-6255755D01*
X14119123Y-6240321D01*
X14108941Y-6226307D01*
X14096693Y-6214059D01*
X14082679Y-6203877D01*
X14082679Y-6203877D01*
X14082678Y-6203877D01*
X14067244Y-6196012D01*
X14067244Y-6196012D01*
X14050771Y-6190660D01*
X14050770Y-6190660D01*
X14033661Y-6187950D01*
X14033661Y-6187950D01*
X14016339Y-6187950D01*
X14016339Y-6187950D01*
X13999230Y-6190660D01*
X13999229Y-6190660D01*
X13982756Y-6196012D01*
X13982756Y-6196012D01*
X13967321Y-6203877D01*
X13953307Y-6214058D01*
X13941058Y-6226307D01*
X13930877Y-6240321D01*
X13923012Y-6255756D01*
X13923012Y-6255756D01*
X13917660Y-6272229D01*
X13917660Y-6272230D01*
X13914950Y-6289338D01*
X13881050Y-6289338D01*
X13878340Y-6272230D01*
X13878340Y-6272229D01*
X13872988Y-6255756D01*
X13872987Y-6255756D01*
X13872987Y-6255756D01*
X13872987Y-6255755D01*
X13865123Y-6240321D01*
X13854941Y-6226307D01*
X13842693Y-6214059D01*
X13828679Y-6203877D01*
X13828679Y-6203877D01*
X13828678Y-6203877D01*
X13813244Y-6196012D01*
X13813244Y-6196012D01*
X13796771Y-6190660D01*
X13796770Y-6190660D01*
X13779661Y-6187950D01*
X13779661Y-6187950D01*
X13762339Y-6187950D01*
X13762339Y-6187950D01*
X13745230Y-6190660D01*
X13745229Y-6190660D01*
X13728756Y-6196012D01*
X13728756Y-6196012D01*
X13713321Y-6203877D01*
X13699307Y-6214058D01*
X13687058Y-6226307D01*
X13676877Y-6240321D01*
X13669012Y-6255756D01*
X13669012Y-6255756D01*
X13663660Y-6272229D01*
X13663660Y-6272230D01*
X13660950Y-6289338D01*
X13627050Y-6289338D01*
X13624340Y-6272230D01*
X13624340Y-6272229D01*
X13618988Y-6255756D01*
X13618987Y-6255756D01*
X13618987Y-6255756D01*
X13618987Y-6255755D01*
X13611123Y-6240321D01*
X13600941Y-6226307D01*
X13588693Y-6214059D01*
X13574679Y-6203877D01*
X13574679Y-6203877D01*
X13574678Y-6203877D01*
X13559244Y-6196012D01*
X13559244Y-6196012D01*
X13542771Y-6190660D01*
X13542770Y-6190660D01*
X13525661Y-6187950D01*
X13525661Y-6187950D01*
X13508339Y-6187950D01*
X13508339Y-6187950D01*
X13491230Y-6190660D01*
X13491229Y-6190660D01*
X13474756Y-6196012D01*
X13474756Y-6196012D01*
X13459321Y-6203877D01*
X13445307Y-6214058D01*
X13433058Y-6226307D01*
X13422877Y-6240321D01*
X13415012Y-6255756D01*
X13415012Y-6255756D01*
X13409660Y-6272229D01*
X13409660Y-6272230D01*
X13406950Y-6289338D01*
X13373050Y-6289338D01*
X13370340Y-6272230D01*
X13370340Y-6272229D01*
X13364988Y-6255756D01*
X13364987Y-6255756D01*
X13364987Y-6255756D01*
X13364987Y-6255755D01*
X13357123Y-6240321D01*
X13346941Y-6226307D01*
X13334693Y-6214059D01*
X13320679Y-6203877D01*
X13320679Y-6203877D01*
X13320678Y-6203877D01*
X13305244Y-6196012D01*
X13305244Y-6196012D01*
X13288771Y-6190660D01*
X13288770Y-6190660D01*
X13271661Y-6187950D01*
X13271661Y-6187950D01*
X13254339Y-6187950D01*
X13254339Y-6187950D01*
X13237230Y-6190660D01*
X13237229Y-6190660D01*
X13220756Y-6196012D01*
X13220756Y-6196012D01*
X13205321Y-6203877D01*
X13191307Y-6214058D01*
X13179058Y-6226307D01*
X13168877Y-6240321D01*
X13161012Y-6255756D01*
X13161012Y-6255756D01*
X13155660Y-6272229D01*
X13155660Y-6272230D01*
X13152950Y-6289338D01*
X13119050Y-6289338D01*
X13116340Y-6272230D01*
X13116340Y-6272229D01*
X13110988Y-6255756D01*
X13110987Y-6255756D01*
X13110987Y-6255756D01*
X13110987Y-6255755D01*
X13103123Y-6240321D01*
X13092941Y-6226307D01*
X13080693Y-6214059D01*
X13066679Y-6203877D01*
X13066679Y-6203877D01*
X13066678Y-6203877D01*
X13051244Y-6196012D01*
X13051244Y-6196012D01*
X13034771Y-6190660D01*
X13034770Y-6190660D01*
X13017661Y-6187950D01*
X13017661Y-6187950D01*
X13000339Y-6187950D01*
X13000339Y-6187950D01*
X12983230Y-6190660D01*
X12983229Y-6190660D01*
X12966756Y-6196012D01*
X12966756Y-6196012D01*
X12951321Y-6203877D01*
X12937307Y-6214058D01*
X12925058Y-6226307D01*
X12914877Y-6240321D01*
X12907012Y-6255756D01*
X12907012Y-6255756D01*
X12901660Y-6272229D01*
X12901660Y-6272230D01*
X12898950Y-6289338D01*
X12865050Y-6289338D01*
X12862340Y-6272230D01*
X12862340Y-6272229D01*
X12856988Y-6255756D01*
X12856987Y-6255756D01*
X12856987Y-6255756D01*
X12856987Y-6255755D01*
X12849123Y-6240321D01*
X12838941Y-6226307D01*
X12826693Y-6214059D01*
X12812679Y-6203877D01*
X12812679Y-6203877D01*
X12812678Y-6203877D01*
X12797244Y-6196012D01*
X12797244Y-6196012D01*
X12780771Y-6190660D01*
X12780770Y-6190660D01*
X12763661Y-6187950D01*
X12763661Y-6187950D01*
X12746339Y-6187950D01*
X12746339Y-6187950D01*
X12729230Y-6190660D01*
X12729229Y-6190660D01*
X12712756Y-6196012D01*
X12712756Y-6196012D01*
X12697321Y-6203877D01*
X12683307Y-6214058D01*
X12671058Y-6226307D01*
X12660877Y-6240321D01*
X12653012Y-6255756D01*
X12653012Y-6255756D01*
X12647660Y-6272229D01*
X12647660Y-6272230D01*
X12644950Y-6289338D01*
X12611050Y-6289338D01*
X12608340Y-6272230D01*
X12608340Y-6272229D01*
X12602988Y-6255756D01*
X12602987Y-6255756D01*
X12602987Y-6255756D01*
X12602987Y-6255755D01*
X12595123Y-6240321D01*
X12584941Y-6226307D01*
X12572693Y-6214059D01*
X12558679Y-6203877D01*
X12558679Y-6203877D01*
X12558678Y-6203877D01*
X12543244Y-6196012D01*
X12543244Y-6196012D01*
X12526771Y-6190660D01*
X12526770Y-6190660D01*
X12509661Y-6187950D01*
X12509661Y-6187950D01*
X12492339Y-6187950D01*
X12492339Y-6187950D01*
X12475230Y-6190660D01*
X12475229Y-6190660D01*
X12458756Y-6196012D01*
X12458756Y-6196012D01*
X12443321Y-6203877D01*
X12429307Y-6214058D01*
X12417058Y-6226307D01*
X12406877Y-6240321D01*
X12399012Y-6255756D01*
X12399012Y-6255756D01*
X12393660Y-6272229D01*
X12393660Y-6272230D01*
X12390950Y-6289338D01*
X12330050Y-6289338D01*
X12330050Y-6285871D01*
X12326884Y-6261821D01*
X12320605Y-6238390D01*
X12311322Y-6215979D01*
X12299194Y-6194971D01*
X12295885Y-6190660D01*
X12284427Y-6175727D01*
X12284427Y-6175727D01*
X12284426Y-6175726D01*
X12267274Y-6158573D01*
X12267273Y-6158573D01*
X12267273Y-6158573D01*
X12248029Y-6143807D01*
X12248019Y-6143801D01*
X12227021Y-6131678D01*
X12227021Y-6131677D01*
X12227020Y-6131677D01*
X12204610Y-6122395D01*
X12204610Y-6122395D01*
X12204610Y-6122395D01*
X12181179Y-6116116D01*
X12181179Y-6116116D01*
X12181178Y-6116116D01*
X12157129Y-6112950D01*
X12157129Y-6112950D01*
X12132871Y-6112950D01*
X12132871Y-6112950D01*
X12108822Y-6116116D01*
X12108821Y-6116116D01*
X12085391Y-6122394D01*
X12085389Y-6122395D01*
X12062979Y-6131677D01*
X12041971Y-6143807D01*
X12022727Y-6158573D01*
X12005573Y-6175727D01*
X11990807Y-6194971D01*
X11978677Y-6215979D01*
X11969395Y-6238389D01*
X11969394Y-6238391D01*
X11963116Y-6261821D01*
X11963116Y-6261822D01*
X11959950Y-6285871D01*
X10648050Y-6285871D01*
X10648050Y-6082303D01*
X10648387Y-6079741D01*
X10648673Y-6078673D01*
X10652006Y-6073542D01*
X10655674Y-6071673D01*
X10656741Y-6071387D01*
X10659303Y-6071050D01*
X12341774Y-6071050D01*
X12347593Y-6072941D01*
G37*
%TD.AperFunction*%
%TD*%
M02*
