%TF.GenerationSoftware,KiCad,Pcbnew,10.0.0*%
%TF.CreationDate,2026-04-11T11:27:02+02:00*%
%TF.ProjectId,Easyduino_STM32F103,45617379-6475-4696-9e6f-5f53544d3332,rev?*%
%TF.SameCoordinates,Original*%
%TF.FileFunction,Copper,L1,Top*%
%TF.FilePolarity,Positive*%
%FSLAX45Y45*%
G04 Gerber Fmt 4.5, Leading zero omitted, Abs format (unit mm)*
G04 Created by KiCad (PCBNEW 10.0.0) date 2026-04-11 11:27:02*
%MOMM*%
%LPD*%
G01*
G04 APERTURE LIST*
G04 Aperture macros list*
%AMRoundRect*
0 Rectangle with rounded corners*
0 $1 Rounding radius*
0 $2 $3 $4 $5 $6 $7 $8 $9 X,Y pos of 4 corners*
0 Add a 4 corners polygon primitive as box body*
4,1,4,$2,$3,$4,$5,$6,$7,$8,$9,$2,$3,0*
0 Add four circle primitives for the rounded corners*
1,1,$1+$1,$2,$3*
1,1,$1+$1,$4,$5*
1,1,$1+$1,$6,$7*
1,1,$1+$1,$8,$9*
0 Add four rect primitives between the rounded corners*
20,1,$1+$1,$2,$3,$4,$5,0*
20,1,$1+$1,$4,$5,$6,$7,0*
20,1,$1+$1,$6,$7,$8,$9,0*
20,1,$1+$1,$8,$9,$2,$3,0*%
G04 Aperture macros list end*
%TA.AperFunction,SMDPad,CuDef*%
%ADD10RoundRect,0.250000X-0.750000X-0.950000X0.750000X-0.950000X0.750000X0.950000X-0.750000X0.950000X0*%
%TD*%
%TA.AperFunction,SMDPad,CuDef*%
%ADD11RoundRect,0.135000X0.135000X0.185000X-0.135000X0.185000X-0.135000X-0.185000X0.135000X-0.185000X0*%
%TD*%
%TA.AperFunction,SMDPad,CuDef*%
%ADD12RoundRect,0.075000X0.521491X-0.415425X-0.415425X0.521491X-0.521491X0.415425X0.415425X-0.521491X0*%
%TD*%
%TA.AperFunction,SMDPad,CuDef*%
%ADD13RoundRect,0.075000X0.521491X0.415425X0.415425X0.521491X-0.521491X-0.415425X-0.415425X-0.521491X0*%
%TD*%
%TA.AperFunction,SMDPad,CuDef*%
%ADD14RoundRect,0.140000X0.219203X0.021213X0.021213X0.219203X-0.219203X-0.021213X-0.021213X-0.219203X0*%
%TD*%
%TA.AperFunction,SMDPad,CuDef*%
%ADD15RoundRect,0.147500X0.172500X-0.147500X0.172500X0.147500X-0.172500X0.147500X-0.172500X-0.147500X0*%
%TD*%
%TA.AperFunction,SMDPad,CuDef*%
%ADD16RoundRect,0.135000X0.185000X-0.135000X0.185000X0.135000X-0.185000X0.135000X-0.185000X-0.135000X0*%
%TD*%
%TA.AperFunction,SMDPad,CuDef*%
%ADD17RoundRect,0.140000X0.140000X0.170000X-0.140000X0.170000X-0.140000X-0.170000X0.140000X-0.170000X0*%
%TD*%
%TA.AperFunction,ComponentPad*%
%ADD18C,1.700000*%
%TD*%
%TA.AperFunction,ComponentPad*%
%ADD19O,1.700000X1.700000*%
%TD*%
%TA.AperFunction,SMDPad,CuDef*%
%ADD20RoundRect,0.140000X-0.140000X-0.170000X0.140000X-0.170000X0.140000X0.170000X-0.140000X0.170000X0*%
%TD*%
%TA.AperFunction,SMDPad,CuDef*%
%ADD21RoundRect,0.135000X0.035355X-0.226274X0.226274X-0.035355X-0.035355X0.226274X-0.226274X0.035355X0*%
%TD*%
%TA.AperFunction,SMDPad,CuDef*%
%ADD22RoundRect,0.140000X-0.219203X-0.021213X-0.021213X-0.219203X0.219203X0.021213X0.021213X0.219203X0*%
%TD*%
%TA.AperFunction,SMDPad,CuDef*%
%ADD23RoundRect,0.140000X0.021213X-0.219203X0.219203X-0.021213X-0.021213X0.219203X-0.219203X0.021213X0*%
%TD*%
%TA.AperFunction,SMDPad,CuDef*%
%ADD24RoundRect,0.140000X-0.021213X0.219203X-0.219203X0.021213X0.021213X-0.219203X0.219203X-0.021213X0*%
%TD*%
%TA.AperFunction,SMDPad,CuDef*%
%ADD25R,0.650000X1.050000*%
%TD*%
%TA.AperFunction,SMDPad,CuDef*%
%ADD26R,1.000000X1.800000*%
%TD*%
%TA.AperFunction,SMDPad,CuDef*%
%ADD27RoundRect,0.150000X0.150000X-0.512500X0.150000X0.512500X-0.150000X0.512500X-0.150000X-0.512500X0*%
%TD*%
%TA.AperFunction,SMDPad,CuDef*%
%ADD28R,0.600000X1.240000*%
%TD*%
%TA.AperFunction,SMDPad,CuDef*%
%ADD29R,0.300000X1.240000*%
%TD*%
%TA.AperFunction,ComponentPad*%
%ADD30O,1.000000X2.100000*%
%TD*%
%TA.AperFunction,ComponentPad*%
%ADD31O,1.000000X1.800000*%
%TD*%
%TA.AperFunction,SMDPad,CuDef*%
%ADD32RoundRect,0.135000X-0.135000X-0.185000X0.135000X-0.185000X0.135000X0.185000X-0.135000X0.185000X0*%
%TD*%
%TA.AperFunction,ViaPad*%
%ADD33C,0.500000*%
%TD*%
%TA.AperFunction,ViaPad*%
%ADD34C,0.700000*%
%TD*%
%TA.AperFunction,Conductor*%
%ADD35C,0.200000*%
%TD*%
%TA.AperFunction,Conductor*%
%ADD36C,0.400000*%
%TD*%
%TA.AperFunction,Conductor*%
%ADD37C,0.300000*%
%TD*%
G04 APERTURE END LIST*
D10*
%TO.P,Y1,1,1_1*%
%TO.N,/PD0*%
X13806000Y-11150600D03*
%TO.P,Y1,2,2_2*%
%TO.N,/PD1*%
X14176000Y-11150600D03*
%TD*%
D11*
%TO.P,R5,1*%
%TO.N,/USB_D+*%
X13621000Y-8440000D03*
%TO.P,R5,2*%
%TO.N,+3.3V*%
X13519000Y-8440000D03*
%TD*%
D12*
%TO.P,U2,1,VBAT_1*%
%TO.N,/VBAT*%
X13843934Y-10523509D03*
%TO.P,U2,2,PC13_2*%
%TO.N,/PC13*%
X13879289Y-10488154D03*
%TO.P,U2,3,PC14_3*%
%TO.N,/PC14*%
X13914645Y-10452798D03*
%TO.P,U2,4,PC15_4*%
%TO.N,/PC15*%
X13950000Y-10417443D03*
%TO.P,U2,5,PD0_5*%
%TO.N,/PD0*%
X13985355Y-10382088D03*
%TO.P,U2,6,PD1_6*%
%TO.N,/PD1*%
X14020711Y-10346732D03*
%TO.P,U2,7,NRST_7*%
%TO.N,/NRST*%
X14056066Y-10311377D03*
%TO.P,U2,8,VSSA_8*%
%TO.N,GND*%
X14091421Y-10276022D03*
%TO.P,U2,9,VDDA_9*%
%TO.N,+3.3V*%
X14126777Y-10240666D03*
%TO.P,U2,10,PA0_10*%
%TO.N,/PA0*%
X14162132Y-10205311D03*
%TO.P,U2,11,PA1_11*%
%TO.N,/PA1*%
X14197487Y-10169956D03*
%TO.P,U2,12,PA2_12*%
%TO.N,/PA2*%
X14232843Y-10134600D03*
D13*
%TO.P,U2,13,PA3_13*%
%TO.N,/PA3*%
X14232843Y-9934843D03*
%TO.P,U2,14,PA4_14*%
%TO.N,/PA4*%
X14197487Y-9899487D03*
%TO.P,U2,15,PA5_15*%
%TO.N,/PA5*%
X14162132Y-9864132D03*
%TO.P,U2,16,PA6_16*%
%TO.N,/PA6*%
X14126777Y-9828777D03*
%TO.P,U2,17,PA7_17*%
%TO.N,/PA7*%
X14091421Y-9793421D03*
%TO.P,U2,18,PB0_18*%
%TO.N,/PB0*%
X14056066Y-9758066D03*
%TO.P,U2,19,PB1_19*%
%TO.N,/PB1*%
X14020711Y-9722711D03*
%TO.P,U2,20,PB2_20*%
%TO.N,/PB2*%
X13985355Y-9687355D03*
%TO.P,U2,21,PB10_21*%
%TO.N,/PB10*%
X13950000Y-9652000D03*
%TO.P,U2,22,PB11_22*%
%TO.N,/PB11*%
X13914645Y-9616645D03*
%TO.P,U2,23,VSS_23*%
%TO.N,GND*%
X13879289Y-9581289D03*
%TO.P,U2,24,VDD_24*%
%TO.N,+3.3V*%
X13843934Y-9545934D03*
D12*
%TO.P,U2,25,PB12_25*%
%TO.N,/PB12*%
X13644176Y-9545934D03*
%TO.P,U2,26,PB13_26*%
%TO.N,/PB13*%
X13608821Y-9581289D03*
%TO.P,U2,27,PB14_27*%
%TO.N,/PB14*%
X13573466Y-9616645D03*
%TO.P,U2,28,PB15_28*%
%TO.N,/PB15*%
X13538110Y-9652000D03*
%TO.P,U2,29,PA8_29*%
%TO.N,/PA8*%
X13502755Y-9687355D03*
%TO.P,U2,30,PA9_30*%
%TO.N,/PA9*%
X13467400Y-9722711D03*
%TO.P,U2,31,PA10_31*%
%TO.N,/PA10*%
X13432044Y-9758066D03*
%TO.P,U2,32,PA11_32*%
%TO.N,/USB_D-*%
X13396689Y-9793421D03*
%TO.P,U2,33,PA12_33*%
%TO.N,/USB_D+*%
X13361334Y-9828777D03*
%TO.P,U2,34,PA13_34*%
%TO.N,/SWDIO*%
X13325978Y-9864132D03*
%TO.P,U2,35,VSS_35*%
%TO.N,GND*%
X13290623Y-9899487D03*
%TO.P,U2,36,VDD_36*%
%TO.N,+3.3V*%
X13255267Y-9934843D03*
D13*
%TO.P,U2,37,PA14_37*%
%TO.N,/SWCLK*%
X13255267Y-10134600D03*
%TO.P,U2,38,PA15_38*%
%TO.N,/PA15*%
X13290623Y-10169956D03*
%TO.P,U2,39,PB3_39*%
%TO.N,/PB3*%
X13325978Y-10205311D03*
%TO.P,U2,40,PB4_40*%
%TO.N,/PB4*%
X13361334Y-10240666D03*
%TO.P,U2,41,PB5_41*%
%TO.N,/PB5*%
X13396689Y-10276022D03*
%TO.P,U2,42,PB6_42*%
%TO.N,/PB6*%
X13432044Y-10311377D03*
%TO.P,U2,43,PB7_43*%
%TO.N,/PB7*%
X13467400Y-10346732D03*
%TO.P,U2,44,BOOT0_44*%
%TO.N,/BOOT0*%
X13502755Y-10382088D03*
%TO.P,U2,45,PB8_45*%
%TO.N,/PB8*%
X13538110Y-10417443D03*
%TO.P,U2,46,PB9_46*%
%TO.N,/PB9*%
X13573466Y-10452798D03*
%TO.P,U2,47,VSS_47*%
%TO.N,GND*%
X13608821Y-10488154D03*
%TO.P,U2,48,VDD_48*%
%TO.N,+3.3V*%
X13644176Y-10523509D03*
%TD*%
D14*
%TO.P,C3,1*%
%TO.N,+3.3V*%
X13563941Y-10673941D03*
%TO.P,C3,2*%
%TO.N,GND*%
X13496059Y-10606059D03*
%TD*%
D15*
%TO.P,D1,1,K_1*%
%TO.N,GND*%
X14198600Y-11656100D03*
%TO.P,D1,2,A_2*%
%TO.N,Net-(D1-A)*%
X14198600Y-11559100D03*
%TD*%
D16*
%TO.P,R6,1*%
%TO.N,+3.3V*%
X14071600Y-11658800D03*
%TO.P,R6,2*%
%TO.N,Net-(D1-A)*%
X14071600Y-11556800D03*
%TD*%
%TO.P,R7,1*%
%TO.N,+3.3V*%
X14071600Y-12065000D03*
%TO.P,R7,2*%
%TO.N,Net-(D2-A)*%
X14071600Y-11963000D03*
%TD*%
D17*
%TO.P,C9,1*%
%TO.N,/NRST*%
X13468000Y-9260000D03*
%TO.P,C9,2*%
%TO.N,GND*%
X13372000Y-9260000D03*
%TD*%
D18*
%TO.P,J4,1,Pin_1_1*%
%TO.N,+3.3V*%
X13360400Y-12395200D03*
D19*
%TO.P,J4,2,Pin_2_2*%
%TO.N,/SWDIO*%
X13614400Y-12395200D03*
%TO.P,J4,3,Pin_3_3*%
%TO.N,/SWCLK*%
X13868400Y-12395200D03*
%TO.P,J4,4,Pin_4_4*%
%TO.N,GND*%
X14122400Y-12395200D03*
%TD*%
D20*
%TO.P,C5,1*%
%TO.N,+5V*%
X14082000Y-8305800D03*
%TO.P,C5,2*%
%TO.N,GND*%
X14178000Y-8305800D03*
%TD*%
D21*
%TO.P,R4,1*%
%TO.N,/PB2*%
X14213938Y-9486062D03*
%TO.P,R4,2*%
%TO.N,GND*%
X14286062Y-9413938D03*
%TD*%
D20*
%TO.P,C8,1*%
%TO.N,/PD1*%
X14071600Y-10871200D03*
%TO.P,C8,2*%
%TO.N,GND*%
X14167600Y-10871200D03*
%TD*%
%TO.P,C11,1*%
%TO.N,/PC15*%
X13532000Y-10870000D03*
%TO.P,C11,2*%
%TO.N,GND*%
X13628000Y-10870000D03*
%TD*%
D11*
%TO.P,R2,1*%
%TO.N,/CC2*%
X13601000Y-8305800D03*
%TO.P,R2,2*%
%TO.N,GND*%
X13499000Y-8305800D03*
%TD*%
D22*
%TO.P,C1,1*%
%TO.N,+3.3V*%
X13926059Y-9396059D03*
%TO.P,C1,2*%
%TO.N,GND*%
X13993941Y-9463941D03*
%TD*%
D15*
%TO.P,D2,1,K_1*%
%TO.N,/PC13*%
X14198600Y-12060200D03*
%TO.P,D2,2,A_2*%
%TO.N,Net-(D2-A)*%
X14198600Y-11963200D03*
%TD*%
D23*
%TO.P,C4,1*%
%TO.N,+3.3V*%
X13136059Y-9813941D03*
%TO.P,C4,2*%
%TO.N,GND*%
X13203941Y-9746059D03*
%TD*%
D17*
%TO.P,C6,1*%
%TO.N,+3.3V*%
X14148000Y-8870000D03*
%TO.P,C6,2*%
%TO.N,GND*%
X14052000Y-8870000D03*
%TD*%
D24*
%TO.P,C2,1*%
%TO.N,+3.3V*%
X14213941Y-10380000D03*
%TO.P,C2,2*%
%TO.N,GND*%
X14146059Y-10447882D03*
%TD*%
D17*
%TO.P,C7,1*%
%TO.N,/PD0*%
X13978000Y-10871200D03*
%TO.P,C7,2*%
%TO.N,GND*%
X13882000Y-10871200D03*
%TD*%
D16*
%TO.P,R3,1*%
%TO.N,GND*%
X13680000Y-11661000D03*
%TO.P,R3,2*%
%TO.N,/BOOT0*%
X13680000Y-11559000D03*
%TD*%
D25*
%TO.P,SW1,1,1_1*%
%TO.N,+3.3V*%
X13329000Y-11962000D03*
X13329000Y-11558000D03*
%TO.P,SW1,2,2_2*%
%TO.N,/BOOT0*%
X13543000Y-11962000D03*
X13543000Y-11558000D03*
%TD*%
D26*
%TO.P,Y2,1,1_1*%
%TO.N,/PC14*%
X13309600Y-11150600D03*
%TO.P,Y2,2,2_2*%
%TO.N,/PC15*%
X13559600Y-11150600D03*
%TD*%
D27*
%TO.P,U1,1,GND_1*%
%TO.N,GND*%
X13955000Y-8693750D03*
%TO.P,U1,2,VO_2*%
%TO.N,+3.3V*%
X14145000Y-8693750D03*
%TO.P,U1,3,VI_3*%
%TO.N,+5V*%
X14050000Y-8466250D03*
%TD*%
D25*
%TO.P,SW2,1,1_1*%
%TO.N,GND*%
X13330000Y-9130000D03*
X13330000Y-8726000D03*
%TO.P,SW2,2,2_2*%
%TO.N,/NRST*%
X13544000Y-9130000D03*
X13544000Y-8726000D03*
%TD*%
D28*
%TO.P,J1,A1,GND_A1*%
%TO.N,GND*%
X14070000Y-8114000D03*
%TO.P,J1,A4,VBUS_A4*%
%TO.N,+5V*%
X13990000Y-8114000D03*
D29*
%TO.P,J1,A5,CC1_A5*%
%TO.N,/CC1*%
X13875000Y-8114000D03*
%TO.P,J1,A6,D+_A6*%
%TO.N,/USB_D+*%
X13775000Y-8114000D03*
%TO.P,J1,A7,D-_A7*%
%TO.N,/USB_D-*%
X13725000Y-8114000D03*
%TO.P,J1,A8,SBU1_A8*%
%TO.N,unconnected-(J1-SBU1-PadA8)*%
X13625000Y-8114000D03*
D28*
%TO.P,J1,A9,VBUS_A9*%
%TO.N,+5V*%
X13510000Y-8114000D03*
%TO.P,J1,A12,GND_A12*%
%TO.N,GND*%
X13430000Y-8114000D03*
%TO.P,J1,B1,GND_B1*%
X13430000Y-8114000D03*
%TO.P,J1,B4,VBUS_B4*%
%TO.N,+5V*%
X13510000Y-8114000D03*
D29*
%TO.P,J1,B5,CC2_B5*%
%TO.N,/CC2*%
X13575000Y-8114000D03*
%TO.P,J1,B6,D+_B6*%
%TO.N,/USB_D+*%
X13675000Y-8114000D03*
%TO.P,J1,B7,D-_B7*%
%TO.N,/USB_D-*%
X13825000Y-8114000D03*
%TO.P,J1,B8,SBU2_B8*%
%TO.N,unconnected-(J1-SBU2-PadB8)*%
X13925000Y-8114000D03*
D28*
%TO.P,J1,B9,VBUS_B9*%
%TO.N,+5V*%
X13990000Y-8114000D03*
%TO.P,J1,B12,GND_B12*%
%TO.N,GND*%
X14070000Y-8114000D03*
D30*
%TO.P,J1,S1,SHIELD_S1*%
X14182000Y-8054000D03*
D31*
X14182000Y-7634000D03*
D30*
X13318000Y-8054000D03*
D31*
X13318000Y-7634000D03*
%TD*%
D32*
%TO.P,R1,1*%
%TO.N,/CC1*%
X13799000Y-8305800D03*
%TO.P,R1,2*%
%TO.N,GND*%
X13901000Y-8305800D03*
%TD*%
D17*
%TO.P,C10,1*%
%TO.N,/PC14*%
X13438000Y-10870000D03*
%TO.P,C10,2*%
%TO.N,GND*%
X13342000Y-10870000D03*
%TD*%
D18*
%TO.P,J3,1,Pin_1_1*%
%TO.N,GND*%
X14503400Y-7569200D03*
D19*
%TO.P,J3,2,Pin_2_2*%
X14503400Y-7823200D03*
%TO.P,J3,3,Pin_3_3*%
%TO.N,+3.3V*%
X14503400Y-8077200D03*
%TO.P,J3,4,Pin_4_4*%
%TO.N,/NRST*%
X14503400Y-8331200D03*
%TO.P,J3,5,Pin_5_5*%
%TO.N,/PB11*%
X14503400Y-8585200D03*
%TO.P,J3,6,Pin_6_6*%
%TO.N,/PB10*%
X14503400Y-8839200D03*
%TO.P,J3,7,Pin_7_7*%
%TO.N,/PB1*%
X14503400Y-9093200D03*
%TO.P,J3,8,Pin_8_8*%
%TO.N,/PB0*%
X14503400Y-9347200D03*
%TO.P,J3,9,Pin_9_9*%
%TO.N,/PA7*%
X14503400Y-9601200D03*
%TO.P,J3,10,Pin_10_10*%
%TO.N,/PA6*%
X14503400Y-9855200D03*
%TO.P,J3,11,Pin_11_11*%
%TO.N,/PA5*%
X14503400Y-10109200D03*
%TO.P,J3,12,Pin_12_12*%
%TO.N,/PA4*%
X14503400Y-10363200D03*
%TO.P,J3,13,Pin_13_13*%
%TO.N,/PA3*%
X14503400Y-10617200D03*
%TO.P,J3,14,Pin_14_14*%
%TO.N,/PA2*%
X14503400Y-10871200D03*
%TO.P,J3,15,Pin_15_15*%
%TO.N,/PA1*%
X14503400Y-11125200D03*
%TO.P,J3,16,Pin_16_16*%
%TO.N,/PA0*%
X14503400Y-11379200D03*
%TO.P,J3,17,Pin_17_17*%
%TO.N,/PC15*%
X14503400Y-11633200D03*
%TO.P,J3,18,Pin_18_18*%
%TO.N,/PC14*%
X14503400Y-11887200D03*
%TO.P,J3,19,Pin_19_19*%
%TO.N,/PC13*%
X14503400Y-12141200D03*
%TO.P,J3,20,Pin_20_20*%
%TO.N,/VBAT*%
X14503400Y-12395200D03*
%TD*%
D18*
%TO.P,J2,1,Pin_1_1*%
%TO.N,/PB12*%
X12979400Y-7569200D03*
D19*
%TO.P,J2,2,Pin_2_2*%
%TO.N,/PB13*%
X12979400Y-7823200D03*
%TO.P,J2,3,Pin_3_3*%
%TO.N,/PB14*%
X12979400Y-8077200D03*
%TO.P,J2,4,Pin_4_4*%
%TO.N,/PB15*%
X12979400Y-8331200D03*
%TO.P,J2,5,Pin_5_5*%
%TO.N,/PA8*%
X12979400Y-8585200D03*
%TO.P,J2,6,Pin_6_6*%
%TO.N,/PA9*%
X12979400Y-8839200D03*
%TO.P,J2,7,Pin_7_7*%
%TO.N,/PA10*%
X12979400Y-9093200D03*
%TO.P,J2,8,Pin_8_8*%
%TO.N,/USB_D-*%
X12979400Y-9347200D03*
%TO.P,J2,9,Pin_9_9*%
%TO.N,/USB_D+*%
X12979400Y-9601200D03*
%TO.P,J2,10,Pin_10_10*%
%TO.N,/PA15*%
X12979400Y-9855200D03*
%TO.P,J2,11,Pin_11_11*%
%TO.N,/PB3*%
X12979400Y-10109200D03*
%TO.P,J2,12,Pin_12_12*%
%TO.N,/PB4*%
X12979400Y-10363200D03*
%TO.P,J2,13,Pin_13_13*%
%TO.N,/PB5*%
X12979400Y-10617200D03*
%TO.P,J2,14,Pin_14_14*%
%TO.N,/PB6*%
X12979400Y-10871200D03*
%TO.P,J2,15,Pin_15_15*%
%TO.N,/PB7*%
X12979400Y-11125200D03*
%TO.P,J2,16,Pin_16_16*%
%TO.N,/PB8*%
X12979400Y-11379200D03*
%TO.P,J2,17,Pin_17_17*%
%TO.N,/PB9*%
X12979400Y-11633200D03*
%TO.P,J2,18,Pin_18_18*%
%TO.N,+5V*%
X12979400Y-11887200D03*
%TO.P,J2,19,Pin_19_19*%
%TO.N,GND*%
X12979400Y-12141200D03*
%TO.P,J2,20,Pin_20_20*%
%TO.N,+3.3V*%
X12979400Y-12395200D03*
%TD*%
D33*
%TO.N,/VBAT*%
X13895050Y-11560000D03*
X13850000Y-10690000D03*
%TO.N,GND*%
X13960000Y-8305800D03*
X13460000Y-10660000D03*
X14230000Y-10870000D03*
X14640000Y-8460000D03*
X14330000Y-9360000D03*
X13990000Y-8870000D03*
X14650000Y-10740000D03*
X14170000Y-8220000D03*
X14250000Y-8310000D03*
X13330000Y-8820000D03*
X13680000Y-11730000D03*
X14650000Y-12280000D03*
X13400000Y-9140000D03*
X13860000Y-8660000D03*
X13860000Y-8720000D03*
X13270000Y-10870000D03*
X13980000Y-9990000D03*
X14650000Y-9490000D03*
X13680000Y-10870000D03*
X13160000Y-9700000D03*
X13820000Y-10870000D03*
X14188364Y-10501351D03*
X13770000Y-9310000D03*
X12860000Y-10750000D03*
X14240000Y-8220000D03*
X13410000Y-8210000D03*
X12840000Y-9470000D03*
X14040574Y-9410718D03*
X13430000Y-8300000D03*
X13340000Y-8210000D03*
X12840000Y-8210000D03*
X14273900Y-11656100D03*
D34*
%TO.N,+5V*%
X13940000Y-8520000D03*
X12800000Y-8480000D03*
D33*
%TO.N,/NRST*%
X13460000Y-9070000D03*
X13750000Y-9640000D03*
X13540000Y-8840000D03*
%TO.N,/PC13*%
X13969950Y-11612407D03*
X13913988Y-10664680D03*
%TO.N,/USB_D-*%
X13190000Y-9540000D03*
X13290000Y-9670000D03*
%TO.N,/PB12*%
X13304900Y-8930000D03*
X13552003Y-9449340D03*
%TO.N,/PB13*%
X13254950Y-9090000D03*
X13490320Y-9469680D03*
%TO.N,/PB14*%
X13689660Y-9707840D03*
X13256636Y-9253365D03*
%TO.N,/PB15*%
X13306757Y-9374126D03*
X13649619Y-9758979D03*
%TO.N,/PA8*%
X13615127Y-9819181D03*
X13308301Y-9446310D03*
%TO.N,/PA9*%
X13240675Y-9449325D03*
X13564066Y-9859322D03*
%TO.N,/PA10*%
X13500000Y-9870000D03*
X13150000Y-9420000D03*
%TO.N,+3.3V*%
X13329000Y-11870000D03*
X13450000Y-8440000D03*
X14238450Y-10460000D03*
X14250000Y-8770000D03*
X14250000Y-8650000D03*
X14250000Y-8880000D03*
X13510000Y-10710718D03*
X14070000Y-12130000D03*
X14070035Y-11729965D03*
X13090000Y-9770000D03*
X13970000Y-9340000D03*
X13330000Y-11650000D03*
%TO.N,/SWCLK*%
X13770000Y-10390000D03*
X13830000Y-11620000D03*
%TO.N,/SWDIO*%
X13770000Y-11550000D03*
X13730000Y-10270000D03*
%TO.N,/BOOT0*%
X13182386Y-10702386D03*
X13190000Y-11100000D03*
%TD*%
%TO.N,Net-(D2-A)*%
D35*
X14198400Y-11963000D02*
X14198600Y-11963200D01*
X14071600Y-11963000D02*
X14198400Y-11963000D01*
%TO.N,/VBAT*%
X14030000Y-12200000D02*
X14308200Y-12200000D01*
X13895050Y-11688362D02*
X13980000Y-11773312D01*
X13893583Y-10563583D02*
X13853509Y-10523509D01*
X13895050Y-11560000D02*
X13895050Y-11688362D01*
X13853509Y-10523509D02*
X13843934Y-10523509D01*
X13850000Y-10653583D02*
X13893583Y-10610000D01*
X13850000Y-10690000D02*
X13850000Y-10653583D01*
X13980000Y-12150000D02*
X14030000Y-12200000D01*
X13980000Y-11773312D02*
X13980000Y-12150000D01*
X13893583Y-10610000D02*
X13893583Y-10563583D01*
X14308200Y-12200000D02*
X14503400Y-12395200D01*
%TO.N,/PD0*%
X13978000Y-10812000D02*
X13978000Y-10871200D01*
X13978000Y-10912000D02*
X13806000Y-11084000D01*
X13806000Y-11084000D02*
X13806000Y-11150600D01*
X13985355Y-10382088D02*
X14045000Y-10441732D01*
X14045000Y-10441732D02*
X14045000Y-10745000D01*
X14045000Y-10745000D02*
X13978000Y-10812000D01*
X13978000Y-10871200D02*
X13978000Y-10912000D01*
%TO.N,/PD1*%
X14071600Y-10871200D02*
X14071600Y-10916400D01*
X14020711Y-10346732D02*
X14080000Y-10406022D01*
X14071600Y-10916400D02*
X14176000Y-11020800D01*
X14080000Y-10862800D02*
X14071600Y-10871200D01*
X14080000Y-10406022D02*
X14080000Y-10862800D01*
X14176000Y-11020800D02*
X14176000Y-11150600D01*
%TO.N,GND*%
D36*
X13203941Y-9746059D02*
X13203941Y-9743941D01*
X13993941Y-9463941D02*
X13993941Y-9457351D01*
X14070000Y-8120000D02*
X14170000Y-8220000D01*
X14178000Y-8305800D02*
X14245800Y-8305800D01*
X13882000Y-10871200D02*
X13821200Y-10871200D01*
D37*
X13608821Y-10488154D02*
X13496059Y-10600916D01*
D36*
X13499000Y-8305800D02*
X13435800Y-8305800D01*
X14167600Y-10871200D02*
X14228800Y-10871200D01*
X13330000Y-8726000D02*
X13330000Y-8820000D01*
X13680000Y-11661000D02*
X13680000Y-11730000D01*
X13435800Y-8305800D02*
X13430000Y-8300000D01*
X13330000Y-9130000D02*
X13390000Y-9130000D01*
X14070000Y-8114000D02*
X14070000Y-8120000D01*
D37*
X13203941Y-9812806D02*
X13203941Y-9746059D01*
D36*
X13496059Y-10623941D02*
X13460000Y-10660000D01*
X14286062Y-9403938D02*
X14330000Y-9360000D01*
D37*
X13993941Y-9463941D02*
X13993941Y-9466638D01*
D36*
X13342000Y-10870000D02*
X13270000Y-10870000D01*
X13390000Y-9130000D02*
X13400000Y-9140000D01*
X13628000Y-10870000D02*
X13680000Y-10870000D01*
X13990000Y-8870000D02*
X14052000Y-8870000D01*
D37*
X14146059Y-10447882D02*
X14146059Y-10459046D01*
X13290623Y-9899487D02*
X13203941Y-9812806D01*
D36*
X13901000Y-8305800D02*
X13960000Y-8305800D01*
X14245800Y-8305800D02*
X14250000Y-8310000D01*
X13203941Y-9743941D02*
X13160000Y-9700000D01*
X13430000Y-8114000D02*
X13430000Y-8120000D01*
D37*
X13993941Y-9466638D02*
X13879289Y-9581289D01*
D36*
X14286062Y-9413938D02*
X14286062Y-9403938D01*
X13430000Y-8120000D02*
X13340000Y-8210000D01*
X13372000Y-9260000D02*
X13372000Y-9168000D01*
X13496059Y-10606059D02*
X13496059Y-10623941D01*
D37*
X14198600Y-11656100D02*
X14273900Y-11656100D01*
X14091421Y-10276022D02*
X14146059Y-10330659D01*
X13496059Y-10600916D02*
X13496059Y-10606059D01*
D36*
X14228800Y-10871200D02*
X14230000Y-10870000D01*
X13372000Y-9168000D02*
X13400000Y-9140000D01*
X13993941Y-9457351D02*
X14040574Y-9410718D01*
X13821200Y-10871200D02*
X13820000Y-10870000D01*
D37*
X14146059Y-10459046D02*
X14188364Y-10501351D01*
X14146059Y-10330659D02*
X14146059Y-10447882D01*
%TO.N,Net-(D1-A)*%
D35*
X14071600Y-11556800D02*
X14196300Y-11556800D01*
X14196300Y-11556800D02*
X14198600Y-11559100D01*
%TO.N,+5V*%
D36*
X12770000Y-8510000D02*
X12800000Y-8480000D01*
D37*
X13510000Y-8114000D02*
X13510000Y-8055530D01*
D36*
X12979400Y-11887200D02*
X12770000Y-11677800D01*
X12770000Y-11677800D02*
X12770000Y-8510000D01*
D37*
X13990000Y-8055530D02*
X13990000Y-8114000D01*
X13893704Y-7959235D02*
X13990000Y-8055530D01*
X13606296Y-7959235D02*
X13893704Y-7959235D01*
X13510000Y-8055530D02*
X13606296Y-7959235D01*
%TO.N,/CC1*%
D35*
X13799000Y-8305800D02*
X13875000Y-8229800D01*
X13875000Y-8229800D02*
X13875000Y-8114000D01*
%TO.N,/NRST*%
X13759285Y-10014596D02*
X13759285Y-9649285D01*
X13544000Y-9130000D02*
X13544000Y-9184000D01*
X13544000Y-9130000D02*
X13544000Y-8844000D01*
X13520000Y-9130000D02*
X13544000Y-9130000D01*
X13544000Y-8844000D02*
X13540000Y-8840000D01*
X13544000Y-8836000D02*
X13544000Y-8726000D01*
X13544000Y-9184000D02*
X13468000Y-9260000D01*
X13460000Y-9070000D02*
X13520000Y-9130000D01*
X14056066Y-10311377D02*
X13759285Y-10014596D01*
X13540000Y-8840000D02*
X13544000Y-8836000D01*
X13759285Y-9649285D02*
X13750000Y-9640000D01*
%TO.N,/CC2*%
X13601000Y-8222000D02*
X13601000Y-8305800D01*
X13575000Y-8114000D02*
X13575000Y-8196000D01*
X13575000Y-8196000D02*
X13601000Y-8222000D01*
%TO.N,/PC14*%
X14380000Y-11763800D02*
X14503400Y-11887200D01*
X13309600Y-11050400D02*
X13309600Y-11150600D01*
X13438000Y-10870000D02*
X13438000Y-10922000D01*
X14220000Y-11410000D02*
X14380000Y-11570000D01*
X13963938Y-10686062D02*
X13885000Y-10765000D01*
X13450000Y-11410000D02*
X14220000Y-11410000D01*
X13963938Y-10502092D02*
X13963938Y-10686062D01*
X13885000Y-10765000D02*
X13475000Y-10765000D01*
X14380000Y-11570000D02*
X14380000Y-11763800D01*
X13438000Y-10922000D02*
X13309600Y-11050400D01*
X13475000Y-10765000D02*
X13438000Y-10802000D01*
X13438000Y-10802000D02*
X13438000Y-10870000D01*
X13309600Y-11269600D02*
X13450000Y-11410000D01*
X13914645Y-10452798D02*
X13963938Y-10502092D01*
X13309600Y-11150600D02*
X13309600Y-11269600D01*
%TO.N,/PC15*%
X13559600Y-11279600D02*
X13559600Y-11150600D01*
X13650000Y-11370000D02*
X13559600Y-11279600D01*
X13559600Y-11019600D02*
X13559600Y-11150600D01*
X13532000Y-10870000D02*
X13530000Y-10872000D01*
X13920000Y-10800000D02*
X13547000Y-10800000D01*
X14240200Y-11370000D02*
X13650000Y-11370000D01*
X13999294Y-10466737D02*
X13999294Y-10720706D01*
X13999294Y-10720706D02*
X13920000Y-10800000D01*
X13532000Y-10815000D02*
X13532000Y-10870000D01*
X13547000Y-10800000D02*
X13532000Y-10815000D01*
X13530000Y-10990000D02*
X13559600Y-11019600D01*
X13950000Y-10417443D02*
X13999294Y-10466737D01*
X14503400Y-11633200D02*
X14240200Y-11370000D01*
X13530000Y-10872000D02*
X13530000Y-10990000D01*
%TO.N,/PC13*%
X14320000Y-12060000D02*
X14420000Y-12060000D01*
X14240000Y-11880000D02*
X14290000Y-11930000D01*
X14290000Y-12050000D02*
X14290000Y-12060000D01*
X14136185Y-11880000D02*
X14240000Y-11880000D01*
X14420000Y-12060000D02*
X14501200Y-12141200D01*
X14300000Y-12040000D02*
X14290000Y-12050000D01*
X14290000Y-12030000D02*
X14300000Y-12040000D01*
X14290000Y-11930000D02*
X14290000Y-12030000D01*
X14290000Y-12060000D02*
X14320000Y-12060000D01*
X13928583Y-10537447D02*
X13928583Y-10650085D01*
X14300000Y-12040000D02*
X14320000Y-12060000D01*
X14198800Y-12060000D02*
X14290000Y-12060000D01*
X13969950Y-11612407D02*
X13969950Y-11713765D01*
X14259800Y-12060200D02*
X14198600Y-12060200D01*
X13928583Y-10650085D02*
X13913988Y-10664680D01*
X14290000Y-12030000D02*
X14259800Y-12060200D01*
X13969950Y-11713765D02*
X14136185Y-11880000D01*
X14198600Y-12060200D02*
X14198800Y-12060000D01*
X14501200Y-12141200D02*
X14503400Y-12141200D01*
X13879289Y-10488154D02*
X13928583Y-10537447D01*
%TO.N,/USB_D+*%
X13775000Y-8032000D02*
X13775000Y-8114000D01*
X13687000Y-8020000D02*
X13763000Y-8020000D01*
X13675000Y-8114000D02*
X13675000Y-8207000D01*
X13682500Y-8440000D02*
X13682500Y-9142751D01*
X13361334Y-9818170D02*
X13361334Y-9828777D01*
X12979400Y-9601200D02*
X13191200Y-9601200D01*
X13682500Y-9142751D02*
X13220000Y-9605251D01*
X13675000Y-8207000D02*
X13682500Y-8214500D01*
X13220000Y-9605251D02*
X13195251Y-9605251D01*
X13675000Y-8032000D02*
X13687000Y-8020000D01*
X13195251Y-9605251D02*
X13191200Y-9601200D01*
X13763000Y-8020000D02*
X13775000Y-8032000D01*
X13191200Y-9601200D02*
X13220000Y-9630000D01*
X13220000Y-9676837D02*
X13361334Y-9818170D01*
X13675000Y-8114000D02*
X13675000Y-8032000D01*
X13220000Y-9630000D02*
X13220000Y-9676837D01*
X13361334Y-9814635D02*
X13361334Y-9828777D01*
X13682500Y-8214500D02*
X13682500Y-8440000D01*
X13220000Y-9605251D02*
X13220000Y-9630000D01*
X13621000Y-8440000D02*
X13682500Y-8440000D01*
%TO.N,/USB_D-*%
X13825000Y-8114000D02*
X13825000Y-8196000D01*
X13372296Y-9779635D02*
X13375831Y-9779635D01*
X13172200Y-9540000D02*
X12979400Y-9347200D01*
X13825000Y-8196000D02*
X13814000Y-8207000D01*
X13717500Y-9157249D02*
X13280000Y-9594749D01*
X13725000Y-8207000D02*
X13725000Y-8114000D01*
X13375831Y-9779635D02*
X13389618Y-9793421D01*
X13389618Y-9793421D02*
X13396689Y-9793421D01*
X13717500Y-8214500D02*
X13717500Y-9157249D01*
X13725000Y-8207000D02*
X13717500Y-8214500D01*
X13280000Y-9594749D02*
X13280000Y-9687339D01*
X13190000Y-9540000D02*
X13172200Y-9540000D01*
X13280000Y-9687339D02*
X13372296Y-9779635D01*
X13814000Y-8207000D02*
X13725000Y-8207000D01*
%TO.N,/PB12*%
X13304900Y-8930000D02*
X13304900Y-8886910D01*
X13304900Y-8886910D02*
X13229400Y-8811410D01*
X13229400Y-8637210D02*
X13195000Y-8602810D01*
X13124400Y-8123205D02*
X13124400Y-7918703D01*
X13644176Y-9545934D02*
X13644176Y-9541513D01*
X13195000Y-8602810D02*
X13195000Y-8398308D01*
X13195000Y-8398308D02*
X13160000Y-8363308D01*
X13229400Y-8811410D02*
X13229400Y-8637210D01*
X13124400Y-7918703D02*
X13090000Y-7884303D01*
X13090000Y-7884303D02*
X13090000Y-7679800D01*
X13644176Y-9541513D02*
X13552003Y-9449340D01*
X13160000Y-8158805D02*
X13124400Y-8123205D01*
X13160000Y-8363308D02*
X13160000Y-8158805D01*
X13090000Y-7679800D02*
X12979400Y-7569200D01*
%TO.N,/PB13*%
X13254950Y-8886458D02*
X13194400Y-8825908D01*
X13194400Y-8825908D02*
X13194400Y-8651708D01*
X13601929Y-9581289D02*
X13490320Y-9469680D01*
X13089400Y-8137703D02*
X13089400Y-7933200D01*
X13194400Y-8651708D02*
X13160000Y-8617308D01*
X13254950Y-9090000D02*
X13254950Y-8886458D01*
X13160000Y-8412805D02*
X13125000Y-8377805D01*
X13125000Y-8173303D02*
X13089400Y-8137703D01*
X13160000Y-8617308D02*
X13160000Y-8412805D01*
X13125000Y-8377805D02*
X13125000Y-8173303D01*
X13089400Y-7933200D02*
X12979400Y-7823200D01*
X13608821Y-9581289D02*
X13601929Y-9581289D01*
%TO.N,/PB14*%
X13230000Y-9145810D02*
X13205000Y-9120810D01*
X13205000Y-8886005D02*
X13159400Y-8840405D01*
X13125000Y-8427303D02*
X13090000Y-8392303D01*
X13159400Y-8666205D02*
X13125000Y-8631805D01*
X13664661Y-9707840D02*
X13689660Y-9707840D01*
X13230000Y-9226729D02*
X13230000Y-9145810D01*
X13090000Y-8392303D02*
X13090000Y-8187800D01*
X13159400Y-8840405D02*
X13159400Y-8666205D01*
X13205000Y-9120810D02*
X13205000Y-8886005D01*
X13573466Y-9616645D02*
X13664661Y-9707840D01*
X13256636Y-9253365D02*
X13230000Y-9226729D01*
X13125000Y-8631805D02*
X13125000Y-8427303D01*
X13090000Y-8187800D02*
X12979400Y-8077200D01*
%TO.N,/PB15*%
X13124400Y-8680703D02*
X13090000Y-8646303D01*
X13124400Y-8854903D02*
X13124400Y-8680703D01*
X13170000Y-8900503D02*
X13124400Y-8854903D01*
X13542640Y-9652000D02*
X13649619Y-9758979D01*
X13170000Y-9135308D02*
X13170000Y-8900503D01*
X13090000Y-8441800D02*
X12979400Y-8331200D01*
X13195000Y-9262369D02*
X13195000Y-9160308D01*
X13195000Y-9160308D02*
X13170000Y-9135308D01*
X13538110Y-9652000D02*
X13542640Y-9652000D01*
X13090000Y-8646303D02*
X13090000Y-8441800D01*
X13306757Y-9374126D02*
X13195000Y-9262369D01*
%TO.N,/PA8*%
X13130000Y-9144805D02*
X13130000Y-8910000D01*
X13160000Y-9298009D02*
X13160000Y-9174805D01*
X13308301Y-9446310D02*
X13160000Y-9298009D01*
X13160000Y-9174805D02*
X13130000Y-9144805D01*
X13089400Y-8695200D02*
X12979400Y-8585200D01*
X13130000Y-8910000D02*
X13089400Y-8869400D01*
X13502755Y-9687355D02*
X13615127Y-9799728D01*
X13089400Y-8869400D02*
X13089400Y-8695200D01*
X13615127Y-9799728D02*
X13615127Y-9819181D01*
%TO.N,/PA9*%
X13240675Y-9449325D02*
X13240675Y-9439965D01*
X13564066Y-9819378D02*
X13467400Y-9722711D01*
X13090000Y-8949800D02*
X12979400Y-8839200D01*
X13240675Y-9439965D02*
X13125000Y-9324289D01*
X13125000Y-9189303D02*
X13090000Y-9154303D01*
X13564066Y-9859322D02*
X13564066Y-9819378D01*
X13090000Y-9154303D02*
X13090000Y-8949800D01*
X13125000Y-9324289D02*
X13125000Y-9189303D01*
%TO.N,/PA10*%
X13090000Y-9203800D02*
X12979400Y-9093200D01*
X13090000Y-9360000D02*
X13090000Y-9203800D01*
X13150000Y-9420000D02*
X13090000Y-9360000D01*
X13500000Y-9870000D02*
X13500000Y-9826022D01*
X13500000Y-9826022D02*
X13432044Y-9758066D01*
%TO.N,/PA15*%
X13120000Y-9995800D02*
X12979400Y-9855200D01*
X13241329Y-10219249D02*
X13200263Y-10219249D01*
X13200263Y-10219249D02*
X13120000Y-10138986D01*
X13290623Y-10169956D02*
X13241329Y-10219249D01*
X13120000Y-10138986D02*
X13120000Y-9995800D01*
%TO.N,/PB3*%
X13130200Y-10260000D02*
X13271289Y-10260000D01*
X13271289Y-10260000D02*
X13325978Y-10205311D01*
X12979400Y-10109200D02*
X13130200Y-10260000D01*
%TO.N,/PB4*%
X13238800Y-10363200D02*
X12979400Y-10363200D01*
X13361334Y-10240666D02*
X13238800Y-10363200D01*
%TO.N,+3.3V*%
D37*
X13180425Y-9860000D02*
X13180425Y-9858307D01*
X13920000Y-9470000D02*
X13920000Y-9402118D01*
D36*
X13926059Y-9383941D02*
X13970000Y-9340000D01*
X13123941Y-9813941D02*
X13136059Y-9813941D01*
D37*
X13255267Y-9934843D02*
X13180425Y-9860000D01*
X14071600Y-11728400D02*
X14070035Y-11729965D01*
D36*
X13926059Y-9396059D02*
X13926059Y-9383941D01*
D37*
X14213941Y-10435491D02*
X14238450Y-10460000D01*
D36*
X13519000Y-8440000D02*
X13450000Y-8440000D01*
X13527165Y-10710718D02*
X13563941Y-10673941D01*
D37*
X14213941Y-10380000D02*
X14213941Y-10435491D01*
D36*
X13329000Y-11558000D02*
X13329000Y-11649000D01*
D37*
X13920000Y-9402118D02*
X13926059Y-9396059D01*
X13644176Y-10525824D02*
X13580000Y-10590000D01*
X14126777Y-10240666D02*
X14213941Y-10327831D01*
D36*
X13510000Y-10710718D02*
X13527165Y-10710718D01*
X14071600Y-12065000D02*
X14071600Y-12128400D01*
D37*
X13644176Y-10523509D02*
X13644176Y-10525824D01*
D36*
X13090000Y-9770000D02*
X13090000Y-9780000D01*
D37*
X13580000Y-10657882D02*
X13563941Y-10673941D01*
X13180425Y-9858307D02*
X13136059Y-9813941D01*
D36*
X13329000Y-11649000D02*
X13330000Y-11650000D01*
X13090000Y-9780000D02*
X13123941Y-9813941D01*
X13329000Y-11870000D02*
X13329000Y-11962000D01*
D37*
X13844066Y-9545934D02*
X13920000Y-9470000D01*
X13843934Y-9545934D02*
X13844066Y-9545934D01*
X14213941Y-10327831D02*
X14213941Y-10380000D01*
D36*
X14071600Y-12128400D02*
X14070000Y-12130000D01*
D37*
X14071600Y-11658800D02*
X14071600Y-11728400D01*
X13580000Y-10590000D02*
X13580000Y-10657882D01*
%TO.N,/PB5*%
D35*
X13055511Y-10617200D02*
X12979400Y-10617200D01*
X13396689Y-10276022D02*
X13055511Y-10617200D01*
%TO.N,/PB6*%
X13080000Y-10677563D02*
X13080000Y-10800000D01*
X13080000Y-10800000D02*
X13008800Y-10871200D01*
X13432044Y-10325519D02*
X13080000Y-10677563D01*
X13008800Y-10871200D02*
X12979400Y-10871200D01*
X13432044Y-10311377D02*
X13432044Y-10325519D01*
%TO.N,/PB7*%
X13467400Y-10346732D02*
X13115000Y-10699132D01*
X13115000Y-10699132D02*
X13115000Y-10891164D01*
X12979400Y-11026764D02*
X12979400Y-11125200D01*
X13115000Y-10891164D02*
X12979400Y-11026764D01*
%TO.N,/PB8*%
X13150000Y-10905661D02*
X13090000Y-10965661D01*
X13150000Y-10805553D02*
X13150000Y-10905661D01*
X13090000Y-10965661D02*
X13090000Y-11268600D01*
X13090000Y-11268600D02*
X12979400Y-11379200D01*
X13538110Y-10417443D02*
X13150000Y-10805553D01*
%TO.N,/PB9*%
X13573466Y-10452798D02*
X13200000Y-10826264D01*
X13125000Y-11010000D02*
X13125000Y-11487600D01*
X13200000Y-10935000D02*
X13125000Y-11010000D01*
X13125000Y-11487600D02*
X12979400Y-11633200D01*
X13200000Y-10826264D02*
X13200000Y-10935000D01*
%TO.N,/PB11*%
X14355000Y-9185000D02*
X14355000Y-8938103D01*
X13923355Y-9616645D02*
X14355000Y-9185000D01*
X14390000Y-8903103D02*
X14390000Y-8698600D01*
X13914645Y-9616645D02*
X13923355Y-9616645D01*
X14390000Y-8698600D02*
X14503400Y-8585200D01*
X14355000Y-8938103D02*
X14390000Y-8903103D01*
%TO.N,/PB10*%
X14390000Y-8952600D02*
X14503400Y-8839200D01*
X14390000Y-9212000D02*
X14390000Y-8952600D01*
X13950000Y-9652000D02*
X14390000Y-9212000D01*
%TO.N,/PB1*%
X14395623Y-9394987D02*
X14393400Y-9392764D01*
X14220610Y-9570000D02*
X14395623Y-9394987D01*
X14440000Y-9156600D02*
X14503400Y-9093200D01*
X14393400Y-9392764D02*
X14393400Y-9301637D01*
X14020711Y-9722711D02*
X14173421Y-9570000D01*
X14440000Y-9255037D02*
X14440000Y-9156600D01*
X14393400Y-9301637D02*
X14440000Y-9255037D01*
X14173421Y-9570000D02*
X14220610Y-9570000D01*
%TO.N,/PB0*%
X14310000Y-9610000D02*
X14503400Y-9416600D01*
X14056066Y-9758066D02*
X14204132Y-9610000D01*
X14204132Y-9610000D02*
X14310000Y-9610000D01*
X14503400Y-9416600D02*
X14503400Y-9347200D01*
%TO.N,/PA7*%
X14503400Y-9601200D02*
X14454600Y-9650000D01*
X14454600Y-9650000D02*
X14234843Y-9650000D01*
X14234843Y-9650000D02*
X14091421Y-9793421D01*
%TO.N,/PA6*%
X14398200Y-9750000D02*
X14205553Y-9750000D01*
X14503400Y-9855200D02*
X14398200Y-9750000D01*
X14205553Y-9750000D02*
X14126777Y-9828777D01*
%TO.N,/PA5*%
X14226264Y-9800000D02*
X14340000Y-9800000D01*
X14340000Y-9800000D02*
X14393400Y-9853400D01*
X14162132Y-9864132D02*
X14226264Y-9800000D01*
X14503400Y-10010764D02*
X14503400Y-10109200D01*
X14393400Y-9900764D02*
X14503400Y-10010764D01*
X14393400Y-9853400D02*
X14393400Y-9900764D01*
%TO.N,/PA4*%
X14358400Y-9878400D02*
X14358400Y-9915261D01*
X14410000Y-10169289D02*
X14410000Y-10269800D01*
X14390000Y-10149289D02*
X14410000Y-10169289D01*
X14410000Y-10269800D02*
X14503400Y-10363200D01*
X14358400Y-9915261D02*
X14390000Y-9946861D01*
X14197487Y-9899487D02*
X14256975Y-9840000D01*
X14256975Y-9840000D02*
X14320000Y-9840000D01*
X14390000Y-9946861D02*
X14390000Y-10149289D01*
X14320000Y-9840000D02*
X14358400Y-9878400D01*
%TO.N,/PA3*%
X14355000Y-10163787D02*
X14375000Y-10183787D01*
X14375000Y-10284297D02*
X14393400Y-10302697D01*
X14355000Y-9961358D02*
X14355000Y-10163787D01*
X14323400Y-9892897D02*
X14323400Y-9929758D01*
X14375000Y-10183787D02*
X14375000Y-10284297D01*
X14323400Y-9929758D02*
X14355000Y-9961358D01*
X14393400Y-10507200D02*
X14503400Y-10617200D01*
X14305503Y-9875000D02*
X14323400Y-9892897D01*
X14393400Y-10302697D02*
X14393400Y-10507200D01*
X14232843Y-9934843D02*
X14292685Y-9875000D01*
X14292685Y-9875000D02*
X14305503Y-9875000D01*
%TO.N,/PA2*%
X14340000Y-10241758D02*
X14340000Y-10300000D01*
X14393400Y-10761200D02*
X14503400Y-10871200D01*
X14340000Y-10300000D02*
X14358400Y-10318400D01*
X14232843Y-10134600D02*
X14340000Y-10241758D01*
X14393400Y-10556697D02*
X14393400Y-10761200D01*
X14358400Y-10521697D02*
X14393400Y-10556697D01*
X14358400Y-10318400D02*
X14358400Y-10521697D01*
%TO.N,/PA1*%
X14358400Y-10775697D02*
X14393400Y-10810697D01*
X14323400Y-10332898D02*
X14323400Y-10536195D01*
X14358400Y-10571195D02*
X14358400Y-10775697D01*
X14305000Y-10314498D02*
X14323400Y-10332898D01*
X14393400Y-11015200D02*
X14503400Y-11125200D01*
X14393400Y-10810697D02*
X14393400Y-11015200D01*
X14323400Y-10536195D02*
X14358400Y-10571195D01*
X14197487Y-10169956D02*
X14305000Y-10277468D01*
X14305000Y-10277468D02*
X14305000Y-10314498D01*
%TO.N,/PA0*%
X14288400Y-10347395D02*
X14288400Y-10550692D01*
X14288400Y-10550692D02*
X14323400Y-10585692D01*
X14358400Y-11234200D02*
X14503400Y-11379200D01*
X14270000Y-10313179D02*
X14270000Y-10328995D01*
X14162132Y-10205311D02*
X14270000Y-10313179D01*
X14270000Y-10328995D02*
X14288400Y-10347395D01*
X14323400Y-10585692D02*
X14323400Y-10790195D01*
X14323400Y-10790195D02*
X14358400Y-10825195D01*
X14358400Y-10825195D02*
X14358400Y-11234200D01*
%TO.N,/SWCLK*%
X13329868Y-10060000D02*
X13255267Y-10134600D01*
X13830000Y-12356800D02*
X13868400Y-12395200D01*
X13440000Y-10060000D02*
X13329868Y-10060000D01*
X13820000Y-12346800D02*
X13868400Y-12395200D01*
X13830000Y-11620000D02*
X13830000Y-12356800D01*
X13830000Y-11620000D02*
X13820000Y-11630000D01*
X13770000Y-10390000D02*
X13440000Y-10060000D01*
%TO.N,/SWDIO*%
X13730000Y-10270000D02*
X13325978Y-9865978D01*
X13760000Y-11560000D02*
X13770000Y-11550000D01*
X13614400Y-12395200D02*
X13760000Y-12249600D01*
X13760000Y-12249600D02*
X13760000Y-11560000D01*
%TO.N,/BOOT0*%
X13490500Y-11558000D02*
X13543000Y-11558000D01*
X13543000Y-11558000D02*
X13679000Y-11558000D01*
X13502755Y-10382088D02*
X13502684Y-10382088D01*
X13502684Y-10382088D02*
X13182386Y-10702386D01*
X13679000Y-11558000D02*
X13680000Y-11559000D01*
X13190000Y-11100000D02*
X13190000Y-11257500D01*
X13543000Y-11558000D02*
X13543000Y-11962000D01*
X13190000Y-11257500D02*
X13490500Y-11558000D01*
%TO.N,/PB2*%
X14186648Y-9486062D02*
X14213938Y-9486062D01*
X13985355Y-9687355D02*
X14186648Y-9486062D01*
%TD*%
%TA.AperFunction,Conductor*%
%TO.N,+3.3V*%
G36*
X14257956Y-8570502D02*
G01*
X14261142Y-8571438D01*
X14264527Y-8573018D01*
X14282995Y-8585330D01*
X14285623Y-8587686D01*
X14286968Y-8589291D01*
X14289600Y-8594719D01*
X14289738Y-8595382D01*
X14290000Y-8597916D01*
X14290000Y-8933081D01*
X14289498Y-8936575D01*
X14288756Y-8939099D01*
X14285627Y-8944373D01*
X14274893Y-8955107D01*
X14272067Y-8957222D01*
X14269759Y-8958483D01*
X14263816Y-8960000D01*
X14126919Y-8960000D01*
X14123426Y-8959498D01*
X14120901Y-8958757D01*
X14115627Y-8955627D01*
X14104893Y-8944893D01*
X14102777Y-8942067D01*
X14101517Y-8939758D01*
X14100000Y-8933816D01*
X14100000Y-8920976D01*
X14100502Y-8917482D01*
X14101372Y-8914521D01*
X14103293Y-8910651D01*
X14105385Y-8907816D01*
X14109771Y-8895282D01*
X14110050Y-8892307D01*
X14110050Y-8847693D01*
X14109771Y-8844718D01*
X14109771Y-8844718D01*
X14109771Y-8844717D01*
X14109771Y-8844717D01*
X14109766Y-8844669D01*
X14109671Y-8844369D01*
X14109657Y-8844321D01*
X14109511Y-8843974D01*
X14105867Y-8833561D01*
X14105385Y-8832184D01*
X14105385Y-8832184D01*
X14103172Y-8829186D01*
X14102900Y-8828744D01*
X14102778Y-8828295D01*
X14101811Y-8826496D01*
X14100752Y-8823597D01*
X14100203Y-8820490D01*
X14100000Y-8820000D01*
X14100000Y-8820000D01*
X14064893Y-8784893D01*
X14062777Y-8782067D01*
X14061517Y-8779758D01*
X14060000Y-8773816D01*
X14060000Y-8602950D01*
X14061968Y-8596246D01*
X14067249Y-8591671D01*
X14072400Y-8590550D01*
X14174864Y-8590550D01*
X14175056Y-8590540D01*
X14178130Y-8590375D01*
X14180765Y-8590092D01*
X14181466Y-8590008D01*
X14192141Y-8586530D01*
X14198273Y-8583181D01*
X14205234Y-8577970D01*
X14209572Y-8573632D01*
X14215704Y-8570283D01*
X14218340Y-8570000D01*
X14254463Y-8570000D01*
X14257956Y-8570502D01*
G37*
%TD.AperFunction*%
%TD*%
%TA.AperFunction,Conductor*%
%TO.N,GND*%
G36*
X13532614Y-10559963D02*
G01*
X13536941Y-10564289D01*
X13538020Y-10568784D01*
X13538020Y-10571308D01*
X13537683Y-10573871D01*
X13534950Y-10584069D01*
X13534950Y-10615168D01*
X13534465Y-10618228D01*
X13533711Y-10620550D01*
X13531296Y-10624491D01*
X13507121Y-10648666D01*
X13507121Y-10648666D01*
X13505213Y-10650969D01*
X13505200Y-10650989D01*
X13504022Y-10652485D01*
X13502284Y-10654303D01*
X13497692Y-10657023D01*
X13488752Y-10659419D01*
X13488752Y-10659419D01*
X13488751Y-10659419D01*
X13488751Y-10659419D01*
X13488751Y-10659420D01*
X13488749Y-10659420D01*
X13476199Y-10666666D01*
X13476199Y-10666666D01*
X13476199Y-10666666D01*
X13465949Y-10676917D01*
X13465949Y-10676917D01*
X13465948Y-10676917D01*
X13458702Y-10689468D01*
X13454950Y-10703470D01*
X13454950Y-10717965D01*
X13455447Y-10719821D01*
X13455771Y-10722902D01*
X13455701Y-10724234D01*
X13453509Y-10729945D01*
X13452813Y-10730804D01*
X13450859Y-10732473D01*
X13450924Y-10732557D01*
X13450409Y-10732952D01*
X13405951Y-10777410D01*
X13400680Y-10786540D01*
X13398909Y-10793147D01*
X13397950Y-10796727D01*
X13397950Y-10810912D01*
X13397465Y-10813971D01*
X13396795Y-10816034D01*
X13393259Y-10820940D01*
X13392500Y-10821500D01*
X13392499Y-10821501D01*
X13384615Y-10832184D01*
X13384615Y-10832184D01*
X13380229Y-10844717D01*
X13380229Y-10844717D01*
X13380229Y-10844719D01*
X13379950Y-10847692D01*
X13379950Y-10892308D01*
X13380229Y-10895281D01*
X13380229Y-10895283D01*
X13380229Y-10895283D01*
X13383560Y-10904803D01*
X13383705Y-10905249D01*
X13384704Y-10908608D01*
X13384656Y-10908633D01*
X13385163Y-10910149D01*
X13385211Y-10910309D01*
X13385138Y-10913208D01*
X13385163Y-10916112D01*
X13384930Y-10916851D01*
X13382489Y-10920871D01*
X13278735Y-11024626D01*
X13278358Y-11024983D01*
X13275095Y-11027920D01*
X13270532Y-11030245D01*
X13270119Y-11030333D01*
X13268059Y-11030550D01*
X13255077Y-11030550D01*
X13254888Y-11030576D01*
X13252601Y-11030841D01*
X13242324Y-11035379D01*
X13242323Y-11035379D01*
X13242323Y-11035379D01*
X13234379Y-11043324D01*
X13234379Y-11043324D01*
X13234379Y-11043324D01*
X13232876Y-11046727D01*
X13231197Y-11049330D01*
X13230308Y-11050324D01*
X13225020Y-11053399D01*
X13224785Y-11053450D01*
X13219649Y-11053193D01*
X13219233Y-11053058D01*
X13217329Y-11052212D01*
X13211249Y-11048702D01*
X13211249Y-11048702D01*
X13211249Y-11048702D01*
X13201292Y-11046034D01*
X13201292Y-11046034D01*
X13198331Y-11045240D01*
X13197247Y-11044950D01*
X13197247Y-11044950D01*
X13182753Y-11044950D01*
X13182752Y-11044950D01*
X13180294Y-11045609D01*
X13179965Y-11045697D01*
X13179965Y-11045697D01*
X13179026Y-11045948D01*
X13175946Y-11046272D01*
X13174717Y-11046208D01*
X13169005Y-11044015D01*
X13165743Y-11039132D01*
X13165458Y-11038167D01*
X13165050Y-11035356D01*
X13165050Y-11032258D01*
X13165534Y-11029199D01*
X13165805Y-11028366D01*
X13166289Y-11026876D01*
X13168704Y-11022935D01*
X13232048Y-10959591D01*
X13237321Y-10950459D01*
X13240050Y-10940273D01*
X13240050Y-10929727D01*
X13240050Y-10848522D01*
X13240534Y-10845463D01*
X13240833Y-10844543D01*
X13241289Y-10843140D01*
X13243704Y-10839199D01*
X13521120Y-10561783D01*
X13526571Y-10559006D01*
X13532614Y-10559963D01*
G37*
%TD.AperFunction*%
%TA.AperFunction,Conductor*%
G36*
X14139617Y-10379852D02*
G01*
X14140122Y-10379745D01*
X14142483Y-10380795D01*
X14144938Y-10381603D01*
X14145453Y-10382116D01*
X14145712Y-10382232D01*
X14145907Y-10382569D01*
X14147063Y-10383723D01*
X14147219Y-10383934D01*
X14148672Y-10386776D01*
X14148696Y-10386852D01*
X14149059Y-10388402D01*
X14149452Y-10391009D01*
X14149555Y-10391222D01*
X14149557Y-10391228D01*
X14149692Y-10391507D01*
X14149692Y-10391507D01*
X14153842Y-10400125D01*
X14155214Y-10402973D01*
X14157120Y-10405274D01*
X14157121Y-10405275D01*
X14164883Y-10413037D01*
X14166703Y-10415543D01*
X14167812Y-10417718D01*
X14168891Y-10422213D01*
X14168891Y-10441422D01*
X14169906Y-10445209D01*
X14169906Y-10445209D01*
X14170930Y-10449030D01*
X14170930Y-10449030D01*
X14171961Y-10452880D01*
X14177891Y-10463151D01*
X14177891Y-10463152D01*
X14177892Y-10463152D01*
X14177892Y-10463153D01*
X14180052Y-10465313D01*
X14181120Y-10466380D01*
X14182693Y-10468431D01*
X14183952Y-10470611D01*
X14184941Y-10472998D01*
X14185589Y-10475417D01*
X14187152Y-10481249D01*
X14187152Y-10481249D01*
X14187152Y-10481249D01*
X14187152Y-10481250D01*
X14194399Y-10493801D01*
X14194399Y-10493801D01*
X14194399Y-10493801D01*
X14194399Y-10493802D01*
X14204648Y-10504051D01*
X14204649Y-10504051D01*
X14204649Y-10504051D01*
X14204704Y-10504091D01*
X14204904Y-10504198D01*
X14217201Y-10511298D01*
X14217201Y-10511298D01*
X14217201Y-10511298D01*
X14231202Y-10515050D01*
X14231203Y-10515050D01*
X14236882Y-10515050D01*
X14239941Y-10515534D01*
X14241209Y-10515947D01*
X14246159Y-10519543D01*
X14246160Y-10519543D01*
X14246459Y-10519955D01*
X14248350Y-10525774D01*
X14248350Y-10555965D01*
X14249479Y-10560179D01*
X14249479Y-10560179D01*
X14249479Y-10560179D01*
X14251079Y-10566151D01*
X14251079Y-10566151D01*
X14254809Y-10572611D01*
X14254809Y-10572611D01*
X14254809Y-10572611D01*
X14256352Y-10575284D01*
X14256352Y-10575284D01*
X14256352Y-10575284D01*
X14279341Y-10598273D01*
X14281162Y-10600779D01*
X14282271Y-10602955D01*
X14283350Y-10607449D01*
X14283350Y-10795468D01*
X14283688Y-10796727D01*
X14283688Y-10796728D01*
X14286079Y-10805654D01*
X14289109Y-10810901D01*
X14291352Y-10814786D01*
X14291352Y-10814786D01*
X14303602Y-10827036D01*
X14314341Y-10837775D01*
X14316162Y-10840281D01*
X14317271Y-10842457D01*
X14318350Y-10846952D01*
X14318350Y-11022669D01*
X14317865Y-11025729D01*
X14317610Y-11026513D01*
X14314014Y-11031463D01*
X14308194Y-11033353D01*
X14302377Y-11031463D01*
X14302234Y-11031359D01*
X14299374Y-11028114D01*
X14298732Y-11026945D01*
X14297974Y-11026435D01*
X14297882Y-11026316D01*
X14290292Y-11016308D01*
X14290292Y-11016307D01*
X14278773Y-11007573D01*
X14278640Y-11007456D01*
X14278234Y-11007164D01*
X14278234Y-11007164D01*
X14265578Y-11002173D01*
X14264156Y-11001612D01*
X14255311Y-11000550D01*
X14255311Y-11000550D01*
X14255310Y-11000550D01*
X14217829Y-11000550D01*
X14214770Y-11000065D01*
X14213831Y-10999760D01*
X14212701Y-10999393D01*
X14208815Y-10996570D01*
X14208612Y-10996773D01*
X14208048Y-10996209D01*
X14208048Y-10996209D01*
X14129422Y-10917583D01*
X14127601Y-10915077D01*
X14126830Y-10913563D01*
X14125791Y-10908181D01*
X14125859Y-10907425D01*
X14126374Y-10905045D01*
X14127130Y-10902887D01*
X14129371Y-10896482D01*
X14129650Y-10893507D01*
X14129650Y-10848893D01*
X14129650Y-10848893D01*
X14129649Y-10848880D01*
X14129414Y-10846378D01*
X14129401Y-10846094D01*
X14129371Y-10845918D01*
X14124985Y-10833384D01*
X14124100Y-10832185D01*
X14124100Y-10832184D01*
X14122915Y-10830580D01*
X14121489Y-10827831D01*
X14121041Y-10826486D01*
X14120558Y-10825036D01*
X14120050Y-10821907D01*
X14120050Y-10412285D01*
X14120050Y-10412279D01*
X14120050Y-10403138D01*
X14120064Y-10402622D01*
X14120324Y-10397637D01*
X14121907Y-10392762D01*
X14122138Y-10392406D01*
X14123441Y-10390798D01*
X14127289Y-10386950D01*
X14131042Y-10383196D01*
X14133089Y-10381625D01*
X14133314Y-10381495D01*
X14133579Y-10381360D01*
X14133624Y-10381316D01*
X14134137Y-10381019D01*
X14136666Y-10380481D01*
X14139126Y-10379691D01*
X14139617Y-10379852D01*
G37*
%TD.AperFunction*%
%TA.AperFunction,Conductor*%
G36*
X13822863Y-9635443D02*
G01*
X13826539Y-9640329D01*
X13826619Y-9640559D01*
X13827034Y-9645328D01*
X13827019Y-9645423D01*
X13826605Y-9647087D01*
X13824945Y-9651921D01*
X13824945Y-9664453D01*
X13829014Y-9676306D01*
X13829015Y-9676306D01*
X13829357Y-9676781D01*
X13829442Y-9676880D01*
X13833423Y-9682218D01*
X13833423Y-9682219D01*
X13833424Y-9682219D01*
X13849070Y-9697865D01*
X13849070Y-9697866D01*
X13849071Y-9697866D01*
X13849144Y-9697926D01*
X13849278Y-9698021D01*
X13851396Y-9699600D01*
X13851865Y-9699949D01*
X13854983Y-9702275D01*
X13854983Y-9702275D01*
X13855910Y-9702593D01*
X13858646Y-9704044D01*
X13860410Y-9705371D01*
X13863823Y-9710068D01*
X13864370Y-9711661D01*
X13864370Y-9711662D01*
X13864370Y-9711662D01*
X13868779Y-9717574D01*
X13868779Y-9717574D01*
X13868779Y-9717575D01*
X13884425Y-9733221D01*
X13884426Y-9733221D01*
X13884426Y-9733221D01*
X13884500Y-9733282D01*
X13884634Y-9733377D01*
X13888419Y-9736199D01*
X13890338Y-9737630D01*
X13890338Y-9737630D01*
X13891817Y-9738137D01*
X13892341Y-9738389D01*
X13892645Y-9738680D01*
X13894002Y-9739400D01*
X13895765Y-9740726D01*
X13899178Y-9745423D01*
X13899725Y-9747016D01*
X13899725Y-9747017D01*
X13899725Y-9747017D01*
X13899725Y-9747017D01*
X13904134Y-9752929D01*
X13904134Y-9752929D01*
X13904134Y-9752930D01*
X13919781Y-9768576D01*
X13919781Y-9768576D01*
X13919781Y-9768577D01*
X13919855Y-9768637D01*
X13919989Y-9768732D01*
X13922074Y-9770286D01*
X13925693Y-9772985D01*
X13925694Y-9772985D01*
X13927172Y-9773493D01*
X13927696Y-9773745D01*
X13928001Y-9774036D01*
X13929357Y-9774755D01*
X13931121Y-9776082D01*
X13934533Y-9780779D01*
X13935080Y-9782372D01*
X13935080Y-9782372D01*
X13935081Y-9782372D01*
X13935081Y-9782372D01*
X13939489Y-9788284D01*
X13939489Y-9788285D01*
X13939490Y-9788285D01*
X13955136Y-9803931D01*
X13955136Y-9803932D01*
X13955137Y-9803932D01*
X13955211Y-9803993D01*
X13955345Y-9804087D01*
X13959121Y-9806903D01*
X13959121Y-9806903D01*
X13959122Y-9806904D01*
X13961049Y-9808341D01*
X13961049Y-9808341D01*
X13961049Y-9808341D01*
X13961976Y-9808659D01*
X13964712Y-9810110D01*
X13966476Y-9811437D01*
X13969889Y-9816134D01*
X13970436Y-9817727D01*
X13970436Y-9817728D01*
X13970436Y-9817728D01*
X13974845Y-9823640D01*
X13974845Y-9823640D01*
X13974845Y-9823641D01*
X13990491Y-9839287D01*
X13990492Y-9839287D01*
X13990492Y-9839287D01*
X13990566Y-9839348D01*
X13990700Y-9839443D01*
X13992024Y-9840430D01*
X13996404Y-9843696D01*
X13996404Y-9843696D01*
X13997883Y-9844203D01*
X13998407Y-9844455D01*
X13998711Y-9844746D01*
X14000068Y-9845466D01*
X14001831Y-9846792D01*
X14005244Y-9851490D01*
X14005791Y-9853083D01*
X14005792Y-9853084D01*
X14010200Y-9858995D01*
X14010200Y-9858995D01*
X14010200Y-9858995D01*
X14010200Y-9858996D01*
X14025847Y-9874642D01*
X14025847Y-9874642D01*
X14025847Y-9874643D01*
X14025921Y-9874703D01*
X14026055Y-9874798D01*
X14030926Y-9878430D01*
X14031759Y-9879051D01*
X14031760Y-9879051D01*
X14033238Y-9879559D01*
X14033762Y-9879811D01*
X14034067Y-9880102D01*
X14035423Y-9880821D01*
X14037187Y-9882148D01*
X14040599Y-9886844D01*
X14040880Y-9887661D01*
X14040880Y-9887662D01*
X14040880Y-9887662D01*
X14041147Y-9888438D01*
X14045555Y-9894350D01*
X14045555Y-9894350D01*
X14045555Y-9894351D01*
X14045556Y-9894351D01*
X14061202Y-9909997D01*
X14061202Y-9909998D01*
X14061203Y-9909998D01*
X14061276Y-9910058D01*
X14061411Y-9910153D01*
X14063461Y-9911682D01*
X14063461Y-9911682D01*
X14067115Y-9914406D01*
X14067115Y-9914407D01*
X14068042Y-9914725D01*
X14070778Y-9916176D01*
X14072542Y-9917503D01*
X14075955Y-9922200D01*
X14076502Y-9923793D01*
X14076502Y-9923794D01*
X14080910Y-9929706D01*
X14080911Y-9929706D01*
X14080911Y-9929706D01*
X14080911Y-9929707D01*
X14096557Y-9945353D01*
X14096558Y-9945353D01*
X14096558Y-9945353D01*
X14096632Y-9945414D01*
X14096766Y-9945509D01*
X14102470Y-9949762D01*
X14102470Y-9949762D01*
X14103949Y-9950269D01*
X14104473Y-9950521D01*
X14104777Y-9950812D01*
X14106134Y-9951532D01*
X14107897Y-9952858D01*
X14111310Y-9957556D01*
X14111857Y-9959149D01*
X14111858Y-9959150D01*
X14116266Y-9965061D01*
X14116266Y-9965061D01*
X14116266Y-9965061D01*
X14116266Y-9965062D01*
X14131913Y-9980708D01*
X14131913Y-9980708D01*
X14131913Y-9980709D01*
X14131986Y-9980769D01*
X14132121Y-9980864D01*
X14133710Y-9982048D01*
X14137826Y-9985117D01*
X14137826Y-9985117D01*
X14138753Y-9985436D01*
X14141489Y-9986887D01*
X14143253Y-9988213D01*
X14146666Y-9992911D01*
X14147091Y-9994150D01*
X14147213Y-9994504D01*
X14151621Y-10000417D01*
X14151622Y-10000417D01*
X14151622Y-10000417D01*
X14167268Y-10016064D01*
X14167268Y-10016064D01*
X14167269Y-10016064D01*
X14167342Y-10016124D01*
X14167476Y-10016218D01*
X14171033Y-10018871D01*
X14171033Y-10018871D01*
X14171033Y-10018871D01*
X14173181Y-10020473D01*
X14173181Y-10020473D01*
X14173181Y-10020473D01*
X14185034Y-10024542D01*
X14197566Y-10024542D01*
X14209419Y-10020473D01*
X14215332Y-10016064D01*
X14276090Y-9955305D01*
X14278595Y-9953485D01*
X14279784Y-9952879D01*
X14285827Y-9951922D01*
X14286330Y-9952002D01*
X14291782Y-9954780D01*
X14310941Y-9973939D01*
X14312762Y-9976445D01*
X14313871Y-9978621D01*
X14314950Y-9983116D01*
X14314950Y-10127529D01*
X14314465Y-10130588D01*
X14314127Y-10131628D01*
X14310531Y-10136578D01*
X14304712Y-10138469D01*
X14299539Y-10137010D01*
X14299049Y-10136709D01*
X14297221Y-10135269D01*
X14262003Y-10100050D01*
X14215332Y-10053380D01*
X14215332Y-10053379D01*
X14215331Y-10053379D01*
X14215331Y-10053379D01*
X14209994Y-10049399D01*
X14209895Y-10049314D01*
X14209419Y-10048971D01*
X14209419Y-10048970D01*
X14209419Y-10048970D01*
X14203107Y-10046804D01*
X14197566Y-10044901D01*
X14197566Y-10044901D01*
X14185034Y-10044901D01*
X14185034Y-10044901D01*
X14173181Y-10048970D01*
X14173181Y-10048970D01*
X14173181Y-10048970D01*
X14173181Y-10048971D01*
X14171210Y-10050440D01*
X14167268Y-10053379D01*
X14151621Y-10069026D01*
X14148126Y-10073713D01*
X14148126Y-10073714D01*
X14147213Y-10074939D01*
X14147213Y-10074939D01*
X14146659Y-10076552D01*
X14146325Y-10077198D01*
X14146036Y-10077483D01*
X14145442Y-10078602D01*
X14144116Y-10080366D01*
X14139419Y-10083779D01*
X14137826Y-10084325D01*
X14137541Y-10084504D01*
X14137251Y-10084754D01*
X14131913Y-10088734D01*
X14116266Y-10104382D01*
X14111858Y-10110294D01*
X14111857Y-10110294D01*
X14111539Y-10111222D01*
X14110087Y-10113958D01*
X14108761Y-10115721D01*
X14104064Y-10119134D01*
X14102471Y-10119681D01*
X14102470Y-10119681D01*
X14096558Y-10124089D01*
X14080910Y-10139737D01*
X14077416Y-10144424D01*
X14077415Y-10144425D01*
X14076502Y-10145649D01*
X14076502Y-10145650D01*
X14075948Y-10147263D01*
X14075614Y-10147909D01*
X14075325Y-10148194D01*
X14074732Y-10149313D01*
X14073405Y-10151077D01*
X14068708Y-10154489D01*
X14067115Y-10155036D01*
X14066830Y-10155214D01*
X14066540Y-10155465D01*
X14061202Y-10159445D01*
X14045556Y-10175092D01*
X14045400Y-10175301D01*
X14041147Y-10181005D01*
X14041147Y-10181005D01*
X14041147Y-10181005D01*
X14039471Y-10185886D01*
X14039451Y-10185943D01*
X14039450Y-10185946D01*
X14037077Y-10192858D01*
X14037077Y-10205390D01*
X14038508Y-10209556D01*
X14038569Y-10213268D01*
X14038766Y-10216067D01*
X14035525Y-10221257D01*
X14029853Y-10223551D01*
X14023916Y-10222073D01*
X14023504Y-10221816D01*
X14021747Y-10220419D01*
X13803343Y-10002015D01*
X13801522Y-9999509D01*
X13800414Y-9997333D01*
X13799335Y-9992838D01*
X13799335Y-9668605D01*
X13799672Y-9666044D01*
X13800324Y-9663610D01*
X13801291Y-9661276D01*
X13801298Y-9661249D01*
X13801298Y-9661249D01*
X13801298Y-9661249D01*
X13805050Y-9647248D01*
X13805050Y-9645508D01*
X13805532Y-9642457D01*
X13805900Y-9641325D01*
X13805903Y-9641310D01*
X13805956Y-9641146D01*
X13807656Y-9638803D01*
X13809272Y-9636402D01*
X13809453Y-9636264D01*
X13809467Y-9636253D01*
X13809469Y-9636252D01*
X13809532Y-9636199D01*
X13809798Y-9635978D01*
X13812715Y-9634295D01*
X13812777Y-9634272D01*
X13816030Y-9633665D01*
X13817014Y-9633649D01*
X13822863Y-9635443D01*
G37*
%TD.AperFunction*%
%TA.AperFunction,Conductor*%
G36*
X13932959Y-8221375D02*
G01*
X13933638Y-8222449D01*
X13936819Y-8228273D01*
X13942030Y-8235234D01*
X13976550Y-8269755D01*
X13979328Y-8275206D01*
X13979374Y-8275535D01*
X13979450Y-8276143D01*
X13979450Y-8278980D01*
X13980490Y-8286882D01*
X13981038Y-8288930D01*
X13981123Y-8289610D01*
X13981082Y-8289820D01*
X13984163Y-8301315D01*
X13984500Y-8303878D01*
X13984500Y-8307722D01*
X13984163Y-8310284D01*
X13982309Y-8317202D01*
X13982308Y-8317204D01*
X13982140Y-8317833D01*
X13981805Y-8318761D01*
X13981617Y-8320380D01*
X13981513Y-8320858D01*
X13981478Y-8320919D01*
X13981402Y-8321316D01*
X13980493Y-8324706D01*
X13980492Y-8324707D01*
X13979966Y-8328706D01*
X13977331Y-8334228D01*
X13975465Y-8335765D01*
X13889342Y-8390571D01*
X13889340Y-8390573D01*
X13884189Y-8394695D01*
X13884188Y-8394696D01*
X13880414Y-8398453D01*
X13880414Y-8398454D01*
X13877745Y-8401488D01*
X13872656Y-8411495D01*
X13872656Y-8411496D01*
X13870688Y-8418199D01*
X13870687Y-8418200D01*
X13869450Y-8426807D01*
X13869450Y-8534864D01*
X13869625Y-8538128D01*
X13869625Y-8538130D01*
X13869909Y-8540769D01*
X13869992Y-8541465D01*
X13869992Y-8541467D01*
X13873470Y-8552141D01*
X13873471Y-8552141D01*
X13876818Y-8558272D01*
X13876818Y-8558273D01*
X13878045Y-8559911D01*
X13882030Y-8565234D01*
X13894766Y-8577970D01*
X13894767Y-8577971D01*
X13894768Y-8577972D01*
X13897198Y-8580155D01*
X13897199Y-8580156D01*
X13899263Y-8581819D01*
X13899817Y-8582255D01*
X13909825Y-8587344D01*
X13909825Y-8587344D01*
X13909825Y-8587344D01*
X13915876Y-8589121D01*
X13916529Y-8589312D01*
X13925136Y-8590550D01*
X14019808Y-8590550D01*
X14025627Y-8592441D01*
X14029223Y-8597391D01*
X14029607Y-8601859D01*
X14029450Y-8602950D01*
X14029450Y-8773816D01*
X14029450Y-8773816D01*
X14030399Y-8781370D01*
X14031916Y-8787313D01*
X14031916Y-8787314D01*
X14034703Y-8794398D01*
X14034704Y-8794400D01*
X14035964Y-8796708D01*
X14038305Y-8800350D01*
X14038321Y-8800375D01*
X14040436Y-8803200D01*
X14041143Y-8804017D01*
X14043290Y-8806494D01*
X14043291Y-8806496D01*
X14071293Y-8834498D01*
X14073187Y-8837151D01*
X14073259Y-8837298D01*
X14074898Y-8840953D01*
X14075865Y-8842752D01*
X14075913Y-8842726D01*
X14076620Y-8844172D01*
X14076623Y-8844200D01*
X14076808Y-8844580D01*
X14076887Y-8844764D01*
X14077191Y-8845257D01*
X14077217Y-8845299D01*
X14077593Y-8845917D01*
X14077690Y-8846325D01*
X14078481Y-8847795D01*
X14078944Y-8849118D01*
X14079500Y-8852388D01*
X14079500Y-8887612D01*
X14078944Y-8890882D01*
X14078269Y-8892812D01*
X14077374Y-8894701D01*
X14075927Y-8897069D01*
X14074007Y-8900939D01*
X14072059Y-8905915D01*
X14071190Y-8908874D01*
X14071190Y-8908874D01*
X14070263Y-8913134D01*
X14070263Y-8913137D01*
X14069761Y-8916627D01*
X14069450Y-8920976D01*
X14069450Y-8933816D01*
X14069450Y-8933816D01*
X14070399Y-8941370D01*
X14071916Y-8947313D01*
X14071916Y-8947314D01*
X14074703Y-8954398D01*
X14074704Y-8954400D01*
X14075964Y-8956708D01*
X14078321Y-8960375D01*
X14080436Y-8963200D01*
X14083290Y-8966495D01*
X14094025Y-8977229D01*
X14100038Y-8981900D01*
X14105312Y-8985030D01*
X14112294Y-8988069D01*
X14113041Y-8988288D01*
X14114817Y-8988810D01*
X14114817Y-8988810D01*
X14114818Y-8988810D01*
X14119078Y-8989737D01*
X14119079Y-8989737D01*
X14119079Y-8989737D01*
X14121407Y-8990072D01*
X14122571Y-8990239D01*
X14126919Y-8990550D01*
X14263816Y-8990550D01*
X14263816Y-8990550D01*
X14270289Y-8989737D01*
X14271372Y-8989601D01*
X14277315Y-8988084D01*
X14284401Y-8985296D01*
X14286709Y-8984035D01*
X14290376Y-8981679D01*
X14293201Y-8979564D01*
X14296495Y-8976709D01*
X14298050Y-8975154D01*
X14303501Y-8972377D01*
X14309544Y-8973334D01*
X14313871Y-8977660D01*
X14314950Y-8982155D01*
X14314950Y-9162742D01*
X14314465Y-9165801D01*
X14313711Y-9168124D01*
X14311296Y-9172065D01*
X13960423Y-9522937D01*
X13957918Y-9524758D01*
X13956126Y-9525671D01*
X13950083Y-9526628D01*
X13948573Y-9526266D01*
X13948134Y-9526123D01*
X13943184Y-9522527D01*
X13941293Y-9516708D01*
X13942752Y-9511535D01*
X13943053Y-9511043D01*
X13944493Y-9509217D01*
X13956049Y-9497661D01*
X13961980Y-9487389D01*
X13962312Y-9486150D01*
X13965050Y-9475931D01*
X13965050Y-9444832D01*
X13965534Y-9441773D01*
X13966289Y-9439450D01*
X13968704Y-9435509D01*
X13982880Y-9421333D01*
X13984786Y-9419032D01*
X13990548Y-9407068D01*
X13990548Y-9407068D01*
X13990548Y-9407068D01*
X13990622Y-9406574D01*
X13990645Y-9406505D01*
X13990658Y-9406335D01*
X13992140Y-9396503D01*
X13993075Y-9393551D01*
X13994070Y-9391560D01*
X13997975Y-9387415D01*
X14003801Y-9384051D01*
X14014051Y-9373802D01*
X14021298Y-9361249D01*
X14025050Y-9347248D01*
X14025050Y-9332753D01*
X14021298Y-9318752D01*
X14021298Y-9318751D01*
X14021298Y-9318751D01*
X14021298Y-9318750D01*
X14021266Y-9318679D01*
X14021140Y-9318476D01*
X14014198Y-9306454D01*
X14014198Y-9306454D01*
X14014051Y-9306199D01*
X14014051Y-9306199D01*
X14014051Y-9306199D01*
X14003801Y-9295949D01*
X14003801Y-9295949D01*
X14003801Y-9295949D01*
X14003801Y-9295949D01*
X13996977Y-9292009D01*
X13994874Y-9289673D01*
X13984528Y-9286901D01*
X13984524Y-9286900D01*
X13977247Y-9284950D01*
X13977247Y-9284950D01*
X13962753Y-9284950D01*
X13962752Y-9284950D01*
X13961516Y-9285281D01*
X13961512Y-9285282D01*
X13948750Y-9288702D01*
X13936199Y-9295948D01*
X13925949Y-9306199D01*
X13925949Y-9306199D01*
X13925896Y-9306290D01*
X13925895Y-9306292D01*
X13920258Y-9316055D01*
X13920163Y-9316140D01*
X13916831Y-9321911D01*
X13915258Y-9323960D01*
X13895327Y-9343891D01*
X13886009Y-9353209D01*
X13886008Y-9353210D01*
X13886008Y-9353210D01*
X13885885Y-9353423D01*
X13885167Y-9354499D01*
X13884384Y-9355519D01*
X13883530Y-9356492D01*
X13869239Y-9370784D01*
X13867331Y-9373086D01*
X13861601Y-9384984D01*
X13861571Y-9385046D01*
X13861570Y-9385050D01*
X13859591Y-9398179D01*
X13859591Y-9398181D01*
X13861570Y-9411310D01*
X13861571Y-9411314D01*
X13861600Y-9411373D01*
X13863729Y-9415794D01*
X13864811Y-9418041D01*
X13867332Y-9423275D01*
X13869238Y-9425576D01*
X13869238Y-9425576D01*
X13870942Y-9427280D01*
X13872762Y-9429785D01*
X13873871Y-9431961D01*
X13874950Y-9436456D01*
X13874950Y-9445671D01*
X13874465Y-9448730D01*
X13873711Y-9451053D01*
X13871296Y-9454994D01*
X13862724Y-9463565D01*
X13862593Y-9463694D01*
X13862400Y-9463880D01*
X13861712Y-9464475D01*
X13861715Y-9464479D01*
X13861445Y-9464713D01*
X13859043Y-9467115D01*
X13859040Y-9467117D01*
X13762713Y-9563445D01*
X13760531Y-9566370D01*
X13758304Y-9569357D01*
X13758304Y-9569357D01*
X13758304Y-9569357D01*
X13756621Y-9574259D01*
X13756602Y-9574315D01*
X13756599Y-9574322D01*
X13755755Y-9576782D01*
X13754304Y-9579518D01*
X13753475Y-9580620D01*
X13748545Y-9584109D01*
X13747338Y-9584490D01*
X13744356Y-9584950D01*
X13743796Y-9584950D01*
X13740736Y-9584465D01*
X13739425Y-9584039D01*
X13734523Y-9580509D01*
X13733771Y-9579491D01*
X13732368Y-9576821D01*
X13729806Y-9569358D01*
X13729806Y-9569357D01*
X13727579Y-9566370D01*
X13727579Y-9566370D01*
X13725554Y-9563654D01*
X13725554Y-9563654D01*
X13725398Y-9563445D01*
X13725397Y-9563445D01*
X13725397Y-9563444D01*
X13626666Y-9464713D01*
X13626665Y-9464713D01*
X13626665Y-9464713D01*
X13626665Y-9464712D01*
X13622907Y-9461910D01*
X13622426Y-9461230D01*
X13618347Y-9458684D01*
X13616589Y-9457286D01*
X13611061Y-9451758D01*
X13609241Y-9449253D01*
X13608132Y-9447076D01*
X13607053Y-9442582D01*
X13607053Y-9442092D01*
X13607053Y-9442092D01*
X13605808Y-9437445D01*
X13605808Y-9437444D01*
X13605808Y-9437444D01*
X13604554Y-9432768D01*
X13603301Y-9428091D01*
X13603301Y-9428091D01*
X13603301Y-9428091D01*
X13603301Y-9428090D01*
X13603269Y-9428019D01*
X13603143Y-9427816D01*
X13596201Y-9415793D01*
X13596201Y-9415794D01*
X13596054Y-9415538D01*
X13596054Y-9415538D01*
X13596054Y-9415538D01*
X13585804Y-9405289D01*
X13585804Y-9405288D01*
X13585804Y-9405288D01*
X13585804Y-9405288D01*
X13578980Y-9401349D01*
X13576877Y-9399013D01*
X13569710Y-9397092D01*
X13567512Y-9396503D01*
X13560670Y-9394670D01*
X13558969Y-9394042D01*
X13558682Y-9393905D01*
X13558682Y-9393905D01*
X13557134Y-9393166D01*
X13552696Y-9388954D01*
X13551582Y-9382938D01*
X13551617Y-9382677D01*
X13553351Y-9378253D01*
X13553388Y-9378200D01*
X13554466Y-9376921D01*
X13749548Y-9181840D01*
X13749548Y-9181840D01*
X13753055Y-9175767D01*
X13754099Y-9173957D01*
X13754821Y-9172708D01*
X13757550Y-9162522D01*
X13757550Y-8376180D01*
X13758035Y-8373120D01*
X13758387Y-8372036D01*
X13761983Y-8367087D01*
X13767802Y-8365196D01*
X13768834Y-8365196D01*
X13772104Y-8365752D01*
X13777312Y-8367574D01*
X13780254Y-8367850D01*
X13817746Y-8367850D01*
X13817746Y-8367850D01*
X13818565Y-8367773D01*
X13820688Y-8367574D01*
X13833079Y-8363238D01*
X13837919Y-8359666D01*
X13842956Y-8355949D01*
X13843265Y-8355759D01*
X13843400Y-8355646D01*
X13843619Y-8355473D01*
X13843642Y-8355442D01*
X13843642Y-8355442D01*
X13844485Y-8354300D01*
X13851186Y-8345221D01*
X13851720Y-8344559D01*
X13852067Y-8344164D01*
X13852324Y-8343679D01*
X13852526Y-8343405D01*
X13852401Y-8342591D01*
X13852828Y-8340906D01*
X13853056Y-8340255D01*
X13855774Y-8332488D01*
X13856050Y-8329546D01*
X13856050Y-8311058D01*
X13856534Y-8307999D01*
X13857289Y-8305676D01*
X13859704Y-8301735D01*
X13880921Y-8280518D01*
X13880922Y-8280518D01*
X13907048Y-8254391D01*
X13908532Y-8251821D01*
X13912321Y-8245259D01*
X13915050Y-8235073D01*
X13915050Y-8227194D01*
X13916941Y-8221375D01*
X13921891Y-8217779D01*
X13928009Y-8217779D01*
X13932959Y-8221375D01*
G37*
%TD.AperFunction*%
%TA.AperFunction,Conductor*%
G36*
X14350316Y-9322802D02*
G01*
X14352942Y-9327490D01*
X14353076Y-9328050D01*
X14352941Y-9329773D01*
X14353216Y-9329773D01*
X14353350Y-9374922D01*
X14352865Y-9378011D01*
X14352111Y-9380334D01*
X14349696Y-9384275D01*
X14279372Y-9454598D01*
X14276867Y-9456419D01*
X14275678Y-9457024D01*
X14269635Y-9457981D01*
X14269635Y-9457981D01*
X14269132Y-9457902D01*
X14263680Y-9455124D01*
X14246000Y-9437445D01*
X14241706Y-9433151D01*
X14239886Y-9430645D01*
X14239280Y-9429456D01*
X14238323Y-9423413D01*
X14238403Y-9422910D01*
X14241180Y-9417458D01*
X14335341Y-9323298D01*
X14337846Y-9321478D01*
X14338822Y-9320981D01*
X14344864Y-9320024D01*
X14350316Y-9322802D01*
G37*
%TD.AperFunction*%
%TA.AperFunction,Conductor*%
G36*
X13080801Y-7340534D02*
G01*
X13082035Y-7340935D01*
X13083124Y-7341289D01*
X13087065Y-7343704D01*
X13275409Y-7532048D01*
X13275409Y-7532048D01*
X13275409Y-7532048D01*
X13275464Y-7532088D01*
X13275664Y-7532196D01*
X13278864Y-7534043D01*
X13281023Y-7536441D01*
X13284456Y-7537299D01*
X13284616Y-7537341D01*
X13294727Y-7540050D01*
X13294727Y-7540050D01*
X14205272Y-7540050D01*
X14205273Y-7540050D01*
X14215459Y-7537321D01*
X14215459Y-7537320D01*
X14215459Y-7537320D01*
X14223978Y-7532402D01*
X14224266Y-7532262D01*
X14224344Y-7532211D01*
X14224846Y-7531901D01*
X14224976Y-7531826D01*
X14225511Y-7531128D01*
X14412581Y-7344058D01*
X14415086Y-7342238D01*
X14417263Y-7341129D01*
X14421757Y-7340050D01*
X14799166Y-7340050D01*
X14799720Y-7340065D01*
X14800130Y-7340088D01*
X14800275Y-7340097D01*
X14800829Y-7340143D01*
X14807048Y-7340844D01*
X14811680Y-7341366D01*
X14812774Y-7341552D01*
X14813850Y-7341798D01*
X14814916Y-7342105D01*
X14822291Y-7344685D01*
X14824433Y-7345435D01*
X14825459Y-7345859D01*
X14826455Y-7346339D01*
X14827426Y-7346876D01*
X14835964Y-7352241D01*
X14836867Y-7352882D01*
X14837730Y-7353570D01*
X14837732Y-7353571D01*
X14838559Y-7354310D01*
X14845689Y-7361440D01*
X14846429Y-7362268D01*
X14847117Y-7363131D01*
X14847759Y-7364036D01*
X14853123Y-7372573D01*
X14853660Y-7373545D01*
X14854140Y-7374541D01*
X14854565Y-7375566D01*
X14857895Y-7385082D01*
X14858202Y-7386149D01*
X14858448Y-7387227D01*
X14858634Y-7388321D01*
X14859856Y-7399170D01*
X14859903Y-7399723D01*
X14859934Y-7400277D01*
X14859950Y-7400833D01*
X14859950Y-12499166D01*
X14859934Y-12499723D01*
X14859903Y-12500277D01*
X14859856Y-12500829D01*
X14858634Y-12511678D01*
X14858448Y-12512773D01*
X14858202Y-12513851D01*
X14857895Y-12514918D01*
X14854565Y-12524433D01*
X14854140Y-12525459D01*
X14853660Y-12526455D01*
X14853123Y-12527427D01*
X14847760Y-12535963D01*
X14847117Y-12536868D01*
X14846429Y-12537732D01*
X14845689Y-12538559D01*
X14838559Y-12545689D01*
X14837732Y-12546429D01*
X14836868Y-12547117D01*
X14835963Y-12547760D01*
X14827427Y-12553123D01*
X14826455Y-12553660D01*
X14825459Y-12554140D01*
X14824433Y-12554565D01*
X14814918Y-12557895D01*
X14813851Y-12558202D01*
X14812773Y-12558448D01*
X14811678Y-12558634D01*
X14800829Y-12559856D01*
X14800277Y-12559903D01*
X14799721Y-12559934D01*
X14799166Y-12559950D01*
X12700833Y-12559950D01*
X12700279Y-12559934D01*
X12699723Y-12559903D01*
X12699170Y-12559856D01*
X12688321Y-12558634D01*
X12687227Y-12558448D01*
X12686149Y-12558202D01*
X12685082Y-12557895D01*
X12675566Y-12554565D01*
X12674541Y-12554140D01*
X12673545Y-12553660D01*
X12672573Y-12553123D01*
X12664036Y-12547759D01*
X12663132Y-12547118D01*
X12662268Y-12546429D01*
X12661440Y-12545689D01*
X12654310Y-12538559D01*
X12653571Y-12537732D01*
X12652882Y-12536867D01*
X12652241Y-12535964D01*
X12646876Y-12527426D01*
X12646339Y-12526455D01*
X12645859Y-12525459D01*
X12645435Y-12524433D01*
X12642105Y-12514917D01*
X12641798Y-12513850D01*
X12641552Y-12512774D01*
X12641366Y-12511680D01*
X12640143Y-12500829D01*
X12640097Y-12500275D01*
X12640065Y-12499720D01*
X12640050Y-12499166D01*
X12640050Y-12386145D01*
X12864350Y-12386145D01*
X12864350Y-12404255D01*
X12867183Y-12422140D01*
X12867183Y-12422143D01*
X12867195Y-12422180D01*
X12872779Y-12439364D01*
X12881000Y-12455499D01*
X12891645Y-12470150D01*
X12904450Y-12482955D01*
X12919101Y-12493600D01*
X12935236Y-12501821D01*
X12944196Y-12504732D01*
X12952459Y-12507417D01*
X12952459Y-12507417D01*
X12952459Y-12507417D01*
X12959614Y-12508550D01*
X12961402Y-12508833D01*
X12970345Y-12510250D01*
X12988455Y-12510250D01*
X12988455Y-12510250D01*
X12994417Y-12509306D01*
X12997398Y-12508833D01*
X13002455Y-12508032D01*
X13006341Y-12507417D01*
X13006341Y-12507417D01*
X13006341Y-12507417D01*
X13023564Y-12501821D01*
X13039699Y-12493600D01*
X13054350Y-12482955D01*
X13067155Y-12470150D01*
X13077800Y-12455499D01*
X13086021Y-12439364D01*
X13091617Y-12422141D01*
X13093033Y-12413198D01*
X13094450Y-12404255D01*
X13094450Y-12386520D01*
X13094450Y-12386145D01*
X13094450Y-12386145D01*
X13094450Y-12386145D01*
X13245350Y-12386145D01*
X13245350Y-12404255D01*
X13248183Y-12422140D01*
X13248183Y-12422143D01*
X13248195Y-12422180D01*
X13253779Y-12439364D01*
X13262000Y-12455499D01*
X13272645Y-12470150D01*
X13285450Y-12482955D01*
X13300101Y-12493600D01*
X13316236Y-12501821D01*
X13325196Y-12504732D01*
X13333459Y-12507417D01*
X13333459Y-12507417D01*
X13333459Y-12507417D01*
X13340614Y-12508550D01*
X13342402Y-12508833D01*
X13351345Y-12510250D01*
X13369455Y-12510250D01*
X13369455Y-12510250D01*
X13375417Y-12509306D01*
X13378398Y-12508833D01*
X13383455Y-12508032D01*
X13387341Y-12507417D01*
X13387341Y-12507417D01*
X13387341Y-12507417D01*
X13404564Y-12501821D01*
X13420699Y-12493600D01*
X13435350Y-12482955D01*
X13448155Y-12470150D01*
X13458800Y-12455499D01*
X13467021Y-12439364D01*
X13472617Y-12422141D01*
X13474033Y-12413198D01*
X13475450Y-12404255D01*
X13475450Y-12386145D01*
X13472617Y-12368259D01*
X13472617Y-12368259D01*
X13467931Y-12353837D01*
X13467021Y-12351036D01*
X13458800Y-12334901D01*
X13448155Y-12320250D01*
X13435350Y-12307445D01*
X13435350Y-12307444D01*
X13421544Y-12297414D01*
X13421542Y-12297412D01*
X13420699Y-12296800D01*
X13420699Y-12296800D01*
X13420699Y-12296800D01*
X13420217Y-12296554D01*
X13420217Y-12296554D01*
X13404563Y-12288579D01*
X13387340Y-12282983D01*
X13369455Y-12280150D01*
X13369455Y-12280150D01*
X13369455Y-12280150D01*
X13351345Y-12280150D01*
X13351345Y-12280150D01*
X13351345Y-12280150D01*
X13333459Y-12282983D01*
X13316236Y-12288579D01*
X13300101Y-12296800D01*
X13295435Y-12300190D01*
X13285450Y-12307444D01*
X13272644Y-12320250D01*
X13267322Y-12327575D01*
X13262000Y-12334900D01*
X13262000Y-12334901D01*
X13253779Y-12351036D01*
X13248183Y-12368259D01*
X13245350Y-12386145D01*
X13094450Y-12386145D01*
X13091617Y-12368259D01*
X13091617Y-12368259D01*
X13086021Y-12351036D01*
X13077800Y-12334901D01*
X13067155Y-12320250D01*
X13054350Y-12307445D01*
X13054350Y-12307444D01*
X13040544Y-12297414D01*
X13040542Y-12297412D01*
X13039699Y-12296800D01*
X13039699Y-12296800D01*
X13039699Y-12296800D01*
X13039217Y-12296554D01*
X13039217Y-12296554D01*
X13023563Y-12288579D01*
X13006340Y-12282983D01*
X12988455Y-12280150D01*
X12988455Y-12280150D01*
X12988455Y-12280150D01*
X12970345Y-12280150D01*
X12970345Y-12280150D01*
X12970345Y-12280150D01*
X12952459Y-12282983D01*
X12935236Y-12288579D01*
X12919101Y-12296800D01*
X12914435Y-12300190D01*
X12904450Y-12307444D01*
X12891644Y-12320250D01*
X12886322Y-12327575D01*
X12881000Y-12334900D01*
X12881000Y-12334901D01*
X12872779Y-12351036D01*
X12867183Y-12368259D01*
X12864350Y-12386145D01*
X12640050Y-12386145D01*
X12640050Y-8503411D01*
X12719950Y-8503411D01*
X12719950Y-11671211D01*
X12719950Y-11684389D01*
X12719951Y-11684392D01*
X12722482Y-11693841D01*
X12722482Y-11693841D01*
X12723361Y-11697119D01*
X12723361Y-11697119D01*
X12723361Y-11697119D01*
X12729950Y-11708531D01*
X12729950Y-11708531D01*
X12729950Y-11708531D01*
X12765321Y-11743902D01*
X12865339Y-11843920D01*
X12867160Y-11846426D01*
X12867958Y-11847993D01*
X12869006Y-11853263D01*
X12868955Y-11853920D01*
X12868501Y-11856203D01*
X12867183Y-11860259D01*
X12864350Y-11878145D01*
X12864350Y-11896255D01*
X12867183Y-11914140D01*
X12869103Y-11920050D01*
X12872779Y-11931363D01*
X12872779Y-11931363D01*
X12872779Y-11931364D01*
X12881000Y-11947499D01*
X12891645Y-11962150D01*
X12904450Y-11974955D01*
X12919101Y-11985600D01*
X12935236Y-11993821D01*
X12944196Y-11996732D01*
X12952459Y-11999417D01*
X12952459Y-11999417D01*
X12952459Y-11999417D01*
X12959614Y-12000550D01*
X12961402Y-12000833D01*
X12970345Y-12002250D01*
X12988455Y-12002250D01*
X12988455Y-12002250D01*
X12994417Y-12001306D01*
X12997398Y-12000833D01*
X13002455Y-12000032D01*
X13006341Y-11999417D01*
X13006341Y-11999417D01*
X13006341Y-11999417D01*
X13023564Y-11993821D01*
X13039699Y-11985600D01*
X13054350Y-11974955D01*
X13067155Y-11962150D01*
X13077800Y-11947499D01*
X13086021Y-11931364D01*
X13091617Y-11914141D01*
X13091617Y-11914141D01*
X13091617Y-11914141D01*
X13092233Y-11910254D01*
X13092233Y-11910254D01*
X13093063Y-11905012D01*
X13266450Y-11905012D01*
X13266450Y-11905013D01*
X13266450Y-12018986D01*
X13266450Y-12018986D01*
X13266741Y-12021499D01*
X13267379Y-12022942D01*
X13267711Y-12023696D01*
X13267712Y-12023696D01*
X13271125Y-12031427D01*
X13271279Y-12031776D01*
X13279223Y-12039721D01*
X13289501Y-12044258D01*
X13292013Y-12044550D01*
X13365986Y-12044550D01*
X13368499Y-12044258D01*
X13378776Y-12039721D01*
X13386721Y-12031776D01*
X13391258Y-12021499D01*
X13391550Y-12018986D01*
X13391550Y-11905014D01*
X13391258Y-11902501D01*
X13386721Y-11892223D01*
X13386720Y-11892223D01*
X13386720Y-11892223D01*
X13386599Y-11892102D01*
X13384779Y-11889597D01*
X13383917Y-11887906D01*
X13382852Y-11882893D01*
X13382874Y-11882469D01*
X13383198Y-11880426D01*
X13383711Y-11878511D01*
X13383810Y-11878143D01*
X13384050Y-11877247D01*
X13384050Y-11862752D01*
X13380298Y-11848751D01*
X13380298Y-11848751D01*
X13380298Y-11848751D01*
X13380298Y-11848750D01*
X13380266Y-11848679D01*
X13380140Y-11848476D01*
X13373198Y-11836454D01*
X13373198Y-11836454D01*
X13373051Y-11836199D01*
X13373051Y-11836199D01*
X13373051Y-11836198D01*
X13362801Y-11825949D01*
X13362801Y-11825949D01*
X13362801Y-11825949D01*
X13355977Y-11822009D01*
X13353874Y-11819673D01*
X13347290Y-11817909D01*
X13347290Y-11817909D01*
X13336247Y-11814950D01*
X13336247Y-11814950D01*
X13321752Y-11814950D01*
X13315579Y-11816604D01*
X13315579Y-11816604D01*
X13307751Y-11818701D01*
X13307751Y-11818702D01*
X13295199Y-11825948D01*
X13284948Y-11836199D01*
X13277702Y-11848751D01*
X13277702Y-11848751D01*
X13276003Y-11855088D01*
X13276004Y-11855088D01*
X13273950Y-11862752D01*
X13273950Y-11877248D01*
X13274665Y-11879917D01*
X13274989Y-11882997D01*
X13274890Y-11884892D01*
X13273306Y-11889767D01*
X13273075Y-11890121D01*
X13271773Y-11891729D01*
X13271277Y-11892226D01*
X13271233Y-11892329D01*
X13266741Y-11902501D01*
X13266741Y-11902501D01*
X13266450Y-11905012D01*
X13093063Y-11905012D01*
X13093353Y-11903178D01*
X13093354Y-11903178D01*
X13093354Y-11903177D01*
X13093414Y-11902796D01*
X13093414Y-11902795D01*
X13094450Y-11896255D01*
X13094450Y-11878145D01*
X13094450Y-11878145D01*
X13091617Y-11860259D01*
X13091617Y-11860259D01*
X13089937Y-11855088D01*
X13086021Y-11843036D01*
X13077800Y-11826901D01*
X13067155Y-11812250D01*
X13054350Y-11799445D01*
X13054350Y-11799444D01*
X13040544Y-11789414D01*
X13040542Y-11789412D01*
X13039699Y-11788800D01*
X13039699Y-11788800D01*
X13039699Y-11788800D01*
X13039217Y-11788554D01*
X13039217Y-11788554D01*
X13023563Y-11780579D01*
X13006340Y-11774983D01*
X12988455Y-11772150D01*
X12988455Y-11772150D01*
X12988455Y-11772150D01*
X12970345Y-11772150D01*
X12970345Y-11772150D01*
X12970345Y-11772150D01*
X12952459Y-11774983D01*
X12952459Y-11774983D01*
X12948780Y-11776178D01*
X12945720Y-11776663D01*
X12943962Y-11776663D01*
X12938790Y-11775204D01*
X12938228Y-11774860D01*
X12936400Y-11773419D01*
X12914416Y-11751435D01*
X12912596Y-11748929D01*
X12912221Y-11748194D01*
X12911264Y-11742151D01*
X12914042Y-11736700D01*
X12919494Y-11733922D01*
X12919494Y-11733922D01*
X12925537Y-11734879D01*
X12935236Y-11739821D01*
X12952459Y-11745417D01*
X12952459Y-11745417D01*
X12952459Y-11745417D01*
X12959614Y-11746550D01*
X12961402Y-11746833D01*
X12970345Y-11748250D01*
X12988455Y-11748250D01*
X12988455Y-11748250D01*
X12994417Y-11747306D01*
X12997398Y-11746833D01*
X13002455Y-11746032D01*
X13006341Y-11745417D01*
X13006341Y-11745417D01*
X13006341Y-11745417D01*
X13023564Y-11739821D01*
X13039699Y-11731600D01*
X13054350Y-11720955D01*
X13067155Y-11708150D01*
X13077800Y-11693499D01*
X13086021Y-11677364D01*
X13091617Y-11660141D01*
X13093535Y-11648034D01*
X13093783Y-11646466D01*
X13093783Y-11646466D01*
X13094450Y-11642255D01*
X13094450Y-11624145D01*
X13092992Y-11614940D01*
X13092437Y-11611438D01*
X13091617Y-11606259D01*
X13086953Y-11591906D01*
X13086469Y-11588847D01*
X13086469Y-11587088D01*
X13087927Y-11581916D01*
X13088272Y-11581354D01*
X13089712Y-11579527D01*
X13157048Y-11512191D01*
X13157673Y-11511109D01*
X13162320Y-11503059D01*
X13162320Y-11503059D01*
X13162321Y-11503059D01*
X13165050Y-11492873D01*
X13165050Y-11482327D01*
X13165050Y-11314658D01*
X13165534Y-11311599D01*
X13165542Y-11311575D01*
X13165872Y-11310559D01*
X13169468Y-11305609D01*
X13175287Y-11303718D01*
X13180460Y-11305176D01*
X13180951Y-11305477D01*
X13182779Y-11306918D01*
X13333302Y-11457441D01*
X13335122Y-11459947D01*
X13335619Y-11460921D01*
X13336576Y-11466964D01*
X13333798Y-11472416D01*
X13329110Y-11475042D01*
X13328550Y-11475176D01*
X13326238Y-11475450D01*
X13291976Y-11475450D01*
X13291788Y-11475476D01*
X13289501Y-11475741D01*
X13289501Y-11475741D01*
X13279224Y-11480279D01*
X13271279Y-11488223D01*
X13266741Y-11498501D01*
X13266450Y-11501012D01*
X13266450Y-11501013D01*
X13266450Y-11614986D01*
X13266450Y-11614986D01*
X13266741Y-11617499D01*
X13267443Y-11619089D01*
X13267769Y-11619826D01*
X13267769Y-11619826D01*
X13271279Y-11627776D01*
X13271280Y-11627777D01*
X13272189Y-11628686D01*
X13274009Y-11631192D01*
X13274871Y-11632883D01*
X13275936Y-11637895D01*
X13275914Y-11638317D01*
X13275590Y-11640361D01*
X13275083Y-11642255D01*
X13274950Y-11642752D01*
X13274950Y-11657247D01*
X13278258Y-11669595D01*
X13278702Y-11671249D01*
X13285948Y-11683801D01*
X13285949Y-11683801D01*
X13285949Y-11683801D01*
X13285949Y-11683801D01*
X13296198Y-11694051D01*
X13296199Y-11694051D01*
X13296199Y-11694051D01*
X13296254Y-11694091D01*
X13296454Y-11694198D01*
X13299927Y-11696204D01*
X13308430Y-11701113D01*
X13308751Y-11701298D01*
X13308751Y-11701298D01*
X13308751Y-11701298D01*
X13322752Y-11705050D01*
X13322753Y-11705050D01*
X13337247Y-11705050D01*
X13337247Y-11705050D01*
X13351248Y-11701298D01*
X13351249Y-11701298D01*
X13351249Y-11701298D01*
X13351249Y-11701298D01*
X13363188Y-11694405D01*
X13363477Y-11694265D01*
X13363555Y-11694213D01*
X13364056Y-11693904D01*
X13364186Y-11693829D01*
X13364722Y-11693130D01*
X13374051Y-11683801D01*
X13377768Y-11677364D01*
X13381298Y-11671249D01*
X13381298Y-11671249D01*
X13381298Y-11671248D01*
X13385050Y-11657247D01*
X13385050Y-11642752D01*
X13384123Y-11639294D01*
X13383800Y-11636214D01*
X13383825Y-11635721D01*
X13383899Y-11634319D01*
X13385482Y-11629445D01*
X13385713Y-11629090D01*
X13386412Y-11628227D01*
X13386720Y-11627777D01*
X13386721Y-11627776D01*
X13391258Y-11617499D01*
X13391459Y-11615774D01*
X13391550Y-11614987D01*
X13391550Y-11614987D01*
X13391550Y-11614986D01*
X13391550Y-11541158D01*
X13392034Y-11538099D01*
X13392073Y-11537980D01*
X13392372Y-11537059D01*
X13395968Y-11532109D01*
X13401787Y-11530218D01*
X13406960Y-11531676D01*
X13407450Y-11531977D01*
X13409278Y-11533418D01*
X13458452Y-11582591D01*
X13458452Y-11582591D01*
X13465909Y-11590048D01*
X13469255Y-11591980D01*
X13471051Y-11593017D01*
X13471362Y-11593196D01*
X13474142Y-11594802D01*
X13476549Y-11596751D01*
X13477716Y-11598047D01*
X13477817Y-11598158D01*
X13480145Y-11602726D01*
X13480234Y-11603141D01*
X13480450Y-11605199D01*
X13480450Y-11614986D01*
X13480450Y-11614986D01*
X13480741Y-11617499D01*
X13481443Y-11619089D01*
X13481768Y-11619825D01*
X13481769Y-11619826D01*
X13485279Y-11627776D01*
X13485279Y-11627776D01*
X13493223Y-11635721D01*
X13495615Y-11636776D01*
X13498217Y-11638455D01*
X13499155Y-11639294D01*
X13499417Y-11639528D01*
X13502374Y-11644328D01*
X13502609Y-11645200D01*
X13502950Y-11647777D01*
X13502950Y-11871966D01*
X13502465Y-11875025D01*
X13501968Y-11876556D01*
X13498771Y-11881200D01*
X13498069Y-11881767D01*
X13495849Y-11883120D01*
X13493224Y-11884279D01*
X13485279Y-11892223D01*
X13480741Y-11902501D01*
X13480450Y-11905012D01*
X13480450Y-11905013D01*
X13480450Y-12018986D01*
X13480450Y-12018986D01*
X13480741Y-12021499D01*
X13481379Y-12022942D01*
X13481711Y-12023696D01*
X13481712Y-12023696D01*
X13485125Y-12031427D01*
X13485279Y-12031776D01*
X13493223Y-12039721D01*
X13503501Y-12044258D01*
X13506013Y-12044550D01*
X13579986Y-12044550D01*
X13582499Y-12044258D01*
X13592776Y-12039721D01*
X13600721Y-12031776D01*
X13605258Y-12021499D01*
X13605550Y-12018986D01*
X13605550Y-11905014D01*
X13605258Y-11902501D01*
X13600721Y-11892223D01*
X13592776Y-11884279D01*
X13592776Y-11884279D01*
X13592262Y-11884052D01*
X13590385Y-11883223D01*
X13587782Y-11881544D01*
X13586583Y-11880471D01*
X13583626Y-11875671D01*
X13583391Y-11874800D01*
X13583050Y-11872223D01*
X13583050Y-11648034D01*
X13583534Y-11644975D01*
X13584032Y-11643444D01*
X13587228Y-11638800D01*
X13587656Y-11638455D01*
X13587931Y-11638233D01*
X13590150Y-11636880D01*
X13592776Y-11635721D01*
X13600721Y-11627776D01*
X13605258Y-11617499D01*
X13605459Y-11615774D01*
X13605550Y-11614987D01*
X13605550Y-11609518D01*
X13606034Y-11606459D01*
X13606446Y-11605190D01*
X13610042Y-11600241D01*
X13610191Y-11600132D01*
X13610456Y-11599940D01*
X13616274Y-11598050D01*
X13619665Y-11598050D01*
X13622723Y-11598534D01*
X13624786Y-11599205D01*
X13629692Y-11602740D01*
X13629787Y-11602870D01*
X13629788Y-11602871D01*
X13629788Y-11602871D01*
X13630358Y-11603642D01*
X13630358Y-11603643D01*
X13630358Y-11603643D01*
X13640323Y-11610997D01*
X13640922Y-11611439D01*
X13640997Y-11611465D01*
X13653312Y-11615774D01*
X13656254Y-11616050D01*
X13703746Y-11616050D01*
X13703746Y-11616050D01*
X13704334Y-11615995D01*
X13706688Y-11615774D01*
X13706688Y-11615774D01*
X13706764Y-11615767D01*
X13707463Y-11615726D01*
X13709487Y-11615681D01*
X13715347Y-11617440D01*
X13719053Y-11622308D01*
X13719394Y-11623283D01*
X13719950Y-11626553D01*
X13719950Y-12227342D01*
X13719465Y-12230401D01*
X13718711Y-12232724D01*
X13716296Y-12236665D01*
X13668353Y-12284607D01*
X13665847Y-12286428D01*
X13664281Y-12287226D01*
X13659010Y-12288274D01*
X13658580Y-12288241D01*
X13658354Y-12288223D01*
X13656071Y-12287769D01*
X13641340Y-12282983D01*
X13623455Y-12280150D01*
X13623455Y-12280150D01*
X13623455Y-12280150D01*
X13605345Y-12280150D01*
X13605345Y-12280150D01*
X13605345Y-12280150D01*
X13587459Y-12282983D01*
X13570236Y-12288579D01*
X13554101Y-12296800D01*
X13549435Y-12300190D01*
X13539450Y-12307444D01*
X13526644Y-12320250D01*
X13521322Y-12327575D01*
X13516000Y-12334900D01*
X13516000Y-12334901D01*
X13507779Y-12351036D01*
X13502183Y-12368259D01*
X13499350Y-12386145D01*
X13499350Y-12404255D01*
X13502183Y-12422140D01*
X13502183Y-12422143D01*
X13502195Y-12422180D01*
X13507779Y-12439364D01*
X13516000Y-12455499D01*
X13526645Y-12470150D01*
X13539450Y-12482955D01*
X13554101Y-12493600D01*
X13570236Y-12501821D01*
X13579196Y-12504732D01*
X13587459Y-12507417D01*
X13587459Y-12507417D01*
X13587459Y-12507417D01*
X13594614Y-12508550D01*
X13596402Y-12508833D01*
X13605345Y-12510250D01*
X13623455Y-12510250D01*
X13623455Y-12510250D01*
X13629417Y-12509306D01*
X13632398Y-12508833D01*
X13637455Y-12508032D01*
X13641341Y-12507417D01*
X13641341Y-12507417D01*
X13641341Y-12507417D01*
X13658564Y-12501821D01*
X13674699Y-12493600D01*
X13689350Y-12482955D01*
X13702155Y-12470150D01*
X13712800Y-12455499D01*
X13721021Y-12439364D01*
X13726617Y-12422141D01*
X13728033Y-12413198D01*
X13729450Y-12404255D01*
X13729450Y-12386145D01*
X13726733Y-12368992D01*
X13726617Y-12368259D01*
X13726617Y-12368259D01*
X13721945Y-12353879D01*
X13721931Y-12353837D01*
X13721932Y-12353769D01*
X13721469Y-12350847D01*
X13721469Y-12350589D01*
X13721469Y-12349088D01*
X13722927Y-12343916D01*
X13723271Y-12343354D01*
X13724712Y-12341527D01*
X13771941Y-12294298D01*
X13774446Y-12292478D01*
X13775422Y-12291981D01*
X13781464Y-12291024D01*
X13786916Y-12293802D01*
X13789542Y-12298490D01*
X13789676Y-12299050D01*
X13789950Y-12301362D01*
X13789950Y-12305276D01*
X13789465Y-12308335D01*
X13788711Y-12310658D01*
X13786296Y-12314598D01*
X13780645Y-12320249D01*
X13770000Y-12334901D01*
X13761779Y-12351036D01*
X13756183Y-12368259D01*
X13753350Y-12386145D01*
X13753350Y-12404255D01*
X13756183Y-12422140D01*
X13756183Y-12422143D01*
X13756195Y-12422180D01*
X13761779Y-12439364D01*
X13770000Y-12455499D01*
X13780645Y-12470150D01*
X13793450Y-12482955D01*
X13808101Y-12493600D01*
X13824236Y-12501821D01*
X13833196Y-12504732D01*
X13841459Y-12507417D01*
X13841459Y-12507417D01*
X13841459Y-12507417D01*
X13848614Y-12508550D01*
X13850402Y-12508833D01*
X13859345Y-12510250D01*
X13877455Y-12510250D01*
X13877455Y-12510250D01*
X13883417Y-12509306D01*
X13886398Y-12508833D01*
X13891455Y-12508032D01*
X13895341Y-12507417D01*
X13895341Y-12507417D01*
X13895341Y-12507417D01*
X13912564Y-12501821D01*
X13928699Y-12493600D01*
X13943350Y-12482955D01*
X13956155Y-12470150D01*
X13966800Y-12455499D01*
X13975021Y-12439364D01*
X13980617Y-12422141D01*
X13982033Y-12413198D01*
X13983450Y-12404255D01*
X13983450Y-12386145D01*
X13980617Y-12368259D01*
X13980617Y-12368259D01*
X13975931Y-12353837D01*
X13975021Y-12351036D01*
X13966800Y-12334901D01*
X13956155Y-12320250D01*
X13943350Y-12307445D01*
X13943350Y-12307444D01*
X13929544Y-12297414D01*
X13929542Y-12297412D01*
X13928699Y-12296800D01*
X13928699Y-12296800D01*
X13928699Y-12296800D01*
X13928217Y-12296554D01*
X13928217Y-12296554D01*
X13912563Y-12288579D01*
X13895340Y-12282983D01*
X13879950Y-12280545D01*
X13877004Y-12279588D01*
X13875815Y-12278982D01*
X13871489Y-12274655D01*
X13871129Y-12273948D01*
X13870050Y-12269454D01*
X13870050Y-11745470D01*
X13870534Y-11742412D01*
X13870872Y-11741371D01*
X13874468Y-11736421D01*
X13880287Y-11734530D01*
X13885460Y-11735988D01*
X13885951Y-11736289D01*
X13887779Y-11737730D01*
X13935942Y-11785893D01*
X13937762Y-11788399D01*
X13938871Y-11790575D01*
X13939950Y-11795070D01*
X13939950Y-12144727D01*
X13939950Y-12155273D01*
X13940008Y-12155488D01*
X13940697Y-12158059D01*
X13940697Y-12158059D01*
X13942679Y-12165459D01*
X13942679Y-12165459D01*
X13944250Y-12168180D01*
X13947952Y-12174591D01*
X13947952Y-12174591D01*
X13947952Y-12174591D01*
X13997952Y-12224591D01*
X13997952Y-12224591D01*
X14005409Y-12232048D01*
X14009975Y-12234684D01*
X14014541Y-12237321D01*
X14024727Y-12240050D01*
X14035273Y-12240050D01*
X14285942Y-12240050D01*
X14289001Y-12240534D01*
X14290235Y-12240935D01*
X14291324Y-12241289D01*
X14295265Y-12243704D01*
X14392807Y-12341246D01*
X14394628Y-12343752D01*
X14395426Y-12345319D01*
X14396474Y-12350589D01*
X14396423Y-12351246D01*
X14395969Y-12353529D01*
X14391183Y-12368259D01*
X14388350Y-12386145D01*
X14388350Y-12404255D01*
X14391183Y-12422140D01*
X14391183Y-12422143D01*
X14391195Y-12422180D01*
X14396779Y-12439364D01*
X14405000Y-12455499D01*
X14415645Y-12470150D01*
X14428450Y-12482955D01*
X14443101Y-12493600D01*
X14459236Y-12501821D01*
X14468196Y-12504732D01*
X14476459Y-12507417D01*
X14476459Y-12507417D01*
X14476459Y-12507417D01*
X14483614Y-12508550D01*
X14485402Y-12508833D01*
X14494345Y-12510250D01*
X14512455Y-12510250D01*
X14512455Y-12510250D01*
X14518417Y-12509306D01*
X14521398Y-12508833D01*
X14526455Y-12508032D01*
X14530341Y-12507417D01*
X14530341Y-12507417D01*
X14530341Y-12507417D01*
X14547564Y-12501821D01*
X14563699Y-12493600D01*
X14578350Y-12482955D01*
X14591155Y-12470150D01*
X14601800Y-12455499D01*
X14610021Y-12439364D01*
X14615617Y-12422141D01*
X14617033Y-12413198D01*
X14618450Y-12404255D01*
X14618450Y-12386145D01*
X14615617Y-12368259D01*
X14615617Y-12368259D01*
X14610931Y-12353837D01*
X14610021Y-12351036D01*
X14601800Y-12334901D01*
X14591155Y-12320250D01*
X14578350Y-12307445D01*
X14578350Y-12307444D01*
X14564544Y-12297414D01*
X14564542Y-12297412D01*
X14563699Y-12296800D01*
X14563699Y-12296800D01*
X14563699Y-12296800D01*
X14563217Y-12296554D01*
X14563217Y-12296554D01*
X14547563Y-12288579D01*
X14530340Y-12282983D01*
X14512455Y-12280150D01*
X14512455Y-12280150D01*
X14512455Y-12280150D01*
X14494345Y-12280150D01*
X14494345Y-12280150D01*
X14494345Y-12280150D01*
X14476459Y-12282983D01*
X14462106Y-12287646D01*
X14459047Y-12288131D01*
X14457288Y-12288131D01*
X14452116Y-12286672D01*
X14451555Y-12286328D01*
X14449727Y-12284887D01*
X14393749Y-12228910D01*
X14366338Y-12201499D01*
X14332791Y-12167952D01*
X14332791Y-12167952D01*
X14332791Y-12167952D01*
X14332791Y-12167952D01*
X14329388Y-12165987D01*
X14327284Y-12163651D01*
X14323659Y-12162679D01*
X14319707Y-12161620D01*
X14319707Y-12161620D01*
X14315143Y-12160397D01*
X14313473Y-12159950D01*
X14313473Y-12159950D01*
X14133437Y-12159950D01*
X14130377Y-12159465D01*
X14129207Y-12159085D01*
X14124257Y-12155488D01*
X14122370Y-12149929D01*
X14122344Y-12148923D01*
X14122678Y-12146101D01*
X14125050Y-12137247D01*
X14125050Y-12122753D01*
X14124245Y-12119750D01*
X14123098Y-12115468D01*
X14122774Y-12112389D01*
X14122891Y-12110165D01*
X14124812Y-12104805D01*
X14127362Y-12101350D01*
X14129568Y-12099177D01*
X14130516Y-12098499D01*
X14136350Y-12096652D01*
X14142095Y-12098543D01*
X14142986Y-12099190D01*
X14145132Y-12101320D01*
X14149313Y-12106985D01*
X14149342Y-12107013D01*
X14149501Y-12107124D01*
X14160179Y-12115005D01*
X14160180Y-12115006D01*
X14167129Y-12117437D01*
X14172664Y-12119374D01*
X14172967Y-12119490D01*
X14173387Y-12119509D01*
X14175954Y-12119750D01*
X14221246Y-12119750D01*
X14221246Y-12119750D01*
X14221851Y-12119693D01*
X14224273Y-12119466D01*
X14237020Y-12115006D01*
X14237020Y-12115005D01*
X14237021Y-12115005D01*
X14237619Y-12114564D01*
X14238031Y-12114259D01*
X14245036Y-12109090D01*
X14247886Y-12106986D01*
X14248973Y-12105513D01*
X14249492Y-12104810D01*
X14250147Y-12104195D01*
X14250472Y-12104042D01*
X14251165Y-12103359D01*
X14252930Y-12102097D01*
X14258688Y-12100250D01*
X14265073Y-12100250D01*
X14265596Y-12100181D01*
X14266371Y-12100110D01*
X14267250Y-12100064D01*
X14267311Y-12100080D01*
X14267769Y-12100050D01*
X14313963Y-12100050D01*
X14313970Y-12100050D01*
X14325879Y-12100050D01*
X14326030Y-12100050D01*
X14326037Y-12100050D01*
X14380605Y-12100050D01*
X14383664Y-12100534D01*
X14384748Y-12100886D01*
X14389698Y-12104483D01*
X14391589Y-12110302D01*
X14391589Y-12111441D01*
X14391205Y-12113866D01*
X14391273Y-12113882D01*
X14391183Y-12114260D01*
X14388350Y-12132145D01*
X14388350Y-12150255D01*
X14391183Y-12168140D01*
X14391183Y-12168143D01*
X14391195Y-12168180D01*
X14393279Y-12174591D01*
X14396779Y-12185364D01*
X14405000Y-12201499D01*
X14415645Y-12216150D01*
X14428450Y-12228955D01*
X14443101Y-12239600D01*
X14459236Y-12247821D01*
X14468196Y-12250732D01*
X14476459Y-12253417D01*
X14476459Y-12253417D01*
X14476459Y-12253417D01*
X14483614Y-12254550D01*
X14485402Y-12254833D01*
X14494345Y-12256250D01*
X14512455Y-12256250D01*
X14512455Y-12256250D01*
X14518417Y-12255306D01*
X14521398Y-12254833D01*
X14526455Y-12254032D01*
X14530341Y-12253417D01*
X14530341Y-12253417D01*
X14530341Y-12253417D01*
X14547564Y-12247821D01*
X14563699Y-12239600D01*
X14578350Y-12228955D01*
X14591155Y-12216150D01*
X14601800Y-12201499D01*
X14610021Y-12185364D01*
X14615617Y-12168141D01*
X14617655Y-12155273D01*
X14618450Y-12150255D01*
X14618450Y-12132145D01*
X14618450Y-12132145D01*
X14616487Y-12119750D01*
X14616442Y-12119466D01*
X14616120Y-12117437D01*
X14615617Y-12114259D01*
X14611423Y-12101351D01*
X14610021Y-12097036D01*
X14601800Y-12080901D01*
X14591155Y-12066250D01*
X14578350Y-12053445D01*
X14578350Y-12053444D01*
X14564544Y-12043414D01*
X14564542Y-12043412D01*
X14563699Y-12042800D01*
X14563699Y-12042800D01*
X14563699Y-12042800D01*
X14563217Y-12042554D01*
X14563217Y-12042554D01*
X14547563Y-12034579D01*
X14530340Y-12028983D01*
X14512455Y-12026150D01*
X14512455Y-12026150D01*
X14512455Y-12026150D01*
X14494345Y-12026150D01*
X14494345Y-12026150D01*
X14494345Y-12026150D01*
X14476459Y-12028983D01*
X14460445Y-12034186D01*
X14457386Y-12034670D01*
X14455628Y-12034670D01*
X14450455Y-12033212D01*
X14450411Y-12033185D01*
X14449894Y-12032868D01*
X14448067Y-12031427D01*
X14444591Y-12027952D01*
X14444591Y-12027952D01*
X14444591Y-12027952D01*
X14444590Y-12027951D01*
X14444590Y-12027951D01*
X14441188Y-12025987D01*
X14439084Y-12023651D01*
X14431053Y-12021499D01*
X14431053Y-12021499D01*
X14426821Y-12020365D01*
X14425273Y-12019950D01*
X14425273Y-12019950D01*
X14342258Y-12019950D01*
X14339199Y-12019465D01*
X14337536Y-12018925D01*
X14332586Y-12015329D01*
X14331775Y-12014004D01*
X14331129Y-12012737D01*
X14330050Y-12008243D01*
X14330050Y-11924727D01*
X14329003Y-11920820D01*
X14328797Y-11920050D01*
X14327321Y-11914541D01*
X14322418Y-11906049D01*
X14322048Y-11905409D01*
X14314591Y-11897952D01*
X14314591Y-11897952D01*
X14264591Y-11847952D01*
X14264591Y-11847952D01*
X14264591Y-11847952D01*
X14261188Y-11845987D01*
X14259084Y-11843651D01*
X14255459Y-11842679D01*
X14251507Y-11841620D01*
X14251507Y-11841620D01*
X14246943Y-11840397D01*
X14245273Y-11839950D01*
X14245273Y-11839950D01*
X14158443Y-11839950D01*
X14155384Y-11839465D01*
X14153061Y-11838711D01*
X14149120Y-11836296D01*
X14103293Y-11790468D01*
X14101472Y-11787963D01*
X14100914Y-11786867D01*
X14099957Y-11780824D01*
X14102554Y-11775557D01*
X14103465Y-11774597D01*
X14103465Y-11774597D01*
X14105453Y-11772503D01*
X14105470Y-11772459D01*
X14106162Y-11771690D01*
X14114086Y-11763766D01*
X14121334Y-11751213D01*
X14125085Y-11737212D01*
X14125085Y-11722717D01*
X14121912Y-11710875D01*
X14121588Y-11707795D01*
X14121705Y-11705573D01*
X14123626Y-11700212D01*
X14129038Y-11692879D01*
X14133374Y-11680488D01*
X14133650Y-11677546D01*
X14133650Y-11640054D01*
X14133374Y-11637112D01*
X14129038Y-11624721D01*
X14128613Y-11624145D01*
X14128613Y-11624145D01*
X14121820Y-11614940D01*
X14120393Y-11612192D01*
X14119971Y-11610925D01*
X14119926Y-11604807D01*
X14120033Y-11604470D01*
X14123592Y-11599493D01*
X14123703Y-11599413D01*
X14124704Y-11598697D01*
X14130462Y-11596850D01*
X14136079Y-11596850D01*
X14139138Y-11597334D01*
X14141201Y-11598005D01*
X14146107Y-11601541D01*
X14149314Y-11605887D01*
X14149359Y-11605925D01*
X14149490Y-11606038D01*
X14149554Y-11606088D01*
X14149690Y-11606203D01*
X14150000Y-11606393D01*
X14151658Y-11607616D01*
X14151658Y-11607616D01*
X14151658Y-11607616D01*
X14160180Y-11613906D01*
X14160180Y-11613906D01*
X14163269Y-11614987D01*
X14163270Y-11614987D01*
X14172666Y-11618275D01*
X14172967Y-11618390D01*
X14173387Y-11618409D01*
X14175954Y-11618650D01*
X14221246Y-11618650D01*
X14221246Y-11618650D01*
X14221851Y-11618593D01*
X14224273Y-11618366D01*
X14224537Y-11618274D01*
X14231777Y-11615740D01*
X14237020Y-11613906D01*
X14239343Y-11612191D01*
X14241058Y-11610926D01*
X14247886Y-11605886D01*
X14254614Y-11596770D01*
X14255905Y-11595020D01*
X14255906Y-11595020D01*
X14256969Y-11591980D01*
X14260366Y-11582273D01*
X14260650Y-11579246D01*
X14260650Y-11538954D01*
X14260631Y-11538751D01*
X14260409Y-11536388D01*
X14260396Y-11536103D01*
X14260366Y-11535927D01*
X14260081Y-11535111D01*
X14259642Y-11533859D01*
X14259552Y-11531362D01*
X14259071Y-11529985D01*
X14259071Y-11529984D01*
X14259456Y-11528701D01*
X14259431Y-11528000D01*
X14259636Y-11527243D01*
X14259875Y-11527308D01*
X14260832Y-11524125D01*
X14265701Y-11520420D01*
X14271817Y-11520284D01*
X14272041Y-11520351D01*
X14276192Y-11522832D01*
X14335942Y-11582581D01*
X14337762Y-11585087D01*
X14338871Y-11587263D01*
X14339950Y-11591757D01*
X14339950Y-11769073D01*
X14341430Y-11774597D01*
X14342679Y-11779259D01*
X14347952Y-11788391D01*
X14347952Y-11788392D01*
X14392807Y-11833246D01*
X14394627Y-11835752D01*
X14395426Y-11837319D01*
X14396474Y-11842590D01*
X14396423Y-11843246D01*
X14395969Y-11845529D01*
X14391183Y-11860259D01*
X14388350Y-11878145D01*
X14388350Y-11896255D01*
X14391183Y-11914140D01*
X14393103Y-11920050D01*
X14396779Y-11931363D01*
X14396779Y-11931363D01*
X14396779Y-11931364D01*
X14405000Y-11947499D01*
X14415645Y-11962150D01*
X14428450Y-11974955D01*
X14443101Y-11985600D01*
X14459236Y-11993821D01*
X14468196Y-11996732D01*
X14476459Y-11999417D01*
X14476459Y-11999417D01*
X14476459Y-11999417D01*
X14483614Y-12000550D01*
X14485402Y-12000833D01*
X14494345Y-12002250D01*
X14512455Y-12002250D01*
X14512455Y-12002250D01*
X14518417Y-12001306D01*
X14521398Y-12000833D01*
X14526455Y-12000032D01*
X14530341Y-11999417D01*
X14530341Y-11999417D01*
X14530341Y-11999417D01*
X14547564Y-11993821D01*
X14563699Y-11985600D01*
X14578350Y-11974955D01*
X14591155Y-11962150D01*
X14601800Y-11947499D01*
X14610021Y-11931364D01*
X14615617Y-11914141D01*
X14617461Y-11902501D01*
X14618450Y-11896255D01*
X14618450Y-11878145D01*
X14618450Y-11878145D01*
X14615617Y-11860259D01*
X14615617Y-11860259D01*
X14613937Y-11855088D01*
X14610021Y-11843036D01*
X14601800Y-11826901D01*
X14591155Y-11812250D01*
X14578350Y-11799445D01*
X14578350Y-11799444D01*
X14564544Y-11789414D01*
X14564542Y-11789412D01*
X14563699Y-11788800D01*
X14563699Y-11788800D01*
X14563699Y-11788800D01*
X14563217Y-11788554D01*
X14563217Y-11788554D01*
X14547563Y-11780579D01*
X14530340Y-11774983D01*
X14512455Y-11772150D01*
X14512455Y-11772150D01*
X14512455Y-11772150D01*
X14494345Y-11772150D01*
X14494345Y-11772150D01*
X14494345Y-11772150D01*
X14476459Y-11774983D01*
X14462106Y-11779646D01*
X14459047Y-11780131D01*
X14457288Y-11780131D01*
X14452116Y-11778672D01*
X14451555Y-11778328D01*
X14449727Y-11776887D01*
X14424058Y-11751219D01*
X14422238Y-11748713D01*
X14421129Y-11746537D01*
X14420050Y-11742043D01*
X14420050Y-11735850D01*
X14420535Y-11732790D01*
X14420887Y-11731707D01*
X14424483Y-11726757D01*
X14430302Y-11724867D01*
X14430617Y-11724867D01*
X14436436Y-11726757D01*
X14443101Y-11731600D01*
X14459236Y-11739821D01*
X14467210Y-11742412D01*
X14476459Y-11745417D01*
X14476459Y-11745417D01*
X14476459Y-11745417D01*
X14483614Y-11746550D01*
X14485402Y-11746833D01*
X14494345Y-11748250D01*
X14512455Y-11748250D01*
X14512455Y-11748250D01*
X14518417Y-11747306D01*
X14521398Y-11746833D01*
X14526455Y-11746032D01*
X14530341Y-11745417D01*
X14530341Y-11745417D01*
X14530341Y-11745417D01*
X14547564Y-11739821D01*
X14563699Y-11731600D01*
X14578350Y-11720955D01*
X14591155Y-11708150D01*
X14601800Y-11693499D01*
X14610021Y-11677364D01*
X14615617Y-11660141D01*
X14617535Y-11648034D01*
X14617783Y-11646466D01*
X14617783Y-11646466D01*
X14618450Y-11642255D01*
X14618450Y-11624145D01*
X14616992Y-11614940D01*
X14616437Y-11611438D01*
X14615617Y-11606259D01*
X14610021Y-11589036D01*
X14601800Y-11572901D01*
X14591155Y-11558250D01*
X14578350Y-11545445D01*
X14577865Y-11545092D01*
X14564544Y-11535414D01*
X14564542Y-11535412D01*
X14563699Y-11534800D01*
X14563699Y-11534800D01*
X14563699Y-11534800D01*
X14563217Y-11534554D01*
X14563217Y-11534554D01*
X14547563Y-11526579D01*
X14530340Y-11520983D01*
X14512455Y-11518150D01*
X14512455Y-11518150D01*
X14512455Y-11518150D01*
X14494345Y-11518150D01*
X14494345Y-11518150D01*
X14494345Y-11518150D01*
X14476459Y-11520983D01*
X14462106Y-11525646D01*
X14459047Y-11526131D01*
X14457288Y-11526131D01*
X14452116Y-11524672D01*
X14451555Y-11524328D01*
X14449727Y-11522887D01*
X14366338Y-11439499D01*
X14332980Y-11406140D01*
X14264791Y-11337952D01*
X14264791Y-11337952D01*
X14264791Y-11337952D01*
X14264791Y-11337952D01*
X14264059Y-11337529D01*
X14261388Y-11335987D01*
X14259284Y-11333651D01*
X14250070Y-11331182D01*
X14250070Y-11331182D01*
X14246704Y-11330280D01*
X14245473Y-11329950D01*
X14245473Y-11329950D01*
X13672258Y-11329950D01*
X13669199Y-11329465D01*
X13666876Y-11328711D01*
X13662935Y-11326296D01*
X13621266Y-11284627D01*
X13619446Y-11282121D01*
X13618945Y-11281138D01*
X13618929Y-11281106D01*
X13617972Y-11275063D01*
X13620749Y-11269612D01*
X13621385Y-11268976D01*
X13624386Y-11266920D01*
X13626876Y-11265821D01*
X13634821Y-11257876D01*
X13639358Y-11247599D01*
X13639650Y-11245086D01*
X13639650Y-11056114D01*
X13639358Y-11053601D01*
X13634821Y-11043324D01*
X13626876Y-11035379D01*
X13626876Y-11035379D01*
X13618811Y-11031818D01*
X13618810Y-11031818D01*
X13616599Y-11030842D01*
X13616599Y-11030841D01*
X13616599Y-11030841D01*
X13615114Y-11030669D01*
X13615113Y-11030669D01*
X13614087Y-11030550D01*
X13614087Y-11030550D01*
X13614086Y-11030550D01*
X13611118Y-11030550D01*
X13608059Y-11030065D01*
X13606790Y-11029653D01*
X13601840Y-11026057D01*
X13601839Y-11026056D01*
X13601540Y-11025644D01*
X13599650Y-11019826D01*
X13599650Y-11014327D01*
X13599650Y-11014327D01*
X13597274Y-11005460D01*
X13597274Y-11005459D01*
X13597133Y-11004932D01*
X13597132Y-11004931D01*
X13596921Y-11004142D01*
X13596920Y-11004141D01*
X13596920Y-11004139D01*
X13591648Y-10995009D01*
X13591648Y-10995009D01*
X13591648Y-10995009D01*
X13574058Y-10977419D01*
X13572238Y-10974913D01*
X13571129Y-10972737D01*
X13570050Y-10968243D01*
X13570050Y-10930564D01*
X13570534Y-10927505D01*
X13571205Y-10925442D01*
X13574741Y-10920536D01*
X13575874Y-10919700D01*
X13577500Y-10918500D01*
X13585385Y-10907816D01*
X13589771Y-10895282D01*
X13590050Y-10892307D01*
X13590050Y-10851518D01*
X13590534Y-10848459D01*
X13590946Y-10847191D01*
X13594542Y-10842241D01*
X13594602Y-10842197D01*
X13594956Y-10841940D01*
X13600774Y-10840050D01*
X13908482Y-10840050D01*
X13911541Y-10840534D01*
X13912809Y-10840947D01*
X13917759Y-10844543D01*
X13917760Y-10844543D01*
X13918059Y-10844955D01*
X13919950Y-10850774D01*
X13919950Y-10893508D01*
X13920127Y-10895391D01*
X13920127Y-10895392D01*
X13920229Y-10896482D01*
X13920229Y-10896482D01*
X13920229Y-10896482D01*
X13920626Y-10897617D01*
X13920626Y-10897618D01*
X13921972Y-10901464D01*
X13922525Y-10904512D01*
X13922563Y-10906210D01*
X13921164Y-10911510D01*
X13920776Y-10912160D01*
X13919278Y-10914082D01*
X13836819Y-10996541D01*
X13834313Y-10998362D01*
X13832137Y-10999471D01*
X13827642Y-11000550D01*
X13726689Y-11000550D01*
X13717843Y-11001612D01*
X13703766Y-11007164D01*
X13703766Y-11007164D01*
X13703766Y-11007164D01*
X13703766Y-11007164D01*
X13703756Y-11007171D01*
X13691708Y-11016307D01*
X13691707Y-11016308D01*
X13682571Y-11028357D01*
X13682563Y-11028366D01*
X13677012Y-11042443D01*
X13675950Y-11051289D01*
X13675950Y-11249911D01*
X13677012Y-11258756D01*
X13677026Y-11258791D01*
X13682286Y-11272131D01*
X13682564Y-11272834D01*
X13682856Y-11273240D01*
X13682973Y-11273373D01*
X13691507Y-11284627D01*
X13691708Y-11284892D01*
X13703766Y-11294036D01*
X13703766Y-11294036D01*
X13703766Y-11294036D01*
X13703766Y-11294036D01*
X13703783Y-11294049D01*
X13703997Y-11294127D01*
X13706360Y-11295059D01*
X13717844Y-11299588D01*
X13726690Y-11300650D01*
X13726690Y-11300650D01*
X13885310Y-11300650D01*
X13885310Y-11300650D01*
X13894156Y-11299588D01*
X13908234Y-11294036D01*
X13920292Y-11284892D01*
X13929436Y-11272834D01*
X13934988Y-11258756D01*
X13936050Y-11249910D01*
X13936050Y-11051290D01*
X13934988Y-11042444D01*
X13930672Y-11031499D01*
X13930485Y-11030985D01*
X13929371Y-11027625D01*
X13929389Y-11027615D01*
X13928858Y-11026079D01*
X13928839Y-11026020D01*
X13928821Y-11023022D01*
X13928765Y-11020019D01*
X13928985Y-11019300D01*
X13931454Y-11015185D01*
X14010048Y-10936591D01*
X14012048Y-10933127D01*
X14012780Y-10931859D01*
X14014011Y-10929727D01*
X14014730Y-10928481D01*
X14016679Y-10926075D01*
X14017374Y-10925449D01*
X14017492Y-10925343D01*
X14023081Y-10922854D01*
X14029066Y-10924126D01*
X14032817Y-10927976D01*
X14033091Y-10928482D01*
X14033953Y-10930643D01*
X14034279Y-10931859D01*
X14034931Y-10932988D01*
X14034931Y-10932988D01*
X14034931Y-10932988D01*
X14039551Y-10940990D01*
X14039552Y-10940991D01*
X14039552Y-10940992D01*
X14084904Y-10986344D01*
X14086724Y-10988849D01*
X14087242Y-10989864D01*
X14088199Y-10995907D01*
X14085422Y-11001359D01*
X14085421Y-11001359D01*
X14084882Y-11001899D01*
X14081513Y-11004109D01*
X14073766Y-11007163D01*
X14073756Y-11007171D01*
X14061708Y-11016307D01*
X14061707Y-11016308D01*
X14052571Y-11028357D01*
X14052563Y-11028366D01*
X14047012Y-11042443D01*
X14045950Y-11051289D01*
X14045950Y-11249911D01*
X14047012Y-11258756D01*
X14047026Y-11258791D01*
X14052286Y-11272131D01*
X14052564Y-11272834D01*
X14052856Y-11273240D01*
X14052973Y-11273373D01*
X14061507Y-11284627D01*
X14061708Y-11284892D01*
X14073766Y-11294036D01*
X14073766Y-11294036D01*
X14073766Y-11294036D01*
X14073766Y-11294036D01*
X14073783Y-11294049D01*
X14073997Y-11294127D01*
X14076360Y-11295059D01*
X14087844Y-11299588D01*
X14096690Y-11300650D01*
X14096690Y-11300650D01*
X14255310Y-11300650D01*
X14255310Y-11300650D01*
X14264156Y-11299588D01*
X14278234Y-11294036D01*
X14290292Y-11284892D01*
X14299436Y-11272834D01*
X14304988Y-11258756D01*
X14304988Y-11258756D01*
X14305143Y-11258141D01*
X14305232Y-11258163D01*
X14305778Y-11256238D01*
X14306137Y-11255463D01*
X14310297Y-11250977D01*
X14316300Y-11249794D01*
X14321799Y-11252315D01*
X14322392Y-11252858D01*
X14324287Y-11255215D01*
X14325586Y-11257466D01*
X14326332Y-11258757D01*
X14326352Y-11258791D01*
X14361596Y-11294036D01*
X14361597Y-11294036D01*
X14392807Y-11325246D01*
X14394628Y-11327752D01*
X14395426Y-11329319D01*
X14396474Y-11334589D01*
X14396423Y-11335246D01*
X14395969Y-11337529D01*
X14391183Y-11352259D01*
X14388350Y-11370145D01*
X14388350Y-11388255D01*
X14391183Y-11406140D01*
X14391183Y-11406143D01*
X14391195Y-11406180D01*
X14396779Y-11423364D01*
X14405000Y-11439499D01*
X14415645Y-11454150D01*
X14428450Y-11466955D01*
X14443101Y-11477600D01*
X14459236Y-11485821D01*
X14468196Y-11488732D01*
X14476459Y-11491417D01*
X14476459Y-11491417D01*
X14476459Y-11491417D01*
X14483614Y-11492550D01*
X14485402Y-11492833D01*
X14494345Y-11494250D01*
X14512455Y-11494250D01*
X14512455Y-11494250D01*
X14518417Y-11493306D01*
X14521398Y-11492833D01*
X14526455Y-11492032D01*
X14530341Y-11491417D01*
X14530341Y-11491417D01*
X14530341Y-11491417D01*
X14547564Y-11485821D01*
X14563699Y-11477600D01*
X14578350Y-11466955D01*
X14591155Y-11454150D01*
X14601800Y-11439499D01*
X14610021Y-11423364D01*
X14615617Y-11406141D01*
X14617033Y-11397198D01*
X14618450Y-11388255D01*
X14618450Y-11370145D01*
X14615617Y-11352259D01*
X14615617Y-11352259D01*
X14610968Y-11337952D01*
X14610021Y-11335036D01*
X14601800Y-11318901D01*
X14591155Y-11304250D01*
X14578350Y-11291445D01*
X14578350Y-11291444D01*
X14564544Y-11281414D01*
X14564542Y-11281412D01*
X14563699Y-11280800D01*
X14563699Y-11280800D01*
X14563699Y-11280800D01*
X14563217Y-11280554D01*
X14563217Y-11280554D01*
X14547563Y-11272579D01*
X14530340Y-11266983D01*
X14512455Y-11264150D01*
X14512455Y-11264150D01*
X14512455Y-11264150D01*
X14494345Y-11264150D01*
X14494345Y-11264150D01*
X14494345Y-11264150D01*
X14476459Y-11266983D01*
X14462106Y-11271646D01*
X14459047Y-11272131D01*
X14457288Y-11272131D01*
X14452116Y-11270672D01*
X14451555Y-11270328D01*
X14449727Y-11268887D01*
X14402458Y-11221619D01*
X14400638Y-11219113D01*
X14399529Y-11216937D01*
X14398450Y-11212443D01*
X14398450Y-11208421D01*
X14398934Y-11205362D01*
X14398976Y-11205235D01*
X14399232Y-11204445D01*
X14402828Y-11199495D01*
X14408647Y-11197603D01*
X14414157Y-11199278D01*
X14415214Y-11199986D01*
X14416705Y-11201210D01*
X14428450Y-11212955D01*
X14443101Y-11223600D01*
X14459236Y-11231821D01*
X14467579Y-11234532D01*
X14476459Y-11237417D01*
X14476459Y-11237417D01*
X14476459Y-11237417D01*
X14483614Y-11238550D01*
X14485402Y-11238833D01*
X14494345Y-11240250D01*
X14512455Y-11240250D01*
X14512455Y-11240250D01*
X14518417Y-11239306D01*
X14521398Y-11238833D01*
X14526455Y-11238032D01*
X14530341Y-11237417D01*
X14530341Y-11237417D01*
X14530341Y-11237417D01*
X14547564Y-11231821D01*
X14563699Y-11223600D01*
X14578350Y-11212955D01*
X14591155Y-11200150D01*
X14601800Y-11185499D01*
X14610021Y-11169364D01*
X14615617Y-11152141D01*
X14617033Y-11143198D01*
X14618450Y-11134255D01*
X14618450Y-11116145D01*
X14615617Y-11098259D01*
X14615617Y-11098259D01*
X14610021Y-11081036D01*
X14610021Y-11081036D01*
X14601800Y-11064901D01*
X14591155Y-11050250D01*
X14578350Y-11037445D01*
X14577451Y-11036791D01*
X14564544Y-11027414D01*
X14564542Y-11027413D01*
X14563699Y-11026800D01*
X14563699Y-11026800D01*
X14563699Y-11026800D01*
X14563217Y-11026555D01*
X14563217Y-11026554D01*
X14547563Y-11018579D01*
X14530340Y-11012983D01*
X14512455Y-11010150D01*
X14512455Y-11010150D01*
X14512455Y-11010150D01*
X14494345Y-11010150D01*
X14494345Y-11010150D01*
X14494345Y-11010150D01*
X14476459Y-11012983D01*
X14462106Y-11017646D01*
X14459047Y-11018131D01*
X14457288Y-11018131D01*
X14452116Y-11016672D01*
X14451555Y-11016328D01*
X14449727Y-11014887D01*
X14437458Y-11002619D01*
X14435638Y-11000113D01*
X14434529Y-10997937D01*
X14433450Y-10993443D01*
X14433450Y-10982406D01*
X14433935Y-10979346D01*
X14434287Y-10978263D01*
X14437883Y-10973313D01*
X14443702Y-10971422D01*
X14444301Y-10971422D01*
X14448795Y-10972501D01*
X14459236Y-10977821D01*
X14476459Y-10983417D01*
X14476459Y-10983417D01*
X14476459Y-10983417D01*
X14483614Y-10984550D01*
X14486296Y-10984975D01*
X14494345Y-10986250D01*
X14512455Y-10986250D01*
X14512455Y-10986250D01*
X14518864Y-10985235D01*
X14522069Y-10984727D01*
X14522069Y-10984727D01*
X14530340Y-10983417D01*
X14530341Y-10983417D01*
X14530341Y-10983417D01*
X14547564Y-10977821D01*
X14563699Y-10969600D01*
X14578350Y-10958955D01*
X14591155Y-10946150D01*
X14601800Y-10931499D01*
X14610021Y-10915364D01*
X14615617Y-10898141D01*
X14617033Y-10889198D01*
X14618450Y-10880255D01*
X14618450Y-10862145D01*
X14616161Y-10847693D01*
X14616161Y-10847693D01*
X14615690Y-10844719D01*
X14615617Y-10844259D01*
X14610021Y-10827036D01*
X14601800Y-10810901D01*
X14591155Y-10796250D01*
X14578350Y-10783445D01*
X14578349Y-10783444D01*
X14564544Y-10773414D01*
X14564542Y-10773413D01*
X14563699Y-10772800D01*
X14563699Y-10772800D01*
X14563699Y-10772800D01*
X14563217Y-10772555D01*
X14563217Y-10772554D01*
X14547563Y-10764579D01*
X14530340Y-10758983D01*
X14512455Y-10756150D01*
X14512455Y-10756150D01*
X14512455Y-10756150D01*
X14494345Y-10756150D01*
X14494345Y-10756150D01*
X14494345Y-10756150D01*
X14476459Y-10758983D01*
X14462106Y-10763646D01*
X14459047Y-10764131D01*
X14457288Y-10764131D01*
X14452116Y-10762672D01*
X14451555Y-10762328D01*
X14449727Y-10760887D01*
X14437458Y-10748619D01*
X14435638Y-10746113D01*
X14434529Y-10743937D01*
X14433450Y-10739443D01*
X14433450Y-10728406D01*
X14433935Y-10725346D01*
X14434287Y-10724263D01*
X14437883Y-10719313D01*
X14443702Y-10717422D01*
X14444301Y-10717422D01*
X14448795Y-10718501D01*
X14459236Y-10723821D01*
X14476459Y-10729417D01*
X14476459Y-10729417D01*
X14476459Y-10729417D01*
X14483614Y-10730550D01*
X14485217Y-10730804D01*
X14494345Y-10732250D01*
X14512455Y-10732250D01*
X14512455Y-10732250D01*
X14518417Y-10731306D01*
X14521398Y-10730834D01*
X14527005Y-10729945D01*
X14530341Y-10729417D01*
X14530341Y-10729417D01*
X14530341Y-10729417D01*
X14547564Y-10723821D01*
X14563699Y-10715600D01*
X14578350Y-10704955D01*
X14591155Y-10692150D01*
X14601800Y-10677499D01*
X14610021Y-10661364D01*
X14615617Y-10644141D01*
X14617033Y-10635198D01*
X14618450Y-10626255D01*
X14618450Y-10608145D01*
X14618450Y-10608145D01*
X14615617Y-10590259D01*
X14615617Y-10590259D01*
X14614560Y-10587006D01*
X14610021Y-10573036D01*
X14601800Y-10556901D01*
X14591155Y-10542250D01*
X14578350Y-10529445D01*
X14578350Y-10529444D01*
X14564544Y-10519414D01*
X14564542Y-10519413D01*
X14563699Y-10518800D01*
X14563699Y-10518800D01*
X14563699Y-10518800D01*
X14563217Y-10518555D01*
X14563217Y-10518554D01*
X14547563Y-10510579D01*
X14530340Y-10504983D01*
X14512455Y-10502150D01*
X14512455Y-10502150D01*
X14512455Y-10502150D01*
X14494345Y-10502150D01*
X14494345Y-10502150D01*
X14494345Y-10502150D01*
X14476459Y-10504983D01*
X14462106Y-10509646D01*
X14459047Y-10510131D01*
X14457288Y-10510131D01*
X14452116Y-10508672D01*
X14451555Y-10508328D01*
X14449727Y-10506887D01*
X14437458Y-10494619D01*
X14435638Y-10492113D01*
X14434529Y-10489937D01*
X14433450Y-10485443D01*
X14433450Y-10474406D01*
X14433935Y-10471346D01*
X14434287Y-10470263D01*
X14437883Y-10465313D01*
X14443702Y-10463422D01*
X14444301Y-10463422D01*
X14448795Y-10464501D01*
X14459236Y-10469821D01*
X14476459Y-10475417D01*
X14476459Y-10475417D01*
X14476459Y-10475417D01*
X14483614Y-10476550D01*
X14485402Y-10476833D01*
X14494345Y-10478250D01*
X14512455Y-10478250D01*
X14512455Y-10478250D01*
X14518417Y-10477306D01*
X14521398Y-10476834D01*
X14526455Y-10476032D01*
X14530341Y-10475417D01*
X14530341Y-10475417D01*
X14530341Y-10475417D01*
X14547564Y-10469821D01*
X14563699Y-10461600D01*
X14578350Y-10450955D01*
X14591155Y-10438150D01*
X14601800Y-10423499D01*
X14610021Y-10407364D01*
X14615617Y-10390141D01*
X14617103Y-10380758D01*
X14618450Y-10372255D01*
X14618450Y-10354145D01*
X14618450Y-10354145D01*
X14616561Y-10342221D01*
X14616561Y-10342221D01*
X14615617Y-10336259D01*
X14611424Y-10323354D01*
X14610021Y-10319036D01*
X14601800Y-10302901D01*
X14591155Y-10288250D01*
X14578350Y-10275445D01*
X14578350Y-10275444D01*
X14564544Y-10265414D01*
X14564542Y-10265413D01*
X14563699Y-10264800D01*
X14563699Y-10264800D01*
X14563699Y-10264800D01*
X14563217Y-10264555D01*
X14563217Y-10264554D01*
X14547563Y-10256579D01*
X14530340Y-10250983D01*
X14512455Y-10248150D01*
X14512455Y-10248150D01*
X14512455Y-10248150D01*
X14494345Y-10248150D01*
X14494345Y-10248150D01*
X14494345Y-10248150D01*
X14476459Y-10250983D01*
X14464500Y-10254868D01*
X14461441Y-10255353D01*
X14460302Y-10255353D01*
X14454483Y-10253462D01*
X14450887Y-10248512D01*
X14450534Y-10247428D01*
X14450050Y-10244369D01*
X14450050Y-10228031D01*
X14450535Y-10224971D01*
X14450887Y-10223887D01*
X14454483Y-10218938D01*
X14460302Y-10217047D01*
X14461441Y-10217047D01*
X14464500Y-10217531D01*
X14476436Y-10221410D01*
X14476459Y-10221417D01*
X14476459Y-10221417D01*
X14476459Y-10221417D01*
X14476459Y-10221417D01*
X14476459Y-10221417D01*
X14485402Y-10222834D01*
X14494345Y-10224250D01*
X14512455Y-10224250D01*
X14512455Y-10224250D01*
X14518417Y-10223306D01*
X14521398Y-10222834D01*
X14526603Y-10222009D01*
X14530341Y-10221417D01*
X14530341Y-10221417D01*
X14530341Y-10221417D01*
X14547564Y-10215821D01*
X14563699Y-10207600D01*
X14578350Y-10196955D01*
X14591155Y-10184150D01*
X14601800Y-10169499D01*
X14610021Y-10153364D01*
X14615617Y-10136141D01*
X14617033Y-10127198D01*
X14618355Y-10118853D01*
X14618450Y-10118255D01*
X14618450Y-10100145D01*
X14616643Y-10088734D01*
X14615617Y-10082259D01*
X14615617Y-10082259D01*
X14610021Y-10065036D01*
X14601800Y-10048901D01*
X14591155Y-10034250D01*
X14578350Y-10021445D01*
X14578349Y-10021444D01*
X14564544Y-10011414D01*
X14564542Y-10011413D01*
X14563699Y-10010800D01*
X14563699Y-10010800D01*
X14563699Y-10010800D01*
X14563217Y-10010555D01*
X14563217Y-10010554D01*
X14556093Y-10006925D01*
X14550448Y-10004048D01*
X14547797Y-10002698D01*
X14546472Y-10001886D01*
X14544398Y-10000379D01*
X14541282Y-9996630D01*
X14541203Y-9996465D01*
X14540993Y-9995895D01*
X14540969Y-9995905D01*
X14540721Y-9995305D01*
X14540259Y-9994505D01*
X14540054Y-9994150D01*
X14537962Y-9990527D01*
X14535448Y-9986173D01*
X14535448Y-9986172D01*
X14535448Y-9986172D01*
X14532572Y-9983296D01*
X14530751Y-9980791D01*
X14530234Y-9979776D01*
X14529277Y-9973733D01*
X14532054Y-9968281D01*
X14532479Y-9967857D01*
X14536419Y-9965442D01*
X14547564Y-9961821D01*
X14563699Y-9953600D01*
X14578350Y-9942955D01*
X14591155Y-9930150D01*
X14601800Y-9915499D01*
X14610021Y-9899364D01*
X14615617Y-9882141D01*
X14617117Y-9872668D01*
X14618450Y-9864255D01*
X14618450Y-9846145D01*
X14618450Y-9846145D01*
X14615995Y-9830646D01*
X14615995Y-9830646D01*
X14615617Y-9828259D01*
X14611677Y-9816134D01*
X14610021Y-9811036D01*
X14601800Y-9794901D01*
X14591155Y-9780250D01*
X14578350Y-9767445D01*
X14578350Y-9767444D01*
X14564544Y-9757414D01*
X14564542Y-9757413D01*
X14563699Y-9756800D01*
X14563699Y-9756800D01*
X14563699Y-9756800D01*
X14563217Y-9756555D01*
X14563217Y-9756554D01*
X14547563Y-9748579D01*
X14530340Y-9742983D01*
X14512455Y-9740150D01*
X14512455Y-9740150D01*
X14512455Y-9740150D01*
X14494345Y-9740150D01*
X14494345Y-9740150D01*
X14494345Y-9740150D01*
X14476459Y-9742983D01*
X14462106Y-9747646D01*
X14459047Y-9748131D01*
X14457288Y-9748131D01*
X14452115Y-9746672D01*
X14451900Y-9746540D01*
X14451554Y-9746328D01*
X14449726Y-9744887D01*
X14422792Y-9717952D01*
X14422791Y-9717952D01*
X14422790Y-9717951D01*
X14419388Y-9715987D01*
X14417284Y-9713651D01*
X14413659Y-9712679D01*
X14409707Y-9711620D01*
X14409707Y-9711620D01*
X14405143Y-9710398D01*
X14403473Y-9709950D01*
X14403473Y-9709950D01*
X14257001Y-9709950D01*
X14253941Y-9709465D01*
X14253633Y-9709365D01*
X14248683Y-9705769D01*
X14246793Y-9699949D01*
X14248684Y-9694130D01*
X14253634Y-9690534D01*
X14256693Y-9690050D01*
X14425172Y-9690050D01*
X14428231Y-9690535D01*
X14431067Y-9691456D01*
X14433827Y-9692862D01*
X14434085Y-9693050D01*
X14443100Y-9699600D01*
X14443101Y-9699600D01*
X14443126Y-9699613D01*
X14459236Y-9707821D01*
X14465788Y-9709950D01*
X14476459Y-9713417D01*
X14476459Y-9713417D01*
X14476459Y-9713417D01*
X14483614Y-9714550D01*
X14485402Y-9714833D01*
X14494345Y-9716250D01*
X14512455Y-9716250D01*
X14512455Y-9716250D01*
X14518417Y-9715306D01*
X14521398Y-9714834D01*
X14526455Y-9714032D01*
X14530341Y-9713417D01*
X14530341Y-9713417D01*
X14530341Y-9713417D01*
X14547564Y-9707821D01*
X14563699Y-9699600D01*
X14578350Y-9688955D01*
X14591155Y-9676150D01*
X14601800Y-9661499D01*
X14610021Y-9645364D01*
X14615617Y-9628141D01*
X14617033Y-9619198D01*
X14618450Y-9610255D01*
X14618450Y-9592145D01*
X14618450Y-9592145D01*
X14615617Y-9574259D01*
X14615617Y-9574259D01*
X14614024Y-9569357D01*
X14610021Y-9557036D01*
X14601800Y-9540901D01*
X14591155Y-9526250D01*
X14578350Y-9513445D01*
X14578350Y-9513444D01*
X14564544Y-9503414D01*
X14564542Y-9503413D01*
X14563699Y-9502800D01*
X14563699Y-9502800D01*
X14563699Y-9502800D01*
X14563217Y-9502555D01*
X14563217Y-9502554D01*
X14547563Y-9494579D01*
X14530340Y-9488983D01*
X14514232Y-9486431D01*
X14511286Y-9485474D01*
X14510271Y-9484957D01*
X14505944Y-9480630D01*
X14504987Y-9474589D01*
X14505036Y-9474278D01*
X14507813Y-9468826D01*
X14511371Y-9465268D01*
X14513876Y-9463448D01*
X14516533Y-9462094D01*
X14519478Y-9461138D01*
X14525104Y-9460246D01*
X14530341Y-9459417D01*
X14534440Y-9458085D01*
X14547564Y-9453821D01*
X14563699Y-9445600D01*
X14578350Y-9434955D01*
X14591155Y-9422150D01*
X14601800Y-9407499D01*
X14610021Y-9391364D01*
X14615617Y-9374141D01*
X14617659Y-9361249D01*
X14618450Y-9356255D01*
X14618450Y-9338145D01*
X14618450Y-9338145D01*
X14615727Y-9320953D01*
X14615727Y-9320953D01*
X14615634Y-9320369D01*
X14615617Y-9320259D01*
X14610021Y-9303036D01*
X14601800Y-9286901D01*
X14591155Y-9272250D01*
X14578350Y-9259445D01*
X14578350Y-9259444D01*
X14564544Y-9249414D01*
X14564542Y-9249413D01*
X14563699Y-9248800D01*
X14563699Y-9248800D01*
X14563699Y-9248800D01*
X14563217Y-9248555D01*
X14563217Y-9248554D01*
X14547563Y-9240579D01*
X14530340Y-9234983D01*
X14512455Y-9232150D01*
X14512455Y-9232150D01*
X14512455Y-9232150D01*
X14494345Y-9232150D01*
X14494345Y-9232150D01*
X14494345Y-9232150D01*
X14493047Y-9232356D01*
X14489950Y-9232356D01*
X14488633Y-9232147D01*
X14483181Y-9229369D01*
X14483099Y-9229287D01*
X14480477Y-9224602D01*
X14480323Y-9223962D01*
X14480050Y-9221651D01*
X14480050Y-9219145D01*
X14480534Y-9216087D01*
X14480946Y-9214818D01*
X14484542Y-9209868D01*
X14484633Y-9209802D01*
X14489675Y-9207943D01*
X14489968Y-9207920D01*
X14490331Y-9207891D01*
X14492655Y-9207982D01*
X14492934Y-9208027D01*
X14493686Y-9208146D01*
X14494345Y-9208250D01*
X14494345Y-9208250D01*
X14494346Y-9208250D01*
X14512455Y-9208250D01*
X14512455Y-9208250D01*
X14518417Y-9207306D01*
X14521398Y-9206834D01*
X14526455Y-9206032D01*
X14530341Y-9205417D01*
X14530341Y-9205417D01*
X14530341Y-9205417D01*
X14547564Y-9199821D01*
X14563699Y-9191600D01*
X14578350Y-9180955D01*
X14591155Y-9168150D01*
X14601800Y-9153499D01*
X14610021Y-9137364D01*
X14615617Y-9120141D01*
X14618205Y-9103802D01*
X14618450Y-9102255D01*
X14618450Y-9084145D01*
X14616289Y-9070501D01*
X14616289Y-9070501D01*
X14615841Y-9067673D01*
X14615617Y-9066259D01*
X14610021Y-9049036D01*
X14601800Y-9032901D01*
X14591155Y-9018250D01*
X14578350Y-9005445D01*
X14578350Y-9005444D01*
X14564544Y-8995414D01*
X14564542Y-8995413D01*
X14563699Y-8994800D01*
X14563699Y-8994800D01*
X14563699Y-8994800D01*
X14563217Y-8994555D01*
X14563217Y-8994554D01*
X14547563Y-8986579D01*
X14530340Y-8980983D01*
X14512455Y-8978150D01*
X14512455Y-8978150D01*
X14512455Y-8978150D01*
X14494345Y-8978150D01*
X14494345Y-8978150D01*
X14494345Y-8978150D01*
X14476459Y-8980983D01*
X14459236Y-8986579D01*
X14445841Y-8993404D01*
X14442895Y-8994361D01*
X14441770Y-8994539D01*
X14435726Y-8993582D01*
X14431400Y-8989255D01*
X14431400Y-8989254D01*
X14431337Y-8989131D01*
X14431128Y-8988721D01*
X14430050Y-8984227D01*
X14430050Y-8974858D01*
X14430534Y-8971799D01*
X14430613Y-8971557D01*
X14431289Y-8969476D01*
X14433704Y-8965535D01*
X14449447Y-8949792D01*
X14451952Y-8947972D01*
X14453519Y-8947174D01*
X14458789Y-8946125D01*
X14459446Y-8946177D01*
X14461728Y-8946631D01*
X14476459Y-8951417D01*
X14483614Y-8952550D01*
X14485402Y-8952833D01*
X14494345Y-8954250D01*
X14512455Y-8954250D01*
X14512455Y-8954250D01*
X14518417Y-8953306D01*
X14521398Y-8952834D01*
X14526455Y-8952032D01*
X14530341Y-8951417D01*
X14530341Y-8951417D01*
X14530341Y-8951417D01*
X14547564Y-8945821D01*
X14563699Y-8937600D01*
X14578350Y-8926955D01*
X14591155Y-8914150D01*
X14601800Y-8899499D01*
X14610021Y-8883364D01*
X14615617Y-8866141D01*
X14617795Y-8852388D01*
X14618450Y-8848255D01*
X14618450Y-8830145D01*
X14616325Y-8816731D01*
X14615617Y-8812259D01*
X14615617Y-8812259D01*
X14610021Y-8795036D01*
X14601800Y-8778901D01*
X14591155Y-8764250D01*
X14578350Y-8751445D01*
X14578350Y-8751444D01*
X14564544Y-8741414D01*
X14564542Y-8741413D01*
X14563699Y-8740800D01*
X14563699Y-8740800D01*
X14563699Y-8740800D01*
X14563217Y-8740555D01*
X14563217Y-8740554D01*
X14547563Y-8732579D01*
X14530340Y-8726983D01*
X14512455Y-8724150D01*
X14512455Y-8724150D01*
X14512455Y-8724150D01*
X14494345Y-8724150D01*
X14494345Y-8724150D01*
X14494345Y-8724150D01*
X14476459Y-8726983D01*
X14459236Y-8732579D01*
X14445841Y-8739404D01*
X14442895Y-8740361D01*
X14441770Y-8740539D01*
X14435726Y-8739582D01*
X14431400Y-8735255D01*
X14431400Y-8735254D01*
X14431128Y-8734721D01*
X14430050Y-8730227D01*
X14430050Y-8720858D01*
X14430534Y-8717799D01*
X14431155Y-8715890D01*
X14431289Y-8715476D01*
X14433704Y-8711535D01*
X14449447Y-8695792D01*
X14451952Y-8693972D01*
X14453519Y-8693174D01*
X14458789Y-8692125D01*
X14459446Y-8692177D01*
X14461728Y-8692631D01*
X14476459Y-8697417D01*
X14483614Y-8698550D01*
X14485402Y-8698833D01*
X14494345Y-8700250D01*
X14512455Y-8700250D01*
X14512455Y-8700250D01*
X14518417Y-8699306D01*
X14521398Y-8698834D01*
X14526455Y-8698032D01*
X14530341Y-8697417D01*
X14530341Y-8697417D01*
X14530341Y-8697417D01*
X14547564Y-8691821D01*
X14563699Y-8683600D01*
X14578350Y-8672955D01*
X14591155Y-8660150D01*
X14601800Y-8645499D01*
X14610021Y-8629364D01*
X14615617Y-8612141D01*
X14617463Y-8600485D01*
X14618450Y-8594255D01*
X14618450Y-8576145D01*
X14616302Y-8562582D01*
X14616125Y-8561467D01*
X14615879Y-8559911D01*
X14615617Y-8558259D01*
X14610905Y-8543757D01*
X14610021Y-8541036D01*
X14601800Y-8524901D01*
X14591155Y-8510250D01*
X14578350Y-8497445D01*
X14575054Y-8495050D01*
X14564544Y-8487414D01*
X14564542Y-8487413D01*
X14563699Y-8486800D01*
X14563699Y-8486800D01*
X14563699Y-8486800D01*
X14563217Y-8486555D01*
X14563217Y-8486554D01*
X14547563Y-8478579D01*
X14530340Y-8472983D01*
X14512455Y-8470150D01*
X14512455Y-8470150D01*
X14512455Y-8470150D01*
X14494345Y-8470150D01*
X14494345Y-8470150D01*
X14494345Y-8470150D01*
X14476459Y-8472983D01*
X14459236Y-8478579D01*
X14443101Y-8486800D01*
X14443100Y-8486800D01*
X14439189Y-8489642D01*
X14439189Y-8489642D01*
X14428450Y-8497445D01*
X14415644Y-8510250D01*
X14410322Y-8517575D01*
X14405000Y-8524900D01*
X14405000Y-8524901D01*
X14396779Y-8541036D01*
X14391183Y-8558260D01*
X14388350Y-8576145D01*
X14388350Y-8594255D01*
X14391183Y-8612140D01*
X14395846Y-8626494D01*
X14396331Y-8629553D01*
X14396331Y-8631312D01*
X14394872Y-8636484D01*
X14394528Y-8637046D01*
X14393087Y-8638873D01*
X14357952Y-8674008D01*
X14357952Y-8674009D01*
X14357951Y-8674009D01*
X14355862Y-8677629D01*
X14355861Y-8677629D01*
X14352679Y-8683141D01*
X14352679Y-8683141D01*
X14352679Y-8683141D01*
X14351032Y-8689288D01*
X14351032Y-8689289D01*
X14349950Y-8693327D01*
X14349950Y-8880844D01*
X14349465Y-8883904D01*
X14348711Y-8886226D01*
X14346296Y-8890167D01*
X14337450Y-8899013D01*
X14331999Y-8901791D01*
X14325955Y-8900833D01*
X14321629Y-8896507D01*
X14320550Y-8892012D01*
X14320550Y-8597918D01*
X14320550Y-8597916D01*
X14320388Y-8594778D01*
X14320126Y-8592243D01*
X14319643Y-8589138D01*
X14319505Y-8588474D01*
X14317088Y-8581389D01*
X14314456Y-8575961D01*
X14310389Y-8569676D01*
X14309044Y-8568070D01*
X14309043Y-8568070D01*
X14309043Y-8568069D01*
X14309043Y-8568069D01*
X14306015Y-8564938D01*
X14306013Y-8564936D01*
X14303387Y-8562582D01*
X14303386Y-8562581D01*
X14299941Y-8559911D01*
X14299941Y-8559911D01*
X14299941Y-8559910D01*
X14281474Y-8547599D01*
X14280815Y-8547229D01*
X14277451Y-8545336D01*
X14277451Y-8545336D01*
X14277450Y-8545336D01*
X14277449Y-8545336D01*
X14274067Y-8543757D01*
X14274066Y-8543756D01*
X14269750Y-8542126D01*
X14266562Y-8541190D01*
X14266561Y-8541189D01*
X14262304Y-8540263D01*
X14258811Y-8539761D01*
X14255187Y-8539502D01*
X14254463Y-8539450D01*
X14254462Y-8539450D01*
X14240450Y-8539450D01*
X14234631Y-8537559D01*
X14231034Y-8532609D01*
X14230550Y-8529550D01*
X14230550Y-8395136D01*
X14230526Y-8394695D01*
X14230375Y-8391870D01*
X14230091Y-8389235D01*
X14230008Y-8388534D01*
X14226530Y-8377859D01*
X14225975Y-8376844D01*
X14223182Y-8371728D01*
X14223181Y-8371727D01*
X14220984Y-8368793D01*
X14217970Y-8364766D01*
X14202084Y-8348880D01*
X14202083Y-8348879D01*
X14202082Y-8348878D01*
X14199652Y-8346695D01*
X14197824Y-8345222D01*
X14197587Y-8345031D01*
X14197032Y-8344595D01*
X14191045Y-8341550D01*
X14187025Y-8339506D01*
X14187024Y-8339506D01*
X14180322Y-8337538D01*
X14180321Y-8337537D01*
X14173890Y-8336613D01*
X14171714Y-8336300D01*
X14171714Y-8336300D01*
X14163388Y-8336300D01*
X14160118Y-8335744D01*
X14159029Y-8335363D01*
X14156420Y-8333984D01*
X14155547Y-8333340D01*
X14153460Y-8331252D01*
X14152815Y-8330379D01*
X14151436Y-8327770D01*
X14151056Y-8326682D01*
X14150500Y-8323412D01*
X14150500Y-8322145D01*
X14388350Y-8322145D01*
X14388350Y-8340255D01*
X14391183Y-8358140D01*
X14396534Y-8374612D01*
X14396779Y-8375364D01*
X14404643Y-8390798D01*
X14404643Y-8390798D01*
X14404643Y-8390798D01*
X14405000Y-8391499D01*
X14405000Y-8391499D01*
X14405000Y-8391499D01*
X14415645Y-8406150D01*
X14428450Y-8418955D01*
X14443101Y-8429600D01*
X14459236Y-8437821D01*
X14462106Y-8438754D01*
X14476459Y-8443417D01*
X14476459Y-8443417D01*
X14476459Y-8443417D01*
X14483614Y-8444550D01*
X14485402Y-8444833D01*
X14494345Y-8446250D01*
X14512455Y-8446250D01*
X14512455Y-8446250D01*
X14518417Y-8445306D01*
X14521398Y-8444834D01*
X14526455Y-8444032D01*
X14530341Y-8443417D01*
X14530341Y-8443417D01*
X14530341Y-8443417D01*
X14547564Y-8437821D01*
X14563699Y-8429600D01*
X14578350Y-8418955D01*
X14591155Y-8406150D01*
X14601800Y-8391499D01*
X14610021Y-8375364D01*
X14615617Y-8358141D01*
X14617717Y-8344879D01*
X14618450Y-8340255D01*
X14618450Y-8322145D01*
X14618450Y-8322145D01*
X14615617Y-8304259D01*
X14615617Y-8304259D01*
X14615070Y-8302575D01*
X14610021Y-8287036D01*
X14601800Y-8270901D01*
X14591155Y-8256250D01*
X14578350Y-8243445D01*
X14577311Y-8242690D01*
X14564544Y-8233414D01*
X14564542Y-8233412D01*
X14563699Y-8232800D01*
X14563699Y-8232800D01*
X14563699Y-8232800D01*
X14563217Y-8232554D01*
X14563217Y-8232554D01*
X14547563Y-8224579D01*
X14530340Y-8218983D01*
X14512455Y-8216150D01*
X14512455Y-8216150D01*
X14512455Y-8216150D01*
X14494345Y-8216150D01*
X14494345Y-8216150D01*
X14494345Y-8216150D01*
X14476459Y-8218983D01*
X14459236Y-8224579D01*
X14443101Y-8232800D01*
X14443100Y-8232800D01*
X14435775Y-8238122D01*
X14435775Y-8238122D01*
X14428450Y-8243444D01*
X14415644Y-8256250D01*
X14414882Y-8257300D01*
X14405000Y-8270901D01*
X14396779Y-8287036D01*
X14391183Y-8304259D01*
X14388350Y-8322145D01*
X14150500Y-8322145D01*
X14150500Y-8288188D01*
X14151055Y-8284918D01*
X14152865Y-8279748D01*
X14153428Y-8278446D01*
X14154130Y-8277099D01*
X14156415Y-8270496D01*
X14157832Y-8264512D01*
X14157234Y-8253301D01*
X14155587Y-8246511D01*
X14152355Y-8238439D01*
X14145159Y-8225973D01*
X14145159Y-8225973D01*
X14144433Y-8224717D01*
X14144433Y-8224717D01*
X14144352Y-8224577D01*
X14143797Y-8223538D01*
X14143469Y-8223048D01*
X14143450Y-8223014D01*
X14143416Y-8222968D01*
X14141109Y-8219516D01*
X14141109Y-8219515D01*
X14141108Y-8219515D01*
X14137312Y-8214889D01*
X14137311Y-8214889D01*
X14137311Y-8214888D01*
X14124453Y-8202030D01*
X14124452Y-8202029D01*
X14124450Y-8202028D01*
X14122020Y-8199845D01*
X14121541Y-8199458D01*
X14119955Y-8198181D01*
X14119401Y-8197745D01*
X14114564Y-8195285D01*
X14109394Y-8192656D01*
X14109393Y-8192656D01*
X14102690Y-8190688D01*
X14102689Y-8190687D01*
X14096259Y-8189763D01*
X14094082Y-8189450D01*
X14094082Y-8189450D01*
X14066601Y-8189450D01*
X14060782Y-8187559D01*
X14060587Y-8187414D01*
X14060554Y-8187389D01*
X14054447Y-8182693D01*
X14054312Y-8182615D01*
X14053936Y-8182327D01*
X14052366Y-8180051D01*
X14050657Y-8177876D01*
X14050584Y-8177467D01*
X14050462Y-8177290D01*
X14050473Y-8176843D01*
X14050050Y-8174463D01*
X14050050Y-8068145D01*
X14388350Y-8068145D01*
X14388350Y-8086255D01*
X14391183Y-8104140D01*
X14392929Y-8109515D01*
X14396779Y-8121363D01*
X14396779Y-8121363D01*
X14396779Y-8121364D01*
X14405000Y-8137499D01*
X14415645Y-8152150D01*
X14428450Y-8164955D01*
X14443101Y-8175600D01*
X14459236Y-8183821D01*
X14462106Y-8184753D01*
X14476459Y-8189417D01*
X14476459Y-8189417D01*
X14476459Y-8189417D01*
X14483614Y-8190550D01*
X14485402Y-8190833D01*
X14494345Y-8192250D01*
X14512455Y-8192250D01*
X14512455Y-8192250D01*
X14518417Y-8191306D01*
X14521398Y-8190833D01*
X14526455Y-8190032D01*
X14530341Y-8189417D01*
X14530341Y-8189417D01*
X14530341Y-8189417D01*
X14547564Y-8183821D01*
X14563699Y-8175600D01*
X14578350Y-8164955D01*
X14591155Y-8152150D01*
X14601800Y-8137499D01*
X14610021Y-8121364D01*
X14615617Y-8104141D01*
X14617033Y-8095198D01*
X14618450Y-8086255D01*
X14618450Y-8068145D01*
X14615617Y-8050259D01*
X14615617Y-8050259D01*
X14614948Y-8048199D01*
X14610021Y-8033036D01*
X14601800Y-8016901D01*
X14591155Y-8002250D01*
X14578350Y-7989445D01*
X14578350Y-7989444D01*
X14564544Y-7979414D01*
X14564542Y-7979412D01*
X14563699Y-7978800D01*
X14563699Y-7978800D01*
X14563699Y-7978800D01*
X14563217Y-7978554D01*
X14563217Y-7978554D01*
X14547563Y-7970579D01*
X14530340Y-7964983D01*
X14512455Y-7962150D01*
X14512455Y-7962150D01*
X14512455Y-7962150D01*
X14494345Y-7962150D01*
X14494345Y-7962150D01*
X14494345Y-7962150D01*
X14476459Y-7964983D01*
X14459236Y-7970579D01*
X14443101Y-7978800D01*
X14443100Y-7978800D01*
X14441744Y-7979786D01*
X14441744Y-7979786D01*
X14428450Y-7989445D01*
X14415644Y-8002250D01*
X14411896Y-8007408D01*
X14411897Y-8007409D01*
X14405000Y-8016900D01*
X14405000Y-8016901D01*
X14396779Y-8033036D01*
X14391183Y-8050259D01*
X14388350Y-8068145D01*
X14050050Y-8068145D01*
X14050050Y-8067784D01*
X14050531Y-8064735D01*
X14050540Y-8064707D01*
X14050543Y-8064702D01*
X14050543Y-8064697D01*
X14050763Y-8064020D01*
X14050946Y-8063456D01*
X14054543Y-8058506D01*
X14054543Y-8058506D01*
X14055437Y-8057856D01*
X14058693Y-8056303D01*
X14061213Y-8055628D01*
X14061214Y-8055628D01*
X14061214Y-8055628D01*
X14074336Y-8048052D01*
X14074336Y-8048052D01*
X14074336Y-8048051D01*
X14074337Y-8048051D01*
X14074589Y-8047905D01*
X14074591Y-8047904D01*
X14074721Y-8047829D01*
X14075257Y-8047131D01*
X14085051Y-8037336D01*
X14087534Y-8033036D01*
X14092628Y-8024214D01*
X14092628Y-8024214D01*
X14092628Y-8024213D01*
X14096550Y-8009577D01*
X14096550Y-7994423D01*
X14092628Y-7979786D01*
X14092628Y-7979786D01*
X14092596Y-7979715D01*
X14092469Y-7979511D01*
X14085199Y-7966919D01*
X14085199Y-7966919D01*
X14085052Y-7966664D01*
X14085052Y-7966664D01*
X14085051Y-7966663D01*
X14074336Y-7955948D01*
X14074336Y-7955948D01*
X14074336Y-7955948D01*
X14074336Y-7955948D01*
X14066943Y-7951679D01*
X14064839Y-7949343D01*
X14055535Y-7946850D01*
X14055535Y-7946850D01*
X14048977Y-7945093D01*
X14046577Y-7944450D01*
X14046576Y-7944450D01*
X14031423Y-7944450D01*
X14031423Y-7944450D01*
X14029530Y-7944957D01*
X14022465Y-7946850D01*
X14022465Y-7946850D01*
X14016786Y-7948372D01*
X14016786Y-7948372D01*
X14016785Y-7948372D01*
X14003664Y-7955948D01*
X13992948Y-7966664D01*
X13989896Y-7971950D01*
X13987947Y-7974357D01*
X13987032Y-7975180D01*
X13981443Y-7977669D01*
X13975684Y-7976523D01*
X13974800Y-7976043D01*
X13972523Y-7974344D01*
X13947523Y-7949343D01*
X13921366Y-7923186D01*
X13921365Y-7923186D01*
X13921365Y-7923185D01*
X13911093Y-7917255D01*
X13911093Y-7917255D01*
X13907719Y-7916351D01*
X13903006Y-7915088D01*
X13903003Y-7915087D01*
X13899635Y-7914185D01*
X13899635Y-7914185D01*
X13600365Y-7914185D01*
X13600365Y-7914185D01*
X13599020Y-7914545D01*
X13594844Y-7915664D01*
X13594843Y-7915664D01*
X13588908Y-7917254D01*
X13588906Y-7917255D01*
X13578635Y-7923185D01*
X13578635Y-7923185D01*
X13578634Y-7923186D01*
X13527570Y-7974249D01*
X13525065Y-7976070D01*
X13523969Y-7976628D01*
X13517925Y-7977586D01*
X13512659Y-7974989D01*
X13511929Y-7974296D01*
X13510170Y-7972065D01*
X13508431Y-7969053D01*
X13507051Y-7966663D01*
X13496336Y-7955948D01*
X13496336Y-7955948D01*
X13496336Y-7955948D01*
X13496336Y-7955948D01*
X13488943Y-7951679D01*
X13486839Y-7949343D01*
X13477535Y-7946850D01*
X13477535Y-7946850D01*
X13470977Y-7945093D01*
X13468577Y-7944450D01*
X13468576Y-7944450D01*
X13453423Y-7944450D01*
X13453423Y-7944450D01*
X13451530Y-7944957D01*
X13444465Y-7946850D01*
X13444465Y-7946850D01*
X13438786Y-7948372D01*
X13438786Y-7948372D01*
X13438785Y-7948372D01*
X13425664Y-7955948D01*
X13414948Y-7966664D01*
X13407372Y-7979786D01*
X13407344Y-7979860D01*
X13407289Y-7980094D01*
X13403450Y-7994423D01*
X13403450Y-8009576D01*
X13405412Y-8016901D01*
X13407372Y-8024214D01*
X13414948Y-8037336D01*
X13414948Y-8037336D01*
X13414948Y-8037336D01*
X13414948Y-8037336D01*
X13425663Y-8048051D01*
X13425664Y-8048052D01*
X13425664Y-8048052D01*
X13425719Y-8048091D01*
X13425919Y-8048199D01*
X13438786Y-8055628D01*
X13438786Y-8055628D01*
X13438786Y-8055628D01*
X13438787Y-8055628D01*
X13438787Y-8055628D01*
X13441098Y-8056247D01*
X13443927Y-8057507D01*
X13445046Y-8058233D01*
X13448896Y-8062988D01*
X13449292Y-8064020D01*
X13449950Y-8067568D01*
X13449950Y-8180486D01*
X13449950Y-8180486D01*
X13450241Y-8182999D01*
X13450604Y-8183821D01*
X13450974Y-8184658D01*
X13450974Y-8184659D01*
X13454779Y-8193276D01*
X13454779Y-8193276D01*
X13454779Y-8193276D01*
X13462723Y-8201221D01*
X13473001Y-8205758D01*
X13475513Y-8206050D01*
X13527272Y-8206050D01*
X13530331Y-8206534D01*
X13532136Y-8207121D01*
X13536434Y-8209911D01*
X13536717Y-8210226D01*
X13537934Y-8211901D01*
X13542952Y-8220591D01*
X13553644Y-8231283D01*
X13556941Y-8234581D01*
X13558762Y-8237086D01*
X13559871Y-8239262D01*
X13560950Y-8243757D01*
X13560950Y-8246202D01*
X13560465Y-8249262D01*
X13559795Y-8251324D01*
X13556258Y-8256231D01*
X13556206Y-8256269D01*
X13555861Y-8256830D01*
X13548562Y-8266720D01*
X13548562Y-8266721D01*
X13544226Y-8279111D01*
X13544226Y-8279111D01*
X13544226Y-8279113D01*
X13543950Y-8282052D01*
X13543950Y-8329546D01*
X13544226Y-8332487D01*
X13544226Y-8332488D01*
X13548562Y-8344879D01*
X13548562Y-8344880D01*
X13556356Y-8355441D01*
X13556357Y-8355441D01*
X13556357Y-8355442D01*
X13556358Y-8355443D01*
X13556358Y-8355443D01*
X13556359Y-8355443D01*
X13560013Y-8358140D01*
X13566324Y-8362798D01*
X13566923Y-8363240D01*
X13567003Y-8363267D01*
X13575556Y-8366260D01*
X13578712Y-8367364D01*
X13580439Y-8368162D01*
X13581843Y-8368983D01*
X13585912Y-8373552D01*
X13586518Y-8379641D01*
X13586516Y-8379650D01*
X13586496Y-8379737D01*
X13584191Y-8384232D01*
X13583947Y-8384503D01*
X13582462Y-8385852D01*
X13577140Y-8389780D01*
X13574391Y-8391207D01*
X13573126Y-8391628D01*
X13567007Y-8391674D01*
X13567007Y-8391674D01*
X13565805Y-8391293D01*
X13562915Y-8389821D01*
X13553080Y-8382562D01*
X13540689Y-8378226D01*
X13540687Y-8378226D01*
X13537747Y-8377950D01*
X13537746Y-8377950D01*
X13500254Y-8377950D01*
X13497312Y-8378226D01*
X13497312Y-8378226D01*
X13484921Y-8382562D01*
X13484920Y-8382562D01*
X13480273Y-8385992D01*
X13477524Y-8387418D01*
X13475413Y-8388122D01*
X13469721Y-8388292D01*
X13457247Y-8384950D01*
X13457247Y-8384950D01*
X13442752Y-8384950D01*
X13436579Y-8386604D01*
X13436579Y-8386604D01*
X13428751Y-8388702D01*
X13428751Y-8388702D01*
X13416199Y-8395948D01*
X13405948Y-8406199D01*
X13398702Y-8418751D01*
X13397736Y-8422353D01*
X13394950Y-8432753D01*
X13394950Y-8447247D01*
X13397158Y-8455490D01*
X13398702Y-8461249D01*
X13405948Y-8473801D01*
X13405949Y-8473801D01*
X13405949Y-8473801D01*
X13405949Y-8473802D01*
X13416198Y-8484051D01*
X13416199Y-8484051D01*
X13416199Y-8484051D01*
X13416254Y-8484091D01*
X13416454Y-8484198D01*
X13428751Y-8491298D01*
X13428751Y-8491298D01*
X13428751Y-8491298D01*
X13442752Y-8495050D01*
X13442753Y-8495050D01*
X13442753Y-8495050D01*
X13457248Y-8495050D01*
X13458621Y-8495050D01*
X13459810Y-8494363D01*
X13469057Y-8491886D01*
X13472136Y-8491562D01*
X13474358Y-8491678D01*
X13479719Y-8493599D01*
X13484921Y-8497438D01*
X13497312Y-8501774D01*
X13500254Y-8502050D01*
X13537746Y-8502050D01*
X13537746Y-8502050D01*
X13538334Y-8501995D01*
X13540688Y-8501774D01*
X13553079Y-8497438D01*
X13561398Y-8491298D01*
X13562860Y-8490220D01*
X13565608Y-8488794D01*
X13566874Y-8488371D01*
X13572992Y-8488326D01*
X13573330Y-8488433D01*
X13574195Y-8488707D01*
X13577085Y-8490179D01*
X13578848Y-8491480D01*
X13586324Y-8496998D01*
X13586605Y-8497240D01*
X13586606Y-8497241D01*
X13586874Y-8497423D01*
X13586996Y-8497465D01*
X13599312Y-8501774D01*
X13602254Y-8502050D01*
X13630982Y-8502050D01*
X13634040Y-8502534D01*
X13634618Y-8502722D01*
X13635309Y-8502946D01*
X13640259Y-8506542D01*
X13640559Y-8506955D01*
X13642450Y-8512774D01*
X13642450Y-9120493D01*
X13641965Y-9123552D01*
X13641211Y-9125875D01*
X13638796Y-9129816D01*
X13624559Y-9144053D01*
X13622053Y-9145874D01*
X13621078Y-9146370D01*
X13615035Y-9147327D01*
X13609584Y-9144549D01*
X13606958Y-9139860D01*
X13606823Y-9139300D01*
X13606550Y-9136989D01*
X13606550Y-9073014D01*
X13606550Y-9073014D01*
X13606258Y-9070501D01*
X13601721Y-9060224D01*
X13593776Y-9052279D01*
X13593776Y-9052279D01*
X13593776Y-9052279D01*
X13593591Y-9052197D01*
X13593591Y-9052197D01*
X13593590Y-9052197D01*
X13591385Y-9051224D01*
X13588782Y-9049545D01*
X13587583Y-9048471D01*
X13584626Y-9043671D01*
X13584391Y-9042800D01*
X13584050Y-9040223D01*
X13584050Y-8877759D01*
X13584387Y-8875197D01*
X13584761Y-8873801D01*
X13585039Y-8872765D01*
X13586027Y-8870378D01*
X13591298Y-8861249D01*
X13591298Y-8861249D01*
X13591298Y-8861249D01*
X13595050Y-8847248D01*
X13595050Y-8832753D01*
X13591298Y-8818752D01*
X13591298Y-8818751D01*
X13591149Y-8818493D01*
X13590039Y-8815601D01*
X13589762Y-8814297D01*
X13590401Y-8808212D01*
X13590610Y-8807742D01*
X13593114Y-8804961D01*
X13592825Y-8804672D01*
X13593776Y-8803721D01*
X13593776Y-8803721D01*
X13601721Y-8795777D01*
X13606258Y-8785499D01*
X13606550Y-8782987D01*
X13606550Y-8669014D01*
X13606258Y-8666501D01*
X13601721Y-8656224D01*
X13593776Y-8648279D01*
X13593776Y-8648279D01*
X13585711Y-8644718D01*
X13585710Y-8644718D01*
X13583499Y-8643742D01*
X13583499Y-8643741D01*
X13583499Y-8643741D01*
X13582015Y-8643569D01*
X13582014Y-8643569D01*
X13581191Y-8643474D01*
X13580987Y-8643450D01*
X13580987Y-8643450D01*
X13506976Y-8643450D01*
X13506788Y-8643476D01*
X13504501Y-8643741D01*
X13504501Y-8643741D01*
X13494224Y-8648279D01*
X13486279Y-8656224D01*
X13481741Y-8666501D01*
X13481450Y-8669012D01*
X13481450Y-8669013D01*
X13481450Y-8782986D01*
X13481450Y-8782986D01*
X13481741Y-8785499D01*
X13483625Y-8789765D01*
X13483854Y-8790283D01*
X13483854Y-8790284D01*
X13486279Y-8795776D01*
X13486279Y-8795777D01*
X13489744Y-8799242D01*
X13491565Y-8801747D01*
X13492170Y-8802935D01*
X13493127Y-8808978D01*
X13492955Y-8810070D01*
X13491750Y-8813471D01*
X13488701Y-8818751D01*
X13488701Y-8818752D01*
X13485056Y-8832357D01*
X13484950Y-8832753D01*
X13484950Y-8847248D01*
X13487909Y-8858290D01*
X13488366Y-8859998D01*
X13488702Y-8861249D01*
X13488702Y-8861249D01*
X13495949Y-8873801D01*
X13499942Y-8877794D01*
X13501762Y-8880300D01*
X13502871Y-8882476D01*
X13503950Y-8886970D01*
X13503950Y-9013093D01*
X13503465Y-9016152D01*
X13503113Y-9017236D01*
X13499517Y-9022186D01*
X13493698Y-9024077D01*
X13493211Y-9024077D01*
X13488261Y-9022750D01*
X13486977Y-9022009D01*
X13484874Y-9019673D01*
X13478290Y-9017909D01*
X13478290Y-9017909D01*
X13467247Y-9014950D01*
X13467247Y-9014950D01*
X13452752Y-9014950D01*
X13446579Y-9016604D01*
X13446579Y-9016604D01*
X13438751Y-9018702D01*
X13438751Y-9018702D01*
X13426199Y-9025948D01*
X13415948Y-9036199D01*
X13408702Y-9048751D01*
X13406706Y-9056198D01*
X13404950Y-9062753D01*
X13404950Y-9077247D01*
X13406798Y-9084145D01*
X13408702Y-9091249D01*
X13415948Y-9103801D01*
X13415949Y-9103801D01*
X13415949Y-9103801D01*
X13415949Y-9103802D01*
X13426198Y-9114051D01*
X13426199Y-9114051D01*
X13426199Y-9114051D01*
X13426254Y-9114091D01*
X13426454Y-9114198D01*
X13438751Y-9121298D01*
X13438751Y-9121298D01*
X13438751Y-9121298D01*
X13452752Y-9125050D01*
X13452753Y-9125050D01*
X13453396Y-9125135D01*
X13453393Y-9125153D01*
X13455801Y-9125535D01*
X13456849Y-9125875D01*
X13458124Y-9126289D01*
X13462065Y-9128704D01*
X13477442Y-9144081D01*
X13479262Y-9146587D01*
X13480371Y-9148763D01*
X13481450Y-9153257D01*
X13481450Y-9184242D01*
X13480965Y-9187301D01*
X13480211Y-9189624D01*
X13477796Y-9193564D01*
X13476420Y-9194941D01*
X13473914Y-9196762D01*
X13471738Y-9197871D01*
X13467243Y-9198950D01*
X13448692Y-9198950D01*
X13445719Y-9199229D01*
X13445717Y-9199229D01*
X13445717Y-9199229D01*
X13433184Y-9203615D01*
X13422501Y-9211499D01*
X13422499Y-9211501D01*
X13414615Y-9222184D01*
X13410229Y-9234717D01*
X13410229Y-9234717D01*
X13410229Y-9234719D01*
X13409950Y-9237692D01*
X13409950Y-9282308D01*
X13410229Y-9285281D01*
X13410229Y-9285282D01*
X13410229Y-9285283D01*
X13414615Y-9297816D01*
X13422499Y-9308499D01*
X13422499Y-9308499D01*
X13422500Y-9308500D01*
X13422500Y-9308500D01*
X13431879Y-9315422D01*
X13433482Y-9316605D01*
X13433450Y-9316648D01*
X13434760Y-9317709D01*
X13435686Y-9318663D01*
X13438382Y-9324156D01*
X13437370Y-9330118D01*
X13436862Y-9331096D01*
X13435075Y-9333536D01*
X13379682Y-9388929D01*
X13377176Y-9390750D01*
X13376397Y-9391147D01*
X13370354Y-9392104D01*
X13364902Y-9389326D01*
X13362146Y-9384001D01*
X13361950Y-9382861D01*
X13361807Y-9381185D01*
X13361807Y-9366879D01*
X13360298Y-9361249D01*
X13360298Y-9361248D01*
X13358960Y-9356255D01*
X13358055Y-9352878D01*
X13358055Y-9352877D01*
X13358055Y-9352877D01*
X13358055Y-9352876D01*
X13358023Y-9352805D01*
X13357897Y-9352603D01*
X13350955Y-9340580D01*
X13350955Y-9340580D01*
X13350808Y-9340325D01*
X13350808Y-9340325D01*
X13350808Y-9340325D01*
X13340558Y-9330075D01*
X13340558Y-9330075D01*
X13340558Y-9330075D01*
X13333734Y-9326135D01*
X13331631Y-9323799D01*
X13325047Y-9322035D01*
X13325047Y-9322035D01*
X13315257Y-9319412D01*
X13314004Y-9319076D01*
X13313361Y-9318991D01*
X13313363Y-9318973D01*
X13310956Y-9318592D01*
X13308633Y-9317837D01*
X13304692Y-9315422D01*
X13296670Y-9307400D01*
X13294850Y-9304895D01*
X13294244Y-9303706D01*
X13293287Y-9297663D01*
X13293367Y-9297160D01*
X13296144Y-9291708D01*
X13300686Y-9287166D01*
X13300840Y-9286901D01*
X13307934Y-9274614D01*
X13307934Y-9274614D01*
X13307934Y-9274613D01*
X13308567Y-9272250D01*
X13311686Y-9260612D01*
X13311686Y-9246117D01*
X13307934Y-9232116D01*
X13307934Y-9232116D01*
X13307934Y-9232116D01*
X13307933Y-9232115D01*
X13307901Y-9232044D01*
X13307775Y-9231841D01*
X13300834Y-9219819D01*
X13300834Y-9219819D01*
X13300687Y-9219564D01*
X13300687Y-9219563D01*
X13300686Y-9219563D01*
X13290437Y-9209314D01*
X13290437Y-9209314D01*
X13290437Y-9209313D01*
X13290436Y-9209313D01*
X13279112Y-9202775D01*
X13279106Y-9202772D01*
X13277884Y-9202066D01*
X13277884Y-9202066D01*
X13277754Y-9202031D01*
X13276710Y-9201460D01*
X13276552Y-9201293D01*
X13276072Y-9201079D01*
X13274954Y-9200353D01*
X13271104Y-9195598D01*
X13271103Y-9195598D01*
X13270707Y-9194565D01*
X13270050Y-9191018D01*
X13270050Y-9152028D01*
X13270534Y-9148969D01*
X13270869Y-9147939D01*
X13271013Y-9147497D01*
X13274299Y-9142782D01*
X13275573Y-9141777D01*
X13276751Y-9140979D01*
X13281632Y-9138161D01*
X13288137Y-9134405D01*
X13288427Y-9134265D01*
X13288505Y-9134213D01*
X13289006Y-9133904D01*
X13289136Y-9133829D01*
X13289672Y-9133130D01*
X13299001Y-9123802D01*
X13304630Y-9114051D01*
X13306248Y-9111249D01*
X13306248Y-9111249D01*
X13306248Y-9111249D01*
X13310000Y-9097248D01*
X13310000Y-9082753D01*
X13306248Y-9068752D01*
X13306248Y-9068751D01*
X13306248Y-9068751D01*
X13306248Y-9068750D01*
X13306216Y-9068679D01*
X13306090Y-9068476D01*
X13299002Y-9056200D01*
X13299001Y-9056199D01*
X13299000Y-9056198D01*
X13298849Y-9056032D01*
X13298869Y-9056014D01*
X13297187Y-9053700D01*
X13296079Y-9051524D01*
X13295000Y-9047029D01*
X13295000Y-8996518D01*
X13295484Y-8993459D01*
X13295541Y-8993283D01*
X13295896Y-8992191D01*
X13299492Y-8987241D01*
X13299552Y-8987197D01*
X13299906Y-8986940D01*
X13305724Y-8985050D01*
X13312147Y-8985050D01*
X13312147Y-8985050D01*
X13326148Y-8981298D01*
X13326149Y-8981298D01*
X13326149Y-8981298D01*
X13326149Y-8981298D01*
X13338088Y-8974405D01*
X13338377Y-8974265D01*
X13338455Y-8974213D01*
X13338956Y-8973904D01*
X13339086Y-8973829D01*
X13339622Y-8973130D01*
X13348951Y-8963802D01*
X13349131Y-8963490D01*
X13356198Y-8951249D01*
X13356198Y-8951249D01*
X13356198Y-8951249D01*
X13359950Y-8937248D01*
X13359950Y-8922753D01*
X13356198Y-8908752D01*
X13356198Y-8908751D01*
X13356198Y-8908751D01*
X13356198Y-8908750D01*
X13356166Y-8908679D01*
X13356040Y-8908476D01*
X13348952Y-8896200D01*
X13348951Y-8896199D01*
X13348950Y-8896198D01*
X13348799Y-8896032D01*
X13348819Y-8896014D01*
X13347137Y-8893700D01*
X13346029Y-8891524D01*
X13344950Y-8887029D01*
X13344950Y-8881638D01*
X13344950Y-8881638D01*
X13344950Y-8881637D01*
X13343962Y-8877952D01*
X13342221Y-8871452D01*
X13342220Y-8871451D01*
X13342220Y-8871451D01*
X13342220Y-8871450D01*
X13342188Y-8871380D01*
X13342063Y-8871179D01*
X13336948Y-8862319D01*
X13336948Y-8862319D01*
X13336948Y-8862319D01*
X13336948Y-8862319D01*
X13273458Y-8798829D01*
X13271638Y-8796323D01*
X13270529Y-8794147D01*
X13269450Y-8789653D01*
X13269450Y-8631938D01*
X13269282Y-8631312D01*
X13266721Y-8621752D01*
X13261930Y-8613455D01*
X13261448Y-8612619D01*
X13253991Y-8605162D01*
X13249314Y-8600485D01*
X13249314Y-8600485D01*
X13239058Y-8590229D01*
X13237238Y-8587723D01*
X13236129Y-8585547D01*
X13235050Y-8581053D01*
X13235050Y-8404571D01*
X13235050Y-8404565D01*
X13235050Y-8393035D01*
X13235050Y-8393035D01*
X13232321Y-8382849D01*
X13230432Y-8379578D01*
X13230432Y-8379578D01*
X13229492Y-8377950D01*
X13228853Y-8376844D01*
X13228853Y-8376843D01*
X13228675Y-8376535D01*
X13227048Y-8373716D01*
X13225368Y-8372036D01*
X13223567Y-8370236D01*
X13223567Y-8370235D01*
X13222124Y-8368793D01*
X13219591Y-8366260D01*
X13214915Y-8361583D01*
X13214914Y-8361582D01*
X13204058Y-8350727D01*
X13202238Y-8348221D01*
X13201129Y-8346045D01*
X13200050Y-8341550D01*
X13200050Y-8153533D01*
X13200050Y-8153532D01*
X13198758Y-8148711D01*
X13197321Y-8143346D01*
X13197320Y-8143346D01*
X13192048Y-8134214D01*
X13192048Y-8134214D01*
X13168458Y-8110624D01*
X13166638Y-8108118D01*
X13165529Y-8105942D01*
X13164450Y-8101448D01*
X13164450Y-7913430D01*
X13163787Y-7910955D01*
X13163787Y-7910955D01*
X13161721Y-7903244D01*
X13156448Y-7894111D01*
X13148991Y-7886654D01*
X13144314Y-7881977D01*
X13144314Y-7881977D01*
X13134058Y-7871721D01*
X13132238Y-7869216D01*
X13131129Y-7867039D01*
X13130050Y-7862545D01*
X13130050Y-7674527D01*
X13130050Y-7674527D01*
X13127321Y-7664341D01*
X13127320Y-7664341D01*
X13127320Y-7664341D01*
X13127320Y-7664340D01*
X13127288Y-7664269D01*
X13127162Y-7664066D01*
X13122048Y-7655209D01*
X13122048Y-7655209D01*
X13122048Y-7655209D01*
X13089993Y-7623153D01*
X13088172Y-7620648D01*
X13087374Y-7619081D01*
X13086325Y-7613810D01*
X13086377Y-7613153D01*
X13086831Y-7610871D01*
X13091617Y-7596141D01*
X13094450Y-7578255D01*
X13094450Y-7560145D01*
X13091617Y-7542259D01*
X13091617Y-7542259D01*
X13090012Y-7537320D01*
X13086021Y-7525036D01*
X13077800Y-7508901D01*
X13067155Y-7494250D01*
X13054350Y-7481445D01*
X13054350Y-7481444D01*
X13040544Y-7471414D01*
X13040542Y-7471412D01*
X13039699Y-7470800D01*
X13039699Y-7470800D01*
X13039699Y-7470800D01*
X13039217Y-7470554D01*
X13039217Y-7470554D01*
X13023563Y-7462579D01*
X13006340Y-7456983D01*
X12988455Y-7454150D01*
X12988455Y-7454150D01*
X12988455Y-7454150D01*
X12970345Y-7454150D01*
X12970345Y-7454150D01*
X12970345Y-7454150D01*
X12952459Y-7456983D01*
X12935236Y-7462579D01*
X12919101Y-7470800D01*
X12919100Y-7470800D01*
X12911775Y-7476122D01*
X12911775Y-7476122D01*
X12904450Y-7481444D01*
X12891644Y-7494250D01*
X12886322Y-7501575D01*
X12881000Y-7508900D01*
X12881000Y-7508901D01*
X12872779Y-7525036D01*
X12867183Y-7542259D01*
X12864350Y-7560145D01*
X12864350Y-7578255D01*
X12867183Y-7596140D01*
X12867183Y-7596143D01*
X12867195Y-7596180D01*
X12872779Y-7613364D01*
X12876490Y-7620648D01*
X12881000Y-7629499D01*
X12891645Y-7644150D01*
X12904450Y-7656955D01*
X12919101Y-7667600D01*
X12935236Y-7675821D01*
X12938106Y-7676753D01*
X12952459Y-7681417D01*
X12952459Y-7681417D01*
X12952459Y-7681417D01*
X12959614Y-7682550D01*
X12962296Y-7682975D01*
X12970345Y-7684250D01*
X12988455Y-7684250D01*
X12988455Y-7684250D01*
X12998133Y-7682717D01*
X13006340Y-7681417D01*
X13006340Y-7681417D01*
X13006341Y-7681417D01*
X13006341Y-7681417D01*
X13006341Y-7681417D01*
X13006599Y-7681376D01*
X13007080Y-7681177D01*
X13020694Y-7676753D01*
X13023753Y-7676269D01*
X13025512Y-7676269D01*
X13030684Y-7677728D01*
X13031245Y-7678072D01*
X13033073Y-7679512D01*
X13045942Y-7692381D01*
X13047762Y-7694887D01*
X13048871Y-7697063D01*
X13049950Y-7701557D01*
X13049950Y-7712300D01*
X13049465Y-7715359D01*
X13049113Y-7716443D01*
X13045517Y-7721393D01*
X13039698Y-7723283D01*
X13039099Y-7723283D01*
X13034605Y-7722204D01*
X13023564Y-7716579D01*
X13006340Y-7710983D01*
X12988455Y-7708150D01*
X12988455Y-7708150D01*
X12988455Y-7708150D01*
X12970345Y-7708150D01*
X12970345Y-7708150D01*
X12970345Y-7708150D01*
X12952459Y-7710983D01*
X12935236Y-7716579D01*
X12919101Y-7724800D01*
X12919100Y-7724800D01*
X12911775Y-7730122D01*
X12911775Y-7730122D01*
X12904450Y-7735444D01*
X12891644Y-7748250D01*
X12886322Y-7755575D01*
X12881000Y-7762900D01*
X12881000Y-7762901D01*
X12872779Y-7779036D01*
X12867183Y-7796259D01*
X12864350Y-7814145D01*
X12864350Y-7832255D01*
X12867183Y-7850140D01*
X12867183Y-7850143D01*
X12867195Y-7850180D01*
X12872779Y-7867364D01*
X12881000Y-7883499D01*
X12891645Y-7898150D01*
X12904450Y-7910955D01*
X12919101Y-7921600D01*
X12935236Y-7929821D01*
X12938106Y-7930753D01*
X12952459Y-7935417D01*
X12952459Y-7935417D01*
X12952459Y-7935417D01*
X12959614Y-7936550D01*
X12962296Y-7936975D01*
X12970345Y-7938250D01*
X12988455Y-7938250D01*
X12988455Y-7938250D01*
X12998133Y-7936717D01*
X13006340Y-7935417D01*
X13006340Y-7935417D01*
X13006341Y-7935417D01*
X13006341Y-7935417D01*
X13006341Y-7935417D01*
X13006599Y-7935376D01*
X13007080Y-7935177D01*
X13020694Y-7930753D01*
X13023753Y-7930269D01*
X13025512Y-7930269D01*
X13030684Y-7931728D01*
X13031245Y-7932072D01*
X13033073Y-7933512D01*
X13045342Y-7945781D01*
X13047162Y-7948287D01*
X13048271Y-7950463D01*
X13049350Y-7954957D01*
X13049350Y-7965994D01*
X13048865Y-7969053D01*
X13048513Y-7970137D01*
X13044917Y-7975087D01*
X13039098Y-7976978D01*
X13038499Y-7976978D01*
X13034005Y-7975899D01*
X13032412Y-7975087D01*
X13023564Y-7970579D01*
X13023564Y-7970579D01*
X13023563Y-7970579D01*
X13006340Y-7964983D01*
X12988455Y-7962150D01*
X12988455Y-7962150D01*
X12988455Y-7962150D01*
X12970345Y-7962150D01*
X12970345Y-7962150D01*
X12970345Y-7962150D01*
X12952459Y-7964983D01*
X12935236Y-7970579D01*
X12919101Y-7978800D01*
X12919100Y-7978800D01*
X12917744Y-7979786D01*
X12917744Y-7979786D01*
X12904450Y-7989445D01*
X12891644Y-8002250D01*
X12887896Y-8007408D01*
X12887897Y-8007409D01*
X12881000Y-8016900D01*
X12881000Y-8016901D01*
X12872779Y-8033036D01*
X12867183Y-8050259D01*
X12864350Y-8068145D01*
X12864350Y-8086255D01*
X12867183Y-8104140D01*
X12868929Y-8109515D01*
X12872779Y-8121363D01*
X12872779Y-8121363D01*
X12872779Y-8121364D01*
X12881000Y-8137499D01*
X12891645Y-8152150D01*
X12904450Y-8164955D01*
X12919101Y-8175600D01*
X12935236Y-8183821D01*
X12938106Y-8184753D01*
X12952459Y-8189417D01*
X12952459Y-8189417D01*
X12952459Y-8189417D01*
X12959614Y-8190550D01*
X12961402Y-8190833D01*
X12970345Y-8192250D01*
X12988455Y-8192250D01*
X12988455Y-8192250D01*
X12998319Y-8190688D01*
X13006340Y-8189417D01*
X13006340Y-8189417D01*
X13006341Y-8189417D01*
X13006341Y-8189417D01*
X13006341Y-8189417D01*
X13006599Y-8189376D01*
X13007080Y-8189177D01*
X13020694Y-8184753D01*
X13023753Y-8184269D01*
X13025512Y-8184269D01*
X13030684Y-8185728D01*
X13031245Y-8186072D01*
X13033073Y-8187512D01*
X13045942Y-8200381D01*
X13047762Y-8202887D01*
X13048871Y-8205063D01*
X13049950Y-8209557D01*
X13049950Y-8220300D01*
X13049465Y-8223359D01*
X13049113Y-8224443D01*
X13045517Y-8229393D01*
X13039698Y-8231283D01*
X13039099Y-8231283D01*
X13034605Y-8230204D01*
X13023564Y-8224579D01*
X13006340Y-8218983D01*
X12988455Y-8216150D01*
X12988455Y-8216150D01*
X12988455Y-8216150D01*
X12970345Y-8216150D01*
X12970345Y-8216150D01*
X12970345Y-8216150D01*
X12952459Y-8218983D01*
X12935236Y-8224579D01*
X12919101Y-8232800D01*
X12919100Y-8232800D01*
X12911775Y-8238122D01*
X12911775Y-8238122D01*
X12904450Y-8243444D01*
X12891644Y-8256250D01*
X12890882Y-8257300D01*
X12881000Y-8270901D01*
X12872779Y-8287036D01*
X12867183Y-8304259D01*
X12864350Y-8322145D01*
X12864350Y-8340255D01*
X12867183Y-8358140D01*
X12872534Y-8374612D01*
X12872779Y-8375364D01*
X12880643Y-8390798D01*
X12880643Y-8390798D01*
X12880643Y-8390798D01*
X12881000Y-8391499D01*
X12881000Y-8391499D01*
X12881000Y-8391499D01*
X12891645Y-8406150D01*
X12904450Y-8418955D01*
X12919101Y-8429600D01*
X12935236Y-8437821D01*
X12938106Y-8438754D01*
X12952459Y-8443417D01*
X12952459Y-8443417D01*
X12952459Y-8443417D01*
X12959614Y-8444550D01*
X12961402Y-8444833D01*
X12970345Y-8446250D01*
X12988455Y-8446250D01*
X12988455Y-8446250D01*
X12998133Y-8444717D01*
X13006340Y-8443417D01*
X13006340Y-8443417D01*
X13006341Y-8443417D01*
X13006341Y-8443417D01*
X13006341Y-8443417D01*
X13006599Y-8443376D01*
X13007080Y-8443177D01*
X13020694Y-8438753D01*
X13023753Y-8438269D01*
X13025512Y-8438269D01*
X13030684Y-8439728D01*
X13031245Y-8440072D01*
X13033073Y-8441512D01*
X13045942Y-8454381D01*
X13047762Y-8456887D01*
X13048871Y-8459063D01*
X13049950Y-8463557D01*
X13049950Y-8474300D01*
X13049465Y-8477359D01*
X13049113Y-8478443D01*
X13045517Y-8483393D01*
X13039698Y-8485283D01*
X13039099Y-8485283D01*
X13034605Y-8484204D01*
X13023564Y-8478579D01*
X13006340Y-8472983D01*
X12988455Y-8470150D01*
X12988455Y-8470150D01*
X12988455Y-8470150D01*
X12970345Y-8470150D01*
X12970345Y-8470150D01*
X12970345Y-8470150D01*
X12952459Y-8472983D01*
X12935236Y-8478579D01*
X12919101Y-8486800D01*
X12919100Y-8486800D01*
X12915189Y-8489642D01*
X12915189Y-8489642D01*
X12904450Y-8497445D01*
X12891644Y-8510250D01*
X12886322Y-8517575D01*
X12881000Y-8524900D01*
X12881000Y-8524901D01*
X12872779Y-8541036D01*
X12867183Y-8558260D01*
X12864350Y-8576145D01*
X12864350Y-8594255D01*
X12867183Y-8612140D01*
X12871846Y-8626494D01*
X12872779Y-8629364D01*
X12874090Y-8631938D01*
X12879956Y-8643450D01*
X12880602Y-8644718D01*
X12881000Y-8645499D01*
X12891645Y-8660150D01*
X12904450Y-8672955D01*
X12919101Y-8683600D01*
X12935236Y-8691821D01*
X12937729Y-8692631D01*
X12952459Y-8697417D01*
X12952459Y-8697417D01*
X12952459Y-8697417D01*
X12959614Y-8698550D01*
X12961402Y-8698833D01*
X12970345Y-8700250D01*
X12988455Y-8700250D01*
X12988455Y-8700250D01*
X12998133Y-8698717D01*
X13006340Y-8697417D01*
X13006340Y-8697417D01*
X13006341Y-8697417D01*
X13006341Y-8697417D01*
X13006341Y-8697417D01*
X13006599Y-8697376D01*
X13007080Y-8697177D01*
X13020694Y-8692753D01*
X13023753Y-8692269D01*
X13025512Y-8692269D01*
X13030684Y-8693728D01*
X13031245Y-8694072D01*
X13033073Y-8695512D01*
X13045342Y-8707781D01*
X13047162Y-8710287D01*
X13048183Y-8712291D01*
X13048271Y-8712463D01*
X13049350Y-8716957D01*
X13049350Y-8727994D01*
X13048865Y-8731054D01*
X13048513Y-8732137D01*
X13044917Y-8737087D01*
X13039098Y-8738978D01*
X13038499Y-8738978D01*
X13034005Y-8737899D01*
X13032412Y-8737087D01*
X13023564Y-8732579D01*
X13023564Y-8732579D01*
X13023563Y-8732579D01*
X13006340Y-8726983D01*
X12988455Y-8724150D01*
X12988455Y-8724150D01*
X12988455Y-8724150D01*
X12970345Y-8724150D01*
X12970345Y-8724150D01*
X12970345Y-8724150D01*
X12952459Y-8726983D01*
X12935236Y-8732579D01*
X12919101Y-8740800D01*
X12919100Y-8740800D01*
X12911775Y-8746122D01*
X12911775Y-8746122D01*
X12904450Y-8751445D01*
X12891644Y-8764250D01*
X12886322Y-8771575D01*
X12881000Y-8778900D01*
X12881000Y-8778901D01*
X12872779Y-8795036D01*
X12867183Y-8812260D01*
X12864350Y-8830145D01*
X12864350Y-8848255D01*
X12867183Y-8866140D01*
X12872779Y-8883364D01*
X12878852Y-8895282D01*
X12879762Y-8897069D01*
X12881000Y-8899499D01*
X12891645Y-8914150D01*
X12904450Y-8926955D01*
X12919101Y-8937600D01*
X12935236Y-8945821D01*
X12941104Y-8947728D01*
X12952459Y-8951417D01*
X12952459Y-8951417D01*
X12952459Y-8951417D01*
X12959614Y-8952550D01*
X12961402Y-8952833D01*
X12970345Y-8954250D01*
X12988455Y-8954250D01*
X12988455Y-8954250D01*
X12998133Y-8952717D01*
X13006340Y-8951417D01*
X13006340Y-8951417D01*
X13006341Y-8951417D01*
X13006341Y-8951417D01*
X13006341Y-8951417D01*
X13006599Y-8951376D01*
X13007080Y-8951177D01*
X13020694Y-8946753D01*
X13023753Y-8946269D01*
X13025512Y-8946269D01*
X13030684Y-8947728D01*
X13031245Y-8948072D01*
X13033073Y-8949512D01*
X13045942Y-8962381D01*
X13047762Y-8964887D01*
X13048871Y-8967063D01*
X13049950Y-8971557D01*
X13049950Y-8982300D01*
X13049465Y-8985359D01*
X13049113Y-8986443D01*
X13045517Y-8991393D01*
X13039698Y-8993283D01*
X13039099Y-8993283D01*
X13034605Y-8992204D01*
X13023564Y-8986579D01*
X13006340Y-8980983D01*
X12988455Y-8978150D01*
X12988455Y-8978150D01*
X12988455Y-8978150D01*
X12970345Y-8978150D01*
X12970345Y-8978150D01*
X12970345Y-8978150D01*
X12952459Y-8980983D01*
X12935236Y-8986579D01*
X12919101Y-8994800D01*
X12919100Y-8994800D01*
X12911775Y-9000122D01*
X12911775Y-9000122D01*
X12904450Y-9005445D01*
X12891644Y-9018250D01*
X12886322Y-9025575D01*
X12881000Y-9032900D01*
X12881000Y-9032901D01*
X12872779Y-9049036D01*
X12867183Y-9066260D01*
X12864350Y-9084145D01*
X12864350Y-9102255D01*
X12867183Y-9120140D01*
X12872779Y-9137364D01*
X12880333Y-9152190D01*
X12880333Y-9152190D01*
X12881000Y-9153499D01*
X12891645Y-9168150D01*
X12904450Y-9180955D01*
X12919101Y-9191600D01*
X12935236Y-9199821D01*
X12942162Y-9202071D01*
X12952459Y-9205417D01*
X12952459Y-9205417D01*
X12952459Y-9205417D01*
X12959614Y-9206550D01*
X12961402Y-9206833D01*
X12970345Y-9208250D01*
X12988455Y-9208250D01*
X12988455Y-9208250D01*
X12998133Y-9206717D01*
X13006340Y-9205417D01*
X13006340Y-9205417D01*
X13006341Y-9205417D01*
X13006341Y-9205417D01*
X13006341Y-9205417D01*
X13006599Y-9205376D01*
X13007080Y-9205177D01*
X13020694Y-9200753D01*
X13023753Y-9200269D01*
X13025512Y-9200269D01*
X13030684Y-9201728D01*
X13031245Y-9202072D01*
X13033073Y-9203512D01*
X13045942Y-9216381D01*
X13047762Y-9218887D01*
X13048871Y-9221063D01*
X13049950Y-9225557D01*
X13049950Y-9236300D01*
X13049465Y-9239359D01*
X13049113Y-9240443D01*
X13045517Y-9245393D01*
X13039698Y-9247283D01*
X13039099Y-9247283D01*
X13034605Y-9246204D01*
X13023564Y-9240579D01*
X13006340Y-9234983D01*
X12988455Y-9232150D01*
X12988455Y-9232150D01*
X12988455Y-9232150D01*
X12970345Y-9232150D01*
X12970345Y-9232150D01*
X12970345Y-9232150D01*
X12952459Y-9234983D01*
X12935236Y-9240579D01*
X12919101Y-9248800D01*
X12919100Y-9248800D01*
X12911775Y-9254122D01*
X12911775Y-9254122D01*
X12904450Y-9259445D01*
X12891644Y-9272250D01*
X12889928Y-9274613D01*
X12881000Y-9286901D01*
X12881000Y-9286901D01*
X12872779Y-9303036D01*
X12867183Y-9320260D01*
X12864350Y-9338145D01*
X12864350Y-9356255D01*
X12867183Y-9374140D01*
X12872708Y-9391147D01*
X12872779Y-9391364D01*
X12880781Y-9407068D01*
X12881000Y-9407499D01*
X12891645Y-9422150D01*
X12904450Y-9434955D01*
X12919101Y-9445600D01*
X12935236Y-9453821D01*
X12938106Y-9454754D01*
X12952459Y-9459417D01*
X12958058Y-9460304D01*
X12958058Y-9460304D01*
X12962154Y-9460953D01*
X12970345Y-9462250D01*
X12988455Y-9462250D01*
X12988455Y-9462250D01*
X12998133Y-9460717D01*
X13006340Y-9459417D01*
X13006340Y-9459417D01*
X13006341Y-9459417D01*
X13006341Y-9459417D01*
X13006341Y-9459417D01*
X13006599Y-9459376D01*
X13007080Y-9459177D01*
X13020694Y-9454753D01*
X13023753Y-9454269D01*
X13025512Y-9454269D01*
X13030684Y-9455728D01*
X13031245Y-9456072D01*
X13033073Y-9457512D01*
X13081759Y-9506199D01*
X13081759Y-9506199D01*
X13118701Y-9543141D01*
X13120522Y-9545647D01*
X13121019Y-9546621D01*
X13121976Y-9552665D01*
X13119198Y-9558116D01*
X13114510Y-9560742D01*
X13113950Y-9560876D01*
X13111638Y-9561150D01*
X13095752Y-9561150D01*
X13092693Y-9560666D01*
X13091020Y-9560122D01*
X13086551Y-9557136D01*
X13086124Y-9556635D01*
X13084831Y-9554701D01*
X13077800Y-9540901D01*
X13077800Y-9540901D01*
X13067155Y-9526250D01*
X13054350Y-9513445D01*
X13054350Y-9513444D01*
X13040544Y-9503414D01*
X13040542Y-9503413D01*
X13039699Y-9502800D01*
X13039699Y-9502800D01*
X13039699Y-9502800D01*
X13039217Y-9502555D01*
X13039217Y-9502554D01*
X13023563Y-9494579D01*
X13006340Y-9488983D01*
X12988455Y-9486150D01*
X12988455Y-9486150D01*
X12988455Y-9486150D01*
X12970345Y-9486150D01*
X12970345Y-9486150D01*
X12970345Y-9486150D01*
X12952459Y-9488983D01*
X12935236Y-9494579D01*
X12919101Y-9502800D01*
X12914423Y-9506199D01*
X12914423Y-9506198D01*
X12904450Y-9513444D01*
X12891644Y-9526251D01*
X12890642Y-9527630D01*
X12890642Y-9527630D01*
X12881000Y-9540901D01*
X12872779Y-9557036D01*
X12867183Y-9574260D01*
X12864350Y-9592145D01*
X12864350Y-9610255D01*
X12867183Y-9628140D01*
X12872779Y-9645364D01*
X12872779Y-9645364D01*
X12880873Y-9661249D01*
X12881000Y-9661499D01*
X12881000Y-9661499D01*
X12891645Y-9676150D01*
X12904450Y-9688955D01*
X12919101Y-9699600D01*
X12935236Y-9707821D01*
X12941788Y-9709950D01*
X12952459Y-9713417D01*
X12952459Y-9713417D01*
X12952459Y-9713417D01*
X12959614Y-9714550D01*
X12961402Y-9714833D01*
X12970345Y-9716250D01*
X12988455Y-9716250D01*
X12988455Y-9716250D01*
X12994417Y-9715306D01*
X12997398Y-9714834D01*
X13002455Y-9714032D01*
X13006341Y-9713417D01*
X13006341Y-9713417D01*
X13006341Y-9713417D01*
X13023564Y-9707821D01*
X13039699Y-9699600D01*
X13054350Y-9688955D01*
X13067155Y-9676150D01*
X13077800Y-9661499D01*
X13084651Y-9648052D01*
X13086472Y-9645547D01*
X13087715Y-9644303D01*
X13092405Y-9641677D01*
X13093045Y-9641523D01*
X13095356Y-9641250D01*
X13168482Y-9641250D01*
X13171541Y-9641734D01*
X13172809Y-9642147D01*
X13177759Y-9645743D01*
X13177760Y-9645743D01*
X13178059Y-9646155D01*
X13179950Y-9651974D01*
X13179950Y-9671564D01*
X13179950Y-9682109D01*
X13182357Y-9691092D01*
X13182679Y-9692296D01*
X13187952Y-9701427D01*
X13187952Y-9701428D01*
X13187952Y-9701428D01*
X13222723Y-9736199D01*
X13256811Y-9770286D01*
X13258631Y-9772792D01*
X13259236Y-9773980D01*
X13260194Y-9780023D01*
X13260194Y-9780024D01*
X13260114Y-9780527D01*
X13257336Y-9785978D01*
X13244757Y-9798557D01*
X13244757Y-9798558D01*
X13244757Y-9798558D01*
X13240348Y-9804470D01*
X13240348Y-9804470D01*
X13240348Y-9804471D01*
X13237192Y-9813663D01*
X13237185Y-9813685D01*
X13237182Y-9813693D01*
X13236279Y-9816323D01*
X13236279Y-9826434D01*
X13235540Y-9828709D01*
X13235540Y-9830277D01*
X13234618Y-9831546D01*
X13234388Y-9832253D01*
X13233004Y-9833790D01*
X13232955Y-9833835D01*
X13231943Y-9835227D01*
X13226124Y-9837118D01*
X13220305Y-9835227D01*
X13219964Y-9834980D01*
X13217210Y-9831920D01*
X13216474Y-9830646D01*
X13216474Y-9830645D01*
X13206052Y-9820224D01*
X13204231Y-9817718D01*
X13202894Y-9815093D01*
X13201926Y-9812074D01*
X13201830Y-9811437D01*
X13200548Y-9802932D01*
X13200548Y-9802932D01*
X13200548Y-9802932D01*
X13200547Y-9802929D01*
X13200520Y-9802874D01*
X13195007Y-9791427D01*
X13194844Y-9791037D01*
X13192880Y-9788667D01*
X13192880Y-9788667D01*
X13161333Y-9757120D01*
X13159032Y-9755214D01*
X13154289Y-9752930D01*
X13147068Y-9749452D01*
X13146433Y-9749357D01*
X13146134Y-9749311D01*
X13144912Y-9748769D01*
X13144803Y-9748671D01*
X13144504Y-9748576D01*
X13142513Y-9747580D01*
X13138368Y-9743676D01*
X13134051Y-9736199D01*
X13134051Y-9736199D01*
X13123801Y-9725949D01*
X13123801Y-9725949D01*
X13123801Y-9725949D01*
X13116977Y-9722009D01*
X13114874Y-9719673D01*
X13108290Y-9717909D01*
X13108290Y-9717909D01*
X13097247Y-9714950D01*
X13097247Y-9714950D01*
X13082753Y-9714950D01*
X13082752Y-9714950D01*
X13078883Y-9715987D01*
X13077901Y-9716250D01*
X13068750Y-9718702D01*
X13056199Y-9725948D01*
X13045948Y-9736199D01*
X13040819Y-9745084D01*
X13038870Y-9747491D01*
X13037879Y-9748383D01*
X13032289Y-9750872D01*
X13032288Y-9750872D01*
X13031703Y-9750934D01*
X13026174Y-9749909D01*
X13023564Y-9748579D01*
X13006340Y-9742983D01*
X12988455Y-9740150D01*
X12988455Y-9740150D01*
X12988455Y-9740150D01*
X12970345Y-9740150D01*
X12970345Y-9740150D01*
X12970345Y-9740150D01*
X12952459Y-9742983D01*
X12935236Y-9748579D01*
X12919101Y-9756800D01*
X12913582Y-9760810D01*
X12913582Y-9760810D01*
X12904450Y-9767444D01*
X12891645Y-9780250D01*
X12890977Y-9781169D01*
X12887868Y-9785449D01*
X12881000Y-9794900D01*
X12881000Y-9794901D01*
X12872779Y-9811036D01*
X12867183Y-9828260D01*
X12864350Y-9846145D01*
X12864350Y-9864255D01*
X12867183Y-9882140D01*
X12872711Y-9899154D01*
X12872779Y-9899364D01*
X12880443Y-9914407D01*
X12881000Y-9915499D01*
X12891645Y-9930150D01*
X12904450Y-9942955D01*
X12919101Y-9953600D01*
X12935236Y-9961821D01*
X12938106Y-9962754D01*
X12952459Y-9967417D01*
X12952459Y-9967417D01*
X12952459Y-9967417D01*
X12959614Y-9968550D01*
X12962296Y-9968975D01*
X12970345Y-9970250D01*
X12988455Y-9970250D01*
X12988455Y-9970250D01*
X12998514Y-9968657D01*
X13006340Y-9967417D01*
X13006340Y-9967417D01*
X13006341Y-9967417D01*
X13006341Y-9967417D01*
X13006341Y-9967417D01*
X13006599Y-9967376D01*
X13007080Y-9967177D01*
X13020694Y-9962753D01*
X13023753Y-9962269D01*
X13025512Y-9962269D01*
X13030684Y-9963728D01*
X13031245Y-9964072D01*
X13033073Y-9965512D01*
X13075942Y-10008381D01*
X13077762Y-10010887D01*
X13078871Y-10013063D01*
X13079950Y-10017557D01*
X13079950Y-10021576D01*
X13079465Y-10024635D01*
X13079127Y-10025675D01*
X13075531Y-10030625D01*
X13069712Y-10032516D01*
X13064539Y-10031057D01*
X13064049Y-10030757D01*
X13062221Y-10029316D01*
X13054351Y-10021445D01*
X13054350Y-10021445D01*
X13054349Y-10021444D01*
X13040544Y-10011414D01*
X13040542Y-10011413D01*
X13039699Y-10010800D01*
X13039699Y-10010800D01*
X13039699Y-10010800D01*
X13039217Y-10010555D01*
X13039217Y-10010554D01*
X13024098Y-10002851D01*
X13023564Y-10002579D01*
X13023564Y-10002579D01*
X13023563Y-10002579D01*
X13006340Y-9996983D01*
X12988455Y-9994150D01*
X12988455Y-9994150D01*
X12988455Y-9994150D01*
X12970345Y-9994150D01*
X12970345Y-9994150D01*
X12970345Y-9994150D01*
X12952459Y-9996983D01*
X12935236Y-10002579D01*
X12919101Y-10010800D01*
X12919100Y-10010801D01*
X12913401Y-10014941D01*
X12913401Y-10014941D01*
X12904450Y-10021444D01*
X12891644Y-10034250D01*
X12886322Y-10041575D01*
X12881000Y-10048900D01*
X12881000Y-10048901D01*
X12872779Y-10065036D01*
X12867183Y-10082260D01*
X12864350Y-10100145D01*
X12864350Y-10118255D01*
X12867183Y-10136140D01*
X12872644Y-10152950D01*
X12872779Y-10153363D01*
X12872779Y-10153364D01*
X12872779Y-10153364D01*
X12881000Y-10169499D01*
X12891645Y-10184150D01*
X12904450Y-10196955D01*
X12919101Y-10207600D01*
X12935236Y-10215821D01*
X12940500Y-10217532D01*
X12952459Y-10221417D01*
X12957185Y-10222166D01*
X12957185Y-10222166D01*
X12961401Y-10222833D01*
X12970345Y-10224250D01*
X12988455Y-10224250D01*
X12988455Y-10224250D01*
X12998554Y-10222650D01*
X13006340Y-10221417D01*
X13006340Y-10221417D01*
X13006341Y-10221417D01*
X13006341Y-10221417D01*
X13006341Y-10221417D01*
X13006599Y-10221376D01*
X13007080Y-10221177D01*
X13020694Y-10216753D01*
X13023753Y-10216269D01*
X13025512Y-10216269D01*
X13030684Y-10217728D01*
X13031245Y-10218072D01*
X13033073Y-10219512D01*
X13105609Y-10292048D01*
X13105609Y-10292048D01*
X13105609Y-10292048D01*
X13105664Y-10292088D01*
X13105864Y-10292196D01*
X13109064Y-10294043D01*
X13111223Y-10296441D01*
X13114656Y-10297299D01*
X13114816Y-10297341D01*
X13124927Y-10300050D01*
X13135473Y-10300050D01*
X13219842Y-10300050D01*
X13222901Y-10300534D01*
X13223941Y-10300872D01*
X13228891Y-10304469D01*
X13230782Y-10310288D01*
X13229324Y-10315460D01*
X13229023Y-10315950D01*
X13227582Y-10317779D01*
X13226219Y-10319142D01*
X13223713Y-10320962D01*
X13221537Y-10322071D01*
X13217043Y-10323150D01*
X13095752Y-10323150D01*
X13092693Y-10322666D01*
X13091020Y-10322122D01*
X13086551Y-10319136D01*
X13086124Y-10318635D01*
X13084831Y-10316701D01*
X13084531Y-10316112D01*
X13077800Y-10302901D01*
X13067155Y-10288250D01*
X13054350Y-10275445D01*
X13054350Y-10275444D01*
X13040544Y-10265414D01*
X13040542Y-10265413D01*
X13039699Y-10264800D01*
X13039699Y-10264800D01*
X13039699Y-10264800D01*
X13039217Y-10264555D01*
X13039217Y-10264554D01*
X13023563Y-10256579D01*
X13006340Y-10250983D01*
X12988455Y-10248150D01*
X12988455Y-10248150D01*
X12988455Y-10248150D01*
X12970345Y-10248150D01*
X12970345Y-10248150D01*
X12970345Y-10248150D01*
X12952459Y-10250983D01*
X12935236Y-10256579D01*
X12919101Y-10264800D01*
X12919100Y-10264800D01*
X12917038Y-10266299D01*
X12917038Y-10266299D01*
X12904450Y-10275445D01*
X12891644Y-10288250D01*
X12888885Y-10292048D01*
X12881000Y-10302901D01*
X12872779Y-10319036D01*
X12867183Y-10336260D01*
X12864350Y-10354145D01*
X12864350Y-10372255D01*
X12867183Y-10390140D01*
X12872779Y-10407364D01*
X12880418Y-10422357D01*
X12880833Y-10423171D01*
X12881000Y-10423499D01*
X12891645Y-10438150D01*
X12904450Y-10450955D01*
X12919101Y-10461600D01*
X12935236Y-10469821D01*
X12944196Y-10472732D01*
X12952459Y-10475417D01*
X12952459Y-10475417D01*
X12952459Y-10475417D01*
X12959614Y-10476550D01*
X12961402Y-10476833D01*
X12970345Y-10478250D01*
X12988455Y-10478250D01*
X12988455Y-10478250D01*
X12994417Y-10477306D01*
X12997398Y-10476834D01*
X13002455Y-10476032D01*
X13006341Y-10475417D01*
X13006341Y-10475417D01*
X13006341Y-10475417D01*
X13023564Y-10469821D01*
X13039699Y-10461600D01*
X13054350Y-10450955D01*
X13067155Y-10438150D01*
X13077800Y-10423499D01*
X13084651Y-10410052D01*
X13086472Y-10407547D01*
X13087715Y-10406303D01*
X13092405Y-10403677D01*
X13093045Y-10403523D01*
X13095356Y-10403250D01*
X13187353Y-10403250D01*
X13190412Y-10403735D01*
X13191452Y-10404072D01*
X13196402Y-10407669D01*
X13198293Y-10413488D01*
X13196833Y-10418661D01*
X13196533Y-10419152D01*
X13195092Y-10420979D01*
X13078597Y-10537474D01*
X13076092Y-10539294D01*
X13074903Y-10539900D01*
X13068860Y-10540857D01*
X13068859Y-10540857D01*
X13068356Y-10540777D01*
X13062905Y-10538000D01*
X13054351Y-10529445D01*
X13054350Y-10529445D01*
X13054350Y-10529444D01*
X13040544Y-10519414D01*
X13040542Y-10519413D01*
X13039699Y-10518800D01*
X13039699Y-10518800D01*
X13039699Y-10518800D01*
X13039217Y-10518555D01*
X13039217Y-10518554D01*
X13023563Y-10510579D01*
X13006340Y-10504983D01*
X12988455Y-10502150D01*
X12988455Y-10502150D01*
X12988455Y-10502150D01*
X12970345Y-10502150D01*
X12970345Y-10502150D01*
X12970345Y-10502150D01*
X12952459Y-10504983D01*
X12935236Y-10510579D01*
X12919101Y-10518800D01*
X12919100Y-10518800D01*
X12914847Y-10521891D01*
X12914847Y-10521891D01*
X12904450Y-10529445D01*
X12891644Y-10542250D01*
X12887461Y-10548009D01*
X12881000Y-10556901D01*
X12872779Y-10573036D01*
X12867183Y-10590260D01*
X12864350Y-10608145D01*
X12864350Y-10626255D01*
X12867183Y-10644140D01*
X12872779Y-10661364D01*
X12878106Y-10671820D01*
X12880703Y-10676916D01*
X12880703Y-10676917D01*
X12880703Y-10676917D01*
X12881000Y-10677499D01*
X12881000Y-10677499D01*
X12881000Y-10677499D01*
X12891645Y-10692150D01*
X12904450Y-10704955D01*
X12919101Y-10715600D01*
X12935236Y-10723821D01*
X12944196Y-10726732D01*
X12952459Y-10729417D01*
X12952459Y-10729417D01*
X12952459Y-10729417D01*
X12959614Y-10730550D01*
X12961217Y-10730804D01*
X12970345Y-10732250D01*
X12988455Y-10732250D01*
X12988455Y-10732250D01*
X12994417Y-10731306D01*
X12997398Y-10730834D01*
X13003005Y-10729945D01*
X13006341Y-10729417D01*
X13006341Y-10729417D01*
X13006341Y-10729417D01*
X13023564Y-10723821D01*
X13024158Y-10723518D01*
X13027103Y-10722561D01*
X13028229Y-10722383D01*
X13034272Y-10723340D01*
X13038599Y-10727666D01*
X13038871Y-10728200D01*
X13039950Y-10732695D01*
X13039950Y-10755205D01*
X13039465Y-10758264D01*
X13039113Y-10759348D01*
X13035517Y-10764298D01*
X13029698Y-10766188D01*
X13029099Y-10766188D01*
X13024605Y-10765109D01*
X13023564Y-10764579D01*
X13006340Y-10758983D01*
X12988455Y-10756150D01*
X12988455Y-10756150D01*
X12988455Y-10756150D01*
X12970345Y-10756150D01*
X12970345Y-10756150D01*
X12970345Y-10756150D01*
X12952459Y-10758983D01*
X12935236Y-10764579D01*
X12919101Y-10772800D01*
X12919100Y-10772801D01*
X12912758Y-10777409D01*
X12912758Y-10777409D01*
X12904450Y-10783444D01*
X12891644Y-10796250D01*
X12891298Y-10796727D01*
X12891298Y-10796727D01*
X12881000Y-10810901D01*
X12872779Y-10827036D01*
X12867183Y-10844260D01*
X12864350Y-10862145D01*
X12864350Y-10880255D01*
X12867183Y-10898140D01*
X12872779Y-10915364D01*
X12880097Y-10929727D01*
X12880564Y-10930643D01*
X12881000Y-10931499D01*
X12891645Y-10946150D01*
X12904450Y-10958955D01*
X12919101Y-10969600D01*
X12935236Y-10977821D01*
X12944520Y-10980838D01*
X12944520Y-10980838D01*
X12945904Y-10981287D01*
X12948663Y-10982693D01*
X12949585Y-10983363D01*
X12953182Y-10988313D01*
X12953182Y-10994432D01*
X12953182Y-10994433D01*
X12952996Y-10995002D01*
X12950582Y-10998942D01*
X12947352Y-11002172D01*
X12947351Y-11002173D01*
X12947351Y-11002173D01*
X12942079Y-11011304D01*
X12941948Y-11011567D01*
X12941925Y-11011556D01*
X12941364Y-11012605D01*
X12940024Y-11014669D01*
X12936444Y-11017977D01*
X12936255Y-11018080D01*
X12936117Y-11018155D01*
X12935461Y-11018466D01*
X12935244Y-11018575D01*
X12919101Y-11026800D01*
X12919100Y-11026800D01*
X12913757Y-11030683D01*
X12904450Y-11037444D01*
X12891644Y-11050250D01*
X12890889Y-11051290D01*
X12888912Y-11054012D01*
X12881000Y-11064900D01*
X12881000Y-11064901D01*
X12872779Y-11081036D01*
X12867183Y-11098260D01*
X12864350Y-11116145D01*
X12864350Y-11134255D01*
X12867183Y-11152140D01*
X12872779Y-11169364D01*
X12874450Y-11172643D01*
X12881000Y-11185499D01*
X12881000Y-11185499D01*
X12881000Y-11185499D01*
X12881000Y-11185499D01*
X12891645Y-11200150D01*
X12904450Y-11212955D01*
X12919101Y-11223600D01*
X12935236Y-11231821D01*
X12943579Y-11234532D01*
X12952459Y-11237417D01*
X12952459Y-11237417D01*
X12952459Y-11237417D01*
X12959614Y-11238550D01*
X12961402Y-11238833D01*
X12970345Y-11240250D01*
X12988455Y-11240250D01*
X12988455Y-11240250D01*
X12994417Y-11239306D01*
X12997398Y-11238833D01*
X13004252Y-11237748D01*
X13006340Y-11237417D01*
X13006340Y-11237417D01*
X13006341Y-11237417D01*
X13023564Y-11231821D01*
X13023564Y-11231821D01*
X13023565Y-11231821D01*
X13023565Y-11231821D01*
X13023571Y-11231819D01*
X13023659Y-11231775D01*
X13023951Y-11231633D01*
X13024077Y-11231559D01*
X13034159Y-11226423D01*
X13037104Y-11225466D01*
X13038229Y-11225287D01*
X13044272Y-11226245D01*
X13048598Y-11230570D01*
X13048870Y-11231104D01*
X13049950Y-11235599D01*
X13049950Y-11246342D01*
X13049465Y-11249401D01*
X13048711Y-11251724D01*
X13046296Y-11255665D01*
X13033353Y-11268607D01*
X13030848Y-11270427D01*
X13029281Y-11271226D01*
X13024010Y-11272274D01*
X13023354Y-11272223D01*
X13021071Y-11271769D01*
X13006340Y-11266983D01*
X12988455Y-11264150D01*
X12988455Y-11264150D01*
X12988455Y-11264150D01*
X12970345Y-11264150D01*
X12970345Y-11264150D01*
X12970345Y-11264150D01*
X12952459Y-11266983D01*
X12935236Y-11272579D01*
X12919101Y-11280800D01*
X12919100Y-11280800D01*
X12916847Y-11282438D01*
X12916847Y-11282438D01*
X12904450Y-11291445D01*
X12891644Y-11304250D01*
X12886322Y-11311575D01*
X12881000Y-11318900D01*
X12881000Y-11318901D01*
X12872779Y-11335036D01*
X12867183Y-11352259D01*
X12864350Y-11370145D01*
X12864350Y-11388255D01*
X12867183Y-11406140D01*
X12867183Y-11406143D01*
X12867195Y-11406180D01*
X12872779Y-11423364D01*
X12881000Y-11439499D01*
X12891645Y-11454150D01*
X12904450Y-11466955D01*
X12919101Y-11477600D01*
X12935236Y-11485821D01*
X12944196Y-11488732D01*
X12952459Y-11491417D01*
X12952459Y-11491417D01*
X12952459Y-11491417D01*
X12959614Y-11492550D01*
X12961402Y-11492833D01*
X12970345Y-11494250D01*
X12988455Y-11494250D01*
X12988455Y-11494250D01*
X12994417Y-11493306D01*
X12997398Y-11492833D01*
X13002455Y-11492032D01*
X13006341Y-11491417D01*
X13006341Y-11491417D01*
X13006341Y-11491417D01*
X13023564Y-11485821D01*
X13039699Y-11477600D01*
X13054350Y-11466955D01*
X13066331Y-11454975D01*
X13068145Y-11454044D01*
X13068974Y-11452903D01*
X13074793Y-11451011D01*
X13080612Y-11452900D01*
X13084210Y-11457849D01*
X13084465Y-11458632D01*
X13084950Y-11461694D01*
X13084950Y-11465342D01*
X13084465Y-11468401D01*
X13083711Y-11470724D01*
X13081296Y-11474665D01*
X13033353Y-11522607D01*
X13030847Y-11524428D01*
X13029281Y-11525226D01*
X13024010Y-11526274D01*
X13023580Y-11526241D01*
X13023354Y-11526223D01*
X13021071Y-11525769D01*
X13006340Y-11520983D01*
X12988455Y-11518150D01*
X12988455Y-11518150D01*
X12988455Y-11518150D01*
X12970345Y-11518150D01*
X12970345Y-11518150D01*
X12970345Y-11518150D01*
X12952459Y-11520983D01*
X12935236Y-11526579D01*
X12919101Y-11534800D01*
X12919100Y-11534800D01*
X12913663Y-11538751D01*
X12904450Y-11545444D01*
X12891645Y-11558250D01*
X12889567Y-11561109D01*
X12889568Y-11561109D01*
X12881000Y-11572901D01*
X12872779Y-11589036D01*
X12867183Y-11606259D01*
X12864350Y-11624145D01*
X12864350Y-11642255D01*
X12867183Y-11660140D01*
X12872779Y-11677364D01*
X12877383Y-11686400D01*
X12878340Y-11689347D01*
X12878469Y-11690161D01*
X12877512Y-11696204D01*
X12873185Y-11700530D01*
X12867142Y-11701487D01*
X12861691Y-11698709D01*
X12824058Y-11661077D01*
X12822238Y-11658571D01*
X12821129Y-11656395D01*
X12820050Y-11651900D01*
X12820050Y-8550287D01*
X12820534Y-8547229D01*
X12821013Y-8545757D01*
X12824299Y-8541041D01*
X12825086Y-8540420D01*
X12827426Y-8539049D01*
X12830813Y-8537647D01*
X12841467Y-8530528D01*
X12850528Y-8521467D01*
X12857646Y-8510813D01*
X12862550Y-8498974D01*
X12865050Y-8486407D01*
X12865050Y-8473593D01*
X12862550Y-8461026D01*
X12857646Y-8449187D01*
X12857646Y-8449187D01*
X12857646Y-8449187D01*
X12853791Y-8443417D01*
X12850528Y-8438533D01*
X12850527Y-8438533D01*
X12850527Y-8438532D01*
X12841467Y-8429472D01*
X12837223Y-8426637D01*
X12837223Y-8426637D01*
X12830813Y-8422354D01*
X12830813Y-8422354D01*
X12819834Y-8417806D01*
X12819833Y-8417806D01*
X12818975Y-8417450D01*
X12818974Y-8417450D01*
X12818974Y-8417450D01*
X12806407Y-8414950D01*
X12793593Y-8414950D01*
X12787309Y-8416200D01*
X12787309Y-8416200D01*
X12781199Y-8417415D01*
X12781047Y-8417443D01*
X12781026Y-8417450D01*
X12781025Y-8417450D01*
X12781025Y-8417450D01*
X12781025Y-8417450D01*
X12781025Y-8417450D01*
X12769187Y-8422354D01*
X12769186Y-8422354D01*
X12758533Y-8429472D01*
X12749472Y-8438533D01*
X12742354Y-8449186D01*
X12742354Y-8449187D01*
X12737450Y-8461025D01*
X12737449Y-8461028D01*
X12735654Y-8470051D01*
X12734676Y-8472786D01*
X12733351Y-8475264D01*
X12731621Y-8477598D01*
X12729951Y-8479268D01*
X12729950Y-8479268D01*
X12729950Y-8479269D01*
X12729949Y-8479270D01*
X12723482Y-8490470D01*
X12723482Y-8490471D01*
X12723361Y-8490681D01*
X12723147Y-8491480D01*
X12719950Y-8503411D01*
X12640050Y-8503411D01*
X12640050Y-7400834D01*
X12640065Y-7400280D01*
X12640096Y-7399727D01*
X12640143Y-7399172D01*
X12640143Y-7399170D01*
X12641366Y-7388319D01*
X12641552Y-7387225D01*
X12641798Y-7386149D01*
X12642104Y-7385084D01*
X12645436Y-7375564D01*
X12645859Y-7374542D01*
X12646340Y-7373543D01*
X12646875Y-7372574D01*
X12652240Y-7364036D01*
X12652881Y-7363132D01*
X12653571Y-7362268D01*
X12654309Y-7361442D01*
X12661442Y-7354309D01*
X12662268Y-7353571D01*
X12663132Y-7352881D01*
X12664036Y-7352240D01*
X12672574Y-7346875D01*
X12673544Y-7346339D01*
X12674542Y-7345859D01*
X12675565Y-7345435D01*
X12682669Y-7342950D01*
X12685084Y-7342104D01*
X12686149Y-7341798D01*
X12687225Y-7341552D01*
X12688318Y-7341366D01*
X12699173Y-7340143D01*
X12699726Y-7340096D01*
X12699804Y-7340092D01*
X12700280Y-7340065D01*
X12700834Y-7340050D01*
X13077742Y-7340050D01*
X13080801Y-7340534D01*
G37*
%TD.AperFunction*%
%TD*%
%TA.AperFunction,Conductor*%
%TO.N,+5V*%
G36*
X14004254Y-8061968D02*
G01*
X14008829Y-8067249D01*
X14009950Y-8072400D01*
X14009950Y-8180486D01*
X14009950Y-8180488D01*
X14010241Y-8182999D01*
X14010241Y-8182999D01*
X14014779Y-8193276D01*
X14014779Y-8193276D01*
X14022723Y-8201221D01*
X14028188Y-8203633D01*
X14033001Y-8205758D01*
X14033001Y-8205758D01*
X14033001Y-8205758D01*
X14033001Y-8205758D01*
X14033608Y-8205924D01*
X14039121Y-8209121D01*
X14050000Y-8220000D01*
X14094082Y-8220000D01*
X14100786Y-8221968D01*
X14102850Y-8223632D01*
X14115709Y-8236490D01*
X14118396Y-8240512D01*
X14118701Y-8241248D01*
X14118702Y-8241248D01*
X14124187Y-8250750D01*
X14125898Y-8253714D01*
X14127546Y-8260504D01*
X14125260Y-8267106D01*
X14125137Y-8267277D01*
X14124615Y-8267984D01*
X14124615Y-8267985D01*
X14120229Y-8280517D01*
X14120229Y-8280518D01*
X14119950Y-8283493D01*
X14119950Y-8328107D01*
X14120229Y-8331081D01*
X14120229Y-8331083D01*
X14124615Y-8343615D01*
X14124615Y-8343616D01*
X14132500Y-8354300D01*
X14139370Y-8359370D01*
X14140000Y-8360000D01*
X14140223Y-8360000D01*
X14143184Y-8362185D01*
X14146193Y-8363238D01*
X14155717Y-8366571D01*
X14155718Y-8366571D01*
X14155718Y-8366571D01*
X14157206Y-8366710D01*
X14158693Y-8366850D01*
X14171714Y-8366850D01*
X14178418Y-8368818D01*
X14180482Y-8370482D01*
X14196368Y-8386368D01*
X14199717Y-8392500D01*
X14200000Y-8395136D01*
X14200000Y-8534864D01*
X14198031Y-8541568D01*
X14196368Y-8543632D01*
X14183632Y-8556368D01*
X14177500Y-8559717D01*
X14174864Y-8560000D01*
X13925136Y-8560000D01*
X13918432Y-8558032D01*
X13916368Y-8556368D01*
X13903632Y-8543632D01*
X13900283Y-8537500D01*
X13900000Y-8534864D01*
X13900000Y-8426807D01*
X13901968Y-8420103D01*
X13905742Y-8416346D01*
X14010000Y-8350000D01*
X14010000Y-8332620D01*
X14011262Y-8327913D01*
X14010987Y-8327799D01*
X14011298Y-8327049D01*
X14011298Y-8327048D01*
X14015050Y-8313047D01*
X14015050Y-8298552D01*
X14011298Y-8284551D01*
X14011298Y-8284551D01*
X14010987Y-8283800D01*
X14011260Y-8283687D01*
X14010000Y-8278980D01*
X14010000Y-8260000D01*
X13963632Y-8213632D01*
X13960283Y-8207500D01*
X13960000Y-8204864D01*
X13960000Y-8203633D01*
X13961968Y-8196929D01*
X13963632Y-8194865D01*
X13965221Y-8193276D01*
X13969758Y-8182999D01*
X13970050Y-8180486D01*
X13970050Y-8072400D01*
X13972018Y-8065696D01*
X13977299Y-8061121D01*
X13982450Y-8060000D01*
X13997550Y-8060000D01*
X14004254Y-8061968D01*
G37*
%TD.AperFunction*%
%TD*%
M02*
