%TF.GenerationSoftware,KiCad,Pcbnew,10.0.0*%
%TF.CreationDate,2026-04-11T11:27:02+02:00*%
%TF.ProjectId,Easyduino_STM32F103,45617379-6475-4696-9e6f-5f53544d3332,rev?*%
%TF.SameCoordinates,Original*%
%TF.FileFunction,Soldermask,Top*%
%TF.FilePolarity,Negative*%
%FSLAX45Y45*%
G04 Gerber Fmt 4.5, Leading zero omitted, Abs format (unit mm)*
G04 Created by KiCad (PCBNEW 10.0.0) date 2026-04-11 11:27:02*
%MOMM*%
%LPD*%
G01*
G04 APERTURE LIST*
G04 Aperture macros list*
%AMRoundRect*
0 Rectangle with rounded corners*
0 $1 Rounding radius*
0 $2 $3 $4 $5 $6 $7 $8 $9 X,Y pos of 4 corners*
0 Add a 4 corners polygon primitive as box body*
4,1,4,$2,$3,$4,$5,$6,$7,$8,$9,$2,$3,0*
0 Add four circle primitives for the rounded corners*
1,1,$1+$1,$2,$3*
1,1,$1+$1,$4,$5*
1,1,$1+$1,$6,$7*
1,1,$1+$1,$8,$9*
0 Add four rect primitives between the rounded corners*
20,1,$1+$1,$2,$3,$4,$5,0*
20,1,$1+$1,$4,$5,$6,$7,0*
20,1,$1+$1,$6,$7,$8,$9,0*
20,1,$1+$1,$8,$9,$2,$3,0*%
G04 Aperture macros list end*
%ADD10RoundRect,0.250000X-0.750000X-0.950000X0.750000X-0.950000X0.750000X0.950000X-0.750000X0.950000X0*%
%ADD11RoundRect,0.135000X0.135000X0.185000X-0.135000X0.185000X-0.135000X-0.185000X0.135000X-0.185000X0*%
%ADD12RoundRect,0.075000X0.521491X-0.415425X-0.415425X0.521491X-0.521491X0.415425X0.415425X-0.521491X0*%
%ADD13RoundRect,0.075000X0.521491X0.415425X0.415425X0.521491X-0.521491X-0.415425X-0.415425X-0.521491X0*%
%ADD14RoundRect,0.140000X0.219203X0.021213X0.021213X0.219203X-0.219203X-0.021213X-0.021213X-0.219203X0*%
%ADD15RoundRect,0.147500X0.172500X-0.147500X0.172500X0.147500X-0.172500X0.147500X-0.172500X-0.147500X0*%
%ADD16RoundRect,0.135000X0.185000X-0.135000X0.185000X0.135000X-0.185000X0.135000X-0.185000X-0.135000X0*%
%ADD17RoundRect,0.140000X0.140000X0.170000X-0.140000X0.170000X-0.140000X-0.170000X0.140000X-0.170000X0*%
%ADD18C,1.700000*%
%ADD19O,1.700000X1.700000*%
%ADD20RoundRect,0.140000X-0.140000X-0.170000X0.140000X-0.170000X0.140000X0.170000X-0.140000X0.170000X0*%
%ADD21RoundRect,0.135000X0.035355X-0.226274X0.226274X-0.035355X-0.035355X0.226274X-0.226274X0.035355X0*%
%ADD22RoundRect,0.140000X-0.219203X-0.021213X-0.021213X-0.219203X0.219203X0.021213X0.021213X0.219203X0*%
%ADD23RoundRect,0.140000X0.021213X-0.219203X0.219203X-0.021213X-0.021213X0.219203X-0.219203X0.021213X0*%
%ADD24RoundRect,0.140000X-0.021213X0.219203X-0.219203X0.021213X0.021213X-0.219203X0.219203X-0.021213X0*%
%ADD25R,0.650000X1.050000*%
%ADD26R,1.000000X1.800000*%
%ADD27RoundRect,0.150000X0.150000X-0.512500X0.150000X0.512500X-0.150000X0.512500X-0.150000X-0.512500X0*%
%ADD28C,0.650000*%
%ADD29R,0.600000X1.240000*%
%ADD30R,0.300000X1.240000*%
%ADD31O,1.000000X2.100000*%
%ADD32O,1.000000X1.800000*%
%ADD33RoundRect,0.135000X-0.135000X-0.185000X0.135000X-0.185000X0.135000X0.185000X-0.135000X0.185000X0*%
G04 APERTURE END LIST*
D10*
%TO.C,Y1*%
X13806000Y-11150600D03*
X14176000Y-11150600D03*
%TD*%
D11*
%TO.C,R5*%
X13621000Y-8440000D03*
X13519000Y-8440000D03*
%TD*%
D12*
%TO.C,U2*%
X13843934Y-10523509D03*
X13879289Y-10488154D03*
X13914645Y-10452798D03*
X13950000Y-10417443D03*
X13985355Y-10382088D03*
X14020711Y-10346732D03*
X14056066Y-10311377D03*
X14091421Y-10276022D03*
X14126777Y-10240666D03*
X14162132Y-10205311D03*
X14197487Y-10169956D03*
X14232843Y-10134600D03*
D13*
X14232843Y-9934843D03*
X14197487Y-9899487D03*
X14162132Y-9864132D03*
X14126777Y-9828777D03*
X14091421Y-9793421D03*
X14056066Y-9758066D03*
X14020711Y-9722711D03*
X13985355Y-9687355D03*
X13950000Y-9652000D03*
X13914645Y-9616645D03*
X13879289Y-9581289D03*
X13843934Y-9545934D03*
D12*
X13644176Y-9545934D03*
X13608821Y-9581289D03*
X13573466Y-9616645D03*
X13538110Y-9652000D03*
X13502755Y-9687355D03*
X13467400Y-9722711D03*
X13432044Y-9758066D03*
X13396689Y-9793421D03*
X13361334Y-9828777D03*
X13325978Y-9864132D03*
X13290623Y-9899487D03*
X13255267Y-9934843D03*
D13*
X13255267Y-10134600D03*
X13290623Y-10169956D03*
X13325978Y-10205311D03*
X13361334Y-10240666D03*
X13396689Y-10276022D03*
X13432044Y-10311377D03*
X13467400Y-10346732D03*
X13502755Y-10382088D03*
X13538110Y-10417443D03*
X13573466Y-10452798D03*
X13608821Y-10488154D03*
X13644176Y-10523509D03*
%TD*%
D14*
%TO.C,C3*%
X13563941Y-10673941D03*
X13496059Y-10606059D03*
%TD*%
D15*
%TO.C,D1*%
X14198600Y-11656100D03*
X14198600Y-11559100D03*
%TD*%
D16*
%TO.C,R6*%
X14071600Y-11658800D03*
X14071600Y-11556800D03*
%TD*%
%TO.C,R7*%
X14071600Y-12065000D03*
X14071600Y-11963000D03*
%TD*%
D17*
%TO.C,C9*%
X13468000Y-9260000D03*
X13372000Y-9260000D03*
%TD*%
D18*
%TO.C,J4*%
X13360400Y-12395200D03*
D19*
X13614400Y-12395200D03*
X13868400Y-12395200D03*
X14122400Y-12395200D03*
%TD*%
D20*
%TO.C,C5*%
X14082000Y-8305800D03*
X14178000Y-8305800D03*
%TD*%
D21*
%TO.C,R4*%
X14213938Y-9486062D03*
X14286062Y-9413938D03*
%TD*%
D20*
%TO.C,C8*%
X14071600Y-10871200D03*
X14167600Y-10871200D03*
%TD*%
%TO.C,C11*%
X13532000Y-10870000D03*
X13628000Y-10870000D03*
%TD*%
D11*
%TO.C,R2*%
X13601000Y-8305800D03*
X13499000Y-8305800D03*
%TD*%
D22*
%TO.C,C1*%
X13926059Y-9396059D03*
X13993941Y-9463941D03*
%TD*%
D15*
%TO.C,D2*%
X14198600Y-12060200D03*
X14198600Y-11963200D03*
%TD*%
D23*
%TO.C,C4*%
X13136059Y-9813941D03*
X13203941Y-9746059D03*
%TD*%
D17*
%TO.C,C6*%
X14148000Y-8870000D03*
X14052000Y-8870000D03*
%TD*%
D24*
%TO.C,C2*%
X14213941Y-10380000D03*
X14146059Y-10447882D03*
%TD*%
D17*
%TO.C,C7*%
X13978000Y-10871200D03*
X13882000Y-10871200D03*
%TD*%
D16*
%TO.C,R3*%
X13680000Y-11661000D03*
X13680000Y-11559000D03*
%TD*%
D25*
%TO.C,SW1*%
X13329000Y-11962000D03*
X13329000Y-11558000D03*
X13543000Y-11962000D03*
X13543000Y-11558000D03*
%TD*%
D26*
%TO.C,Y2*%
X13309600Y-11150600D03*
X13559600Y-11150600D03*
%TD*%
D27*
%TO.C,U1*%
X13955000Y-8693750D03*
X14145000Y-8693750D03*
X14050000Y-8466250D03*
%TD*%
D25*
%TO.C,SW2*%
X13330000Y-9130000D03*
X13330000Y-8726000D03*
X13544000Y-9130000D03*
X13544000Y-8726000D03*
%TD*%
D28*
%TO.C,J1*%
X14039000Y-8002000D03*
X13461000Y-8002000D03*
D29*
X14070000Y-8114000D03*
X13990000Y-8114000D03*
D30*
X13875000Y-8114000D03*
X13775000Y-8114000D03*
X13725000Y-8114000D03*
X13625000Y-8114000D03*
D29*
X13510000Y-8114000D03*
X13430000Y-8114000D03*
X13430000Y-8114000D03*
X13510000Y-8114000D03*
D30*
X13575000Y-8114000D03*
X13675000Y-8114000D03*
X13825000Y-8114000D03*
X13925000Y-8114000D03*
D29*
X13990000Y-8114000D03*
X14070000Y-8114000D03*
D31*
X14182000Y-8054000D03*
D32*
X14182000Y-7634000D03*
D31*
X13318000Y-8054000D03*
D32*
X13318000Y-7634000D03*
%TD*%
D33*
%TO.C,R1*%
X13799000Y-8305800D03*
X13901000Y-8305800D03*
%TD*%
D17*
%TO.C,C10*%
X13438000Y-10870000D03*
X13342000Y-10870000D03*
%TD*%
D18*
%TO.C,J3*%
X14503400Y-7569200D03*
D19*
X14503400Y-7823200D03*
X14503400Y-8077200D03*
X14503400Y-8331200D03*
X14503400Y-8585200D03*
X14503400Y-8839200D03*
X14503400Y-9093200D03*
X14503400Y-9347200D03*
X14503400Y-9601200D03*
X14503400Y-9855200D03*
X14503400Y-10109200D03*
X14503400Y-10363200D03*
X14503400Y-10617200D03*
X14503400Y-10871200D03*
X14503400Y-11125200D03*
X14503400Y-11379200D03*
X14503400Y-11633200D03*
X14503400Y-11887200D03*
X14503400Y-12141200D03*
X14503400Y-12395200D03*
%TD*%
D18*
%TO.C,J2*%
X12979400Y-7569200D03*
D19*
X12979400Y-7823200D03*
X12979400Y-8077200D03*
X12979400Y-8331200D03*
X12979400Y-8585200D03*
X12979400Y-8839200D03*
X12979400Y-9093200D03*
X12979400Y-9347200D03*
X12979400Y-9601200D03*
X12979400Y-9855200D03*
X12979400Y-10109200D03*
X12979400Y-10363200D03*
X12979400Y-10617200D03*
X12979400Y-10871200D03*
X12979400Y-11125200D03*
X12979400Y-11379200D03*
X12979400Y-11633200D03*
X12979400Y-11887200D03*
X12979400Y-12141200D03*
X12979400Y-12395200D03*
%TD*%
M02*
