%TF.GenerationSoftware,KiCad,Pcbnew,10.0.0*%
%TF.CreationDate,2026-04-11T11:27:02+02:00*%
%TF.ProjectId,Easyduino_STM32F103,45617379-6475-4696-9e6f-5f53544d3332,rev?*%
%TF.SameCoordinates,Original*%
%TF.FileFunction,Copper,L3,Inr*%
%TF.FilePolarity,Positive*%
%FSLAX45Y45*%
G04 Gerber Fmt 4.5, Leading zero omitted, Abs format (unit mm)*
G04 Created by KiCad (PCBNEW 10.0.0) date 2026-04-11 11:27:02*
%MOMM*%
%LPD*%
G01*
G04 APERTURE LIST*
%TA.AperFunction,ComponentPad*%
%ADD10C,1.700000*%
%TD*%
%TA.AperFunction,ComponentPad*%
%ADD11O,1.700000X1.700000*%
%TD*%
%TA.AperFunction,ComponentPad*%
%ADD12O,1.000000X2.100000*%
%TD*%
%TA.AperFunction,ComponentPad*%
%ADD13O,1.000000X1.800000*%
%TD*%
%TA.AperFunction,ViaPad*%
%ADD14C,0.500000*%
%TD*%
%TA.AperFunction,ViaPad*%
%ADD15C,0.700000*%
%TD*%
G04 APERTURE END LIST*
D10*
%TO.N,+3.3V*%
%TO.C,J4*%
X13360400Y-12395200D03*
D11*
%TO.N,/SWDIO*%
X13614400Y-12395200D03*
%TO.N,/SWCLK*%
X13868400Y-12395200D03*
%TO.N,GND*%
X14122400Y-12395200D03*
%TD*%
D12*
%TO.N,GND*%
%TO.C,J1*%
X14182000Y-8054000D03*
D13*
X14182000Y-7634000D03*
D12*
X13318000Y-8054000D03*
D13*
X13318000Y-7634000D03*
%TD*%
D10*
%TO.N,GND*%
%TO.C,J3*%
X14503400Y-7569200D03*
D11*
X14503400Y-7823200D03*
%TO.N,+3.3V*%
X14503400Y-8077200D03*
%TO.N,/NRST*%
X14503400Y-8331200D03*
%TO.N,/PB11*%
X14503400Y-8585200D03*
%TO.N,/PB10*%
X14503400Y-8839200D03*
%TO.N,/PB1*%
X14503400Y-9093200D03*
%TO.N,/PB0*%
X14503400Y-9347200D03*
%TO.N,/PA7*%
X14503400Y-9601200D03*
%TO.N,/PA6*%
X14503400Y-9855200D03*
%TO.N,/PA5*%
X14503400Y-10109200D03*
%TO.N,/PA4*%
X14503400Y-10363200D03*
%TO.N,/PA3*%
X14503400Y-10617200D03*
%TO.N,/PA2*%
X14503400Y-10871200D03*
%TO.N,/PA1*%
X14503400Y-11125200D03*
%TO.N,/PA0*%
X14503400Y-11379200D03*
%TO.N,/PC15*%
X14503400Y-11633200D03*
%TO.N,/PC14*%
X14503400Y-11887200D03*
%TO.N,/PC13*%
X14503400Y-12141200D03*
%TO.N,/VBAT*%
X14503400Y-12395200D03*
%TD*%
D10*
%TO.N,/PB12*%
%TO.C,J2*%
X12979400Y-7569200D03*
D11*
%TO.N,/PB13*%
X12979400Y-7823200D03*
%TO.N,/PB14*%
X12979400Y-8077200D03*
%TO.N,/PB15*%
X12979400Y-8331200D03*
%TO.N,/PA8*%
X12979400Y-8585200D03*
%TO.N,/PA9*%
X12979400Y-8839200D03*
%TO.N,/PA10*%
X12979400Y-9093200D03*
%TO.N,/USB_D-*%
X12979400Y-9347200D03*
%TO.N,/USB_D+*%
X12979400Y-9601200D03*
%TO.N,/PA15*%
X12979400Y-9855200D03*
%TO.N,/PB3*%
X12979400Y-10109200D03*
%TO.N,/PB4*%
X12979400Y-10363200D03*
%TO.N,/PB5*%
X12979400Y-10617200D03*
%TO.N,/PB6*%
X12979400Y-10871200D03*
%TO.N,/PB7*%
X12979400Y-11125200D03*
%TO.N,/PB8*%
X12979400Y-11379200D03*
%TO.N,/PB9*%
X12979400Y-11633200D03*
%TO.N,+5V*%
X12979400Y-11887200D03*
%TO.N,GND*%
X12979400Y-12141200D03*
%TO.N,+3.3V*%
X12979400Y-12395200D03*
%TD*%
D14*
%TO.N,/VBAT*%
X13895050Y-11560000D03*
X13850000Y-10690000D03*
%TO.N,GND*%
X13960000Y-8305800D03*
X13460000Y-10660000D03*
X14230000Y-10870000D03*
X14640000Y-8460000D03*
X14330000Y-9360000D03*
X13990000Y-8870000D03*
X14650000Y-10740000D03*
X14170000Y-8220000D03*
X14250000Y-8310000D03*
X13330000Y-8820000D03*
X13680000Y-11730000D03*
X14650000Y-12280000D03*
X13400000Y-9140000D03*
X13860000Y-8660000D03*
X13860000Y-8720000D03*
X13270000Y-10870000D03*
X13980000Y-9990000D03*
X14650000Y-9490000D03*
X13680000Y-10870000D03*
X13160000Y-9700000D03*
X13820000Y-10870000D03*
X14188364Y-10501351D03*
X13770000Y-9310000D03*
X12860000Y-10750000D03*
X14240000Y-8220000D03*
X13410000Y-8210000D03*
X12840000Y-9470000D03*
X14040574Y-9410718D03*
X13430000Y-8300000D03*
X13340000Y-8210000D03*
X12840000Y-8210000D03*
X14273900Y-11656100D03*
D15*
%TO.N,+5V*%
X13940000Y-8520000D03*
X12800000Y-8480000D03*
D14*
%TO.N,/NRST*%
X13460000Y-9070000D03*
X13750000Y-9640000D03*
X13540000Y-8840000D03*
%TO.N,/PC13*%
X13969950Y-11612407D03*
X13913988Y-10664680D03*
%TO.N,/USB_D-*%
X13190000Y-9540000D03*
X13290000Y-9670000D03*
%TO.N,/PB12*%
X13304900Y-8930000D03*
X13552003Y-9449340D03*
%TO.N,/PB13*%
X13254950Y-9090000D03*
X13490320Y-9469680D03*
%TO.N,/PB14*%
X13689660Y-9707840D03*
X13256636Y-9253365D03*
%TO.N,/PB15*%
X13306757Y-9374126D03*
X13649619Y-9758979D03*
%TO.N,/PA8*%
X13615127Y-9819181D03*
X13308301Y-9446310D03*
%TO.N,/PA9*%
X13240675Y-9449325D03*
X13564066Y-9859322D03*
%TO.N,/PA10*%
X13500000Y-9870000D03*
X13150000Y-9420000D03*
%TO.N,+3.3V*%
X13329000Y-11870000D03*
X13450000Y-8440000D03*
X14238450Y-10460000D03*
X14250000Y-8770000D03*
X14250000Y-8650000D03*
X14250000Y-8880000D03*
X13510000Y-10710718D03*
X14070000Y-12130000D03*
X14070035Y-11729965D03*
X13090000Y-9770000D03*
X13970000Y-9340000D03*
X13330000Y-11650000D03*
%TO.N,/SWCLK*%
X13770000Y-10390000D03*
X13830000Y-11620000D03*
%TO.N,/SWDIO*%
X13770000Y-11550000D03*
X13730000Y-10270000D03*
%TO.N,/BOOT0*%
X13182386Y-10702386D03*
X13190000Y-11100000D03*
%TD*%
%TA.AperFunction,Conductor*%
%TO.N,+3.3V*%
G36*
X13085129Y-7341941D02*
G01*
X13086310Y-7342950D01*
X13264076Y-7520715D01*
X13266854Y-7526167D01*
X13265897Y-7532210D01*
X13264076Y-7534716D01*
X13255822Y-7542970D01*
X13255821Y-7542971D01*
X13247061Y-7556081D01*
X13247060Y-7556082D01*
X13241026Y-7570650D01*
X13241026Y-7570650D01*
X13237950Y-7586115D01*
X13237950Y-7681884D01*
X13241026Y-7697350D01*
X13241026Y-7697350D01*
X13247060Y-7711917D01*
X13247061Y-7711918D01*
X13252331Y-7719806D01*
X13255821Y-7725029D01*
X13266971Y-7736179D01*
X13274788Y-7741402D01*
X13280081Y-7744939D01*
X13280082Y-7744940D01*
X13285464Y-7747168D01*
X13294650Y-7750974D01*
X13310116Y-7754050D01*
X13310116Y-7754050D01*
X13325884Y-7754050D01*
X13325884Y-7754050D01*
X13341350Y-7750974D01*
X13355918Y-7744939D01*
X13369029Y-7736179D01*
X13380179Y-7725029D01*
X13388939Y-7711918D01*
X13394974Y-7697350D01*
X13398050Y-7681884D01*
X13398050Y-7586116D01*
X13394974Y-7570650D01*
X13388939Y-7556082D01*
X13388939Y-7556082D01*
X13388517Y-7555450D01*
X13386856Y-7549561D01*
X13388974Y-7543821D01*
X13394062Y-7540422D01*
X13396749Y-7540050D01*
X14103251Y-7540050D01*
X14109070Y-7541941D01*
X14112667Y-7546891D01*
X14112667Y-7553009D01*
X14111483Y-7555450D01*
X14111061Y-7556082D01*
X14111060Y-7556082D01*
X14105026Y-7570650D01*
X14105026Y-7570650D01*
X14101950Y-7586115D01*
X14101950Y-7681884D01*
X14105026Y-7697350D01*
X14105026Y-7697350D01*
X14111060Y-7711917D01*
X14111061Y-7711918D01*
X14116331Y-7719806D01*
X14119821Y-7725029D01*
X14130971Y-7736179D01*
X14138788Y-7741402D01*
X14144081Y-7744939D01*
X14144082Y-7744940D01*
X14149464Y-7747168D01*
X14158650Y-7750974D01*
X14174116Y-7754050D01*
X14174116Y-7754050D01*
X14189884Y-7754050D01*
X14189884Y-7754050D01*
X14205350Y-7750974D01*
X14219918Y-7744939D01*
X14233029Y-7736179D01*
X14244179Y-7725029D01*
X14252939Y-7711918D01*
X14258974Y-7697350D01*
X14262050Y-7681884D01*
X14262050Y-7586116D01*
X14258974Y-7570650D01*
X14254622Y-7560145D01*
X14388350Y-7560145D01*
X14388350Y-7578255D01*
X14391183Y-7596141D01*
X14391183Y-7596141D01*
X14396779Y-7613364D01*
X14405000Y-7629499D01*
X14415645Y-7644150D01*
X14428450Y-7656955D01*
X14443101Y-7667600D01*
X14459236Y-7675821D01*
X14476459Y-7681417D01*
X14483614Y-7682550D01*
X14494345Y-7684250D01*
X14494345Y-7684250D01*
X14512455Y-7684250D01*
X14521398Y-7682833D01*
X14530341Y-7681417D01*
X14547564Y-7675821D01*
X14563699Y-7667600D01*
X14578350Y-7656955D01*
X14591155Y-7644150D01*
X14601800Y-7629499D01*
X14610021Y-7613364D01*
X14615617Y-7596141D01*
X14618450Y-7578255D01*
X14618450Y-7560145D01*
X14618450Y-7560145D01*
X14615864Y-7543821D01*
X14615617Y-7542259D01*
X14610021Y-7525036D01*
X14601800Y-7508901D01*
X14591155Y-7494250D01*
X14578350Y-7481445D01*
X14563699Y-7470800D01*
X14563699Y-7470800D01*
X14563699Y-7470800D01*
X14547564Y-7462579D01*
X14530341Y-7456983D01*
X14512455Y-7454150D01*
X14512455Y-7454150D01*
X14494345Y-7454150D01*
X14494345Y-7454150D01*
X14476459Y-7456983D01*
X14459236Y-7462579D01*
X14443101Y-7470800D01*
X14435775Y-7476122D01*
X14428450Y-7481445D01*
X14415645Y-7494250D01*
X14410322Y-7501575D01*
X14405000Y-7508901D01*
X14396779Y-7525036D01*
X14391183Y-7542259D01*
X14388350Y-7560145D01*
X14254622Y-7560145D01*
X14252939Y-7556082D01*
X14252939Y-7556082D01*
X14252939Y-7556081D01*
X14248582Y-7549561D01*
X14244179Y-7542971D01*
X14235924Y-7534716D01*
X14233146Y-7529264D01*
X14234103Y-7523221D01*
X14235924Y-7520715D01*
X14413690Y-7342950D01*
X14419141Y-7340172D01*
X14420690Y-7340050D01*
X14794242Y-7340050D01*
X14799444Y-7340050D01*
X14800551Y-7340112D01*
X14812233Y-7341428D01*
X14814393Y-7341921D01*
X14824959Y-7345619D01*
X14826956Y-7346580D01*
X14836433Y-7352536D01*
X14838167Y-7353918D01*
X14846082Y-7361833D01*
X14847464Y-7363566D01*
X14853419Y-7373044D01*
X14854381Y-7375041D01*
X14858078Y-7385607D01*
X14858572Y-7387768D01*
X14859888Y-7399447D01*
X14859950Y-7400555D01*
X14859950Y-12499444D01*
X14859888Y-12500553D01*
X14858572Y-12512231D01*
X14858078Y-12514393D01*
X14854381Y-12524959D01*
X14853419Y-12526956D01*
X14847464Y-12536433D01*
X14846082Y-12538167D01*
X14838167Y-12546082D01*
X14836433Y-12547464D01*
X14826956Y-12553419D01*
X14824959Y-12554381D01*
X14814393Y-12558078D01*
X14812231Y-12558572D01*
X14800553Y-12559888D01*
X14799444Y-12559950D01*
X12700556Y-12559950D01*
X12699447Y-12559888D01*
X12687768Y-12558572D01*
X12685607Y-12558078D01*
X12675041Y-12554381D01*
X12673044Y-12553419D01*
X12663566Y-12547464D01*
X12661833Y-12546082D01*
X12653918Y-12538167D01*
X12652536Y-12536433D01*
X12646580Y-12526956D01*
X12645619Y-12524959D01*
X12641921Y-12514393D01*
X12641428Y-12512233D01*
X12640112Y-12500551D01*
X12640050Y-12499444D01*
X12640050Y-12386145D01*
X13499350Y-12386145D01*
X13499350Y-12404255D01*
X13502183Y-12422141D01*
X13502183Y-12422141D01*
X13507779Y-12439364D01*
X13516000Y-12455499D01*
X13526645Y-12470150D01*
X13539450Y-12482955D01*
X13554101Y-12493600D01*
X13570236Y-12501821D01*
X13587459Y-12507417D01*
X13594614Y-12508550D01*
X13605345Y-12510250D01*
X13605345Y-12510250D01*
X13623455Y-12510250D01*
X13632398Y-12508833D01*
X13641341Y-12507417D01*
X13658564Y-12501821D01*
X13674699Y-12493600D01*
X13689350Y-12482955D01*
X13702155Y-12470150D01*
X13712800Y-12455499D01*
X13721021Y-12439364D01*
X13726617Y-12422141D01*
X13729450Y-12404255D01*
X13729450Y-12386145D01*
X13729450Y-12386145D01*
X13753350Y-12386145D01*
X13753350Y-12404255D01*
X13756183Y-12422141D01*
X13756183Y-12422141D01*
X13761779Y-12439364D01*
X13770000Y-12455499D01*
X13780645Y-12470150D01*
X13793450Y-12482955D01*
X13808101Y-12493600D01*
X13824236Y-12501821D01*
X13841459Y-12507417D01*
X13848614Y-12508550D01*
X13859345Y-12510250D01*
X13859345Y-12510250D01*
X13877455Y-12510250D01*
X13886398Y-12508833D01*
X13895341Y-12507417D01*
X13912564Y-12501821D01*
X13928699Y-12493600D01*
X13943350Y-12482955D01*
X13956155Y-12470150D01*
X13966800Y-12455499D01*
X13975021Y-12439364D01*
X13980617Y-12422141D01*
X13983450Y-12404255D01*
X13983450Y-12386145D01*
X13983450Y-12386145D01*
X14007350Y-12386145D01*
X14007350Y-12404255D01*
X14010183Y-12422141D01*
X14010183Y-12422141D01*
X14015779Y-12439364D01*
X14024000Y-12455499D01*
X14034645Y-12470150D01*
X14047450Y-12482955D01*
X14062101Y-12493600D01*
X14078236Y-12501821D01*
X14095459Y-12507417D01*
X14102614Y-12508550D01*
X14113345Y-12510250D01*
X14113345Y-12510250D01*
X14131455Y-12510250D01*
X14140398Y-12508833D01*
X14149341Y-12507417D01*
X14166564Y-12501821D01*
X14182699Y-12493600D01*
X14197350Y-12482955D01*
X14210155Y-12470150D01*
X14220800Y-12455499D01*
X14229021Y-12439364D01*
X14234617Y-12422141D01*
X14237450Y-12404255D01*
X14237450Y-12386145D01*
X14237450Y-12386145D01*
X14388350Y-12386145D01*
X14388350Y-12404255D01*
X14391183Y-12422141D01*
X14391183Y-12422141D01*
X14396779Y-12439364D01*
X14405000Y-12455499D01*
X14415645Y-12470150D01*
X14428450Y-12482955D01*
X14443101Y-12493600D01*
X14459236Y-12501821D01*
X14476459Y-12507417D01*
X14483614Y-12508550D01*
X14494345Y-12510250D01*
X14494345Y-12510250D01*
X14512455Y-12510250D01*
X14521398Y-12508833D01*
X14530341Y-12507417D01*
X14547564Y-12501821D01*
X14563699Y-12493600D01*
X14578350Y-12482955D01*
X14591155Y-12470150D01*
X14601800Y-12455499D01*
X14610021Y-12439364D01*
X14615617Y-12422141D01*
X14618450Y-12404255D01*
X14618450Y-12386145D01*
X14618450Y-12386145D01*
X14615617Y-12368259D01*
X14615617Y-12368259D01*
X14610021Y-12351036D01*
X14603139Y-12337530D01*
X14602182Y-12331487D01*
X14604960Y-12326035D01*
X14610412Y-12323257D01*
X14616455Y-12324214D01*
X14616908Y-12324461D01*
X14628751Y-12331298D01*
X14642752Y-12335050D01*
X14642753Y-12335050D01*
X14657247Y-12335050D01*
X14657247Y-12335050D01*
X14671248Y-12331298D01*
X14671249Y-12331298D01*
X14671249Y-12331298D01*
X14683801Y-12324051D01*
X14683801Y-12324051D01*
X14683801Y-12324051D01*
X14694051Y-12313801D01*
X14701298Y-12301248D01*
X14705050Y-12287247D01*
X14705050Y-12272752D01*
X14701298Y-12258751D01*
X14701298Y-12258751D01*
X14701298Y-12258751D01*
X14694051Y-12246199D01*
X14694051Y-12246199D01*
X14694051Y-12246198D01*
X14683801Y-12235949D01*
X14683801Y-12235949D01*
X14683801Y-12235949D01*
X14671249Y-12228702D01*
X14671249Y-12228702D01*
X14668290Y-12227909D01*
X14657247Y-12224950D01*
X14642752Y-12224950D01*
X14636579Y-12226604D01*
X14628751Y-12228702D01*
X14616199Y-12235949D01*
X14605949Y-12246199D01*
X14598702Y-12258751D01*
X14598702Y-12258751D01*
X14594950Y-12272752D01*
X14594950Y-12287247D01*
X14595307Y-12288579D01*
X14598856Y-12301825D01*
X14598536Y-12307935D01*
X14594685Y-12312690D01*
X14588775Y-12314274D01*
X14583063Y-12312081D01*
X14582294Y-12311389D01*
X14578350Y-12307445D01*
X14563699Y-12296800D01*
X14563699Y-12296800D01*
X14563699Y-12296800D01*
X14547564Y-12288579D01*
X14530341Y-12282983D01*
X14512455Y-12280150D01*
X14512455Y-12280150D01*
X14494345Y-12280150D01*
X14494345Y-12280150D01*
X14476459Y-12282983D01*
X14459236Y-12288579D01*
X14443101Y-12296800D01*
X14436978Y-12301248D01*
X14428450Y-12307445D01*
X14415645Y-12320250D01*
X14412883Y-12324051D01*
X14405000Y-12334901D01*
X14396779Y-12351036D01*
X14391183Y-12368259D01*
X14388350Y-12386145D01*
X14237450Y-12386145D01*
X14234617Y-12368259D01*
X14234617Y-12368259D01*
X14229021Y-12351036D01*
X14220800Y-12334901D01*
X14210155Y-12320250D01*
X14197350Y-12307445D01*
X14182699Y-12296800D01*
X14182699Y-12296800D01*
X14182699Y-12296800D01*
X14166564Y-12288579D01*
X14149341Y-12282983D01*
X14131455Y-12280150D01*
X14131455Y-12280150D01*
X14113345Y-12280150D01*
X14113345Y-12280150D01*
X14095459Y-12282983D01*
X14078236Y-12288579D01*
X14062101Y-12296800D01*
X14055978Y-12301248D01*
X14047450Y-12307445D01*
X14034645Y-12320250D01*
X14031883Y-12324051D01*
X14024000Y-12334901D01*
X14015779Y-12351036D01*
X14010183Y-12368259D01*
X14007350Y-12386145D01*
X13983450Y-12386145D01*
X13980617Y-12368259D01*
X13980617Y-12368259D01*
X13975021Y-12351036D01*
X13966800Y-12334901D01*
X13956155Y-12320250D01*
X13943350Y-12307445D01*
X13928699Y-12296800D01*
X13928699Y-12296800D01*
X13928699Y-12296800D01*
X13912564Y-12288579D01*
X13895341Y-12282983D01*
X13877455Y-12280150D01*
X13877455Y-12280150D01*
X13859345Y-12280150D01*
X13859345Y-12280150D01*
X13841459Y-12282983D01*
X13824236Y-12288579D01*
X13808101Y-12296800D01*
X13801978Y-12301248D01*
X13793450Y-12307445D01*
X13780645Y-12320250D01*
X13777883Y-12324051D01*
X13770000Y-12334901D01*
X13761779Y-12351036D01*
X13756183Y-12368259D01*
X13753350Y-12386145D01*
X13729450Y-12386145D01*
X13726617Y-12368259D01*
X13726617Y-12368259D01*
X13721021Y-12351036D01*
X13712800Y-12334901D01*
X13702155Y-12320250D01*
X13689350Y-12307445D01*
X13674699Y-12296800D01*
X13674699Y-12296800D01*
X13674699Y-12296800D01*
X13658564Y-12288579D01*
X13641341Y-12282983D01*
X13623455Y-12280150D01*
X13623455Y-12280150D01*
X13605345Y-12280150D01*
X13605345Y-12280150D01*
X13587459Y-12282983D01*
X13570236Y-12288579D01*
X13554101Y-12296800D01*
X13547978Y-12301248D01*
X13539450Y-12307445D01*
X13526645Y-12320250D01*
X13523883Y-12324051D01*
X13516000Y-12334901D01*
X13507779Y-12351036D01*
X13502183Y-12368259D01*
X13499350Y-12386145D01*
X12640050Y-12386145D01*
X12640050Y-12132145D01*
X12864350Y-12132145D01*
X12864350Y-12150255D01*
X12867183Y-12168141D01*
X12867183Y-12168141D01*
X12872779Y-12185364D01*
X12881000Y-12201499D01*
X12891645Y-12216150D01*
X12904450Y-12228955D01*
X12919101Y-12239600D01*
X12935236Y-12247821D01*
X12952459Y-12253417D01*
X12959614Y-12254550D01*
X12970345Y-12256250D01*
X12970345Y-12256250D01*
X12988455Y-12256250D01*
X12997398Y-12254833D01*
X13006341Y-12253417D01*
X13023564Y-12247821D01*
X13039699Y-12239600D01*
X13054350Y-12228955D01*
X13067155Y-12216150D01*
X13077800Y-12201499D01*
X13086021Y-12185364D01*
X13091617Y-12168141D01*
X13094450Y-12150255D01*
X13094450Y-12132145D01*
X13094450Y-12132145D01*
X14388350Y-12132145D01*
X14388350Y-12150255D01*
X14391183Y-12168141D01*
X14391183Y-12168141D01*
X14396779Y-12185364D01*
X14405000Y-12201499D01*
X14415645Y-12216150D01*
X14428450Y-12228955D01*
X14443101Y-12239600D01*
X14459236Y-12247821D01*
X14476459Y-12253417D01*
X14483614Y-12254550D01*
X14494345Y-12256250D01*
X14494345Y-12256250D01*
X14512455Y-12256250D01*
X14521398Y-12254833D01*
X14530341Y-12253417D01*
X14547564Y-12247821D01*
X14563699Y-12239600D01*
X14578350Y-12228955D01*
X14591155Y-12216150D01*
X14601800Y-12201499D01*
X14610021Y-12185364D01*
X14615617Y-12168141D01*
X14618450Y-12150255D01*
X14618450Y-12132145D01*
X14618450Y-12132145D01*
X14615617Y-12114259D01*
X14615617Y-12114259D01*
X14610021Y-12097036D01*
X14601800Y-12080901D01*
X14591155Y-12066250D01*
X14578350Y-12053445D01*
X14563699Y-12042800D01*
X14563699Y-12042800D01*
X14563699Y-12042800D01*
X14547564Y-12034579D01*
X14530341Y-12028983D01*
X14512455Y-12026150D01*
X14512455Y-12026150D01*
X14494345Y-12026150D01*
X14494345Y-12026150D01*
X14476459Y-12028983D01*
X14459236Y-12034579D01*
X14443101Y-12042800D01*
X14435775Y-12048122D01*
X14428450Y-12053445D01*
X14415645Y-12066250D01*
X14410322Y-12073575D01*
X14405000Y-12080901D01*
X14396779Y-12097036D01*
X14391183Y-12114259D01*
X14388350Y-12132145D01*
X13094450Y-12132145D01*
X13091617Y-12114259D01*
X13091617Y-12114259D01*
X13086021Y-12097036D01*
X13077800Y-12080901D01*
X13067155Y-12066250D01*
X13054350Y-12053445D01*
X13039699Y-12042800D01*
X13039699Y-12042800D01*
X13039699Y-12042800D01*
X13023564Y-12034579D01*
X13006341Y-12028983D01*
X12988455Y-12026150D01*
X12988455Y-12026150D01*
X12970345Y-12026150D01*
X12970345Y-12026150D01*
X12952459Y-12028983D01*
X12935236Y-12034579D01*
X12919101Y-12042800D01*
X12911775Y-12048122D01*
X12904450Y-12053445D01*
X12891645Y-12066250D01*
X12886322Y-12073575D01*
X12881000Y-12080901D01*
X12872779Y-12097036D01*
X12867183Y-12114259D01*
X12864350Y-12132145D01*
X12640050Y-12132145D01*
X12640050Y-11878145D01*
X12864350Y-11878145D01*
X12864350Y-11896255D01*
X12867183Y-11914141D01*
X12867183Y-11914141D01*
X12872779Y-11931364D01*
X12881000Y-11947499D01*
X12891645Y-11962150D01*
X12904450Y-11974955D01*
X12919101Y-11985600D01*
X12935236Y-11993821D01*
X12952459Y-11999417D01*
X12959614Y-12000550D01*
X12970345Y-12002250D01*
X12970345Y-12002250D01*
X12988455Y-12002250D01*
X12997398Y-12000833D01*
X13006341Y-11999417D01*
X13023564Y-11993821D01*
X13039699Y-11985600D01*
X13054350Y-11974955D01*
X13067155Y-11962150D01*
X13077800Y-11947499D01*
X13086021Y-11931364D01*
X13091617Y-11914141D01*
X13094450Y-11896255D01*
X13094450Y-11878145D01*
X13094450Y-11878145D01*
X14388350Y-11878145D01*
X14388350Y-11896255D01*
X14391183Y-11914141D01*
X14391183Y-11914141D01*
X14396779Y-11931364D01*
X14405000Y-11947499D01*
X14415645Y-11962150D01*
X14428450Y-11974955D01*
X14443101Y-11985600D01*
X14459236Y-11993821D01*
X14476459Y-11999417D01*
X14483614Y-12000550D01*
X14494345Y-12002250D01*
X14494345Y-12002250D01*
X14512455Y-12002250D01*
X14521398Y-12000833D01*
X14530341Y-11999417D01*
X14547564Y-11993821D01*
X14563699Y-11985600D01*
X14578350Y-11974955D01*
X14591155Y-11962150D01*
X14601800Y-11947499D01*
X14610021Y-11931364D01*
X14615617Y-11914141D01*
X14618450Y-11896255D01*
X14618450Y-11878145D01*
X14618450Y-11878145D01*
X14615617Y-11860259D01*
X14615617Y-11860259D01*
X14610021Y-11843036D01*
X14601800Y-11826901D01*
X14591155Y-11812250D01*
X14578350Y-11799445D01*
X14563699Y-11788800D01*
X14563699Y-11788800D01*
X14563699Y-11788800D01*
X14547564Y-11780579D01*
X14530341Y-11774983D01*
X14512455Y-11772150D01*
X14512455Y-11772150D01*
X14494345Y-11772150D01*
X14494345Y-11772150D01*
X14476459Y-11774983D01*
X14459236Y-11780579D01*
X14443101Y-11788800D01*
X14435775Y-11794122D01*
X14428450Y-11799445D01*
X14415645Y-11812250D01*
X14410322Y-11819575D01*
X14405000Y-11826901D01*
X14396779Y-11843036D01*
X14391183Y-11860259D01*
X14388350Y-11878145D01*
X13094450Y-11878145D01*
X13091617Y-11860259D01*
X13091617Y-11860259D01*
X13086021Y-11843036D01*
X13077800Y-11826901D01*
X13067155Y-11812250D01*
X13054350Y-11799445D01*
X13039699Y-11788800D01*
X13039699Y-11788800D01*
X13039699Y-11788800D01*
X13023564Y-11780579D01*
X13006341Y-11774983D01*
X12988455Y-11772150D01*
X12988455Y-11772150D01*
X12970345Y-11772150D01*
X12970345Y-11772150D01*
X12952459Y-11774983D01*
X12935236Y-11780579D01*
X12919101Y-11788800D01*
X12911775Y-11794122D01*
X12904450Y-11799445D01*
X12891645Y-11812250D01*
X12886322Y-11819575D01*
X12881000Y-11826901D01*
X12872779Y-11843036D01*
X12867183Y-11860259D01*
X12864350Y-11878145D01*
X12640050Y-11878145D01*
X12640050Y-11624145D01*
X12864350Y-11624145D01*
X12864350Y-11642255D01*
X12867183Y-11660141D01*
X12872779Y-11677364D01*
X12879167Y-11689901D01*
X12881000Y-11693499D01*
X12891645Y-11708150D01*
X12904450Y-11720955D01*
X12919101Y-11731600D01*
X12935236Y-11739821D01*
X12952459Y-11745417D01*
X12959614Y-11746550D01*
X12970345Y-11748250D01*
X12970345Y-11748250D01*
X12988455Y-11748250D01*
X12997398Y-11746833D01*
X13006341Y-11745417D01*
X13023564Y-11739821D01*
X13039699Y-11731600D01*
X13051876Y-11722752D01*
X13624950Y-11722752D01*
X13624950Y-11737247D01*
X13628702Y-11751249D01*
X13635949Y-11763801D01*
X13635949Y-11763801D01*
X13635949Y-11763801D01*
X13646198Y-11774051D01*
X13646199Y-11774051D01*
X13646199Y-11774051D01*
X13658751Y-11781298D01*
X13658751Y-11781298D01*
X13658751Y-11781298D01*
X13672752Y-11785050D01*
X13672753Y-11785050D01*
X13687247Y-11785050D01*
X13687247Y-11785050D01*
X13701248Y-11781298D01*
X13701249Y-11781298D01*
X13701249Y-11781298D01*
X13713801Y-11774051D01*
X13713801Y-11774051D01*
X13713801Y-11774051D01*
X13724051Y-11763801D01*
X13731298Y-11751248D01*
X13735050Y-11737247D01*
X13735050Y-11722752D01*
X13731298Y-11708751D01*
X13731298Y-11708751D01*
X13731298Y-11708751D01*
X13724051Y-11696199D01*
X13724051Y-11696199D01*
X13724051Y-11696198D01*
X13713801Y-11685949D01*
X13713801Y-11685949D01*
X13713801Y-11685949D01*
X13701249Y-11678702D01*
X13701249Y-11678702D01*
X13696199Y-11677348D01*
X13687247Y-11674950D01*
X13672752Y-11674950D01*
X13666579Y-11676604D01*
X13658751Y-11678702D01*
X13646199Y-11685949D01*
X13635949Y-11696199D01*
X13628702Y-11708751D01*
X13624950Y-11722752D01*
X13051876Y-11722752D01*
X13054350Y-11720955D01*
X13067155Y-11708150D01*
X13077800Y-11693499D01*
X13086021Y-11677364D01*
X13091617Y-11660141D01*
X13093405Y-11648852D01*
X13094450Y-11642255D01*
X13094450Y-11624145D01*
X13092475Y-11611673D01*
X13091617Y-11606259D01*
X13086021Y-11589036D01*
X13077800Y-11572901D01*
X13067155Y-11558250D01*
X13054350Y-11545445D01*
X13050645Y-11542752D01*
X13714950Y-11542752D01*
X13714950Y-11557247D01*
X13715985Y-11561109D01*
X13718702Y-11571249D01*
X13725949Y-11583801D01*
X13725949Y-11583801D01*
X13725949Y-11583801D01*
X13736198Y-11594051D01*
X13736199Y-11594051D01*
X13736199Y-11594051D01*
X13748751Y-11601298D01*
X13748751Y-11601298D01*
X13748751Y-11601298D01*
X13762752Y-11605050D01*
X13765050Y-11605050D01*
X13770869Y-11606941D01*
X13774465Y-11611891D01*
X13774950Y-11614950D01*
X13774950Y-11627247D01*
X13778702Y-11641249D01*
X13785949Y-11653801D01*
X13785949Y-11653801D01*
X13785949Y-11653801D01*
X13796198Y-11664051D01*
X13796199Y-11664051D01*
X13796199Y-11664051D01*
X13808751Y-11671298D01*
X13808751Y-11671298D01*
X13808751Y-11671298D01*
X13822752Y-11675050D01*
X13822753Y-11675050D01*
X13837247Y-11675050D01*
X13837247Y-11675050D01*
X13851248Y-11671298D01*
X13851249Y-11671298D01*
X13851249Y-11671298D01*
X13863801Y-11664051D01*
X13863801Y-11664051D01*
X13863801Y-11664051D01*
X13874051Y-11653801D01*
X13878435Y-11646209D01*
X13881298Y-11641249D01*
X13881298Y-11641249D01*
X13881298Y-11641248D01*
X13885050Y-11627247D01*
X13885050Y-11624950D01*
X13886941Y-11619131D01*
X13891891Y-11615534D01*
X13894393Y-11615066D01*
X13894672Y-11615050D01*
X13902297Y-11615050D01*
X13904328Y-11614506D01*
X13905347Y-11614448D01*
X13907366Y-11614981D01*
X13909452Y-11615090D01*
X13910259Y-11615744D01*
X13911263Y-11616009D01*
X13912584Y-11617626D01*
X13914207Y-11618940D01*
X13914867Y-11620423D01*
X13915133Y-11620748D01*
X13915150Y-11621059D01*
X13915467Y-11621770D01*
X13918651Y-11633656D01*
X13918652Y-11633656D01*
X13925899Y-11646208D01*
X13925899Y-11646208D01*
X13925899Y-11646209D01*
X13936148Y-11656458D01*
X13936149Y-11656458D01*
X13936149Y-11656458D01*
X13948701Y-11663705D01*
X13948701Y-11663705D01*
X13948701Y-11663706D01*
X13962702Y-11667457D01*
X13962703Y-11667457D01*
X13977197Y-11667457D01*
X13977197Y-11667457D01*
X13991198Y-11663706D01*
X13991199Y-11663705D01*
X13991199Y-11663705D01*
X14003751Y-11656458D01*
X14003751Y-11656458D01*
X14003751Y-11656458D01*
X14011357Y-11648852D01*
X14218850Y-11648852D01*
X14218850Y-11663347D01*
X14222602Y-11677349D01*
X14229849Y-11689901D01*
X14229849Y-11689901D01*
X14229849Y-11689901D01*
X14240098Y-11700151D01*
X14240099Y-11700151D01*
X14240099Y-11700151D01*
X14252651Y-11707398D01*
X14252651Y-11707398D01*
X14252651Y-11707398D01*
X14266652Y-11711150D01*
X14266653Y-11711150D01*
X14281147Y-11711150D01*
X14281147Y-11711150D01*
X14295148Y-11707398D01*
X14295149Y-11707398D01*
X14295149Y-11707398D01*
X14307701Y-11700151D01*
X14307701Y-11700151D01*
X14307701Y-11700151D01*
X14317951Y-11689901D01*
X14320233Y-11685949D01*
X14325198Y-11677349D01*
X14325198Y-11677349D01*
X14325198Y-11677348D01*
X14328950Y-11663347D01*
X14328950Y-11648852D01*
X14325198Y-11634851D01*
X14325198Y-11634851D01*
X14325198Y-11634851D01*
X14321651Y-11628706D01*
X14319017Y-11624145D01*
X14388350Y-11624145D01*
X14388350Y-11642255D01*
X14391183Y-11660141D01*
X14396779Y-11677364D01*
X14403167Y-11689901D01*
X14405000Y-11693499D01*
X14415645Y-11708150D01*
X14428450Y-11720955D01*
X14443101Y-11731600D01*
X14459236Y-11739821D01*
X14476459Y-11745417D01*
X14483614Y-11746550D01*
X14494345Y-11748250D01*
X14494345Y-11748250D01*
X14512455Y-11748250D01*
X14521398Y-11746833D01*
X14530341Y-11745417D01*
X14547564Y-11739821D01*
X14563699Y-11731600D01*
X14578350Y-11720955D01*
X14591155Y-11708150D01*
X14601800Y-11693499D01*
X14610021Y-11677364D01*
X14615617Y-11660141D01*
X14617405Y-11648852D01*
X14618450Y-11642255D01*
X14618450Y-11624145D01*
X14616475Y-11611673D01*
X14615617Y-11606259D01*
X14610021Y-11589036D01*
X14601800Y-11572901D01*
X14591155Y-11558250D01*
X14578350Y-11545445D01*
X14563699Y-11534800D01*
X14563699Y-11534800D01*
X14563699Y-11534800D01*
X14547564Y-11526579D01*
X14530341Y-11520983D01*
X14512455Y-11518150D01*
X14512455Y-11518150D01*
X14494345Y-11518150D01*
X14494345Y-11518150D01*
X14476459Y-11520983D01*
X14459236Y-11526579D01*
X14443101Y-11534800D01*
X14437663Y-11538751D01*
X14428450Y-11545445D01*
X14415645Y-11558250D01*
X14410777Y-11564950D01*
X14405000Y-11572901D01*
X14396779Y-11589036D01*
X14391183Y-11606259D01*
X14388350Y-11624145D01*
X14319017Y-11624145D01*
X14317951Y-11622299D01*
X14317951Y-11622299D01*
X14317951Y-11622298D01*
X14307701Y-11612049D01*
X14307701Y-11612049D01*
X14307701Y-11612049D01*
X14295149Y-11604802D01*
X14295149Y-11604802D01*
X14292190Y-11604009D01*
X14281147Y-11601050D01*
X14266652Y-11601050D01*
X14260479Y-11602704D01*
X14252651Y-11604802D01*
X14240099Y-11612049D01*
X14229849Y-11622299D01*
X14222602Y-11634851D01*
X14218850Y-11648852D01*
X14011357Y-11648852D01*
X14014001Y-11646209D01*
X14015707Y-11643253D01*
X14015707Y-11643253D01*
X14021248Y-11633656D01*
X14021248Y-11633656D01*
X14021248Y-11633656D01*
X14025000Y-11619655D01*
X14025000Y-11605160D01*
X14021248Y-11591159D01*
X14021248Y-11591158D01*
X14021248Y-11591158D01*
X14014001Y-11578606D01*
X14014001Y-11578606D01*
X14014001Y-11578606D01*
X14003751Y-11568356D01*
X14003751Y-11568356D01*
X14003751Y-11568356D01*
X13991199Y-11561109D01*
X13991199Y-11561109D01*
X13988240Y-11560316D01*
X13977197Y-11557357D01*
X13962702Y-11557357D01*
X13962702Y-11557357D01*
X13961657Y-11557637D01*
X13955547Y-11557317D01*
X13950792Y-11553466D01*
X13949533Y-11550637D01*
X13946348Y-11538751D01*
X13946348Y-11538751D01*
X13946348Y-11538751D01*
X13939101Y-11526199D01*
X13939101Y-11526199D01*
X13939101Y-11526198D01*
X13928851Y-11515949D01*
X13928851Y-11515949D01*
X13928851Y-11515949D01*
X13916298Y-11508702D01*
X13916299Y-11508702D01*
X13906026Y-11505949D01*
X13902297Y-11504950D01*
X13887802Y-11504950D01*
X13884074Y-11505949D01*
X13873801Y-11508702D01*
X13861249Y-11515949D01*
X13850998Y-11526199D01*
X13843751Y-11538751D01*
X13843751Y-11538751D01*
X13843427Y-11539961D01*
X13840095Y-11545092D01*
X13834382Y-11547285D01*
X13828472Y-11545701D01*
X13824622Y-11540946D01*
X13824302Y-11539961D01*
X13822919Y-11534800D01*
X13821298Y-11528751D01*
X13821298Y-11528751D01*
X13821298Y-11528751D01*
X13814051Y-11516199D01*
X13814051Y-11516199D01*
X13814051Y-11516198D01*
X13803801Y-11505949D01*
X13803801Y-11505949D01*
X13803801Y-11505949D01*
X13791249Y-11498702D01*
X13791249Y-11498702D01*
X13788290Y-11497909D01*
X13777247Y-11494950D01*
X13762752Y-11494950D01*
X13756579Y-11496604D01*
X13748751Y-11498702D01*
X13736199Y-11505949D01*
X13725949Y-11516199D01*
X13718702Y-11528751D01*
X13718702Y-11528751D01*
X13714950Y-11542752D01*
X13050645Y-11542752D01*
X13039699Y-11534800D01*
X13039699Y-11534800D01*
X13039699Y-11534800D01*
X13023564Y-11526579D01*
X13006341Y-11520983D01*
X12988455Y-11518150D01*
X12988455Y-11518150D01*
X12970345Y-11518150D01*
X12970345Y-11518150D01*
X12952459Y-11520983D01*
X12935236Y-11526579D01*
X12919101Y-11534800D01*
X12913663Y-11538751D01*
X12904450Y-11545445D01*
X12891645Y-11558250D01*
X12886777Y-11564950D01*
X12881000Y-11572901D01*
X12872779Y-11589036D01*
X12867183Y-11606259D01*
X12864350Y-11624145D01*
X12640050Y-11624145D01*
X12640050Y-11370145D01*
X12864350Y-11370145D01*
X12864350Y-11388255D01*
X12867183Y-11406141D01*
X12867183Y-11406141D01*
X12872779Y-11423364D01*
X12881000Y-11439499D01*
X12891645Y-11454150D01*
X12904450Y-11466955D01*
X12919101Y-11477600D01*
X12935236Y-11485821D01*
X12952459Y-11491417D01*
X12959614Y-11492550D01*
X12970345Y-11494250D01*
X12970345Y-11494250D01*
X12988455Y-11494250D01*
X12997398Y-11492833D01*
X13006341Y-11491417D01*
X13023564Y-11485821D01*
X13039699Y-11477600D01*
X13054350Y-11466955D01*
X13067155Y-11454150D01*
X13077800Y-11439499D01*
X13086021Y-11423364D01*
X13091617Y-11406141D01*
X13094450Y-11388255D01*
X13094450Y-11370145D01*
X13094450Y-11370145D01*
X14388350Y-11370145D01*
X14388350Y-11388255D01*
X14391183Y-11406141D01*
X14391183Y-11406141D01*
X14396779Y-11423364D01*
X14405000Y-11439499D01*
X14415645Y-11454150D01*
X14428450Y-11466955D01*
X14443101Y-11477600D01*
X14459236Y-11485821D01*
X14476459Y-11491417D01*
X14483614Y-11492550D01*
X14494345Y-11494250D01*
X14494345Y-11494250D01*
X14512455Y-11494250D01*
X14521398Y-11492833D01*
X14530341Y-11491417D01*
X14547564Y-11485821D01*
X14563699Y-11477600D01*
X14578350Y-11466955D01*
X14591155Y-11454150D01*
X14601800Y-11439499D01*
X14610021Y-11423364D01*
X14615617Y-11406141D01*
X14618450Y-11388255D01*
X14618450Y-11370145D01*
X14618450Y-11370145D01*
X14615617Y-11352259D01*
X14615617Y-11352259D01*
X14610021Y-11335036D01*
X14601800Y-11318901D01*
X14591155Y-11304250D01*
X14578350Y-11291445D01*
X14563699Y-11280800D01*
X14563699Y-11280800D01*
X14563699Y-11280800D01*
X14547564Y-11272579D01*
X14530341Y-11266983D01*
X14512455Y-11264150D01*
X14512455Y-11264150D01*
X14494345Y-11264150D01*
X14494345Y-11264150D01*
X14476459Y-11266983D01*
X14459236Y-11272579D01*
X14443101Y-11280800D01*
X14435775Y-11286122D01*
X14428450Y-11291445D01*
X14415645Y-11304250D01*
X14410322Y-11311575D01*
X14405000Y-11318901D01*
X14396779Y-11335036D01*
X14391183Y-11352259D01*
X14388350Y-11370145D01*
X13094450Y-11370145D01*
X13091617Y-11352259D01*
X13091617Y-11352259D01*
X13086021Y-11335036D01*
X13077800Y-11318901D01*
X13067155Y-11304250D01*
X13054350Y-11291445D01*
X13039699Y-11280800D01*
X13039699Y-11280800D01*
X13039699Y-11280800D01*
X13023564Y-11272579D01*
X13006341Y-11266983D01*
X12988455Y-11264150D01*
X12988455Y-11264150D01*
X12970345Y-11264150D01*
X12970345Y-11264150D01*
X12952459Y-11266983D01*
X12935236Y-11272579D01*
X12919101Y-11280800D01*
X12911775Y-11286122D01*
X12904450Y-11291445D01*
X12891645Y-11304250D01*
X12886322Y-11311575D01*
X12881000Y-11318901D01*
X12872779Y-11335036D01*
X12867183Y-11352259D01*
X12864350Y-11370145D01*
X12640050Y-11370145D01*
X12640050Y-11116145D01*
X12864350Y-11116145D01*
X12864350Y-11134255D01*
X12867183Y-11152141D01*
X12867183Y-11152141D01*
X12872779Y-11169364D01*
X12881000Y-11185499D01*
X12891645Y-11200150D01*
X12904450Y-11212955D01*
X12919101Y-11223600D01*
X12935236Y-11231821D01*
X12952459Y-11237417D01*
X12959614Y-11238550D01*
X12970345Y-11240250D01*
X12970345Y-11240250D01*
X12988455Y-11240250D01*
X12997398Y-11238833D01*
X13006341Y-11237417D01*
X13023564Y-11231821D01*
X13039699Y-11223600D01*
X13054350Y-11212955D01*
X13067155Y-11200150D01*
X13077800Y-11185499D01*
X13086021Y-11169364D01*
X13091617Y-11152141D01*
X13094450Y-11134255D01*
X13094450Y-11116145D01*
X13094450Y-11116145D01*
X13091617Y-11098259D01*
X13091617Y-11098259D01*
X13089828Y-11092753D01*
X13134950Y-11092753D01*
X13134950Y-11107247D01*
X13138702Y-11121249D01*
X13145949Y-11133801D01*
X13145949Y-11133801D01*
X13145949Y-11133802D01*
X13156198Y-11144051D01*
X13156199Y-11144051D01*
X13156199Y-11144051D01*
X13168751Y-11151298D01*
X13168751Y-11151298D01*
X13168751Y-11151298D01*
X13182752Y-11155050D01*
X13182753Y-11155050D01*
X13197247Y-11155050D01*
X13197247Y-11155050D01*
X13211248Y-11151298D01*
X13211249Y-11151298D01*
X13211249Y-11151298D01*
X13223801Y-11144051D01*
X13223801Y-11144051D01*
X13223801Y-11144051D01*
X13234051Y-11133802D01*
X13241298Y-11121249D01*
X13242666Y-11116145D01*
X14388350Y-11116145D01*
X14388350Y-11134255D01*
X14391183Y-11152141D01*
X14391183Y-11152141D01*
X14396779Y-11169364D01*
X14405000Y-11185499D01*
X14415645Y-11200150D01*
X14428450Y-11212955D01*
X14443101Y-11223600D01*
X14459236Y-11231821D01*
X14476459Y-11237417D01*
X14483614Y-11238550D01*
X14494345Y-11240250D01*
X14494345Y-11240250D01*
X14512455Y-11240250D01*
X14521398Y-11238833D01*
X14530341Y-11237417D01*
X14547564Y-11231821D01*
X14563699Y-11223600D01*
X14578350Y-11212955D01*
X14591155Y-11200150D01*
X14601800Y-11185499D01*
X14610021Y-11169364D01*
X14615617Y-11152141D01*
X14618450Y-11134255D01*
X14618450Y-11116145D01*
X14618450Y-11116145D01*
X14615617Y-11098259D01*
X14615617Y-11098259D01*
X14610021Y-11081036D01*
X14601800Y-11064901D01*
X14591155Y-11050250D01*
X14578350Y-11037445D01*
X14563699Y-11026800D01*
X14563699Y-11026800D01*
X14563699Y-11026800D01*
X14547564Y-11018579D01*
X14530341Y-11012983D01*
X14512455Y-11010150D01*
X14512455Y-11010150D01*
X14494345Y-11010150D01*
X14494345Y-11010150D01*
X14476459Y-11012983D01*
X14459236Y-11018579D01*
X14443101Y-11026800D01*
X14435775Y-11032123D01*
X14428450Y-11037445D01*
X14415645Y-11050250D01*
X14411504Y-11055949D01*
X14405000Y-11064901D01*
X14396779Y-11081036D01*
X14391183Y-11098259D01*
X14388350Y-11116145D01*
X13242666Y-11116145D01*
X13243457Y-11113194D01*
X13243457Y-11113194D01*
X13245050Y-11107247D01*
X13245050Y-11092753D01*
X13241298Y-11078752D01*
X13241298Y-11078751D01*
X13241298Y-11078751D01*
X13234051Y-11066199D01*
X13234051Y-11066199D01*
X13234051Y-11066199D01*
X13223801Y-11055949D01*
X13223801Y-11055949D01*
X13223801Y-11055949D01*
X13211249Y-11048702D01*
X13211249Y-11048702D01*
X13208290Y-11047909D01*
X13197247Y-11044950D01*
X13182752Y-11044950D01*
X13176579Y-11046604D01*
X13168751Y-11048702D01*
X13156199Y-11055949D01*
X13145949Y-11066199D01*
X13138702Y-11078751D01*
X13134950Y-11092753D01*
X13089828Y-11092753D01*
X13086021Y-11081036D01*
X13077800Y-11064901D01*
X13067155Y-11050250D01*
X13054350Y-11037445D01*
X13039699Y-11026800D01*
X13039699Y-11026800D01*
X13039699Y-11026800D01*
X13023564Y-11018579D01*
X13006341Y-11012983D01*
X12988455Y-11010150D01*
X12988455Y-11010150D01*
X12970345Y-11010150D01*
X12970345Y-11010150D01*
X12952459Y-11012983D01*
X12935236Y-11018579D01*
X12919101Y-11026800D01*
X12911775Y-11032123D01*
X12904450Y-11037445D01*
X12891645Y-11050250D01*
X12887504Y-11055949D01*
X12881000Y-11064901D01*
X12872779Y-11081036D01*
X12867183Y-11098259D01*
X12864350Y-11116145D01*
X12640050Y-11116145D01*
X12640050Y-10742753D01*
X12804950Y-10742753D01*
X12804950Y-10757247D01*
X12808702Y-10771249D01*
X12815949Y-10783801D01*
X12815949Y-10783801D01*
X12815949Y-10783802D01*
X12826198Y-10794051D01*
X12826199Y-10794051D01*
X12826199Y-10794051D01*
X12838751Y-10801298D01*
X12838751Y-10801298D01*
X12838751Y-10801298D01*
X12852752Y-10805050D01*
X12852753Y-10805050D01*
X12867826Y-10805050D01*
X12873645Y-10806941D01*
X12877241Y-10811891D01*
X12877241Y-10818009D01*
X12876647Y-10819445D01*
X12872779Y-10827036D01*
X12867183Y-10844259D01*
X12864350Y-10862145D01*
X12864350Y-10880255D01*
X12867183Y-10898141D01*
X12867183Y-10898141D01*
X12872779Y-10915364D01*
X12881000Y-10931499D01*
X12891645Y-10946150D01*
X12904450Y-10958955D01*
X12919101Y-10969600D01*
X12935236Y-10977821D01*
X12952459Y-10983417D01*
X12959614Y-10984550D01*
X12970345Y-10986250D01*
X12970345Y-10986250D01*
X12988455Y-10986250D01*
X12997398Y-10984834D01*
X13006341Y-10983417D01*
X13023564Y-10977821D01*
X13039699Y-10969600D01*
X13054350Y-10958955D01*
X13067155Y-10946150D01*
X13077800Y-10931499D01*
X13086021Y-10915364D01*
X13091617Y-10898141D01*
X13094450Y-10880255D01*
X13094450Y-10862753D01*
X13214950Y-10862753D01*
X13214950Y-10877248D01*
X13217909Y-10888290D01*
X13218702Y-10891249D01*
X13225949Y-10903801D01*
X13225949Y-10903801D01*
X13225949Y-10903802D01*
X13236198Y-10914051D01*
X13236199Y-10914051D01*
X13236199Y-10914051D01*
X13248751Y-10921298D01*
X13248751Y-10921298D01*
X13248751Y-10921298D01*
X13262752Y-10925050D01*
X13262753Y-10925050D01*
X13277247Y-10925050D01*
X13277247Y-10925050D01*
X13291248Y-10921298D01*
X13291249Y-10921298D01*
X13291249Y-10921298D01*
X13303801Y-10914051D01*
X13303801Y-10914051D01*
X13303801Y-10914051D01*
X13314051Y-10903802D01*
X13317319Y-10898141D01*
X13321298Y-10891249D01*
X13321298Y-10891249D01*
X13321298Y-10891249D01*
X13325050Y-10877248D01*
X13325050Y-10862753D01*
X13624950Y-10862753D01*
X13624950Y-10877248D01*
X13627909Y-10888290D01*
X13628702Y-10891249D01*
X13635949Y-10903801D01*
X13635949Y-10903801D01*
X13635949Y-10903802D01*
X13646198Y-10914051D01*
X13646199Y-10914051D01*
X13646199Y-10914051D01*
X13658751Y-10921298D01*
X13658751Y-10921298D01*
X13658751Y-10921298D01*
X13672752Y-10925050D01*
X13672753Y-10925050D01*
X13687247Y-10925050D01*
X13687247Y-10925050D01*
X13701248Y-10921298D01*
X13701249Y-10921298D01*
X13701249Y-10921298D01*
X13713801Y-10914051D01*
X13713801Y-10914051D01*
X13713801Y-10914051D01*
X13724051Y-10903802D01*
X13727319Y-10898141D01*
X13731298Y-10891249D01*
X13731298Y-10891249D01*
X13731298Y-10891249D01*
X13735050Y-10877248D01*
X13735050Y-10862753D01*
X13764950Y-10862753D01*
X13764950Y-10877248D01*
X13767909Y-10888290D01*
X13768702Y-10891249D01*
X13775949Y-10903801D01*
X13775949Y-10903801D01*
X13775949Y-10903802D01*
X13786198Y-10914051D01*
X13786199Y-10914051D01*
X13786199Y-10914051D01*
X13798751Y-10921298D01*
X13798751Y-10921298D01*
X13798751Y-10921298D01*
X13812752Y-10925050D01*
X13812753Y-10925050D01*
X13827247Y-10925050D01*
X13827247Y-10925050D01*
X13841248Y-10921298D01*
X13841249Y-10921298D01*
X13841249Y-10921298D01*
X13853801Y-10914051D01*
X13853801Y-10914051D01*
X13853801Y-10914051D01*
X13864051Y-10903802D01*
X13867319Y-10898141D01*
X13871298Y-10891249D01*
X13871298Y-10891249D01*
X13871298Y-10891249D01*
X13875050Y-10877248D01*
X13875050Y-10862753D01*
X14174950Y-10862753D01*
X14174950Y-10877248D01*
X14177909Y-10888290D01*
X14178702Y-10891249D01*
X14185949Y-10903801D01*
X14185949Y-10903801D01*
X14185949Y-10903802D01*
X14196198Y-10914051D01*
X14196199Y-10914051D01*
X14196199Y-10914051D01*
X14208751Y-10921298D01*
X14208751Y-10921298D01*
X14208751Y-10921298D01*
X14222752Y-10925050D01*
X14222753Y-10925050D01*
X14237247Y-10925050D01*
X14237247Y-10925050D01*
X14251248Y-10921298D01*
X14251249Y-10921298D01*
X14251249Y-10921298D01*
X14263801Y-10914051D01*
X14263801Y-10914051D01*
X14263801Y-10914051D01*
X14274051Y-10903802D01*
X14277319Y-10898141D01*
X14281298Y-10891249D01*
X14281298Y-10891249D01*
X14281298Y-10891249D01*
X14285050Y-10877248D01*
X14285050Y-10862753D01*
X14284887Y-10862145D01*
X14388350Y-10862145D01*
X14388350Y-10880255D01*
X14391183Y-10898141D01*
X14391183Y-10898141D01*
X14396779Y-10915364D01*
X14405000Y-10931499D01*
X14415645Y-10946150D01*
X14428450Y-10958955D01*
X14443101Y-10969600D01*
X14459236Y-10977821D01*
X14476459Y-10983417D01*
X14483614Y-10984550D01*
X14494345Y-10986250D01*
X14494345Y-10986250D01*
X14512455Y-10986250D01*
X14521398Y-10984834D01*
X14530341Y-10983417D01*
X14547564Y-10977821D01*
X14563699Y-10969600D01*
X14578350Y-10958955D01*
X14591155Y-10946150D01*
X14601800Y-10931499D01*
X14610021Y-10915364D01*
X14615617Y-10898141D01*
X14618450Y-10880255D01*
X14618450Y-10862145D01*
X14618450Y-10862145D01*
X14615617Y-10844259D01*
X14615617Y-10844259D01*
X14610021Y-10827036D01*
X14601800Y-10810901D01*
X14591155Y-10796250D01*
X14578350Y-10783445D01*
X14563699Y-10772800D01*
X14563699Y-10772800D01*
X14563699Y-10772800D01*
X14547564Y-10764579D01*
X14530341Y-10758983D01*
X14512455Y-10756150D01*
X14512455Y-10756150D01*
X14494345Y-10756150D01*
X14494345Y-10756150D01*
X14476459Y-10758983D01*
X14459236Y-10764579D01*
X14443101Y-10772800D01*
X14435775Y-10778123D01*
X14428450Y-10783445D01*
X14415645Y-10796250D01*
X14411977Y-10801298D01*
X14405000Y-10810901D01*
X14396779Y-10827036D01*
X14391183Y-10844259D01*
X14388350Y-10862145D01*
X14284887Y-10862145D01*
X14281298Y-10848752D01*
X14281298Y-10848751D01*
X14281298Y-10848751D01*
X14274051Y-10836199D01*
X14274051Y-10836199D01*
X14274051Y-10836199D01*
X14263801Y-10825949D01*
X14263801Y-10825949D01*
X14263801Y-10825949D01*
X14251249Y-10818702D01*
X14251249Y-10818702D01*
X14248290Y-10817909D01*
X14237247Y-10814950D01*
X14222752Y-10814950D01*
X14216579Y-10816604D01*
X14208751Y-10818702D01*
X14196199Y-10825949D01*
X14185949Y-10836199D01*
X14178702Y-10848751D01*
X14178702Y-10848752D01*
X14174950Y-10862753D01*
X13875050Y-10862753D01*
X13871298Y-10848752D01*
X13871298Y-10848751D01*
X13871298Y-10848751D01*
X13864051Y-10836199D01*
X13864051Y-10836199D01*
X13864051Y-10836199D01*
X13853801Y-10825949D01*
X13853801Y-10825949D01*
X13853801Y-10825949D01*
X13841249Y-10818702D01*
X13841249Y-10818702D01*
X13838290Y-10817909D01*
X13827247Y-10814950D01*
X13812752Y-10814950D01*
X13806579Y-10816604D01*
X13798751Y-10818702D01*
X13786199Y-10825949D01*
X13775949Y-10836199D01*
X13768702Y-10848751D01*
X13768702Y-10848752D01*
X13764950Y-10862753D01*
X13735050Y-10862753D01*
X13731298Y-10848752D01*
X13731298Y-10848751D01*
X13731298Y-10848751D01*
X13724051Y-10836199D01*
X13724051Y-10836199D01*
X13724051Y-10836199D01*
X13713801Y-10825949D01*
X13713801Y-10825949D01*
X13713801Y-10825949D01*
X13701249Y-10818702D01*
X13701249Y-10818702D01*
X13698290Y-10817909D01*
X13687247Y-10814950D01*
X13672752Y-10814950D01*
X13666579Y-10816604D01*
X13658751Y-10818702D01*
X13646199Y-10825949D01*
X13635949Y-10836199D01*
X13628702Y-10848751D01*
X13628702Y-10848752D01*
X13624950Y-10862753D01*
X13325050Y-10862753D01*
X13321298Y-10848752D01*
X13321298Y-10848751D01*
X13321298Y-10848751D01*
X13314051Y-10836199D01*
X13314051Y-10836199D01*
X13314051Y-10836199D01*
X13303801Y-10825949D01*
X13303801Y-10825949D01*
X13303801Y-10825949D01*
X13291249Y-10818702D01*
X13291249Y-10818702D01*
X13288290Y-10817909D01*
X13277247Y-10814950D01*
X13262752Y-10814950D01*
X13256579Y-10816604D01*
X13248751Y-10818702D01*
X13236199Y-10825949D01*
X13225949Y-10836199D01*
X13218702Y-10848751D01*
X13218702Y-10848752D01*
X13214950Y-10862753D01*
X13094450Y-10862753D01*
X13094450Y-10862145D01*
X13094450Y-10862145D01*
X13091617Y-10844259D01*
X13091617Y-10844259D01*
X13086021Y-10827036D01*
X13077800Y-10810901D01*
X13067155Y-10796250D01*
X13054350Y-10783445D01*
X13039699Y-10772800D01*
X13039699Y-10772800D01*
X13039699Y-10772800D01*
X13023564Y-10764579D01*
X13006341Y-10758983D01*
X12988455Y-10756150D01*
X12988455Y-10756150D01*
X12970345Y-10756150D01*
X12970345Y-10756150D01*
X12952459Y-10758983D01*
X12935236Y-10764579D01*
X12929330Y-10767588D01*
X12923287Y-10768545D01*
X12917835Y-10765768D01*
X12915057Y-10760316D01*
X12915020Y-10757475D01*
X12915050Y-10757248D01*
X12915050Y-10742753D01*
X12915050Y-10742753D01*
X12911738Y-10730394D01*
X12912059Y-10724284D01*
X12915909Y-10719529D01*
X12921819Y-10717946D01*
X12925796Y-10719011D01*
X12935198Y-10723802D01*
X12935236Y-10723821D01*
X12952459Y-10729417D01*
X12959614Y-10730550D01*
X12970345Y-10732250D01*
X12970345Y-10732250D01*
X12988455Y-10732250D01*
X12997398Y-10730834D01*
X13006341Y-10729417D01*
X13023564Y-10723821D01*
X13039699Y-10715600D01*
X13054350Y-10704955D01*
X13064167Y-10695139D01*
X13127336Y-10695139D01*
X13127336Y-10709634D01*
X13130041Y-10719730D01*
X13131088Y-10723635D01*
X13138335Y-10736187D01*
X13138335Y-10736187D01*
X13138335Y-10736188D01*
X13148584Y-10746437D01*
X13148585Y-10746437D01*
X13148585Y-10746437D01*
X13161137Y-10753684D01*
X13161137Y-10753684D01*
X13161137Y-10753684D01*
X13175138Y-10757436D01*
X13175139Y-10757436D01*
X13189633Y-10757436D01*
X13189633Y-10757436D01*
X13203634Y-10753684D01*
X13203635Y-10753684D01*
X13203635Y-10753684D01*
X13216187Y-10746437D01*
X13216187Y-10746437D01*
X13216187Y-10746437D01*
X13226437Y-10736188D01*
X13233577Y-10723821D01*
X13233684Y-10723635D01*
X13233684Y-10723635D01*
X13233684Y-10723635D01*
X13237436Y-10709634D01*
X13237436Y-10695139D01*
X13233684Y-10681138D01*
X13233684Y-10681137D01*
X13233684Y-10681137D01*
X13226437Y-10668585D01*
X13226437Y-10668585D01*
X13226437Y-10668585D01*
X13216187Y-10658335D01*
X13216187Y-10658335D01*
X13216187Y-10658335D01*
X13206518Y-10652753D01*
X13404950Y-10652753D01*
X13404950Y-10667247D01*
X13408702Y-10681249D01*
X13415949Y-10693801D01*
X13415949Y-10693801D01*
X13415949Y-10693802D01*
X13426198Y-10704051D01*
X13426199Y-10704051D01*
X13426199Y-10704051D01*
X13438751Y-10711298D01*
X13438751Y-10711298D01*
X13438751Y-10711298D01*
X13452752Y-10715050D01*
X13452753Y-10715050D01*
X13467247Y-10715050D01*
X13467247Y-10715050D01*
X13481248Y-10711298D01*
X13481249Y-10711298D01*
X13481249Y-10711298D01*
X13493801Y-10704051D01*
X13493801Y-10704051D01*
X13493801Y-10704051D01*
X13504051Y-10693802D01*
X13505004Y-10692150D01*
X13510430Y-10682753D01*
X13794950Y-10682753D01*
X13794950Y-10697248D01*
X13797909Y-10708290D01*
X13798702Y-10711249D01*
X13805949Y-10723801D01*
X13805949Y-10723801D01*
X13805949Y-10723802D01*
X13816198Y-10734051D01*
X13816199Y-10734051D01*
X13816199Y-10734051D01*
X13828751Y-10741298D01*
X13828751Y-10741298D01*
X13828751Y-10741298D01*
X13842752Y-10745050D01*
X13842753Y-10745050D01*
X13857247Y-10745050D01*
X13857247Y-10745050D01*
X13871248Y-10741298D01*
X13871249Y-10741298D01*
X13871249Y-10741298D01*
X13883801Y-10734051D01*
X13883801Y-10734051D01*
X13883801Y-10734051D01*
X13885100Y-10732753D01*
X14594950Y-10732753D01*
X14594950Y-10747248D01*
X14597629Y-10757247D01*
X14598702Y-10761249D01*
X14605949Y-10773801D01*
X14605949Y-10773801D01*
X14605949Y-10773802D01*
X14616198Y-10784051D01*
X14616199Y-10784051D01*
X14616199Y-10784051D01*
X14628751Y-10791298D01*
X14628751Y-10791298D01*
X14628751Y-10791298D01*
X14642752Y-10795050D01*
X14642753Y-10795050D01*
X14657247Y-10795050D01*
X14657247Y-10795050D01*
X14671248Y-10791298D01*
X14671249Y-10791298D01*
X14671249Y-10791298D01*
X14683801Y-10784051D01*
X14683801Y-10784051D01*
X14683801Y-10784051D01*
X14694051Y-10773802D01*
X14694629Y-10772800D01*
X14701298Y-10761249D01*
X14701298Y-10761249D01*
X14701298Y-10761249D01*
X14705050Y-10747248D01*
X14705050Y-10732753D01*
X14701298Y-10718752D01*
X14701298Y-10718751D01*
X14701298Y-10718751D01*
X14694051Y-10706199D01*
X14694051Y-10706199D01*
X14694051Y-10706199D01*
X14683801Y-10695949D01*
X14683801Y-10695949D01*
X14683801Y-10695949D01*
X14671249Y-10688702D01*
X14671249Y-10688702D01*
X14664696Y-10686946D01*
X14657247Y-10684950D01*
X14642752Y-10684950D01*
X14636579Y-10686604D01*
X14628751Y-10688702D01*
X14616199Y-10695949D01*
X14605949Y-10706199D01*
X14598702Y-10718751D01*
X14598493Y-10719529D01*
X14594950Y-10732753D01*
X13885100Y-10732753D01*
X13894051Y-10723802D01*
X13894051Y-10723801D01*
X13894051Y-10723801D01*
X13894446Y-10723287D01*
X13894572Y-10723384D01*
X13898534Y-10719816D01*
X13904619Y-10719176D01*
X13905124Y-10719297D01*
X13906741Y-10719730D01*
X13921236Y-10719730D01*
X13921236Y-10719730D01*
X13935237Y-10715978D01*
X13935237Y-10715978D01*
X13935237Y-10715978D01*
X13947789Y-10708731D01*
X13947789Y-10708731D01*
X13947790Y-10708731D01*
X13958039Y-10698482D01*
X13959178Y-10696509D01*
X13965287Y-10685929D01*
X13965287Y-10685929D01*
X13965287Y-10685929D01*
X13969038Y-10671928D01*
X13969038Y-10657433D01*
X13965287Y-10643432D01*
X13965287Y-10643431D01*
X13965287Y-10643431D01*
X13958040Y-10630879D01*
X13958039Y-10630879D01*
X13958039Y-10630879D01*
X13947790Y-10620629D01*
X13947790Y-10620629D01*
X13947789Y-10620629D01*
X13940344Y-10616330D01*
X13935237Y-10613382D01*
X13935237Y-10613382D01*
X13932278Y-10612589D01*
X13921236Y-10609630D01*
X13906741Y-10609630D01*
X13900567Y-10611284D01*
X13892739Y-10613382D01*
X13880187Y-10620629D01*
X13880187Y-10620629D01*
X13869938Y-10630878D01*
X13869543Y-10631393D01*
X13869417Y-10631296D01*
X13865451Y-10634865D01*
X13859366Y-10635504D01*
X13858864Y-10635383D01*
X13857248Y-10634950D01*
X13857247Y-10634950D01*
X13842752Y-10634950D01*
X13841136Y-10635383D01*
X13828751Y-10638702D01*
X13816199Y-10645949D01*
X13805949Y-10656199D01*
X13798702Y-10668751D01*
X13796358Y-10677499D01*
X13794950Y-10682753D01*
X13510430Y-10682753D01*
X13511298Y-10681249D01*
X13511298Y-10681249D01*
X13511298Y-10681249D01*
X13515050Y-10667248D01*
X13515050Y-10652753D01*
X13511298Y-10638752D01*
X13511298Y-10638751D01*
X13511298Y-10638751D01*
X13504051Y-10626199D01*
X13504051Y-10626199D01*
X13504051Y-10626199D01*
X13493801Y-10615949D01*
X13493801Y-10615949D01*
X13493801Y-10615949D01*
X13481249Y-10608702D01*
X13481249Y-10608702D01*
X13479171Y-10608145D01*
X14388350Y-10608145D01*
X14388350Y-10626255D01*
X14391183Y-10644141D01*
X14396779Y-10661364D01*
X14402161Y-10671928D01*
X14405000Y-10677499D01*
X14415645Y-10692150D01*
X14428450Y-10704955D01*
X14443101Y-10715600D01*
X14459236Y-10723821D01*
X14476459Y-10729417D01*
X14483614Y-10730550D01*
X14494345Y-10732250D01*
X14494345Y-10732250D01*
X14512455Y-10732250D01*
X14521398Y-10730834D01*
X14530341Y-10729417D01*
X14547564Y-10723821D01*
X14547564Y-10723821D01*
X14548621Y-10723283D01*
X14548621Y-10723283D01*
X14563698Y-10715600D01*
X14563699Y-10715600D01*
X14563699Y-10715600D01*
X14563699Y-10715600D01*
X14578350Y-10704955D01*
X14591155Y-10692150D01*
X14601800Y-10677499D01*
X14610021Y-10661364D01*
X14615617Y-10644141D01*
X14617718Y-10630879D01*
X14618450Y-10626255D01*
X14618450Y-10608145D01*
X14615617Y-10590259D01*
X14615617Y-10590259D01*
X14610021Y-10573036D01*
X14601800Y-10556901D01*
X14591155Y-10542250D01*
X14578350Y-10529445D01*
X14563699Y-10518800D01*
X14563699Y-10518800D01*
X14563699Y-10518800D01*
X14547564Y-10510579D01*
X14530341Y-10504983D01*
X14512455Y-10502150D01*
X14512455Y-10502150D01*
X14494345Y-10502150D01*
X14494345Y-10502150D01*
X14476459Y-10504983D01*
X14459236Y-10510579D01*
X14443101Y-10518800D01*
X14437872Y-10522599D01*
X14428450Y-10529445D01*
X14415645Y-10542250D01*
X14413354Y-10545402D01*
X14405000Y-10556901D01*
X14396779Y-10573036D01*
X14391183Y-10590259D01*
X14388350Y-10608145D01*
X13479171Y-10608145D01*
X13478290Y-10607909D01*
X13467247Y-10604950D01*
X13452752Y-10604950D01*
X13446579Y-10606604D01*
X13438751Y-10608702D01*
X13426199Y-10615949D01*
X13415949Y-10626199D01*
X13408702Y-10638751D01*
X13404950Y-10652753D01*
X13206518Y-10652753D01*
X13203635Y-10651088D01*
X13203635Y-10651088D01*
X13200676Y-10650295D01*
X13189633Y-10647336D01*
X13175138Y-10647336D01*
X13168965Y-10648990D01*
X13161137Y-10651088D01*
X13148585Y-10658335D01*
X13138335Y-10668585D01*
X13131088Y-10681137D01*
X13127386Y-10694950D01*
X13127336Y-10695139D01*
X13064167Y-10695139D01*
X13067155Y-10692150D01*
X13077800Y-10677499D01*
X13086021Y-10661364D01*
X13091617Y-10644141D01*
X13093718Y-10630879D01*
X13094450Y-10626255D01*
X13094450Y-10608145D01*
X13091617Y-10590259D01*
X13091617Y-10590259D01*
X13086021Y-10573036D01*
X13077800Y-10556901D01*
X13067155Y-10542250D01*
X13054350Y-10529445D01*
X13039699Y-10518800D01*
X13039699Y-10518800D01*
X13039699Y-10518800D01*
X13023564Y-10510579D01*
X13006341Y-10504983D01*
X12995290Y-10503233D01*
X12988455Y-10502150D01*
X12988455Y-10502150D01*
X12970345Y-10502150D01*
X12970345Y-10502150D01*
X12952459Y-10504983D01*
X12935236Y-10510579D01*
X12919101Y-10518800D01*
X12913872Y-10522599D01*
X12904450Y-10529445D01*
X12891645Y-10542250D01*
X12889354Y-10545402D01*
X12881000Y-10556901D01*
X12872779Y-10573036D01*
X12867183Y-10590259D01*
X12864350Y-10608145D01*
X12864350Y-10626255D01*
X12867183Y-10644141D01*
X12872779Y-10661364D01*
X12878161Y-10671928D01*
X12881000Y-10677499D01*
X12883636Y-10681127D01*
X12885527Y-10686946D01*
X12883636Y-10692765D01*
X12878686Y-10696361D01*
X12873064Y-10696509D01*
X12870264Y-10695758D01*
X12867247Y-10694950D01*
X12852752Y-10694950D01*
X12846936Y-10696509D01*
X12838751Y-10698702D01*
X12826199Y-10705949D01*
X12815949Y-10716199D01*
X12808702Y-10728751D01*
X12804950Y-10742753D01*
X12640050Y-10742753D01*
X12640050Y-10494103D01*
X14133314Y-10494103D01*
X14133314Y-10508598D01*
X14136272Y-10519641D01*
X14137065Y-10522600D01*
X14144312Y-10535152D01*
X14144313Y-10535152D01*
X14144313Y-10535152D01*
X14154562Y-10545402D01*
X14154562Y-10545402D01*
X14154563Y-10545402D01*
X14167115Y-10552649D01*
X14167115Y-10552649D01*
X14167115Y-10552649D01*
X14181116Y-10556401D01*
X14181116Y-10556401D01*
X14195611Y-10556401D01*
X14195611Y-10556401D01*
X14209612Y-10552649D01*
X14209612Y-10552649D01*
X14209613Y-10552649D01*
X14222165Y-10545402D01*
X14222165Y-10545402D01*
X14222165Y-10545402D01*
X14232415Y-10535152D01*
X14232415Y-10535152D01*
X14239662Y-10522600D01*
X14239662Y-10522600D01*
X14239662Y-10522599D01*
X14243414Y-10508598D01*
X14243414Y-10494103D01*
X14239662Y-10480102D01*
X14239662Y-10480102D01*
X14239662Y-10480102D01*
X14232415Y-10467550D01*
X14232415Y-10467550D01*
X14232415Y-10467549D01*
X14222165Y-10457300D01*
X14222165Y-10457300D01*
X14222165Y-10457300D01*
X14209612Y-10450053D01*
X14209613Y-10450053D01*
X14206653Y-10449260D01*
X14195611Y-10446301D01*
X14181116Y-10446301D01*
X14174943Y-10447955D01*
X14167115Y-10450053D01*
X14154563Y-10457300D01*
X14144312Y-10467550D01*
X14137065Y-10480102D01*
X14137065Y-10480102D01*
X14133314Y-10494103D01*
X12640050Y-10494103D01*
X12640050Y-10354145D01*
X12864350Y-10354145D01*
X12864350Y-10372255D01*
X12867183Y-10390141D01*
X12867183Y-10390141D01*
X12872779Y-10407364D01*
X12881000Y-10423499D01*
X12891645Y-10438150D01*
X12904450Y-10450955D01*
X12919101Y-10461600D01*
X12935236Y-10469821D01*
X12952459Y-10475417D01*
X12959614Y-10476550D01*
X12970345Y-10478250D01*
X12970345Y-10478250D01*
X12988455Y-10478250D01*
X12997398Y-10476834D01*
X13006341Y-10475417D01*
X13023564Y-10469821D01*
X13039699Y-10461600D01*
X13054350Y-10450955D01*
X13067155Y-10438150D01*
X13077800Y-10423499D01*
X13086021Y-10407364D01*
X13091617Y-10390141D01*
X13094450Y-10372255D01*
X13094450Y-10354145D01*
X13094450Y-10354145D01*
X13092561Y-10342221D01*
X13091617Y-10336259D01*
X13086021Y-10319036D01*
X13077800Y-10302901D01*
X13067155Y-10288250D01*
X13054350Y-10275445D01*
X13047011Y-10270113D01*
X13039700Y-10264801D01*
X13039699Y-10264800D01*
X13035680Y-10262753D01*
X13674950Y-10262753D01*
X13674950Y-10277247D01*
X13678702Y-10291249D01*
X13685949Y-10303801D01*
X13685949Y-10303801D01*
X13685949Y-10303802D01*
X13696198Y-10314051D01*
X13696199Y-10314051D01*
X13696199Y-10314051D01*
X13708751Y-10321298D01*
X13708751Y-10321298D01*
X13708751Y-10321298D01*
X13722752Y-10325050D01*
X13722753Y-10325050D01*
X13735449Y-10325050D01*
X13741268Y-10326941D01*
X13744865Y-10331891D01*
X13744865Y-10338009D01*
X13741268Y-10342959D01*
X13740399Y-10343524D01*
X13736199Y-10345949D01*
X13725949Y-10356199D01*
X13718702Y-10368751D01*
X13714950Y-10382753D01*
X13714950Y-10397247D01*
X13718702Y-10411249D01*
X13725949Y-10423801D01*
X13725949Y-10423801D01*
X13725949Y-10423802D01*
X13736198Y-10434051D01*
X13736199Y-10434051D01*
X13736199Y-10434051D01*
X13748751Y-10441298D01*
X13748751Y-10441298D01*
X13748751Y-10441298D01*
X13762752Y-10445050D01*
X13762753Y-10445050D01*
X13777247Y-10445050D01*
X13777247Y-10445050D01*
X13791248Y-10441298D01*
X13791249Y-10441298D01*
X13791249Y-10441298D01*
X13803801Y-10434051D01*
X13803801Y-10434051D01*
X13803801Y-10434051D01*
X13814051Y-10423802D01*
X13821298Y-10411249D01*
X13825050Y-10397248D01*
X13825050Y-10382753D01*
X13821298Y-10368752D01*
X13821298Y-10368751D01*
X13821298Y-10368751D01*
X13815499Y-10358707D01*
X13815499Y-10358706D01*
X13814051Y-10356199D01*
X13814051Y-10356199D01*
X13811997Y-10354145D01*
X14388350Y-10354145D01*
X14388350Y-10372255D01*
X14391183Y-10390141D01*
X14391183Y-10390141D01*
X14396779Y-10407364D01*
X14405000Y-10423499D01*
X14415645Y-10438150D01*
X14428450Y-10450955D01*
X14443101Y-10461600D01*
X14459236Y-10469821D01*
X14476459Y-10475417D01*
X14483614Y-10476550D01*
X14494345Y-10478250D01*
X14494345Y-10478250D01*
X14512455Y-10478250D01*
X14521398Y-10476834D01*
X14530341Y-10475417D01*
X14547564Y-10469821D01*
X14563699Y-10461600D01*
X14578350Y-10450955D01*
X14591155Y-10438150D01*
X14601800Y-10423499D01*
X14610021Y-10407364D01*
X14615617Y-10390141D01*
X14618450Y-10372255D01*
X14618450Y-10354145D01*
X14618450Y-10354145D01*
X14616561Y-10342221D01*
X14615617Y-10336259D01*
X14610021Y-10319036D01*
X14601800Y-10302901D01*
X14591155Y-10288250D01*
X14578350Y-10275445D01*
X14563699Y-10264800D01*
X14563699Y-10264800D01*
X14563699Y-10264800D01*
X14547564Y-10256579D01*
X14530341Y-10250983D01*
X14512455Y-10248150D01*
X14512455Y-10248150D01*
X14494345Y-10248150D01*
X14494345Y-10248150D01*
X14476459Y-10250983D01*
X14459236Y-10256579D01*
X14443101Y-10264800D01*
X14435789Y-10270113D01*
X14428450Y-10275445D01*
X14415645Y-10288250D01*
X14413466Y-10291249D01*
X14405000Y-10302901D01*
X14396779Y-10319036D01*
X14391183Y-10336259D01*
X14388350Y-10354145D01*
X13811997Y-10354145D01*
X13803801Y-10345949D01*
X13803801Y-10345949D01*
X13803801Y-10345949D01*
X13791249Y-10338702D01*
X13791249Y-10338702D01*
X13782134Y-10336259D01*
X13777247Y-10334950D01*
X13764551Y-10334950D01*
X13758731Y-10333059D01*
X13755135Y-10328109D01*
X13755135Y-10321991D01*
X13758731Y-10317041D01*
X13759600Y-10316476D01*
X13761180Y-10315564D01*
X13763801Y-10314051D01*
X13774051Y-10303802D01*
X13781298Y-10291249D01*
X13785050Y-10277248D01*
X13785050Y-10262753D01*
X13781298Y-10248752D01*
X13781298Y-10248751D01*
X13781298Y-10248751D01*
X13774051Y-10236199D01*
X13774051Y-10236199D01*
X13774051Y-10236199D01*
X13763801Y-10225949D01*
X13763801Y-10225949D01*
X13763801Y-10225949D01*
X13751249Y-10218702D01*
X13751249Y-10218702D01*
X13748290Y-10217909D01*
X13737247Y-10214950D01*
X13722752Y-10214950D01*
X13716579Y-10216604D01*
X13708751Y-10218702D01*
X13696199Y-10225949D01*
X13685949Y-10236199D01*
X13678702Y-10248751D01*
X13674950Y-10262753D01*
X13035680Y-10262753D01*
X13023564Y-10256579D01*
X13006341Y-10250983D01*
X12988455Y-10248150D01*
X12988455Y-10248150D01*
X12970345Y-10248150D01*
X12970345Y-10248150D01*
X12952459Y-10250983D01*
X12935236Y-10256579D01*
X12919101Y-10264800D01*
X12911789Y-10270113D01*
X12904450Y-10275445D01*
X12891645Y-10288250D01*
X12889466Y-10291249D01*
X12881000Y-10302901D01*
X12872779Y-10319036D01*
X12867183Y-10336259D01*
X12864350Y-10354145D01*
X12640050Y-10354145D01*
X12640050Y-10100145D01*
X12864350Y-10100145D01*
X12864350Y-10118255D01*
X12867183Y-10136141D01*
X12867183Y-10136141D01*
X12872779Y-10153364D01*
X12881000Y-10169499D01*
X12891645Y-10184150D01*
X12904450Y-10196955D01*
X12919101Y-10207600D01*
X12935236Y-10215821D01*
X12952459Y-10221417D01*
X12959614Y-10222550D01*
X12970345Y-10224250D01*
X12970345Y-10224250D01*
X12988455Y-10224250D01*
X12997398Y-10222834D01*
X13006341Y-10221417D01*
X13023564Y-10215821D01*
X13039699Y-10207600D01*
X13054350Y-10196955D01*
X13067155Y-10184150D01*
X13077800Y-10169499D01*
X13086021Y-10153364D01*
X13091617Y-10136141D01*
X13094450Y-10118255D01*
X13094450Y-10100145D01*
X13094450Y-10100145D01*
X14388350Y-10100145D01*
X14388350Y-10118255D01*
X14391183Y-10136141D01*
X14391183Y-10136141D01*
X14396779Y-10153364D01*
X14405000Y-10169499D01*
X14415645Y-10184150D01*
X14428450Y-10196955D01*
X14443101Y-10207600D01*
X14459236Y-10215821D01*
X14476459Y-10221417D01*
X14483614Y-10222550D01*
X14494345Y-10224250D01*
X14494345Y-10224250D01*
X14512455Y-10224250D01*
X14521398Y-10222834D01*
X14530341Y-10221417D01*
X14547564Y-10215821D01*
X14563699Y-10207600D01*
X14578350Y-10196955D01*
X14591155Y-10184150D01*
X14601800Y-10169499D01*
X14610021Y-10153364D01*
X14615617Y-10136141D01*
X14618450Y-10118255D01*
X14618450Y-10100145D01*
X14618450Y-10100145D01*
X14615617Y-10082259D01*
X14615617Y-10082259D01*
X14610021Y-10065036D01*
X14601800Y-10048901D01*
X14591155Y-10034250D01*
X14578350Y-10021445D01*
X14563699Y-10010800D01*
X14563699Y-10010800D01*
X14563699Y-10010800D01*
X14547564Y-10002579D01*
X14530341Y-9996983D01*
X14512455Y-9994150D01*
X14512455Y-9994150D01*
X14494345Y-9994150D01*
X14494345Y-9994150D01*
X14476459Y-9996983D01*
X14459236Y-10002579D01*
X14443101Y-10010800D01*
X14435775Y-10016123D01*
X14428450Y-10021445D01*
X14415645Y-10034250D01*
X14410524Y-10041298D01*
X14405000Y-10048901D01*
X14396779Y-10065036D01*
X14391183Y-10082259D01*
X14388350Y-10100145D01*
X13094450Y-10100145D01*
X13091617Y-10082259D01*
X13091617Y-10082259D01*
X13086021Y-10065036D01*
X13077800Y-10048901D01*
X13067155Y-10034250D01*
X13054350Y-10021445D01*
X13039699Y-10010800D01*
X13039699Y-10010800D01*
X13039699Y-10010800D01*
X13023564Y-10002579D01*
X13006341Y-9996983D01*
X12988455Y-9994150D01*
X12988455Y-9994150D01*
X12970345Y-9994150D01*
X12970345Y-9994150D01*
X12952459Y-9996983D01*
X12935236Y-10002579D01*
X12919101Y-10010800D01*
X12911775Y-10016123D01*
X12904450Y-10021445D01*
X12891645Y-10034250D01*
X12886524Y-10041298D01*
X12881000Y-10048901D01*
X12872779Y-10065036D01*
X12867183Y-10082259D01*
X12864350Y-10100145D01*
X12640050Y-10100145D01*
X12640050Y-9982753D01*
X13924950Y-9982753D01*
X13924950Y-9997247D01*
X13928702Y-10011249D01*
X13935949Y-10023801D01*
X13935949Y-10023801D01*
X13935949Y-10023802D01*
X13946198Y-10034051D01*
X13946199Y-10034051D01*
X13946199Y-10034051D01*
X13958751Y-10041298D01*
X13958751Y-10041298D01*
X13958751Y-10041298D01*
X13972752Y-10045050D01*
X13972753Y-10045050D01*
X13987247Y-10045050D01*
X13987247Y-10045050D01*
X14001248Y-10041298D01*
X14001249Y-10041298D01*
X14001249Y-10041298D01*
X14013801Y-10034051D01*
X14013801Y-10034051D01*
X14013801Y-10034051D01*
X14024051Y-10023802D01*
X14031298Y-10011249D01*
X14035050Y-9997248D01*
X14035050Y-9982753D01*
X14031298Y-9968752D01*
X14031298Y-9968751D01*
X14031298Y-9968751D01*
X14024051Y-9956199D01*
X14024051Y-9956199D01*
X14024051Y-9956199D01*
X14013801Y-9945949D01*
X14013801Y-9945949D01*
X14013801Y-9945949D01*
X14001249Y-9938702D01*
X14001249Y-9938702D01*
X13998290Y-9937909D01*
X13987247Y-9934950D01*
X13972752Y-9934950D01*
X13966579Y-9936604D01*
X13958751Y-9938702D01*
X13946199Y-9945949D01*
X13935949Y-9956199D01*
X13928702Y-9968751D01*
X13924950Y-9982753D01*
X12640050Y-9982753D01*
X12640050Y-9846145D01*
X12864350Y-9846145D01*
X12864350Y-9864255D01*
X12867183Y-9882141D01*
X12872779Y-9899364D01*
X12880426Y-9914372D01*
X12881000Y-9915499D01*
X12891645Y-9930150D01*
X12904450Y-9942955D01*
X12919101Y-9953600D01*
X12935236Y-9961821D01*
X12952459Y-9967417D01*
X12959614Y-9968550D01*
X12970345Y-9970250D01*
X12970345Y-9970250D01*
X12988455Y-9970250D01*
X12997916Y-9968752D01*
X13006341Y-9967417D01*
X13023564Y-9961821D01*
X13039699Y-9953600D01*
X13054350Y-9942955D01*
X13067155Y-9930150D01*
X13077800Y-9915499D01*
X13086021Y-9899364D01*
X13091617Y-9882141D01*
X13094450Y-9864255D01*
X13094450Y-9862753D01*
X13444950Y-9862753D01*
X13444950Y-9877248D01*
X13446261Y-9882141D01*
X13448702Y-9891249D01*
X13455949Y-9903801D01*
X13455949Y-9903801D01*
X13455949Y-9903802D01*
X13466198Y-9914051D01*
X13466199Y-9914051D01*
X13466199Y-9914051D01*
X13478751Y-9921298D01*
X13478751Y-9921298D01*
X13478751Y-9921298D01*
X13492752Y-9925050D01*
X13492753Y-9925050D01*
X13507247Y-9925050D01*
X13507247Y-9925050D01*
X13521248Y-9921298D01*
X13521249Y-9921298D01*
X13521249Y-9921298D01*
X13533801Y-9914051D01*
X13533801Y-9914051D01*
X13533801Y-9914051D01*
X13534370Y-9913482D01*
X13539821Y-9910704D01*
X13543933Y-9910919D01*
X13556819Y-9914372D01*
X13556819Y-9914372D01*
X13556819Y-9914372D01*
X13571314Y-9914372D01*
X13571314Y-9914372D01*
X13585315Y-9910621D01*
X13585315Y-9910620D01*
X13585315Y-9910620D01*
X13597867Y-9903373D01*
X13597867Y-9903373D01*
X13597868Y-9903373D01*
X13608117Y-9893124D01*
X13615365Y-9880571D01*
X13615365Y-9880570D01*
X13615575Y-9880064D01*
X13619548Y-9875411D01*
X13622159Y-9874289D01*
X13622375Y-9874231D01*
X13622375Y-9874231D01*
X13636376Y-9870479D01*
X13636376Y-9870479D01*
X13636376Y-9870479D01*
X13648928Y-9863232D01*
X13648928Y-9863232D01*
X13648929Y-9863232D01*
X13659178Y-9852983D01*
X13661621Y-9848751D01*
X13663126Y-9846145D01*
X14388350Y-9846145D01*
X14388350Y-9864255D01*
X14391183Y-9882141D01*
X14396779Y-9899364D01*
X14404426Y-9914372D01*
X14405000Y-9915499D01*
X14415645Y-9930150D01*
X14428450Y-9942955D01*
X14443101Y-9953600D01*
X14459236Y-9961821D01*
X14476459Y-9967417D01*
X14483614Y-9968550D01*
X14494345Y-9970250D01*
X14494345Y-9970250D01*
X14512455Y-9970250D01*
X14521916Y-9968752D01*
X14530341Y-9967417D01*
X14547564Y-9961821D01*
X14563699Y-9953600D01*
X14578350Y-9942955D01*
X14591155Y-9930150D01*
X14601800Y-9915499D01*
X14610021Y-9899364D01*
X14615617Y-9882141D01*
X14618450Y-9864255D01*
X14618450Y-9846145D01*
X14618450Y-9846145D01*
X14615617Y-9828259D01*
X14615617Y-9828259D01*
X14610021Y-9811036D01*
X14601800Y-9794901D01*
X14591155Y-9780250D01*
X14578350Y-9767445D01*
X14563699Y-9756800D01*
X14563699Y-9756800D01*
X14563699Y-9756800D01*
X14547564Y-9748579D01*
X14530341Y-9742983D01*
X14512455Y-9740150D01*
X14512455Y-9740150D01*
X14494345Y-9740150D01*
X14494345Y-9740150D01*
X14476459Y-9742983D01*
X14459236Y-9748579D01*
X14443101Y-9756800D01*
X14437672Y-9760744D01*
X14428450Y-9767445D01*
X14415645Y-9780250D01*
X14411918Y-9785380D01*
X14405000Y-9794901D01*
X14396779Y-9811036D01*
X14391183Y-9828259D01*
X14388350Y-9846145D01*
X13663126Y-9846145D01*
X13666208Y-9840806D01*
X13666426Y-9840430D01*
X13666426Y-9840430D01*
X13666426Y-9840430D01*
X13670177Y-9826429D01*
X13670177Y-9816392D01*
X13672068Y-9810573D01*
X13675127Y-9807818D01*
X13683421Y-9803030D01*
X13693670Y-9792781D01*
X13700918Y-9780228D01*
X13704669Y-9766227D01*
X13704669Y-9766226D01*
X13704763Y-9765876D01*
X13708095Y-9760744D01*
X13710538Y-9759291D01*
X13710907Y-9759138D01*
X13710909Y-9759138D01*
X13723462Y-9751891D01*
X13733711Y-9741641D01*
X13740959Y-9729088D01*
X13744710Y-9715087D01*
X13744710Y-9704950D01*
X13746601Y-9699131D01*
X13751551Y-9695535D01*
X13754610Y-9695050D01*
X13757247Y-9695050D01*
X13757247Y-9695050D01*
X13771248Y-9691298D01*
X13771249Y-9691298D01*
X13771249Y-9691298D01*
X13783801Y-9684051D01*
X13783801Y-9684051D01*
X13783801Y-9684051D01*
X13794051Y-9673802D01*
X13798440Y-9666199D01*
X13801298Y-9661249D01*
X13801298Y-9661249D01*
X13801298Y-9661249D01*
X13805050Y-9647248D01*
X13805050Y-9632753D01*
X13801298Y-9618752D01*
X13801298Y-9618751D01*
X13801298Y-9618751D01*
X13794051Y-9606199D01*
X13794051Y-9606199D01*
X13794051Y-9606199D01*
X13783801Y-9595949D01*
X13783801Y-9595949D01*
X13783801Y-9595949D01*
X13777213Y-9592145D01*
X14388350Y-9592145D01*
X14388350Y-9610255D01*
X14391183Y-9628141D01*
X14396779Y-9645364D01*
X14404873Y-9661249D01*
X14405000Y-9661499D01*
X14415645Y-9676150D01*
X14428450Y-9688955D01*
X14443101Y-9699600D01*
X14459236Y-9707821D01*
X14476459Y-9713417D01*
X14483614Y-9714550D01*
X14494345Y-9716250D01*
X14494345Y-9716250D01*
X14512455Y-9716250D01*
X14521398Y-9714834D01*
X14530341Y-9713417D01*
X14547564Y-9707821D01*
X14563699Y-9699600D01*
X14578350Y-9688955D01*
X14591155Y-9676150D01*
X14601800Y-9661499D01*
X14610021Y-9645364D01*
X14615617Y-9628141D01*
X14618450Y-9610255D01*
X14618450Y-9592145D01*
X14618450Y-9592145D01*
X14615617Y-9574259D01*
X14615617Y-9574259D01*
X14610021Y-9557036D01*
X14606027Y-9549197D01*
X14605070Y-9543154D01*
X14607847Y-9537702D01*
X14613299Y-9534925D01*
X14619342Y-9535882D01*
X14619798Y-9536129D01*
X14628751Y-9541298D01*
X14628751Y-9541298D01*
X14628751Y-9541298D01*
X14642752Y-9545050D01*
X14642753Y-9545050D01*
X14657247Y-9545050D01*
X14657247Y-9545050D01*
X14671248Y-9541298D01*
X14671249Y-9541298D01*
X14671249Y-9541298D01*
X14683801Y-9534051D01*
X14683801Y-9534051D01*
X14683801Y-9534051D01*
X14694051Y-9523802D01*
X14695681Y-9520978D01*
X14701298Y-9511249D01*
X14701298Y-9511249D01*
X14701298Y-9511249D01*
X14705050Y-9497248D01*
X14705050Y-9482753D01*
X14701298Y-9468752D01*
X14701298Y-9468751D01*
X14701298Y-9468751D01*
X14694051Y-9456199D01*
X14694051Y-9456199D01*
X14694051Y-9456199D01*
X14683801Y-9445949D01*
X14683801Y-9445949D01*
X14683801Y-9445949D01*
X14671249Y-9438702D01*
X14671249Y-9438702D01*
X14665976Y-9437289D01*
X14657247Y-9434950D01*
X14642752Y-9434950D01*
X14638093Y-9436199D01*
X14628751Y-9438702D01*
X14616199Y-9445949D01*
X14605949Y-9456199D01*
X14598702Y-9468751D01*
X14594950Y-9482753D01*
X14594950Y-9497247D01*
X14597392Y-9506361D01*
X14597072Y-9512471D01*
X14593221Y-9517226D01*
X14587311Y-9518810D01*
X14581599Y-9516617D01*
X14580830Y-9515924D01*
X14578350Y-9513445D01*
X14563699Y-9502800D01*
X14563699Y-9502800D01*
X14563699Y-9502800D01*
X14547564Y-9494579D01*
X14530341Y-9488983D01*
X14512455Y-9486150D01*
X14512455Y-9486150D01*
X14494345Y-9486150D01*
X14494345Y-9486150D01*
X14476459Y-9488983D01*
X14459236Y-9494579D01*
X14443101Y-9502800D01*
X14440763Y-9504499D01*
X14428450Y-9513445D01*
X14415645Y-9526250D01*
X14410920Y-9532753D01*
X14405000Y-9540901D01*
X14396779Y-9557036D01*
X14391183Y-9574259D01*
X14388350Y-9592145D01*
X13777213Y-9592145D01*
X13771249Y-9588702D01*
X13771249Y-9588702D01*
X13768290Y-9587909D01*
X13757247Y-9584950D01*
X13742752Y-9584950D01*
X13736579Y-9586604D01*
X13728751Y-9588702D01*
X13716199Y-9595949D01*
X13705949Y-9606199D01*
X13698702Y-9618751D01*
X13694950Y-9632753D01*
X13694950Y-9642890D01*
X13693059Y-9648709D01*
X13688109Y-9652305D01*
X13685050Y-9652790D01*
X13682413Y-9652790D01*
X13676239Y-9654444D01*
X13668411Y-9656541D01*
X13655859Y-9663788D01*
X13645609Y-9674039D01*
X13638362Y-9686591D01*
X13638362Y-9686591D01*
X13634516Y-9700943D01*
X13631184Y-9706074D01*
X13628742Y-9707527D01*
X13628370Y-9707681D01*
X13615818Y-9714928D01*
X13605568Y-9725178D01*
X13598321Y-9737730D01*
X13594569Y-9751732D01*
X13594569Y-9761768D01*
X13592678Y-9767587D01*
X13589619Y-9770342D01*
X13581326Y-9775130D01*
X13571076Y-9785380D01*
X13563829Y-9797932D01*
X13563619Y-9798441D01*
X13559645Y-9803093D01*
X13557035Y-9804214D01*
X13542818Y-9808024D01*
X13542818Y-9808024D01*
X13530265Y-9815271D01*
X13529695Y-9815841D01*
X13524243Y-9818618D01*
X13520133Y-9818403D01*
X13510573Y-9815841D01*
X13507247Y-9814950D01*
X13492752Y-9814950D01*
X13489427Y-9815841D01*
X13478751Y-9818702D01*
X13466199Y-9825949D01*
X13455949Y-9836199D01*
X13448702Y-9848751D01*
X13448702Y-9848752D01*
X13444950Y-9862753D01*
X13094450Y-9862753D01*
X13094450Y-9846145D01*
X13094450Y-9846145D01*
X13091617Y-9828259D01*
X13091617Y-9828259D01*
X13086021Y-9811036D01*
X13077800Y-9794901D01*
X13067155Y-9780250D01*
X13054350Y-9767445D01*
X13039699Y-9756800D01*
X13039699Y-9756800D01*
X13039699Y-9756800D01*
X13023564Y-9748579D01*
X13006341Y-9742983D01*
X12988455Y-9740150D01*
X12988455Y-9740150D01*
X12970345Y-9740150D01*
X12970345Y-9740150D01*
X12952459Y-9742983D01*
X12935236Y-9748579D01*
X12919101Y-9756800D01*
X12913672Y-9760744D01*
X12904450Y-9767445D01*
X12891645Y-9780250D01*
X12887918Y-9785380D01*
X12881000Y-9794901D01*
X12872779Y-9811036D01*
X12867183Y-9828259D01*
X12864350Y-9846145D01*
X12640050Y-9846145D01*
X12640050Y-9592145D01*
X12864350Y-9592145D01*
X12864350Y-9610255D01*
X12867183Y-9628141D01*
X12872779Y-9645364D01*
X12880873Y-9661249D01*
X12881000Y-9661499D01*
X12891645Y-9676150D01*
X12904450Y-9688955D01*
X12919101Y-9699600D01*
X12935236Y-9707821D01*
X12952459Y-9713417D01*
X12959614Y-9714550D01*
X12970345Y-9716250D01*
X12970345Y-9716250D01*
X12988455Y-9716250D01*
X12997398Y-9714834D01*
X13006341Y-9713417D01*
X13023564Y-9707821D01*
X13039699Y-9699600D01*
X13049124Y-9692753D01*
X13104950Y-9692753D01*
X13104950Y-9707248D01*
X13105104Y-9707821D01*
X13108702Y-9721249D01*
X13115949Y-9733801D01*
X13115949Y-9733801D01*
X13115949Y-9733802D01*
X13126198Y-9744051D01*
X13126199Y-9744051D01*
X13126199Y-9744051D01*
X13138751Y-9751298D01*
X13138751Y-9751298D01*
X13138751Y-9751298D01*
X13152752Y-9755050D01*
X13152753Y-9755050D01*
X13167247Y-9755050D01*
X13167247Y-9755050D01*
X13181248Y-9751298D01*
X13181249Y-9751298D01*
X13181249Y-9751298D01*
X13193801Y-9744051D01*
X13193801Y-9744051D01*
X13193801Y-9744051D01*
X13204051Y-9733802D01*
X13206772Y-9729088D01*
X13211298Y-9721249D01*
X13211298Y-9721249D01*
X13211298Y-9721249D01*
X13215050Y-9707248D01*
X13215050Y-9692753D01*
X13211298Y-9678752D01*
X13208577Y-9674039D01*
X13204545Y-9667054D01*
X13204051Y-9666199D01*
X13204051Y-9666199D01*
X13200605Y-9662753D01*
X13234950Y-9662753D01*
X13234950Y-9677248D01*
X13235353Y-9678752D01*
X13238702Y-9691249D01*
X13245949Y-9703801D01*
X13245949Y-9703801D01*
X13245949Y-9703802D01*
X13256198Y-9714051D01*
X13256199Y-9714051D01*
X13256199Y-9714051D01*
X13268751Y-9721298D01*
X13268751Y-9721298D01*
X13268751Y-9721298D01*
X13282752Y-9725050D01*
X13282753Y-9725050D01*
X13297247Y-9725050D01*
X13297247Y-9725050D01*
X13311248Y-9721298D01*
X13311249Y-9721298D01*
X13311249Y-9721298D01*
X13323801Y-9714051D01*
X13323801Y-9714051D01*
X13323801Y-9714051D01*
X13334051Y-9703802D01*
X13341298Y-9691249D01*
X13345050Y-9677248D01*
X13345050Y-9662753D01*
X13341298Y-9648752D01*
X13341298Y-9648751D01*
X13341298Y-9648751D01*
X13334051Y-9636199D01*
X13334051Y-9636199D01*
X13334051Y-9636199D01*
X13323801Y-9625949D01*
X13323801Y-9625949D01*
X13323801Y-9625949D01*
X13311249Y-9618702D01*
X13311249Y-9618702D01*
X13308290Y-9617909D01*
X13297247Y-9614950D01*
X13282752Y-9614950D01*
X13276579Y-9616604D01*
X13268751Y-9618702D01*
X13256199Y-9625949D01*
X13245949Y-9636199D01*
X13238702Y-9648751D01*
X13235286Y-9661499D01*
X13234950Y-9662753D01*
X13200605Y-9662753D01*
X13193801Y-9655949D01*
X13193801Y-9655949D01*
X13193801Y-9655949D01*
X13181249Y-9648702D01*
X13181249Y-9648702D01*
X13175821Y-9647247D01*
X13167247Y-9644950D01*
X13152752Y-9644950D01*
X13146579Y-9646604D01*
X13138751Y-9648702D01*
X13126199Y-9655949D01*
X13115949Y-9666199D01*
X13108702Y-9678751D01*
X13105967Y-9688955D01*
X13104950Y-9692753D01*
X13049124Y-9692753D01*
X13054350Y-9688955D01*
X13067155Y-9676150D01*
X13077800Y-9661499D01*
X13086021Y-9645364D01*
X13091617Y-9628141D01*
X13094450Y-9610255D01*
X13094450Y-9592145D01*
X13094450Y-9592145D01*
X13091617Y-9574259D01*
X13091617Y-9574259D01*
X13086021Y-9557036D01*
X13077800Y-9540901D01*
X13067155Y-9526250D01*
X13054350Y-9513445D01*
X13039699Y-9502800D01*
X13039699Y-9502800D01*
X13039699Y-9502800D01*
X13023564Y-9494579D01*
X13006341Y-9488983D01*
X12988455Y-9486150D01*
X12988455Y-9486150D01*
X12970345Y-9486150D01*
X12970345Y-9486150D01*
X12952459Y-9488983D01*
X12935236Y-9494579D01*
X12919101Y-9502800D01*
X12916763Y-9504499D01*
X12904450Y-9513445D01*
X12891645Y-9526250D01*
X12886920Y-9532753D01*
X12881000Y-9540901D01*
X12872779Y-9557036D01*
X12867183Y-9574259D01*
X12864350Y-9592145D01*
X12640050Y-9592145D01*
X12640050Y-9462753D01*
X12784950Y-9462753D01*
X12784950Y-9477248D01*
X12787834Y-9488009D01*
X12788702Y-9491249D01*
X12795949Y-9503801D01*
X12795949Y-9503801D01*
X12795949Y-9503802D01*
X12806198Y-9514051D01*
X12806199Y-9514051D01*
X12806199Y-9514051D01*
X12818751Y-9521298D01*
X12818751Y-9521298D01*
X12818751Y-9521298D01*
X12832752Y-9525050D01*
X12832753Y-9525050D01*
X12847247Y-9525050D01*
X12847247Y-9525050D01*
X12861248Y-9521298D01*
X12861249Y-9521298D01*
X12861249Y-9521298D01*
X12873801Y-9514051D01*
X12873801Y-9514051D01*
X12873801Y-9514051D01*
X12884051Y-9503802D01*
X12884236Y-9503482D01*
X12891298Y-9491249D01*
X12891298Y-9491249D01*
X12891298Y-9491249D01*
X12895050Y-9477248D01*
X12895050Y-9462753D01*
X12891298Y-9448752D01*
X12891298Y-9448751D01*
X12891298Y-9448751D01*
X12891050Y-9448152D01*
X12891199Y-9448090D01*
X12890091Y-9442879D01*
X12892579Y-9437289D01*
X12897878Y-9434230D01*
X12903963Y-9434869D01*
X12905755Y-9435903D01*
X12919101Y-9445600D01*
X12935236Y-9453821D01*
X12952459Y-9459417D01*
X12959614Y-9460550D01*
X12970345Y-9462250D01*
X12970345Y-9462250D01*
X12988455Y-9462250D01*
X12997398Y-9460834D01*
X13006341Y-9459417D01*
X13023564Y-9453821D01*
X13039699Y-9445600D01*
X13054350Y-9434955D01*
X13067155Y-9422150D01*
X13077041Y-9408544D01*
X13081991Y-9404947D01*
X13088109Y-9404947D01*
X13093059Y-9408544D01*
X13094950Y-9414363D01*
X13094950Y-9427248D01*
X13097641Y-9437289D01*
X13098702Y-9441249D01*
X13105949Y-9453801D01*
X13105949Y-9453801D01*
X13105949Y-9453802D01*
X13116198Y-9464051D01*
X13116199Y-9464051D01*
X13116199Y-9464051D01*
X13128751Y-9471298D01*
X13128751Y-9471298D01*
X13128751Y-9471298D01*
X13142752Y-9475050D01*
X13142753Y-9475050D01*
X13155449Y-9475050D01*
X13161268Y-9476941D01*
X13164865Y-9481891D01*
X13164865Y-9488009D01*
X13161268Y-9492959D01*
X13160399Y-9493524D01*
X13156199Y-9495949D01*
X13145949Y-9506199D01*
X13138702Y-9518751D01*
X13134950Y-9532753D01*
X13134950Y-9547247D01*
X13138702Y-9561249D01*
X13145949Y-9573801D01*
X13145949Y-9573801D01*
X13145949Y-9573802D01*
X13156198Y-9584051D01*
X13156199Y-9584051D01*
X13156199Y-9584051D01*
X13168751Y-9591298D01*
X13168751Y-9591298D01*
X13168751Y-9591298D01*
X13182752Y-9595050D01*
X13182753Y-9595050D01*
X13197247Y-9595050D01*
X13197247Y-9595050D01*
X13211248Y-9591298D01*
X13211249Y-9591298D01*
X13211249Y-9591298D01*
X13223801Y-9584051D01*
X13223801Y-9584051D01*
X13223801Y-9584051D01*
X13234051Y-9573802D01*
X13241298Y-9561249D01*
X13245050Y-9547248D01*
X13245050Y-9532753D01*
X13241298Y-9518752D01*
X13241298Y-9518751D01*
X13241298Y-9518751D01*
X13241050Y-9518152D01*
X13241248Y-9518070D01*
X13240176Y-9513026D01*
X13242665Y-9507437D01*
X13247460Y-9504499D01*
X13247923Y-9504375D01*
X13247923Y-9504375D01*
X13261924Y-9500623D01*
X13272149Y-9494720D01*
X13278133Y-9493448D01*
X13282049Y-9494720D01*
X13287052Y-9497608D01*
X13287052Y-9497608D01*
X13287052Y-9497609D01*
X13301053Y-9501360D01*
X13301054Y-9501360D01*
X13315548Y-9501360D01*
X13315548Y-9501360D01*
X13329549Y-9497609D01*
X13329550Y-9497608D01*
X13329550Y-9497608D01*
X13342102Y-9490361D01*
X13342102Y-9490361D01*
X13342102Y-9490361D01*
X13352352Y-9480112D01*
X13359599Y-9467559D01*
X13360973Y-9462433D01*
X13435270Y-9462433D01*
X13435270Y-9476928D01*
X13437537Y-9485390D01*
X13439022Y-9490929D01*
X13446269Y-9503481D01*
X13446269Y-9503481D01*
X13446269Y-9503482D01*
X13456518Y-9513731D01*
X13456519Y-9513731D01*
X13456519Y-9513731D01*
X13469071Y-9520978D01*
X13469071Y-9520978D01*
X13469071Y-9520978D01*
X13483072Y-9524730D01*
X13483073Y-9524730D01*
X13497567Y-9524730D01*
X13497567Y-9524730D01*
X13511568Y-9520978D01*
X13511569Y-9520978D01*
X13511569Y-9520978D01*
X13524121Y-9513731D01*
X13524121Y-9513731D01*
X13524121Y-9513731D01*
X13531808Y-9506045D01*
X13537259Y-9503267D01*
X13541370Y-9503482D01*
X13544755Y-9504390D01*
X13544756Y-9504390D01*
X13559250Y-9504390D01*
X13559250Y-9504390D01*
X13573251Y-9500638D01*
X13573252Y-9500638D01*
X13573252Y-9500638D01*
X13585804Y-9493391D01*
X13585804Y-9493391D01*
X13585804Y-9493390D01*
X13596054Y-9483141D01*
X13599641Y-9476928D01*
X13603301Y-9470588D01*
X13603301Y-9470588D01*
X13603301Y-9470588D01*
X13607053Y-9456587D01*
X13607053Y-9442092D01*
X13603301Y-9428091D01*
X13603301Y-9428091D01*
X13603301Y-9428091D01*
X13596054Y-9415538D01*
X13596054Y-9415538D01*
X13596054Y-9415538D01*
X13585804Y-9405289D01*
X13585804Y-9405288D01*
X13585804Y-9405288D01*
X13582655Y-9403470D01*
X13985524Y-9403470D01*
X13985524Y-9417965D01*
X13985721Y-9418702D01*
X13989276Y-9431967D01*
X13996523Y-9444519D01*
X13996523Y-9444519D01*
X13996523Y-9444519D01*
X14006773Y-9454769D01*
X14006773Y-9454769D01*
X14006773Y-9454769D01*
X14019325Y-9462016D01*
X14019325Y-9462016D01*
X14019326Y-9462016D01*
X14033327Y-9465768D01*
X14033327Y-9465768D01*
X14047821Y-9465768D01*
X14047822Y-9465768D01*
X14061823Y-9462016D01*
X14061823Y-9462016D01*
X14061823Y-9462016D01*
X14074375Y-9454769D01*
X14074375Y-9454769D01*
X14074376Y-9454769D01*
X14084625Y-9444519D01*
X14084625Y-9444519D01*
X14091872Y-9431967D01*
X14091872Y-9431966D01*
X14091872Y-9431966D01*
X14095624Y-9417965D01*
X14095624Y-9403470D01*
X14091872Y-9389469D01*
X14091872Y-9389469D01*
X14091872Y-9389469D01*
X14084625Y-9376917D01*
X14084625Y-9376916D01*
X14084625Y-9376916D01*
X14074376Y-9366667D01*
X14074375Y-9366667D01*
X14074375Y-9366666D01*
X14064002Y-9360677D01*
X14064002Y-9360677D01*
X14061823Y-9359419D01*
X14054822Y-9357543D01*
X14047822Y-9355668D01*
X14033327Y-9355668D01*
X14027153Y-9357322D01*
X14019325Y-9359419D01*
X14006773Y-9366666D01*
X13996523Y-9376917D01*
X13989276Y-9389469D01*
X13986483Y-9399891D01*
X13985524Y-9403470D01*
X13582655Y-9403470D01*
X13573252Y-9398041D01*
X13573252Y-9398041D01*
X13567358Y-9396462D01*
X13559250Y-9394290D01*
X13544755Y-9394290D01*
X13540706Y-9395375D01*
X13530754Y-9398041D01*
X13518202Y-9405288D01*
X13518201Y-9405289D01*
X13510515Y-9412975D01*
X13505063Y-9415752D01*
X13500953Y-9415537D01*
X13497568Y-9414630D01*
X13497567Y-9414630D01*
X13483072Y-9414630D01*
X13478884Y-9415752D01*
X13469071Y-9418382D01*
X13456519Y-9425629D01*
X13446269Y-9435879D01*
X13439022Y-9448431D01*
X13437648Y-9453558D01*
X13435270Y-9462433D01*
X13360973Y-9462433D01*
X13363351Y-9453558D01*
X13363351Y-9439063D01*
X13359599Y-9425062D01*
X13359599Y-9425061D01*
X13359599Y-9425061D01*
X13353115Y-9413831D01*
X13351843Y-9407846D01*
X13353115Y-9403931D01*
X13358055Y-9395375D01*
X13358055Y-9395375D01*
X13358055Y-9395375D01*
X13361807Y-9381374D01*
X13361807Y-9366879D01*
X13358055Y-9352878D01*
X13358055Y-9352877D01*
X13358055Y-9352877D01*
X13350808Y-9340325D01*
X13350808Y-9340325D01*
X13350808Y-9340325D01*
X13340558Y-9330075D01*
X13340558Y-9330075D01*
X13340558Y-9330075D01*
X13328006Y-9322828D01*
X13328006Y-9322828D01*
X13325047Y-9322035D01*
X13314004Y-9319076D01*
X13299509Y-9319076D01*
X13297524Y-9319608D01*
X13285863Y-9322733D01*
X13285862Y-9322733D01*
X13285508Y-9322828D01*
X13285161Y-9323028D01*
X13285160Y-9323029D01*
X13272956Y-9330075D01*
X13262706Y-9340325D01*
X13255459Y-9352877D01*
X13251707Y-9366879D01*
X13251707Y-9381374D01*
X13251707Y-9381374D01*
X13251824Y-9381812D01*
X13251504Y-9387922D01*
X13247654Y-9392677D01*
X13242262Y-9394275D01*
X13233428Y-9394275D01*
X13229323Y-9395375D01*
X13219427Y-9398026D01*
X13214090Y-9401107D01*
X13208105Y-9402380D01*
X13202516Y-9399891D01*
X13200566Y-9397484D01*
X13194051Y-9386199D01*
X13194051Y-9386199D01*
X13194051Y-9386199D01*
X13183801Y-9375949D01*
X13183801Y-9375949D01*
X13183801Y-9375949D01*
X13171249Y-9368702D01*
X13171249Y-9368702D01*
X13165821Y-9367247D01*
X13157247Y-9364950D01*
X13142752Y-9364950D01*
X13136579Y-9366604D01*
X13128751Y-9368702D01*
X13116199Y-9375949D01*
X13116198Y-9375949D01*
X13108074Y-9384073D01*
X13102622Y-9386851D01*
X13096579Y-9385894D01*
X13092253Y-9381567D01*
X13091296Y-9375524D01*
X13091536Y-9374521D01*
X13091526Y-9374519D01*
X13091617Y-9374141D01*
X13094450Y-9356255D01*
X13094450Y-9338145D01*
X13092009Y-9322733D01*
X13091617Y-9320259D01*
X13086021Y-9303036D01*
X13077800Y-9286901D01*
X13067155Y-9272250D01*
X13054350Y-9259445D01*
X13039699Y-9248800D01*
X13039699Y-9248800D01*
X13039699Y-9248800D01*
X13034433Y-9246117D01*
X13201586Y-9246117D01*
X13201586Y-9260612D01*
X13205337Y-9274614D01*
X13212584Y-9287166D01*
X13212584Y-9287166D01*
X13212585Y-9287166D01*
X13222834Y-9297416D01*
X13222834Y-9297416D01*
X13222834Y-9297416D01*
X13235387Y-9304663D01*
X13235387Y-9304663D01*
X13235387Y-9304663D01*
X13249388Y-9308415D01*
X13249388Y-9308415D01*
X13263883Y-9308415D01*
X13263883Y-9308415D01*
X13277884Y-9304663D01*
X13281193Y-9302753D01*
X13714950Y-9302753D01*
X13714950Y-9317248D01*
X13717412Y-9326437D01*
X13718702Y-9331249D01*
X13725949Y-9343801D01*
X13725949Y-9343801D01*
X13725949Y-9343802D01*
X13736198Y-9354051D01*
X13736199Y-9354051D01*
X13736199Y-9354051D01*
X13748751Y-9361298D01*
X13748751Y-9361298D01*
X13748751Y-9361298D01*
X13762752Y-9365050D01*
X13762753Y-9365050D01*
X13777247Y-9365050D01*
X13777247Y-9365050D01*
X13791248Y-9361298D01*
X13791249Y-9361298D01*
X13791249Y-9361298D01*
X13803801Y-9354051D01*
X13803801Y-9354051D01*
X13803801Y-9354051D01*
X13805100Y-9352753D01*
X14274950Y-9352753D01*
X14274950Y-9367248D01*
X14275340Y-9368702D01*
X14278702Y-9381249D01*
X14285949Y-9393801D01*
X14285949Y-9393801D01*
X14285949Y-9393802D01*
X14296198Y-9404051D01*
X14296199Y-9404051D01*
X14296199Y-9404051D01*
X14308751Y-9411298D01*
X14308751Y-9411298D01*
X14308751Y-9411298D01*
X14322752Y-9415050D01*
X14322753Y-9415050D01*
X14337247Y-9415050D01*
X14337247Y-9415050D01*
X14351248Y-9411298D01*
X14351249Y-9411298D01*
X14351249Y-9411298D01*
X14363801Y-9404051D01*
X14363801Y-9404051D01*
X14363801Y-9404051D01*
X14374051Y-9393802D01*
X14377983Y-9386990D01*
X14382530Y-9382897D01*
X14388615Y-9382257D01*
X14393914Y-9385316D01*
X14395972Y-9388881D01*
X14396779Y-9391364D01*
X14403874Y-9405289D01*
X14405000Y-9407499D01*
X14415645Y-9422150D01*
X14428450Y-9434955D01*
X14443101Y-9445600D01*
X14459236Y-9453821D01*
X14476459Y-9459417D01*
X14483614Y-9460550D01*
X14494345Y-9462250D01*
X14494345Y-9462250D01*
X14512455Y-9462250D01*
X14521398Y-9460834D01*
X14530341Y-9459417D01*
X14547564Y-9453821D01*
X14563699Y-9445600D01*
X14578350Y-9434955D01*
X14591155Y-9422150D01*
X14601800Y-9407499D01*
X14610021Y-9391364D01*
X14615617Y-9374141D01*
X14617073Y-9364950D01*
X14618450Y-9356255D01*
X14618450Y-9338145D01*
X14616009Y-9322733D01*
X14615617Y-9320259D01*
X14610021Y-9303036D01*
X14601800Y-9286901D01*
X14591155Y-9272250D01*
X14578350Y-9259445D01*
X14563699Y-9248800D01*
X14563699Y-9248800D01*
X14563699Y-9248800D01*
X14547564Y-9240579D01*
X14530341Y-9234983D01*
X14512455Y-9232150D01*
X14512455Y-9232150D01*
X14494345Y-9232150D01*
X14494345Y-9232150D01*
X14476459Y-9234983D01*
X14459236Y-9240579D01*
X14443101Y-9248800D01*
X14435775Y-9254123D01*
X14428450Y-9259445D01*
X14415645Y-9272250D01*
X14413928Y-9274613D01*
X14405000Y-9286901D01*
X14396779Y-9303036D01*
X14391183Y-9320259D01*
X14391068Y-9320986D01*
X14388290Y-9326437D01*
X14382838Y-9329215D01*
X14376795Y-9328257D01*
X14374289Y-9326437D01*
X14374051Y-9326199D01*
X14374051Y-9326199D01*
X14363801Y-9315949D01*
X14363801Y-9315949D01*
X14363801Y-9315949D01*
X14351249Y-9308702D01*
X14351249Y-9308702D01*
X14348290Y-9307909D01*
X14337247Y-9304950D01*
X14322752Y-9304950D01*
X14316579Y-9306604D01*
X14308751Y-9308702D01*
X14296199Y-9315949D01*
X14285949Y-9326199D01*
X14278702Y-9338751D01*
X14277349Y-9343801D01*
X14274950Y-9352753D01*
X13805100Y-9352753D01*
X13814051Y-9343802D01*
X13821298Y-9331249D01*
X13825050Y-9317248D01*
X13825050Y-9302753D01*
X13821298Y-9288752D01*
X13821298Y-9288751D01*
X13821298Y-9288751D01*
X13814051Y-9276199D01*
X13814051Y-9276199D01*
X13814051Y-9276199D01*
X13803801Y-9265949D01*
X13803801Y-9265949D01*
X13803801Y-9265949D01*
X13791249Y-9258702D01*
X13791249Y-9258702D01*
X13788290Y-9257909D01*
X13777247Y-9254950D01*
X13762752Y-9254950D01*
X13756579Y-9256604D01*
X13748751Y-9258702D01*
X13736199Y-9265949D01*
X13725949Y-9276199D01*
X13718702Y-9288751D01*
X13714950Y-9302753D01*
X13281193Y-9302753D01*
X13290437Y-9297416D01*
X13300686Y-9287166D01*
X13300840Y-9286901D01*
X13307934Y-9274614D01*
X13307934Y-9274613D01*
X13307934Y-9274613D01*
X13311686Y-9260612D01*
X13311686Y-9246117D01*
X13307934Y-9232116D01*
X13307934Y-9232116D01*
X13307934Y-9232116D01*
X13300687Y-9219564D01*
X13300687Y-9219563D01*
X13300686Y-9219563D01*
X13290437Y-9209314D01*
X13290437Y-9209314D01*
X13290437Y-9209313D01*
X13277884Y-9202066D01*
X13277884Y-9202066D01*
X13274925Y-9201273D01*
X13263883Y-9198315D01*
X13249388Y-9198315D01*
X13243766Y-9199821D01*
X13235387Y-9202066D01*
X13222834Y-9209313D01*
X13212584Y-9219564D01*
X13205337Y-9232116D01*
X13201586Y-9246117D01*
X13034433Y-9246117D01*
X13023564Y-9240579D01*
X13006341Y-9234983D01*
X12988455Y-9232150D01*
X12988455Y-9232150D01*
X12970345Y-9232150D01*
X12970345Y-9232150D01*
X12952459Y-9234983D01*
X12935236Y-9240579D01*
X12919101Y-9248800D01*
X12911775Y-9254123D01*
X12904450Y-9259445D01*
X12891645Y-9272250D01*
X12889928Y-9274613D01*
X12881000Y-9286901D01*
X12872779Y-9303036D01*
X12867183Y-9320259D01*
X12864350Y-9338145D01*
X12864350Y-9356255D01*
X12867183Y-9374141D01*
X12872779Y-9391364D01*
X12881000Y-9407499D01*
X12881001Y-9407500D01*
X12881915Y-9408759D01*
X12883806Y-9414578D01*
X12881916Y-9420397D01*
X12876966Y-9423993D01*
X12870847Y-9423993D01*
X12868956Y-9423152D01*
X12861249Y-9418702D01*
X12854248Y-9416826D01*
X12847247Y-9414950D01*
X12832752Y-9414950D01*
X12826579Y-9416604D01*
X12818751Y-9418702D01*
X12806199Y-9425949D01*
X12795949Y-9436199D01*
X12788702Y-9448751D01*
X12785896Y-9459221D01*
X12784950Y-9462753D01*
X12640050Y-9462753D01*
X12640050Y-9084145D01*
X12864350Y-9084145D01*
X12864350Y-9102255D01*
X12867183Y-9120141D01*
X12872779Y-9137364D01*
X12877815Y-9147248D01*
X12881000Y-9153499D01*
X12891645Y-9168150D01*
X12904450Y-9180955D01*
X12919101Y-9191600D01*
X12935236Y-9199821D01*
X12952459Y-9205417D01*
X12959614Y-9206550D01*
X12970345Y-9208250D01*
X12970345Y-9208250D01*
X12988455Y-9208250D01*
X12997398Y-9206834D01*
X13006341Y-9205417D01*
X13023564Y-9199821D01*
X13039699Y-9191600D01*
X13054350Y-9180955D01*
X13067155Y-9168150D01*
X13077800Y-9153499D01*
X13086021Y-9137364D01*
X13091617Y-9120141D01*
X13094450Y-9102255D01*
X13094450Y-9084145D01*
X13094450Y-9084145D01*
X13094372Y-9083653D01*
X13094372Y-9083653D01*
X13094372Y-9083652D01*
X13094229Y-9082753D01*
X13199900Y-9082753D01*
X13199900Y-9097248D01*
X13202859Y-9108290D01*
X13203652Y-9111249D01*
X13210899Y-9123801D01*
X13210899Y-9123801D01*
X13210899Y-9123802D01*
X13221148Y-9134051D01*
X13221149Y-9134051D01*
X13221149Y-9134051D01*
X13233701Y-9141298D01*
X13233701Y-9141298D01*
X13233701Y-9141298D01*
X13247702Y-9145050D01*
X13247703Y-9145050D01*
X13262197Y-9145050D01*
X13262197Y-9145050D01*
X13276198Y-9141298D01*
X13276199Y-9141298D01*
X13276199Y-9141298D01*
X13288751Y-9134051D01*
X13288751Y-9134051D01*
X13288751Y-9134051D01*
X13290050Y-9132753D01*
X13344950Y-9132753D01*
X13344950Y-9147247D01*
X13348702Y-9161249D01*
X13355949Y-9173801D01*
X13355949Y-9173801D01*
X13355949Y-9173802D01*
X13366198Y-9184051D01*
X13366199Y-9184051D01*
X13366199Y-9184051D01*
X13378751Y-9191298D01*
X13378751Y-9191298D01*
X13378751Y-9191298D01*
X13392752Y-9195050D01*
X13392753Y-9195050D01*
X13407247Y-9195050D01*
X13407247Y-9195050D01*
X13421248Y-9191298D01*
X13421249Y-9191298D01*
X13421249Y-9191298D01*
X13433801Y-9184051D01*
X13433801Y-9184051D01*
X13433801Y-9184051D01*
X13444051Y-9173802D01*
X13447314Y-9168150D01*
X13451298Y-9161249D01*
X13451298Y-9161249D01*
X13451298Y-9161249D01*
X13455050Y-9147248D01*
X13455050Y-9134950D01*
X13456941Y-9129131D01*
X13461891Y-9125535D01*
X13464950Y-9125050D01*
X13467247Y-9125050D01*
X13467247Y-9125050D01*
X13481248Y-9121298D01*
X13481249Y-9121298D01*
X13481249Y-9121298D01*
X13493801Y-9114051D01*
X13493801Y-9114051D01*
X13493801Y-9114051D01*
X13504051Y-9103802D01*
X13511298Y-9091249D01*
X13513202Y-9084145D01*
X14388350Y-9084145D01*
X14388350Y-9102255D01*
X14391183Y-9120141D01*
X14396779Y-9137364D01*
X14401815Y-9147248D01*
X14405000Y-9153499D01*
X14415645Y-9168150D01*
X14428450Y-9180955D01*
X14443101Y-9191600D01*
X14459236Y-9199821D01*
X14476459Y-9205417D01*
X14483614Y-9206550D01*
X14494345Y-9208250D01*
X14494345Y-9208250D01*
X14512455Y-9208250D01*
X14521398Y-9206834D01*
X14530341Y-9205417D01*
X14547564Y-9199821D01*
X14563699Y-9191600D01*
X14578350Y-9180955D01*
X14591155Y-9168150D01*
X14601800Y-9153499D01*
X14610021Y-9137364D01*
X14615617Y-9120141D01*
X14618450Y-9102255D01*
X14618450Y-9084145D01*
X14618450Y-9084145D01*
X14616561Y-9072221D01*
X14615617Y-9066259D01*
X14610021Y-9049036D01*
X14601800Y-9032901D01*
X14591155Y-9018250D01*
X14578350Y-9005445D01*
X14563699Y-8994800D01*
X14563699Y-8994800D01*
X14563699Y-8994800D01*
X14547564Y-8986579D01*
X14530341Y-8980983D01*
X14512455Y-8978150D01*
X14512455Y-8978150D01*
X14494345Y-8978150D01*
X14494345Y-8978150D01*
X14476459Y-8980983D01*
X14459236Y-8986579D01*
X14443101Y-8994800D01*
X14435775Y-9000123D01*
X14428450Y-9005445D01*
X14415645Y-9018250D01*
X14410322Y-9025575D01*
X14405000Y-9032901D01*
X14396779Y-9049036D01*
X14391183Y-9066259D01*
X14388350Y-9084145D01*
X13513202Y-9084145D01*
X13513334Y-9083653D01*
X13513992Y-9081194D01*
X13513992Y-9081194D01*
X13515050Y-9077247D01*
X13515050Y-9062753D01*
X13513294Y-9056199D01*
X13511298Y-9048752D01*
X13511298Y-9048751D01*
X13511298Y-9048751D01*
X13504051Y-9036199D01*
X13504051Y-9036199D01*
X13504051Y-9036199D01*
X13493801Y-9025949D01*
X13493801Y-9025949D01*
X13493801Y-9025949D01*
X13481249Y-9018702D01*
X13481249Y-9018702D01*
X13478290Y-9017909D01*
X13467247Y-9014950D01*
X13452752Y-9014950D01*
X13446579Y-9016604D01*
X13438751Y-9018702D01*
X13426199Y-9025949D01*
X13415949Y-9036199D01*
X13408702Y-9048751D01*
X13404950Y-9062753D01*
X13404950Y-9075050D01*
X13403059Y-9080869D01*
X13398109Y-9084466D01*
X13395050Y-9084950D01*
X13392752Y-9084950D01*
X13386579Y-9086604D01*
X13378751Y-9088702D01*
X13366199Y-9095949D01*
X13355949Y-9106199D01*
X13348702Y-9118751D01*
X13344950Y-9132753D01*
X13290050Y-9132753D01*
X13299001Y-9123802D01*
X13304630Y-9114051D01*
X13306248Y-9111249D01*
X13306248Y-9111249D01*
X13306248Y-9111249D01*
X13310000Y-9097248D01*
X13310000Y-9082753D01*
X13306248Y-9068752D01*
X13306248Y-9068751D01*
X13306248Y-9068751D01*
X13299001Y-9056199D01*
X13299001Y-9056199D01*
X13299001Y-9056199D01*
X13288751Y-9045949D01*
X13288751Y-9045949D01*
X13288751Y-9045949D01*
X13276199Y-9038702D01*
X13276199Y-9038702D01*
X13273240Y-9037909D01*
X13262197Y-9034950D01*
X13247702Y-9034950D01*
X13243043Y-9036199D01*
X13233701Y-9038702D01*
X13221149Y-9045949D01*
X13210899Y-9056199D01*
X13203652Y-9068751D01*
X13203652Y-9068752D01*
X13199900Y-9082753D01*
X13094229Y-9082753D01*
X13093009Y-9075050D01*
X13091617Y-9066259D01*
X13086021Y-9049036D01*
X13077800Y-9032901D01*
X13067155Y-9018250D01*
X13054350Y-9005445D01*
X13039699Y-8994800D01*
X13039699Y-8994800D01*
X13039699Y-8994800D01*
X13023564Y-8986579D01*
X13006341Y-8980983D01*
X12988455Y-8978150D01*
X12988455Y-8978150D01*
X12970345Y-8978150D01*
X12970345Y-8978150D01*
X12952459Y-8980983D01*
X12935236Y-8986579D01*
X12919101Y-8994800D01*
X12911775Y-9000123D01*
X12904450Y-9005445D01*
X12891645Y-9018250D01*
X12886322Y-9025575D01*
X12881000Y-9032901D01*
X12872779Y-9049036D01*
X12867183Y-9066259D01*
X12864350Y-9084145D01*
X12640050Y-9084145D01*
X12640050Y-8830145D01*
X12864350Y-8830145D01*
X12864350Y-8848255D01*
X12867183Y-8866141D01*
X12872779Y-8883364D01*
X12876822Y-8891298D01*
X12881000Y-8899499D01*
X12891645Y-8914150D01*
X12904450Y-8926955D01*
X12919101Y-8937600D01*
X12935236Y-8945821D01*
X12952459Y-8951417D01*
X12959614Y-8952550D01*
X12970345Y-8954250D01*
X12970345Y-8954250D01*
X12988455Y-8954250D01*
X12997398Y-8952834D01*
X13006341Y-8951417D01*
X13023564Y-8945821D01*
X13039699Y-8937600D01*
X13054350Y-8926955D01*
X13058553Y-8922753D01*
X13249850Y-8922753D01*
X13249850Y-8937248D01*
X13249944Y-8937600D01*
X13253602Y-8951249D01*
X13260849Y-8963801D01*
X13260849Y-8963801D01*
X13260849Y-8963802D01*
X13271098Y-8974051D01*
X13271099Y-8974051D01*
X13271099Y-8974051D01*
X13283651Y-8981298D01*
X13283651Y-8981298D01*
X13283651Y-8981298D01*
X13297652Y-8985050D01*
X13297653Y-8985050D01*
X13312147Y-8985050D01*
X13312147Y-8985050D01*
X13326148Y-8981298D01*
X13326149Y-8981298D01*
X13326149Y-8981298D01*
X13338701Y-8974051D01*
X13338701Y-8974051D01*
X13338701Y-8974051D01*
X13348951Y-8963802D01*
X13356198Y-8951249D01*
X13359950Y-8937248D01*
X13359950Y-8922753D01*
X13356198Y-8908752D01*
X13356198Y-8908751D01*
X13356198Y-8908751D01*
X13348951Y-8896199D01*
X13348951Y-8896199D01*
X13348951Y-8896199D01*
X13341923Y-8889171D01*
X13339145Y-8883719D01*
X13340103Y-8877676D01*
X13344429Y-8873350D01*
X13346360Y-8872608D01*
X13351248Y-8871298D01*
X13363801Y-8864051D01*
X13374051Y-8853802D01*
X13376967Y-8848751D01*
X13381298Y-8841249D01*
X13381298Y-8841249D01*
X13381298Y-8841249D01*
X13383575Y-8832753D01*
X13484950Y-8832753D01*
X13484950Y-8847248D01*
X13485353Y-8848751D01*
X13488702Y-8861249D01*
X13495949Y-8873801D01*
X13495949Y-8873801D01*
X13495949Y-8873802D01*
X13506198Y-8884051D01*
X13506199Y-8884051D01*
X13506199Y-8884051D01*
X13518751Y-8891298D01*
X13518751Y-8891298D01*
X13518751Y-8891298D01*
X13532752Y-8895050D01*
X13532753Y-8895050D01*
X13547247Y-8895050D01*
X13547247Y-8895050D01*
X13561248Y-8891298D01*
X13561249Y-8891298D01*
X13561249Y-8891298D01*
X13573801Y-8884051D01*
X13573801Y-8884051D01*
X13573801Y-8884051D01*
X13584051Y-8873802D01*
X13585496Y-8871298D01*
X13590430Y-8862753D01*
X13934950Y-8862753D01*
X13934950Y-8877248D01*
X13936589Y-8883364D01*
X13938702Y-8891249D01*
X13945949Y-8903801D01*
X13945949Y-8903801D01*
X13945949Y-8903802D01*
X13956198Y-8914051D01*
X13956199Y-8914051D01*
X13956199Y-8914051D01*
X13968751Y-8921298D01*
X13968751Y-8921298D01*
X13968751Y-8921298D01*
X13982752Y-8925050D01*
X13982753Y-8925050D01*
X13997247Y-8925050D01*
X13997247Y-8925050D01*
X14011248Y-8921298D01*
X14011249Y-8921298D01*
X14011249Y-8921298D01*
X14023801Y-8914051D01*
X14023801Y-8914051D01*
X14023801Y-8914051D01*
X14034051Y-8903802D01*
X14041298Y-8891249D01*
X14045050Y-8877248D01*
X14045050Y-8862753D01*
X14041298Y-8848752D01*
X14041298Y-8848751D01*
X14041298Y-8848751D01*
X14034051Y-8836199D01*
X14034051Y-8836199D01*
X14034051Y-8836199D01*
X14034051Y-8836199D01*
X14027997Y-8830145D01*
X14388350Y-8830145D01*
X14388350Y-8848255D01*
X14391183Y-8866141D01*
X14396779Y-8883364D01*
X14400822Y-8891298D01*
X14405000Y-8899499D01*
X14415645Y-8914150D01*
X14428450Y-8926955D01*
X14443101Y-8937600D01*
X14459236Y-8945821D01*
X14476459Y-8951417D01*
X14483614Y-8952550D01*
X14494345Y-8954250D01*
X14494345Y-8954250D01*
X14512455Y-8954250D01*
X14521398Y-8952834D01*
X14530341Y-8951417D01*
X14547564Y-8945821D01*
X14563699Y-8937600D01*
X14578350Y-8926955D01*
X14591155Y-8914150D01*
X14601800Y-8899499D01*
X14610021Y-8883364D01*
X14615617Y-8866141D01*
X14617571Y-8853802D01*
X14618450Y-8848255D01*
X14618450Y-8830145D01*
X14615617Y-8812259D01*
X14615617Y-8812259D01*
X14610021Y-8795036D01*
X14601800Y-8778901D01*
X14591155Y-8764250D01*
X14578350Y-8751445D01*
X14563699Y-8740800D01*
X14563699Y-8740800D01*
X14563699Y-8740800D01*
X14547564Y-8732579D01*
X14530341Y-8726983D01*
X14512455Y-8724150D01*
X14512455Y-8724150D01*
X14494345Y-8724150D01*
X14494345Y-8724150D01*
X14476459Y-8726983D01*
X14459236Y-8732579D01*
X14443101Y-8740800D01*
X14435775Y-8746123D01*
X14428450Y-8751445D01*
X14415645Y-8764250D01*
X14415136Y-8764950D01*
X14405000Y-8778901D01*
X14396779Y-8795036D01*
X14391183Y-8812259D01*
X14388350Y-8830145D01*
X14027997Y-8830145D01*
X14023801Y-8825949D01*
X14023801Y-8825949D01*
X14023801Y-8825949D01*
X14011249Y-8818702D01*
X14011249Y-8818702D01*
X14008290Y-8817909D01*
X13997247Y-8814950D01*
X13982752Y-8814950D01*
X13976579Y-8816604D01*
X13968751Y-8818702D01*
X13956199Y-8825949D01*
X13945949Y-8836199D01*
X13938702Y-8848751D01*
X13938702Y-8848752D01*
X13934950Y-8862753D01*
X13590430Y-8862753D01*
X13591298Y-8861249D01*
X13591298Y-8861249D01*
X13591298Y-8861249D01*
X13595050Y-8847248D01*
X13595050Y-8832753D01*
X13591298Y-8818752D01*
X13591298Y-8818751D01*
X13591298Y-8818751D01*
X13584051Y-8806199D01*
X13584051Y-8806199D01*
X13584051Y-8806199D01*
X13573801Y-8795949D01*
X13573801Y-8795949D01*
X13573801Y-8795949D01*
X13561249Y-8788702D01*
X13561249Y-8788702D01*
X13558290Y-8787909D01*
X13547247Y-8784950D01*
X13532752Y-8784950D01*
X13528093Y-8786199D01*
X13518751Y-8788702D01*
X13506199Y-8795949D01*
X13495949Y-8806199D01*
X13488702Y-8818751D01*
X13488702Y-8818752D01*
X13484950Y-8832753D01*
X13383575Y-8832753D01*
X13385050Y-8827248D01*
X13385050Y-8812753D01*
X13381298Y-8798752D01*
X13381298Y-8798751D01*
X13381298Y-8798751D01*
X13374051Y-8786199D01*
X13374051Y-8786199D01*
X13374051Y-8786199D01*
X13363801Y-8775949D01*
X13363801Y-8775949D01*
X13363801Y-8775949D01*
X13351249Y-8768702D01*
X13351249Y-8768702D01*
X13348290Y-8767909D01*
X13337247Y-8764950D01*
X13322752Y-8764950D01*
X13316579Y-8766604D01*
X13308751Y-8768702D01*
X13296199Y-8775949D01*
X13285949Y-8786199D01*
X13278702Y-8798751D01*
X13275082Y-8812259D01*
X13274950Y-8812753D01*
X13274950Y-8827248D01*
X13277349Y-8836199D01*
X13278702Y-8841249D01*
X13285949Y-8853801D01*
X13285949Y-8853801D01*
X13285949Y-8853802D01*
X13292977Y-8860829D01*
X13295754Y-8866281D01*
X13294797Y-8872324D01*
X13290471Y-8876650D01*
X13288539Y-8877392D01*
X13283651Y-8878702D01*
X13283651Y-8878702D01*
X13271099Y-8885949D01*
X13260849Y-8896199D01*
X13253602Y-8908751D01*
X13253602Y-8908752D01*
X13249850Y-8922753D01*
X13058553Y-8922753D01*
X13067155Y-8914150D01*
X13077800Y-8899499D01*
X13086021Y-8883364D01*
X13091617Y-8866141D01*
X13093571Y-8853802D01*
X13094450Y-8848255D01*
X13094450Y-8830145D01*
X13091617Y-8812259D01*
X13091617Y-8812259D01*
X13086021Y-8795036D01*
X13077800Y-8778901D01*
X13067155Y-8764250D01*
X13054350Y-8751445D01*
X13039699Y-8740800D01*
X13039699Y-8740800D01*
X13039699Y-8740800D01*
X13023564Y-8732579D01*
X13006341Y-8726983D01*
X12988455Y-8724150D01*
X12988455Y-8724150D01*
X12970345Y-8724150D01*
X12970345Y-8724150D01*
X12952459Y-8726983D01*
X12935236Y-8732579D01*
X12919101Y-8740800D01*
X12911775Y-8746123D01*
X12904450Y-8751445D01*
X12891645Y-8764250D01*
X12891136Y-8764950D01*
X12881000Y-8778901D01*
X12872779Y-8795036D01*
X12867183Y-8812259D01*
X12864350Y-8830145D01*
X12640050Y-8830145D01*
X12640050Y-8576145D01*
X12864350Y-8576145D01*
X12864350Y-8594255D01*
X12867183Y-8612141D01*
X12872779Y-8629364D01*
X12877562Y-8638752D01*
X12881000Y-8645499D01*
X12891645Y-8660150D01*
X12904450Y-8672955D01*
X12919101Y-8683600D01*
X12935236Y-8691821D01*
X12952459Y-8697417D01*
X12959614Y-8698550D01*
X12970345Y-8700250D01*
X12970345Y-8700250D01*
X12988455Y-8700250D01*
X12997916Y-8698752D01*
X13006341Y-8697417D01*
X13023564Y-8691821D01*
X13039699Y-8683600D01*
X13054350Y-8672955D01*
X13067155Y-8660150D01*
X13072530Y-8652753D01*
X13804950Y-8652753D01*
X13804950Y-8667247D01*
X13808702Y-8681249D01*
X13810896Y-8685050D01*
X13812168Y-8691035D01*
X13810896Y-8694950D01*
X13808702Y-8698751D01*
X13804950Y-8712753D01*
X13804950Y-8727247D01*
X13808702Y-8741249D01*
X13815949Y-8753801D01*
X13815949Y-8753801D01*
X13815949Y-8753802D01*
X13826198Y-8764051D01*
X13826199Y-8764051D01*
X13826199Y-8764051D01*
X13838751Y-8771298D01*
X13838751Y-8771298D01*
X13838751Y-8771298D01*
X13852752Y-8775050D01*
X13852753Y-8775050D01*
X13867247Y-8775050D01*
X13867247Y-8775050D01*
X13881248Y-8771298D01*
X13881249Y-8771298D01*
X13881249Y-8771298D01*
X13893801Y-8764051D01*
X13893801Y-8764051D01*
X13893801Y-8764051D01*
X13904051Y-8753802D01*
X13911298Y-8741249D01*
X13915050Y-8727248D01*
X13915050Y-8712753D01*
X13911298Y-8698752D01*
X13909103Y-8694950D01*
X13907831Y-8688965D01*
X13909103Y-8685050D01*
X13911298Y-8681249D01*
X13915050Y-8667248D01*
X13915050Y-8652753D01*
X13911298Y-8638752D01*
X13911298Y-8638751D01*
X13911298Y-8638751D01*
X13904051Y-8626199D01*
X13904051Y-8626199D01*
X13904051Y-8626199D01*
X13893801Y-8615949D01*
X13893801Y-8615949D01*
X13893801Y-8615949D01*
X13881249Y-8608702D01*
X13881249Y-8608702D01*
X13878290Y-8607909D01*
X13867247Y-8604950D01*
X13852752Y-8604950D01*
X13846579Y-8606604D01*
X13838751Y-8608702D01*
X13826199Y-8615949D01*
X13815949Y-8626199D01*
X13808702Y-8638751D01*
X13804950Y-8652753D01*
X13072530Y-8652753D01*
X13077800Y-8645499D01*
X13086021Y-8629364D01*
X13091617Y-8612141D01*
X13094450Y-8594255D01*
X13094450Y-8576145D01*
X13094450Y-8576145D01*
X13092125Y-8561467D01*
X13091617Y-8558259D01*
X13086021Y-8541036D01*
X13077800Y-8524901D01*
X13069584Y-8513593D01*
X13874950Y-8513593D01*
X13874950Y-8526407D01*
X13877450Y-8538974D01*
X13877450Y-8538975D01*
X13882353Y-8550813D01*
X13882354Y-8550813D01*
X13886636Y-8557223D01*
X13889472Y-8561467D01*
X13898533Y-8570528D01*
X13904885Y-8574772D01*
X13909187Y-8577646D01*
X13909187Y-8577646D01*
X13909187Y-8577647D01*
X13921026Y-8582550D01*
X13933593Y-8585050D01*
X13933593Y-8585050D01*
X13946407Y-8585050D01*
X13946407Y-8585050D01*
X13958974Y-8582550D01*
X13970813Y-8577647D01*
X13981467Y-8570528D01*
X13990528Y-8561467D01*
X13997646Y-8550813D01*
X14002550Y-8538974D01*
X14005050Y-8526407D01*
X14005050Y-8513593D01*
X14002550Y-8501026D01*
X13997646Y-8489187D01*
X13997646Y-8489187D01*
X13997646Y-8489187D01*
X13992342Y-8481249D01*
X13990528Y-8478533D01*
X13981467Y-8469472D01*
X13977223Y-8466637D01*
X13970813Y-8462354D01*
X13970812Y-8462353D01*
X13958975Y-8457450D01*
X13958974Y-8457450D01*
X13958974Y-8457450D01*
X13946407Y-8454950D01*
X13933593Y-8454950D01*
X13933593Y-8454950D01*
X13927309Y-8456200D01*
X13921026Y-8457450D01*
X13921025Y-8457450D01*
X13921025Y-8457450D01*
X13909187Y-8462353D01*
X13909187Y-8462354D01*
X13898533Y-8469472D01*
X13898533Y-8469473D01*
X13889473Y-8478533D01*
X13889472Y-8478533D01*
X13882354Y-8489187D01*
X13882353Y-8489187D01*
X13877450Y-8501025D01*
X13877450Y-8501026D01*
X13874950Y-8513593D01*
X13069584Y-8513593D01*
X13067155Y-8510250D01*
X13054350Y-8497445D01*
X13039699Y-8486800D01*
X13039699Y-8486800D01*
X13039699Y-8486800D01*
X13023564Y-8478579D01*
X13006341Y-8472983D01*
X12988455Y-8470150D01*
X12988455Y-8470150D01*
X12970345Y-8470150D01*
X12970345Y-8470150D01*
X12952459Y-8472983D01*
X12935236Y-8478579D01*
X12919101Y-8486800D01*
X12911775Y-8492123D01*
X12904450Y-8497445D01*
X12891645Y-8510250D01*
X12887124Y-8516473D01*
X12881000Y-8524901D01*
X12872779Y-8541036D01*
X12867183Y-8558259D01*
X12864350Y-8576145D01*
X12640050Y-8576145D01*
X12640050Y-8473593D01*
X12734950Y-8473593D01*
X12734950Y-8486407D01*
X12737146Y-8497445D01*
X12737450Y-8498974D01*
X12737450Y-8498975D01*
X12742353Y-8510813D01*
X12742354Y-8510813D01*
X12746636Y-8517223D01*
X12749472Y-8521467D01*
X12758533Y-8530528D01*
X12764885Y-8534772D01*
X12769187Y-8537646D01*
X12769187Y-8537646D01*
X12769187Y-8537647D01*
X12781026Y-8542550D01*
X12793593Y-8545050D01*
X12793593Y-8545050D01*
X12806407Y-8545050D01*
X12806407Y-8545050D01*
X12818974Y-8542550D01*
X12830813Y-8537647D01*
X12841467Y-8530528D01*
X12850528Y-8521467D01*
X12857646Y-8510813D01*
X12862550Y-8498974D01*
X12865050Y-8486407D01*
X12865050Y-8473593D01*
X12862550Y-8461026D01*
X12857646Y-8449187D01*
X12857646Y-8449187D01*
X12857646Y-8449187D01*
X12853791Y-8443417D01*
X12850528Y-8438533D01*
X12841467Y-8429472D01*
X12836567Y-8426199D01*
X12830813Y-8422354D01*
X12830812Y-8422353D01*
X12818975Y-8417450D01*
X12818974Y-8417450D01*
X12818974Y-8417450D01*
X12806407Y-8414950D01*
X12793593Y-8414950D01*
X12793593Y-8414950D01*
X12788572Y-8415949D01*
X12781026Y-8417450D01*
X12781025Y-8417450D01*
X12781025Y-8417450D01*
X12769187Y-8422353D01*
X12769187Y-8422354D01*
X12758533Y-8429472D01*
X12758533Y-8429473D01*
X12749473Y-8438533D01*
X12749472Y-8438533D01*
X12742354Y-8449187D01*
X12742353Y-8449187D01*
X12737450Y-8461025D01*
X12737450Y-8461026D01*
X12737450Y-8461026D01*
X12734950Y-8473593D01*
X12640050Y-8473593D01*
X12640050Y-8202752D01*
X12784950Y-8202752D01*
X12784950Y-8217247D01*
X12788702Y-8231249D01*
X12795949Y-8243801D01*
X12795949Y-8243801D01*
X12795949Y-8243801D01*
X12806198Y-8254051D01*
X12806199Y-8254051D01*
X12806199Y-8254051D01*
X12818751Y-8261298D01*
X12818751Y-8261298D01*
X12818751Y-8261298D01*
X12832752Y-8265050D01*
X12832753Y-8265050D01*
X12847247Y-8265050D01*
X12847247Y-8265050D01*
X12861248Y-8261298D01*
X12867220Y-8257851D01*
X12873205Y-8256578D01*
X12878794Y-8259067D01*
X12881854Y-8264366D01*
X12881214Y-8270451D01*
X12880991Y-8270919D01*
X12872779Y-8287036D01*
X12867183Y-8304259D01*
X12864350Y-8322145D01*
X12864350Y-8340255D01*
X12867183Y-8358141D01*
X12868209Y-8361298D01*
X12872779Y-8375364D01*
X12881000Y-8391499D01*
X12891645Y-8406150D01*
X12904450Y-8418955D01*
X12919101Y-8429600D01*
X12935236Y-8437821D01*
X12952459Y-8443417D01*
X12959614Y-8444550D01*
X12970345Y-8446250D01*
X12970345Y-8446250D01*
X12988455Y-8446250D01*
X12997398Y-8444834D01*
X13006341Y-8443417D01*
X13023564Y-8437821D01*
X13039699Y-8429600D01*
X13054350Y-8418955D01*
X13067155Y-8406150D01*
X13077800Y-8391499D01*
X13086021Y-8375364D01*
X13091617Y-8358141D01*
X13093849Y-8344051D01*
X13094450Y-8340255D01*
X13094450Y-8322145D01*
X13091617Y-8304259D01*
X13091617Y-8304259D01*
X13086021Y-8287036D01*
X13077800Y-8270901D01*
X13067155Y-8256250D01*
X13054350Y-8243445D01*
X13039699Y-8232800D01*
X13039699Y-8232800D01*
X13039699Y-8232800D01*
X13023564Y-8224579D01*
X13006341Y-8218983D01*
X12988455Y-8216150D01*
X12988455Y-8216150D01*
X12970345Y-8216150D01*
X12970345Y-8216150D01*
X12952459Y-8218983D01*
X12935236Y-8224579D01*
X12919101Y-8232800D01*
X12914960Y-8235809D01*
X12906678Y-8241825D01*
X12900860Y-8243716D01*
X12895040Y-8241825D01*
X12891444Y-8236875D01*
X12891297Y-8231254D01*
X12891298Y-8231249D01*
X12891298Y-8231248D01*
X12895050Y-8217247D01*
X12895050Y-8202752D01*
X12891298Y-8188751D01*
X12891298Y-8188751D01*
X12891298Y-8188751D01*
X12884051Y-8176199D01*
X12884051Y-8176199D01*
X12884051Y-8176198D01*
X12873801Y-8165949D01*
X12873801Y-8165949D01*
X12873801Y-8165949D01*
X12861249Y-8158702D01*
X12861249Y-8158702D01*
X12858290Y-8157909D01*
X12847247Y-8154950D01*
X12832752Y-8154950D01*
X12826579Y-8156604D01*
X12818751Y-8158702D01*
X12806199Y-8165949D01*
X12795949Y-8176199D01*
X12788702Y-8188751D01*
X12784950Y-8202752D01*
X12640050Y-8202752D01*
X12640050Y-8068145D01*
X12864350Y-8068145D01*
X12864350Y-8086255D01*
X12867183Y-8104141D01*
X12872779Y-8121364D01*
X12878376Y-8132350D01*
X12881000Y-8137499D01*
X12891645Y-8152150D01*
X12904450Y-8164955D01*
X12919101Y-8175600D01*
X12935236Y-8183821D01*
X12952459Y-8189417D01*
X12959614Y-8190550D01*
X12970345Y-8192250D01*
X12970345Y-8192250D01*
X12988455Y-8192250D01*
X12997398Y-8190833D01*
X13006341Y-8189417D01*
X13023564Y-8183821D01*
X13039699Y-8175600D01*
X13054350Y-8164955D01*
X13067155Y-8152150D01*
X13077800Y-8137499D01*
X13086021Y-8121364D01*
X13091617Y-8104141D01*
X13094450Y-8086255D01*
X13094450Y-8068145D01*
X13094450Y-8068145D01*
X13091617Y-8050259D01*
X13091617Y-8050259D01*
X13086021Y-8033036D01*
X13077800Y-8016901D01*
X13067155Y-8002250D01*
X13056021Y-7991115D01*
X13237950Y-7991115D01*
X13237950Y-8116884D01*
X13241026Y-8132350D01*
X13241026Y-8132350D01*
X13247060Y-8146917D01*
X13247061Y-8146918D01*
X13250468Y-8152018D01*
X13255821Y-8160029D01*
X13266971Y-8171179D01*
X13273587Y-8175600D01*
X13280081Y-8179939D01*
X13280082Y-8179939D01*
X13280082Y-8179939D01*
X13281944Y-8180711D01*
X13286597Y-8184684D01*
X13288025Y-8190634D01*
X13287719Y-8192419D01*
X13284950Y-8202752D01*
X13284950Y-8217247D01*
X13288702Y-8231249D01*
X13295949Y-8243801D01*
X13295949Y-8243801D01*
X13295949Y-8243801D01*
X13306198Y-8254051D01*
X13306199Y-8254051D01*
X13306199Y-8254051D01*
X13318751Y-8261298D01*
X13318751Y-8261298D01*
X13318751Y-8261298D01*
X13332752Y-8265050D01*
X13332753Y-8265050D01*
X13347247Y-8265050D01*
X13347247Y-8265050D01*
X13361248Y-8261298D01*
X13361249Y-8261298D01*
X13361249Y-8261298D01*
X13370050Y-8256217D01*
X13376035Y-8254945D01*
X13379951Y-8256217D01*
X13380199Y-8256360D01*
X13384292Y-8260908D01*
X13384931Y-8266993D01*
X13383821Y-8269884D01*
X13378702Y-8278751D01*
X13374950Y-8292752D01*
X13374950Y-8307247D01*
X13378702Y-8321249D01*
X13385949Y-8333801D01*
X13385949Y-8333801D01*
X13385949Y-8333801D01*
X13396198Y-8344051D01*
X13396199Y-8344051D01*
X13396199Y-8344051D01*
X13408751Y-8351298D01*
X13408751Y-8351298D01*
X13408751Y-8351298D01*
X13422752Y-8355050D01*
X13422753Y-8355050D01*
X13437247Y-8355050D01*
X13437247Y-8355050D01*
X13451248Y-8351298D01*
X13451249Y-8351298D01*
X13451249Y-8351298D01*
X13463801Y-8344051D01*
X13463801Y-8344051D01*
X13463801Y-8344051D01*
X13474051Y-8333801D01*
X13475525Y-8331249D01*
X13481298Y-8321249D01*
X13481298Y-8321249D01*
X13481298Y-8321248D01*
X13485050Y-8307247D01*
X13485050Y-8298552D01*
X13904950Y-8298552D01*
X13904950Y-8313047D01*
X13906597Y-8319194D01*
X13908702Y-8327049D01*
X13915949Y-8339601D01*
X13915949Y-8339601D01*
X13915949Y-8339601D01*
X13926198Y-8349851D01*
X13926199Y-8349851D01*
X13926199Y-8349851D01*
X13938751Y-8357098D01*
X13938751Y-8357098D01*
X13938751Y-8357098D01*
X13952752Y-8360850D01*
X13952753Y-8360850D01*
X13967247Y-8360850D01*
X13967247Y-8360850D01*
X13981248Y-8357098D01*
X13981249Y-8357098D01*
X13981249Y-8357098D01*
X13993801Y-8349851D01*
X13993801Y-8349851D01*
X13993801Y-8349851D01*
X14004051Y-8339601D01*
X14004051Y-8339601D01*
X14011298Y-8327049D01*
X14011298Y-8327049D01*
X14011298Y-8327048D01*
X14015050Y-8313047D01*
X14015050Y-8298552D01*
X14011298Y-8284551D01*
X14011298Y-8284551D01*
X14011298Y-8284551D01*
X14004051Y-8271999D01*
X14004051Y-8271999D01*
X14004051Y-8271998D01*
X13993801Y-8261749D01*
X13993801Y-8261749D01*
X13993801Y-8261749D01*
X13981249Y-8254502D01*
X13981249Y-8254502D01*
X13978033Y-8253640D01*
X13967247Y-8250750D01*
X13952752Y-8250750D01*
X13946579Y-8252404D01*
X13938751Y-8254502D01*
X13926199Y-8261749D01*
X13915949Y-8271999D01*
X13908702Y-8284551D01*
X13908702Y-8284551D01*
X13904950Y-8298552D01*
X13485050Y-8298552D01*
X13485050Y-8292752D01*
X13481298Y-8278751D01*
X13481298Y-8278751D01*
X13481298Y-8278751D01*
X13474051Y-8266199D01*
X13474051Y-8266199D01*
X13474051Y-8266198D01*
X13463801Y-8255949D01*
X13459802Y-8253640D01*
X13455708Y-8249093D01*
X13455068Y-8243008D01*
X13456178Y-8240116D01*
X13461298Y-8231248D01*
X13465050Y-8217247D01*
X13465050Y-8202752D01*
X13461298Y-8188751D01*
X13461298Y-8188751D01*
X13461298Y-8188751D01*
X13454051Y-8176199D01*
X13454051Y-8176199D01*
X13454051Y-8176198D01*
X13443801Y-8165949D01*
X13443801Y-8165949D01*
X13443801Y-8165949D01*
X13431249Y-8158702D01*
X13431249Y-8158702D01*
X13428290Y-8157909D01*
X13417247Y-8154950D01*
X13402752Y-8154950D01*
X13402109Y-8155035D01*
X13402089Y-8154880D01*
X13396752Y-8154600D01*
X13391998Y-8150749D01*
X13390415Y-8144838D01*
X13391155Y-8141569D01*
X13394974Y-8132350D01*
X13398050Y-8116884D01*
X13398050Y-8044339D01*
X13399941Y-8038520D01*
X13404891Y-8034923D01*
X13411009Y-8034923D01*
X13414950Y-8037338D01*
X13425663Y-8048051D01*
X13425664Y-8048052D01*
X13425664Y-8048052D01*
X13438786Y-8055628D01*
X13438786Y-8055628D01*
X13438786Y-8055628D01*
X13438786Y-8055628D01*
X13453423Y-8059550D01*
X13453424Y-8059550D01*
X13468576Y-8059550D01*
X13468577Y-8059550D01*
X13483213Y-8055628D01*
X13483214Y-8055628D01*
X13483214Y-8055628D01*
X13496336Y-8048052D01*
X13496336Y-8048052D01*
X13496336Y-8048051D01*
X13507051Y-8037336D01*
X13509534Y-8033036D01*
X13514628Y-8024214D01*
X13514628Y-8024214D01*
X13514628Y-8024213D01*
X13518550Y-8009577D01*
X13518550Y-7994423D01*
X13981450Y-7994423D01*
X13981450Y-8009577D01*
X13983412Y-8016901D01*
X13985372Y-8024214D01*
X13992948Y-8037336D01*
X13992948Y-8037336D01*
X13992948Y-8037336D01*
X14003663Y-8048051D01*
X14003664Y-8048052D01*
X14003664Y-8048052D01*
X14016786Y-8055628D01*
X14016786Y-8055628D01*
X14016786Y-8055628D01*
X14016786Y-8055628D01*
X14031423Y-8059550D01*
X14031424Y-8059550D01*
X14046576Y-8059550D01*
X14046577Y-8059550D01*
X14061213Y-8055628D01*
X14061214Y-8055628D01*
X14061214Y-8055628D01*
X14074336Y-8048052D01*
X14074336Y-8048052D01*
X14074336Y-8048051D01*
X14085050Y-8037338D01*
X14090501Y-8034561D01*
X14096544Y-8035518D01*
X14100871Y-8039844D01*
X14101950Y-8044339D01*
X14101950Y-8116884D01*
X14105026Y-8132350D01*
X14105026Y-8132350D01*
X14111060Y-8146917D01*
X14111061Y-8146918D01*
X14114468Y-8152018D01*
X14119821Y-8160029D01*
X14119821Y-8160029D01*
X14128969Y-8169177D01*
X14131747Y-8174629D01*
X14130790Y-8180672D01*
X14128970Y-8183178D01*
X14125949Y-8186199D01*
X14118702Y-8198751D01*
X14114950Y-8212752D01*
X14114950Y-8227247D01*
X14118702Y-8241249D01*
X14125949Y-8253801D01*
X14125949Y-8253801D01*
X14125949Y-8253801D01*
X14136198Y-8264051D01*
X14136199Y-8264051D01*
X14136199Y-8264051D01*
X14148751Y-8271298D01*
X14148751Y-8271298D01*
X14148751Y-8271298D01*
X14162752Y-8275050D01*
X14162753Y-8275050D01*
X14177248Y-8275050D01*
X14177248Y-8275050D01*
X14188900Y-8271928D01*
X14195010Y-8272248D01*
X14199765Y-8276098D01*
X14201349Y-8282008D01*
X14200036Y-8286440D01*
X14198702Y-8288751D01*
X14198702Y-8288751D01*
X14198702Y-8288751D01*
X14194950Y-8302752D01*
X14194950Y-8317247D01*
X14195472Y-8319194D01*
X14198702Y-8331249D01*
X14205949Y-8343801D01*
X14205949Y-8343801D01*
X14205949Y-8343801D01*
X14216198Y-8354051D01*
X14216199Y-8354051D01*
X14216199Y-8354051D01*
X14228751Y-8361298D01*
X14228751Y-8361298D01*
X14228751Y-8361298D01*
X14242752Y-8365050D01*
X14242753Y-8365050D01*
X14257247Y-8365050D01*
X14257247Y-8365050D01*
X14271248Y-8361298D01*
X14271249Y-8361298D01*
X14271249Y-8361298D01*
X14283801Y-8354051D01*
X14283801Y-8354051D01*
X14283801Y-8354051D01*
X14294051Y-8343801D01*
X14301298Y-8331248D01*
X14303738Y-8322145D01*
X14388350Y-8322145D01*
X14388350Y-8340255D01*
X14391183Y-8358141D01*
X14392209Y-8361298D01*
X14396779Y-8375364D01*
X14405000Y-8391499D01*
X14415645Y-8406150D01*
X14428450Y-8418955D01*
X14443101Y-8429600D01*
X14459236Y-8437821D01*
X14476459Y-8443417D01*
X14483614Y-8444550D01*
X14494345Y-8446250D01*
X14494345Y-8446250D01*
X14512455Y-8446250D01*
X14521398Y-8444834D01*
X14530341Y-8443417D01*
X14547564Y-8437821D01*
X14563699Y-8429600D01*
X14578189Y-8419073D01*
X14584007Y-8417182D01*
X14589826Y-8419073D01*
X14593423Y-8424023D01*
X14593423Y-8430141D01*
X14592581Y-8432032D01*
X14588702Y-8438751D01*
X14588702Y-8438752D01*
X14584950Y-8452753D01*
X14584950Y-8467248D01*
X14587909Y-8478290D01*
X14588702Y-8481249D01*
X14589001Y-8481767D01*
X14590273Y-8487752D01*
X14587784Y-8493341D01*
X14582485Y-8496400D01*
X14576400Y-8495761D01*
X14574608Y-8494726D01*
X14563699Y-8486800D01*
X14563699Y-8486800D01*
X14563699Y-8486800D01*
X14547564Y-8478579D01*
X14530341Y-8472983D01*
X14512455Y-8470150D01*
X14512455Y-8470150D01*
X14494345Y-8470150D01*
X14494345Y-8470150D01*
X14476459Y-8472983D01*
X14459236Y-8478579D01*
X14443101Y-8486800D01*
X14435775Y-8492123D01*
X14428450Y-8497445D01*
X14415645Y-8510250D01*
X14411124Y-8516473D01*
X14405000Y-8524901D01*
X14396779Y-8541036D01*
X14391183Y-8558259D01*
X14388350Y-8576145D01*
X14388350Y-8594255D01*
X14391183Y-8612141D01*
X14396779Y-8629364D01*
X14401562Y-8638752D01*
X14405000Y-8645499D01*
X14415645Y-8660150D01*
X14428450Y-8672955D01*
X14443101Y-8683600D01*
X14459236Y-8691821D01*
X14476459Y-8697417D01*
X14483614Y-8698550D01*
X14494345Y-8700250D01*
X14494345Y-8700250D01*
X14512455Y-8700250D01*
X14521916Y-8698752D01*
X14530341Y-8697417D01*
X14547564Y-8691821D01*
X14563699Y-8683600D01*
X14578350Y-8672955D01*
X14591155Y-8660150D01*
X14601800Y-8645499D01*
X14610021Y-8629364D01*
X14615617Y-8612141D01*
X14618450Y-8594255D01*
X14618450Y-8576145D01*
X14618450Y-8576145D01*
X14616125Y-8561467D01*
X14615617Y-8558259D01*
X14610021Y-8541036D01*
X14601800Y-8524901D01*
X14599904Y-8522291D01*
X14598013Y-8516473D01*
X14599904Y-8510653D01*
X14604854Y-8507057D01*
X14610973Y-8507057D01*
X14612863Y-8507899D01*
X14618751Y-8511298D01*
X14618751Y-8511298D01*
X14618751Y-8511298D01*
X14632752Y-8515050D01*
X14632753Y-8515050D01*
X14647247Y-8515050D01*
X14647247Y-8515050D01*
X14661248Y-8511298D01*
X14661249Y-8511298D01*
X14661249Y-8511298D01*
X14673801Y-8504051D01*
X14673801Y-8504051D01*
X14673801Y-8504051D01*
X14684051Y-8493802D01*
X14691298Y-8481249D01*
X14695050Y-8467248D01*
X14695050Y-8452753D01*
X14691298Y-8438752D01*
X14691298Y-8438751D01*
X14691298Y-8438751D01*
X14684051Y-8426199D01*
X14684051Y-8426199D01*
X14684051Y-8426199D01*
X14673801Y-8415949D01*
X14673801Y-8415949D01*
X14673801Y-8415949D01*
X14661249Y-8408702D01*
X14661249Y-8408702D01*
X14658290Y-8407909D01*
X14647247Y-8404950D01*
X14632752Y-8404950D01*
X14628274Y-8406150D01*
X14618751Y-8408702D01*
X14608358Y-8414702D01*
X14602373Y-8415975D01*
X14596783Y-8413486D01*
X14593724Y-8408187D01*
X14594364Y-8402102D01*
X14595399Y-8400310D01*
X14601799Y-8391500D01*
X14601800Y-8391499D01*
X14610021Y-8375364D01*
X14615617Y-8358141D01*
X14617849Y-8344051D01*
X14618450Y-8340255D01*
X14618450Y-8322145D01*
X14615617Y-8304259D01*
X14615617Y-8304259D01*
X14610021Y-8287036D01*
X14601800Y-8270901D01*
X14591155Y-8256250D01*
X14578350Y-8243445D01*
X14563699Y-8232800D01*
X14563699Y-8232800D01*
X14563699Y-8232800D01*
X14547564Y-8224579D01*
X14530341Y-8218983D01*
X14512455Y-8216150D01*
X14512455Y-8216150D01*
X14494345Y-8216150D01*
X14494345Y-8216150D01*
X14476459Y-8218983D01*
X14459236Y-8224579D01*
X14443101Y-8232800D01*
X14437492Y-8236875D01*
X14428450Y-8243445D01*
X14415645Y-8256250D01*
X14415406Y-8256578D01*
X14405000Y-8270901D01*
X14396779Y-8287036D01*
X14391183Y-8304259D01*
X14388350Y-8322145D01*
X14303738Y-8322145D01*
X14305050Y-8317247D01*
X14305050Y-8302752D01*
X14301298Y-8288751D01*
X14301298Y-8288751D01*
X14301298Y-8288751D01*
X14294051Y-8276199D01*
X14294051Y-8276199D01*
X14294051Y-8276198D01*
X14284807Y-8266955D01*
X14282030Y-8261503D01*
X14282987Y-8255460D01*
X14283954Y-8253927D01*
X14284050Y-8253802D01*
X14284051Y-8253801D01*
X14291298Y-8241248D01*
X14295050Y-8227247D01*
X14295050Y-8212752D01*
X14291298Y-8198751D01*
X14291298Y-8198751D01*
X14291298Y-8198751D01*
X14284051Y-8186199D01*
X14284051Y-8186199D01*
X14284051Y-8186198D01*
X14273801Y-8175949D01*
X14273801Y-8175949D01*
X14273801Y-8175949D01*
X14261249Y-8168702D01*
X14261248Y-8168701D01*
X14255201Y-8167081D01*
X14250069Y-8163749D01*
X14247877Y-8158036D01*
X14249460Y-8152126D01*
X14249531Y-8152018D01*
X14252939Y-8146918D01*
X14252939Y-8146918D01*
X14252939Y-8146918D01*
X14258974Y-8132350D01*
X14262050Y-8116884D01*
X14262050Y-7991116D01*
X14258974Y-7975650D01*
X14256873Y-7970579D01*
X14252940Y-7961082D01*
X14252939Y-7961081D01*
X14249402Y-7955788D01*
X14244179Y-7947971D01*
X14233029Y-7936821D01*
X14227806Y-7933331D01*
X14219918Y-7928061D01*
X14219917Y-7928060D01*
X14205350Y-7922026D01*
X14189884Y-7918950D01*
X14189884Y-7918950D01*
X14174116Y-7918950D01*
X14174115Y-7918950D01*
X14158650Y-7922026D01*
X14158650Y-7922026D01*
X14144082Y-7928060D01*
X14144081Y-7928061D01*
X14130971Y-7936821D01*
X14130971Y-7936821D01*
X14119821Y-7947971D01*
X14119821Y-7947971D01*
X14111061Y-7961081D01*
X14111060Y-7961082D01*
X14106532Y-7972015D01*
X14102558Y-7976668D01*
X14096609Y-7978096D01*
X14090956Y-7975755D01*
X14088812Y-7973177D01*
X14085051Y-7966663D01*
X14074336Y-7955948D01*
X14074336Y-7955948D01*
X14074336Y-7955948D01*
X14061214Y-7948372D01*
X14061214Y-7948372D01*
X14055535Y-7946850D01*
X14046577Y-7944450D01*
X14031423Y-7944450D01*
X14022465Y-7946850D01*
X14016786Y-7948372D01*
X14003664Y-7955948D01*
X13992948Y-7966664D01*
X13985372Y-7979786D01*
X13985372Y-7979786D01*
X13981450Y-7994423D01*
X13518550Y-7994423D01*
X13514628Y-7979786D01*
X13514628Y-7979786D01*
X13514628Y-7979786D01*
X13507052Y-7966664D01*
X13507052Y-7966664D01*
X13507051Y-7966663D01*
X13496336Y-7955948D01*
X13496336Y-7955948D01*
X13496336Y-7955948D01*
X13483214Y-7948372D01*
X13483214Y-7948372D01*
X13477535Y-7946850D01*
X13468577Y-7944450D01*
X13453423Y-7944450D01*
X13444465Y-7946850D01*
X13438786Y-7948372D01*
X13425664Y-7955948D01*
X13414948Y-7966664D01*
X13411188Y-7973177D01*
X13406641Y-7977271D01*
X13400556Y-7977910D01*
X13395257Y-7974851D01*
X13393468Y-7972015D01*
X13388940Y-7961082D01*
X13388939Y-7961081D01*
X13385402Y-7955788D01*
X13380179Y-7947971D01*
X13369029Y-7936821D01*
X13363806Y-7933331D01*
X13355918Y-7928061D01*
X13355917Y-7928060D01*
X13341350Y-7922026D01*
X13325884Y-7918950D01*
X13325884Y-7918950D01*
X13310116Y-7918950D01*
X13310115Y-7918950D01*
X13294650Y-7922026D01*
X13294650Y-7922026D01*
X13280082Y-7928060D01*
X13280081Y-7928061D01*
X13266971Y-7936821D01*
X13266971Y-7936821D01*
X13255821Y-7947971D01*
X13255821Y-7947971D01*
X13247061Y-7961081D01*
X13247060Y-7961082D01*
X13241026Y-7975650D01*
X13241026Y-7975650D01*
X13237950Y-7991115D01*
X13056021Y-7991115D01*
X13054350Y-7989445D01*
X13039699Y-7978800D01*
X13039699Y-7978800D01*
X13039699Y-7978800D01*
X13023564Y-7970579D01*
X13006341Y-7964983D01*
X12988455Y-7962150D01*
X12988455Y-7962150D01*
X12970345Y-7962150D01*
X12970345Y-7962150D01*
X12952459Y-7964983D01*
X12935236Y-7970579D01*
X12919101Y-7978800D01*
X12917744Y-7979786D01*
X12904450Y-7989445D01*
X12891645Y-8002250D01*
X12886322Y-8009575D01*
X12881000Y-8016901D01*
X12872779Y-8033036D01*
X12867183Y-8050259D01*
X12864350Y-8068145D01*
X12640050Y-8068145D01*
X12640050Y-7814145D01*
X12864350Y-7814145D01*
X12864350Y-7832255D01*
X12867183Y-7850141D01*
X12867183Y-7850141D01*
X12872779Y-7867364D01*
X12881000Y-7883499D01*
X12891645Y-7898150D01*
X12904450Y-7910955D01*
X12919101Y-7921600D01*
X12935236Y-7929821D01*
X12952459Y-7935417D01*
X12959614Y-7936550D01*
X12970345Y-7938250D01*
X12970345Y-7938250D01*
X12988455Y-7938250D01*
X12997476Y-7936821D01*
X13006341Y-7935417D01*
X13023564Y-7929821D01*
X13039699Y-7921600D01*
X13054350Y-7910955D01*
X13067155Y-7898150D01*
X13077800Y-7883499D01*
X13086021Y-7867364D01*
X13091617Y-7850141D01*
X13094450Y-7832255D01*
X13094450Y-7814145D01*
X13094450Y-7814145D01*
X14388350Y-7814145D01*
X14388350Y-7832255D01*
X14391183Y-7850141D01*
X14391183Y-7850141D01*
X14396779Y-7867364D01*
X14405000Y-7883499D01*
X14415645Y-7898150D01*
X14428450Y-7910955D01*
X14443101Y-7921600D01*
X14459236Y-7929821D01*
X14476459Y-7935417D01*
X14483614Y-7936550D01*
X14494345Y-7938250D01*
X14494345Y-7938250D01*
X14512455Y-7938250D01*
X14521476Y-7936821D01*
X14530341Y-7935417D01*
X14547564Y-7929821D01*
X14563699Y-7921600D01*
X14578350Y-7910955D01*
X14591155Y-7898150D01*
X14601800Y-7883499D01*
X14610021Y-7867364D01*
X14615617Y-7850141D01*
X14618450Y-7832255D01*
X14618450Y-7814145D01*
X14618450Y-7814145D01*
X14615617Y-7796259D01*
X14615617Y-7796259D01*
X14610021Y-7779036D01*
X14601800Y-7762901D01*
X14591155Y-7748250D01*
X14578350Y-7735445D01*
X14563699Y-7724800D01*
X14563699Y-7724800D01*
X14563699Y-7724800D01*
X14547564Y-7716579D01*
X14530341Y-7710983D01*
X14512455Y-7708150D01*
X14512455Y-7708150D01*
X14494345Y-7708150D01*
X14494345Y-7708150D01*
X14476459Y-7710983D01*
X14459236Y-7716579D01*
X14443101Y-7724800D01*
X14435775Y-7730122D01*
X14428450Y-7735445D01*
X14415645Y-7748250D01*
X14413666Y-7750974D01*
X14405000Y-7762901D01*
X14396779Y-7779036D01*
X14391183Y-7796259D01*
X14388350Y-7814145D01*
X13094450Y-7814145D01*
X13091617Y-7796259D01*
X13091617Y-7796259D01*
X13086021Y-7779036D01*
X13077800Y-7762901D01*
X13067155Y-7748250D01*
X13054350Y-7735445D01*
X13039699Y-7724800D01*
X13039699Y-7724800D01*
X13039699Y-7724800D01*
X13023564Y-7716579D01*
X13006341Y-7710983D01*
X12988455Y-7708150D01*
X12988455Y-7708150D01*
X12970345Y-7708150D01*
X12970345Y-7708150D01*
X12952459Y-7710983D01*
X12935236Y-7716579D01*
X12919101Y-7724800D01*
X12911775Y-7730122D01*
X12904450Y-7735445D01*
X12891645Y-7748250D01*
X12889666Y-7750974D01*
X12881000Y-7762901D01*
X12872779Y-7779036D01*
X12867183Y-7796259D01*
X12864350Y-7814145D01*
X12640050Y-7814145D01*
X12640050Y-7560145D01*
X12864350Y-7560145D01*
X12864350Y-7578255D01*
X12867183Y-7596141D01*
X12867183Y-7596141D01*
X12872779Y-7613364D01*
X12881000Y-7629499D01*
X12891645Y-7644150D01*
X12904450Y-7656955D01*
X12919101Y-7667600D01*
X12935236Y-7675821D01*
X12952459Y-7681417D01*
X12959614Y-7682550D01*
X12970345Y-7684250D01*
X12970345Y-7684250D01*
X12988455Y-7684250D01*
X12997398Y-7682833D01*
X13006341Y-7681417D01*
X13023564Y-7675821D01*
X13039699Y-7667600D01*
X13054350Y-7656955D01*
X13067155Y-7644150D01*
X13077800Y-7629499D01*
X13086021Y-7613364D01*
X13091617Y-7596141D01*
X13094450Y-7578255D01*
X13094450Y-7560145D01*
X13094450Y-7560145D01*
X13091864Y-7543821D01*
X13091617Y-7542259D01*
X13086021Y-7525036D01*
X13077800Y-7508901D01*
X13067155Y-7494250D01*
X13054350Y-7481445D01*
X13039699Y-7470800D01*
X13039699Y-7470800D01*
X13039699Y-7470800D01*
X13023564Y-7462579D01*
X13006341Y-7456983D01*
X12988455Y-7454150D01*
X12988455Y-7454150D01*
X12970345Y-7454150D01*
X12970345Y-7454150D01*
X12952459Y-7456983D01*
X12935236Y-7462579D01*
X12919101Y-7470800D01*
X12911775Y-7476122D01*
X12904450Y-7481445D01*
X12891645Y-7494250D01*
X12886322Y-7501575D01*
X12881000Y-7508901D01*
X12872779Y-7525036D01*
X12867183Y-7542259D01*
X12864350Y-7560145D01*
X12640050Y-7560145D01*
X12640050Y-7400555D01*
X12640112Y-7399449D01*
X12641428Y-7387767D01*
X12641921Y-7385607D01*
X12645619Y-7375041D01*
X12646580Y-7373044D01*
X12652536Y-7363566D01*
X12653917Y-7361834D01*
X12661834Y-7353917D01*
X12663566Y-7352536D01*
X12673044Y-7346580D01*
X12675041Y-7345619D01*
X12682669Y-7342950D01*
X12685607Y-7341921D01*
X12687767Y-7341428D01*
X12699449Y-7340112D01*
X12700556Y-7340050D01*
X12705758Y-7340050D01*
X13079310Y-7340050D01*
X13085129Y-7341941D01*
G37*
%TD.AperFunction*%
%TD*%
M02*
